<?xml version="1.0" encoding="utf-8"?>
<!-- Generator: Adobe Illustrator 27.1.1, SVG Export Plug-In . SVG Version: 6.00 Build 0)  -->
<svg version="1.1" id="Слой_1" xmlns="http://www.w3.org/2000/svg" xmlns:xlink="http://www.w3.org/1999/xlink" x="0px" y="0px"
	 viewBox="0 0 500 500" style="enable-background:new 0 0 500 500;" xml:space="preserve">
<style type="text/css">
	.st0{fill:none;stroke:#000000;stroke-width:2;stroke-miterlimit:10;}
</style>
<g>
	<path class="st0" d="M486,211.26c0-26.81-19.82-48.53-44.26-48.53c-5,0-9.81,0.91-14.3,2.59c-6.8-17.21-22.43-29.25-40.62-29.25
		c-16.08,0-30.16,9.4-37.91,23.46c-7.61-6.78-17.31-10.84-27.88-10.84c-18.23,0-33.88,12.08-40.66,29.34
		c-8.06-9.29-19.45-15.09-32.08-15.09c-13.16,0-24.97,6.29-33.08,16.28c-6.52-17.89-22.46-30.53-41.11-30.53
		c-10.42,0-20.01,3.95-27.57,10.56c-7.95-8.39-18.76-13.55-30.68-13.55c-15.7,0-29.49,8.96-37.35,22.48
		c-6.1-3.48-13.03-5.45-20.39-5.45c-24.45,0-44.27,21.72-44.27,48.53c0,17.52,8.47,32.87,21.17,41.41
		c-0.97,3.99-1.49,8.18-1.49,12.51c0,26.81,19.82,48.53,44.26,48.53c5.43,0,10.62-1.07,15.43-3.03c-0.44,2.74-0.67,5.55-0.67,8.43
		c0,26.8,19.82,48.53,44.26,48.53c10,0,19.22-3.63,26.63-9.76c-0.13,1.44-0.2,2.9-0.2,4.37c0,26.8,21.77,48.53,48.63,48.53
		c19.81,0,36.85-11.81,44.44-28.76c8.66,16.95,28.1,28.76,50.7,28.76c30.63,0,55.48-21.71,55.5-48.49
		c6.06,3.42,12.94,5.35,20.22,5.35c24.44,0,44.26-21.73,44.26-48.53c0-11.08-3.39-21.29-9.07-29.45c4.4,1.61,9.1,2.48,13.99,2.48
		c24.45,0,44.26-21.72,44.26-48.53c0-0.6-0.01-1.2-0.03-1.8C482.3,233.47,486,222.84,486,211.26z M382.72,270.57
		c-24.45,0-44.27,21.73-44.27,48.54c0,1.08,0.03,2.15,0.1,3.21c-8.96-5.43-19.83-8.61-31.55-8.61c-22.6,0-42.04,11.81-50.7,28.76
		c-7.59-16.95-24.63-28.76-44.44-28.76c-11.83,0-22.68,4.21-31.11,11.24c0.21-1.91,0.32-3.86,0.32-5.84
		c0-26.81-19.82-48.54-44.27-48.54c-5.42,0-10.61,1.07-15.41,3.02c0.43-2.73,0.66-5.54,0.66-8.41c0-8.1-1.81-15.73-5.01-22.44
		c9.97-0.29,19.11-4.18,26.38-10.54c7.95,8.4,18.77,13.56,30.68,13.56c13.16,0,24.97-6.29,33.08-16.29
		c6.52,17.89,22.46,30.53,41.11,30.53c18.23,0,33.88-12.08,40.66-29.34c8.06,9.3,19.45,15.1,32.08,15.1
		c16.08,0,30.15-9.4,37.91-23.46c7.61,6.78,17.32,10.84,27.88,10.84c0.62,0,1.24-0.01,1.85-0.05c-0.68,3.39-1.04,6.91-1.04,10.52
		c0,11.07,3.37,21.27,9.06,29.43C392.3,271.44,387.6,270.57,382.72,270.57z"/>
</g>
</svg>
