<?xml version="1.0" encoding="UTF-8"?>
<svg id="_Слой_1" data-name="Слой 1" xmlns="http://www.w3.org/2000/svg" viewBox="0 0 500 500">
  <defs>
    <style>
      .cls-1 {
        fill: none;
        stroke: #000;
        stroke-miterlimit: 10;
        stroke-width: 2px;
      }
    </style>
  </defs>
  <path class="cls-1" d="m485.21,187.28c-4.22,4.9-10.22,10.07-18.04,11.34-7.62,1.23-14.12-1.68-14.19-1.42,0,.26,5.89,2.38,29.66,9.92-12.04-.94-24.07-1.89-36.1-2.83,7.73,4.72,15.47,9.44,23.2,14.17-5.6.14-13.47-.48-21.91-4.25-9.68-4.33-15.92-10.94-16.76-9.92-1.28,1.53,12.85,16.93,11.6,18.42-.84,1.01-8.44-4.76-12.89-8.5-6.7-5.63-9.33-9.2-10.31-8.51-.8.56-.48,3.9,5.15,17.01-7.82-5.38-14.45-10.7-20.06-15.78.54,1.95.93,3.6,1.19,4.83,4.47,20.99-.98,40.59-8.05,55.51-.32,9.39-1.72,16.71-3.56,22.51-4.23,13.32-11.44,20.91-17.44,47.33-.32,1.41-.62,2.8-.89,4.13,9.87,29.11,19.94,66.81,13.8,87.21.35,2.21.37,4.71-.22,7.39-.6,2.73-1.69,4.99-2.77,6.73-4.32,2.3-11.91,5.63-22.13,6.74-5.41.59-10.14.4-13.83,0,.4-3.84,1.18-8.23,2.64-13.02.38-5.49,4.69-12.34,6.49-15.58,6.58-11.91,10.11-31.48.49-65.88-1.48-5.35-3.3-11.07-5.48-17.17-2.41,2.7-5.1,5.24-7.99,7.47,1.77,2.72,3.05,6.01,3.1,9.63.03,3.6-1.16,9.19-3.29,9.41-2.46.25-6.09-6.83-8.33-13.7-2.57,1.28-5.29,2.39-8.1,3.32,6.3,23.03,10.31,46.78,5.88,61.5.34,2.21.36,4.7-.22,7.37-.6,2.73-1.7,5-2.77,6.74-4.32,2.29-11.91,5.63-22.13,6.73-5.41.59-10.15.4-13.83,0,.4-3.84,1.18-8.23,2.63-13.02.39-5.49,4.71-12.34,6.5-15.58,5.55-10.05,8.94-25.59,4.05-50.91-1.77-.07-3.53-.24-5.26-.5.52,2.31.63,4.8.07,7.32-.03.16-.06.32-.1.48-.86,3.51-3.43,8.63-5.53,8.3-2.91-.44-4.79-11.12-4.76-19.09-3.26-1.44-6.34-3.37-9.07-5.81-4.46-3.97-9.11-10.24-11.13-16.45-19.03-.74-37.11-3.45-52-5.68-.98-.15-1.95-.29-2.92-.44-2.59,12.66-3.6,18.75-7.27,29.49-7.74,22.64-11.24,18.95-13.83,33.2-2.23,12.27-5.62,30.89,2.11,48.37.69-.75,1.38-1.61,2.04-2.59,1.29,2.42,3.72,7.92,2.37,14.64-.52,2.54-1.45,4.65-2.37,6.27-3.7,2.14-10.2,5.24-18.94,6.27-4.64.55-8.69.37-11.84,0,.35-3.68,1.05-7.93,2.36-12.54,1.75-6.18,4.14-11.4,6.46-15.57.01-.02.02-.04.03-.06h0c.45-3.22.93-7.03,1.18-11.6.88-15.85-2.25-16.48-2.77-35.96-.4-15.25,1.5-15.55,2.77-38.73.46-8.42.97-17.66.81-28.03-1.28-.32-2.54-.67-3.79-1.03-1.53,11.04-2.17,16.71-4.72,26.48-5.58,21.39-8.67,18.08-10.27,31.46-1.37,11.51-3.46,29,3.74,45.02.55-.73,1.09-1.55,1.6-2.49,1.19,2.22,3.46,7.25,2.59,13.57-.33,2.39-1.03,4.39-1.74,5.93-3.01,2.13-8.34,5.26-15.64,6.54-3.87.68-7.28.67-9.94.44.15-3.45.56-7.43,1.48-11.79,1.21-5.82,3-10.77,4.78-14.74,0-.02.01-.05.03-.07.25-3.01.49-6.58.52-10.85.09-14.81-2.56-15.29-3.79-33.43-.96-14.21.62-14.55.75-36.22.06-10.26.13-21.82-1.15-35.25-4.41-3.45-8.55-7.49-12.39-12.26-14.33-17.79-19.02-40.43-28.37-85.71-4.95-4.63-10.39-10.57-16.53-17.27,0,0-10.27-11.21-21.22-33.57,1.09,3.33,1.86,5.79.77,9.53-1.81,6.26-6.75,9.93-8.87,11.51-9.6,7.13-23.84,7.86-27.12,4.52-5.26-1.15-10.19-3.76-10.11-6.2.1-3.19,8.61-2.53,12.82-8.63,3.78-5.49-.38-10.02.49-20.62.23-2.75,1.78-18.84,12.33-23.97,4.62-2.25,10.13-1.25,14.94.6-2.19-3.78-1.9-10.01-5.8-16.5-10.77-17.91-40.43-16.11-39.81-18.72.81-3.41,52.39-9.87,67.45,12.52,1.47,2.19,5.7,8.46,3.29,14.99,3.17-.54,7.13-1.37,12.32-2.85,3-.86,5.41-1.65,6.9-2.15,1.63-.6,3.99-1.43,6.86-2.33.47-.15.94-.29,1.39-.43-3.47-4.02-3.81-9.52-3.94-11.68-1.62-26.71,43.78-51.38,46.52-49.12,2.09,1.74-22.83,17.47-20.51,38.1,1.12,9.94,7.91,15.23,4.63,20.79.86.52,1.67,1.11,2.44,1.76,1.3-1.8,2.94-3.31,5-4.3,10.57-5.1,24.71,3.39,27.1,4.88,9.23,5.71,10.43,11.66,17.22,12.04,7.54.41,12.13-6.6,14.81-4.75,2.05,1.41,1.23,6.8-.99,11.57.8,4.52-8.41,15.18-20.07,18.33-2.57.7-8.56,2.32-14.79-.05-7.26-2.75-6.28-8.06-16.96-16.63.48,4.61-.12,10.46-2.24,19.43,13.61,15.45,21.74,29.73,36.83,39.78,19.45,12.97,40.62,11.72,51.61,11.07,28.2-1.66,32.18-14.77,69.68-24.9,24.46-6.6,47.14-12.74,66.75-.22,5.42,1.59,17.2,10.25,25.69,14.4,15.81,7.73,41.62,10.32,85.09-14.17-16.4,11.01-24.14,17.62-23.2,19.84.72,1.74,6.74.79,18.04-2.83Z"/>
</svg>