<?xml version="1.0" encoding="UTF-8"?>
<svg id="_Слой_1" data-name="Слой 1" xmlns="http://www.w3.org/2000/svg" viewBox="0 0 500 500">
  <defs>
    <style>
      .cls-1 {
        fill: none;
        stroke: #000;
        stroke-miterlimit: 10;
        stroke-width: 2px;
      }
    </style>
  </defs>
  <path class="cls-1" d="m487.63,325.73c-.77,2.8-3.06,6.71-10.6,10.22h-.01c-10.78,2.67-23.94,5.06-39.02,6.05-14.75.96-27.83.35-38.69-.83-5.07,1.29-14.78,2.51-26.69.37-7.84-1.41-14.65-4.42-20.45-9.18-2.48,6.24-5.38,12.22-8.67,17.89,6.41,6.86,10.17,15.25,10.17,24.31,0,18.48-15.66,34.18-37.45,39.82-2.23,4.34-6.11,7.21-10.52,7.21-1.8,0-3.52-.48-5.07-1.35-2.9,5.35-8.1,8.91-14.03,8.91s-11.1-3.54-14.01-8.87c-1.76,1.19-3.78,1.86-5.92,1.86-6.33,0-11.57-5.92-12.4-13.6-5.53-.11-11.07-.23-16.6-.34.02.25.02.5.02.76,0,7.07-5.8,15.53-12.53,15.77-1.09.04-2.87-.11-5.07-1.35-2.91,5.35-8.11,8.91-14.03,8.91s-11.1-3.55-14.01-8.88c-1.76,1.2-3.77,1.87-5.91,1.87-6.92,0-12.53-7.06-12.53-15.77,0-.09,0-.17.01-.26-17.7-7.01-29.78-21.09-29.78-37.32,0-8.18,3.08-15.82,8.4-22.28-2.87-5-5.44-10.25-7.68-15.71-18.81,13.09-38.62,10.91-61.43-3.85-3.67-2.31-7.5-4.59-11.49-6.83-16.89-9.46-33.31-16.16-48.34-20.96-.19-.05-.37-.1-.53-.15-2.87-2.72-5.75-5.45-8.62-8.17h-.04c-5.47-6.25-5.99-10.76-5.56-13.63,1.11-7.43,9.31-9.07,30.65-23.38,31.69-21.25,30.11-26.05,41.78-29.46,16.5-4.82,40.25-1.22,58.68,11.12.65-2.29,1.38-4.55,2.16-6.78-6-.77-10.82-3.22-13.37-7.3-2.53-4.07-2.42-9.12-.18-14.3-8.72.36-15.95-2.17-19.28-7.53-4.14-6.65-1.22-15.95,6.58-24.13-3.38-4.3-4.78-8.93-3.58-13.31,1.79-6.47,8.89-10.9,18.42-12.46,2.79-6.68,7.17-12.99,12.88-18.77-5.2-4.98-10.84-12.1-14.34-21.68-7.23-19.77-.46-36.51,1.42-40.74,2.71,2.03,5.31,4.06,7.83,6.1,1.31.98,2.62,1.96,3.92,2.94.43.31.84.63,1.26.94,7.51,5.57,12.06,9.05,12.56,9.43,9.35,6.99,22.46,11.96,29.31,17.76,18.13-6.5,39.38-10.23,62.09-10.23,19.29,0,37.53,2.7,53.69,7.49,7.23-4.82,18.02-9.33,26.04-15.33.5-.38,5.05-3.85,12.56-9.42.43-.32.84-.63,1.26-.95,1.32-.99,2.64-1.98,3.95-2.96,2.52-2.03,5.11-4.06,7.81-6.08,1.87,4.24,8.64,20.97,1.42,40.74-2.36,6.44-5.67,11.77-9.18,16.08,8.76,7.16,15.34,15.32,19.16,24.15,10.82,1.15,19.06,5.77,21.01,12.8,1.21,4.38-.2,9.02-3.57,13.32,7.78,8.17,10.72,17.48,6.58,24.13-3.33,5.36-10.58,7.88-19.28,7.53,2.24,5.18,2.35,10.22-.19,14.3-2.69,4.31-7.89,6.79-14.35,7.41,1.55,4.46,2.89,9.04,4,13.73,26.55-19.19,65.66-13.11,84.41,2.65,9.3,7.83,5.91,11.59,26.34,43.81,13.76,21.7,20.61,26.52,18.63,33.76Z"/>
</svg>