<?xml version="1.0" encoding="UTF-8"?>
<svg id="_Слой_1" data-name="Слой 1" xmlns="http://www.w3.org/2000/svg" viewBox="0 0 500 500">
  <defs>
    <style>
      .cls-1 {
        fill: none;
        stroke: #000;
        stroke-miterlimit: 10;
        stroke-width: 2px;
      }
    </style>
  </defs>
  <path class="cls-1" d="m482,320.8s0,.07-.02.1c0,0-.02.04-.08.06-.07.03-52.9,12.42-229.36,53.8-1.91,1.23-4.14,1.94-6.55,1.94-.47,0-.95-.03-1.42-.09l-84.5,19.83c-1.82.44-3.66.79-5.48,1.05-29.57,4.56-56.63-10.35-61.83-35-2.84-13.41,1.34-27.17,10.41-38.33.08-.11.26-.03.23.1-.91,4.19-1.76,10.47-.66,17.82,1.98,13.18,9.92,28.21,22.92,33.8,5.67,2.44,10.59,2.35,25.77,0,11.91-1.89,27.93-4.8,46.91-9.5l34.98-8.22s.1-.06.1-.13v-22.89l-24.37,5.13c-2.41.31-4.82-.59-6.45-2.42l-32.58-36.48-84.56,19.83c-1.84.44-3.69.82-5.5,1.06-29.58,4.58-56.61-10.36-61.84-34.98-2.87-13.61,1.49-27.53,10.77-38.79-.95,4.2-1.9,10.71-.76,18.35,1.96,13.21,9.9,28.21,22.89,33.83,5.71,2.44,10.63,2.35,25.78-.03,11.93-1.85,27.92-4.8,46.9-9.5l17.47-4.09v-17.99l-5-5.6c-1.38-1.54-2.06-3.58-1.89-5.64l1.38-16.86c-4.36-7.43-.39-17.7,8.31-19.32l94.63-17.6c.54-12.68,22.98-47.33,51.44-64.36,51.08-30.55,130.24-9.37,155.82,37.01,1.72,3.12,15.21,27.59,6.16,43.45-5.46,9.57-15.03,8.84-31.79,12.03l-6.32,29.1c-.38,1.75-1.49,3.15-2.91,3.92.48,2.74.09,5.59-1.07,8.07l.83.14-2.62,20.06c-.46,3.52-3.32,6.2-6.83,6.41-.17.01-.33.03-.49.05l-16.46,3.46v19.21c0,.08.08.15.16.13l93.13-21.85s.07,0,.1.02c0,0,.04.03.06.09.03.1,2.45,11.56,4.19,19.82Z"/>
</svg>