<svg width="207" height="123" viewBox="0 0 207 123" fill="none" xmlns="http://www.w3.org/2000/svg">
<path d="M205.116 87.5103C205.116 87.5103 205.116 87.541 205.107 87.5541C205.107 87.5541 205.099 87.5716 205.072 87.5804C205.042 87.5935 181.902 93.0203 104.613 111.145C103.776 111.684 102.799 111.995 101.744 111.995C101.538 111.995 101.328 111.981 101.122 111.955L64.1109 120.641C63.3137 120.833 62.5078 120.987 61.7106 121.101C48.759 123.098 36.9067 116.567 34.6291 105.771C33.3852 99.8969 35.216 93.8701 39.1887 88.982C39.2237 88.9338 39.3025 88.9688 39.2894 89.0258C38.8908 90.861 38.5185 93.6116 39.0003 96.8309C39.8676 102.604 43.3453 109.187 49.0393 111.635C51.5227 112.704 53.6777 112.665 60.3265 111.635C65.5431 110.808 72.5599 109.533 80.8731 107.474L96.1944 103.874C96.1944 103.874 96.2382 103.848 96.2382 103.817V93.7912L85.5641 96.0382C84.5085 96.1739 83.4529 95.7797 82.739 94.9782L68.469 79L31.4317 87.6855C30.6258 87.8782 29.8155 88.0447 29.0227 88.1498C16.0666 90.1558 4.2275 83.6121 1.93676 72.8285C0.679701 66.8674 2.58938 60.7704 6.65402 55.8385C6.23792 57.6781 5.82182 60.5295 6.32114 63.8758C7.17962 69.6618 10.6573 76.2318 16.347 78.6934C18.8479 79.7621 21.0029 79.7227 27.6386 78.6802C32.8639 77.8699 39.8676 76.5778 48.1808 74.5192L55.8327 72.7278V64.8482L53.6427 62.3954C53.0382 61.7209 52.7404 60.8273 52.8148 59.9251L53.4193 52.5404C51.5096 49.286 53.2485 44.7878 57.0591 44.0782L98.507 36.3694C98.7435 30.8156 108.572 15.6389 121.038 8.17974C143.411 -5.20116 178.083 4.07568 189.287 24.3901C190.04 25.7567 195.949 36.4745 191.985 43.4212C189.593 47.6129 185.402 47.2931 178.061 48.6904L175.293 61.4362C175.126 62.2027 174.64 62.8159 174.018 63.1531C174.228 64.3532 174.058 65.6015 173.55 66.6878L173.913 66.7491L172.766 75.5354C172.564 77.0771 171.311 78.251 169.774 78.343C169.7 78.3473 169.629 78.3561 169.559 78.3649L162.35 79.8803V88.2943C162.35 88.3294 162.385 88.36 162.42 88.3513L203.211 78.781C203.211 78.781 203.242 78.781 203.255 78.7897C203.255 78.7897 203.272 78.8029 203.281 78.8291C203.294 78.8729 204.354 83.8924 205.116 87.5103Z" stroke="black" stroke-width="2" stroke-miterlimit="10"/>
</svg>
