<?xml version="1.0" encoding="UTF-8"?>
<svg id="_Слой_1" data-name="Слой 1" xmlns="http://www.w3.org/2000/svg" xmlns:xlink="http://www.w3.org/1999/xlink" viewBox="0 0 200 200">
  <defs>
    <style>
      .cls-1, .cls-2, .cls-3 {
        fill: #fff;
      }

      .cls-4 {
        fill: #f8f7d7;
      }

      .cls-4, .cls-5, .cls-6, .cls-7, .cls-8, .cls-9, .cls-2, .cls-3, .cls-10, .cls-11 {
        stroke: #1d1d1b;
      }

      .cls-4, .cls-5, .cls-6, .cls-7, .cls-8, .cls-9, .cls-2, .cls-3, .cls-12 {
        stroke-miterlimit: 10;
      }

      .cls-5, .cls-13, .cls-11 {
        fill: #f08630;
      }

      .cls-6 {
        fill: url(#_Безымянный_градиент_43);
      }

      .cls-7 {
        fill: #fffffd;
      }

      .cls-14 {
        fill: #3fa9f5;
      }

      .cls-15 {
        fill: #c42641;
      }

      .cls-8, .cls-10 {
        fill: #fccc7e;
      }

      .cls-16 {
        fill: #b7ccd1;
      }

      .cls-17 {
        fill: #c86c25;
      }

      .cls-9 {
        fill: #fcf3cc;
      }

      .cls-3 {
        stroke-width: .5px;
      }

      .cls-10, .cls-11 {
        stroke-linecap: round;
        stroke-linejoin: round;
      }

      .cls-18 {
        fill: #bdfdff;
      }

      .cls-12 {
        fill: #ff3f5a;
        stroke: #000;
      }
    </style>
    <radialGradient id="_Безымянный_градиент_43" data-name="Безымянный градиент 43" cx="113.73" cy="71.74" fx="113.73" fy="71.74" r="5.42" gradientTransform="translate(252.8 -13.33) rotate(-180) scale(1.07 -1.06)" gradientUnits="userSpaceOnUse">
      <stop offset="0" stop-color="#831811"/>
      <stop offset=".17" stop-color="#7e1811"/>
      <stop offset=".36" stop-color="#701812"/>
      <stop offset=".56" stop-color="#591a15"/>
      <stop offset=".78" stop-color="#391b18"/>
      <stop offset=".93" stop-color="#1d1d1b"/>
    </radialGradient>
  </defs>
  <g>
    <path class="cls-5" d="m123.72,159.43c24.69-37.05,18.54-87.01-13-115.16-29.48-26.31-74.42-27.56-106.72-2.12,9.34,3.74,22.94,10.99,29.29,25.12,6.78,15.08.4,27.04,2.17,38.94,1.27,8.57,6.99,18.62,23.61,28.85,13.37,8.23,33.8,16.58,64.65,24.37Z"/>
    <path class="cls-2" d="m63.9,24.03c-9.39-.66-25.47-.36-42.79,7.75-6.75,3.16-12.29,6.85-16.7,10.33,9.34,3.74,22.94,10.99,29.29,25.12,16.32.16,29.81-9.42,33.17-22.17,2.54-9.63-1.47-18.15-2.98-21.03Z"/>
    <path class="cls-17" d="m69.82,129.29c-.9,1.38-26.42-7.46-29.31-25.4-1.19-7.39,1.54-15.77,2.94-15.73,1.15.03,1.17,5.76,2.64,11.5,5.06,19.72,24.54,28.4,23.73,29.63Z"/>
    <path class="cls-16" d="m64.46,30.23c.02-.31-20.72-5.16-41,3.09-6.07,2.47-10.43,5.43-10.29,5.75.22.51,11.14-6.41,26.2-7.99,4.99-.52,13.06-.74,15.87-.81,7.81-.21,9.22.04,9.22-.04Z"/>
    <polyline class="cls-5" points="37.18 78.35 32.63 77.45 37.27 81.99 36.2 82.54 37.14 84.96 33.61 86.91 36.88 90.9"/>
    <polyline class="cls-7" points="47.68 24.71 38.88 19.82 43.97 25.59 39.03 21.94 38.95 26.3 34.28 24.24 34.43 26.45 26.05 25.51 29.43 28.45"/>
    <g>
      <g>
        <g>
          <path class="cls-5" d="m122.12,133.6c-.22-.38-.39-.79-.49-1.23-.49,9.05-1.05,16.73-6.73,23.23-.17-1.15-.84-2.22-1.01-3.34-8.06,10.3,12.81,8.19-9.89,18.35.69-14.63-25.25,6.02-16.14-16.98-7.85,5.14-4.11-5.52-2.59-10.44-.51.16-1.54,0-1.83.07,1.83-3.16,3.96-7.04,4.77-10.78-1.04.83-2.25,1.43-3.45,1.72,2.08-3.04,13.15-12.87,14.44-7.54-1.33-6.41,1.64-7.24,5.85-5.12-.78-7.46,7.05.08,8.97,2.58-.3-8.51,3.94-2.95,5.77,1.41.24-1.75,2.3,6.3,2.33,8.08Z"/>
          <path class="cls-5" d="m85.95,164.85c.24,0,.46,0,.69,0-.19.01-.76.35-.69,0Z"/>
          <g>
            <path class="cls-5" d="m104.29,168.43c-3.41,6.91-21.39,4.31-28.57,6.84-13.8-3.15,4.05-11.52,10.28-11.24,3.34,4.08,17.04-2.89,18.29,4.41Z"/>
            <path class="cls-5" d="m93.18,168.62c-.2,8.21-16.33,11.64-18.72,4.52-1.02-6.67,16-12.49,18.72-4.52Z"/>
            <path class="cls-5" d="m104.29,168.43c.34,7.63-16.2,11.96-18.73,4.52-.86-7.84,17.68-11.49,18.73-4.52Z"/>
          </g>
        </g>
        <path class="cls-4" d="m67.73,174.42c3.45.46,7.12-.95,5.62-4.5-1.09-1.12-5.42,2.07-5.62,4.5Z"/>
      </g>
      <path class="cls-4" d="m74.43,177.27c4.07-.26,8.01-2.84,5.68-6.6-1.45-1.06-5.88,3.73-5.68,6.6Z"/>
      <path class="cls-4" d="m83.84,178.04c4.17-.5,8.24-3.24,5.7-6.99-1.53-.98-5.98,4.05-5.7,6.99Z"/>
      <path class="cls-13" d="m105.83,166.3c.12,4.91-10.36,4.91-10.23,0-.12-4.91,10.36-4.91,10.23,0Z"/>
    </g>
    <g>
      <g>
        <g>
          <path class="cls-5" d="m154.07,122.88c.65.94-3.75-3.28-5.04,2.05,1.33-6.41-1.64-7.24-5.85-5.12.78-7.46-7.05.08-8.97,2.58.3-8.51-3.94-2.95-5.77,1.41-.24-1.75-2.3,6.3-2.33,8.08.22-.38.39-.79.49-1.23.49,9.05,1.05,16.73,6.73,23.23.17-1.15.84-2.22,1.01-3.34,8.06,10.3-12.81,8.19,9.89,18.35-.69-14.63,25.25,6.02,16.14-16.98,7.85,5.14,4.11-5.52,2.59-10.44.51.16,1.54,0,1.83.07-1.83-3.16-9.31-13.27-10.12-17.01"/>
          <path class="cls-5" d="m162.28,163.12c-.24,0-.46,0-.69,0,.19.01.76.35.69,0Z"/>
          <g>
            <path class="cls-5" d="m143.94,166.7c3.41,6.91,21.39,4.31,28.57,6.84,13.8-3.15-4.05-11.52-10.28-11.24-3.34,4.08-17.04-2.89-18.29,4.41Z"/>
            <path class="cls-5" d="m155.05,166.89c.2,8.21,16.33,11.64,18.72,4.52,1.02-6.67-16-12.49-18.72-4.52Z"/>
            <path class="cls-5" d="m143.94,166.7c-.34,7.63,16.2,11.96,18.73,4.52.86-7.84-17.68-11.49-18.73-4.52Z"/>
          </g>
        </g>
        <path class="cls-4" d="m180.5,172.69c-3.45.46-7.12-.95-5.62-4.5,1.09-1.12,5.42,2.07,5.62,4.5Z"/>
      </g>
      <path class="cls-4" d="m173.8,175.54c-4.07-.26-8.01-2.84-5.68-6.6,1.45-1.06,5.88,3.73,5.68,6.6Z"/>
      <path class="cls-4" d="m164.39,176.31c-4.17-.5-8.24-3.24-5.7-6.99,1.53-.98,5.98,4.05,5.7,6.99Z"/>
      <path class="cls-13" d="m142.4,164.56c-.12,4.91,10.36,4.91,10.23,0,.12-4.91-10.36-4.91-10.23,0Z"/>
    </g>
    <path class="cls-5" d="m154.67,83.11c4.51,3.34,6.58,15.23,3.69,12.03-.66,2.76,3.81,13.5-.21,8.59-.09,18.36-3.14,8.79-1.74,27.61-1.45-5.79-1.41,1.54-1.43,4.05-.31-.57-.64-.86-.99-.91-4.94-.76-11.03,26.43-25.75,29.68-4.93,1.09-11.04-.56-14.66-4.34-4.23-4.43-3.11-9.72-7.92-18.21-2.47-4.37-5.27-7.38-7.12-9.16-.66,2.8.11-3.28-.49-3.47-.08-.49-1.03,4.84-1.15,4.46-.04.21.01-6.85-.56-6.81-1.56,5.53-.79,1.37-.25-3.69,1.61-9.64-.18-25.59-3.25-20.18-2.56,4.22.83-9.68.67-9.56-5.35,5.16,3.28-12.47,6.64-12.85,13.97-1.57,52.63,2.56,54.51,2.77Z"/>
    <path class="cls-2" d="m104.66,66.16c-1.81,4.38-4.41,9.31-7.48,12.83,1.47-1.16,3.13-2.13,4.4-3.54-1.57,3.57-5.28,6.52-6.36,10.28,1.52-.66,2.95-1.55,4.18-2.71-.47,5.6-4.03,15.8,2.57,6.46.06,2.39-.53,4.82-.25,7.15.6-.84,1.59-1.18,2.05-2.28.46,3.05,2.43,13.28,3.29,16.59.78-1.09,1.56-2.22,2.34-3.32.27,2.91,4.32,11.05,6.21,13.06.04-.72.12-1.44.26-2.15.27,1.83,5.1,6.65,5.12,8.35.48-1.63,1.51-6.44,1.54-6.62l2.03,8.34,4.77-8.34c.03.18,1.06,4.99,1.54,6.62.02-1.49,2.36-4.58,2.81-6.26.43,1.16.96,2.35,1.5,3.41.4-1.81,2.95-9.34,3.14-12.09.54,1.49,1.19,3.01,2.02,4.35.92-2.7,1.85-5.75,2.13-8.66.77,1.1,1.56,2.22,2.34,3.32.86-3.31.41-7.38.36-10.79.49,1.56,1.57,2.63,2.71,3.75.51-3.19,1.97-12.03,2.03-14.42,6.61,9.35,3.04-.87,2.57-6.46,1.23,1.17,2.66,2.06,4.18,2.71-1.08-3.76-4.79-6.72-6.36-10.28,1.27,1.41,2.93,2.38,4.4,3.54-12.53-27.32-34.34-36.66-50.05-12.83Z"/>
    <path class="cls-5" d="m113.5,73.45c-3.02,1.45-8.4,7.2-12.79,5.52,1.97-1.35,4.38-3.14,5.87-5.2-4.88,2.72-13.23,5.88-18.45,4.89,4.22-3.13,8.16-7.59,11.85-11.39-6.11,3.1-12.81,4.42-19,7.05,3.73-5.9,8.28-10.47,14.73-12.18-4.18,1.95-9.53,1.64-14.26,1.81,4.27-5.7,12.08-9.33,17.36-13.72-1.31-1.29-6.19-5.74-12.59-9.82-35.35-21.43,29.76-6.51,27.25-5.21.46-1.81.91-3.61,1.37-5.42.86,1.07,1.72,2.15,2.58,3.22.38-1.26.76-2.53,1.14-3.79.86,1.52,1.73,3.04,2.59,4.56.04-1.95-.26-4.18.55-5.85.75,1.3,1,2.33,1.24,3.78.5-.9.48-5.97.97-6.87.4.89,1.31,5.95,1.71,6.85.58-1.82,1.66-9.79,2.86-11.16.39,1.71,1.27,10.13,1.33,11.83.36-1.85,3.51-7.71,4.61-9.15.38,6.73-2.25,9.7,1.46,6.03.07,1.52.74,2.01.74,3.52,1.17-1.86,1.72-3.11,3.41-4.28.06,1.52.86,3.33.77,4.85.59-1.6.98-2.04,2.06-3.08-.47,5.23,1.37,3.61,4.03,1.01.03.67-.48,1.91.21,2.22,5.25-6.6,15.47-7.72,22.14-9.5.62,9.04-1.8,22.58-9.25,27.66,7.72,6.12,16.77,13.26,21.53,23.25-4.55-1.33-9.82-2.34-13.42-5.26,5.85,3.24,9.21,8.79,11.44,15.43-5.39-4.07-11.59-7-16.79-11.5,2.69,4.59,5.47,9.9,8.83,13.97-5.3-.32-12.67-5.44-16.77-9.28.97,2.37,2.89,4.69,4.48,6.49-4.66.56-16.69-3.86-20.07-6.11-3.73,3.88-11.73,3.88-14.73,2.88s-9.2-2.99-11-8.05Z"/>
    <path class="cls-8" d="m167.57,25.87c-10.38,3.78-18.02,6.77-19.61,12.8,3.7,2.14,8.98,7.8,9.76,9.33,3.43,5.67,11.05-13.1,9.85-22.13Z"/>
    <path class="cls-10" d="m94.85,33.85c20.81,4.96,12.83,4.2,5.42,13.18-2.15.55-3.43-2.95-8.49-6.74-2.66-1.76-10.98-6.59-13.82-9.14,4.11.4,9.95,1.15,16.89,2.69Z"/>
    <path class="cls-3" d="m137.01,58.83c4.33-.43,3.59-7.66-.72-7.1-4.33.43-3.59,7.66.72,7.1Z"/>
    <path class="cls-3" d="m122.82,58.74c4.23-1.06,2.58-8.11-1.63-6.92-4.23,1.06-2.58,8.11,1.63,6.92Z"/>
    <g>
      <path class="cls-9" d="m136.91,72.11c-.27,1.37-1.21,3.75-2.01,4.96-1.65-2.35-2.43-7.33,2.01-4.96Z"/>
      <path class="cls-9" d="m121.28,72.69c.33,1.36,1.38,3.72,2.25,4.91,1.55-2.36,2.1-7.34-2.25-4.91Z"/>
      <path class="cls-5" d="m130.15,61.74v8.55c.34,4.85,10.35,4.51,9.83-.59"/>
      <path class="cls-6" d="m130.6,61.03c8.54-.29,3.42,2.91.88,4.33.08.96-.42.69-1.32.72-.72.15-.62-.23-.66-.72-2.91-1.55-7.39-4.69,1.1-4.34Z"/>
      <path class="cls-5" d="m117.5,68.5c-.23,5.43,9.73,8.11,12.65,1.8"/>
      <path d="m132.89,66.39c-.01.68,1.07.68,1.06,0,.01-.68-1.07-.68-1.06,0Z"/>
      <path d="m132.11,68.61c-.01.68,1.07.68,1.06,0,.01-.68-1.07-.68-1.06,0Z"/>
      <path d="m135.35,68.31c-.01.68,1.07.68,1.06,0,.01-.68-1.07-.68-1.06,0Z"/>
      <path d="m126.39,67.09c-.01.68,1.07.68,1.06,0,.01-.68-1.07-.68-1.06,0Z"/>
      <path d="m124.06,69.3c.21.64,1.23.3,1-.34-.21-.64-1.23-.3-1,.34Z"/>
      <path d="m122.51,66.39c-.01.68,1.07.68,1.06,0,.01-.68-1.07-.68-1.06,0Z"/>
    </g>
    <path class="cls-1" d="m136.79,53.7c-.47.56.36,1.33.82.76.47-.56-.36-1.33-.82-.76Z"/>
    <path class="cls-17" d="m145.56,39.64c1.78-.89,15.77,15.82,10.84,23.05.77-3.83-6.76-20.45-10.84-23.05Z"/>
    <path class="cls-17" d="m114.43,36.13c-1.78-.89-15.77,15.82-10.84,23.05-.77-3.83,6.76-20.45,10.84-23.05Z"/>
    <path class="cls-1" d="m121.24,53.7c-.47.56.36,1.33.82.76.47-.56-.36-1.33-.82-.76Z"/>
    <g>
      <g>
        <path class="cls-18" d="m105.65,103.25h39.69c4.32,0,7.83,3.51,7.83,7.83v12.59c0,4.32-3.51,7.83-7.83,7.83h-39.69c-4.32,0-7.83-3.51-7.83-7.83v-12.59c0-4.32,3.51-7.83,7.83-7.83Z"/>
        <path d="m145.35,103.75c4.04,0,7.33,3.29,7.33,7.33v12.59c0,4.04-3.29,7.33-7.33,7.33h-39.69c-4.04,0-7.33-3.29-7.33-7.33v-12.59c0-4.04,3.29-7.33,7.33-7.33h39.69m0-1h-39.69c-4.6,0-8.33,3.73-8.33,8.33v12.59c0,4.6,3.73,8.33,8.33,8.33h39.69c4.6,0,8.33-3.73,8.33-8.33v-12.59c0-4.6-3.73-8.33-8.33-8.33h0Z"/>
      </g>
      <g>
        <path class="cls-14" d="m102.66,96.36h45.69c3.4,0,6.16,2.76,6.16,6.16v.8c0,3.4-2.76,6.16-6.16,6.16h-45.69c-3.4,0-6.16-2.76-6.16-6.16v-.8c0-3.4,2.76-6.16,6.16-6.16Z"/>
        <path d="m148.34,96.86c3.12,0,5.66,2.54,5.66,5.66v.8c0,3.12-2.54,5.66-5.66,5.66h-45.69c-3.12,0-5.66-2.54-5.66-5.66v-.8c0-3.12,2.54-5.66,5.66-5.66h45.69m0-1h-45.69c-3.68,0-6.66,2.98-6.66,6.66v.8c0,3.68,2.98,6.66,6.66,6.66h45.69c3.68,0,6.66-2.98,6.66-6.66v-.8c0-3.68-2.98-6.66-6.66-6.66h0Z"/>
      </g>
      <rect class="cls-12" x="119.78" y="95.86" width="11.45" height="36.14"/>
      <g>
        <path class="cls-12" d="m131.81,90.24c-1.14,1.14-1.81,2.53-1.81,4.03,0,3.87,4.43,7.01,9.91,7.01,5.47,0,9.91-3.14,9.91-7.01,0-1.05-.33-2.06-.92-2.95,1.93-1.29,3.13-3.07,3.13-5.03,0-3.98-4.93-7.2-11.01-7.2s-11.01,3.22-11.01,7.2c0,1.46.66,2.82,1.81,3.95Z"/>
        <path class="cls-12" d="m120.83,90.15c1.14,1.14,1.81,2.53,1.81,4.03,0,3.87-4.43,7.01-9.91,7.01s-9.91-3.14-9.91-7.01c0-1.05.33-2.06.92-2.95-1.93-1.29-3.13-3.07-3.13-5.03,0-3.98,4.93-7.2,11.01-7.2s11.01,3.22,11.01,7.2c0,1.46-.66,2.82-1.81,3.95Z"/>
        <ellipse class="cls-12" cx="125.72" cy="91.46" rx="8.37" ry="5.06"/>
        <path class="cls-15" d="m102.82,85.23c.15.78.67,2.78,2.64,4.28,2.5,1.9,6.3,2.2,9.69.78-1.57-.13-3.96-.48-6.6-1.56-2.71-1.1-4.59-2.51-5.72-3.5Z"/>
        <path class="cls-15" d="m106.57,96.32c.08-.13,2.27,1.45,5.72,1.56,2.33.08,4.3-.55,5.72-1.17-.55.78-1.53,1.87-3.08,2.34-3.91,1.17-8.48-2.53-8.37-2.72Z"/>
        <path class="cls-15" d="m150.15,85.41c-.15.78-.67,2.78-2.64,4.28-2.5,1.9-6.3,2.2-9.69.78,1.57-.13,3.96-.48,6.6-1.56,2.71-1.1,4.59-2.51,5.72-3.5Z"/>
        <path class="cls-15" d="m146.4,96.5c-.08-.13-2.27,1.45-5.72,1.56-2.33.08-4.3-.55-5.72-1.17.55.78,1.53,1.87,3.08,2.34,3.91,1.17,8.48-2.53,8.37-2.72Z"/>
        <path class="cls-15" d="m122.2,87.95c-.59.35-1.33.9-1.76,1.68-1.3,2.37,1.53,4.57,1.76,4.75-.2-.67-.37-1.42-.44-2.23-.15-1.63.1-3.06.44-4.19Z"/>
        <path class="cls-15" d="m129.21,87.74c.59.35,1.33.9,1.76,1.68,1.3,2.37-1.53,4.57-1.76,4.75.2-.67.37-1.42.44-2.23.15-1.63-.1-3.06-.44-4.19Z"/>
      </g>
    </g>
    <g>
      <path class="cls-11" d="m154.63,84.23c.87.24,1.93,1.77,3.45,2.55,1.65.85,4.24,3.48,7.79,7.89,1.55,1.93,1.53,18.59,2.94,23.03.36,1.15,1.36,4.58,1.04,8.14-.7,7.82-10,5.55-12.62,4.71"/>
      <g>
        <g>
          <path class="cls-5" d="m159.5,130.6c-3.63.94-10.89-.59-9.83-1.78-1.92.16-5.81-1.15-4.87-1.7-1.14-.24-4.86-1.44-3.45-2.47l-9-13.46c7.75-2.78,13,1.98,12.67,1.85.82.05,1.86-.13,2.63-.11-3.37-.75,1.07-.8,2.46-.37-4.77-2.02,2.88-2.19,5.61-2.01-2.94-1.74-.49-1.07,1.49-1.29-.31-.08-.94-.3-1.2-.37,1.21-.02,6.15-.18,3.08-.7"/>
          <g>
            <path class="cls-5" d="m144.38,124.58c-4.27,5.53-11.85-3.97-16.88-4.09-6.15-4.76,2.43-14.38,6.71-7.62"/>
            <path class="cls-5" d="m135.2,122.08c-3.48,5.88-11.63-.27-8-6.04,3.48-5.88,11.63.27,8,6.04Z"/>
            <path class="cls-5" d="m137.91,125.12c-8.18,8.82-11.78-12.27-1.51-8.84"/>
          </g>
        </g>
        <path class="cls-4" d="m124.82,113.83c1.26.77,2.83.68,2.74-.89-.25-.63-2.36,0-2.74.89Z"/>
        <path class="cls-4" d="m126.14,117.13c1.26.77,2.83.68,2.74-.89-.25-.63-2.36,0-2.74.89Z"/>
        <path class="cls-4" d="m130.13,120.48c1.26.77,2.83.68,2.74-.89-.25-.63-2.36,0-2.74.89Z"/>
      </g>
    </g>
    <g>
      <path class="cls-11" d="m98.33,84.34c-.96.1-2.35,1.53-4.09,2.08-1.89.6-5.08,2.93-9.61,6.96-1.98,1.77-4.91,4.38-7.18,8.83-.59,1.15-2.24,4.61-2.54,8.44-.65,8.4,9.55,7.66,12.47,7.24"/>
      <g>
        <g>
          <path class="cls-5" d="m84.98,117.54c3.66,1.64,11.58,1.32,10.68-.13,2,.51,6.32-.18,5.43-.93,1.25-.05,5.38-.66,4.08-2l11.87-12.65c-7.67-4.32-14.05-.22-13.69-.3-.87-.1-1.94-.47-2.75-.59,3.68-.2-.99-1.03-2.53-.84,5.38-1.29-2.65-2.84-5.56-3.12,3.41-1.31.71-1.05-1.34-1.63.34-.03,1.04-.16,1.32-.18-1.27-.24-6.45-1.29-3.12-1.29"/>
          <g>
            <path class="cls-5" d="m101.98,113.86c3.52,6.61,13.2-2.09,18.51-1.32,7.33-3.94,0-15.66-5.72-9.27"/>
            <path class="cls-5" d="m112.1,112.86c2.62,6.85,12.3,1.79,9.5-4.97-2.62-6.85-12.3-1.79-9.5,4.97Z"/>
            <path class="cls-5" d="m108.7,115.59c7.06,10.79,14.59-10.89,3.16-9.09"/>
          </g>
        </g>
        <path class="cls-4" d="m124.5,105.97c-1.47.59-3.1.21-2.73-1.43.38-.63,2.49.42,2.73,1.43Z"/>
        <path class="cls-4" d="m122.52,109.23c-1.47.59-3.1.21-2.73-1.43.38-.63,2.49.42,2.73,1.43Z"/>
        <path class="cls-4" d="m117.72,112.06c-1.47.59-3.1.21-2.73-1.43.38-.63,2.49.42,2.73,1.43Z"/>
      </g>
    </g>
  </g>
  <circle cx="122.25" cy="55.75" r="2.75"/>
  <ellipse cx="136.5" cy="56.04" rx="2.63" ry="2.83" transform="translate(-2.5 6.54) rotate(-2.72)"/>
  <circle class="cls-1" cx="123" cy="55" r="1"/>
  <circle class="cls-1" cx="137" cy="55" r="1"/>
</svg>