<svg width="304" height="290" viewBox="0 0 304 290" fill="none" xmlns="http://www.w3.org/2000/svg">
<path d="M175.606 242.324C181.534 245.543 191.186 249.719 203.513 250.429C216.402 251.183 231.876 248.109 232.089 244.412C232.286 240.714 217.269 235.799 203.756 235.654C191.414 235.509 181.549 239.366 175.606 242.324Z" fill="#E57527"/>
<path d="M175.606 242.324C188.693 249.356 204.197 251.792 218.986 249.414C221.981 248.863 231.283 247.5 231.694 244.223C231.572 243.266 230.462 242.469 229.505 241.845C226.374 239.96 222.771 238.873 219.199 237.959C204.714 234.175 188.951 235.726 175.606 242.324ZM175.606 242.324C188.83 235.277 204.744 233.696 219.351 237.365C222.999 238.264 226.678 239.351 229.9 241.265C230.979 242.005 232.21 242.759 232.438 244.165C232.302 248.138 222.361 249.414 219.078 250.023C204.182 252.3 188.556 249.806 175.606 242.338V242.324Z" fill="#1D1D1B"/>
<path d="M199.591 246.761C199.591 255.243 226.115 255.229 225.766 246.761C226.115 238.293 199.591 238.003 199.591 246.761Z" fill="#E57527"/>
<path d="M199.591 246.761C200.473 254.083 215.141 253.663 220.537 251.676C227.042 249.704 226.982 243.788 220.537 241.787C215.034 239.757 200.503 239.25 199.606 246.761H199.591ZM199.591 246.761C200.29 239.337 215.186 239.279 220.75 241.207C227.909 243.324 227.97 250.183 220.75 252.271C215.308 254.141 200.29 254.011 199.591 246.761Z" fill="#1D1D1B"/>
<path d="M189.362 247.747C195.259 263.073 231.542 244.789 204.835 240.062L189.362 247.747Z" fill="#E57527"/>
<path d="M189.362 247.747C193.01 256.766 209.684 253.996 213.955 246.92C215.43 242.367 208.21 240.946 204.835 240.047C208.65 240.685 216.098 241.99 214.563 247.152C210.246 254.823 192.706 257.563 189.362 247.747Z" fill="#1D1D1B"/>
<path d="M136.268 240.424C130.34 243.643 120.688 247.819 108.361 248.53C95.4712 249.284 79.9976 246.21 79.7848 242.512C79.5872 238.815 94.6048 233.899 108.118 233.754C120.46 233.609 130.325 237.466 136.268 240.424Z" fill="#E57527"/>
<path d="M136.268 240.424C123.318 247.892 107.692 250.386 92.796 248.109C89.5128 247.515 79.5416 246.21 79.4352 242.251C79.6632 240.845 80.8944 240.091 81.9736 239.351C85.2112 237.437 88.8896 236.364 92.5224 235.451C107.13 231.768 123.044 233.363 136.268 240.41V240.424ZM136.268 240.424C122.922 233.812 107.175 232.275 92.6744 236.06C89.1024 236.973 85.5 238.061 82.3688 239.946C81.4112 240.569 80.3016 241.381 80.18 242.324C80.6056 245.601 89.8928 246.949 92.8872 247.515C107.677 249.893 123.166 247.457 136.268 240.424Z" fill="#1D1D1B"/>
<path d="M112.282 244.861C112.632 253.329 85.7584 253.329 86.108 244.861C85.7584 236.393 112.632 236.393 112.282 244.861Z" fill="#E57527"/>
<path d="M112.282 244.861C111.872 252.14 96.4896 252.213 91.1544 250.357C83.9344 248.283 83.9192 241.439 91.1544 239.366C96.4744 237.51 111.872 237.582 112.282 244.861ZM112.282 244.861C111.674 237.495 96.6568 237.988 91.3824 239.946C84.8616 241.903 84.8464 247.805 91.3824 249.762C96.6568 251.72 111.69 252.227 112.282 244.847V244.861Z" fill="#1D1D1B"/>
<path d="M122.086 245.702C116.189 261.029 79.9064 242.744 106.613 238.017L122.086 245.702Z" fill="#E57527"/>
<path d="M122.086 245.702C118.742 255.519 101.202 252.778 96.8848 245.108C95.3496 239.946 102.798 238.641 106.613 238.003C103.238 238.887 96.0184 240.323 97.4928 244.876C101.764 251.937 118.438 254.721 122.086 245.702Z" fill="#1D1D1B"/>
<path d="M178.934 169.766C171.167 175.204 186.58 153.729 174.785 157.267C176.274 155.295 180.713 144.565 174.025 147.248C175.91 144.391 180.394 128.035 171.942 130.993C175.226 127.557 181.002 112.332 170.316 114.101C175.119 108.997 174.42 87.2756 165.893 85.3181C168.188 79.9821 166.166 68.6866 159.646 66.3376C160.983 51.2431 139.597 39.5851 127.057 41.1076C109.881 29.8556 75.9544 29.6236 64.676 51.3881C38.7904 57.5651 5.4112 106.662 41.3744 123.381C44.4144 125.585 47.9256 131.414 52.5008 127.673C56.0424 129.558 61.18 139.012 65.3904 130.892C71.5768 136.59 76.2736 126.716 83.0376 135.329C84.0408 134.502 80.1344 145.595 85.4848 142.622C83.9344 148.219 91.0024 159.805 94.5744 165.735C94.2248 174.102 98.1616 185.064 105.29 189.573C101.642 193.387 103.71 205.741 108.133 208.322C102.357 212.599 116.143 227.346 117.754 217.152C118.849 220.241 122.71 227.418 127.011 223.373C131.556 226.432 137.864 228.825 139.627 221.821C141.77 228.578 159.813 227.186 160.558 220.922C165.27 224.243 173.356 205.074 170.544 202.928C176.366 199.346 171.638 188.08 174.131 186.441C173.706 182.802 174.374 174.174 178.95 169.752L178.934 169.766Z" fill="#E57527"/>
<path d="M178.934 169.766C176.244 171.709 176.366 170.114 177.08 167.954C177.962 164.836 179.801 161.632 179.238 158.326C178.676 156.383 176.198 156.876 174.678 157.354C175.986 155.411 176.806 153.149 177.338 150.902C177.977 148.06 177.308 145.87 173.858 147.393C174.785 145.87 175.302 144.145 175.773 142.448C176.7 138.939 178.828 128.949 172.003 131.095L171.532 131.254L171.851 130.892C175.408 126.803 180.546 112.694 170.346 114.26L169.86 114.333L170.179 113.97C174.952 108.228 174.283 87.5656 165.604 85.4486C167.914 79.3731 166.166 69.2376 159.402 66.4826C160.193 58.8991 154.888 52.1131 148.686 47.8936C142.454 43.6886 134.718 40.6726 126.981 41.3831C117.192 35.1481 104.834 32.9876 93.2216 34.2201C81.6088 35.3946 70.0112 41.3106 64.8888 51.6636C46.512 56.7386 30.2024 76.7051 26.6152 94.2936C23.9248 106.604 29.5336 117.784 41.5416 123.105C44.5664 125.411 48.0928 130.906 52.2576 127.426L52.4552 127.281C53.8232 128.035 54.8264 129.123 55.8752 130.123C59.0368 133.357 62.396 136.068 65.0864 130.761L65.2992 130.399L65.6032 130.674C69.7832 134.981 74.7992 129.688 79.5416 131.95C81.1072 132.704 82.232 133.937 83.2808 135.169L82.84 135.126C82.84 135.126 82.9768 135.039 83.0528 135.024C83.1288 134.966 83.4784 135.14 83.448 135.184C83.6912 135.822 83.2808 137.069 83.22 137.75C82.9312 140.056 81.9584 144.667 85.9408 142.057C84.816 146.305 86.9592 150.67 88.6768 154.556C90.4704 158.413 92.7808 162.052 94.8784 165.75C94.772 174.479 97.9336 184.324 105.686 189.53C102.433 193.604 103.618 199.68 105.306 204.175C106.02 205.813 106.993 207.408 108.574 208.322C104.074 211.497 110.246 219.791 114.456 220.429C116.842 220.734 117.45 218.095 117.709 216.34C118.53 218.617 119.594 220.908 121.266 222.691C122.877 224.504 125.187 225.04 127.011 223.112C131.738 226.36 138.122 228.593 139.627 221.14L139.825 221.763C141.922 228.143 159.494 227.36 160.451 220.676C165.376 223.793 171.593 207.669 171.015 204.218C170.97 203.711 170.833 203.203 170.422 202.899L170.529 202.841C175.226 199.52 173.067 193.169 173.341 188.428C173.417 187.804 173.523 186.688 174.116 186.427C173.766 180.641 174.754 174.16 178.965 169.737L178.934 169.766ZM178.934 169.766C174.739 174.203 173.782 180.685 174.162 186.441C173.569 186.905 173.447 187.732 173.402 188.457C173.219 193.068 175.21 200.216 170.59 202.87C173.219 206.132 166.242 221.082 161.971 221.444C161.439 221.488 160.892 221.343 160.451 221.053L160.679 220.951C159.357 227.81 141.558 228.52 139.414 221.894H139.794C138.7 226.708 134.657 227.607 130.325 225.504C129.109 224.953 127.969 224.301 126.874 223.561H127.133C122.725 227.505 118.742 220.806 117.526 217.239L117.952 217.21C116.158 226.621 105.412 215.76 106.537 210.584C106.674 209.656 107.175 208.757 107.966 208.177V208.554C103.193 205.146 101.399 194.01 105.078 189.443L105.123 189.805C97.356 184.426 94.1944 174.595 94.2704 165.75C92.3856 162.864 89.832 158.413 88.0992 154.802C86.3968 150.96 84.36 146.885 85.1504 142.579L85.5912 142.898C84.7704 143.347 83.4936 143.855 82.7792 142.912C82.1864 142.042 82.2624 141.114 82.2624 140.259C82.308 138.78 82.6728 137.272 82.8552 135.807C82.8552 135.706 82.8704 135.604 82.8552 135.532C82.8552 135.488 82.84 135.459 82.8704 135.517C82.8704 135.517 82.8856 135.561 82.9616 135.604C83.0224 135.648 83.1288 135.619 83.1288 135.619C83.372 135.575 82.7336 135.561 82.7488 135.546C80.864 133.023 77.9456 131.225 74.6168 132.226C73.0512 132.545 71.4552 133.125 69.7224 133.125C67.9592 133.125 66.3328 132.269 65.1168 131.153L65.6336 131.066C62.6848 136.808 58.824 134.198 55.3584 130.587C54.3704 129.645 53.4128 128.63 52.288 127.977L52.668 127.934C51.7712 128.644 50.6464 129.239 49.4 129.224C45.8128 129.094 43.472 125.338 41.1768 123.7C13.6344 110.983 26.7824 79.4891 43.776 63.6261C49.2176 58.3046 57.532 52.5626 64.3264 51.2721C66.956 46.1681 71.212 41.8471 76.304 38.9326C91.7168 30.4356 112.358 31.8131 127.163 40.9191C140.646 39.6141 160.968 51.2721 159.828 66.3811L159.676 66.1491C165.133 68.4401 166.835 74.8346 166.957 80.0546C166.957 81.8671 166.744 83.6941 166.03 85.4196L165.878 85.1441C174.678 87.5801 175.317 108.402 170.392 114.246L170.225 113.956C180.88 112.462 175.818 126.774 171.988 131.109L171.836 130.906C180.485 128.18 176.092 143.826 174.04 147.32L173.934 147.204C174.982 146.798 176.594 146.378 177.278 147.552C177.84 148.64 177.597 149.858 177.399 150.96C176.867 153.062 176.031 155.73 174.724 157.253C176.244 156.774 178.722 156.397 179.254 158.326C179.816 161.675 177.962 164.836 177.05 167.968C176.29 170.187 176.259 171.68 178.874 169.781L178.934 169.766Z" fill="#1D1D1B"/>
<path d="M29.7008 115.579C30.1264 117.812 34.0632 134.299 40.052 125.541C38.7904 133.994 70.7712 149.495 74.5256 135.966C80.5904 146.464 116.478 130.688 101.688 122.467C113.529 109.069 80.18 92.9883 77.5352 103.646C71.0904 104.197 70.984 107.097 74.8144 110.678C63.6728 114.506 81.7 122.133 85.1352 117.348" fill="#E57527"/>
<path d="M29.7008 115.579C30.5824 119.639 34.428 133.516 39.9152 125.454L40.2648 124.961L40.204 125.555C40.0216 135.096 71.9872 148.973 74.4192 135.198C79.1768 143.854 98.2528 136.575 103.178 130.775C106.126 127.571 104.941 124.424 101.171 122.539C103.679 119.944 104.667 116.188 103.162 112.882C100.274 106.647 93.404 102.544 86.6704 100.818C83.5088 100.05 78.7208 99.9919 77.748 103.689L77.7024 103.834C75.9392 104.052 73.4312 104.197 72.5952 105.922C72.0176 107.778 73.9176 109.475 75.1336 110.751L74.8752 110.838C65.2384 114.158 78.1736 120.074 82.8856 118.653C83.752 118.465 84.6032 118.044 85.1352 117.348C84.6184 118.059 83.7672 118.494 82.9008 118.697C77.824 120.205 64.7976 114.173 74.7688 110.519L74.708 110.794C74.0088 110.127 73.3248 109.417 72.7928 108.605C71.3792 106.604 72.1544 104.646 74.5864 103.979C75.544 103.66 76.5472 103.544 77.5352 103.443L77.3376 103.602C78.3104 99.6584 83.4328 99.5569 86.792 100.369C96.3832 102.37 110.246 112.868 101.962 122.67L101.87 122.177C103.421 123.061 105.047 124.308 105.473 126.193C106.962 135.749 79.2376 145.029 74.2824 136.097L74.8296 136.039C70.5888 148.407 47.3024 137.242 41.8608 130.384C40.7208 129.035 39.7024 127.368 39.9 125.512L40.1888 125.613C34.3216 133.849 30.552 119.915 29.716 115.565L29.7008 115.579Z" fill="#1D1D1B"/>
<path d="M185.379 158.108C191.718 161.052 195.016 167.649 192.462 173.159C198.451 171.245 198.694 178.452 197.874 186.76C200.017 183.208 203.558 189.167 200.564 191.966C204.334 190.864 206.249 196.258 203.437 198.607C207.358 195.112 206.066 204.32 204.44 206.466C214.168 203.812 201.506 234.552 198.755 227.157C190.669 244.572 170.407 237.757 154.493 234.828C139.779 237.133 118.621 243.484 111.781 226.708C108.969 234.103 96.4288 203.377 106.096 206.016C104.485 203.87 103.193 194.663 107.099 198.157C104.272 195.794 106.202 190.414 109.972 191.516C106.978 188.718 110.519 182.758 112.662 186.311C110.671 184.02 113.97 169.288 118.074 172.71C112.89 147.059 168.173 149.002 185.379 158.123V158.108Z" fill="#E57527" stroke="#1D1D1B" stroke-width="0.5" stroke-miterlimit="10"/>
<path d="M150.495 101.688C153.976 123.96 137.879 142.013 134.231 145.928C171.319 147.102 179.77 92.7854 158.886 74.4429C154.219 48.5024 79.7848 29.1304 64.6152 56.7964C91.2152 50.1699 145.206 63.7564 150.495 101.688Z" fill="#D56E34"/>
<path d="M181.549 92.3504C186.139 78.5319 185.075 41.1799 189.316 73.3844C193.344 81.4174 185.896 111.418 181.549 92.3504Z" fill="#F5B7D4"/>
<path d="M181.549 92.3504C184.406 82.2729 184.026 71.7024 185.881 61.4654C186.018 60.7694 186.595 59.7399 187.294 60.6824C187.583 61.1899 187.69 61.6394 187.826 62.1034C188.693 65.6559 189.286 70.0639 189.65 73.2249C192.067 80.0544 190.486 87.6814 188.328 94.4094C185.303 102.167 182.613 98.0489 181.549 92.3359V92.3504ZM181.549 92.3504C184.239 103.341 187.553 97.2804 189.058 90.1899C190.03 84.7959 191.018 78.7494 188.997 73.5439C188.404 69.7884 187.994 65.9604 187.127 62.2919C187.006 61.8569 186.884 61.3784 186.686 61.0449C186.656 60.9579 186.565 60.9579 186.732 60.9869C186.838 60.9579 186.823 60.9724 186.823 60.9579C186.686 61.1464 186.626 61.3929 186.55 61.6394C184.695 71.8184 184.802 82.4179 181.534 92.3649L181.549 92.3504Z" fill="#1D1D1B"/>
<path d="M175.606 79.7644C183.145 60.6534 191.885 46.3274 184.558 75.6174C183.175 89.0009 183.601 93.5104 175.606 79.7644Z" fill="#E57527"/>
<path d="M175.606 79.7645C178.038 73.3555 180.485 66.932 184.118 61.016C184.802 60.146 185.349 58.8555 186.641 58.5945C189.59 59.015 185.334 73.2975 184.893 75.7045C183.662 86.6375 183.95 95.4825 175.606 79.779V79.7645ZM175.606 79.7645C176.457 80.852 181.503 90.3495 182.719 87.203C183.753 84.042 183.783 78.9235 184.224 75.5595C185.334 70.615 186.762 65.6125 186.96 60.5665C186.93 60.117 186.96 59.4645 186.641 59.247C185.79 59.5805 185.242 60.5955 184.68 61.3495C181.032 67.1495 178.326 73.515 175.606 79.7645Z" fill="#1D1D1B"/>
<path d="M127.102 94.7721C122.512 80.9536 123.576 43.6015 119.335 75.806C115.307 83.8391 122.755 113.84 127.102 94.7721Z" fill="#F5B7D4"/>
<path d="M127.102 94.7721C123.834 84.8251 123.956 74.24 122.086 64.0465C122.01 63.8 121.95 63.5536 121.813 63.3651C121.813 63.3651 121.813 63.3651 121.904 63.3941C122.071 63.3651 121.98 63.3651 121.95 63.4521C121.767 63.7711 121.63 64.2496 121.509 64.6991C120.642 68.3676 120.232 72.1956 119.639 75.9511C117.314 82.5196 118.788 90.1321 120.718 96.7006C123.454 104.313 125.856 99.9776 127.087 94.7721H127.102ZM127.102 94.7721C126.054 100.398 123.378 104.647 120.323 96.8456C118.165 90.1321 116.584 82.4906 119.001 75.6611C119.366 72.4856 119.958 68.0921 120.825 64.5396C120.962 64.0756 121.068 63.6116 121.357 63.1186C122.026 62.2051 122.634 63.1331 122.77 63.9016C124.625 74.1386 124.245 84.7091 127.102 94.7866V94.7721Z" fill="#1D1D1B"/>
<path d="M133.046 82.186C125.506 63.075 116.766 48.749 124.093 78.039C125.476 91.4225 125.05 95.932 133.046 82.186Z" fill="#E57527"/>
<path d="M133.046 82.186C130.325 75.9365 127.619 69.571 123.971 63.771C123.409 63.017 122.862 62.002 122.01 61.6685C121.691 61.9005 121.722 62.553 121.691 62.988C121.904 68.034 123.318 73.0365 124.427 77.981C124.868 81.345 124.883 86.449 125.932 89.6245C127.148 92.7855 132.21 83.2445 133.046 82.186ZM133.046 82.186C124.701 97.875 124.99 89.0735 123.758 78.1115C123.318 75.7335 119.062 61.393 122.01 61.0015C123.302 61.248 123.85 62.5675 124.534 63.423C128.166 69.339 130.629 75.7625 133.046 82.1715V82.186Z" fill="#1D1D1B"/>
<path d="M184.422 141.955C181.412 137.59 190.927 134.168 187.568 131.138C189.422 129.601 191.778 127.266 191.429 124.598C189.574 124.642 193.146 112.969 189.529 113.651C192.234 112.273 193.435 106.763 189.346 106.865C190.669 104.168 191.535 99.1654 186.854 100.92C188.237 98.6869 187.37 94.4385 184.33 96.1205C186.078 94.6415 186.61 88.5949 183.494 92.2199C187.355 88.6964 180.713 82.592 177.977 85.1875C179.892 81.4755 177.962 78.4159 173.949 81.2724C176.457 76.0524 166.075 72.848 164.449 78.1985C164.038 73.7905 162.366 72.065 160.132 76.8355C160.238 75.371 155.086 71.601 154.736 70.325C154.736 70.325 156.423 81.751 153.581 77.575C149.872 71.1515 148.185 72.5725 146.285 77.807C141.026 72.2825 144.278 79.837 136.481 77.43C138.092 81.0695 125.278 81.6785 129.869 88.537C126.677 86.4055 121.205 93.2494 125.446 96.2654C121.813 93.1334 123.242 99.0059 125.187 100.253C121.934 99.0059 121.691 103.341 123.394 105.357C118.484 104.269 120.095 109.098 121.798 111.592C117.754 112.056 119.746 117.334 122.618 118.32C118.94 118.117 124.199 129.224 122.345 129.412C122.406 132.095 125.066 134.081 127.133 135.343C124.199 138.852 135.25 141.853 132.924 146.754" fill="#E57527"/>
<path d="M184.422 141.955C181.412 137.59 190.927 134.168 187.568 131.138C189.422 129.601 191.778 127.266 191.429 124.598C189.574 124.642 193.146 112.969 189.529 113.651C192.234 112.273 193.435 106.763 189.346 106.865C190.669 104.168 191.535 99.1654 186.854 100.92C188.237 98.6869 187.37 94.4385 184.33 96.1205C186.078 94.6415 186.61 88.5949 183.494 92.2199C187.355 88.6964 180.713 82.592 177.977 85.1875C179.892 81.4755 177.962 78.4159 173.949 81.2724C176.457 76.0524 166.075 72.848 164.449 78.1985C164.038 73.7905 162.366 72.065 160.132 76.8355C160.238 75.371 155.086 71.601 154.736 70.325C154.736 70.325 156.423 81.751 153.581 77.575C149.872 71.1515 148.185 72.5725 146.285 77.807C141.026 72.2825 144.278 79.837 136.481 77.43C138.092 81.0695 125.278 81.6785 129.869 88.537C126.677 86.4055 121.205 93.2494 125.446 96.2654C121.813 93.1334 123.242 99.0059 125.187 100.253C121.934 99.0059 121.691 103.341 123.394 105.357C118.484 104.269 120.095 109.098 121.798 111.592C117.754 112.056 119.746 117.334 122.618 118.32C118.94 118.117 124.199 129.224 122.345 129.412C122.406 132.095 125.066 134.081 127.133 135.343C124.199 138.852 135.25 141.853 132.924 146.754" stroke="#1D1D1B" stroke-width="0.5" stroke-miterlimit="10"/>
<path d="M157.198 143.449C154.28 137.779 154.326 109.925 143.61 100.529L152.061 107.228L147.106 91.3355L154.052 104.995C155.162 87.6815 154.462 85.0425 157.715 104.4L163.871 95.12L161.971 106.198L166.774 98.3245C154.432 109.794 179.33 151.525 157.214 143.449H157.198Z" fill="#D56E34"/>
<path d="M179.679 153.12C182.446 151.322 189.802 146.522 189.24 140.969C189.027 138.808 187.659 136.996 185.242 134.995C178.95 129.76 168.082 125.396 154.858 127.991C153.216 128.31 134.064 132.298 132.833 142.433C132.544 144.855 133.258 147.726 134.535 149.915C136.511 153.279 139.703 154.816 143.138 155.904C148.808 157.716 164.798 162.806 179.664 153.105L179.679 153.12Z" fill="#FFF6BD"/>
<path d="M179.679 153.12C194.834 143.507 190.456 135.735 175.56 129.688C167.276 126.6 157.974 126.919 149.644 129.659C144.233 131.443 138.442 133.777 134.946 138.258C131.45 142.782 133.228 149.713 137.697 153.062C139.992 154.802 142.88 155.629 145.677 156.484C156.864 160.022 169.769 159.645 179.679 153.106V153.12ZM179.679 153.12C169.799 159.79 156.834 160.283 145.555 156.847C142.743 156.006 139.81 155.208 137.393 153.425C132.65 149.93 130.766 142.724 134.383 137.895C137.94 133.168 143.838 130.819 149.431 129.05C157.882 126.353 167.352 126.136 175.697 129.355C190.593 135.561 195.107 143.565 179.679 153.12Z" fill="#1D1D1B"/>
<path d="M154.098 140.621C154.614 143.014 152.912 146.929 154.174 149.365C157.928 156.644 169.206 154.222 171.699 149.365C172.946 146.943 171.015 143.014 171.532 140.621" fill="#F2A1AE"/>
<path d="M154.098 140.621C154.614 143.014 152.912 146.929 154.174 149.365C157.928 156.644 169.206 154.222 171.699 149.365C172.946 146.943 171.015 143.014 171.532 140.621" stroke="#1D1D1B" stroke-width="0.5" stroke-miterlimit="10"/>
<path d="M177.946 180.757C193.496 194.996 204.866 234.16 180.272 245.093C163.522 252.532 141.178 252.909 128.577 238.597C106.37 212.758 136.04 152.061 177.946 180.757Z" fill="#FFF6BD"/>
<path d="M177.946 180.757C190.958 193.285 199.652 218.036 191.626 234.74C189.407 239.177 185.592 242.86 180.956 245.006C171.745 249.255 161.287 251.27 151.073 250.125C120.475 246.616 114.304 215.745 126.814 192.864C137.651 172.767 158.582 166.924 177.946 180.742V180.757ZM177.946 180.757C158.597 167.127 137.818 172.956 127.148 193.038C114.988 215.774 121.022 245.775 151.149 249.501C161.211 250.69 171.608 248.747 180.743 244.6C185.303 242.512 189.073 238.931 191.277 234.566C199.348 218.007 190.821 193.285 177.931 180.742L177.946 180.757Z" fill="#1D1D1B"/>
<path d="M163.172 146.508C158.597 148.132 160.679 142.883 159.965 141.476L162.777 141.273L163.172 146.493V146.508Z" fill="#FFF3CF" stroke="#1D1D1B" stroke-width="0.25" stroke-miterlimit="10"/>
<path d="M165.984 146.305C161.409 147.929 163.491 142.68 162.777 141.274L165.589 141.071L165.984 146.291V146.305Z" fill="#FFF3CF" stroke="#1D1D1B" stroke-width="0.25" stroke-miterlimit="10"/>
<path d="M161.91 134.923C165.315 146.74 153.201 149.176 153.292 140.288L161.91 134.923Z" fill="#FFF6BD"/>
<path d="M161.91 134.923C165.315 146.74 153.201 149.176 153.292 140.288" stroke="#1D1D1B" stroke-width="0.5" stroke-miterlimit="10"/>
<path d="M172.186 138.954C173.432 145.537 160.345 147.248 161.91 135.184L172.186 138.954Z" fill="#FFF6BD"/>
<path d="M172.186 138.954C173.432 145.537 160.345 147.248 161.91 135.184" stroke="#1D1D1B" stroke-width="0.5" stroke-miterlimit="10"/>
<path d="M36.3584 79.5471C20.3376 91.3936 36.5712 132.907 59.3864 131.312C39.3376 124.106 30.2784 88.3631 36.3584 79.5471Z" fill="#D56E34"/>
<path d="M147.242 243.788C151.772 247.486 191.49 231.449 191.231 222.531C192.994 238.177 154.66 250.807 147.242 243.788Z" fill="#E9E3BA"/>
<path d="M161.652 133.675C169.784 129.035 166.303 136.387 161.743 138.417C157.594 136.503 153.778 128.803 161.682 133.675" fill="url(#paint0_radial_53_152)"/>
<path d="M161.652 133.675C169.784 129.035 166.303 136.387 161.743 138.417C157.594 136.503 153.778 128.803 161.682 133.675" stroke="#1D1D1B" stroke-width="0.5" stroke-miterlimit="10"/>
<path d="M186.595 58.899C186.595 58.899 180.409 49.2275 180.226 48.5315C180.044 47.8355 187.325 52.4755 187.325 52.4755L186.595 36.946L190.471 51.3155L194.864 42.0645L193.298 53.6355L197.782 55.2595L186.58 58.899H186.595Z" fill="#A26F14" stroke="#1D1D1B" stroke-width="0.5" stroke-miterlimit="10"/>
<path d="M122.497 62.5531C122.497 62.5531 128.683 52.8816 128.866 52.1856C129.048 51.4896 121.767 56.1296 121.767 56.1296L122.497 40.6001L118.621 54.9696L114.228 45.7186L115.794 57.2896L111.31 58.9136L122.512 62.5531H122.497Z" fill="#A26F14"/>
<path d="M122.497 62.553C124.564 59.1455 126.722 55.767 128.622 52.2725L128.683 52.1565C128.668 52.1565 128.683 52.258 128.744 52.287C126.494 53.4035 123.789 55.158 121.494 56.637L121.509 56.1295L122.147 40.6L122.846 40.7015L118.97 55.071L118.712 56.028L118.286 55.129L113.924 45.8635L114.547 45.6895L116.022 57.2605V57.4345L115.87 57.4925L111.37 59.073V58.725L122.497 62.5385V62.553ZM122.497 62.553L111.234 59.0875L110.732 58.928C110.732 58.928 115.49 57.159 115.702 57.0865L115.55 57.3185C115.338 55.8395 113.757 44.834 113.59 43.6595C114.137 44.7905 118.286 53.476 118.94 54.839L118.256 54.897C118.879 52.5625 122.466 39.353 123.014 37.323L122.846 40.629L122.041 56.1585L121.615 55.9265C123.074 55.013 124.549 54.1285 126.054 53.2585C126.935 52.7945 127.756 52.2145 128.744 51.939C128.79 51.939 128.82 51.91 128.957 51.9825C129.078 52.026 129.063 52.2 129.048 52.2435C127.087 55.796 124.686 59.131 122.482 62.553H122.497Z" fill="#1D1D1B"/>
<path d="M124.579 196.925C125.689 197.099 131.541 198.534 129.732 195.446C158.764 205.61 174.663 123.178 139.293 175.436C139.946 174.406 121.266 180.047 120.05 180.728" fill="#E57527"/>
<path d="M124.579 196.925C125.689 197.099 131.541 198.534 129.732 195.446C158.764 205.61 174.663 123.178 139.293 175.436C139.946 174.406 121.266 180.047 120.05 180.728" stroke="#1D1D1B" stroke-width="0.5" stroke-miterlimit="10"/>
<path d="M154.371 155.904C160.117 155.077 161.166 162.559 155.405 163.255C149.659 164.082 148.61 156.6 154.371 155.904Z" fill="#E57527" stroke="#1D1D1B" stroke-width="0.5" stroke-miterlimit="10"/>
<path d="M158.703 159.863C164.692 158.993 165.847 167.272 159.843 167.983C153.854 168.853 152.699 160.573 158.703 159.863Z" fill="#E57527" stroke="#1D1D1B" stroke-width="0.5" stroke-miterlimit="10"/>
<path d="M157.624 165.923C163.081 165.14 164.145 172.709 158.673 173.347C153.216 174.13 152.152 166.561 157.624 165.923Z" fill="#E57527" stroke="#1D1D1B" stroke-width="0.5" stroke-miterlimit="10"/>
<path d="M151.909 161.806C158.87 160.718 160.938 175.479 153.93 176.233C146.969 177.321 144.902 162.56 151.909 161.806Z" fill="#E57527"/>
<path d="M174.192 173.638C176.472 171.071 178.068 168.577 179.208 166.359C182.415 160.109 181.716 156.673 185.47 151.786C187.173 149.582 189.468 146.581 191.733 146.929C196.992 147.755 197.858 166.083 197.995 168.78C198.299 175.131 197.934 183.425 195.487 193.068" fill="#E57527"/>
<path d="M174.192 173.638C176.472 171.071 178.068 168.577 179.208 166.359C182.415 160.109 181.716 156.673 185.47 151.786C187.173 149.582 189.468 146.581 191.733 146.929C196.992 147.755 197.858 166.083 197.995 168.78C198.299 175.131 197.934 183.425 195.487 193.068" stroke="#1D1D1B" stroke-width="0.5" stroke-miterlimit="10"/>
<path d="M154.782 120.278C157.259 126.788 147.942 129.993 145.631 123.424C143.154 116.914 152.471 113.709 154.782 120.278Z" fill="#95C35A" stroke="#1D1D1B" stroke-width="0.5" stroke-miterlimit="10"/>
<path d="M153.763 121.394C155.77 126.701 149.036 129.021 147.151 123.671C145.145 118.364 151.878 116.044 153.763 121.394Z" fill="black" stroke="#1D1D1B" stroke-width="0.5" stroke-miterlimit="10"/>
<path d="M148.61 121.844C148.914 122.554 147.759 123.004 147.47 122.293C147.166 121.583 148.322 121.133 148.61 121.844Z" fill="white"/>
<path d="M164.768 120.829C164.966 127.76 174.846 127.397 174.466 120.466C174.268 113.535 164.388 113.898 164.768 120.829Z" fill="#83CACA" stroke="#1D1D1B" stroke-width="0.5" stroke-miterlimit="10"/>
<path d="M166.136 121.496C166.303 127.151 173.432 126.875 173.143 121.235C172.976 115.58 165.847 115.855 166.136 121.496Z" fill="black" stroke="#1D1D1B" stroke-width="0.5" stroke-miterlimit="10"/>
<path d="M168.264 120.031C168.264 120.8 167.018 120.785 167.033 120.031C167.033 119.263 168.279 119.277 168.264 120.031Z" fill="white"/>
<path d="M197.737 154.701C195.639 162.139 181.138 157.978 183.54 150.641C185.638 143.202 200.138 147.364 197.737 154.701Z" fill="#E57527" stroke="#1D1D1B" stroke-width="0.5" stroke-miterlimit="10"/>
<path d="M183.479 146.581C182.385 141.68 189.164 140.346 190.137 145.276C191.231 150.177 184.452 151.511 183.479 146.581Z" fill="#E57527" stroke="#1D1D1B" stroke-width="0.5" stroke-miterlimit="10"/>
<path d="M188.389 143.391C189.422 138.258 196.916 139.78 195.746 144.884C194.712 150.017 187.218 148.495 188.389 143.391Z" fill="#E57527" stroke="#1D1D1B" stroke-width="0.5" stroke-miterlimit="10"/>
<path d="M194.834 143.826C199.348 141.926 202.054 148.19 197.494 149.974C192.979 151.873 190.274 145.609 194.834 143.826Z" fill="#E57527" stroke="#1D1D1B" stroke-width="0.5" stroke-miterlimit="10"/>
<path d="M188.951 145.754C194.697 143.275 199.956 155.469 194.104 157.688C188.374 160.167 183.099 147.973 188.951 145.754Z" fill="#E57527"/>
<path d="M195.396 156.847C195.502 151.264 185.014 151.264 185.121 156.847C185.014 162.429 195.502 162.429 195.396 156.847Z" fill="#E57527"/>
<path d="M187.492 149.466C183.601 154.207 189.559 155.512 192.812 156.266C196.81 153.627 191.93 144.144 187.492 149.466Z" fill="#F2A1AE" stroke="#1D1D1B" stroke-width="0.5" stroke-miterlimit="10"/>
<path d="M184.756 145.421C184.589 147.291 187.34 148.205 187.477 145.957C187.644 144.087 184.893 143.173 184.756 145.421Z" fill="#F2A1AE" stroke="#1D1D1B" stroke-width="0.5" stroke-miterlimit="10"/>
<path d="M190.243 142.738C189.073 144.231 190.866 146.435 192.234 144.623C193.405 143.129 191.611 140.925 190.243 142.738Z" fill="#F2A1AE" stroke="#1D1D1B" stroke-width="0.5" stroke-miterlimit="10"/>
<path d="M196.11 145.551C194.195 145.841 193.937 148.654 196.217 148.248C198.132 147.958 198.39 145.145 196.11 145.551Z" fill="#F2A1AE" stroke="#1D1D1B" stroke-width="0.5" stroke-miterlimit="10"/>
<path d="M166.683 151.786C166.881 150.379 163.005 148.378 159.57 148.146C158.095 148.045 155.177 148.146 154.827 149.364C154.508 150.495 156.545 152.235 158.384 153.004C161.895 154.483 166.486 153.25 166.683 151.786Z" fill="#BF3261"/>
<path d="M205.96 113.825C213.986 117.116 219.336 124.482 219.64 132.675C219.914 140.258 215.84 147.465 209 151.525" stroke="#1D1D1B" stroke-width="2" stroke-linecap="round" stroke-linejoin="round"/>
<path d="M217.512 108.75C227.514 112.839 234.171 122.018 234.551 132.226C234.901 141.665 229.824 150.626 221.297 155.701" stroke="#1D1D1B" stroke-width="2" stroke-linecap="round" stroke-linejoin="round"/>
<path d="M231.04 104.4C241.741 109.156 248.87 119.784 249.28 131.631C249.66 142.578 244.218 152.989 235.098 158.862" stroke="#1D1D1B" stroke-width="2" stroke-linecap="round" stroke-linejoin="round"/>
<defs>
<radialGradient id="paint0_radial_53_152" cx="0" cy="0" r="1" gradientUnits="userSpaceOnUse" gradientTransform="translate(161.165 135.649) scale(3.68509 5.21246)">
<stop offset="0.17" stop-color="#EC72A8"/>
<stop offset="0.97" stop-color="#A33044"/>
</radialGradient>
</defs>
</svg>
