<?xml version="1.0" encoding="UTF-8"?>
<svg id="_Слой_1" data-name="Слой 1" xmlns="http://www.w3.org/2000/svg" xmlns:xlink="http://www.w3.org/1999/xlink" viewBox="0 0 500 500">
  <defs>
    <style>
      .cls-1 {
        fill: url(#_Безымянный_градиент_144-7);
      }

      .cls-2 {
        fill: #95c35a;
      }

      .cls-2, .cls-3, .cls-4, .cls-5, .cls-6, .cls-7, .cls-8, .cls-9, .cls-10, .cls-11, .cls-12, .cls-13, .cls-14, .cls-15, .cls-16, .cls-17, .cls-18 {
        stroke-miterlimit: 10;
      }

      .cls-2, .cls-3, .cls-4, .cls-5, .cls-6, .cls-7, .cls-8, .cls-9, .cls-10, .cls-11, .cls-13, .cls-14, .cls-15, .cls-16, .cls-17, .cls-18 {
        stroke-width: .5px;
      }

      .cls-2, .cls-6, .cls-7, .cls-9, .cls-12, .cls-15, .cls-16, .cls-17 {
        stroke: #1d1d1b;
      }

      .cls-3 {
        fill: #efe63a;
      }

      .cls-3, .cls-10, .cls-11 {
        stroke: #b3b3b3;
      }

      .cls-19 {
        fill: #a1ffed;
      }

      .cls-19, .cls-20, .cls-21, .cls-22, .cls-23 {
        opacity: .5;
      }

      .cls-24, .cls-5, .cls-22, .cls-12, .cls-25, .cls-16 {
        fill: #fff;
      }

      .cls-20, .cls-13 {
        fill: #8dc1ff;
      }

      .cls-4 {
        fill: #c5c5fc;
      }

      .cls-4, .cls-5, .cls-8, .cls-13, .cls-14, .cls-18 {
        stroke: #1b1464;
      }

      .cls-5 {
        opacity: .36;
      }

      .cls-26 {
        fill: #ff669d;
      }

      .cls-7, .cls-27, .cls-14 {
        fill: #e57527;
      }

      .cls-8 {
        fill: #8f8fff;
      }

      .cls-28 {
        fill: url(#_Безымянный_градиент_144-12);
      }

      .cls-9 {
        fill: #83caca;
      }

      .cls-29 {
        fill: url(#_Безымянный_градиент_144-8);
      }

      .cls-10 {
        fill: #97ed3b;
      }

      .cls-11 {
        fill: #3b95ed;
      }

      .cls-12 {
        stroke-width: .25px;
      }

      .cls-30 {
        fill: url(#_Безымянный_градиент_144-9);
      }

      .cls-25 {
        opacity: .7;
      }

      .cls-31 {
        fill: #7a7add;
      }

      .cls-32 {
        fill: url(#_Безымянный_градиент_144-5);
      }

      .cls-33 {
        fill: #d9e46e;
        opacity: .54;
      }

      .cls-23 {
        fill: #fff1b8;
      }

      .cls-34 {
        fill: #0fabf8;
      }

      .cls-35 {
        fill: #bdf2f9;
        opacity: .38;
      }

      .cls-36 {
        fill: #478508;
      }

      .cls-37 {
        fill: url(#_Безымянный_градиент_144);
      }

      .cls-15, .cls-38 {
        fill: #fff6bd;
      }

      .cls-17 {
        fill: url(#_Безымянный_градиент_47);
      }

      .cls-39 {
        fill: #d56e34;
      }

      .cls-40 {
        fill: url(#_Безымянный_градиент_144-2);
      }

      .cls-41 {
        fill: url(#_Безымянный_градиент_144-6);
      }

      .cls-42 {
        fill: url(#_Безымянный_градиент_11);
      }

      .cls-43 {
        fill: #29abe2;
      }

      .cls-44 {
        fill: url(#_Безымянный_градиент_144-4);
      }

      .cls-18 {
        fill: #afafe8;
      }

      .cls-45 {
        fill: #1d1d1b;
      }

      .cls-46 {
        fill: url(#_Безымянный_градиент_144-11);
      }

      .cls-47 {
        fill: url(#_Безымянный_градиент_144-10);
      }

      .cls-48 {
        fill: url(#_Безымянный_градиент_144-3);
      }
    </style>
    <radialGradient id="_Безымянный_градиент_11" data-name="Безымянный градиент 11" cx="1448.67" cy="1259.5" fx="1448.67" fy="1259.5" r="393.13" gradientTransform="translate(-546.97 -234.77) scale(.54 .45)" gradientUnits="userSpaceOnUse">
      <stop offset="0" stop-color="#fff"/>
      <stop offset=".13" stop-color="#fff" stop-opacity=".83"/>
      <stop offset=".42" stop-color="#fff" stop-opacity=".48"/>
      <stop offset=".66" stop-color="#fff" stop-opacity=".22"/>
      <stop offset=".83" stop-color="#fff" stop-opacity=".06"/>
      <stop offset=".92" stop-color="#fff" stop-opacity="0"/>
    </radialGradient>
    <radialGradient id="_Безымянный_градиент_47" data-name="Безымянный градиент 47" cx="221.49" cy="111.01" fx="221.49" fy="111.01" r="4.47" gradientTransform="translate(55.44 0) scale(.83 1)" gradientUnits="userSpaceOnUse">
      <stop offset=".17" stop-color="#ec72a8"/>
      <stop offset=".97" stop-color="#a33044"/>
    </radialGradient>
    <linearGradient id="_Безымянный_градиент_144" data-name="Безымянный градиент 144" x1="99.47" y1="100.3" x2="167.99" y2="100.3" gradientTransform="translate(-27.46 135.44) rotate(-35.12)" gradientUnits="userSpaceOnUse">
      <stop offset="0" stop-color="#cc5ff4"/>
      <stop offset=".06" stop-color="#cc68f0"/>
      <stop offset=".16" stop-color="#cc81e5"/>
      <stop offset=".26" stop-color="#cda0d9"/>
      <stop offset=".4" stop-color="#cd9dac"/>
      <stop offset=".45" stop-color="#cd9c9b"/>
      <stop offset=".87" stop-color="#ffee2a"/>
    </linearGradient>
    <linearGradient id="_Безымянный_градиент_144-2" data-name="Безымянный градиент 144" x1="65.17" y1="91.64" x2="79.07" y2="91.64" gradientTransform="translate(-5.22 78.26) rotate(-25.59)" xlink:href="#_Безымянный_градиент_144"/>
    <linearGradient id="_Безымянный_градиент_144-3" data-name="Безымянный градиент 144" x1="55.17" y1="78.84" x2="95.31" y2="78.84" xlink:href="#_Безымянный_градиент_144"/>
    <linearGradient id="_Безымянный_градиент_144-4" data-name="Безымянный градиент 144" x1="41.5" y1="101.14" x2="91.88" y2="101.14" xlink:href="#_Безымянный_градиент_144"/>
    <linearGradient id="_Безымянный_градиент_144-5" data-name="Безымянный градиент 144" x1="105.62" y1="118.59" x2="155.48" y2="118.59" xlink:href="#_Безымянный_градиент_144"/>
    <linearGradient id="_Безымянный_градиент_144-6" data-name="Безымянный градиент 144" x1="34.51" y1="126.19" x2="88.14" y2="126.19" xlink:href="#_Безымянный_градиент_144"/>
    <linearGradient id="_Безымянный_градиент_144-7" data-name="Безымянный градиент 144" x1="25.64" y1="95.37" x2="35.81" y2="95.37" xlink:href="#_Безымянный_градиент_144"/>
    <linearGradient id="_Безымянный_градиент_144-8" data-name="Безымянный градиент 144" x1="29.19" y1="46.21" x2="46.51" y2="46.21" xlink:href="#_Безымянный_градиент_144"/>
    <linearGradient id="_Безымянный_градиент_144-9" data-name="Безымянный градиент 144" x1="39.36" y1="-3.6" x2="57.81" y2="-3.6" xlink:href="#_Безымянный_градиент_144"/>
    <linearGradient id="_Безымянный_градиент_144-10" data-name="Безымянный градиент 144" x1="116.17" y1="16.11" x2="134.29" y2="16.11" xlink:href="#_Безымянный_градиент_144"/>
    <linearGradient id="_Безымянный_градиент_144-11" data-name="Безымянный градиент 144" x1="167.5" y1="39.87" x2="174.8" y2="39.87" xlink:href="#_Безымянный_градиент_144"/>
    <linearGradient id="_Безымянный_градиент_144-12" data-name="Безымянный градиент 144" x1="155.23" y1="80.99" x2="165.8" y2="80.99" xlink:href="#_Безымянный_градиент_144"/>
  </defs>
  <g>
    <ellipse class="cls-42" cx="228.26" cy="336.53" rx="185.54" ry="151.65"/>
    <g>
      <ellipse class="cls-34" cx="228.69" cy="333.95" rx="165.65" ry="135.32"/>
      <path class="cls-43" d="m228.69,199.14c44.15,0,85.65,14.05,116.85,39.55,31.15,25.46,48.3,59.29,48.3,95.26s-17.15,69.8-48.3,95.26c-31.2,25.51-72.7,39.55-116.85,39.55s-85.65-14.05-116.85-39.55c-31.15-25.46-48.3-59.29-48.3-95.26s17.15-69.8,48.3-95.26c31.2-25.51,72.7-39.55,116.85-39.55m0-1c-91.76,0-166.15,60.81-166.15,135.82s74.39,135.82,166.15,135.82,166.15-60.81,166.15-135.82-74.39-135.82-166.15-135.82h0Z"/>
    </g>
    <path class="cls-36" d="m318.8,243.73c-4.92,4.55-7.39,6.83-9.05,9.24-3.97,5.77-10.59,13.81-15.83,18.49-4.03,3.6-13.64,12.19-25.64,12.33-12.78.14-14.07-9.48-26.39-10.48-18.88-1.53-30.03,19.91-45.24,16.02-6.09-1.56-8.29-6.02-15.08-5.55-6.93.48-9.97,5.49-13.57,4.31-3.61-1.18-1.3-6.45-5.28-12.33-5.62-8.31-17.88-9.06-17.34-11.71.59-2.9,15.6-3.46,15.83-2.47.32,1.39-28.35,5.81-27.9,9.86.34,3,16.23,1.81,19.6,8.63,1.58,3.19.14,7.57-3.02,9.24-4.6,2.44-11.97-1.34-16.59-3.7-14.25-7.29-23.17-19.99-21.11-21.57,1.62-1.24,10.26,4.17,9.8,4.93-.58.96-14.78-7.27-24.88-3.08-4.81,1.99-8.16,6.58-8.29,11.09-.17,5.56,4.58,9.34,6.79,11.09,4.59,3.65,7.84,2.1,10.56,4.93.79.83,2.76,3.26,0,15.41-2.58,11.34-5.39,13.98-3.02,17.87,2.04,3.35,4.88,2.64,8.29,7.4,1.47,2.05,4.79,6.68,2.26,10.48-1.42,2.14-4.5,3.72-7.54,3.7-5.42-.04-8.94-5.18-11.31-8.63-3.24-4.72-3.96-9.02-4.52-12.33-1-5.88-.31-10.55,0-12.33,1.03-5.82,2.57-6.09,3.02-10.48.21-2.11-.86-5.96-3.02-13.56-3.08-10.87-2.7-7.07-5.28-16.02-.85-2.95-.96-3.59-1.51-3.7-3.29-.62-14.35,19.46-18.85,38.83-7.15,30.74,3.22,55.37,11.31,74.57,0,0,5.19,12.32,21.11,28.97,4.43,4.63,9.05,8.77,15.08,8.63,4.51-.11,8.88-2.6,11.31-5.55,1.04-1.27,3.69-4.49,2.26-6.78-1.74-2.78-7.43-.8-13.57-4.31-.78-.45-4.26-2.52-6.03-6.16-1.32-2.72-.58-4.03,0-12.94.34-5.21.25-7.35.75-7.4,1.39-.13-.04,16.34,11.31,22.8,5.01,2.85,11.11,2.96,18.1,3.08,4.61.08,14.02.25,15.08-2.47,1.04-2.66-6.35-6.97-16.59-12.94-7.64-4.46-12.27-6.45-12.06-6.78.38-.59,15.8,5.47,26.39,9.86,16.81,6.97,20.04,9.15,21.87,10.48,8.23,5.99,12.67,12.67,14.33,15.41,3.9,6.43,5.53,12.6,12.82,24.04,1.03,1.62,3.38,5.23,5.28,4.93,2.73-.43.6-8.37,6.03-11.71,3.38-2.08,5.48.21,12.82-1.23,1.75-.34,10.63-2.1,16.59-8.01,2.56-2.54,3.76-5.03,6.03-4.93,1.37.06,1.51.99,5.28,3.08,1.98,1.09,2.71,1.26,4.52,2.47,1.86,1.23,3.12,2.08,3.02,3.08-.13,1.25-2.27,1.47-2.26,2.47,0,1.22,3.19,2.86,6.03,2.47,3.3-.46,4.12-3.37,6.03-3.08,2.27.34,2.98,4.71,3.02,4.93.48,3.15-1.16,3.63-.75,6.16.67,4.15,5.76,6.85,6.79,7.4,2.59,1.37,4.58,1.58,4.52,1.85-.22.98-25.99-3.93-27.14-1.23-.88,2.07,12.44,9.31,27.14,9.86,3.3.12,13.02.49,17.34-4.31.83-.92,1.7-1.89,1.51-3.08-.7-4.27-14-3.87-15.83-9.24-.57-1.67,0-3.8,1.51-4.93,3.35-2.52,9.05,1.58,14.33-.62,3.8-1.59,6.51-6.08,5.28-9.24-1.99-5.09-13.26-4.27-14.33-8.63-.85-3.47,5.52-7.11,6.03-7.4,7.08-3.96,12.11-.36,20.36-3.08,7.83-2.58,14.64-9.57,14.33-16.02-.24-4.76-4.34-9.24-6.03-11.09-1.51-1.65-3.64-3.56-6.79-7.4-2.93-3.57-3.27-4.56-3.02-5.55.52-2.05,3.35-3.1,8.29-4.93,3.26-1.21,5.59-2.05,6.79-1.23,1.35.91-.2,2.91,1.51,4.93.8.94,2.28,1.86,3.77,1.85,3.26-.03,6.87-4.52,6.03-8.01-.93-3.85-6.57-3.64-8.29-8.01-1.43-3.61,1-7.32,2.26-9.24,3.16-4.83,6.23-4.28,9.05-8.01,4.55-6.01,2.6-15.42-3.02-20.95-.93-.91-3.38-3.33-7.54-4.93-3.38-1.3-5.56-1.16-10.56-3.08-3.16-1.22-4.76-1.85-5.28-3.08-.23-.54-.64-2.02,3.77-7.4,2.27-2.77,3.57-3.83,4.52-4.93,5.87-6.74.53-16.81,2.26-17.26,1.32-.34,3.39,5.73,10.56,12.94,2.9,2.92,7.41,6.8,14.33,9.24,3.51,1.24,5.68,2.01,6.79,1.23,3.34-2.34-6.53-16.35-12.82-25.27-6.7-9.51-7.47-8.95-9.05-12.94-3.07-7.76-1.32-12.73-6.79-17.26-.83-.69-4.36-3.61-8.29-3.08-2.16.29-3.57,1.51-5.28,3.08Z"/>
    <path class="cls-24" d="m231.34,245.58c4.9-6.15,5.78-6.02,7.54-9.24,1.51-2.76,2.9-5.31,1.51-7.4-.84-1.26-2.38-1.89-3.77-2.47-1.2-.49-2.9-1-6.79-1.23-3.58-.21-4.93.05-6.79,0-7.64-.21-13.61-5.5-13.57-5.55.03-.04,4.46,2.55,4.52,2.47.09-.11-6.87-6.33-16.59-7.4-4.55-.5-8.29.29-12.82,1.23-5.43,1.14-5.92,2.07-6.03,2.47-.2.7.24,1.56,6.03,6.16,4.16,3.3,4.96,3.68,5.28,4.93.64,2.5-1.92,3.42-1.51,6.16.52,3.42,5.04,5.44,5.28,5.55,3.23,1.4,5.06.31,11.31.62,2.46.12,6.79.33,11.31,1.85,6.79,2.28,9.02,5.82,12.06,4.93.92-.27,1.13-.71,3.02-3.08Z"/>
    <path class="cls-24" d="m212.49,209.22c-.82,1.61,1.3,4.2,3.77,5.55,4.27,2.32,7.58-.16,14.33.62,9.58,1.11,14.73,7.48,16.59,6.16,1.12-.8,0-3.68-.75-3.7-.61-.02-.91,1.85-3.02,10.48-1.97,8.07-2.41,9.33-1.51,9.86,2.2,1.28,7.04-4.88,18.1-8.01,5.38-1.53,9.81-1.65,17.34-1.85,6.88-.18,11.53-.31,17.34,1.23,4.5,1.2,6.04,2.42,6.79,1.85,1.88-1.45-4.7-11.87-15.83-18.49-5.49-3.27-10.6-4.72-13.57-5.55-9.13-2.54-16.72-2.52-22.62-2.47-11.61.11-10.05,1.98-24.13,2.47-7.07.24-11.83-.08-12.82,1.85Z"/>
    <path class="cls-33" d="m348.09,273.2c-.6.04-1.19.09-1.77.14-15.44,1.38-23.07,5.58-26.77,10.45-9.24,12.15,1.49,34.43-3.77,35.75-2.27.57-3.79-3.7-10.56-7.4-10.1-5.52-24.26-5.61-34.68-2.47-9.35,2.82-8.59,6.11-18.85,8.63-3.05.75-11.85,2.82-21.87.62-8.35-1.84-8.15-4.57-18.1-8.01-3.53-1.22-13.22-4.47-24.88-3.7-12.05.81-13.54,5.07-24.13,4.93-8.97-.12-15.63-3.29-20.36-5.55-4.17-1.99-10.96-5.81-23.37-19.72-4.16-4.67-9.18-10.72-14.42-18.14,3.63-.42,7.46.22,10.82,1.12,1.46,4.17,9.55,13.71,21.16,19.67,4.61,2.36,11.99,6.13,16.59,3.7,3.16-1.68,4.6-6.06,3.02-9.24-3.38-6.82-19.26-5.63-19.6-8.63-.22-1.98,6.49-4.04,13.39-5.8,3.26,1.76,11.64,3.65,16.01,10.11,3.97,5.87,1.67,11.14,5.28,12.33,3.6,1.18,6.64-3.84,13.57-4.31,6.79-.47,8.99,3.99,15.08,5.55,15.21,3.88,26.37-17.55,45.24-16.02,12.32,1,13.61,10.62,26.39,10.48,12-.14,21.61-8.73,25.64-12.33,1.36-1.22,2.82-2.66,4.31-4.24,4.21-4.47,8.6-9.98,11.53-14.25,1.66-2.42,4.12-4.7,9.05-9.24,1.7-1.58,3.11-2.79,5.28-3.08,3.93-.53,7.46,2.39,8.29,3.08,5.47,4.52,3.72,9.49,6.79,17.26,1.27,3.2,2.01,3.47,5.69,8.34Z"/>
    <path class="cls-35" d="m83.56,346.04c7.38-3.47,18.16,10.07,40.71,17.26,18.69,5.95,35.42,4.35,76.15-3.08,76.3-13.92,108.81-24.94,112.34-19.72,4.43,6.53-36.01,30.44-37.7,31.43-13.2,7.74-35.46,20.55-68.61,27.12-13.84,2.74-90.07,16.39-117.62-14.18-12.58-13.95-13.19-35.1-5.28-38.83Z"/>
    <path class="cls-35" d="m130.31,421.84c.62,4.01,2.36,10.28,8.29,13.56,13.35,7.38,32.1-9.13,60.32-8.01,20.43.81,22.55,9.94,43.73,14.79,44.16,10.12,94.68-15.89,92.74-22.8-1.22-4.34-22.18,2.06-70.12-3.08-37.21-3.99-50.56-10.62-71.63-3.7-9.05,2.98-14.9,6.94-28.65,9.24-14,2.35-26.26,1.32-34.68,0Z"/>
    <path class="cls-35" d="m371.58,343.57c-8.91,1.45-8.38-49.53-53.53-72.11-15.14-7.57-26.24-7.36-116.87-10.48-71.66-2.47-73.8-2.92-73.89-3.7-.55-4.78,76.19-18.57,159.84-10.48,48.75,4.72,62.28,13.23,69.37,19.11,32.46,26.9,23.72,76.24,15.08,77.65Z"/>
  </g>
  <g>
    <g>
      <path class="cls-13" d="m235.89,118.57c-11.34.18-19.17,5.17-21.04,6.42-8.01,5.35-11.85,12.18-14.27,17.48-5.57,12.2-11.87,25.98-6.06,39.59,7.35,17.23,29.37,23.08,44.58,22.11,2.67-.17,29.35-2.43,38.52-23.54,7.71-17.77-2.75-35.62-5.71-40.66-2.11-3.6-6.11-10.24-14.27-15.34-9.45-5.9-18.69-6.11-21.76-6.06Z"/>
      <g>
        <path class="cls-7" d="m265.38,120.89c-2.45-3.59,3.71-3.27.84-5.82,1.8-1.11,4.09-2.81,3.96-4.91-1.69-.07,2.35-9.02-.99-8.68,2.55-.94,4.02-5.19.3-5.32,1.38-2.04,2.52-5.92-1.87-4.8,1.41-1.67.9-5.05-1.98-3.9,1.69-1.07,2.59-5.77-.5-3.11,3.76-2.55-1.89-7.7-4.55-5.82,1.99-2.81.44-5.31-3.4-3.29,2.64-3.95-6.61-7.03-8.45-2.93-.07-3.48-1.48-4.92-3.83-1.3.19-1.14-4.24-4.38-4.47-5.4,0,0,.76,9.04-1.54,5.62-2.94-5.23-4.58-4.22-6.66-.22-4.42-4.62-1.97,1.48-8.91-.82,1.23,2.94-10.49,2.72-6.77,8.35-2.77-1.85-8.21,3.23-4.55,5.82-3.1-2.65-2.2,2.03-.5,3.11-2.88-1.15-3.39,2.23-1.98,3.9-4.39-1.12-3.26,2.76-1.87,4.8-3.72.14-2.25,4.39.3,5.33-3.34-.36.7,8.63-.99,8.68-.13,2.1,2.17,3.8,3.97,4.91-2.92,2.59,3.29,2.11.84,5.82"/>
        <path class="cls-39" d="m235.05,116.81c-1.45-4.76,2.16-26.35-4.66-34.97,0,0,5.46,6.25,5.46,6.25l-1.67-12.95,3.45,11.46c3.06-13.28,2.88-15.42,2.82,0,0,0,5.81-6.42,5.81-6.42l-2.85,8.35,4.61-5.51c-10.72,7.35,2.57,42.81-12.96,33.78Z"/>
        <g>
          <path class="cls-38" d="m240.93,130.39c55.5-15.22-11.37-38.97-25.87-15.87,1.32,6.93,12.92,16.71,25.87,15.87Z"/>
          <path class="cls-45" d="m240.93,130.39c6.39-1.85,26.64-7.8,20.29-17.24-6.24-7.21-19.6-8.64-28.6-7.75-6.65.72-13.72,3.32-17.44,9.2,1.25,4.78,5.77,9.22,10.27,11.83,4.65,2.74,10.07,4.24,15.49,3.96h0Zm0,0c-8.13.48-16.33-2.98-21.94-8.84-1.85-1.99-3.46-4.33-4.08-7.05,3.72-6.04,10.9-8.77,17.66-9.56,8.97-1.02,22.78.78,28.87,8.05,6.43,9.73-13.93,15.56-20.51,17.4h0Z"/>
        </g>
        <g>
          <path class="cls-2" d="m233.51,101.25c-.18,5.45-7.68,5.11-7.37-.33.18-5.45,7.68-5.11,7.37.33Z"/>
          <path class="cls-6" d="m232.46,101.76c-.15,4.44-5.57,4.2-5.32-.24.15-4.44,5.57-4.2,5.32.24Z"/>
        </g>
        <g>
          <path class="cls-12" d="m239.16,122.41c-4.68,1.85-2.22-5.44-2.82-7.51,0,0,2.82,0,2.82,0v7.51Z"/>
          <path class="cls-12" d="m241.98,122.41c-4.68,1.85-2.22-5.44-2.82-7.51,0,0,2.82,0,2.82,0v7.51Z"/>
        </g>
        <g>
          <path class="cls-15" d="m239.22,111.55c4.14,10.36-13.75,11.87-9.23,1.96"/>
          <path class="cls-15" d="m248.45,113.46c4.64,9.69-13.27,8.58-9.23-1.68"/>
        </g>
        <g>
          <g>
            <path class="cls-9" d="m243.73,101.25c.18,5.45,7.68,5.11,7.37-.33-.18-5.45-7.68-5.11-7.37.33Z"/>
            <path class="cls-6" d="m244.78,101.76c.15,4.44,5.57,4.2,5.32-.24-.15-4.44-5.57-4.2-5.32.24Z"/>
          </g>
          <circle class="cls-24" cx="248.91" cy="100.56" r=".71"/>
        </g>
        <path class="cls-17" d="m239.02,109.66c8.13-3.99,4.65,2.33.09,4.08-4.15-1.65-7.97-8.28-.07-4.08"/>
        <circle class="cls-16" cx="231.44" cy="100.56" r=".89"/>
      </g>
      <path class="cls-8" d="m250.87,203.1c-.42-2.49,1.89-4.77,3.57-6.42,4.98-4.92,14.42-9.22,23.9-6.06,7.54,2.51,15.28,9.81,13.91,14.62-1.74,6.11-17.59,6.19-26.04,4.99-2.89-.41-14.48-2.05-15.34-7.13Z"/>
      <path class="cls-8" d="m224.63,202.06c.42-2.49-1.89-4.77-3.57-6.42-4.98-4.92-14.42-9.22-23.9-6.06-7.54,2.51-15.28,9.81-13.91,14.62,1.74,6.11,17.59,6.19,26.04,4.99,2.89-.41,14.48-2.05,15.34-7.13Z"/>
      <g class="cls-21">
        <g>
          <path class="cls-31" d="m268.88,135.66c-2.64.29-5.49.9-8.44,1.99-8.34,3.09-13.23,8.46-14.41,9.81-6.4,7.33-7.38,15.01-8.58,14.71-1.05-.26-1.19-6.32.92-11.95,2.7-7.22,8.16-11.25,10.42-12.87,5.7-4.09,11.98-5.73,17.44-6.24.42.67.78,1.27,1.09,1.8.39.67.94,1.6,1.56,2.75Z"/>
          <path class="cls-31" d="m204.47,135.65c2.64.29,5.49.9,8.44,1.99,8.34,3.09,13.23,8.46,14.41,9.81,6.4,7.33,7.38,15.01,8.58,14.71,1.05-.26,1.19-6.32-.92-11.95-2.7-7.22-8.16-11.25-10.42-12.87-5.7-4.09-11.98-5.73-17.44-6.24-.42.67-.78,1.27-1.09,1.8-.39.67-.94,1.6-1.56,2.75Z"/>
        </g>
        <path class="cls-31" d="m234.11,204.35v-71.15h5.35v70.7c-1.78.15-3.57.3-5.35.45Z"/>
      </g>
      <path class="cls-8" d="m235.54,172.78c-9.32-.14-17.67-.27-26.39-4.99-8.54-4.63-11.04-10.19-14.27-8.92-3.79,1.5-5.19,11.08-1.43,17.12,1.66,2.67,3.91,3.98,7.49,6.06,4.92,2.86,9.57,4.34,13.91,5.35,2.53.59,9.73,2.15,20.69,2.14,11.75,0,19.7-1.8,30.67-4.28,10.15-2.29,12.68-3.67,14.62-6.06,4.5-5.52,4.77-15.02,1.07-17.48-3.48-2.31-7.96,3.28-20.69,7.49-11.21,3.71-20.69,3.64-25.68,3.57Z"/>
      <path class="cls-25" d="m259.16,172.83c-.02.05-.2.58,0,.92.83,1.41,7.94-.86,13.62-3.79,3.27-1.69,8.09-4.63,7.69-5.63-.1-.23-.46-.32-.98-.34-2.85-.15-4.44,1.8-7.49,3.5-1.82,1.02-6.32,3.16-10.01,3.82-.6.11-2.45.4-2.84,1.52Z"/>
      <path class="cls-25" d="m257.85,174.01c.11-.46-.13-.97-.47-1.23-.28-.21-.78-.18-1.78-.1-1.07.09-1.27.2-1.4.34-.39.38-.36.94-.36,1.01,0,.1.05.6.44.91.29.23.74.19,1.62.12,1.01-.09,1.28-.25,1.4-.34.15-.11.46-.32.55-.71Z"/>
      <g>
        <ellipse class="cls-3" cx="204.63" cy="172.36" rx="1.73" ry="1.54"/>
        <path class="cls-24" d="m204.44,173.51c.02.09.87.2,1.25-.29.43-.55-.04-1.45-.1-1.44-.04,0,.19.57-.1,1.06-.32.55-1.08.59-1.06.67Z"/>
        <path class="cls-24" d="m204.25,171.21c-.3-.05-.65.1-.77.38-.15.36.15.78.19.77.02,0,.01-.1,0-.19.03-.1.08-.24.19-.38.27-.34.68-.38.77-.38-.06-.06-.19-.16-.38-.19Z"/>
      </g>
      <g>
        <ellipse class="cls-10" cx="208" cy="174.38" rx="1.73" ry="1.54"/>
        <path class="cls-24" d="m207.81,175.53c.02.09.87.2,1.25-.29.43-.55-.04-1.45-.1-1.44-.04,0,.19.57-.1,1.06-.32.55-1.08.59-1.06.67Z"/>
        <path class="cls-24" d="m207.61,173.23c-.3-.05-.65.1-.77.38-.15.36.15.78.19.77.02,0,.01-.1,0-.19.03-.1.08-.24.19-.38.27-.34.68-.38.77-.38-.06-.06-.19-.16-.38-.19Z"/>
      </g>
      <g>
        <ellipse class="cls-11" cx="212.23" cy="175.53" rx="1.73" ry="1.54"/>
        <path class="cls-24" d="m212.04,176.69c.02.09.87.2,1.25-.29.43-.55-.04-1.45-.1-1.44-.04,0,.19.57-.1,1.06-.32.55-1.08.59-1.06.67Z"/>
        <path class="cls-24" d="m211.84,174.38c-.3-.05-.65.1-.77.38-.15.36.15.78.19.77.02,0,.01-.1,0-.19.03-.1.08-.24.19-.38.27-.34.68-.38.77-.38-.06-.06-.19-.16-.38-.19Z"/>
      </g>
      <path class="cls-4" d="m201.65,174.21c2.13,1.42,4.86,2.97,8.2,4.28,4.71,1.85,8.96,2.57,12.13,2.85-.59,2.02-1.19,4.04-1.78,6.06-3.42-.37-7.9-1.22-12.84-3.21-3.28-1.32-6.01-2.85-8.2-4.28.83-1.9,1.66-3.8,2.5-5.71Z"/>
      <path class="cls-18" d="m202.01,175.64c.88.61,1.83,1.21,2.85,1.78,5.54,3.11,11.03,4.26,15.34,4.64-.24.48-.48.95-.71,1.43-4.31-.38-9.8-1.52-15.34-4.64-1.02-.57-1.97-1.17-2.85-1.78.24-.48.48-.95.71-1.43Z"/>
      <path class="cls-18" d="m200.87,177.82c.88.61,1.83,1.21,2.85,1.78,5.54,3.11,11.03,4.26,15.34,4.64-.24.48-.48.95-.71,1.43-4.31-.38-9.8-1.52-15.34-4.64-1.02-.57-1.97-1.17-2.85-1.78.24-.48.48-.95.71-1.43Z"/>
      <g>
        <g>
          <path class="cls-5" d="m238.32,72.46c-1.35.01-19.33.49-26.38,15.19-5.92,12.33-.62,27.32,8.79,33.85,5.32,3.68,11.07,3.99,16.26,4.26,6.1.32,15.12.8,22.45-5.05,8.09-6.47,11.57-18.63,8.2-29.06-4.28-13.27-18.21-19.3-29.32-19.19Z"/>
          <path class="cls-20" d="m231.34,79.52c-.29-.67-6.42-.24-10.13,4-4.43,5.06-2.94,12.72-2.4,12.79.4.05.13-4.06,2.93-8.53,3.76-6,9.9-7.57,9.59-8.26Z"/>
          <path class="cls-23" d="m240.13,119.23c2.25.24,6.7.36,10.93-2.13,8.72-5.15,9.61-17.38,9.06-17.59-.41-.16-1.65,6.57-7.73,12.53-4.07,3.99-8.69,6.05-12.26,7.2Z"/>
          <path class="cls-22" d="m215.13,92.71l1.35-6.53,1.35,6.53h5.39l-5.46,1.6-1,6.34c-.38-2.02-.75-4.05-1.13-6.07-2.04.36-4.09.71-6.13,1.07,1.88-.98,3.76-1.95,5.65-2.93Z"/>
        </g>
        <path class="cls-19" d="m258.51,92.95c-.09.52.13.85.49,2.35.29,1.21.26,1.51.5,1.8.35.41.9.36,1.15-.05.4-.65-.06-2.08-.26-2.7-.13-.41-.66-2.05-1.26-2.14-.31-.05-.55.32-.63.73Z"/>
      </g>
      <path class="cls-13" d="m276.73,89.15c-5.1-18.04-24.61-25.83-39.23-25.68-1.81.02-25.87.66-35.31,20.33-7.92,16.5-.83,36.57,11.77,45.3,7.79,5.4,16.45,5.59,21.76,5.71,5.29.12,17.44.39,27.82-7.85,10.03-7.95,17.38-23.03,13.2-37.81Zm-14.44,27.64c-6.58,7.74-16.87,7.8-23.18,7.85-6.13.04-15.91.11-22.83-7.13-7.34-7.69-8.13-20.14-3.57-29.6,4.82-9.99,15.11-15.6,25.32-15.69,11.69-.11,21.87,7.03,26.39,16.76,3.63,7.8,4.76,19.71-2.14,27.82Z"/>
      <g>
        <path class="cls-13" d="m264.78,136.4c-.74,3.11.6,5.81,3.21,11.06,2.51,5.06,4.49,9.03,7.85,9.63,5.17.92,10.77-6.67,13.2-11.41,3.23-6.34,1.03-8.06,4.64-17.48,2.57-6.72,4.29-7.4,4.64-11.77.38-4.7-.92-12.43-5.71-13.91-4.93-1.52-11.54,4.24-12.48,9.63-.59,3.36.95,7.07.71,7.13-.25.06-1.01-4.41-2.85-4.64-.85-.11-1.71.73-2.14,1.43-1.31,2.15.7,4.26.71,6.78.03,5.67-10.11,6.61-11.77,13.55Z"/>
        <path class="cls-7" d="m300.26,116.05c-.09,1.09-.25,1.98-.49,2.78-1.35,4.63-3.17,8.01-4.7,10.39-.73,1.14-1.78,2.64-3.18,4.33-1.3-.2-3.07-.52-5.13-1.1-3.44-.97-5.93-2.14-7.36-2.82-1.82-.87-3.49-1.79-5.01-2.74.23-.24.59-.65.89-1.23,1.78-3.51-1.9-7.06-.18-10.01.51-.87,1.5-1.71,2.4-1.6,2.07.26,2.91,5.26,3.19,5.19.27-.07-1.46-4.22-.8-7.99,1.05-6.03,8.45-12.48,13.97-10.77,5.35,1.65,6.81,10.31,6.39,15.56Z"/>
        <path class="cls-27" d="m286.06,150.67c-1.03,1.33-2.19,2.6-3.4,3.64-2.27-1.37-4.74-3.14-7.18-5.42-4.91-4.58-7.99-9.63-9.92-13.91.64-1.63,1.78-2.9,3.1-3.99,1.9,4.16,5.25,9.89,11.1,15.05,2.15,1.89,4.29,3.41,6.3,4.63Z"/>
        <path class="cls-25" d="m295.63,122.67c1.15-1.79,2.28-4.2,2.5-7.13.56-7.63-5.51-14.02-5.71-13.91-.14.08,2.83,3.49,3.92,9.27.9,4.73.13,8.9-.71,11.77Z"/>
        <path class="cls-25" d="m283.51,129.45c1.6.63,4.07,1.31,6.42.36,3.18-1.28,4.33-4.8,4.64-4.64.33.18-.33,4.61-3.57,6.06-2.28,1.03-5.24.31-7.49-1.78Z"/>
      </g>
      <path class="cls-25" d="m278.51,119.82c.24.09,1.04-.78,1.07-1.78.03-.9-.57-1.57-1.07-2.14-.57-.65-1.31-1.18-1.43-1.07-.15.14,1.14,1.13,1.43,2.85.2,1.22-.22,2.06,0,2.14Z"/>
      <path class="cls-25" d="m249.27,128.38c3.8-.68,10.98-2.56,16.76-8.56,8.94-9.27,8.73-22.33,8.2-22.47-.49-.13-1.33,10.81-9.63,20.33-4.92,5.63-10.75,8.82-15.34,10.7Z"/>
      <path class="cls-25" d="m202.9,106.98c-.82-4.31-1.49-11.47,1.78-18.55,7.75-16.77,31.57-20.04,31.74-19.62.14.35-16.55,3.09-26.39,17.12-4.94,7.04-6.63,14.75-7.13,21.04Z"/>
      <path class="cls-25" d="m289.93,203.28c.39-.45-3.8-6.69-11.06-9.63-6.53-2.64-13.14-1.63-13.2-1.07-.05.49,4.98.44,11.77,3.21,8.07,3.29,12.12,7.9,12.48,7.49Z"/>
      <path class="cls-25" d="m220.02,200.42c-.17.21-3.5-3.58-9.27-5.71-7.91-2.91-15.87-1.01-21.4,1.07,3.01-2.55,8.31-6.17,14.62-5.71,9.37.69,16.31,10.02,16.05,10.34Z"/>
      <path class="cls-13" d="m254.97,67.75c-.18-2.23,1.49-3.86,7.13-8.92,3.64-3.26,7.56-6.72,11.77-10.34-1.09,2.66-2.7,6.85-4.28,12.13-2.7,9-2.75,12.61-5.35,13.55-3.31,1.2-8.97-2.57-9.27-6.42Z"/>
      <ellipse class="cls-14" cx="273.94" cy="48.43" rx="7.22" ry="6.41"/>
      <path class="cls-22" d="m273.14,53.24c.08.37,3.61.84,5.21-1.2,1.8-2.3-.18-6.05-.4-6.01-.17.03.78,2.39-.4,4.41-1.35,2.31-4.49,2.45-4.41,2.81Z"/>
      <path class="cls-22" d="m272.34,43.62c-1.25-.2-2.72.43-3.21,1.6-.61,1.49.61,3.26.8,3.21.08-.02.05-.43,0-.8.11-.42.33-1.02.8-1.6,1.14-1.4,2.83-1.57,3.21-1.6-.25-.23-.8-.67-1.6-.8Z"/>
      <path class="cls-25" d="m257.65,70.06c.38.27,2.24,1.52,4.64,1.07,1.96-.37,3.13-1.65,3.57-2.14.85-.95,1.21-1.91,1.43-2.5,1.49-4.09,2.39-8.86,2.14-8.92-.31-.06-.25,7.29-4.99,10.7-2.32,1.67-5.03,1.85-6.78,1.78Z"/>
      <path class="cls-13" d="m219.35,69.42c.18-2.23-1.49-3.86-7.13-8.92-3.64-3.26-7.56-6.72-11.77-10.34,1.09,2.66,2.7,6.85,4.28,12.13,2.7,9,2.75,12.61,5.35,13.55,3.31,1.2,8.97-2.57,9.27-6.42Z"/>
      <ellipse class="cls-14" cx="200.38" cy="50.1" rx="7.22" ry="6.41"/>
      <path class="cls-22" d="m201.19,54.92c-.08.37-3.61.84-5.21-1.2-1.8-2.3.18-6.05.4-6.01.17.03-.78,2.39.4,4.41,1.35,2.31,4.49,2.45,4.41,2.81Z"/>
      <path class="cls-22" d="m201.99,45.29c1.25-.2,2.72.43,3.21,1.6.61,1.49-.61,3.26-.8,3.21-.08-.02-.05-.43,0-.8-.11-.42-.33-1.02-.8-1.6-1.14-1.4-2.83-1.57-3.21-1.6.25-.23.8-.67,1.6-.8Z"/>
      <path class="cls-25" d="m216.68,71.74c-.38.27-2.24,1.52-4.64,1.07-1.96-.37-3.13-1.65-3.57-2.14-.85-.95-1.21-1.91-1.43-2.5-1.49-4.09-2.39-8.86-2.14-8.92.31-.06.25,7.29,4.99,10.7,2.32,1.67,5.03,1.85,6.78,1.78Z"/>
      <g>
        <path class="cls-13" d="m209.47,133.16c.74,3.11-.6,5.81-3.21,11.06-2.51,5.06-4.49,9.03-7.85,9.63-5.17.92-10.77-6.67-13.2-11.41-3.23-6.34-1.03-8.06-4.64-17.48-2.57-6.72-4.29-7.4-4.64-11.77-.38-4.7.92-12.43,5.71-13.91,4.93-1.52,11.54,4.24,12.48,9.63.59,3.36-.95,7.07-.71,7.13.25.06,1.01-4.41,2.85-4.64.85-.11,1.71.73,2.14,1.43,1.31,2.15-.7,4.26-.71,6.78-.03,5.67,10.11,6.61,11.77,13.55Z"/>
        <path class="cls-7" d="m173.99,112.8c.09,1.09.25,1.98.49,2.78,1.35,4.63,3.17,8.01,4.7,10.39.73,1.14,1.78,2.64,3.18,4.33,1.3-.2,3.07-.52,5.13-1.1,3.44-.97,5.93-2.14,7.36-2.82,1.82-.87,3.49-1.79,5.01-2.74-.23-.24-.59-.65-.89-1.23-1.78-3.51,1.9-7.06.18-10.01-.51-.87-1.5-1.71-2.4-1.6-2.07.26-2.91,5.26-3.19,5.19-.27-.07,1.46-4.22.8-7.99-1.05-6.03-8.45-12.48-13.97-10.77-5.35,1.65-6.81,10.31-6.39,15.56Z"/>
        <path class="cls-27" d="m188.18,147.42c1.03,1.33,2.19,2.6,3.4,3.64,2.27-1.37,4.74-3.14,7.18-5.42,4.91-4.58,7.99-9.63,9.92-13.91-.64-1.63-1.78-2.9-3.1-3.99-1.9,4.16-5.25,9.89-11.1,15.05-2.15,1.89-4.29,3.41-6.3,4.63Z"/>
        <path class="cls-25" d="m178.62,119.42c-1.15-1.79-2.28-4.2-2.5-7.13-.56-7.63,5.51-14.02,5.71-13.91.14.08-2.83,3.49-3.92,9.27-.9,4.73-.13,8.9.71,11.77Z"/>
        <path class="cls-25" d="m190.74,126.2c-1.6.63-4.07,1.31-6.42.36-3.18-1.28-4.33-4.8-4.64-4.64-.33.18.33,4.61,3.57,6.06,2.28,1.03,5.24.31,7.49-1.78Z"/>
      </g>
    </g>
    <path class="cls-22" d="m257.14,174.03l1.35-6.53,1.35,6.53h5.39l-5.46,1.6-1,6.34c-.38-2.02-.75-4.05-1.13-6.07-2.04.36-4.09.71-6.13,1.07,1.88-.98,3.76-1.95,5.65-2.93Z"/>
  </g>
  <g>
    <path class="cls-37" d="m147.45,206.69c-9.1-8.33-23.35-24.01-29.73-47.36,0,0-8.94-32.67,14.23-83.25,0,0,1.47-3.22,2-3.11,1.8.39-16.83,38.92-13.59,74.71,1.41,15.51,7.43,36.01,27.09,59.01Z"/>
    <path class="cls-40" d="m121.47,171.7c-.97.58-21.83-17.83-31.42-47.64-6.62-20.58-5.7-39.85-4.88-39.97.68-.1,1.32,12.9,5.94,29.26,10.3,36.45,31.37,57.75,30.36,58.35Z"/>
    <path class="cls-48" d="m138.1,206.97c-1,.68-22.49-32.64-71.32-68.51-23.85-17.52-47.5-30.71-46.81-31.58.58-.73,17.77,7.77,31.76,16.13,58.19,34.79,87.55,83.15,86.36,83.97Z"/>
    <path class="cls-44" d="m133.52,204.88c.76-.75-24.26-29.35-67.76-43.31-12.97-4.16-28.59-7.34-28.83-6.75-.24.58,14.61,4.62,28.17,9.66,44.43,16.52,67.71,41.1,68.42,40.39Z"/>
    <path class="cls-32" d="m149.26,202.43c-.79.29-20.46-24.73-15.62-57.52,2.68-18.13,12.01-32.99,12.52-32.86.46.12-6.23,12.54-8.91,28.08-6.06,35.27,12.81,62,12,62.29Z"/>
    <path class="cls-41" d="m133.5,212.37c1.04-.93-14.7-26.05-40.92-27.82-18.87-1.28-36.2,10.02-36.07,10.3.1.22,11.09-6.55,25.25-7.21,29.99-1.4,50.61,25.73,51.74,24.73Z"/>
    <polygon class="cls-1" points="58.46 196.49 54.9 197.52 53.69 200.64 51.66 198.03 47.97 198.14 50.27 195.49 49.21 192.44 52.66 193.42 55.69 191.42 55.52 194.67 58.46 196.49"/>
    <polygon class="cls-29" points="36.11 157.09 30.06 155.67 25.03 159.33 25 153.74 19.75 150.84 25.79 148.8 27.57 143.35 31.33 147.69 37.69 147.22 33.97 151.93 36.11 157.09"/>
    <polygon class="cls-30" points="20.41 103.01 14.72 106.24 14.26 112.06 9.3 108.45 2.89 110.17 5.51 104.71 2 99.95 8.58 100.18 12.83 95.52 14.27 101.13 20.41 103.01"/>
    <polygon class="cls-47" points="82.14 85.46 80.52 80.04 74.44 78.38 79.89 75.07 80.11 69.37 85.1 72.75 91.31 70.88 88.95 76.29 92.57 80.83 86.12 80.79 82.14 85.46"/>
    <polygon class="cls-46" points="137.06 72.58 135.11 71.14 132.57 71.8 133.62 69.65 132.25 67.75 134.85 67.87 136.55 66.03 137.1 68.26 139.52 69.02 137.26 70.28 137.06 72.58"/>
    <polygon class="cls-28" points="154.77 112.33 150.99 111.94 148.31 114.49 147.75 111.17 144.31 109.84 147.76 108.18 148.31 104.81 150.99 107.1 154.78 106.35 152.99 109.43 154.77 112.33"/>
  </g>
  <g>
    <path class="cls-26" d="m348.97,214.69c4.6-11.33,14.74-30.24,37.45-45.82,0,0,31.79-21.81,100.03-24.24,0,0,4.34-.15,4.49.34.49,1.69-52,2.71-90.18,21.07-16.55,7.95-36.29,21.99-51.78,48.66Z"/>
    <path class="cls-26" d="m374.58,177.44c-1.14-.57,8.63-26.26,36.9-47.37,19.51-14.57,41.45-22.2,42-21.56.45.53-13.69,6.74-29.53,17.78-35.29,24.61-48.18,51.74-49.37,51.14Z"/>
    <path class="cls-26" d="m343.85,206.9c-1.27-.55,24.79-33.27,39.63-90.25,7.25-27.83,9.78-53.6,11.1-53.4,1.11.17.49,18.43-1.63,33.92-8.82,64.43-47.58,110.38-49.1,109.73Z"/>
    <path class="cls-26" d="m343.83,202.11c1.22.32,20.22-33.33,13.39-76.25-2.04-12.8-6.53-27.4-7.31-27.35-.77.05,2.37,14.38,3.72,28.06,4.44,44.82-10.96,75.25-9.8,75.54Z"/>
    <path class="cls-26" d="m354.65,214.36c-.73-.55,17.02-28.1,56.02-38.3,21.57-5.64,42.92-4.21,43.03-3.72.1.44-17.17.19-35.85,4.7-42.4,10.24-62.45,37.88-63.2,37.32Z"/>
    <path class="cls-26" d="m335.47,205.36c1.57.48,21.45-23.8,9.94-46.77-8.28-16.53-29.77-26.28-30.02-26.05-.2.18,13,6.54,21.01,18.24,16.98,24.78-2.63,54.07-.93,54.59Z"/>
    <polygon class="cls-26" points="314.57 134.9 311.6 132.33 307.5 132.67 309.36 129.81 307.35 126.74 311.48 127.53 314.33 125.3 315.01 128.65 318.79 130.34 315.09 131.61 314.57 134.9"/>
    <polygon class="cls-26" points="346.95 98.8 345.42 93.06 338.76 90.39 344.98 87.94 345.51 82.22 350.88 86.45 357.86 85.58 354.97 90.65 358.76 95.83 351.6 94.74 346.95 98.8"/>
    <polygon class="cls-26" points="399.11 61.93 392.58 58.52 385.87 60.67 387.34 54.9 382.12 50.22 389.56 50.06 393.05 45.01 396.18 50.68 403.55 52.25 398.05 55.91 399.11 61.93"/>
    <polygon class="cls-26" points="450.39 106.55 455.59 102.81 454.31 96.94 460.81 100.11 467.26 97.81 466.07 103.51 471.34 107.96 464.11 108.32 460.91 113.36 457.63 107.88 450.39 106.55"/>
    <polygon class="cls-26" points="492.96 147.43 493.57 145.15 491.52 143.29 494.47 143.24 495.87 141.26 497.09 143.51 500 144.15 497.81 145.58 498.2 147.96 495.63 146.6 492.96 147.43"/>
    <polygon class="cls-26" points="457.81 179.76 456.3 176.38 452.09 175.22 455.5 173.31 455.21 169.81 458.83 172.01 462.86 171.01 461.69 174.28 464.47 177.16 460.13 176.98 457.81 179.76"/>
  </g>
</svg>