<?xml version="1.0" encoding="UTF-8"?>
<svg id="_Слой_1" data-name="Слой 1" xmlns="http://www.w3.org/2000/svg" viewBox="0 0 200 200">
  <defs>
    <style>
      .cls-1 {
        fill: #54402e;
      }

      .cls-2 {
        fill: #fff;
      }

      .cls-2, .cls-3, .cls-4 {
        stroke: gray;
        stroke-miterlimit: 10;
      }

      .cls-3 {
        fill: #0129ac;
      }

      .cls-4 {
        fill: #c82913;
      }
    </style>
  </defs>
  <g>
    <path class="cls-1" d="m80.89,199.21c-1.05,0-2-.67-2.35-1.66L10.16,6.41c-.46-1.3.21-2.73,1.51-3.2l1.38-.49c.27-.1.56-.15.84-.15,1.05,0,2,.67,2.35,1.66l68.38,191.14c.22.63.19,1.31-.09,1.91s-.79,1.06-1.42,1.28l-1.38.49c-.27.1-.56.15-.84.15Z"/>
    <path d="m13.89,3.07c.84,0,1.6.53,1.88,1.33l68.38,191.14c.37,1.04-.17,2.19-1.21,2.56l-1.38.49c-.22.08-.44.12-.67.12-.84,0-1.6-.53-1.88-1.33L10.63,6.24c-.37-1.04.17-2.19,1.21-2.56l1.38-.49c.22-.08.45-.12.67-.12m0-1c-.34,0-.68.06-1.01.18l-1.38.49c-1.56.56-2.37,2.28-1.81,3.84l68.38,191.14c.44,1.23,1.59,1.99,2.82,1.99.34,0,.68-.06,1.01-.18l1.38-.49c1.56-.56,2.37-2.28,1.81-3.84L16.72,4.06c-.44-1.23-1.59-1.99-2.82-1.99h0Z"/>
  </g>
  <g>
    <path class="cls-4" d="m181.63,57.54l9.37,25.27c-23.65,20.4-55.98-6.58-83.16,3.5-26.55,9.84-32.04-4.62-63.59-5.54-5.03-13.57-10.06-27.14-9.37-25.27l146.75,2.04Z"/>
    <path class="cls-3" d="m172.22,32.14l10.5,28.33c-26.97,19.34-56.76-9.57-83.8.46-26.7,9.9-31.29-3.9-62.95-2.49-4.83-13.02-9.65-26.03-9.82-26.49,19.82-4.48,45.23-8.26,74.97-8.02,27.7.23,51.83,3.9,71.1,8.22Z"/>
    <path class="cls-2" d="m162.54,6.04l9.74,26.26c-24.39,15.78-57.4-12.2-84.2-2-26.76,10.18-33.66-1.04-62.03,1.36-3.42-9.22-6.84-18.44-10.26-27.67,29.48-2.02,35.73,9.19,62.71-.82,26.75-9.92,59.71,18.8,84.04,2.86Z"/>
  </g>
</svg>