<?xml version="1.0" encoding="UTF-8"?>
<svg id="_Слой_1" data-name="Слой 1" xmlns="http://www.w3.org/2000/svg" xmlns:xlink="http://www.w3.org/1999/xlink" viewBox="0 0 500 500">
  <defs>
    <style>
      .cls-1 {
        fill: #46a3af;
      }

      .cls-2 {
        fill: #2b7f7b;
      }

      .cls-3 {
        fill: #f4caae;
      }

      .cls-4 {
        fill: #60cacc;
      }

      .cls-5 {
        fill: #46af89;
      }

      .cls-6 {
        fill: blue;
      }

      .cls-7 {
        fill: #3939e2;
      }

      .cls-8 {
        fill: #4c4cf2;
      }

      .cls-9 {
        fill: #172dad;
      }

      .cls-10 {
        fill: #7bdbc4;
      }

      .cls-11 {
        fill: #0071bc;
      }

      .cls-12 {
        fill: url(#_Безымянный_градиент_15);
        opacity: .46;
      }

      .cls-13 {
        fill: url(#_Безымянный_градиент_11-2);
      }

      .cls-14 {
        fill: url(#_Безымянный_градиент_11);
      }
    </style>
    <radialGradient id="_Безымянный_градиент_11" data-name="Безымянный градиент 11" cx="1286.04" cy="1030.77" fx="1286.04" fy="1030.77" r="298.62" gradientTransform="translate(-546.97 -427.05) scale(.54 .55)" gradientUnits="userSpaceOnUse">
      <stop offset="0" stop-color="#fff"/>
      <stop offset=".13" stop-color="#fff" stop-opacity=".83"/>
      <stop offset=".42" stop-color="#fff" stop-opacity=".48"/>
      <stop offset=".66" stop-color="#fff" stop-opacity=".22"/>
      <stop offset=".83" stop-color="#fff" stop-opacity=".06"/>
      <stop offset=".92" stop-color="#fff" stop-opacity="0"/>
    </radialGradient>
    <radialGradient id="_Безымянный_градиент_11-2" data-name="Безымянный градиент 11" cx="1656.84" cy="1332.96" fx="1656.84" fy="1332.96" r="324.89" gradientTransform="translate(-546.97 -388.74) scale(.54 .55)" xlink:href="#_Безымянный_градиент_11"/>
    <radialGradient id="_Безымянный_градиент_15" data-name="Безымянный градиент 15" cx="305.6" cy="382.14" fx="305.6" fy="382.14" r="87.59" gradientTransform="translate(851.54 56.53) rotate(97.65) scale(1.24 1.23) skewX(-1.94)" gradientUnits="userSpaceOnUse">
      <stop offset="0" stop-color="#f7b8ad"/>
      <stop offset=".13" stop-color="#f7b9ae" stop-opacity=".98"/>
      <stop offset=".26" stop-color="#f7bcb2" stop-opacity=".94"/>
      <stop offset=".38" stop-color="#f8c2b8" stop-opacity=".86"/>
      <stop offset=".51" stop-color="#f9cac2" stop-opacity=".74"/>
      <stop offset=".64" stop-color="#fad4cd" stop-opacity=".6"/>
      <stop offset=".76" stop-color="#fbe1dc" stop-opacity=".42"/>
      <stop offset=".89" stop-color="#fdefed" stop-opacity=".21"/>
      <stop offset="1" stop-color="#fff" stop-opacity="0"/>
    </radialGradient>
  </defs>
  <g>
    <ellipse class="cls-14" cx="141.24" cy="144.95" rx="140.94" ry="140.92"/>
    <g>
      <g>
        <ellipse class="cls-4" cx="141.19" cy="144.94" rx="109.14" ry="105.27"/>
        <path class="cls-11" d="m141.19,40.18c59.91,0,108.64,47,108.64,104.77s-48.74,104.77-108.64,104.77-108.64-47-108.64-104.77,48.74-104.77,108.64-104.77m0-1c-60.55,0-109.64,47.35-109.64,105.77s49.09,105.77,109.64,105.77,109.64-47.35,109.64-105.77-49.09-105.77-109.64-105.77h0Z"/>
      </g>
      <path class="cls-5" d="m128,153.82c.41-2.94-1.18-7.8-17.41-17.28-18.24-10.65-50.34-24.43-54.73-17.76-3.92,5.96,16.91,24.25,25.87,31.2,9.86,7.64,21.08,16.09,33.34,13.44,5.21-1.13,12.23-4.61,12.94-9.6Z"/>
      <path class="cls-5" d="m139.69,115.19c5.57-14.36-2.27-20.99,2.99-30.24,4.89-8.61,16.99-12.23,25.87-12,20.71.53,36.99,22.31,33.34,29.76-2.4,4.89-11.63,0-27.86,7.68-12.66,5.98-19.9,12-19.9,12-1.88,1.56-6.17,5.29-12.94,7.68-2.75.97-7.05,2.49-8.46.96-1.91-2.08,3.71-7.45,6.97-15.84Z"/>
      <path class="cls-1" d="m219.3,202.06c.81-8.79-8.44-18.17-17.91-21.12-3.02-.94-10.27-2.54-33.34,7.68-21.83,9.67-19.73,13.05-28.86,15.36-28.58,7.24-51.63-25.28-68.66-15.36-5.23,3.05-8.12,9.07-7.96,13.92.43,13.37,24.07,21.91,33.83,25.44,23.84,8.61,44.89,6.74,54.73,5.76,5.88-.59,20.11-2.38,36.82-9.12,15.95-6.44,30.39-12.26,31.35-22.56Z"/>
      <path class="cls-1" d="m243.68,112.31c-56.55,24.18-60.25,35.61-59.21,40.32,2.01,9.02,25.98,13.58,38.81,14.4,10.58.68,19.51-.81,25.87-2.4,1.26-6.15,2.29-14.57,1.49-24.48-.96-11.9-4.2-21.44-6.97-27.84Z"/>
      <path class="cls-5" d="m142.68,152.14c4.07-3.96,13.14-3.55,15.42.48,2.44,4.31-3.89,10.9-4.48,11.52-1.67,1.74-4.77,4.97-7.96,4.32-4.14-.85-6.64-7.86-4.98-12.96.24-.74.71-2.11,1.99-3.36Z"/>
      <path class="cls-1" d="m146.16,51.83c-1.81-5.79-27.42-6.57-48.26,1.44-21.34,8.2-42.88,27.62-38.81,38.88,3.49,9.65,24.76,10.48,26.87,10.56,4.91.19,18.34.71,22.39-6.24,3.9-6.7-4.44-14.27,0-20.64,1.67-2.4,3.09-1.65,13.93-5.76,13.21-5.01,17.84-8.67,20.9-12.48,2.27-2.83,3.44-4.29,2.99-5.76Z"/>
      <path class="cls-1" d="m231.74,97.43c-2.21,3.21-8.66,3.95-12.44,1.92-3.78-2.03-3.42-6.04-7.96-17.76-2.93-7.55-4.44-11.35-6.97-12.96-5.08-3.23-9.78.33-22.39,1.44-8.28.73-22.06,1.94-26.87-4.8-3.23-4.54-2.36-12.63,1.99-16.8,8.99-8.6,32.03.31,44.78,8.16,19.31,11.88,34.86,33.53,29.85,40.8Z"/>
      <path class="cls-2" d="m97.9,86.39c-.96,3.75-9.83,5.57-16.42,3.36-3.72-1.24-8.85-4.49-8.46-7.68.45-3.69,8.16-6.61,14.43-5.28,5.75,1.22,11.31,6.22,10.45,9.6Z"/>
      <path class="cls-2" d="m151.64,98.87c-1.84-2.17,1.81-9.76,7.96-12.96,7.83-4.07,16.92.44,19.9,1.92,4.92,2.44,10.86,7.08,9.95,9.12-1.1,2.48-10.68-2.46-25.37,0-7.43,1.25-11.07,3.53-12.44,1.92Z"/>
      <path class="cls-2" d="m121.78,175.66c-7.22-3.01-17.86-.89-19.4,4.32-1.4,4.72,4.63,12.04,11.94,12.96,7.2.9,15.11-4.49,14.93-9.6-.16-4.55-6.68-7.35-7.46-7.68Z"/>
      <path class="cls-2" d="m203.38,153.1c0-3.23,9-3.79,13.93-11.52,1.69-2.64,1.68-4.22,2.49-6.24,1.95-4.88,8.02-10.79,26.87-14.4,1.7,4.43,3.63,11.03,3.98,19.2.32,7.56-.82,13.84-1.99,18.24-18.67,4.54-30.98,2.02-37.32,0-2.37-.76-7.97-2.74-7.96-5.28Z"/>
      <path class="cls-2" d="m47.15,128.15c4.89.84,4.9,7.31,10.95,15.36,8.37,11.14,16.2,9.19,19.4,17.76,2.43,6.49.96,15.68-4.98,19.68-8.27,5.58-20.81-1.91-22.39-2.88-15.69-9.64-21.59-33.71-12.94-44.64.21-.27,4.98-6.14,9.95-5.28Z"/>
      <path class="cls-10" d="m189.45,198.7c-9.48.28-14.62,5.98-21.89,10.56-21.74,13.7-45.45,6.63-45.77,10.08-.3,3.21,20.07,11.1,42.29,8.16,21.49-2.84,42.72-15.55,41.3-22.56-.83-4.1-9.45-6.43-15.92-6.24Z"/>
      <path class="cls-10" d="m162.08,136.31c2.9-7.81,11.05-11.68,15.92-13.92,9.47-4.35,12.62-2.39,28.86-6.24,14.09-3.34,19.87-6.75,20.4-5.76.83,1.55-11.68,13.24-27.86,14.88-7.2.73-9.19-1.14-13.93.96-7.85,3.47-14.25,13.84-11.94,24,1.46,6.42,6.22,12,11.94,14.4,2.96,1.24,4.48.92,9.45,1.44,5.36.56,15.11,1.57,23.38,6.24,2.18,1.23,13.87,7.82,13.93,17.76,0,1.46.04,5.97-2.49,7.2-5.68,2.76-13.56-16.32-31.35-21.6-19.66-5.84-41.84,8.03-42.79,8.64-11.28,7.24-17.29,17.04-23.38,14.88-2.59-.92-4.57-3.78-4.48-6.24.1-2.88,3.03-5.09,11.44-9.6,15.62-8.36,16.85-6.8,19.4-10.08,3.14-4.03,3.09-11.01,2.99-24.96-.06-7.7-.65-8.91.5-12Z"/>
      <path class="cls-10" d="m134.72,143.51c2.04-.49,3.57-2.93,3.48-4.8-.19-4.04-7.93-4.39-9.45-9.12-1.34-4.15,3.75-6.56,5.97-13.44,2.68-8.29-2.69-11.02-2.49-21.12.29-14.59,11.79-24.53,9.45-26.4-.58-.46-1.72-.2-6.47,2.4-9.63,5.27-14.45,7.9-16.92,11.04-6.66,8.45-.06,15.01-6.47,22.56-4.03,4.74-11.17,7.49-17.41,7.2-9.27-.44-12.76-7.41-21.89-6.24-3.52.45-7.96,2.12-7.96,3.84,0,2.81,11.91,3.97,36.32,11.04,5.88,1.7,8.86,2.57,10.45,3.36,14.44,7.16,17.97,20.98,23.38,19.68Z"/>
    </g>
  </g>
  <g>
    <ellipse class="cls-13" cx="339.66" cy="350.95" rx="153.34" ry="153.32"/>
    <g>
      <g>
        <path class="cls-8" d="m339.56,473.48c-27.01,0-52.86-8.14-74.75-23.54-27.63-19.43-45.65-48.1-50.76-80.71-5.02-32.1,3.13-64.23,22.96-90.47,23.83-31.53,62.24-50.35,102.75-50.35,27.01,0,52.86,8.14,74.75,23.54,27.63,19.43,45.65,48.1,50.76,80.71,5.02,32.1-3.13,64.23-22.96,90.47-23.83,31.53-62.24,50.35-102.75,50.35Z"/>
        <path class="cls-6" d="m339.77,227.92v1c26.91,0,52.65,8.11,74.46,23.45,27.51,19.35,45.47,47.9,50.55,80.38,5,31.97-3.12,63.96-22.87,90.09-11.94,15.8-27.78,28.72-45.81,37.36-17.45,8.37-37,12.79-56.54,12.79-26.91,0-52.65-8.11-74.46-23.45-27.51-19.35-45.47-47.9-50.55-80.38-5-31.97,3.12-63.96,22.87-90.09,11.94-15.8,27.78-28.72,45.81-37.36,17.45-8.37,37-12.79,56.54-12.79v-1m0,0c-39.36,0-78.18,17.52-103.15,50.55-41.5,54.9-29.01,131.85,27.91,171.89,22.67,15.95,48.97,23.63,75.04,23.63,39.36,0,78.18-17.52,103.15-50.55,41.5-54.9,29.01-131.85-27.91-171.89-22.67-15.95-48.97-23.63-75.04-23.63h0Z"/>
      </g>
      <ellipse class="cls-12" cx="337" cy="355.05" rx="102.05" ry="114.6" transform="translate(-133.49 490.21) rotate(-62.52)"/>
      <path class="cls-7" d="m448.52,304.64c-2.53-4.79-8.29-15.7-20.26-25.31-25.49-20.45-45.55-8.05-69.74-29.02-6.19-5.37-13.41-13.58-24.15-13.53-5.11.02-11.86,1.91-12.77,5.53-1.59,6.3,15.19,15.29,26.22,21.21,23.93,12.83,32.57,12.16,52.18,22.88,12.5,6.84,33,18.05,31.15,26.06-2.39,10.42-43.51,19.74-75.4,5-34.08-15.76-35.42-48.74-61.25-50.68-18.47-1.39-37.84,13.96-36.49,22.69,1.27,8.21,19.95,4.6,41.33,17.33,33.26,19.79,21.83,48.6,54.16,65.74,13.64,7.23,25.73,7.43,44.99,21.97,9.58,7.24,16.1,12.16,15.17,16.89-2.67,13.62-67.37,27.34-104.29.57-31.37-22.75-28.24-64.26-39.32-63.58-10.11.62-23.5,35.82-10.12,62.66,9.24,18.53,27.8,26.16,40.25,31.08,8.42,3.32,69.89,27.59,118.85-10.36,42.68-33.08,48.08-91.89,29.48-127.12Z"/>
      <path class="cls-3" d="m236.33,291.15c-5.82,1.97-7.55,11.06-9.43,21-1.69,8.93-3.06,26.17,2.94,28.32,5.22,1.87,8.69-10.29,19.63-11.76,11.57-1.55,24.52,9.79,39.8,23.16,9.75,8.53,13.74,11.41,17.39,10.16,5.89-2.02,9.16-15.16,4.41-23.84-5.31-9.72-16.63-6.44-33.89-14.86-25.82-12.59-31.51-35.35-40.85-32.19Z"/>
      <path class="cls-3" d="m373.6,414.65c6.42-5.34,8.52-16.78,3.98-21.38-6.61-6.72-22.55,5.99-35.57-2.22-6.82-4.3-7.55-11-12.54-10.89-4.81.1-9.99,6.46-10.01,12.3-.05,11.01,18.2,18.09,24.01,20.35,9.48,3.68,22.05,8.56,30.12,1.84Z"/>
      <path class="cls-3" d="m438.08,332.19c-1.36-3.6-8.15-4.17-8.97-4.24-6.78-.57-9.59,3.12-17.62,6.26-13.57,5.3-22.32,1.34-24.69,6.13-2,4.05,2.77,9.92,3.39,10.68,7.02,8.63,16.78,5.08,32.7,12.64,10.74,5.1,16.65,11.63,17.86,10.49,1.84-1.74-14.51-14.36-11.37-26.65,1.95-7.64,10.35-10.94,8.7-15.3Z"/>
      <path class="cls-3" d="m240.04,408.45c2.22-1.73,18.54,17.81,33.28,28.94,45.33,34.23,111.36,15.73,111.75,19.88.28,2.96-33.04,14.77-70.51,7.06-36.89-7.59-61.2-30.68-71.04-47.2-1.13-1.9-4.63-7.77-3.48-8.66Z"/>
      <path class="cls-3" d="m296.92,253.62c11.13,1.4,11.32,16.55,24.48,20.67,7.86,2.46,16.62-.17,16.98-2.57.74-4.93-33.98-9.25-34.9-21.1-.48-6.2,8.6-10.37,7.59-11.93-2.34-3.62-51.19,17.99-48.96,24.98.64,2,5.51,2.93,9.06,2.23,4.85-.96,6.06-4.72,11.12-8.07.46-.31,7.81-5.07,14.64-4.21Z"/>
      <path class="cls-9" d="m366.93,335.35c-21.21-12.66-26.73-23.58-30.39-21.38-5.48,3.29-1.62,21.55,6.85,34.53,10.5,16.09,30.67,29.02,38.3,24.18,6.04-3.82,5.06-19.28-2.13-28.45-3.1-3.95-5.88-4.85-12.63-8.88Z"/>
      <path class="cls-9" d="m362.14,290.52c-1.86,2.08.47,6.84,2.33,9.24,7.56,9.75,27.34,6.27,28.16,2.54,1.02-4.67-26.03-16.76-30.49-11.78Z"/>
      <path class="cls-9" d="m375.82,441.09c-5.44,1.21-10.21-3.78-9.69-6.13.76-3.46,13.96-5.26,15.83-1.99,1.16,2.04-1.48,7.08-6.14,8.12Z"/>
      <path class="cls-9" d="m269.73,387.19c-2.74,1.75,1.07,13.68,8.06,21.56,8.71,9.82,23.01,14.11,25.05,11.4,3.6-4.81-27.9-36.28-33.1-32.96Z"/>
      <path class="cls-9" d="m237.85,359.24c-4.28-4.69-12.17-8.18-16.29-5.93-9.6,5.25-2.53,43.83,6.88,44.91,6.23.72,15.83-14.72,14.08-28.1-.29-2.19-.96-6.81-4.67-10.88Z"/>
      <path class="cls-9" d="m390.16,241.14c-3.57-1.32-18.98-7.03-22.72-2.16-2.44,3.18,1.21,9.4,1.65,10.14,9.98,17.02,46.73,18.06,49.13,11.76,1.81-4.76-15.42-15.06-28.06-19.74Z"/>
      <path class="cls-9" d="m239.72,301.82c-4.68,1.33-6.71,8.37-8.7,15.3-.68,2.35-3.6,12.51-.61,14.08,2.67,1.4,6.28-6.04,15.29-7.9,8.55-1.76,13.92,3.17,15.53,1.25,3.02-3.6-12.09-25.4-21.5-22.72Z"/>
    </g>
  </g>
</svg>