<?xml version="1.0" encoding="UTF-8"?>
<svg id="_Слой_1" data-name="Слой 1" xmlns="http://www.w3.org/2000/svg" xmlns:xlink="http://www.w3.org/1999/xlink" viewBox="0 0 500 500">
  <defs>
    <style>
      .cls-1 {
        fill: #95c35a;
      }

      .cls-1, .cls-2, .cls-3, .cls-4, .cls-5, .cls-6, .cls-7, .cls-8, .cls-9, .cls-10, .cls-11, .cls-12, .cls-13, .cls-14, .cls-15, .cls-16, .cls-17, .cls-18, .cls-19 {
        stroke-miterlimit: 10;
      }

      .cls-1, .cls-3, .cls-5, .cls-6, .cls-7, .cls-8, .cls-9, .cls-12, .cls-13, .cls-16, .cls-17, .cls-18 {
        stroke-width: .5px;
      }

      .cls-1, .cls-5, .cls-6, .cls-7, .cls-11, .cls-16, .cls-17, .cls-18 {
        stroke: #1d1d1b;
      }

      .cls-2, .cls-20 {
        fill: #c82913;
      }

      .cls-2, .cls-14 {
        stroke: #4d4d4d;
      }

      .cls-21 {
        fill: #a1ffed;
      }

      .cls-21, .cls-22, .cls-23, .cls-8, .cls-24, .cls-25, .cls-26, .cls-27 {
        opacity: .5;
      }

      .cls-28, .cls-3, .cls-4, .cls-29, .cls-24, .cls-11, .cls-30, .cls-31, .cls-32, .cls-17 {
        fill: #fff;
      }

      .cls-22, .cls-12 {
        fill: #8dc1ff;
      }

      .cls-23 {
        fill: #fff080;
      }

      .cls-3 {
        opacity: .36;
      }

      .cls-3, .cls-12, .cls-13 {
        stroke: #1b1464;
      }

      .cls-4, .cls-8, .cls-9, .cls-19 {
        stroke: #666;
      }

      .cls-6, .cls-13 {
        fill: #e57527;
      }

      .cls-7 {
        fill: #83caca;
      }

      .cls-29 {
        opacity: .56;
      }

      .cls-8, .cls-9 {
        fill: #abedeb;
      }

      .cls-20, .cls-30 {
        opacity: .7;
      }

      .cls-10 {
        fill: #ff9545;
        stroke: #42210b;
      }

      .cls-11 {
        stroke-width: .25px;
      }

      .cls-31 {
        opacity: .61;
      }

      .cls-25 {
        fill: #ff9906;
      }

      .cls-26 {
        fill: #fff1b8;
      }

      .cls-14 {
        fill: #0129ac;
      }

      .cls-32 {
        opacity: .53;
      }

      .cls-15 {
        fill: #c6d3db;
        stroke: #999;
      }

      .cls-16, .cls-33 {
        fill: #fff6bd;
      }

      .cls-34, .cls-27 {
        fill: #b3b3b3;
      }

      .cls-35 {
        fill: #ffe36e;
      }

      .cls-18 {
        fill: url(#_Безымянный_градиент_47);
      }

      .cls-36 {
        fill: #d56e34;
      }

      .cls-19 {
        fill: #f2f2f2;
      }

      .cls-37 {
        fill: #1d1d1b;
      }
    </style>
    <radialGradient id="_Безымянный_градиент_47" data-name="Безымянный градиент 47" cx="195.22" cy="219.72" fx="195.22" fy="219.72" r="1.3" gradientTransform="translate(293.77 -63.7) rotate(45) scale(.83 1)" gradientUnits="userSpaceOnUse">
      <stop offset=".17" stop-color="#ec72a8"/>
      <stop offset=".97" stop-color="#a33044"/>
    </radialGradient>
  </defs>
  <g>
    <g>
      <g>
        <path class="cls-25" d="m187.17,470.87c10.96,1.26,18.84-30.25,22.01-52.82.57-4.03,6.59-48.73-1.33-86.24-7.51-35.59-23.82-46.92-34.26-24.48-8.72,18.74-10.03,53.94-10.22,59.83-.85,26.43,2.36,46.17,3.67,53.99,1.45,8.66,8.11,48.34,20.12,49.72Z"/>
        <path class="cls-23" d="m187.39,356.49c5.07.12,13.28.32,17.75-10.77,3.96-9.8,3.1-23.73.24-32.75-5.52-17.39-20.23-22.09-29.35-11.63-4.32,4.96-9.43,15.65-8.76,28.44.56,10.72,4.9,17.39,5.92,18.96,4.9,7.53,10.58,7.67,14.2,7.76Z"/>
        <path class="cls-23" d="m187.81,366.5c5.91.14,15.49.37,20.72-12.57,4.62-11.44,3.62-27.69.28-38.22-6.44-20.29-23.61-25.78-34.26-13.58-5.05,5.78-11.01,18.26-10.22,33.19.66,12.51,5.72,20.3,6.91,22.13,5.71,8.79,12.35,8.95,16.58,9.05Z"/>
        <path class="cls-23" d="m187.04,395.49c10.96.7,18.84-16.78,22.01-29.3.57-2.23,6.59-27.03-1.33-47.84-7.51-19.74-23.82-26.03-34.26-13.58-8.72,10.4-10.03,29.92-10.22,33.19-.85,14.66,2.36,25.61,3.67,29.95,1.45,4.8,8.11,26.82,20.12,27.58Z"/>
        <path class="cls-23" d="m186.93,431.23c10.96.97,18.84-23.45,22.01-40.95.57-3.12,6.59-37.78-1.33-66.86-7.51-27.59-23.82-36.37-34.26-18.98-8.72,14.53-10.03,41.82-10.22,46.39-.85,20.49,2.36,35.79,3.67,41.86,1.45,6.71,8.11,37.47,20.12,38.54Z"/>
        <path class="cls-29" d="m174.16,312.58c-3.32,8.43-1.21,19.02-1.03,19.87,2.26,10.94,8.85,16,14.14,16.07,5.7.08,11.85-5.6,14.28-15.69.4-1.67,2.26-9.26.41-16.5-2.81-11.01-11.22-11.75-14.01-12-3.31-.29-10.19-.9-13.8,8.25Z"/>
      </g>
      <g>
        <path class="cls-25" d="m334.29,471.21c10.96,1.26,18.84-30.25,22.01-52.82.57-4.03,6.59-48.73-1.33-86.24-7.51-35.59-23.82-46.92-34.26-24.48-8.72,18.74-10.03,53.94-10.22,59.83-.85,26.43,2.36,46.17,3.67,53.99,1.45,8.66,8.11,48.34,20.12,49.72Z"/>
        <path class="cls-23" d="m334.51,356.83c5.07.12,13.28.32,17.75-10.77,3.96-9.8,3.1-23.73.24-32.75-5.52-17.39-20.23-22.09-29.35-11.63-4.32,4.96-9.43,15.65-8.76,28.44.56,10.72,4.9,17.39,5.92,18.96,4.9,7.53,10.58,7.67,14.2,7.76Z"/>
        <path class="cls-23" d="m334.93,366.84c5.91.14,15.49.37,20.72-12.57,4.62-11.44,3.62-27.69.28-38.22-6.44-20.29-23.61-25.78-34.26-13.58-5.05,5.78-11.01,18.26-10.22,33.19.66,12.51,5.72,20.3,6.91,22.13,5.71,8.79,12.35,8.95,16.58,9.05Z"/>
        <path class="cls-23" d="m334.16,395.83c10.96.7,18.84-16.78,22.01-29.3.57-2.23,6.59-27.03-1.33-47.84-7.51-19.74-23.82-26.03-34.26-13.58-8.72,10.4-10.03,29.92-10.22,33.19-.85,14.66,2.36,25.61,3.67,29.95,1.45,4.8,8.11,26.82,20.12,27.58Z"/>
        <path class="cls-23" d="m334.06,431.57c10.96.97,18.84-23.45,22.01-40.95.57-3.12,6.59-37.78-1.33-66.86-7.51-27.59-23.82-36.37-34.26-18.98-8.72,14.53-10.03,41.82-10.22,46.39-.85,20.49,2.36,35.79,3.67,41.86,1.45,6.71,8.11,37.47,20.12,38.54Z"/>
        <path class="cls-29" d="m321.28,312.92c-3.32,8.43-1.21,19.02-1.03,19.87,2.26,10.94,8.85,16,14.14,16.07,5.7.08,11.85-5.6,14.28-15.69.4-1.67,2.26-9.26.41-16.5-2.81-11.01-11.22-11.75-14.01-12-3.31-.29-10.19-.9-13.8,8.25Z"/>
      </g>
      <g>
        <path class="cls-25" d="m259.33,495.96c21.29,1.26,36.6-30.25,42.78-52.82,1.1-4.03,12.81-48.73-2.58-86.24-14.6-35.59-46.29-46.92-66.56-24.48-16.94,18.74-19.5,53.94-19.86,59.83-1.64,26.43,4.59,46.17,7.14,53.99,2.82,8.66,15.76,48.34,39.1,49.72Z"/>
        <path class="cls-23" d="m259.76,381.59c9.84.12,25.8.32,34.5-10.77,7.69-9.8,6.02-23.73.46-32.75-10.72-17.39-39.3-22.09-57.04-11.63-8.4,4.96-18.33,15.65-17.02,28.44,1.1,10.72,9.52,17.39,11.5,18.96,9.51,7.53,20.56,7.67,27.6,7.76Z"/>
        <path class="cls-23" d="m260.56,391.59c11.49.14,30.11.37,40.26-12.57,8.98-11.44,7.03-27.69.54-38.22-12.51-20.29-45.87-25.78-66.56-13.58-9.81,5.78-21.39,18.26-19.86,33.19,1.28,12.51,11.11,20.3,13.42,22.13,11.1,8.79,24,8.95,32.21,9.05Z"/>
        <path class="cls-23" d="m259.07,420.59c21.29.7,36.6-16.78,42.78-29.3,1.1-2.23,12.81-27.03-2.58-47.84-14.6-19.74-46.29-26.03-66.56-13.58-16.94,10.4-19.5,29.92-19.86,33.19-1.64,14.66,4.59,25.61,7.14,29.95,2.82,4.8,15.76,26.82,39.1,27.58Z"/>
        <path class="cls-23" d="m258.87,456.33c21.29.97,36.6-23.45,42.78-40.95,1.1-3.12,12.81-37.78-2.58-66.86-14.6-27.59-46.29-36.37-66.56-18.98-16.94,14.53-19.5,41.82-19.86,46.39-1.64,20.49,4.59,35.79,7.14,41.86,2.82,6.71,15.76,37.47,39.1,38.54Z"/>
        <path class="cls-29" d="m234.05,337.68c-6.46,8.43-2.34,19.02-2,19.87,4.39,10.94,17.2,16,27.48,16.07,11.07.08,23.03-5.6,27.76-15.69.78-1.67,4.39-9.26.8-16.5-5.46-11.01-21.81-11.75-27.22-12-6.44-.29-19.8-.9-26.82,8.25Z"/>
      </g>
    </g>
    <g>
      <path class="cls-15" d="m210.95,309.48c-3.89,10.16,6.79,24.35,14.37,30.93,11.89,10.33,25.92,10.47,34.71,10.56,8.05.08,19.79.21,30.93-7.55,11.29-7.85,22.49-24.12,18.29-34.71-9-22.65-89.6-21.93-98.3.75Z"/>
      <g>
        <path class="cls-15" d="m246.13,350.29c-.82-3.53-1.51-7.9-1.58-12.92-.11-8.25,1.5-15.05,3.03-19.74"/>
        <path class="cls-15" d="m272.81,349.75c.88-2.97,1.67-6.74,1.87-11.13.38-8.32-1.56-15.04-3.15-19.19"/>
        <circle class="cls-15" cx="241.09" cy="322.25" r="1.02"/>
        <circle class="cls-15" cx="239.57" cy="328.79" r="1.02"/>
        <circle class="cls-15" cx="239.58" cy="335.45" r="1.02"/>
        <circle class="cls-15" cx="241.11" cy="342.22" r="1.02"/>
        <circle class="cls-15" cx="278.66" cy="326.63" r="1.02"/>
        <circle class="cls-15" cx="279.17" cy="333.33" r="1.02"/>
        <circle class="cls-15" cx="278.16" cy="339.91" r="1.02"/>
        <circle class="cls-15" cx="275.62" cy="346.38" r="1.02"/>
      </g>
      <path class="cls-4" d="m291.51,40.72c-10.78,1.85-22.44,3.04-34.58,3.42-14.04.44-27.42-.24-39.61-1.83,1.37-3.08,3.61-7.35,7.27-11.93,4.95-6.19,15.53-19.39,29.95-19.39,12.78,0,22.27,10.4,28.15,16.83,4.48,4.91,7.2,9.6,8.83,12.89Z"/>
      <path class="cls-14" d="m306.36,69.56c-14.68,4.08-31.52,6.68-49.46,7.27-19.55.64-37.86-1.17-53.53-4.91,3.83-10.2,7.29-17.74,9.22-21.97,1.26-2.77,2.54-5.45,3.86-8.08,12.34,1.9,25.88,2.75,40.08,2.28,12.27-.4,24.06-1.75,34.97-3.88.88,1.58,1.73,3.19,2.61,4.82,2.98,5.61,7.44,13.92,12.26,24.47Z"/>
      <path class="cls-2" d="m320.63,106.45c-17.48,6.66-39.39,11-63.25,11.78-24.85.82-47.7-2.35-65.67-8.32,3.54-14.87,7.8-27.77,11.67-37.99,15.67,3.74,33.98,5.55,53.53,4.91,17.94-.59,34.78-3.19,49.46-7.27,4.73,10.31,9.83,22.76,14.27,36.89Z"/>
      <path class="cls-19" d="m324.26,242.46c-3.15,24.68-8.11,46.87-13.69,66.27-9.15,4.16-24.32,9.66-43.76,10.56-23.27,1.08-41.46-4.96-51.31-9.05-6.68-17.35-12.96-37.16-17.79-59.25-12.24-55.89-10.6-105.03-6.01-141.07,17.97,5.97,40.82,9.14,65.67,8.32,23.86-.78,45.77-5.12,63.25-11.78,6.32,35.1,10.54,81.92,3.63,136.01Z"/>
      <ellipse class="cls-9" cx="256.16" cy="152.61" rx="16.98" ry="16.54" transform="translate(5.7 314.39) rotate(-63.64)"/>
      <path class="cls-34" d="m254.8,165.99c-.02-.21,3.03.03,6.03-1.98,4.82-3.23,6.63-10.35,7.38-16.25.43.72,2.55,4.4,1.61,8.84-.62,2.91-2.24,4.67-2.96,5.43-4.71,4.96-12.02,4.28-12.05,3.95Z"/>
      <path class="cls-28" d="m256.77,140.14c-.34-.07-6.61-1.26-10.54,3.9-3.49,4.6-3.61,12.23.2,17.78-.28-1.49-1.11-6.81,1.37-12.49,2.82-6.48,7.89-8.74,8.97-9.19Z"/>
      <path class="cls-31" d="m243.71,15.44c-2.34-1.21-23.71,25.92-31.49,62.07-4.23,19.69-3.78,39.01-1.7,39.29,2.03.27,4.82-17.65,14.47-48.43,11.56-36.86,20.4-52.06,18.71-52.93Z"/>
      <path class="cls-10" d="m196.27,195.93c-6.85-3.22-14.75.57-16.6,1.51-16.78,8.5-17.39,36.77-18.11,65.64-.35,14.08.15,34.66,4.53,59.61,2.28,1.26,13.14,6.96,26.78,3.4,14.31-3.74,21.04-14.88,22.26-16.98-1.56-10.54-3.64-26.18-5.28-45.27-3.54-41.28-1.88-62.4-13.58-67.91Z"/>
      <path class="cls-35" d="m237.01,347.59c-3.36-1.17-5.86-2.63-7.55-3.77-2.6-1.77-4.27-3.47-6.79-6.04-2.58-2.63-4.32-4.79-5.28-6.04-3.28-4.24-4.92-6.36-4.53-7.55,1.08-3.29,13.18-5.42,20.28.38,5.78,4.72,7.51,14.08,3.86,23.01Z"/>
      <path class="cls-35" d="m282.28,333.25c-2.07,6.73,1.64,12.62,2.26,13.58,3.3-1.22,5.83-2.66,7.55-3.77,1.22-.79,6.61-4.39,11.32-11.32,1.81-2.67,3.01-5.08,3.77-6.79-1.12-.93-4.48-3.48-9.3-3.51-5.28-.03-8.82,2.98-10.32,4.26-1.36,1.17-4.05,3.54-5.28,7.55Z"/>
      <path class="cls-35" d="m242.29,349.1c.7,1.9,6.41,2.05,17.81,2.27,10.75.21,16.14.28,16.9-1.51,1.49-3.49-6.92-13.49-16.9-13.78-10.1-.29-19.14,9.43-17.81,13.02Z"/>
      <path class="cls-20" d="m213.62,300.81c-2.11,2.73-10.62,13.1-25.72,15.87-11,2.02-19.82-1.04-23.5-2.56-.55-4.26-1-8.34-1.35-12.27,4.37,1.89,9.8,3.35,15.97,3.15,3.19-.1,5.55-.62,6.83-.9,11.75-2.6,23.07-11.38,27.03-14.61-.06,1.4-.07,2.92,0,4.53.11,2.5.39,4.78.75,6.79Z"/>
      <path class="cls-32" d="m184.58,201.59c-.66-.62-6.75,3.18-11.32,9.05-3.58,4.6-8.12,12.92-7.55,41.5.18,8.7.85,20.6,3.02,34.71-.38-10.26-.77-30.43,1.51-49.8.91-7.71,1.97-13.01,4.53-18.86,4.33-9.92,10.55-15.91,9.81-16.6Z"/>
      <path class="cls-10" d="m325.52,196.02c6.85-3.22,14.75.57,16.6,1.51,16.78,8.5,17.39,36.77,18.11,65.64.35,14.08-.15,34.66-4.53,59.61-2.28,1.26-13.14,6.96-26.78,3.4-14.31-3.74-21.04-14.88-22.26-16.98,1.56-10.54,3.64-26.18,5.28-45.27,3.54-41.28,1.88-62.4,13.58-67.91Z"/>
      <path class="cls-20" d="m308.17,300.89c2.11,2.73,10.62,13.1,25.72,15.87,11,2.02,19.82-1.04,23.5-2.56.55-4.26,1-8.34,1.35-12.27-4.37,1.89-9.8,3.35-15.97,3.15-3.19-.1-5.55-.62-6.83-.9-11.75-2.6-23.07-11.38-27.03-14.61.06,1.4.07,2.92,0,4.53-.11,2.5-.39,4.78-.75,6.79Z"/>
      <path class="cls-32" d="m337.21,201.68c.66-.62,6.75,3.18,11.32,9.05,3.58,4.6,8.12,12.92,7.55,41.5-.18,8.7-.85,20.6-3.02,34.71.38-10.26.77-30.43-1.51-49.8-.91-7.71-1.97-13.01-4.53-18.86-4.33-9.92-10.55-15.91-9.81-16.6Z"/>
    </g>
  </g>
  <g>
    <g>
      <path class="cls-6" d="m256.27,213.57c.23-1.24,1.43.09,1.37-1.02.6.14,1.41.26,1.82-.19-.33-.36,2.33-1.37,1.58-1.98.72.33,1.89-.24,1.15-1.03.7-.14,1.73-.7.6-1.37.63-.05,1.22-.85.4-1.21.57.13,1.71-.65.53-.74,1.3.25,1.19-1.97.26-2.13.98-.17,1.18-1-.02-1.37,1.35-.27.09-2.8-1.13-2.33.7-.73.7-1.31-.52-1.05.27-.2.03-1.77.19-2.02,0,0-1.7,2.01-1.47.84.47-1.68-.07-1.8-1.32-1.41.04-1.85-.71-.1-1.66-2-.35.86-2.71-1.59-3.1.32-.19-.95-2.35-1.02-2.13.26-.09-1.18-.87-.03-.74.53-.35-.83-1.15-.24-1.21.4-.67-1.13-1.23-.1-1.37.6-.79-.73-1.36.44-1.03,1.15-.61-.76-1.63,1.91-1.98,1.58-.46.41-.34,1.22-.19,1.82-1.13-.07.24,1.11-1.02,1.37"/>
      <path class="cls-36" d="m250.89,206.52c.68-1.27,5.85-4.96,6.21-8.13,0,0-.16,2.4-.16,2.4l2.31-3-1.64,3.06c3.35-2.1,3.75-2.57.58.58,0,0,2.51-.13,2.51-.13l-2.3,1.13,2.07-.18c-3.71-.69-8.25,9.31-9.58,4.27Z"/>
      <g>
        <path class="cls-33" d="m249.31,210.51c14.5,8.26,5.66-10.32-2.05-8.56-1.15,1.69-.78,6.07,2.05,8.56Z"/>
        <path class="cls-37" d="m249.31,210.51c9.53,5.49,9.51-1.25,3.31-6.69-1.48-1.32-3.69-1.99-5.24-1.78-1.5,2.74-.27,6.44,1.93,8.47h0Zm0,0c-1.77-1.57-2.75-3.96-2.75-6.32.01-.81.15-1.65.6-2.37,2.05-.55,4.17.36,5.76,1.62,1.99,1.4,6.16,6.98,3.41,9-2.39.87-4.95-.89-7.02-1.93h0Z"/>
      </g>
      <g>
        <path class="cls-1" d="m253.76,203.01c-1.15,1.08-2.62-.53-1.44-1.58,1.15-1.08,2.62.53,1.44,1.58Z"/>
        <path class="cls-5" d="m253.44,202.9c-.94.88-2-.28-1.04-1.14.94-.88,2,.28,1.04,1.14Z"/>
      </g>
      <g>
        <path class="cls-11" d="m250.58,208.51c-1.34-.58.66-1.57.96-2.12,0,0,.58.58.58.58l-1.54,1.54Z"/>
        <path class="cls-11" d="m251.16,209.09c-1.34-.58.66-1.57.96-2.12,0,0,.58.58.58.58l-1.54,1.54Z"/>
      </g>
      <g>
        <path class="cls-16" d="m252.82,206.29c-1.27,2.97-5.26-.39-2.29-1.49"/>
        <path class="cls-16" d="m254.32,208.58c-1.04,2.94-4.48-.96-1.55-2.24"/>
      </g>
      <g>
        <g>
          <path class="cls-7" d="m255.86,205.11c-1.08,1.15.53,2.62,1.58,1.44,1.08-1.15-.53-2.62-1.58-1.44Z"/>
          <path class="cls-5" d="m255.97,205.43c-.88.94.28,2,1.14,1.04.88-.94-.28-2-1.14-1.04Z"/>
        </g>
        <circle class="cls-28" cx="257.06" cy="206.03" r=".21"/>
      </g>
      <path class="cls-18" d="m253.17,205.87c2.49.85.48,1.43-.82.86-.51-1.19.06-3.33.82-.85"/>
      <circle class="cls-17" cx="253.48" cy="202.44" r=".26"/>
    </g>
    <g>
      <g>
        <path class="cls-3" d="m260.65,198.09c-.28-.28-4.07-3.86-8.53-2.3-3.74,1.32-5.73,5.48-5.14,8.74.34,1.85,1.45,3.09,2.46,4.21,1.18,1.32,2.94,3.27,5.64,3.57,2.98.33,6.19-1.45,7.64-4.28,1.84-3.6.22-7.69-2.08-9.95Z"/>
        <path class="cls-22" d="m257.77,198.11c.08-.2-1.27-1.36-2.9-1.26-1.95.13-3.21,2.01-3.12,2.13.07.09.86-.81,2.35-1.15,2-.46,3.58.48,3.66.27Z"/>
        <path class="cls-26" d="m251.43,208.06c.41.51,1.3,1.45,2.68,1.8,2.84.73,5.53-1.59,5.47-1.75-.05-.12-1.69,1.01-4.15.98-1.65-.02-3.02-.54-3.99-1.04Z"/>
        <path class="cls-24" d="m251.74,197.49l1.62-1.06-1.06,1.62,1.1,1.1-1.45-.79-1.5,1.09c.34-.49.68-.98,1.01-1.48-.49-.35-.98-.69-1.48-1.04.59.19,1.17.37,1.76.56Z"/>
      </g>
      <path class="cls-21" d="m260.59,206.44c-.13.09-.15.2-.38.58-.19.31-.26.36-.27.47-.01.15.11.26.25.23.22-.05.41-.44.5-.61.06-.11.28-.56.18-.7-.05-.07-.18-.05-.28.02Z"/>
    </g>
    <path class="cls-12" d="m265.11,209.39c2.65-4.74.25-10.34-2.78-13.31-.38-.37-5.44-5.17-11.41-3.07-5.01,1.76-7.67,7.33-6.87,11.7.49,2.71,2.23,4.52,3.29,5.63,1.06,1.11,3.5,3.66,7.31,4.1,3.69.43,8.29-1.16,10.46-5.05Zm-8.63,2.71c-2.94.24-5.06-1.86-6.36-3.14-1.27-1.25-3.29-3.24-3.22-6.14.07-3.08,2.46-5.8,5.34-6.8,3.04-1.06,6.3-.1,8.41,1.97,2.42,2.38,3.04,5.93,1.97,8.85-.86,2.34-3.07,5.02-6.14,5.27Z"/>
    <path class="cls-30" d="m259.18,216.05c.03.07.37.05.59-.15.19-.18.21-.44.22-.66.01-.25-.03-.51-.07-.51-.06,0,0,.47-.29.88-.21.29-.47.38-.44.44Z"/>
    <path class="cls-30" d="m251.43,211.81c.92.64,2.78,1.73,5.19,1.68,3.73-.07,6.37-2.79,6.29-2.93-.07-.13-2.49,1.95-6.14,2.19-2.16.15-4.01-.4-5.34-.95Z"/>
    <path class="cls-30" d="m246.31,197.91c.72-1.05,2.05-2.66,4.17-3.44,5.03-1.85,10.58,2.37,10.53,2.49-.04.1-4.03-2.76-8.92-1.9-2.46.43-4.38,1.67-5.78,2.85Z"/>
    <path class="cls-12" d="m265.03,200.54c.42-.49,1.1-.49,3.29-.37,1.41.08,2.93.17,4.53.29-.77.32-1.96.85-3.36,1.61-2.4,1.29-3.15,2.02-3.88,1.68-.93-.43-1.31-2.36-.59-3.22Z"/>
    <ellipse class="cls-13" cx="272.88" cy="200.47" rx="1.86" ry="2.09" transform="translate(-61.83 251.67) rotate(-45)"/>
    <path class="cls-24" d="m271.73,201.29c-.06.09.57.91,1.32.82.84-.1,1.2-1.28,1.15-1.32-.04-.03-.33.65-.99.82-.75.2-1.42-.42-1.48-.33Z"/>
    <path class="cls-24" d="m273.54,199.16c-.22-.3-.65-.47-.99-.33-.43.18-.54.79-.49.82.02.01.1-.08.16-.16.11-.06.28-.14.49-.16.52-.05.9.26.99.33,0-.1-.03-.3-.16-.49Z"/>
    <path class="cls-30" d="m265.11,201.57c.02.13.15.77.73,1.17.48.33.98.3,1.17.29.37-.02.64-.14.8-.22,1.15-.53,2.31-1.33,2.27-1.39-.05-.08-1.55,1.44-3.22,1.17-.82-.13-1.41-.65-1.76-1.02Z"/>
    <path class="cls-12" d="m257.38,193.58c.49-.42.49-1.1.37-3.29-.08-1.41-.17-2.93-.29-4.53-.32.77-.85,1.96-1.61,3.36-1.29,2.4-2.02,3.15-1.68,3.88.43.93,2.36,1.31,3.22.59Z"/>
    <ellipse class="cls-13" cx="257.46" cy="185.73" rx="1.86" ry="2.09" transform="translate(-55.92 236.45) rotate(-45)"/>
    <path class="cls-24" d="m256.63,186.88c-.09.06-.91-.57-.82-1.32.1-.84,1.28-1.2,1.32-1.15.03.04-.65.33-.82.99-.2.75.42,1.42.33,1.48Z"/>
    <path class="cls-24" d="m258.77,185.07c.3.22.47.65.33.99-.18.43-.79.54-.82.49-.01-.02.08-.1.16-.16.06-.11.14-.28.16-.49.05-.52-.26-.9-.33-.99.1,0,.3.03.49.16Z"/>
    <path class="cls-30" d="m256.36,193.51c-.13-.02-.77-.15-1.17-.73-.33-.48-.3-.98-.29-1.17.02-.37.14-.64.22-.8.53-1.15,1.33-2.31,1.39-2.27.08.05-1.44,1.55-1.17,3.22.13.82.65,1.41,1.02,1.76Z"/>
  </g>
  <ellipse class="cls-8" cx="259.58" cy="199.58" rx="16.98" ry="16.54" transform="translate(-34.49 343.57) rotate(-63.64)"/>
  <path class="cls-27" d="m258.22,211.81c-.02-.21,3.03.03,6.03-1.98,4.82-3.23,6.63-10.35,7.38-16.25.43.72,2.55,4.4,1.61,8.84-.62,2.91-2.24,4.67-2.96,5.43-4.71,4.96-12.02,4.28-12.05,3.95Z"/>
  <path class="cls-24" d="m260.19,185.96c-.34-.07-6.61-1.26-10.54,3.9-3.49,4.6-3.61,12.23.2,17.78-.28-1.49-1.11-6.81,1.37-12.49,2.82-6.48,7.89-8.74,8.97-9.19Z"/>
</svg>