<?xml version="1.0" encoding="UTF-8"?>
<svg id="_Слой_1" data-name="Слой 1" xmlns="http://www.w3.org/2000/svg" xmlns:xlink="http://www.w3.org/1999/xlink" viewBox="0 0 500 500">
  <defs>
    <style>
      .cls-1 {
        fill: #e86749;
      }

      .cls-2, .cls-3, .cls-4 {
        stroke: #999;
        stroke-miterlimit: 10;
      }

      .cls-2, .cls-5 {
        fill: #ffe4c0;
      }

      .cls-3 {
        fill: #a1cc87;
      }

      .cls-6 {
        fill: #f7931e;
      }

      .cls-7 {
        fill: #fcd559;
      }

      .cls-8 {
        fill: #f2b64c;
      }

      .cls-9 {
        fill: #f98f10;
      }

      .cls-10 {
        fill: #c44e37;
      }

      .cls-11 {
        fill: url(#_Безымянный_градиент_11);
      }

      .cls-4 {
        fill: #e0a194;
      }
    </style>
    <radialGradient id="_Безымянный_градиент_11" data-name="Безымянный градиент 11" cx="1499.04" cy="1178.15" fx="1499.04" fy="1178.15" r="526.75" gradientTransform="translate(-546.97 -408.36) scale(.54 .55)" gradientUnits="userSpaceOnUse">
      <stop offset="0" stop-color="#fff"/>
      <stop offset=".13" stop-color="#fff" stop-opacity=".83"/>
      <stop offset=".42" stop-color="#fff" stop-opacity=".48"/>
      <stop offset=".66" stop-color="#fff" stop-opacity=".22"/>
      <stop offset=".83" stop-color="#fff" stop-opacity=".06"/>
      <stop offset=".92" stop-color="#fff" stop-opacity="0"/>
    </radialGradient>
  </defs>
  <ellipse class="cls-11" cx="255.22" cy="245.41" rx="248.6" ry="248.58"/>
  <g>
    <g>
      <g>
        <path class="cls-8" d="m243.01,359.99c-38.42,0-74.94-18.44-97.69-49.33-39.65-53.81-28.12-129.85,25.7-169.49,20.99-15.46,45.81-23.63,71.8-23.63,38.42,0,74.94,18.44,97.69,49.33,19.21,26.07,27.11,58.06,22.25,90.07-4.85,32.01-21.88,60.22-47.95,79.43-20.99,15.46-45.81,23.63-71.8,23.63Z"/>
        <path class="cls-6" d="m242.82,117.03v1c18.53,0,37.09,4.33,53.67,12.52,17.37,8.58,32.05,20.9,43.62,36.61,19.13,25.96,27,57.82,22.16,89.7-4.83,31.88-21.79,59.97-47.75,79.1-20.9,15.4-45.63,23.54-71.51,23.54-18.53,0-37.09-4.33-53.67-12.52-17.37-8.58-32.05-20.9-43.62-36.61-19.13-25.96-27-57.82-22.16-89.7,4.83-31.88,21.79-59.97,47.75-79.1,20.9-15.4,45.63-23.53,71.51-23.54v-1m0,0c-25.07,0-50.37,7.72-72.1,23.73-54.12,39.87-65.68,116.07-25.8,170.19,23.86,32.39,60.73,49.53,98.1,49.53,25.07,0,50.37-7.72,72.1-23.73,54.12-39.87,65.68-116.07,25.8-170.19-23.86-32.39-60.73-49.53-98.1-49.53h0Z"/>
      </g>
      <path class="cls-1" d="m276.06,130.07c8.29-2.49,20.26-.94,27.49,7.06.98,1.09,6.24,6.9,6.06,15.04-.28,13.32-14.72,15.79-15.4,27.51-.16,2.79.49,5.58,17.79,28.69,10.9,14.56,13.21,16.88,12.83,21.2-1.04,11.88-20.94,22.6-28.06,17.89-6.67-4.42.52-20.66-4.83-23.19-5.52-2.62-21.54,10.78-19.66,21.73,1.1,6.39,8.08,10.67,16.82,16.03,10.48,6.42,14.89,5.91,15.63,9.11,1.91,8.27-24.14,26.79-36.43,20.15-7.46-4.03-3.48-13.89-13.86-27.13-2.91-3.71-12.18-15.53-22.75-15-14.12.71-14.4,22.62-34.37,32.01-18.2,8.56-41.45,1.42-41.54-1.16-.04-1.05,3.73-1.55,8.82-3.15,16.03-5.07,26.14-15.11,33.58-22.51,3.06-3.04,8.75-9.09,24.74-38.29,8.47-15.47,24.15-45.3,28.27-53.15,10.54-20.06,15.99-30.14,24.87-32.81Z"/>
      <path class="cls-1" d="m143.39,228.37c8,3.38,12.23,2.46,14.62.93,5.35-3.42,3.23-10.95,6.62-28.84,2.39-12.62,4.05-12.02,6.41-25.34,2.4-13.57,2.16-22.54,3.42-22.58.96-.03,1.82,5.09,5.74,21.41,2.26,9.43,2.85,11.37,4.03,11.52,3.09.41,3.4-12.45,12.61-26.01,7.94-11.68,14.77-12.53,29.7-30.79,2.65-3.24,4.7-5.98,5.99-7.76,2.73-.75,6.82-1.68,11.86-2.05,3.71-.27,10.22-.75,10.76.99.53,1.69-4.97,4.24-9.49,7.55-8.54,6.24-10.26,12.75-16.81,24.09-10.84,18.75-17.34,29.98-29.83,35.91-8.37,3.97-15.93,3.9-20.65,11.31-1.05,1.65-4.26,6.69-3.16,12.36,1.08,5.58,5.58,7.85,4.39,11.25-.66,1.91-2.2,1.57-5.97,5.51-1.55,1.62-2.89,3.02-3.99,5.17-1.94,3.78-.84,5.42-2.59,8.59-1.19,2.16-3.35,4.39-5.25,4.98-4.69,1.45-12.64-5.62-18.42-18.2Z"/>
      <path class="cls-5" d="m361.55,232.88c-5.65-1.9-12.04-5-12.93-9.98-.97-5.47,5.47-8.1,5.78-14.85.26-5.83-4.71-8.12-14.64-19.87-4.67-5.53-16.72-19.8-13.7-23.9,1.57-2.13,6.82-1,8.44-.65,4.34.94,7.01,3.51,7.96,4.53,4.34,6.59,9.39,15.7,13.22,27.24,4.99,15.04,5.95,28.33,5.87,37.47Z"/>
      <path class="cls-9" d="m132.19,260.24c3.96,1.44,9.93-1.94,11.82-6.1,1.9-4.16-1.01-7.47-4.76-20.64-2.41-8.49-3.6-12.79-2.49-15.79,2.23-6.03,8.54-5.84,19.97-12.76,7.51-4.55,20.02-12.12,19.73-21.06-.2-6.02-6.19-12.62-12.6-13.56-13.23-1.95-27.03,20.34-32.78,35.25-8.7,22.57-7.87,51.4,1.11,54.67Z"/>
      <path class="cls-5" d="m192.47,291.56c-2.1-2.84-10.11,2.3-19.33-1.43-3.15-1.27-4.17-2.67-6.17-3.94-4.83-3.09-13.83-4.49-32.2,4.14,1.44,4.97,4.08,12,9.08,19.42,4.63,6.86,9.69,11.69,13.54,14.83,18.82-7.69,27.65-17.63,31.73-23.38,1.53-2.15,5-7.4,3.34-9.64Z"/>
      <path class="cls-7" d="m216.67,250.88c-7.54-5.06-16.98-3.38-22.58-2.3-10.88,2.1-12.29,5.8-28.59,12.58-14.15,5.88-21.28,6.5-21.09,7.7.3,1.89,18.53,4.36,33.36-4.34,6.6-3.87,7.08-6.76,12.47-7.88,8.93-1.86,21.1,3.27,25.74,13.67,2.93,6.58,2.5,14.47-.8,20.17-1.71,2.95-3.21,3.62-7.1,7.19-4.2,3.85-11.83,10.85-15.83,20.15-1.06,2.45-6.71,15.58-.31,24.38.94,1.29,3.84,5.29,6.79,4.79,6.63-1.13.93-22.88,12.63-38.68,12.93-17.46,40.79-19.13,42-19.19,14.29-.68,25.77,4.19,29.55-1.53,1.61-2.44,1.43-6.19-.24-8.31-1.96-2.47-5.88-2.59-15.97-1.29-18.71,2.41-18.74,4.56-23.05,3.27-5.29-1.59-9.77-7.77-18.75-20.13-4.95-6.82-5.24-8.27-8.22-10.27Z"/>
      <path class="cls-10" d="m209.18,332.59c11.07,4.38,34.77,11.68,60.36,3.22,25.92-8.57,41.74-29.32,48.94-38.76,13.79-18.09,19.62-35.73,23.33-34.53,2.7.87,1.9,10.91.9,16.68-1.33,7.72-5.09,19.67-18.62,34.31-10.77,11.65-27.48,29.73-55.96,33.64-30.13,4.13-52.89-10.4-58.95-14.55Z"/>
    </g>
    <path class="cls-2" d="m487.58,74.2c12.28,16.67-38.95,76.4-122.1,146.72-26.18,22.13-55.51,45.32-87.03,68.54-29.88,22.01-59.14,42.16-86.73,59.91-93.95,60.44-168.37,92.96-180.84,76.02-12.15-16.5,37.94-75.22,119.64-144.62.87,2.45,1.83,4.89,2.87,7.3h0c-33.36,29.64-58.28,55.77-70.63,74.22-8.13,11.41-11.21,19.71-8.18,23.82.23.31.49.6.79.85.02.04.04.06.06.09,8.62,11.7,56.72-8.02,120.58-46.9,29.73-18.1,62.88-40.36,97.05-65.53,32.92-24.26,62.99-48.41,88.48-70.74,57.8-50.62,92.16-91.88,83.4-103.78s-56.87,8.09-120.89,47.1c-1.81-1.55-3.66-3.02-5.54-4.44,88.36-55.62,157.15-84.78,169.1-68.56Z"/>
    <path class="cls-4" d="m444.91,100.11c8.76,11.89-25.6,53.16-83.4,103.78-25.5,22.33-55.56,46.49-88.48,70.74-34.17,25.17-67.32,47.43-97.05,65.53-63.86,38.88-111.96,58.6-120.58,46.9-.02-.03-.04-.06-.06-.09-3.2-4.48-.39-13.06,7.39-24.67,12.74-17.92,37.9-43.53,71.31-72.7.82,1.86,1.71,3.7,2.64,5.53-32.47,30.17-50.58,53.05-45.47,60,5.13,6.97,32.54-3.64,71.19-25.88,29.06-16.7,64.47-39.99,101.54-67.3,35.53-26.17,67.06-51.99,91.25-74.15,34.65-31.74,54.23-56.01,48.94-63.2s-34.07,4.25-74.45,27.76c-1.26-1.21-2.54-2.4-3.85-3.55-.6-.54-1.21-1.07-1.83-1.58,64.01-39.01,112.25-58.82,120.89-47.1Z"/>
    <path class="cls-3" d="m404.15,124.58c5.29,7.19-14.29,31.46-48.94,63.2-24.19,22.17-55.73,47.98-91.25,74.15-37.07,27.31-72.48,50.59-101.54,67.3-38.65,22.24-66.06,32.85-71.19,25.88-5.11-6.94,13-29.83,45.47-60,1.7,3.35,3.58,6.65,5.62,9.87-1.24,2.69-1.46,4.72-.55,5.96s2.76,1.6,5.5,1.29c15.64-1.78,59.52-26.87,107.7-62.36,44.32-32.65,79.15-64.43,89.38-80.53,2.85-4.48,3.79-7.75,2.51-9.49s-4.88-1.81-10.25-.29c-2.21-2.52-4.52-4.94-6.9-7.23,40.37-23.51,69.18-34.91,74.45-27.76Z"/>
  </g>
</svg>