<?xml version="1.0" encoding="UTF-8"?>
<svg id="_Слой_1" data-name="Слой 1" xmlns="http://www.w3.org/2000/svg" viewBox="0 0 500 500">
  <defs>
    <style>
      .cls-1 {
        fill: #efe63a;
      }

      .cls-1, .cls-2, .cls-3 {
        stroke: #b3b3b3;
        stroke-width: .5px;
      }

      .cls-1, .cls-2, .cls-3, .cls-4, .cls-5, .cls-6 {
        stroke-miterlimit: 10;
      }

      .cls-7 {
        fill: #fff;
      }

      .cls-8 {
        opacity: .6;
      }

      .cls-9 {
        fill: #fe0104;
      }

      .cls-2 {
        fill: #97ed3b;
      }

      .cls-10 {
        fill: #054e77;
      }

      .cls-11 {
        fill: #193c1b;
      }

      .cls-3 {
        fill: #3b95ed;
      }

      .cls-12 {
        fill: #0071bc;
      }

      .cls-13 {
        fill: #231617;
        opacity: .28;
      }

      .cls-4 {
        fill: gray;
      }

      .cls-4, .cls-5, .cls-6 {
        stroke: #999;
      }

      .cls-5 {
        fill: #666;
      }

      .cls-14 {
        fill: #18f416;
      }

      .cls-6 {
        fill: #f2f2f2;
      }
    </style>
  </defs>
  <g>
    <rect class="cls-6" x="22.5" y="106.11" width="457" height="263.78" rx="12.49" ry="12.49"/>
    <rect class="cls-11" x="67.28" y="128.81" width="369.22" height="218.37" rx="12.49" ry="12.49"/>
    <g>
      <ellipse class="cls-1" cx="455.45" cy="150.68" rx="9.94" ry="8.83"/>
      <path class="cls-7" d="m454.35,157.31c.11.5,4.97,1.16,7.18-1.66,2.48-3.16-.25-8.33-.55-8.28-.24.04,1.08,3.29-.55,6.07-1.86,3.17-6.18,3.38-6.07,3.86Z"/>
      <path class="cls-7" d="m453.24,144.06c-1.72-.27-3.75.59-4.42,2.21-.84,2.05.85,4.49,1.1,4.42.12-.03.07-.59,0-1.1.15-.57.45-1.4,1.1-2.21,1.57-1.93,3.89-2.17,4.42-2.21-.34-.32-1.1-.93-2.21-1.1Z"/>
    </g>
    <g>
      <ellipse class="cls-2" cx="455.77" cy="179.28" rx="9.94" ry="8.83"/>
      <path class="cls-7" d="m454.67,185.9c.11.5,4.97,1.16,7.18-1.66,2.48-3.16-.25-8.33-.55-8.28-.24.04,1.08,3.29-.55,6.07-1.86,3.17-6.18,3.38-6.07,3.86Z"/>
      <path class="cls-7" d="m453.56,172.65c-1.72-.27-3.75.59-4.42,2.21-.84,2.05.85,4.49,1.1,4.42.12-.03.07-.59,0-1.1.15-.57.45-1.4,1.1-2.21,1.57-1.93,3.89-2.17,4.42-2.21-.34-.32-1.1-.93-2.21-1.1Z"/>
    </g>
    <g>
      <ellipse class="cls-3" cx="456.06" cy="204.9" rx="9.94" ry="8.83"/>
      <path class="cls-7" d="m454.96,211.53c.11.5,4.97,1.16,7.18-1.66,2.48-3.16-.25-8.33-.55-8.28-.24.04,1.08,3.29-.55,6.07-1.86,3.17-6.18,3.38-6.07,3.86Z"/>
      <path class="cls-7" d="m453.85,198.28c-1.72-.27-3.75.59-4.42,2.21-.84,2.05.85,4.49,1.1,4.42.12-.03.07-.59,0-1.1.15-.57.45-1.4,1.1-2.21,1.57-1.93,3.89-2.17,4.42-2.21-.34-.32-1.1-.93-2.21-1.1Z"/>
    </g>
    <rect class="cls-13" x="444" y="314" width="21" height="21" rx="2.48" ry="2.48"/>
    <rect class="cls-9" x="445" y="315" width="19" height="19" rx="2.48" ry="2.48"/>
    <path class="cls-7" d="m446,322c-.11-.01.06-1.18,0-3-.05-1.4-.17-1.64,0-2,.31-.65,1.38-1.29,5-1-.79.02-2.01.18-3,1-1.99,1.66-1.82,5.02-2,5Z"/>
    <rect class="cls-5" x="32.5" y="178" width="31" height="119.5" rx="12.49" ry="12.49" transform="translate(96 475.5) rotate(-180)"/>
    <path class="cls-7" d="m456.85,333.23c.01.11,1.18-.06,3,0,1.4.05,1.64.17,2,0,.65-.31,1.29-1.38,1-5-.02.79-.18,2.01-1,3-1.66,1.99-5.02,1.82-5,2Z"/>
    <rect class="cls-4" x="35.47" y="182.38" width="24.99" height="111.12" rx="12.49" ry="12.49" transform="translate(95.94 475.88) rotate(180)"/>
    <rect class="cls-10" x="35.25" y="203" width="25" height="27"/>
    <rect class="cls-12" x="35.25" y="210.5" width="25" height="12"/>
    <g class="cls-8">
      <rect class="cls-7" x="36" y="212" width="23" height="3"/>
    </g>
  </g>
  <g>
    <path class="cls-14" d="m89.94,164.35v3.3h2.09v3.3h-2.09v9.91h-2.09v-16.52h2.09Zm2.09,6.61h2.09v3.3h-2.09v-3.3Zm6.27-6.61v16.52h-2.09v-9.91h-2.09v-3.3h2.09v-3.3h2.09Z"/>
    <path class="cls-14" d="m102.5,167.65v3.3h4.18v3.3h-4.18v3.3h8.36v3.3h-10.45v-13.22h2.09Zm0-3.3h8.36v3.3h-8.36v-3.3Z"/>
    <path class="cls-14" d="m121.33,164.35v3.3h-6.27v3.3h6.27v3.3h-6.27v6.61h-2.09v-16.52h8.36Zm0,3.3h2.09v3.3h-2.09v-3.3Z"/>
    <path class="cls-14" d="m127.62,164.35v6.61h4.18v3.3h-4.18v6.61h-2.09v-16.52h2.09Zm4.18,3.3h2.09v3.3h-2.09v-3.3Zm0,6.61h2.09v3.3h-2.09v-3.3Zm2.09-9.91h2.09v3.3h-2.09v-3.3Zm0,13.22h2.09v3.3h-2.09v-3.3Z"/>
    <path class="cls-14" d="m138.1,164.35h2.09v6.61h-2.09v-6.61Zm0,13.22h8.36v3.3h-8.36v-3.3Zm10.45-13.22v13.22h-2.09v-3.3h-6.27v-3.3h6.27v-6.61h2.09Z"/>
    <path class="cls-14" d="m159.02,164.35v3.3h-6.27v3.3h6.27v3.3h-6.27v6.61h-2.09v-16.52h8.36Zm0,3.3h2.09v3.3h-2.09v-3.3Z"/>
    <path class="cls-14" d="m165.32,164.35v9.91h2.09v3.3h-2.09v3.3h-2.09v-16.52h2.09Zm2.09,6.61h2.09v3.3h-2.09v-3.3Zm6.27-6.61v16.52h-2.09v-9.91h-2.09v-3.3h2.09v-3.3h2.09Z"/>
    <path class="cls-14" d="m177.88,164.35v9.91h2.09v3.3h-2.09v3.3h-2.09v-16.52h2.09Zm6.27-3.3v3.3h-4.18v-3.3h4.18Zm-4.18,9.91h2.09v3.3h-2.09v-3.3Zm6.27-6.61v16.52h-2.09v-9.91h-2.09v-3.3h2.09v-3.3h2.09Z"/>
    <path class="cls-14" d="m198.81,170.96h6.27v3.3h-6.27v-3.3Z"/>
    <path class="cls-14" d="m217.63,164.35h2.09v6.61h-2.09v-6.61Zm0,9.91h2.09v6.61h-2.09v-6.61Zm6.27-9.91v6.61h2.09v3.3h-2.09v6.61h-2.09v-6.61h-2.09v-3.3h2.09v-6.61h2.09Zm2.09,0h2.09v6.61h-2.09v-6.61Zm0,9.91h2.09v6.61h-2.09v-6.61Z"/>
    <path class="cls-14" d="m240.64,167.65v13.22h-2.09v-6.61h-6.27v6.61h-2.09v-13.22h2.09v3.3h6.27v-3.3h2.09Zm-8.36-3.3h6.27v3.3h-6.27v-3.3Z"/>
    <path class="cls-14" d="m251.11,164.35v3.3h-6.27v3.3h6.27v3.3h-6.27v6.61h-2.09v-16.52h8.36Zm0,3.3h2.09v3.3h-2.09v-3.3Z"/>
    <path class="cls-14" d="m257.4,164.35v6.61h4.18v3.3h-4.18v6.61h-2.09v-16.52h2.09Zm4.18,3.3h2.09v3.3h-2.09v-3.3Zm0,6.61h2.09v3.3h-2.09v-3.3Zm2.09-9.91h2.09v3.3h-2.09v-3.3Zm0,13.22h2.09v3.3h-2.09v-3.3Z"/>
    <path class="cls-14" d="m278.32,167.65v13.22h-2.09v-6.61h-6.27v6.61h-2.09v-13.22h2.09v3.3h6.27v-3.3h2.09Zm-8.36-3.3h6.27v3.3h-6.27v-3.3Z"/>
    <path class="cls-14" d="m290.89,164.35v16.52h-2.09v-6.61h-6.27v6.61h-2.09v-6.61h2.09v-3.3h6.27v-3.3h-6.27v-3.3h8.36Zm-10.45,3.3h2.09v3.3h-2.09v-3.3Z"/>
    <path class="cls-14" d="m303.46,167.65h2.09v13.22h-2.09v-13.22Zm2.09-3.3h6.27v3.3h-6.27v-3.3Zm6.27,3.3h2.09v13.22h-2.09v-13.22Z"/>
    <path class="cls-14" d="m316.02,170.96h2.09v9.91h-2.09v-9.91Zm2.09-3.3h2.09v3.3h-2.09v-3.3Zm8.36-3.3v16.52h-2.09v-13.22h-4.18v-3.3h6.27Z"/>
    <path class="cls-14" d="m339.03,167.65v13.22h-2.09v-6.61h-6.27v6.61h-2.09v-13.22h2.09v3.3h6.27v-3.3h2.09Zm-8.36-3.3h6.27v3.3h-6.27v-3.3Z"/>
    <path class="cls-14" d="m351.59,164.35v16.52h-2.09v-6.61h-6.27v6.61h-2.09v-16.52h2.09v6.61h6.27v-6.61h2.09Z"/>
    <path class="cls-14" d="m355.79,167.65v3.3h4.18v3.3h-4.18v3.3h8.36v3.3h-10.45v-13.22h2.09Zm0-3.3h8.36v3.3h-8.36v-3.3Z"/>
    <path class="cls-14" d="m376.71,164.35v3.3h-4.18v13.22h-2.09v-13.22h-4.18v-3.3h10.45Z"/>
    <path class="cls-14" d="m389.27,167.65v13.22h-2.09v-6.61h-6.27v6.61h-2.09v-13.22h2.09v3.3h6.27v-3.3h2.09Zm-8.36-3.3h6.27v3.3h-6.27v-3.3Z"/>
    <path class="cls-14" d="m391.38,177.57h2.09v3.3h-2.09v-3.3Zm2.09-3.3h2.09v3.3h-2.09v-3.3Z"/>
    <path class="cls-14" d="m87.85,208.26h2.09v9.91h-2.09v-9.91Zm2.09-3.3h6.27v3.3h-6.27v-3.3Zm0,13.22h6.27v3.3h-6.27v-3.3Zm6.27-9.91h2.09v9.91h-2.09v-9.91Z"/>
    <path class="cls-14" d="m100.42,204.96h2.09v6.61h-2.09v-6.61Zm10.45,0v16.52h-2.09v-6.61h-6.27v-3.3h6.27v-6.61h2.09Z"/>
    <path class="cls-14" d="m115.07,208.26v3.3h4.18v3.3h-4.18v3.3h8.36v3.3h-10.45v-13.22h2.09Zm0-3.3h8.36v3.3h-8.36v-3.3Z"/>
    <path class="cls-14" d="m135.99,204.96v16.52h-2.09v-6.61h-6.27v6.61h-2.09v-16.52h2.09v6.61h6.27v-6.61h2.09Z"/>
    <path class="cls-14" d="m140.19,204.96v6.61h6.27v3.3h-6.27v3.3h6.27v3.3h-8.36v-16.52h2.09Zm6.27,9.91h2.09v3.3h-2.09v-3.3Z"/>
    <path class="cls-14" d="m163.22,204.96v3.3h2.09v3.3h-2.09v9.91h-2.09v-16.52h2.09Zm2.09,6.61h2.09v3.3h-2.09v-3.3Zm6.27-6.61v16.52h-2.09v-9.91h-2.09v-3.3h2.09v-3.3h2.09Z"/>
    <path class="cls-14" d="m184.14,208.26v13.22h-2.09v-6.61h-6.27v6.61h-2.09v-13.22h2.09v3.3h6.27v-3.3h2.09Zm-8.36-3.3h6.27v3.3h-6.27v-3.3Z"/>
    <path class="cls-14" d="m186.25,211.57h2.09v9.91h-2.09v-9.91Zm2.09-3.3h2.09v3.3h-2.09v-3.3Zm8.36-3.3v16.52h-2.09v-13.22h-4.18v-3.3h6.27Z"/>
    <path class="cls-14" d="m209.26,208.26v13.22h-2.09v-6.61h-6.27v6.61h-2.09v-13.22h2.09v3.3h6.27v-3.3h2.09Zm-8.36-3.3h6.27v3.3h-6.27v-3.3Z"/>
    <path class="cls-14" d="m221.83,204.96v16.52h-2.09v-6.61h-6.27v6.61h-2.09v-6.61h2.09v-3.3h6.27v-3.3h-6.27v-3.3h8.36Zm-10.45,3.3h2.09v3.3h-2.09v-3.3Z"/>
    <path class="cls-14" d="m234.4,208.26h2.09v13.22h-2.09v-13.22Zm2.09-3.3h6.27v3.3h-6.27v-3.3Zm6.27,3.3h2.09v13.22h-2.09v-13.22Z"/>
    <path class="cls-14" d="m255.32,204.96v3.3h-6.27v3.3h6.27v3.3h-6.27v6.61h-2.09v-16.52h8.36Zm0,3.3h2.09v3.3h-2.09v-3.3Z"/>
    <path class="cls-14" d="m261.61,204.96v9.91h2.09v3.3h-2.09v3.3h-2.09v-16.52h2.09Zm2.09,6.61h2.09v3.3h-2.09v-3.3Zm6.27-6.61v16.52h-2.09v-9.91h-2.09v-3.3h2.09v-3.3h2.09Z"/>
    <path class="cls-14" d="m282.54,208.26h2.09v3.3h-2.09v-3.3Zm0,6.61h2.09v3.3h-2.09v-3.3Zm2.09-9.91h6.27v3.3h-6.27v-3.3Zm0,13.22h6.27v3.3h-6.27v-3.3Zm8.36-9.91v9.91h-2.09v-3.3h-4.18v-3.3h4.18v-3.3h2.09Z"/>
    <path class="cls-14" d="m305.55,204.96v3.3h-4.18v13.22h-2.09v-13.22h-4.18v-3.3h10.45Z"/>
    <path class="cls-14" d="m307.66,208.26h2.09v9.91h-2.09v-9.91Zm2.09-3.3h6.27v3.3h-6.27v-3.3Zm0,13.22h6.27v3.3h-6.27v-3.3Zm6.27-9.91h2.09v9.91h-2.09v-9.91Z"/>
    <path class="cls-14" d="m322.31,204.96v3.3h2.09v3.3h-2.09v9.91h-2.09v-16.52h2.09Zm2.09,6.61h2.09v3.3h-2.09v-3.3Zm6.27-6.61v16.52h-2.09v-9.91h-2.09v-3.3h2.09v-3.3h2.09Z"/>
    <path class="cls-14" d="m332.78,218.18h2.09v3.3h-2.09v-3.3Zm2.09-3.3h2.09v3.3h-2.09v-3.3Z"/>
    <path class="cls-14" d="m98.3,245.56v16.52h-2.09v-6.61h-6.27v6.61h-2.09v-16.52h2.09v6.61h6.27v-6.61h2.09Z"/>
    <path class="cls-14" d="m102.5,248.87v3.3h4.18v3.3h-4.18v3.3h8.36v3.3h-10.45v-13.22h2.09Zm0-3.3h8.36v3.3h-8.36v-3.3Z"/>
    <path class="cls-14" d="m123.43,245.56h2.09v3.3h-2.09v-3.3Zm0,13.22h2.09v3.3h-2.09v-3.3Zm2.09-9.91h2.09v3.3h-2.09v-3.3Zm0,6.61h2.09v3.3h-2.09v-3.3Zm2.09-3.3h2.09v3.3h-2.09v-3.3Zm4.18,0h-2.09v-3.3h2.09v3.3Zm0,6.61h-2.09v-3.3h2.09v3.3Zm0-13.22h2.09v3.3h-2.09v-3.3Zm0,13.22h2.09v3.3h-2.09v-3.3Z"/>
    <path class="cls-14" d="m135.99,248.87h2.09v9.91h-2.09v-9.91Zm2.09-3.3h6.27v3.3h-6.27v-3.3Zm0,13.22h6.27v3.3h-6.27v-3.3Zm6.27-9.91h2.09v9.91h-2.09v-9.91Z"/>
    <path class="cls-14" d="m159,245.56v3.3h-4.18v13.22h-2.09v-13.22h-4.18v-3.3h10.45Z"/>
    <path class="cls-14" d="m163.21,245.56v9.91h2.09v3.3h-2.09v3.3h-2.09v-16.52h2.09Zm2.09,6.61h2.09v3.3h-2.09v-3.3Zm6.27-6.61v16.52h-2.09v-9.91h-2.09v-3.3h2.09v-3.3h2.09Z"/>
    <path class="cls-14" d="m175.77,245.56v3.3h2.09v3.3h-2.09v9.91h-2.09v-16.52h2.09Zm2.09,6.61h2.09v3.3h-2.09v-3.3Zm6.27-6.61v16.52h-2.09v-9.91h-2.09v-3.3h2.09v-3.3h2.09Z"/>
    <path class="cls-14" d="m207.15,245.56v3.3h-4.18v13.22h-2.09v-13.22h-4.18v-3.3h10.45Z"/>
    <path class="cls-14" d="m209.27,245.56h2.09v6.61h-2.09v-6.61Zm0,13.22h8.36v3.3h-8.36v-3.3Zm10.45-13.22v13.22h-2.09v-3.3h-6.27v-3.3h6.27v-6.61h2.09Z"/>
    <path class="cls-14" d="m234.37,245.56v16.52h-12.54v-3.3h2.09v-9.91h2.09v-3.3h8.36Zm-2.09,3.3h-6.27v9.91h6.27v-9.91Z"/>
    <path class="cls-14" d="m246.91,248.87v13.22h-2.09v-6.61h-6.27v6.61h-2.09v-13.22h2.09v3.3h6.27v-3.3h2.09Zm-8.36-3.3h6.27v3.3h-6.27v-3.3Z"/>
    <path class="cls-14" d="m259.48,252.17h2.09v9.91h-2.09v-9.91Zm2.09-3.3h2.09v3.3h-2.09v-3.3Zm8.36-3.3v16.52h-2.09v-13.22h-4.18v-3.3h6.27Z"/>
    <path class="cls-14" d="m274.13,248.87v3.3h4.18v3.3h-4.18v3.3h8.36v3.3h-10.45v-13.22h2.09Zm0-3.3h8.36v3.3h-8.36v-3.3Z"/>
    <path class="cls-14" d="m295.05,245.56v3.3h-4.18v13.22h-2.09v-13.22h-4.18v-3.3h10.45Z"/>
    <path class="cls-14" d="m299.25,248.87v3.3h4.18v3.3h-4.18v3.3h8.36v3.3h-10.45v-13.22h2.09Zm0-3.3h8.36v3.3h-8.36v-3.3Z"/>
    <path class="cls-14" d="m320.17,245.56v3.3h-4.18v13.22h-2.09v-13.22h-4.18v-3.3h10.45Z"/>
    <path class="cls-14" d="m324.37,245.56v6.61h6.27v3.3h-6.27v3.3h6.27v3.3h-8.36v-16.52h2.09Zm6.27,9.91h2.09v3.3h-2.09v-3.3Z"/>
    <path class="cls-14" d="m334.84,258.78h2.09v3.3h-2.09v-3.3Zm2.09-3.3h2.09v3.3h-2.09v-3.3Z"/>
    <path class="cls-14" d="m89.94,286.17v3.3h2.09v3.3h-2.09v9.91h-2.09v-16.52h2.09Zm2.09,6.61h2.09v3.3h-2.09v-3.3Zm6.27-6.61v16.52h-2.09v-9.91h-2.09v-3.3h2.09v-3.3h2.09Z"/>
    <path class="cls-14" d="m100.41,289.48h2.09v9.91h-2.09v-9.91Zm2.09-3.3h6.27v3.3h-6.27v-3.3Zm0,13.22h6.27v3.3h-6.27v-3.3Zm6.27-9.91h2.09v9.91h-2.09v-9.91Z"/>
    <path class="cls-14" d="m112.97,286.17h2.09v6.61h-2.09v-6.61Zm0,9.91h2.09v6.61h-2.09v-6.61Zm6.27-9.91v6.61h2.09v3.3h-2.09v6.61h-2.09v-6.61h-2.09v-3.3h2.09v-6.61h2.09Zm2.09,0h2.09v6.61h-2.09v-6.61Zm0,9.91h2.09v6.61h-2.09v-6.61Z"/>
    <path class="cls-14" d="m135.98,286.17v16.52h-2.09v-6.61h-6.27v6.61h-2.09v-16.52h2.09v6.61h6.27v-6.61h2.09Z"/>
    <path class="cls-14" d="m138.09,289.48h2.09v9.91h-2.09v-9.91Zm2.09-3.3h6.27v3.3h-6.27v-3.3Zm0,13.22h6.27v3.3h-6.27v-3.3Zm6.27-9.91h2.09v9.91h-2.09v-9.91Z"/>
    <path class="cls-14" d="m171.56,286.17v3.3h-4.18v13.22h-2.09v-13.22h-4.18v-3.3h10.45Z"/>
    <path class="cls-14" d="m184.12,289.48v13.22h-2.09v-6.61h-6.27v6.61h-2.09v-13.22h2.09v3.3h6.27v-3.3h2.09Zm-8.36-3.3h6.27v3.3h-6.27v-3.3Z"/>
    <path class="cls-14" d="m188.33,286.17v3.3h2.09v3.3h-2.09v9.91h-2.09v-16.52h2.09Zm2.09,6.61h2.09v3.3h-2.09v-3.3Zm6.27-6.61v16.52h-2.09v-9.91h-2.09v-3.3h2.09v-3.3h2.09Z"/>
    <path class="cls-14" d="m198.8,299.39h2.09v3.3h-2.09v-3.3Zm2.09-3.3h2.09v3.3h-2.09v-3.3Z"/>
    <path class="cls-14" d="m228.08,286.17v16.52h-12.54v-3.3h2.09v-9.91h2.09v-3.3h8.36Zm-2.09,3.3h-6.27v9.91h6.27v-9.91Z"/>
    <path class="cls-14" d="m238.52,286.17v3.3h-6.27v3.3h6.27v3.3h-6.27v6.61h-2.09v-16.52h8.36Zm0,3.3h2.09v3.3h-2.09v-3.3Z"/>
    <path class="cls-14" d="m242.74,286.17h2.09v6.61h-2.09v-6.61Zm0,13.22h8.36v3.3h-8.36v-3.3Zm10.45-13.22v13.22h-2.09v-3.3h-6.27v-3.3h6.27v-6.61h2.09Z"/>
    <path class="cls-14" d="m263.66,286.17v3.3h2.09v3.3h-2.09v-3.3h-8.36v-3.3h8.36Zm-8.36,13.22h8.36v3.3h-8.36v-3.3Zm4.18-6.61h4.18v3.3h-4.18v-3.3Zm4.18,3.3h2.09v3.3h-2.09v-3.3Z"/>
    <path class="cls-14" d="m269.95,286.17v6.61h6.27v3.3h-6.27v3.3h6.27v3.3h-8.36v-16.52h2.09Zm6.27,9.91h2.09v3.3h-2.09v-3.3Z"/>
    <path class="cls-14" d="m290.88,286.17v16.52h-2.09v-6.61h-6.27v6.61h-2.09v-6.61h2.09v-3.3h6.27v-3.3h-6.27v-3.3h8.36Zm-10.45,3.3h2.09v3.3h-2.09v-3.3Z"/>
    <path class="cls-14" d="m292.99,299.39h2.09v3.3h-2.09v-3.3Zm2.09-3.3h2.09v3.3h-2.09v-3.3Z"/>
    <path class="cls-14" d="m309.73,289.48h2.09v9.91h-2.09v-9.91Zm2.09-3.3h6.27v3.3h-6.27v-3.3Zm0,13.22h6.27v3.3h-6.27v-3.3Zm6.27-9.91h2.09v3.3h-2.09v-3.3Zm0,6.61h2.09v3.3h-2.09v-3.3Z"/>
    <path class="cls-14" d="m332.74,286.17v3.3h-8.36v13.22h-2.09v-13.22h2.09v-3.3h8.36Z"/>
    <path class="cls-14" d="m334.85,289.48h2.09v9.91h-2.09v-9.91Zm2.09-3.3h6.27v3.3h-6.27v-3.3Zm0,13.22h6.27v3.3h-6.27v-3.3Zm6.27-9.91h2.09v9.91h-2.09v-9.91Z"/>
    <path class="cls-14" d="m355.77,286.17v3.3h-6.27v3.3h6.27v3.3h-6.27v6.61h-2.09v-16.52h8.36Zm0,3.3h2.09v3.3h-2.09v-3.3Z"/>
    <path class="cls-14" d="m362.06,289.48v3.3h4.18v3.3h-4.18v3.3h8.36v3.3h-10.45v-13.22h2.09Zm0-3.3h8.36v3.3h-8.36v-3.3Z"/>
    <path class="cls-14" d="m382.98,286.17v3.3h-4.18v13.22h-2.09v-13.22h-4.18v-3.3h10.45Z"/>
    <path class="cls-14" d="m387.18,286.17v6.61h6.27v3.3h-6.27v3.3h6.27v3.3h-8.36v-16.52h2.09Zm6.27,9.91h2.09v3.3h-2.09v-3.3Z"/>
  </g>
</svg>