<?xml version="1.0" encoding="UTF-8"?>
<svg id="_Слой_1" data-name="Слой 1" xmlns="http://www.w3.org/2000/svg" viewBox="0 0 472 272">
  <defs>
    <style>
      .cls-1 {
        fill: #efe63a;
      }

      .cls-1, .cls-2, .cls-3 {
        stroke: #b3b3b3;
        stroke-width: .5px;
      }

      .cls-1, .cls-2, .cls-3, .cls-4, .cls-5, .cls-6 {
        stroke-miterlimit: 10;
      }

      .cls-7 {
        fill: #fff;
      }

      .cls-8 {
        opacity: .6;
      }

      .cls-9 {
        fill: #fe0104;
      }

      .cls-2 {
        fill: #97ed3b;
      }

      .cls-10 {
        fill: #054e77;
      }

      .cls-11 {
        fill: #193c1b;
      }

      .cls-3 {
        fill: #3b95ed;
      }

      .cls-12 {
        fill: #0071bc;
      }

      .cls-13 {
        fill: #231617;
        opacity: .28;
      }

      .cls-4 {
        fill: gray;
      }

      .cls-4, .cls-5, .cls-6 {
        stroke: #999;
      }

      .cls-5 {
        fill: #666;
      }

      .cls-14 {
        fill: #18f416;
      }

      .cls-6 {
        fill: #f2f2f2;
      }
    </style>
  </defs>
  <g>
    <rect class="cls-6" x="5.5" y="3.11" width="457" height="263.78" rx="12.49" ry="12.49"/>
    <rect class="cls-11" x="50.28" y="25.81" width="369.22" height="218.37" rx="12.49" ry="12.49"/>
    <g>
      <ellipse class="cls-1" cx="438.45" cy="47.68" rx="9.94" ry="8.83"/>
      <path class="cls-7" d="m437.35,54.31c.11.5,4.97,1.16,7.18-1.66,2.48-3.16-.25-8.33-.55-8.28-.24.04,1.08,3.29-.55,6.07-1.86,3.17-6.18,3.38-6.07,3.86Z"/>
      <path class="cls-7" d="m436.24,41.06c-1.72-.27-3.75.59-4.42,2.21-.84,2.05.85,4.49,1.1,4.42.12-.03.07-.59,0-1.1.15-.57.45-1.4,1.1-2.21,1.57-1.93,3.89-2.17,4.42-2.21-.34-.32-1.1-.93-2.21-1.1Z"/>
    </g>
    <g>
      <ellipse class="cls-2" cx="438.77" cy="76.28" rx="9.94" ry="8.83"/>
      <path class="cls-7" d="m437.67,82.9c.11.5,4.97,1.16,7.18-1.66,2.48-3.16-.25-8.33-.55-8.28-.24.04,1.08,3.29-.55,6.07-1.86,3.17-6.18,3.38-6.07,3.86Z"/>
      <path class="cls-7" d="m436.56,69.65c-1.72-.27-3.75.59-4.42,2.21-.84,2.05.85,4.49,1.1,4.42.12-.03.07-.59,0-1.1.15-.57.45-1.4,1.1-2.21,1.57-1.93,3.89-2.17,4.42-2.21-.34-.32-1.1-.93-2.21-1.1Z"/>
    </g>
    <g>
      <ellipse class="cls-3" cx="439.06" cy="101.9" rx="9.94" ry="8.83"/>
      <path class="cls-7" d="m437.96,108.53c.11.5,4.97,1.16,7.18-1.66,2.48-3.16-.25-8.33-.55-8.28-.24.04,1.08,3.29-.55,6.07-1.86,3.17-6.18,3.38-6.07,3.86Z"/>
      <path class="cls-7" d="m436.85,95.28c-1.72-.27-3.75.59-4.42,2.21-.84,2.05.85,4.49,1.1,4.42.12-.03.07-.59,0-1.1.15-.57.45-1.4,1.1-2.21,1.57-1.93,3.89-2.17,4.42-2.21-.34-.32-1.1-.93-2.21-1.1Z"/>
    </g>
    <rect class="cls-13" x="427" y="211" width="21" height="21" rx="2.48" ry="2.48"/>
    <rect class="cls-9" x="428" y="212" width="19" height="19" rx="2.48" ry="2.48"/>
    <path class="cls-7" d="m429,219c-.11-.01.06-1.18,0-3-.05-1.4-.17-1.64,0-2,.31-.65,1.38-1.29,5-1-.79.02-2.01.18-3,1-1.99,1.66-1.82,5.02-2,5Z"/>
    <rect class="cls-5" x="15.5" y="75" width="31" height="119.5" rx="12.49" ry="12.49" transform="translate(62 269.5) rotate(-180)"/>
    <path class="cls-7" d="m439.85,230.23c.01.11,1.18-.06,3,0,1.4.05,1.64.17,2,0,.65-.31,1.29-1.38,1-5-.02.79-.18,2.01-1,3-1.66,1.99-5.02,1.82-5,2Z"/>
    <rect class="cls-4" x="18.47" y="79.38" width="24.99" height="111.12" rx="12.49" ry="12.49" transform="translate(61.94 269.88) rotate(180)"/>
    <rect class="cls-10" x="18.25" y="100" width="25" height="27"/>
    <rect class="cls-12" x="18.25" y="107.5" width="25" height="12"/>
    <g class="cls-8">
      <rect class="cls-7" x="19" y="109" width="23" height="3"/>
    </g>
  </g>
  <g>
    <path class="cls-14" d="m120.43,61.68v16.13h-2.12v-6.45h-6.35v6.45h-2.12v-16.13h2.12v6.45h6.35v-6.45h2.12Z"/>
    <path class="cls-14" d="m133.15,64.91v12.91h-2.12v-6.45h-6.35v6.45h-2.12v-12.91h2.12v3.23h6.35v-3.23h2.12Zm-8.46-3.23h6.35v3.23h-6.35v-3.23Z"/>
    <path class="cls-14" d="m147.99,61.68v6.45h2.12v-3.23h2.12v9.68h-2.12v-3.23h-2.12v6.45h-2.12v-16.13h2.12Zm4.23,0h2.12v3.23h-2.12v-3.23Zm0,12.91h2.12v3.23h-2.12v-3.23Zm2.12-9.68h2.12v9.68h-2.12v-9.68Z"/>
    <path class="cls-14" d="m158.59,64.91h2.12v12.91h-2.12v-12.91Zm2.12-3.23h6.35v3.23h-6.35v-3.23Zm6.35,3.23h2.12v12.91h-2.12v-12.91Z"/>
    <path class="cls-14" d="m173.42,61.68v9.68h2.12v3.23h-2.12v3.23h-2.12v-16.13h2.12Zm2.12,6.45h2.12v3.23h-2.12v-3.23Zm6.35-6.45v16.13h-2.12v-9.68h-2.12v-3.23h2.12v-3.23h2.12Z"/>
    <path class="cls-14" d="m194.6,61.68v3.23h-4.23v12.91h-2.12v-12.91h-4.23v-3.23h10.58Z"/>
    <path class="cls-14" d="m198.85,64.91v3.23h4.23v3.23h-4.23v3.23h8.46v3.23h-10.58v-12.91h2.12Zm0-3.23h8.46v3.23h-8.46v-3.23Z"/>
    <path class="cls-14" d="m217.91,61.68v3.23h-6.35v3.23h6.35v3.23h-6.35v6.45h-2.12v-16.13h8.46Zm0,3.23h2.12v3.23h-2.12v-3.23Z"/>
    <path class="cls-14" d="m224.28,64.91v3.23h4.23v3.23h-4.23v3.23h8.46v3.23h-10.58v-12.91h2.12Zm0-3.23h8.46v3.23h-8.46v-3.23Z"/>
    <path class="cls-14" d="m253.93,61.68v3.23h-6.35v3.23h6.35v3.23h-6.35v3.23h6.35v3.23h-8.46v-16.13h8.46Zm0,3.23h2.12v3.23h-2.12v-3.23Zm0,6.45h2.12v3.23h-2.12v-3.23Z"/>
    <path class="cls-14" d="m260.3,64.91v3.23h4.23v3.23h-4.23v3.23h8.46v3.23h-10.58v-12.91h2.12Zm0-3.23h8.46v3.23h-8.46v-3.23Z"/>
    <path class="cls-14" d="m281.48,61.68v3.23h-4.23v12.91h-2.12v-12.91h-4.23v-3.23h10.58Z"/>
    <path class="cls-14" d="m292.08,61.68v3.23h-6.35v3.23h6.35v3.23h-6.35v6.45h-2.12v-16.13h8.46Zm0,3.23h2.12v3.23h-2.12v-3.23Z"/>
    <path class="cls-14" d="m306.91,64.91v12.91h-2.12v-6.45h-6.35v6.45h-2.12v-12.91h2.12v3.23h6.35v-3.23h2.12Zm-8.46-3.23h6.35v3.23h-6.35v-3.23Z"/>
    <path class="cls-14" d="m122.55,101.33v16.13h-12.69v-3.23h2.12v-9.68h2.12v-3.23h8.46Zm-2.12,3.23h-6.35v9.68h6.35v-9.68Z"/>
    <path class="cls-14" d="m124.67,101.33h2.12v6.45h-2.12v-6.45Zm0,12.91h8.46v3.23h-8.46v-3.23Zm10.58-12.91v12.91h-2.12v-3.23h-6.35v-3.23h6.35v-6.45h2.12Z"/>
    <path class="cls-14" d="m139.51,101.33v6.45h2.12v-3.23h2.12v9.68h-2.12v-3.23h-2.12v6.45h-2.12v-16.13h2.12Zm4.23,0h2.12v3.23h-2.12v-3.23Zm0,12.91h2.12v3.23h-2.12v-3.23Zm2.12-9.68h2.12v9.68h-2.12v-9.68Z"/>
    <path class="cls-14" d="m160.68,101.33v3.23h-4.23v12.91h-2.12v-12.91h-4.23v-3.23h10.58Z"/>
    <path class="cls-14" d="m183.99,101.33v16.13h-2.12v-6.45h-6.35v6.45h-2.12v-16.13h2.12v6.45h6.35v-6.45h2.12Z"/>
    <path class="cls-14" d="m188.24,104.56v3.23h4.23v3.23h-4.23v3.23h8.46v3.23h-10.58v-12.91h2.12Zm0-3.23h8.46v3.23h-8.46v-3.23Z"/>
    <path class="cls-14" d="m198.84,104.56h2.12v12.91h-2.12v-12.91Zm2.12-3.23h6.35v3.23h-6.35v-3.23Zm6.35,3.23h2.12v12.91h-2.12v-12.91Z"/>
    <path class="cls-14" d="m220.02,101.33v3.23h-6.35v3.23h6.35v3.23h-6.35v6.45h-2.12v-16.13h8.46Zm0,3.23h2.12v3.23h-2.12v-3.23Z"/>
    <path class="cls-14" d="m226.39,104.56v3.23h4.23v3.23h-4.23v3.23h8.46v3.23h-10.58v-12.91h2.12Zm0-3.23h8.46v3.23h-8.46v-3.23Z"/>
    <path class="cls-14" d="m245.45,101.33v3.23h-6.35v3.23h6.35v3.23h-6.35v6.45h-2.12v-16.13h8.46Zm0,3.23h2.12v3.23h-2.12v-3.23Z"/>
    <path class="cls-14" d="m251.82,101.33v6.45h4.23v3.23h-4.23v3.23h4.23v3.23h-6.35v-16.13h2.12Zm8.46,0v16.13h-2.12v-3.23h-2.12v-3.23h2.12v-9.68h2.12Z"/>
    <path class="cls-14" d="m270.88,101.33v3.23h-6.35v3.23h6.35v3.23h-6.35v3.23h6.35v3.23h-8.46v-16.13h8.46Zm0,3.23h2.12v3.23h-2.12v-3.23Zm0,6.45h2.12v3.23h-2.12v-3.23Z"/>
    <path class="cls-14" d="m285.71,101.33v16.13h-2.12v-6.45h-6.35v6.45h-2.12v-16.13h2.12v6.45h6.35v-6.45h2.12Z"/>
    <path class="cls-14" d="m287.85,104.56h2.12v9.68h-2.12v-9.68Zm2.12-3.23h6.35v3.23h-6.35v-3.23Zm0,12.91h6.35v3.23h-6.35v-3.23Zm6.35-9.68h2.12v9.68h-2.12v-9.68Z"/>
    <path class="cls-14" d="m300.56,114.24h2.12v3.23h-2.12v-3.23Zm2.12-3.23h2.12v3.23h-2.12v-3.23Z"/>
    <path class="cls-14" d="m111.97,140.99v9.68h2.12v3.23h-2.12v3.23h-2.12v-16.13h2.12Zm2.12,6.45h2.12v3.23h-2.12v-3.23Zm6.35-6.45v16.13h-2.12v-9.68h-2.12v-3.23h2.12v-3.23h2.12Z"/>
    <path class="cls-14" d="m131.03,140.99v3.23h2.12v3.23h-2.12v-3.23h-8.46v-3.23h8.46Zm-8.46,12.91h8.46v3.23h-8.46v-3.23Zm4.23-6.45h4.23v3.23h-4.23v-3.23Zm4.23,3.23h2.12v3.23h-2.12v-3.23Z"/>
    <path class="cls-14" d="m154.34,140.99v3.23h-6.35v3.23h6.35v3.23h-6.35v6.45h-2.12v-16.13h8.46Zm0,3.23h2.12v3.23h-2.12v-3.23Z"/>
    <path class="cls-14" d="m169.17,144.21v12.91h-2.12v-6.45h-6.35v6.45h-2.12v-12.91h2.12v3.23h6.35v-3.23h2.12Zm-8.46-3.23h6.35v3.23h-6.35v-3.23Z"/>
    <path class="cls-14" d="m173.42,140.99v6.45h4.23v3.23h-4.23v6.45h-2.12v-16.13h2.12Zm4.23,3.23h2.12v3.23h-2.12v-3.23Zm0,6.45h2.12v3.23h-2.12v-3.23Zm2.12-9.68h2.12v3.23h-2.12v-3.23Zm0,12.91h2.12v3.23h-2.12v-3.23Z"/>
    <path class="cls-14" d="m186.14,144.21v3.23h4.23v3.23h-4.23v3.23h8.46v3.23h-10.58v-12.91h2.12Zm0-3.23h8.46v3.23h-8.46v-3.23Z"/>
    <path class="cls-14" d="m207.31,140.99v3.23h-4.23v12.91h-2.12v-12.91h-4.23v-3.23h10.58Z"/>
    <path class="cls-14" d="m211.57,140.99v6.45h4.23v3.23h-4.23v3.23h4.23v3.23h-6.35v-16.13h2.12Zm8.46,0v16.13h-2.12v-3.23h-2.12v-3.23h2.12v-9.68h2.12Z"/>
    <path class="cls-14" d="m243.33,140.99v16.13h-2.12v-6.45h-6.35v6.45h-2.12v-16.13h2.12v6.45h6.35v-6.45h2.12Z"/>
    <path class="cls-14" d="m256.05,144.21v12.91h-2.12v-6.45h-6.35v6.45h-2.12v-12.91h2.12v3.23h6.35v-3.23h2.12Zm-8.46-3.23h6.35v3.23h-6.35v-3.23Z"/>
    <path class="cls-14" d="m260.3,140.99v3.23h2.12v3.23h-2.12v9.68h-2.12v-16.13h2.12Zm2.12,6.45h2.12v3.23h-2.12v-3.23Zm6.35-6.45v16.13h-2.12v-9.68h-2.12v-3.23h2.12v-3.23h2.12Z"/>
    <path class="cls-14" d="m270.9,153.89h2.12v3.23h-2.12v-3.23Zm2.12-3.23h2.12v3.23h-2.12v-3.23Z"/>
    <path class="cls-14" d="m300.54,140.99v16.13h-12.69v-3.23h2.12v-9.68h2.12v-3.23h8.46Zm-2.12,3.23h-6.35v9.68h6.35v-9.68Z"/>
    <path class="cls-14" d="m311.12,140.99v3.23h-6.35v3.23h6.35v3.23h-6.35v6.45h-2.12v-16.13h8.46Zm0,3.23h2.12v3.23h-2.12v-3.23Z"/>
    <path class="cls-14" d="m315.38,140.99h2.12v6.45h-2.12v-6.45Zm0,12.91h8.46v3.23h-8.46v-3.23Zm10.58-12.91v12.91h-2.12v-3.23h-6.35v-3.23h6.35v-6.45h2.12Z"/>
    <path class="cls-14" d="m336.56,140.99v3.23h2.12v3.23h-2.12v-3.23h-8.46v-3.23h8.46Zm-8.46,12.91h8.46v3.23h-8.46v-3.23Zm4.23-6.45h4.23v3.23h-4.23v-3.23Zm4.23,3.23h2.12v3.23h-2.12v-3.23Z"/>
    <path class="cls-14" d="m342.93,140.99v6.45h6.35v3.23h-6.35v3.23h6.35v3.23h-8.46v-16.13h2.12Zm6.35,9.68h2.12v3.23h-2.12v-3.23Z"/>
    <path class="cls-14" d="m364.12,140.99v16.13h-2.12v-6.45h-6.35v6.45h-2.12v-6.45h2.12v-3.23h6.35v-3.23h-6.35v-3.23h8.46Zm-10.58,3.23h2.12v3.23h-2.12v-3.23Z"/>
    <path class="cls-14" d="m366.26,153.89h2.12v3.23h-2.12v-3.23Zm2.12-3.23h2.12v3.23h-2.12v-3.23Z"/>
    <path class="cls-14" d="m120.43,180.64v16.13h-2.12v-6.45h-6.35v6.45h-2.12v-16.13h2.12v6.45h6.35v-6.45h2.12Z"/>
    <path class="cls-14" d="m124.68,180.64v9.68h2.12v3.23h-2.12v3.23h-2.12v-16.13h2.12Zm2.12,6.45h2.12v3.23h-2.12v-3.23Zm6.35-6.45v16.13h-2.12v-9.68h-2.12v-3.23h2.12v-3.23h2.12Z"/>
    <path class="cls-14" d="m135.29,180.64h2.12v6.45h-2.12v-6.45Zm10.58,0v16.13h-2.12v-6.45h-6.35v-3.23h6.35v-6.45h2.12Z"/>
    <path class="cls-14" d="m150.13,183.87v3.23h4.23v3.23h-4.23v3.23h8.46v3.23h-10.58v-12.91h2.12Zm0-3.23h8.46v3.23h-8.46v-3.23Z"/>
    <path class="cls-14" d="m171.3,180.64v3.23h-8.46v12.91h-2.12v-12.91h2.12v-3.23h8.46Z"/>
    <path class="cls-14" d="m173.44,183.87h2.12v9.68h-2.12v-9.68Zm2.12-3.23h6.35v3.23h-6.35v-3.23Zm0,12.91h6.35v3.23h-6.35v-3.23Zm6.35-9.68h2.12v9.68h-2.12v-9.68Z"/>
    <path class="cls-14" d="m207.32,180.64v16.13h-2.12v-6.45h-6.35v6.45h-2.12v-16.13h2.12v6.45h6.35v-6.45h2.12Z"/>
    <path class="cls-14" d="m211.58,183.87v3.23h4.23v3.23h-4.23v3.23h8.46v3.23h-10.58v-12.91h2.12Zm0-3.23h8.46v3.23h-8.46v-3.23Z"/>
    <path class="cls-14" d="m241.23,180.64v3.23h-6.35v3.23h6.35v3.23h-6.35v3.23h6.35v3.23h-8.46v-16.13h8.46Zm0,3.23h2.12v3.23h-2.12v-3.23Zm0,6.45h2.12v3.23h-2.12v-3.23Z"/>
    <path class="cls-14" d="m247.6,180.64v9.68h2.12v3.23h-2.12v3.23h-2.12v-16.13h2.12Zm2.12,6.45h2.12v3.23h-2.12v-3.23Zm6.35-6.45v16.13h-2.12v-9.68h-2.12v-3.23h2.12v-3.23h2.12Z"/>
    <path class="cls-14" d="m270.89,180.64v16.13h-12.69v-3.23h2.12v-9.68h2.12v-3.23h8.46Zm-2.12,3.23h-6.35v9.68h6.35v-9.68Z"/>
    <path class="cls-14" d="m283.58,180.64v16.13h-2.12v-6.45h-6.35v6.45h-2.12v-16.13h2.12v6.45h6.35v-6.45h2.12Z"/>
    <path class="cls-14" d="m285.72,183.87h2.12v9.68h-2.12v-9.68Zm2.12-3.23h6.35v3.23h-6.35v-3.23Zm0,12.91h6.35v3.23h-6.35v-3.23Zm6.35-9.68h2.12v9.68h-2.12v-9.68Z"/>
  </g>
</svg>