<?xml version="1.0" encoding="UTF-8"?>
<svg id="_Слой_1" data-name="Слой 1" xmlns="http://www.w3.org/2000/svg" viewBox="0 0 500 500">
  <defs>
    <style>
      .cls-1 {
        fill: #efe63a;
      }

      .cls-1, .cls-2, .cls-3 {
        stroke: #b3b3b3;
        stroke-width: .5px;
      }

      .cls-1, .cls-2, .cls-3, .cls-4, .cls-5, .cls-6 {
        stroke-miterlimit: 10;
      }

      .cls-7 {
        fill: #fff;
      }

      .cls-8 {
        opacity: .6;
      }

      .cls-9 {
        fill: #fe0104;
      }

      .cls-2 {
        fill: #97ed3b;
      }

      .cls-10 {
        fill: #054e77;
      }

      .cls-11 {
        fill: #193c1b;
      }

      .cls-3 {
        fill: #3b95ed;
      }

      .cls-12 {
        fill: #0071bc;
      }

      .cls-13 {
        fill: #231617;
        opacity: .28;
      }

      .cls-4 {
        fill: gray;
      }

      .cls-4, .cls-5, .cls-6 {
        stroke: #999;
      }

      .cls-5 {
        fill: #666;
      }

      .cls-14 {
        fill: #18f416;
      }

      .cls-6 {
        fill: #f2f2f2;
      }
    </style>
  </defs>
  <g>
    <rect class="cls-6" x="22.5" y="106.11" width="457" height="263.78" rx="12.49" ry="12.49"/>
    <rect class="cls-11" x="67.28" y="128.81" width="369.22" height="218.37" rx="12.49" ry="12.49"/>
    <g>
      <ellipse class="cls-1" cx="455.45" cy="150.68" rx="9.94" ry="8.83"/>
      <path class="cls-7" d="m454.35,157.31c.11.5,4.97,1.16,7.18-1.66,2.48-3.16-.25-8.33-.55-8.28-.24.04,1.08,3.29-.55,6.07-1.86,3.17-6.18,3.38-6.07,3.86Z"/>
      <path class="cls-7" d="m453.24,144.06c-1.72-.27-3.75.59-4.42,2.21-.84,2.05.85,4.49,1.1,4.42.12-.03.07-.59,0-1.1.15-.57.45-1.4,1.1-2.21,1.57-1.93,3.89-2.17,4.42-2.21-.34-.32-1.1-.93-2.21-1.1Z"/>
    </g>
    <g>
      <ellipse class="cls-2" cx="455.77" cy="179.28" rx="9.94" ry="8.83"/>
      <path class="cls-7" d="m454.67,185.9c.11.5,4.97,1.16,7.18-1.66,2.48-3.16-.25-8.33-.55-8.28-.24.04,1.08,3.29-.55,6.07-1.86,3.17-6.18,3.38-6.07,3.86Z"/>
      <path class="cls-7" d="m453.56,172.65c-1.72-.27-3.75.59-4.42,2.21-.84,2.05.85,4.49,1.1,4.42.12-.03.07-.59,0-1.1.15-.57.45-1.4,1.1-2.21,1.57-1.93,3.89-2.17,4.42-2.21-.34-.32-1.1-.93-2.21-1.1Z"/>
    </g>
    <g>
      <ellipse class="cls-3" cx="456.06" cy="204.9" rx="9.94" ry="8.83"/>
      <path class="cls-7" d="m454.96,211.53c.11.5,4.97,1.16,7.18-1.66,2.48-3.16-.25-8.33-.55-8.28-.24.04,1.08,3.29-.55,6.07-1.86,3.17-6.18,3.38-6.07,3.86Z"/>
      <path class="cls-7" d="m453.85,198.28c-1.72-.27-3.75.59-4.42,2.21-.84,2.05.85,4.49,1.1,4.42.12-.03.07-.59,0-1.1.15-.57.45-1.4,1.1-2.21,1.57-1.93,3.89-2.17,4.42-2.21-.34-.32-1.1-.93-2.21-1.1Z"/>
    </g>
    <rect class="cls-13" x="444" y="314" width="21" height="21" rx="2.48" ry="2.48"/>
    <rect class="cls-9" x="445" y="315" width="19" height="19" rx="2.48" ry="2.48"/>
    <path class="cls-7" d="m446,322c-.11-.01.06-1.18,0-3-.05-1.4-.17-1.64,0-2,.31-.65,1.38-1.29,5-1-.79.02-2.01.18-3,1-1.99,1.66-1.82,5.02-2,5Z"/>
    <rect class="cls-5" x="32.5" y="178" width="31" height="119.5" rx="12.49" ry="12.49" transform="translate(96 475.5) rotate(-180)"/>
    <path class="cls-7" d="m456.85,333.23c.01.11,1.18-.06,3,0,1.4.05,1.64.17,2,0,.65-.31,1.29-1.38,1-5-.02.79-.18,2.01-1,3-1.66,1.99-5.02,1.82-5,2Z"/>
    <rect class="cls-4" x="35.47" y="182.38" width="24.99" height="111.12" rx="12.49" ry="12.49" transform="translate(95.94 475.88) rotate(180)"/>
    <rect class="cls-10" x="35.25" y="203" width="25" height="27"/>
    <rect class="cls-12" x="35.25" y="210.5" width="25" height="12"/>
    <g class="cls-8">
      <rect class="cls-7" x="36" y="212" width="23" height="3"/>
    </g>
  </g>
  <g>
    <path class="cls-14" d="m109.88,153.55v18.72h-2.6v-7.49h-7.82v7.49h-2.6v-18.72h2.6v7.49h7.82v-7.49h2.6Z"/>
    <path class="cls-14" d="m115.12,157.29v3.74h5.21v3.74h-5.21v3.74h10.42v3.74h-13.03v-14.97h2.6Zm0-3.74h10.42v3.74h-10.42v-3.74Z"/>
    <path class="cls-14" d="m128.17,157.29h2.6v14.97h-2.6v-14.97Zm2.6-3.74h7.82v3.74h-7.82v-3.74Zm7.82,3.74h2.6v14.97h-2.6v-14.97Z"/>
    <path class="cls-14" d="m156.85,153.55v3.74h-5.21v14.97h-2.61v-14.97h-5.21v-3.74h13.03Z"/>
    <path class="cls-14" d="m159.49,153.55h2.6v7.49h-2.6v-7.49Zm0,14.97h10.42v3.74h-10.42v-3.74Zm13.03-14.97v14.97h-2.6v-3.74h-7.82v-3.74h7.82v-7.49h2.6Z"/>
    <path class="cls-14" d="m188.18,153.55v18.72h-2.6v-7.49h-7.82v7.49h-2.6v-18.72h2.6v7.49h7.82v-7.49h2.6Z"/>
    <path class="cls-14" d="m190.82,153.55h2.6v7.49h-2.6v-7.49Zm0,14.97h10.42v3.74h-10.42v-3.74Zm13.03-14.97v14.97h-2.6v-3.74h-7.82v-3.74h7.82v-7.49h2.6Z"/>
    <path class="cls-14" d="m222.12,153.55v11.23h2.6v3.74h-2.6v3.74h-2.6v-18.72h2.6Zm2.6,7.49h2.61v3.74h-2.61v-3.74Zm7.82-7.49v18.72h-2.6v-11.23h-2.6v-3.74h2.6v-3.74h2.6Z"/>
    <path class="cls-14" d="m248.22,153.55h2.6v7.49h-2.6v-7.49Zm0,14.97h10.42v3.74h-10.42v-3.74Zm13.02-14.97v14.97h-2.6v-3.74h-7.82v-3.74h7.82v-7.49h2.6Z"/>
    <path class="cls-14" d="m274.3,153.55v3.74h-7.81v3.74h7.81v3.74h-7.81v7.49h-2.61v-18.72h10.42Zm0,3.74h2.61v3.74h-2.61v-3.74Z"/>
    <path class="cls-14" d="m292.56,157.29v14.97h-2.61v-7.49h-7.81v7.49h-2.61v-14.97h2.61v3.74h7.81v-3.74h2.61Zm-10.42-3.74h7.81v3.74h-7.81v-3.74Z"/>
    <path class="cls-14" d="m308.22,153.55v18.72h-2.61v-7.49h-7.81v7.49h-2.61v-18.72h2.61v7.49h7.81v-7.49h2.61Z"/>
    <path class="cls-14" d="m310.86,153.55h2.61v7.49h-2.61v-7.49Zm0,14.97h10.42v3.74h-10.42v-3.74Zm13.03-14.97v14.97h-2.6v-3.74h-7.82v-3.74h7.82v-7.49h2.6Z"/>
    <path class="cls-14" d="m339.56,168.52h2.61v3.74h-2.61v-3.74Zm2.61-3.74h2.6v3.74h-2.6v-3.74Z"/>
    <path class="cls-14" d="m107.27,199.55v3.74h-7.82v3.74h7.82v3.74h-7.82v7.49h-2.6v-18.72h10.42Zm0,3.74h2.6v3.74h-2.6v-3.74Z"/>
    <path class="cls-14" d="m115.12,203.29v3.74h5.21v3.74h-5.21v3.74h10.42v3.74h-13.03v-14.97h2.6Zm0-3.74h10.42v3.74h-10.42v-3.74Z"/>
    <path class="cls-14" d="m138.59,199.55v3.74h-7.82v3.74h7.82v3.74h-7.82v3.74h7.82v3.74h-10.42v-18.72h10.42Zm0,11.23h2.6v3.74h-2.6v-3.74Z"/>
    <path class="cls-14" d="m156.86,199.55v18.72h-2.6v-7.49h-7.82v7.49h-2.6v-7.49h2.6v-3.74h7.82v-3.74h-7.82v-3.74h10.42Zm-13.03,3.74h2.6v3.74h-2.6v-3.74Z"/>
    <path class="cls-14" d="m172.52,199.55v3.74h-5.21v14.97h-2.61v-14.97h-5.21v-3.74h13.03Z"/>
    <path class="cls-14" d="m188.18,203.29v14.97h-2.6v-7.49h-7.82v7.49h-2.6v-14.97h2.6v3.74h7.82v-3.74h2.6Zm-10.42-3.74h7.82v3.74h-7.82v-3.74Z"/>
    <path class="cls-14" d="m190.81,214.52h2.6v3.74h-2.6v-3.74Zm2.6-3.74h2.6v3.74h-2.6v-3.74Z"/>
    <path class="cls-14" d="m224.7,199.55v18.72h-2.6v-7.49h-7.82v7.49h-2.6v-18.72h2.6v7.49h7.82v-7.49h2.6Z"/>
    <path class="cls-14" d="m229.93,203.29v3.74h5.21v3.74h-5.21v3.74h10.42v3.74h-13.03v-14.97h2.6Zm0-3.74h10.42v3.74h-10.42v-3.74Z"/>
    <path class="cls-14" d="m242.99,207.03h2.6v11.23h-2.6v-11.23Zm2.6-3.74h2.6v3.74h-2.6v-3.74Zm10.42-3.74v18.72h-2.61v-14.97h-5.21v-3.74h7.82Z"/>
    <path class="cls-14" d="m261.25,203.29v3.74h5.21v3.74h-5.21v3.74h10.42v3.74h-13.03v-14.97h2.61Zm0-3.74h10.42v3.74h-10.42v-3.74Z"/>
    <path class="cls-14" d="m287.32,199.55v3.74h-10.42v14.97h-2.61v-14.97h2.61v-3.74h10.42Z"/>
    <path class="cls-14" d="m292.56,199.55v7.49h5.21v3.74h-5.21v7.49h-2.61v-18.72h2.61Zm5.21,3.74h2.6v3.74h-2.6v-3.74Zm0,7.49h2.6v3.74h-2.6v-3.74Zm2.6-11.23h2.61v3.74h-2.61v-3.74Zm0,14.97h2.61v3.74h-2.61v-3.74Z"/>
    <path class="cls-14" d="m305.61,203.29h2.61v11.23h-2.61v-11.23Zm2.61-3.74h7.81v3.74h-7.81v-3.74Zm0,14.97h7.81v3.74h-7.81v-3.74Zm7.81-11.23h2.61v11.23h-2.61v-11.23Z"/>
    <path class="cls-14" d="m321.27,214.52h2.61v3.74h-2.61v-3.74Zm2.61-3.74h2.6v3.74h-2.6v-3.74Z"/>
    <path class="cls-14" d="m107.27,245.54v3.74h-7.82v3.74h7.82v3.74h-7.82v3.74h7.82v3.74h-10.42v-18.72h10.42Zm0,3.74h2.6v3.74h-2.6v-3.74Zm0,7.49h2.6v3.74h-2.6v-3.74Z"/>
    <path class="cls-14" d="m115.12,249.29v3.74h5.21v3.74h-5.21v3.74h10.42v3.74h-13.03v-14.97h2.6Zm0-3.74h10.42v3.74h-10.42v-3.74Z"/>
    <path class="cls-14" d="m143.8,245.54v18.72h-15.63v-3.74h2.6v-11.23h2.6v-3.74h10.42Zm-2.6,3.74h-7.82v11.23h7.82v-11.23Z"/>
    <path class="cls-14" d="m149.01,245.54v7.49h7.82v3.74h-7.82v3.74h7.82v3.74h-10.42v-18.72h2.6Zm7.82,11.23h2.6v3.74h-2.6v-3.74Z"/>
    <path class="cls-14" d="m175.1,249.29h2.6v11.23h-2.6v-11.23Zm2.6-3.74h7.82v3.74h-7.82v-3.74Zm0,14.97h7.82v3.74h-7.82v-3.74Zm7.82-11.23h2.6v11.23h-2.6v-11.23Z"/>
    <path class="cls-14" d="m203.78,245.54v18.72h-2.6v-7.49h-7.82v7.49h-2.6v-18.72h2.6v7.49h7.82v-7.49h2.6Z"/>
    <path class="cls-14" d="m209.02,245.54v11.23h2.6v3.74h-2.6v3.74h-2.6v-18.72h2.6Zm2.6,7.49h2.61v3.74h-2.61v-3.74Zm7.82-7.49v18.72h-2.6v-11.23h-2.6v-3.74h2.6v-3.74h2.6Z"/>
    <path class="cls-14" d="m235.11,249.29h2.6v11.23h-2.6v-11.23Zm2.6-3.74h7.82v3.74h-7.82v-3.74Zm0,14.97h7.82v3.74h-7.82v-3.74Zm7.82-11.23h2.6v11.23h-2.6v-11.23Z"/>
    <path class="cls-14" d="m263.79,245.54v3.74h-5.21v14.97h-2.61v-14.97h-5.21v-3.74h13.02Z"/>
    <path class="cls-14" d="m279.46,249.29h2.61v11.23h-2.61v-11.23Zm2.61-3.74h7.81v3.74h-7.81v-3.74Zm0,14.97h7.81v3.74h-7.81v-3.74Zm7.81-11.23h2.61v3.74h-2.61v-3.74Zm0,7.49h2.61v3.74h-2.61v-3.74Z"/>
    <path class="cls-14" d="m295.11,249.29h2.61v11.23h-2.61v-11.23Zm2.61-3.74h7.81v3.74h-7.81v-3.74Zm0,14.97h7.81v3.74h-7.81v-3.74Zm7.81-11.23h2.61v11.23h-2.61v-11.23Z"/>
    <path class="cls-14" d="m310.77,253.03h2.61v11.23h-2.61v-11.23Zm2.61-3.74h2.6v3.74h-2.6v-3.74Zm10.42-3.74v18.72h-2.61v-14.97h-5.21v-3.74h7.82Z"/>
    <path class="cls-14" d="m339.45,245.54v18.72h-2.61v-7.49h-7.81v7.49h-2.61v-18.72h2.61v7.49h7.81v-7.49h2.61Z"/>
    <path class="cls-14" d="m342.08,245.54h2.61v14.97h-2.61v-14.97Zm13.03,0v14.97h2.61v3.74h-13.03v-3.74h7.81v-14.97h2.61Z"/>
    <path class="cls-14" d="m373.33,249.29v14.97h-2.61v-7.49h-7.81v7.49h-2.61v-14.97h2.61v3.74h7.81v-3.74h2.61Zm-10.42-3.74h7.81v3.74h-7.81v-3.74Z"/>
    <path class="cls-14" d="m96.85,295.28h2.6v11.23h-2.6v-11.23Zm2.6-3.74h7.82v3.74h-7.82v-3.74Zm0,14.97h7.82v3.74h-7.82v-3.74Zm7.82-11.23h2.6v11.23h-2.6v-11.23Z"/>
    <path class="cls-14" d="m112.52,291.54h2.6v7.49h-2.6v-7.49Zm13.03,0v18.72h-2.6v-7.49h-7.82v-3.74h7.82v-7.49h2.6Z"/>
    <path class="cls-14" d="m130.79,295.28v3.74h5.21v3.74h-5.21v3.74h10.42v3.74h-13.03v-14.97h2.6Zm0-3.74h10.42v3.74h-10.42v-3.74Z"/>
    <path class="cls-14" d="m156.86,291.54v18.72h-2.6v-7.49h-7.82v7.49h-2.6v-18.72h2.6v7.49h7.82v-7.49h2.6Z"/>
    <path class="cls-14" d="m162.1,291.54v7.49h7.82v3.74h-7.82v3.74h7.82v3.74h-10.42v-18.72h2.6Zm7.82,11.23h2.6v3.74h-2.6v-3.74Z"/>
    <path class="cls-14" d="m203.82,291.54v18.72h-15.63v-3.74h2.6v-11.23h2.6v-3.74h10.42Zm-2.6,3.74h-7.82v11.23h7.82v-11.23Z"/>
    <path class="cls-14" d="m219.45,295.28v14.97h-2.6v-7.49h-7.82v7.49h-2.6v-14.97h2.6v3.74h7.82v-3.74h2.6Zm-10.42-3.74h7.82v3.74h-7.82v-3.74Z"/>
    <path class="cls-14" d="m222.08,299.03h2.6v11.23h-2.6v-11.23Zm2.6-3.74h2.6v3.74h-2.6v-3.74Zm10.42-3.74v18.72h-2.6v-14.97h-5.21v-3.74h7.82Z"/>
    <path class="cls-14" d="m240.34,295.28v3.74h5.21v3.74h-5.21v3.74h10.42v3.74h-13.03v-14.97h2.6Zm0-3.74h10.42v3.74h-10.42v-3.74Z"/>
    <path class="cls-14" d="m256,291.54v7.49h5.21v3.74h-5.21v7.49h-2.61v-18.72h2.61Zm5.21,3.74h2.6v3.74h-2.6v-3.74Zm0,7.49h2.6v3.74h-2.6v-3.74Zm2.6-11.23h2.61v3.74h-2.61v-3.74Zm0,14.97h2.61v3.74h-2.61v-3.74Z"/>
    <path class="cls-14" d="m269.05,295.28h2.61v11.23h-2.61v-11.23Zm2.61-3.74h7.81v3.74h-7.81v-3.74Zm0,14.97h7.81v3.74h-7.81v-3.74Zm7.81-11.23h2.61v11.23h-2.61v-11.23Z"/>
  </g>
</svg>