<?xml version="1.0" encoding="UTF-8"?>
<svg id="_Слой_1" data-name="Слой 1" xmlns="http://www.w3.org/2000/svg" viewBox="0 0 472 272">
  <defs>
    <style>
      .cls-1 {
        fill: #efe63a;
      }

      .cls-1, .cls-2, .cls-3 {
        stroke: #b3b3b3;
        stroke-width: .5px;
      }

      .cls-1, .cls-2, .cls-3, .cls-4, .cls-5, .cls-6 {
        stroke-miterlimit: 10;
      }

      .cls-7 {
        fill: #fff;
      }

      .cls-8 {
        opacity: .6;
      }

      .cls-9 {
        fill: #fe0104;
      }

      .cls-2 {
        fill: #97ed3b;
      }

      .cls-10 {
        fill: #054e77;
      }

      .cls-11 {
        fill: #193c1b;
      }

      .cls-3 {
        fill: #3b95ed;
      }

      .cls-12 {
        fill: #0071bc;
      }

      .cls-13 {
        fill: #231617;
        opacity: .28;
      }

      .cls-4 {
        fill: gray;
      }

      .cls-4, .cls-5, .cls-6 {
        stroke: #999;
      }

      .cls-5 {
        fill: #666;
      }

      .cls-14 {
        fill: #18f416;
      }

      .cls-6 {
        fill: #f2f2f2;
      }
    </style>
  </defs>
  <g>
    <rect class="cls-6" x="5.5" y="3.11" width="457" height="263.78" rx="12.49" ry="12.49"/>
    <rect class="cls-11" x="50.28" y="25.81" width="369.22" height="218.37" rx="12.49" ry="12.49"/>
    <g>
      <ellipse class="cls-1" cx="438.45" cy="47.68" rx="9.94" ry="8.83"/>
      <path class="cls-7" d="m437.35,54.31c.11.5,4.97,1.16,7.18-1.66,2.48-3.16-.25-8.33-.55-8.28-.24.04,1.08,3.29-.55,6.07-1.86,3.17-6.18,3.38-6.07,3.86Z"/>
      <path class="cls-7" d="m436.24,41.06c-1.72-.27-3.75.59-4.42,2.21-.84,2.05.85,4.49,1.1,4.42.12-.03.07-.59,0-1.1.15-.57.45-1.4,1.1-2.21,1.57-1.93,3.89-2.17,4.42-2.21-.34-.32-1.1-.93-2.21-1.1Z"/>
    </g>
    <g>
      <ellipse class="cls-2" cx="438.77" cy="76.28" rx="9.94" ry="8.83"/>
      <path class="cls-7" d="m437.67,82.9c.11.5,4.97,1.16,7.18-1.66,2.48-3.16-.25-8.33-.55-8.28-.24.04,1.08,3.29-.55,6.07-1.86,3.17-6.18,3.38-6.07,3.86Z"/>
      <path class="cls-7" d="m436.56,69.65c-1.72-.27-3.75.59-4.42,2.21-.84,2.05.85,4.49,1.1,4.42.12-.03.07-.59,0-1.1.15-.57.45-1.4,1.1-2.21,1.57-1.93,3.89-2.17,4.42-2.21-.34-.32-1.1-.93-2.21-1.1Z"/>
    </g>
    <g>
      <ellipse class="cls-3" cx="439.06" cy="101.9" rx="9.94" ry="8.83"/>
      <path class="cls-7" d="m437.96,108.53c.11.5,4.97,1.16,7.18-1.66,2.48-3.16-.25-8.33-.55-8.28-.24.04,1.08,3.29-.55,6.07-1.86,3.17-6.18,3.38-6.07,3.86Z"/>
      <path class="cls-7" d="m436.85,95.28c-1.72-.27-3.75.59-4.42,2.21-.84,2.05.85,4.49,1.1,4.42.12-.03.07-.59,0-1.1.15-.57.45-1.4,1.1-2.21,1.57-1.93,3.89-2.17,4.42-2.21-.34-.32-1.1-.93-2.21-1.1Z"/>
    </g>
    <rect class="cls-13" x="427" y="211" width="21" height="21" rx="2.48" ry="2.48"/>
    <rect class="cls-9" x="428" y="212" width="19" height="19" rx="2.48" ry="2.48"/>
    <path class="cls-7" d="m429,219c-.11-.01.06-1.18,0-3-.05-1.4-.17-1.64,0-2,.31-.65,1.38-1.29,5-1-.79.02-2.01.18-3,1-1.99,1.66-1.82,5.02-2,5Z"/>
    <rect class="cls-5" x="15.5" y="75" width="31" height="119.5" rx="12.49" ry="12.49" transform="translate(62 269.5) rotate(-180)"/>
    <path class="cls-7" d="m439.85,230.23c.01.11,1.18-.06,3,0,1.4.05,1.64.17,2,0,.65-.31,1.29-1.38,1-5-.02.79-.18,2.01-1,3-1.66,1.99-5.02,1.82-5,2Z"/>
    <rect class="cls-4" x="18.47" y="79.38" width="24.99" height="111.12" rx="12.49" ry="12.49" transform="translate(61.94 269.88) rotate(180)"/>
    <rect class="cls-10" x="18.25" y="100" width="25" height="27"/>
    <rect class="cls-12" x="18.25" y="107.5" width="25" height="12"/>
    <g class="cls-8">
      <rect class="cls-7" x="19" y="109" width="23" height="3"/>
    </g>
  </g>
  <g>
    <path class="cls-14" d="m82.32,68.68v3.23h-6.35v3.23h6.35v3.23h-6.35v3.23h6.35v3.23h-8.46v-16.13h8.46Zm0,3.23h2.12v3.23h-2.12v-3.23Zm0,6.45h2.12v3.23h-2.12v-3.23Z"/>
    <path class="cls-14" d="m86.57,71.91h2.12v9.68h-2.12v-9.68Zm2.12-3.23h6.35v3.23h-6.35v-3.23Zm0,12.91h6.35v3.23h-6.35v-3.23Zm6.35-9.68h2.12v3.23h-2.12v-3.23Zm0,6.45h2.12v3.23h-2.12v-3.23Z"/>
    <path class="cls-14" d="m101.4,71.91v3.23h4.23v3.23h-4.23v3.23h8.46v3.23h-10.58v-12.91h2.12Zm0-3.23h8.46v3.23h-8.46v-3.23Z"/>
    <path class="cls-14" d="m122.59,71.91h2.12v12.91h-2.12v-12.91Zm2.12-3.23h6.35v3.23h-6.35v-3.23Zm6.35,3.23h2.12v12.91h-2.12v-12.91Z"/>
    <path class="cls-14" d="m135.3,75.14h2.12v9.68h-2.12v-9.68Zm2.12-3.23h2.12v3.23h-2.12v-3.23Zm8.46-3.23v16.13h-2.12v-12.91h-4.23v-3.23h6.35Z"/>
    <path class="cls-14" d="m158.6,71.91v12.91h-2.12v-6.45h-6.35v6.45h-2.12v-12.91h2.12v3.23h6.35v-3.23h2.12Zm-8.46-3.23h6.35v3.23h-6.35v-3.23Z"/>
    <path class="cls-14" d="m171.31,68.68v16.13h-2.12v-6.45h-6.35v6.45h-2.12v-16.13h2.12v6.45h6.35v-6.45h2.12Z"/>
    <path class="cls-14" d="m175.57,71.91v3.23h4.23v3.23h-4.23v3.23h8.46v3.23h-10.58v-12.91h2.12Zm0-3.23h8.46v3.23h-8.46v-3.23Z"/>
    <path class="cls-14" d="m196.74,68.68v3.23h-4.23v12.91h-2.12v-12.91h-4.23v-3.23h10.58Z"/>
    <path class="cls-14" d="m201,68.68v6.45h4.23v3.23h-4.23v3.23h4.23v3.23h-6.35v-16.13h2.12Zm8.46,0v16.13h-2.12v-3.23h-2.12v-3.23h2.12v-9.68h2.12Z"/>
    <path class="cls-14" d="m222.19,71.91h2.12v12.91h-2.12v-12.91Zm2.12-3.23h6.35v3.23h-6.35v-3.23Zm6.35,3.23h2.12v12.91h-2.12v-12.91Z"/>
    <path class="cls-14" d="m243.36,68.68v3.23h-6.35v3.23h6.35v3.23h-6.35v6.45h-2.12v-16.13h8.46Zm0,3.23h2.12v3.23h-2.12v-3.23Z"/>
    <path class="cls-14" d="m247.62,71.91h2.12v9.68h-2.12v-9.68Zm2.12-3.23h6.35v3.23h-6.35v-3.23Zm0,12.91h6.35v3.23h-6.35v-3.23Zm6.35-9.68h2.12v9.68h-2.12v-9.68Z"/>
    <path class="cls-14" d="m260.33,75.14h2.12v9.68h-2.12v-9.68Zm2.12-3.23h2.12v3.23h-2.12v-3.23Zm8.46-3.23v16.13h-2.12v-12.91h-4.23v-3.23h6.35Z"/>
    <path class="cls-14" d="m275.16,71.91v3.23h4.23v3.23h-4.23v3.23h8.46v3.23h-10.58v-12.91h2.12Zm0-3.23h8.46v3.23h-8.46v-3.23Z"/>
    <path class="cls-14" d="m296.34,68.68v3.23h-4.23v12.91h-2.12v-12.91h-4.23v-3.23h10.58Z"/>
    <path class="cls-14" d="m300.59,71.91v3.23h4.23v3.23h-4.23v3.23h8.46v3.23h-10.58v-12.91h2.12Zm0-3.23h8.46v3.23h-8.46v-3.23Z"/>
    <path class="cls-14" d="m311.19,75.14h2.12v9.68h-2.12v-9.68Zm2.12-3.23h2.12v3.23h-2.12v-3.23Zm8.46-3.23v16.13h-2.12v-12.91h-4.23v-3.23h6.35Z"/>
    <path class="cls-14" d="m326.02,68.68v9.68h2.12v3.23h-2.12v3.23h-2.12v-16.13h2.12Zm2.12,6.45h2.12v3.23h-2.12v-3.23Zm6.35-6.45v16.13h-2.12v-9.68h-2.12v-3.23h2.12v-3.23h2.12Z"/>
    <path class="cls-14" d="m336.62,81.59h2.12v3.23h-2.12v-3.23Zm2.12-3.23h2.12v3.23h-2.12v-3.23Z"/>
    <path class="cls-14" d="m75.97,108.33v9.68h2.12v3.23h-2.12v3.23h-2.12v-16.13h2.12Zm2.12,6.45h2.12v3.23h-2.12v-3.23Zm6.35-6.45v16.13h-2.12v-9.68h-2.12v-3.23h2.12v-3.23h2.12Z"/>
    <path class="cls-14" d="m105.62,108.33v3.23h-6.35v3.23h6.35v3.23h-6.35v6.45h-2.12v-16.13h8.46Zm0,3.23h2.12v3.23h-2.12v-3.23Z"/>
    <path class="cls-14" d="m111.99,111.56v3.23h4.23v3.23h-4.23v3.23h8.46v3.23h-10.58v-12.91h2.12Zm0-3.23h8.46v3.23h-8.46v-3.23Z"/>
    <path class="cls-14" d="m122.59,108.33h2.12v12.91h-2.12v-12.91Zm10.58,0v16.13h-8.46v-3.23h2.12v-12.91h2.12v12.91h2.12v-12.91h2.12Z"/>
    <path class="cls-14" d="m137.42,108.33v9.68h2.12v3.23h-2.12v3.23h-2.12v-16.13h2.12Zm2.12,6.45h2.12v3.23h-2.12v-3.23Zm6.35-6.45v16.13h-2.12v-9.68h-2.12v-3.23h2.12v-3.23h2.12Z"/>
    <path class="cls-14" d="m148.02,114.79h2.12v9.68h-2.12v-9.68Zm2.12-3.23h2.12v3.23h-2.12v-3.23Zm8.46-3.23v16.13h-2.12v-12.91h-4.23v-3.23h6.35Z"/>
    <path class="cls-14" d="m162.85,108.33v9.68h2.12v3.23h-2.12v3.23h-2.12v-16.13h2.12Zm2.12,6.45h2.12v3.23h-2.12v-3.23Zm6.35-6.45v16.13h-2.12v-9.68h-2.12v-3.23h2.12v-3.23h2.12Z"/>
    <path class="cls-14" d="m186.16,108.33v3.23h2.12v3.23h-2.12v9.68h-2.12v-16.13h2.12Zm2.12,6.45h2.12v3.23h-2.12v-3.23Zm6.35-6.45v16.13h-2.12v-9.68h-2.12v-3.23h2.12v-3.23h2.12Z"/>
    <path class="cls-14" d="m198.87,108.33v6.45h4.23v3.23h-4.23v3.23h4.23v3.23h-6.35v-16.13h2.12Zm8.46,0v16.13h-2.12v-3.23h-2.12v-3.23h2.12v-9.68h2.12Z"/>
    <path class="cls-14" d="m209.47,121.24h2.12v3.23h-2.12v-3.23Zm2.12-3.23h2.12v3.23h-2.12v-3.23Z"/>
    <path class="cls-14" d="m239.11,108.33v16.13h-12.69v-3.23h2.12v-9.68h2.12v-3.23h8.46Zm-2.12,3.23h-6.35v9.68h6.35v-9.68Z"/>
    <path class="cls-14" d="m249.69,108.33v3.23h-6.35v3.23h6.35v3.23h-6.35v6.45h-2.12v-16.13h8.46Zm0,3.23h2.12v3.23h-2.12v-3.23Z"/>
    <path class="cls-14" d="m253.95,108.33h2.12v6.45h-2.12v-6.45Zm0,12.91h8.46v3.23h-8.46v-3.23Zm10.58-12.91v12.91h-2.12v-3.23h-6.35v-3.23h6.35v-6.45h2.12Z"/>
    <path class="cls-14" d="m275.13,108.33v3.23h2.12v3.23h-2.12v-3.23h-8.46v-3.23h8.46Zm-8.46,12.91h8.46v3.23h-8.46v-3.23Zm4.23-6.45h4.23v3.23h-4.23v-3.23Zm4.23,3.23h2.12v3.23h-2.12v-3.23Z"/>
    <path class="cls-14" d="m281.5,108.33v6.45h6.35v3.23h-6.35v3.23h6.35v3.23h-8.46v-16.13h2.12Zm6.35,9.68h2.12v3.23h-2.12v-3.23Z"/>
    <path class="cls-14" d="m302.69,108.33v16.13h-2.12v-6.45h-6.35v6.45h-2.12v-6.45h2.12v-3.23h6.35v-3.23h-6.35v-3.23h8.46Zm-10.58,3.23h2.12v3.23h-2.12v-3.23Z"/>
    <path class="cls-14" d="m304.83,121.24h2.12v3.23h-2.12v-3.23Zm2.12-3.23h2.12v3.23h-2.12v-3.23Z"/>
    <path class="cls-14" d="m73.86,147.99h2.12v6.45h-2.12v-6.45Zm10.58,0v16.13h-2.12v-6.45h-6.35v-3.23h6.35v-6.45h2.12Z"/>
    <path class="cls-14" d="m97.16,147.99v3.23h-4.23v12.91h-2.12v-12.91h-4.23v-3.23h10.58Z"/>
    <path class="cls-14" d="m99.29,151.21h2.12v9.68h-2.12v-9.68Zm2.12-3.23h6.35v3.23h-6.35v-3.23Zm0,12.91h6.35v3.23h-6.35v-3.23Zm6.35-9.68h2.12v9.68h-2.12v-9.68Z"/>
    <path class="cls-14" d="m122.6,151.21h2.12v12.91h-2.12v-12.91Zm2.12-3.23h6.35v3.23h-6.35v-3.23Zm6.35,3.23h2.12v12.91h-2.12v-12.91Z"/>
    <path class="cls-14" d="m143.78,147.99v3.23h-6.35v3.23h6.35v3.23h-6.35v6.45h-2.12v-16.13h8.46Zm0,3.23h2.12v3.23h-2.12v-3.23Z"/>
    <path class="cls-14" d="m150.15,151.21v3.23h4.23v3.23h-4.23v3.23h8.46v3.23h-10.58v-12.91h2.12Zm0-3.23h8.46v3.23h-8.46v-3.23Z"/>
    <path class="cls-14" d="m162.86,147.99v6.45h4.23v3.23h-4.23v6.45h-2.12v-16.13h2.12Zm4.23,3.23h2.12v3.23h-2.12v-3.23Zm0,6.45h2.12v3.23h-2.12v-3.23Zm2.12-9.68h2.12v3.23h-2.12v-3.23Zm0,12.91h2.12v3.23h-2.12v-3.23Z"/>
    <path class="cls-14" d="m181.92,147.99v3.23h-6.35v3.23h6.35v3.23h-6.35v6.45h-2.12v-16.13h8.46Zm0,3.23h2.12v3.23h-2.12v-3.23Z"/>
    <path class="cls-14" d="m196.75,151.21v12.91h-2.12v-6.45h-6.35v6.45h-2.12v-12.91h2.12v3.23h6.35v-3.23h2.12Zm-8.46-3.23h6.35v3.23h-6.35v-3.23Z"/>
    <path class="cls-14" d="m198.89,151.21h2.12v9.68h-2.12v-9.68Zm2.12-3.23h6.35v3.23h-6.35v-3.23Zm0,12.91h6.35v3.23h-6.35v-3.23Zm6.35-9.68h2.12v3.23h-2.12v-3.23Zm0,6.45h2.12v3.23h-2.12v-3.23Z"/>
    <path class="cls-14" d="m222.19,147.99v16.13h-2.12v-6.45h-6.35v6.45h-2.12v-16.13h2.12v6.45h6.35v-6.45h2.12Z"/>
    <path class="cls-14" d="m226.44,151.21v3.23h4.23v3.23h-4.23v3.23h8.46v3.23h-10.58v-12.91h2.12Zm0-3.23h8.46v3.23h-8.46v-3.23Z"/>
    <path class="cls-14" d="m239.15,147.99v9.68h2.12v3.23h-2.12v3.23h-2.12v-16.13h2.12Zm6.35-3.23v3.23h-4.23v-3.23h4.23Zm-4.23,9.68h2.12v3.23h-2.12v-3.23Zm6.35-6.45v16.13h-2.12v-9.68h-2.12v-3.23h2.12v-3.23h2.12Z"/>
    <path class="cls-14" d="m270.92,147.99v16.13h-2.12v-6.45h-6.35v6.45h-2.12v-16.13h2.12v6.45h6.35v-6.45h2.12Z"/>
    <path class="cls-14" d="m275.17,151.21v3.23h4.23v3.23h-4.23v3.23h8.46v3.23h-10.58v-12.91h2.12Zm0-3.23h8.46v3.23h-8.46v-3.23Z"/>
    <path class="cls-14" d="m296.35,147.99v3.23h-4.23v12.91h-2.12v-12.91h-4.23v-3.23h10.58Z"/>
    <path class="cls-14" d="m309.08,151.21h2.12v12.91h-2.12v-12.91Zm2.12-3.23h6.35v3.23h-6.35v-3.23Zm6.35,3.23h2.12v12.91h-2.12v-12.91Z"/>
    <path class="cls-14" d="m321.79,154.44h2.12v9.68h-2.12v-9.68Zm2.12-3.23h2.12v3.23h-2.12v-3.23Zm8.46-3.23v16.13h-2.12v-12.91h-4.23v-3.23h6.35Z"/>
    <path class="cls-14" d="m345.09,151.21v12.91h-2.12v-6.45h-6.35v6.45h-2.12v-12.91h2.12v3.23h6.35v-3.23h2.12Zm-8.46-3.23h6.35v3.23h-6.35v-3.23Z"/>
    <path class="cls-14" d="m357.8,147.99v16.13h-2.12v-6.45h-6.35v6.45h-2.12v-16.13h2.12v6.45h6.35v-6.45h2.12Z"/>
    <path class="cls-14" d="m362.05,151.21v3.23h4.23v3.23h-4.23v3.23h8.46v3.23h-10.58v-12.91h2.12Zm0-3.23h8.46v3.23h-8.46v-3.23Z"/>
    <path class="cls-14" d="m383.23,147.99v3.23h-4.23v12.91h-2.12v-12.91h-4.23v-3.23h10.58Z"/>
    <path class="cls-14" d="m387.49,147.99v6.45h4.23v3.23h-4.23v3.23h4.23v3.23h-6.35v-16.13h2.12Zm8.46,0v16.13h-2.12v-3.23h-2.12v-3.23h2.12v-9.68h2.12Z"/>
    <path class="cls-14" d="m398.08,160.89h2.12v3.23h-2.12v-3.23Zm2.12-3.23h2.12v3.23h-2.12v-3.23Z"/>
    <path class="cls-14" d="m73.86,187.64h2.12v6.45h-2.12v-6.45Zm10.58,0v16.13h-2.12v-6.45h-6.35v-3.23h6.35v-6.45h2.12Z"/>
    <path class="cls-14" d="m88.7,190.87v3.23h4.23v3.23h-4.23v3.23h8.46v3.23h-10.58v-12.91h2.12Zm0-3.23h8.46v3.23h-8.46v-3.23Z"/>
    <path class="cls-14" d="m101.41,187.64v3.23h2.12v3.23h-2.12v9.68h-2.12v-16.13h2.12Zm2.12,6.45h2.12v3.23h-2.12v-3.23Zm6.35-6.45v16.13h-2.12v-9.68h-2.12v-3.23h2.12v-3.23h2.12Z"/>
    <path class="cls-14" d="m131.06,187.64v3.23h-6.35v3.23h6.35v3.23h-6.35v6.45h-2.12v-16.13h8.46Zm0,3.23h2.12v3.23h-2.12v-3.23Z"/>
    <path class="cls-14" d="m135.31,190.87h2.12v9.68h-2.12v-9.68Zm2.12-3.23h6.35v3.23h-6.35v-3.23Zm0,12.91h6.35v3.23h-6.35v-3.23Zm6.35-9.68h2.12v9.68h-2.12v-9.68Z"/>
    <path class="cls-14" d="m160.72,187.64v16.13h-12.69v-3.23h2.12v-9.68h2.12v-3.23h8.46Zm-2.12,3.23h-6.35v9.68h6.35v-9.68Z"/>
    <path class="cls-14" d="m164.96,187.64v9.68h2.12v3.23h-2.12v3.23h-2.12v-16.13h2.12Zm2.12,6.45h2.12v3.23h-2.12v-3.23Zm6.35-6.45v16.13h-2.12v-9.68h-2.12v-3.23h2.12v-3.23h2.12Z"/>
    <path class="cls-14" d="m177.67,187.64v3.23h2.12v3.23h-2.12v9.68h-2.12v-16.13h2.12Zm2.12,6.45h2.12v3.23h-2.12v-3.23Zm6.35-6.45v16.13h-2.12v-9.68h-2.12v-3.23h2.12v-3.23h2.12Z"/>
    <path class="cls-14" d="m198.85,190.87v12.91h-2.12v-6.45h-6.35v6.45h-2.12v-12.91h2.12v3.23h6.35v-3.23h2.12Zm-8.46-3.23h6.35v3.23h-6.35v-3.23Z"/>
    <path class="cls-14" d="m211.58,187.64v16.13h-2.12v-6.45h-6.35v6.45h-2.12v-6.45h2.12v-3.23h6.35v-3.23h-6.35v-3.23h8.46Zm-10.58,3.23h2.12v3.23h-2.12v-3.23Z"/>
    <path class="cls-14" d="m232.76,187.64v3.23h2.12v3.23h-2.12v-3.23h-8.46v-3.23h8.46Zm-8.46,12.91h8.46v3.23h-8.46v-3.23Zm4.23-6.45h4.23v3.23h-4.23v-3.23Zm4.23,3.23h2.12v3.23h-2.12v-3.23Z"/>
    <path class="cls-14" d="m239.13,190.87v3.23h4.23v3.23h-4.23v3.23h8.46v3.23h-10.58v-12.91h2.12Zm0-3.23h8.46v3.23h-8.46v-3.23Z"/>
    <path class="cls-14" d="m251.85,187.64v3.23h2.12v3.23h-2.12v9.68h-2.12v-16.13h2.12Zm2.12,6.45h2.12v3.23h-2.12v-3.23Zm6.35-6.45v16.13h-2.12v-9.68h-2.12v-3.23h2.12v-3.23h2.12Z"/>
    <path class="cls-14" d="m262.45,194.09h2.12v9.68h-2.12v-9.68Zm2.12-3.23h2.12v3.23h-2.12v-3.23Zm8.46-3.23v16.13h-2.12v-12.91h-4.23v-3.23h6.35Z"/>
    <path class="cls-14" d="m285.75,187.64v16.13h-2.12v-6.45h-6.35v6.45h-2.12v-6.45h2.12v-3.23h6.35v-3.23h-6.35v-3.23h8.46Zm-10.58,3.23h2.12v3.23h-2.12v-3.23Z"/>
  </g>
</svg>