<?xml version="1.0" encoding="UTF-8"?>
<svg id="_Слой_1" data-name="Слой 1" xmlns="http://www.w3.org/2000/svg" viewBox="0 0 500 500">
  <defs>
    <style>
      .cls-1 {
        fill: #efe63a;
      }

      .cls-1, .cls-2, .cls-3 {
        stroke: #b3b3b3;
        stroke-width: .5px;
      }

      .cls-1, .cls-2, .cls-3, .cls-4, .cls-5, .cls-6 {
        stroke-miterlimit: 10;
      }

      .cls-7 {
        fill: #fff;
      }

      .cls-8 {
        opacity: .6;
      }

      .cls-9 {
        fill: #fe0104;
      }

      .cls-2 {
        fill: #97ed3b;
      }

      .cls-10 {
        fill: #054e77;
      }

      .cls-11 {
        fill: #193c1b;
      }

      .cls-3 {
        fill: #3b95ed;
      }

      .cls-12 {
        fill: #0071bc;
      }

      .cls-13 {
        fill: #231617;
        opacity: .28;
      }

      .cls-4 {
        fill: gray;
      }

      .cls-4, .cls-5, .cls-6 {
        stroke: #999;
      }

      .cls-5 {
        fill: #666;
      }

      .cls-14 {
        fill: #18f416;
      }

      .cls-6 {
        fill: #f2f2f2;
      }
    </style>
  </defs>
  <g>
    <rect class="cls-6" x="22.5" y="106.11" width="457" height="263.78" rx="12.49" ry="12.49"/>
    <rect class="cls-11" x="67.28" y="128.81" width="369.22" height="218.37" rx="12.49" ry="12.49"/>
    <g>
      <ellipse class="cls-1" cx="455.45" cy="150.68" rx="9.94" ry="8.83"/>
      <path class="cls-7" d="m454.35,157.31c.11.5,4.97,1.16,7.18-1.66,2.48-3.16-.25-8.33-.55-8.28-.24.04,1.08,3.29-.55,6.07-1.86,3.17-6.18,3.38-6.07,3.86Z"/>
      <path class="cls-7" d="m453.24,144.06c-1.72-.27-3.75.59-4.42,2.21-.84,2.05.85,4.49,1.1,4.42.12-.03.07-.59,0-1.1.15-.57.45-1.4,1.1-2.21,1.57-1.93,3.89-2.17,4.42-2.21-.34-.32-1.1-.93-2.21-1.1Z"/>
    </g>
    <g>
      <ellipse class="cls-2" cx="455.77" cy="179.28" rx="9.94" ry="8.83"/>
      <path class="cls-7" d="m454.67,185.9c.11.5,4.97,1.16,7.18-1.66,2.48-3.16-.25-8.33-.55-8.28-.24.04,1.08,3.29-.55,6.07-1.86,3.17-6.18,3.38-6.07,3.86Z"/>
      <path class="cls-7" d="m453.56,172.65c-1.72-.27-3.75.59-4.42,2.21-.84,2.05.85,4.49,1.1,4.42.12-.03.07-.59,0-1.1.15-.57.45-1.4,1.1-2.21,1.57-1.93,3.89-2.17,4.42-2.21-.34-.32-1.1-.93-2.21-1.1Z"/>
    </g>
    <g>
      <ellipse class="cls-3" cx="456.06" cy="204.9" rx="9.94" ry="8.83"/>
      <path class="cls-7" d="m454.96,211.53c.11.5,4.97,1.16,7.18-1.66,2.48-3.16-.25-8.33-.55-8.28-.24.04,1.08,3.29-.55,6.07-1.86,3.17-6.18,3.38-6.07,3.86Z"/>
      <path class="cls-7" d="m453.85,198.28c-1.72-.27-3.75.59-4.42,2.21-.84,2.05.85,4.49,1.1,4.42.12-.03.07-.59,0-1.1.15-.57.45-1.4,1.1-2.21,1.57-1.93,3.89-2.17,4.42-2.21-.34-.32-1.1-.93-2.21-1.1Z"/>
    </g>
    <rect class="cls-13" x="444" y="314" width="21" height="21" rx="2.48" ry="2.48"/>
    <rect class="cls-9" x="445" y="315" width="19" height="19" rx="2.48" ry="2.48"/>
    <path class="cls-7" d="m446,322c-.11-.01.06-1.18,0-3-.05-1.4-.17-1.64,0-2,.31-.65,1.38-1.29,5-1-.79.02-2.01.18-3,1-1.99,1.66-1.82,5.02-2,5Z"/>
    <rect class="cls-5" x="32.5" y="178" width="31" height="119.5" rx="12.49" ry="12.49" transform="translate(96 475.5) rotate(-180)"/>
    <path class="cls-7" d="m456.85,333.23c.01.11,1.18-.06,3,0,1.4.05,1.64.17,2,0,.65-.31,1.29-1.38,1-5-.02.79-.18,2.01-1,3-1.66,1.99-5.02,1.82-5,2Z"/>
    <rect class="cls-4" x="35.47" y="182.38" width="24.99" height="111.12" rx="12.49" ry="12.49" transform="translate(95.94 475.88) rotate(180)"/>
    <rect class="cls-10" x="35.25" y="203" width="25" height="27"/>
    <rect class="cls-12" x="35.25" y="210.5" width="25" height="12"/>
    <g class="cls-8">
      <rect class="cls-7" x="36" y="212" width="23" height="3"/>
    </g>
  </g>
  <g>
    <path class="cls-14" d="m108.69,153.55v18.72h-2.37v-7.49h-7.1v7.49h-2.37v-18.72h2.37v7.49h7.1v-7.49h2.37Z"/>
    <path class="cls-14" d="m122.92,157.29v14.97h-2.37v-7.49h-7.1v7.49h-2.37v-14.97h2.37v3.74h7.1v-3.74h2.37Zm-9.47-3.74h7.1v3.74h-7.1v-3.74Z"/>
    <path class="cls-14" d="m139.52,153.55v7.49h2.37v-3.74h2.37v11.23h-2.37v-3.74h-2.37v7.49h-2.37v-18.72h2.37Zm4.73,0h2.37v3.74h-2.37v-3.74Zm0,14.97h2.37v3.74h-2.37v-3.74Zm2.37-11.23h2.37v11.23h-2.37v-11.23Z"/>
    <path class="cls-14" d="m151.38,157.29h2.37v14.97h-2.37v-14.97Zm2.37-3.74h7.1v3.74h-7.1v-3.74Zm7.1,3.74h2.37v14.97h-2.37v-14.97Z"/>
    <path class="cls-14" d="m167.98,153.55v11.23h2.37v3.74h-2.37v3.74h-2.37v-18.72h2.37Zm2.37,7.49h2.37v3.74h-2.37v-3.74Zm7.1-7.49v18.72h-2.37v-11.23h-2.37v-3.74h2.37v-3.74h2.37Z"/>
    <path class="cls-14" d="m191.67,153.55v3.74h-4.73v14.97h-2.37v-14.97h-4.73v-3.74h11.84Z"/>
    <path class="cls-14" d="m196.43,157.29v3.74h4.73v3.74h-4.73v3.74h9.47v3.74h-11.84v-14.97h2.37Zm0-3.74h9.47v3.74h-9.47v-3.74Z"/>
    <path class="cls-14" d="m217.76,153.55v3.74h-7.1v3.74h7.1v3.74h-7.1v7.49h-2.37v-18.72h9.47Zm0,3.74h2.37v3.74h-2.37v-3.74Z"/>
    <path class="cls-14" d="m224.89,157.29v3.74h4.73v3.74h-4.73v3.74h9.47v3.74h-11.84v-14.97h2.37Zm0-3.74h9.47v3.74h-9.47v-3.74Z"/>
    <path class="cls-14" d="m258.06,153.55v3.74h-7.1v3.74h7.1v3.74h-7.1v3.74h7.1v3.74h-9.47v-18.72h9.47Zm0,3.74h2.37v3.74h-2.37v-3.74Zm0,7.49h2.37v3.74h-2.37v-3.74Z"/>
    <path class="cls-14" d="m265.19,157.29v3.74h4.73v3.74h-4.73v3.74h9.47v3.74h-11.84v-14.97h2.37Zm0-3.74h9.47v3.74h-9.47v-3.74Z"/>
    <path class="cls-14" d="m288.88,153.55v3.74h-4.73v14.97h-2.37v-14.97h-4.73v-3.74h11.84Z"/>
    <path class="cls-14" d="m300.74,153.55v3.74h-7.1v3.74h7.1v3.74h-7.1v7.49h-2.37v-18.72h9.47Zm0,3.74h2.37v3.74h-2.37v-3.74Z"/>
    <path class="cls-14" d="m317.34,157.29v14.97h-2.37v-7.49h-7.1v7.49h-2.37v-14.97h2.37v3.74h7.1v-3.74h2.37Zm-9.47-3.74h7.1v3.74h-7.1v-3.74Z"/>
    <path class="cls-14" d="m111.06,199.55v18.72h-14.2v-3.74h2.37v-11.23h2.37v-3.74h9.47Zm-2.37,3.74h-7.1v11.23h7.1v-11.23Z"/>
    <path class="cls-14" d="m113.44,199.55h2.37v7.49h-2.37v-7.49Zm0,14.97h9.47v3.74h-9.47v-3.74Zm11.84-14.97v14.97h-2.37v-3.74h-7.1v-3.74h7.1v-7.49h2.37Z"/>
    <path class="cls-14" d="m130.03,199.55v7.49h2.37v-3.74h2.37v11.23h-2.37v-3.74h-2.37v7.49h-2.37v-18.72h2.37Zm4.73,0h2.37v3.74h-2.37v-3.74Zm0,14.97h2.37v3.74h-2.37v-3.74Zm2.37-11.23h2.37v11.23h-2.37v-11.23Z"/>
    <path class="cls-14" d="m153.73,199.55v3.74h-4.73v14.97h-2.37v-14.97h-4.73v-3.74h11.84Z"/>
    <path class="cls-14" d="m179.8,199.55v18.72h-2.37v-7.49h-7.1v7.49h-2.37v-18.72h2.37v7.49h7.1v-7.49h2.37Z"/>
    <path class="cls-14" d="m184.56,203.29v3.74h4.73v3.74h-4.73v3.74h9.47v3.74h-11.84v-14.97h2.37Zm0-3.74h9.47v3.74h-9.47v-3.74Z"/>
    <path class="cls-14" d="m196.42,203.29h2.37v14.97h-2.37v-14.97Zm2.37-3.74h7.1v3.74h-7.1v-3.74Zm7.1,3.74h2.37v14.97h-2.37v-14.97Z"/>
    <path class="cls-14" d="m220.12,199.55v3.74h-7.1v3.74h7.1v3.74h-7.1v7.49h-2.37v-18.72h9.47Zm0,3.74h2.37v3.74h-2.37v-3.74Z"/>
    <path class="cls-14" d="m227.24,203.29v3.74h4.73v3.74h-4.73v3.74h9.47v3.74h-11.84v-14.97h2.37Zm0-3.74h9.47v3.74h-9.47v-3.74Z"/>
    <path class="cls-14" d="m248.57,199.55v3.74h-7.1v3.74h7.1v3.74h-7.1v7.49h-2.37v-18.72h9.47Zm0,3.74h2.37v3.74h-2.37v-3.74Z"/>
    <path class="cls-14" d="m255.7,199.55v7.49h4.73v3.74h-4.73v3.74h4.73v3.74h-7.1v-18.72h2.37Zm9.47,0v18.72h-2.37v-3.74h-2.37v-3.74h2.37v-11.23h2.37Z"/>
    <path class="cls-14" d="m277.02,199.55v3.74h-7.1v3.74h7.1v3.74h-7.1v3.74h7.1v3.74h-9.47v-18.72h9.47Zm0,3.74h2.37v3.74h-2.37v-3.74Zm0,7.49h2.37v3.74h-2.37v-3.74Z"/>
    <path class="cls-14" d="m293.62,199.55v18.72h-2.37v-7.49h-7.1v7.49h-2.37v-18.72h2.37v7.49h7.1v-7.49h2.37Z"/>
    <path class="cls-14" d="m296.01,203.29h2.37v11.23h-2.37v-11.23Zm2.37-3.74h7.1v3.74h-7.1v-3.74Zm0,14.97h7.1v3.74h-7.1v-3.74Zm7.1-11.23h2.37v11.23h-2.37v-11.23Z"/>
    <path class="cls-14" d="m310.24,214.52h2.37v3.74h-2.37v-3.74Zm2.37-3.74h2.37v3.74h-2.37v-3.74Z"/>
    <path class="cls-14" d="m99.22,245.54v11.23h2.37v3.74h-2.37v3.74h-2.37v-18.72h2.37Zm2.37,7.49h2.37v3.74h-2.37v-3.74Zm7.1-7.49v18.72h-2.37v-11.23h-2.37v-3.74h2.37v-3.74h2.37Z"/>
    <path class="cls-14" d="m120.55,245.54v3.74h2.37v3.74h-2.37v-3.74h-9.47v-3.74h9.47Zm-9.47,14.97h9.47v3.74h-9.47v-3.74Zm4.73-7.49h4.73v3.74h-4.73v-3.74Zm4.73,3.74h2.37v3.74h-2.37v-3.74Z"/>
    <path class="cls-14" d="m146.62,245.54v3.74h-7.1v3.74h7.1v3.74h-7.1v7.49h-2.37v-18.72h9.47Zm0,3.74h2.37v3.74h-2.37v-3.74Z"/>
    <path class="cls-14" d="m163.22,249.29v14.97h-2.37v-7.49h-7.1v7.49h-2.37v-14.97h2.37v3.74h7.1v-3.74h2.37Zm-9.47-3.74h7.1v3.74h-7.1v-3.74Z"/>
    <path class="cls-14" d="m167.98,245.54v7.49h4.73v3.74h-4.73v7.49h-2.37v-18.72h2.37Zm4.73,3.74h2.37v3.74h-2.37v-3.74Zm0,7.49h2.37v3.74h-2.37v-3.74Zm2.37-11.23h2.37v3.74h-2.37v-3.74Zm0,14.97h2.37v3.74h-2.37v-3.74Z"/>
    <path class="cls-14" d="m182.2,249.29v3.74h4.73v3.74h-4.73v3.74h9.47v3.74h-11.84v-14.97h2.37Zm0-3.74h9.47v3.74h-9.47v-3.74Z"/>
    <path class="cls-14" d="m205.9,245.54v3.74h-4.73v14.97h-2.37v-14.97h-4.73v-3.74h11.84Z"/>
    <path class="cls-14" d="m210.66,245.54v7.49h4.73v3.74h-4.73v3.74h4.73v3.74h-7.1v-18.72h2.37Zm9.47,0v18.72h-2.37v-3.74h-2.37v-3.74h2.37v-11.23h2.37Z"/>
    <path class="cls-14" d="m246.2,245.54v18.72h-2.37v-7.49h-7.1v7.49h-2.37v-18.72h2.37v7.49h7.1v-7.49h2.37Z"/>
    <path class="cls-14" d="m260.43,249.29v14.97h-2.37v-7.49h-7.1v7.49h-2.37v-14.97h2.37v3.74h7.1v-3.74h2.37Zm-9.47-3.74h7.1v3.74h-7.1v-3.74Z"/>
    <path class="cls-14" d="m265.19,245.54v3.74h2.37v3.74h-2.37v11.23h-2.37v-18.72h2.37Zm2.37,7.49h2.37v3.74h-2.37v-3.74Zm7.1-7.49v18.72h-2.37v-11.23h-2.37v-3.74h2.37v-3.74h2.37Z"/>
    <path class="cls-14" d="m277.05,260.52h2.37v3.74h-2.37v-3.74Zm2.37-3.74h2.37v3.74h-2.37v-3.74Z"/>
    <path class="cls-14" d="m310.21,245.54v18.72h-14.2v-3.74h2.37v-11.23h2.37v-3.74h9.47Zm-2.37,3.74h-7.1v11.23h7.1v-11.23Z"/>
    <path class="cls-14" d="m322.05,245.54v3.74h-7.1v3.74h7.1v3.74h-7.1v7.49h-2.37v-18.72h9.47Zm0,3.74h2.37v3.74h-2.37v-3.74Z"/>
    <path class="cls-14" d="m326.82,245.54h2.37v7.49h-2.37v-7.49Zm0,14.97h9.47v3.74h-9.47v-3.74Zm11.84-14.97v14.97h-2.37v-3.74h-7.1v-3.74h7.1v-7.49h2.37Z"/>
    <path class="cls-14" d="m350.52,245.54v3.74h2.37v3.74h-2.37v-3.74h-9.47v-3.74h9.47Zm-9.47,14.97h9.47v3.74h-9.47v-3.74Zm4.73-7.49h4.73v3.74h-4.73v-3.74Zm4.73,3.74h2.37v3.74h-2.37v-3.74Z"/>
    <path class="cls-14" d="m357.64,245.54v7.49h7.1v3.74h-7.1v3.74h7.1v3.74h-9.47v-18.72h2.37Zm7.1,11.23h2.37v3.74h-2.37v-3.74Z"/>
    <path class="cls-14" d="m381.35,245.54v18.72h-2.37v-7.49h-7.1v7.49h-2.37v-7.49h2.37v-3.74h7.1v-3.74h-7.1v-3.74h9.47Zm-11.84,3.74h2.37v3.74h-2.37v-3.74Z"/>
    <path class="cls-14" d="m383.74,260.52h2.37v3.74h-2.37v-3.74Zm2.37-3.74h2.37v3.74h-2.37v-3.74Z"/>
    <path class="cls-14" d="m108.69,291.54v18.72h-2.37v-7.49h-7.1v7.49h-2.37v-18.72h2.37v7.49h7.1v-7.49h2.37Z"/>
    <path class="cls-14" d="m113.45,291.54v11.23h2.37v3.74h-2.37v3.74h-2.37v-18.72h2.37Zm2.37,7.49h2.37v3.74h-2.37v-3.74Zm7.1-7.49v18.72h-2.37v-11.23h-2.37v-3.74h2.37v-3.74h2.37Z"/>
    <path class="cls-14" d="m125.32,291.54h2.37v7.49h-2.37v-7.49Zm11.84,0v18.72h-2.37v-7.49h-7.1v-3.74h7.1v-7.49h2.37Z"/>
    <path class="cls-14" d="m141.91,295.28v3.74h4.73v3.74h-4.73v3.74h9.47v3.74h-11.84v-14.97h2.37Zm0-3.74h9.47v3.74h-9.47v-3.74Z"/>
    <path class="cls-14" d="m165.61,291.54v3.74h-9.47v14.97h-2.37v-14.97h2.37v-3.74h9.47Z"/>
    <path class="cls-14" d="m168,295.28h2.37v11.23h-2.37v-11.23Zm2.37-3.74h7.1v3.74h-7.1v-3.74Zm0,14.97h7.1v3.74h-7.1v-3.74Zm7.1-11.23h2.37v11.23h-2.37v-11.23Z"/>
    <path class="cls-14" d="m205.91,291.54v18.72h-2.37v-7.49h-7.1v7.49h-2.37v-18.72h2.37v7.49h7.1v-7.49h2.37Z"/>
    <path class="cls-14" d="m210.67,295.28v3.74h4.73v3.74h-4.73v3.74h9.47v3.74h-11.84v-14.97h2.37Zm0-3.74h9.47v3.74h-9.47v-3.74Z"/>
    <path class="cls-14" d="m243.85,291.54v3.74h-7.1v3.74h7.1v3.74h-7.1v3.74h7.1v3.74h-9.47v-18.72h9.47Zm0,3.74h2.37v3.74h-2.37v-3.74Zm0,7.49h2.37v3.74h-2.37v-3.74Z"/>
    <path class="cls-14" d="m250.97,291.54v11.23h2.37v3.74h-2.37v3.74h-2.37v-18.72h2.37Zm2.37,7.49h2.37v3.74h-2.37v-3.74Zm7.1-7.49v18.72h-2.37v-11.23h-2.37v-3.74h2.37v-3.74h2.37Z"/>
    <path class="cls-14" d="m277.04,291.54v18.72h-14.2v-3.74h2.37v-11.23h2.37v-3.74h9.47Zm-2.37,3.74h-7.1v11.23h7.1v-11.23Z"/>
    <path class="cls-14" d="m291.24,291.54v18.72h-2.37v-7.49h-7.1v7.49h-2.37v-18.72h2.37v7.49h7.1v-7.49h2.37Z"/>
    <path class="cls-14" d="m293.63,295.28h2.37v11.23h-2.37v-11.23Zm2.37-3.74h7.1v3.74h-7.1v-3.74Zm0,14.97h7.1v3.74h-7.1v-3.74Zm7.1-11.23h2.37v11.23h-2.37v-11.23Z"/>
  </g>
</svg>