<?xml version="1.0" encoding="UTF-8"?>
<svg id="_Слой_1" data-name="Слой 1" xmlns="http://www.w3.org/2000/svg" viewBox="0 0 500 500">
  <defs>
    <style>
      .cls-1 {
        fill: #efe63a;
      }

      .cls-1, .cls-2, .cls-3 {
        stroke: #b3b3b3;
        stroke-width: .5px;
      }

      .cls-1, .cls-2, .cls-3, .cls-4, .cls-5, .cls-6 {
        stroke-miterlimit: 10;
      }

      .cls-7 {
        fill: #fff;
      }

      .cls-8 {
        opacity: .6;
      }

      .cls-9 {
        fill: #fe0104;
      }

      .cls-2 {
        fill: #97ed3b;
      }

      .cls-10 {
        fill: #054e77;
      }

      .cls-11 {
        fill: #193c1b;
      }

      .cls-3 {
        fill: #3b95ed;
      }

      .cls-12 {
        fill: #0071bc;
      }

      .cls-13 {
        fill: #231617;
        opacity: .28;
      }

      .cls-4 {
        fill: gray;
      }

      .cls-4, .cls-5, .cls-6 {
        stroke: #999;
      }

      .cls-5 {
        fill: #666;
      }

      .cls-14 {
        fill: #18f416;
      }

      .cls-6 {
        fill: #f2f2f2;
      }
    </style>
  </defs>
  <g>
    <rect class="cls-6" x="22.5" y="106.11" width="457" height="263.78" rx="12.49" ry="12.49"/>
    <rect class="cls-11" x="67.28" y="128.81" width="369.22" height="218.37" rx="12.49" ry="12.49"/>
    <g>
      <ellipse class="cls-1" cx="455.45" cy="150.68" rx="9.94" ry="8.83"/>
      <path class="cls-7" d="m454.35,157.31c.11.5,4.97,1.16,7.18-1.66,2.48-3.16-.25-8.33-.55-8.28-.24.04,1.08,3.29-.55,6.07-1.86,3.17-6.18,3.38-6.07,3.86Z"/>
      <path class="cls-7" d="m453.24,144.06c-1.72-.27-3.75.59-4.42,2.21-.84,2.05.85,4.49,1.1,4.42.12-.03.07-.59,0-1.1.15-.57.45-1.4,1.1-2.21,1.57-1.93,3.89-2.17,4.42-2.21-.34-.32-1.1-.93-2.21-1.1Z"/>
    </g>
    <g>
      <ellipse class="cls-2" cx="455.77" cy="179.28" rx="9.94" ry="8.83"/>
      <path class="cls-7" d="m454.67,185.9c.11.5,4.97,1.16,7.18-1.66,2.48-3.16-.25-8.33-.55-8.28-.24.04,1.08,3.29-.55,6.07-1.86,3.17-6.18,3.38-6.07,3.86Z"/>
      <path class="cls-7" d="m453.56,172.65c-1.72-.27-3.75.59-4.42,2.21-.84,2.05.85,4.49,1.1,4.42.12-.03.07-.59,0-1.1.15-.57.45-1.4,1.1-2.21,1.57-1.93,3.89-2.17,4.42-2.21-.34-.32-1.1-.93-2.21-1.1Z"/>
    </g>
    <g>
      <ellipse class="cls-3" cx="456.06" cy="204.9" rx="9.94" ry="8.83"/>
      <path class="cls-7" d="m454.96,211.53c.11.5,4.97,1.16,7.18-1.66,2.48-3.16-.25-8.33-.55-8.28-.24.04,1.08,3.29-.55,6.07-1.86,3.17-6.18,3.38-6.07,3.86Z"/>
      <path class="cls-7" d="m453.85,198.28c-1.72-.27-3.75.59-4.42,2.21-.84,2.05.85,4.49,1.1,4.42.12-.03.07-.59,0-1.1.15-.57.45-1.4,1.1-2.21,1.57-1.93,3.89-2.17,4.42-2.21-.34-.32-1.1-.93-2.21-1.1Z"/>
    </g>
    <rect class="cls-13" x="444" y="314" width="21" height="21" rx="2.48" ry="2.48"/>
    <rect class="cls-9" x="445" y="315" width="19" height="19" rx="2.48" ry="2.48"/>
    <path class="cls-7" d="m446,322c-.11-.01.06-1.18,0-3-.05-1.4-.17-1.64,0-2,.31-.65,1.38-1.29,5-1-.79.02-2.01.18-3,1-1.99,1.66-1.82,5.02-2,5Z"/>
    <rect class="cls-5" x="32.5" y="178" width="31" height="119.5" rx="12.49" ry="12.49" transform="translate(96 475.5) rotate(-180)"/>
    <path class="cls-7" d="m456.85,333.23c.01.11,1.18-.06,3,0,1.4.05,1.64.17,2,0,.65-.31,1.29-1.38,1-5-.02.79-.18,2.01-1,3-1.66,1.99-5.02,1.82-5,2Z"/>
    <rect class="cls-4" x="35.47" y="182.38" width="24.99" height="111.12" rx="12.49" ry="12.49" transform="translate(95.94 475.88) rotate(180)"/>
    <rect class="cls-10" x="35.25" y="203" width="25" height="27"/>
    <rect class="cls-12" x="35.25" y="210.5" width="25" height="12"/>
    <g class="cls-8">
      <rect class="cls-7" x="36" y="212" width="23" height="3"/>
    </g>
  </g>
  <g>
    <path class="cls-14" d="m105.45,158.69v3.51h-6.44v3.51h6.44v3.51h-6.44v3.51h6.44v3.51h-8.59v-17.53h8.59Zm0,3.51h2.15v3.51h-2.15v-3.51Zm0,7.01h2.15v3.51h-2.15v-3.51Z"/>
    <path class="cls-14" d="m109.76,162.2h2.15v10.52h-2.15v-10.52Zm2.15-3.51h6.44v3.51h-6.44v-3.51Zm0,14.03h6.44v3.51h-6.44v-3.51Zm6.44-10.52h2.15v3.51h-2.15v-3.51Zm0,7.01h2.15v3.51h-2.15v-3.51Z"/>
    <path class="cls-14" d="m124.82,162.2v3.51h4.3v3.51h-4.3v3.51h8.59v3.51h-10.74v-14.03h2.15Zm0-3.51h8.59v3.51h-8.59v-3.51Z"/>
    <path class="cls-14" d="m146.33,162.2h2.15v14.03h-2.15v-14.03Zm2.15-3.51h6.44v3.51h-6.44v-3.51Zm6.44,3.51h2.15v14.03h-2.15v-14.03Z"/>
    <path class="cls-14" d="m159.24,165.71h2.15v10.52h-2.15v-10.52Zm2.15-3.51h2.15v3.51h-2.15v-3.51Zm8.59-3.51v17.53h-2.15v-14.03h-4.3v-3.51h6.44Z"/>
    <path class="cls-14" d="m182.89,162.2v14.03h-2.15v-7.01h-6.44v7.01h-2.15v-14.03h2.15v3.51h6.44v-3.51h2.15Zm-8.59-3.51h6.44v3.51h-6.44v-3.51Z"/>
    <path class="cls-14" d="m195.79,158.69v17.53h-2.15v-7.01h-6.44v7.01h-2.15v-17.53h2.15v7.01h6.44v-7.01h2.15Z"/>
    <path class="cls-14" d="m200.11,162.2v3.51h4.3v3.51h-4.3v3.51h8.59v3.51h-10.74v-14.03h2.15Zm0-3.51h8.59v3.51h-8.59v-3.51Z"/>
    <path class="cls-14" d="m221.61,158.69v3.51h-4.3v14.03h-2.15v-14.03h-4.3v-3.51h10.74Z"/>
    <path class="cls-14" d="m225.93,158.69v7.01h4.3v3.51h-4.3v3.51h4.3v3.51h-6.44v-17.53h2.15Zm8.59,0v17.53h-2.15v-3.51h-2.15v-3.51h2.15v-10.52h2.15Z"/>
    <path class="cls-14" d="m247.44,162.2h2.15v14.03h-2.15v-14.03Zm2.15-3.51h6.44v3.51h-6.44v-3.51Zm6.44,3.51h2.15v14.03h-2.15v-14.03Z"/>
    <path class="cls-14" d="m268.94,158.69v3.51h-6.44v3.51h6.44v3.51h-6.44v7.01h-2.15v-17.53h8.59Zm0,3.51h2.15v3.51h-2.15v-3.51Z"/>
    <path class="cls-14" d="m273.26,162.2h2.15v10.52h-2.15v-10.52Zm2.15-3.51h6.44v3.51h-6.44v-3.51Zm0,14.03h6.44v3.51h-6.44v-3.51Zm6.44-10.52h2.15v10.52h-2.15v-10.52Z"/>
    <path class="cls-14" d="m286.17,165.71h2.15v10.52h-2.15v-10.52Zm2.15-3.51h2.15v3.51h-2.15v-3.51Zm8.59-3.51v17.53h-2.15v-14.03h-4.3v-3.51h6.44Z"/>
    <path class="cls-14" d="m301.22,162.2v3.51h4.3v3.51h-4.3v3.51h8.59v3.51h-10.74v-14.03h2.15Zm0-3.51h8.59v3.51h-8.59v-3.51Z"/>
    <path class="cls-14" d="m322.72,158.69v3.51h-4.3v14.03h-2.15v-14.03h-4.3v-3.51h10.74Z"/>
    <path class="cls-14" d="m327.04,162.2v3.51h4.3v3.51h-4.3v3.51h8.59v3.51h-10.74v-14.03h2.15Zm0-3.51h8.59v3.51h-8.59v-3.51Z"/>
    <path class="cls-14" d="m337.8,165.71h2.15v10.52h-2.15v-10.52Zm2.15-3.51h2.15v3.51h-2.15v-3.51Zm8.59-3.51v17.53h-2.15v-14.03h-4.3v-3.51h6.44Z"/>
    <path class="cls-14" d="m352.86,158.69v10.52h2.15v3.51h-2.15v3.51h-2.15v-17.53h2.15Zm2.15,7.01h2.15v3.51h-2.15v-3.51Zm6.44-7.01v17.53h-2.15v-10.52h-2.15v-3.51h2.15v-3.51h2.15Z"/>
    <path class="cls-14" d="m363.62,172.72h2.15v3.51h-2.15v-3.51Zm2.15-3.51h2.15v3.51h-2.15v-3.51Z"/>
    <path class="cls-14" d="m99,201.78v10.52h2.15v3.51h-2.15v3.51h-2.15v-17.53h2.15Zm2.15,7.01h2.15v3.51h-2.15v-3.51Zm6.44-7.01v17.53h-2.15v-10.52h-2.15v-3.51h2.15v-3.51h2.15Z"/>
    <path class="cls-14" d="m129.1,201.78v3.51h-6.44v3.51h6.44v3.51h-6.44v7.01h-2.15v-17.53h8.59Zm0,3.51h2.15v3.51h-2.15v-3.51Z"/>
    <path class="cls-14" d="m135.57,205.29v3.51h4.3v3.51h-4.3v3.51h8.59v3.51h-10.74v-14.03h2.15Zm0-3.51h8.59v3.51h-8.59v-3.51Z"/>
    <path class="cls-14" d="m146.33,201.78h2.15v14.03h-2.15v-14.03Zm10.74,0v17.53h-8.59v-3.51h2.15v-14.03h2.15v14.03h2.15v-14.03h2.15Z"/>
    <path class="cls-14" d="m161.39,201.78v10.52h2.15v3.51h-2.15v3.51h-2.15v-17.53h2.15Zm2.15,7.01h2.15v3.51h-2.15v-3.51Zm6.44-7.01v17.53h-2.15v-10.52h-2.15v-3.51h2.15v-3.51h2.15Z"/>
    <path class="cls-14" d="m172.15,208.8h2.15v10.52h-2.15v-10.52Zm2.15-3.51h2.15v3.51h-2.15v-3.51Zm8.59-3.51v17.53h-2.15v-14.03h-4.3v-3.51h6.44Z"/>
    <path class="cls-14" d="m187.2,201.78v10.52h2.15v3.51h-2.15v3.51h-2.15v-17.53h2.15Zm2.15,7.01h2.15v3.51h-2.15v-3.51Zm6.44-7.01v17.53h-2.15v-10.52h-2.15v-3.51h2.15v-3.51h2.15Z"/>
    <path class="cls-14" d="m210.86,201.78v3.51h2.15v3.51h-2.15v10.52h-2.15v-17.53h2.15Zm2.15,7.01h2.15v3.51h-2.15v-3.51Zm6.44-7.01v17.53h-2.15v-10.52h-2.15v-3.51h2.15v-3.51h2.15Z"/>
    <path class="cls-14" d="m223.77,201.78v7.01h4.3v3.51h-4.3v3.51h4.3v3.51h-6.44v-17.53h2.15Zm8.59,0v17.53h-2.15v-3.51h-2.15v-3.51h2.15v-10.52h2.15Z"/>
    <path class="cls-14" d="m234.53,215.81h2.15v3.51h-2.15v-3.51Zm2.15-3.51h2.15v3.51h-2.15v-3.51Z"/>
    <path class="cls-14" d="m264.62,201.78v17.53h-12.89v-3.51h2.15v-10.52h2.15v-3.51h8.59Zm-2.15,3.51h-6.44v10.52h6.44v-10.52Z"/>
    <path class="cls-14" d="m275.36,201.78v3.51h-6.44v3.51h6.44v3.51h-6.44v7.01h-2.15v-17.53h8.59Zm0,3.51h2.15v3.51h-2.15v-3.51Z"/>
    <path class="cls-14" d="m279.69,201.78h2.15v7.01h-2.15v-7.01Zm0,14.03h8.59v3.51h-8.59v-3.51Zm10.74-14.03v14.03h-2.15v-3.51h-6.44v-3.51h6.44v-7.01h2.15Z"/>
    <path class="cls-14" d="m301.19,201.78v3.51h2.15v3.51h-2.15v-3.51h-8.59v-3.51h8.59Zm-8.59,14.03h8.59v3.51h-8.59v-3.51Zm4.3-7.01h4.3v3.51h-4.3v-3.51Zm4.3,3.51h2.15v3.51h-2.15v-3.51Z"/>
    <path class="cls-14" d="m307.65,201.78v7.01h6.44v3.51h-6.44v3.51h6.44v3.51h-8.59v-17.53h2.15Zm6.44,10.52h2.15v3.51h-2.15v-3.51Z"/>
    <path class="cls-14" d="m329.17,201.78v17.53h-2.15v-7.01h-6.44v7.01h-2.15v-7.01h2.15v-3.51h6.44v-3.51h-6.44v-3.51h8.59Zm-10.74,3.51h2.15v3.51h-2.15v-3.51Z"/>
    <path class="cls-14" d="m331.33,215.81h2.15v3.51h-2.15v-3.51Zm2.15-3.51h2.15v3.51h-2.15v-3.51Z"/>
    <path class="cls-14" d="m96.86,244.87h2.15v7.01h-2.15v-7.01Zm10.74,0v17.53h-2.15v-7.01h-6.44v-3.51h6.44v-7.01h2.15Z"/>
    <path class="cls-14" d="m120.51,244.87v3.51h-4.3v14.03h-2.15v-14.03h-4.3v-3.51h10.74Z"/>
    <path class="cls-14" d="m122.68,248.38h2.15v10.52h-2.15v-10.52Zm2.15-3.51h6.44v3.51h-6.44v-3.51Zm0,14.03h6.44v3.51h-6.44v-3.51Zm6.44-10.52h2.15v10.52h-2.15v-10.52Z"/>
    <path class="cls-14" d="m146.34,248.38h2.15v14.03h-2.15v-14.03Zm2.15-3.51h6.44v3.51h-6.44v-3.51Zm6.44,3.51h2.15v14.03h-2.15v-14.03Z"/>
    <path class="cls-14" d="m167.84,244.87v3.51h-6.44v3.51h6.44v3.51h-6.44v7.01h-2.15v-17.53h8.59Zm0,3.51h2.15v3.51h-2.15v-3.51Z"/>
    <path class="cls-14" d="m174.31,248.38v3.51h4.3v3.51h-4.3v3.51h8.59v3.51h-10.74v-14.03h2.15Zm0-3.51h8.59v3.51h-8.59v-3.51Z"/>
    <path class="cls-14" d="m187.21,244.87v7.01h4.3v3.51h-4.3v7.01h-2.15v-17.53h2.15Zm4.3,3.51h2.15v3.51h-2.15v-3.51Zm0,7.01h2.15v3.51h-2.15v-3.51Zm2.15-10.52h2.15v3.51h-2.15v-3.51Zm0,14.03h2.15v3.51h-2.15v-3.51Z"/>
    <path class="cls-14" d="m206.57,244.87v3.51h-6.44v3.51h6.44v3.51h-6.44v7.01h-2.15v-17.53h8.59Zm0,3.51h2.15v3.51h-2.15v-3.51Z"/>
    <path class="cls-14" d="m221.62,248.38v14.03h-2.15v-7.01h-6.44v7.01h-2.15v-14.03h2.15v3.51h6.44v-3.51h2.15Zm-8.59-3.51h6.44v3.51h-6.44v-3.51Z"/>
    <path class="cls-14" d="m223.79,248.38h2.15v10.52h-2.15v-10.52Zm2.15-3.51h6.44v3.51h-6.44v-3.51Zm0,14.03h6.44v3.51h-6.44v-3.51Zm6.44-10.52h2.15v3.51h-2.15v-3.51Zm0,7.01h2.15v3.51h-2.15v-3.51Z"/>
    <path class="cls-14" d="m247.44,244.87v17.53h-2.15v-7.01h-6.44v7.01h-2.15v-17.53h2.15v7.01h6.44v-7.01h2.15Z"/>
    <path class="cls-14" d="m251.76,248.38v3.51h4.3v3.51h-4.3v3.51h8.59v3.51h-10.74v-14.03h2.15Zm0-3.51h8.59v3.51h-8.59v-3.51Z"/>
    <path class="cls-14" d="m264.67,244.87v10.52h2.15v3.51h-2.15v3.51h-2.15v-17.53h2.15Zm6.44-3.51v3.51h-4.3v-3.51h4.3Zm-4.3,10.52h2.15v3.51h-2.15v-3.51Zm6.44-7.01v17.53h-2.15v-10.52h-2.15v-3.51h2.15v-3.51h2.15Z"/>
    <path class="cls-14" d="m296.92,244.87v17.53h-2.15v-7.01h-6.44v7.01h-2.15v-17.53h2.15v7.01h6.44v-7.01h2.15Z"/>
    <path class="cls-14" d="m301.23,248.38v3.51h4.3v3.51h-4.3v3.51h8.59v3.51h-10.74v-14.03h2.15Zm0-3.51h8.59v3.51h-8.59v-3.51Z"/>
    <path class="cls-14" d="m322.73,244.87v3.51h-4.3v14.03h-2.15v-14.03h-4.3v-3.51h10.74Z"/>
    <path class="cls-14" d="m335.65,248.38h2.15v14.03h-2.15v-14.03Zm2.15-3.51h6.44v3.51h-6.44v-3.51Zm6.44,3.51h2.15v14.03h-2.15v-14.03Z"/>
    <path class="cls-14" d="m348.56,251.88h2.15v10.52h-2.15v-10.52Zm2.15-3.51h2.15v3.51h-2.15v-3.51Zm8.59-3.51v17.53h-2.15v-14.03h-4.3v-3.51h6.44Z"/>
    <path class="cls-14" d="m372.21,248.38v14.03h-2.15v-7.01h-6.44v7.01h-2.15v-14.03h2.15v3.51h6.44v-3.51h2.15Zm-8.59-3.51h6.44v3.51h-6.44v-3.51Z"/>
    <path class="cls-14" d="m385.12,244.87v17.53h-2.15v-7.01h-6.44v7.01h-2.15v-17.53h2.15v7.01h6.44v-7.01h2.15Z"/>
    <path class="cls-14" d="m389.43,248.38v3.51h4.3v3.51h-4.3v3.51h8.59v3.51h-10.74v-14.03h2.15Zm0-3.51h8.59v3.51h-8.59v-3.51Z"/>
    <path class="cls-14" d="m410.93,244.87v3.51h-4.3v14.03h-2.15v-14.03h-4.3v-3.51h10.74Z"/>
    <path class="cls-14" d="m415.25,244.87v7.01h4.3v3.51h-4.3v3.51h4.3v3.51h-6.44v-17.53h2.15Zm8.59,0v17.53h-2.15v-3.51h-2.15v-3.51h2.15v-10.52h2.15Z"/>
    <path class="cls-14" d="m426.01,258.9h2.15v3.51h-2.15v-3.51Zm2.15-3.51h2.15v3.51h-2.15v-3.51Z"/>
    <path class="cls-14" d="m96.86,287.96h2.15v7.01h-2.15v-7.01Zm10.74,0v17.53h-2.15v-7.01h-6.44v-3.51h6.44v-7.01h2.15Z"/>
    <path class="cls-14" d="m111.92,291.47v3.51h4.3v3.51h-4.3v3.51h8.59v3.51h-10.74v-14.03h2.15Zm0-3.51h8.59v3.51h-8.59v-3.51Z"/>
    <path class="cls-14" d="m124.83,287.96v3.51h2.15v3.51h-2.15v10.52h-2.15v-17.53h2.15Zm2.15,7.01h2.15v3.51h-2.15v-3.51Zm6.44-7.01v17.53h-2.15v-10.52h-2.15v-3.51h2.15v-3.51h2.15Z"/>
    <path class="cls-14" d="m154.93,287.96v3.51h-6.44v3.51h6.44v3.51h-6.44v7.01h-2.15v-17.53h8.59Zm0,3.51h2.15v3.51h-2.15v-3.51Z"/>
    <path class="cls-14" d="m159.25,291.47h2.15v10.52h-2.15v-10.52Zm2.15-3.51h6.44v3.51h-6.44v-3.51Zm0,14.03h6.44v3.51h-6.44v-3.51Zm6.44-10.52h2.15v10.52h-2.15v-10.52Z"/>
    <path class="cls-14" d="m185.04,287.96v17.53h-12.89v-3.51h2.15v-10.52h2.15v-3.51h8.59Zm-2.15,3.51h-6.44v10.52h6.44v-10.52Z"/>
    <path class="cls-14" d="m189.34,287.96v10.52h2.15v3.51h-2.15v3.51h-2.15v-17.53h2.15Zm2.15,7.01h2.15v3.51h-2.15v-3.51Zm6.44-7.01v17.53h-2.15v-10.52h-2.15v-3.51h2.15v-3.51h2.15Z"/>
    <path class="cls-14" d="m202.25,287.96v3.51h2.15v3.51h-2.15v10.52h-2.15v-17.53h2.15Zm2.15,7.01h2.15v3.51h-2.15v-3.51Zm6.44-7.01v17.53h-2.15v-10.52h-2.15v-3.51h2.15v-3.51h2.15Z"/>
    <path class="cls-14" d="m223.75,291.47v14.03h-2.15v-7.01h-6.44v7.01h-2.15v-14.03h2.15v3.51h6.44v-3.51h2.15Zm-8.59-3.51h6.44v3.51h-6.44v-3.51Z"/>
    <path class="cls-14" d="m236.67,287.96v17.53h-2.15v-7.01h-6.44v7.01h-2.15v-7.01h2.15v-3.51h6.44v-3.51h-6.44v-3.51h8.59Zm-10.74,3.51h2.15v3.51h-2.15v-3.51Z"/>
    <path class="cls-14" d="m258.18,287.96v3.51h2.15v3.51h-2.15v-3.51h-8.59v-3.51h8.59Zm-8.59,14.03h8.59v3.51h-8.59v-3.51Zm4.3-7.01h4.3v3.51h-4.3v-3.51Zm4.3,3.51h2.15v3.51h-2.15v-3.51Z"/>
    <path class="cls-14" d="m264.64,291.47v3.51h4.3v3.51h-4.3v3.51h8.59v3.51h-10.74v-14.03h2.15Zm0-3.51h8.59v3.51h-8.59v-3.51Z"/>
    <path class="cls-14" d="m277.55,287.96v3.51h2.15v3.51h-2.15v10.52h-2.15v-17.53h2.15Zm2.15,7.01h2.15v3.51h-2.15v-3.51Zm6.44-7.01v17.53h-2.15v-10.52h-2.15v-3.51h2.15v-3.51h2.15Z"/>
    <path class="cls-14" d="m288.31,294.97h2.15v10.52h-2.15v-10.52Zm2.15-3.51h2.15v3.51h-2.15v-3.51Zm8.59-3.51v17.53h-2.15v-14.03h-4.3v-3.51h6.44Z"/>
    <path class="cls-14" d="m311.97,287.96v17.53h-2.15v-7.01h-6.44v7.01h-2.15v-7.01h2.15v-3.51h6.44v-3.51h-6.44v-3.51h8.59Zm-10.74,3.51h2.15v3.51h-2.15v-3.51Z"/>
  </g>
</svg>