<?xml version="1.0" encoding="UTF-8"?>
<svg id="_Слой_1" data-name="Слой 1" xmlns="http://www.w3.org/2000/svg" xmlns:xlink="http://www.w3.org/1999/xlink" viewBox="0 0 500 500">
  <defs>
    <style>
      .cls-1 {
        fill: #e55838;
      }

      .cls-2 {
        fill: #f4724a;
      }

      .cls-3 {
        fill: #f7b8ad;
      }

      .cls-4 {
        fill: #42210b;
      }

      .cls-5 {
        fill: #af2715;
      }

      .cls-6 {
        fill: url(#_Безымянный_градиент_15);
        opacity: .46;
      }

      .cls-7 {
        fill: url(#_Безымянный_градиент_11);
      }
    </style>
    <radialGradient id="_Безымянный_градиент_11" data-name="Безымянный градиент 11" cx="1492.68" cy="1185.46" fx="1492.68" fy="1185.46" r="526.75" gradientTransform="translate(-546.97 -407.44) scale(.54 .55)" gradientUnits="userSpaceOnUse">
      <stop offset="0" stop-color="#fff"/>
      <stop offset=".13" stop-color="#fff" stop-opacity=".83"/>
      <stop offset=".42" stop-color="#fff" stop-opacity=".48"/>
      <stop offset=".66" stop-color="#fff" stop-opacity=".22"/>
      <stop offset=".83" stop-color="#fff" stop-opacity=".06"/>
      <stop offset=".92" stop-color="#fff" stop-opacity="0"/>
    </radialGradient>
    <radialGradient id="_Безымянный_градиент_15" data-name="Безымянный градиент 15" cx="252" cy="259" fx="252" fy="259" r="190.74" gradientUnits="userSpaceOnUse">
      <stop offset="0" stop-color="#f7b8ad"/>
      <stop offset=".13" stop-color="#f7b9ae" stop-opacity=".98"/>
      <stop offset=".26" stop-color="#f7bcb2" stop-opacity=".94"/>
      <stop offset=".38" stop-color="#f8c2b8" stop-opacity=".86"/>
      <stop offset=".51" stop-color="#f9cac2" stop-opacity=".74"/>
      <stop offset=".64" stop-color="#fad4cd" stop-opacity=".6"/>
      <stop offset=".76" stop-color="#fbe1dc" stop-opacity=".42"/>
      <stop offset=".89" stop-color="#fdefed" stop-opacity=".21"/>
      <stop offset="1" stop-color="#fff" stop-opacity="0"/>
    </radialGradient>
  </defs>
  <ellipse class="cls-7" cx="251.81" cy="250.4" rx="248.6" ry="248.58"/>
  <g>
    <path class="cls-2" d="m251.39,470.22c-58.73,0-113.94-22.87-155.47-64.4-41.53-41.53-64.4-96.74-64.4-155.47s22.87-113.94,64.4-155.47C137.45,53.35,192.66,30.48,251.39,30.48s113.94,22.87,155.47,64.4,64.4,96.74,64.4,155.47-22.87,113.94-64.4,155.47-96.74,64.4-155.47,64.4Z"/>
    <path class="cls-4" d="m251.39,30.98c29.62,0,58.34,5.8,85.39,17.24,26.12,11.05,49.58,26.87,69.73,47.01,20.15,20.15,35.96,43.61,47.01,69.73,11.44,27.04,17.24,55.77,17.24,85.39s-5.8,58.34-17.24,85.39c-11.05,26.12-26.87,49.58-47.01,69.73-20.15,20.15-43.61,35.96-69.73,47.01-27.04,11.44-55.77,17.24-85.39,17.24s-58.34-5.8-85.39-17.24c-26.12-11.05-49.58-26.87-69.73-47.01-20.15-20.15-35.96-43.61-47.01-69.73-11.44-27.04-17.24-55.77-17.24-85.39s5.8-58.34,17.24-85.39c11.05-26.12,26.87-49.58,47.01-69.73,20.15-20.15,43.61-35.96,69.73-47.01,27.04-11.44,55.77-17.24,85.39-17.24m0-1c-121.71,0-220.37,98.66-220.37,220.37s98.66,220.37,220.37,220.37,220.37-98.66,220.37-220.37S373.1,29.98,251.39,29.98h0Z"/>
  </g>
  <ellipse class="cls-6" cx="252" cy="259" rx="200" ry="181"/>
  <path class="cls-1" d="m354.5,72.5c-8.58-4.35-28.14-14.29-55-16-57.17-3.65-72.1,34.72-128,29-14.31-1.47-33.05-6-48,5-7.11,5.23-14.54,14.84-12,21,4.42,10.73,37.35,6.67,59,4,46.96-5.79,58.3-15.56,97-20,24.68-2.83,65.11-7.47,71,6,7.65,17.51-39.91,72.87-100,84-64.22,11.89-100.89-34.48-139-11-27.25,16.79-38.1,58.73-27,70,10.44,10.6,32.71-13.65,76-17,67.32-5.22,81.77,48.12,145,40,26.68-3.43,43.77-15.45,86-14,21.01.72,35.3,1.21,39,9,10.65,22.43-65.2,108.16-145,107-67.81-.99-107.24-64.26-122-52-13.46,11.18,5,75.78,52,101,32.46,17.42,66.42,9.56,89,4,15.26-3.76,126.69-31.22,155-136,24.68-91.33-29.86-181.94-93-214Z"/>
  <path class="cls-3" d="m44,269c-6.05,8.78,1.14,23.69,9,40,7.06,14.66,23.35,40.99,34,38,9.26-2.6,1.28-23.74,15-37,14.51-14.02,44.57-10.8,80-7,22.61,2.42,31.22,2.53,35-3,6.09-8.92-3.21-31.27-19-39-17.67-8.65-30.01,7.61-63,13-49.34,8.06-81.3-19.08-91-5Z"/>
  <path class="cls-3" d="m366,308c3.33-14.26-5.81-32.95-17-35-16.32-2.99-25.17,31.62-52,33-14.06.72-22.15-8.24-29-3-6.61,5.05-7.12,19.52-1,28,11.54,15.99,44.51,7.65,55,5,17.12-4.33,39.81-10.07,44-28Z"/>
  <path class="cls-3" d="m369,123c-5.71-3.83-15.78,2.26-17,3-10.07,6.08-10.1,14.28-18,27-13.34,21.48-29.75,24.67-28,34,1.48,7.9,14.33,11.53,16,12,18.91,5.34,28.8-9.73,59-15,20.38-3.55,35.52-.11,36-3,.72-4.39-35.41-6.01-44-27-5.34-13.04,2.91-26.37-4-31Z"/>
  <path class="cls-3" d="m173,435c1.28-4.77,44.69,6.9,77,8,99.42,3.39,172.07-90.61,177-85,3.51,4-30.54,55.01-91,82-59.51,26.57-117.83,17.9-149,4-3.59-1.6-14.66-6.54-14-9Z"/>
  <path class="cls-3" d="m89,153c17.03-9.3,33.27,12.43,56,5,13.57-4.44,23.03-17.16,21-21-4.17-7.89-57.2,21.2-71,5-7.22-8.48,1.07-23.76-2-25-7.09-2.86-52.48,78.15-42,86,3,2.25,10.79-1.37,15-6,5.76-6.32,3.48-13,7-23,.32-.92,5.55-15.29,16-21Z"/>
  <path class="cls-5" d="m273,200c-42.97,3.27-62.21-6.91-65,0-4.18,10.34,20.48,32.84,46,43,31.64,12.59,73.44,10.77,79-4,4.39-11.68-13.27-33.05-33-39-8.49-2.56-13.33-1.04-27,0Z"/>
  <path class="cls-5" d="m219,140c-.41,4.91,7.87,9.42,13,11,20.85,6.41,44.8-18.76,42-25-3.5-7.8-54.02,2.24-55,14Z"/>
  <path class="cls-5" d="m397,344c-6.31,7.29-18.25,4.92-20,1-2.59-5.79,13.94-21.84,20-19,3.78,1.77,5.41,11.75,0,18Z"/>
  <path class="cls-5" d="m192,374c-1.98,5.33,15.94,18.71,34,23,22.52,5.35,47.02-3.01,47-9-.04-10.62-77.25-24.1-81-14Z"/>
  <path class="cls-5" d="m118,366c-10.92-2.44-25.63.55-29,8-7.86,17.37,42.72,66.01,57,58,9.45-5.3,6.57-37.41-10-55-2.71-2.87-8.52-8.89-18-11Z"/>
  <path class="cls-5" d="m206,40c-6.38,1.72-33.92,9.16-34,20-.05,7.08,11.62,12.37,13,13,31.9,14.47,84.31-21.43,81-33-2.49-8.73-37.43-6.09-60,0Z"/>
  <path class="cls-5" d="m60,281c-5.13,6.69-.53,18.95,4,31,1.53,4.09,8.18,21.78,14,21,5.2-.7,2.39-15.14,13-27,10.08-11.26,22.78-9.58,23-14,.42-8.28-43.69-24.45-54-11Z"/>
</svg>