<?xml version="1.0" encoding="UTF-8"?>
<svg id="_Слой_1" data-name="Слой 1" xmlns="http://www.w3.org/2000/svg" xmlns:xlink="http://www.w3.org/1999/xlink" viewBox="0 0 500 500">
  <defs>
    <style>
      .cls-1 {
        fill: #95c35a;
      }

      .cls-1, .cls-2, .cls-3, .cls-4, .cls-5, .cls-6, .cls-7, .cls-8, .cls-9, .cls-10, .cls-11, .cls-12, .cls-13, .cls-14, .cls-15, .cls-16, .cls-17 {
        stroke-miterlimit: 10;
      }

      .cls-1, .cls-2, .cls-3, .cls-4, .cls-5, .cls-6, .cls-7, .cls-8, .cls-9, .cls-10, .cls-12, .cls-13, .cls-14, .cls-15, .cls-16, .cls-17 {
        stroke-width: .5px;
      }

      .cls-1, .cls-5, .cls-6, .cls-8, .cls-11, .cls-14, .cls-15, .cls-16 {
        stroke: #1d1d1b;
      }

      .cls-2 {
        fill: #efe63a;
      }

      .cls-2, .cls-9, .cls-10 {
        stroke: #b3b3b3;
      }

      .cls-18 {
        fill: #a1ffed;
      }

      .cls-18, .cls-19, .cls-20, .cls-21, .cls-22 {
        opacity: .5;
      }

      .cls-23, .cls-4, .cls-21, .cls-11, .cls-24, .cls-15 {
        fill: #fff;
      }

      .cls-19, .cls-12 {
        fill: #8dc1ff;
      }

      .cls-3 {
        fill: #c5c5fc;
      }

      .cls-3, .cls-4, .cls-7, .cls-12, .cls-13, .cls-17 {
        stroke: #1b1464;
      }

      .cls-4 {
        opacity: .36;
      }

      .cls-6, .cls-25, .cls-13 {
        fill: #e57527;
      }

      .cls-7 {
        fill: #8f8fff;
      }

      .cls-8 {
        fill: #83caca;
      }

      .cls-9 {
        fill: #97ed3b;
      }

      .cls-10 {
        fill: #3b95ed;
      }

      .cls-11 {
        stroke-width: .25px;
      }

      .cls-24 {
        opacity: .7;
      }

      .cls-26 {
        fill: #c82913;
      }

      .cls-27 {
        fill: #7a7add;
      }

      .cls-22 {
        fill: #fff1b8;
      }

      .cls-14, .cls-28 {
        fill: #fff6bd;
      }

      .cls-29 {
        fill: #0129ac;
      }

      .cls-16 {
        fill: url(#_Безымянный_градиент_47);
      }

      .cls-30 {
        fill: #d56e34;
      }

      .cls-17 {
        fill: #afafe8;
      }

      .cls-31 {
        fill: #1d1d1b;
      }
    </style>
    <radialGradient id="_Безымянный_градиент_47" data-name="Безымянный градиент 47" cx="231.29" cy="206.57" fx="231.29" fy="206.57" r="13.05" gradientTransform="translate(55.44 0) scale(.83 1)" gradientUnits="userSpaceOnUse">
      <stop offset=".17" stop-color="#ec72a8"/>
      <stop offset=".97" stop-color="#a33044"/>
    </radialGradient>
  </defs>
  <g>
    <g>
      <path class="cls-12" d="m237.71,228.65c-33.13.53-56,15.1-61.47,18.75-23.39,15.64-34.61,35.58-41.68,51.05-16.28,35.64-34.67,75.91-17.71,115.65,21.47,50.32,85.8,67.44,130.24,64.6,7.79-.5,85.75-7.09,112.53-68.77,22.54-51.91-8.04-104.05-16.67-118.78-6.16-10.51-17.85-29.92-41.68-44.8-27.6-17.25-54.59-17.86-63.56-17.71Z"/>
      <path class="cls-12" d="m322.1,280.75c-2.16,9.07,1.76,16.96,9.38,32.3,7.34,14.77,13.11,26.38,22.92,28.13,15.12,2.7,31.48-19.48,38.55-33.34,9.45-18.51,3.02-23.54,13.55-51.05,7.51-19.63,12.52-21.62,13.55-34.38,1.1-13.72-2.7-36.32-16.67-40.64-14.41-4.44-33.72,12.39-36.47,28.13-1.71,9.83,2.78,20.66,2.08,20.84-.74.19-2.94-12.87-8.34-13.55-2.5-.31-5,2.12-6.25,4.17-3.82,6.27,2.04,12.45,2.08,19.8.09,16.56-29.55,19.31-34.38,39.59Z"/>
      <g>
        <path class="cls-6" d="m323.84,235.43c-7.16-10.48,10.83-9.54,2.46-16.99,5.25-3.24,11.96-8.2,11.58-14.35-4.95-.2,6.86-26.35-2.89-25.36,7.45-2.74,11.74-15.15.87-15.56,4.04-5.97,7.36-17.3-5.47-14.02,4.12-4.89,2.63-14.76-5.77-11.4,4.95-3.12,7.57-16.86-1.47-9.07,10.99-7.46-5.52-22.49-13.29-16.99,5.83-8.2,1.28-15.5-9.93-9.61,7.71-11.54-19.3-20.55-24.68-8.55-.21-10.16-4.33-14.37-11.2-3.81.55-3.34-12.39-12.78-13.06-15.78,0,0,2.22,26.42-4.5,16.42-8.59-15.29-13.37-12.32-19.45-.64-12.91-13.5-5.75,4.32-26.02-2.41,3.59,8.59-30.63,7.96-19.78,24.38-8.08-5.41-23.98,9.42-13.3,16.99-9.04-7.75-6.42,5.92-1.47,9.07-8.4-3.36-9.9,6.52-5.77,11.4-12.83-3.27-9.51,8.05-5.47,14.02-10.87.41-6.58,12.82.87,15.56-9.75-1.04,2.04,25.22-2.9,25.36-.38,6.15,6.33,11.11,11.58,14.35-8.52,7.56,9.61,6.16,2.46,16.99"/>
        <path class="cls-30" d="m235.24,223.5c-4.24-13.92,6.3-76.98-13.63-102.16,0,0,15.97,18.25,15.97,18.25l-4.88-37.82,10.07,33.47c8.94-38.79,8.4-45.03,8.23,0,0,0,16.96-18.76,16.96-18.76l-8.33,24.41,13.47-16.08c-31.32,21.47,7.51,125.07-37.86,98.69Z"/>
        <g>
          <path class="cls-28" d="m252.42,263.17c162.13-44.46-33.22-113.84-75.59-46.35,3.86,20.24,37.73,48.81,75.59,46.35Z"/>
          <path class="cls-31" d="m252.42,263.17c9.64-2.67,19.2-5.71,28.46-9.51,9.2-3.81,18.36-8.25,25.93-14.82,14.99-13.2,9.28-26.64-6.17-35.89-33.18-19.5-100.71-22.2-123.69,13.94,3.71,15.03,17.02,26.92,30.15,34.84,13.61,8,29.48,12.42,45.31,11.44h0Zm0,0c-15.83,1.03-31.74-3.35-45.38-11.31-12.75-7.6-27.08-20.07-30.32-35.11,23.21-36.52,90.57-33.86,124.09-14.06,15.5,9.33,21.32,22.99,6.12,36.29-7.61,6.56-16.79,10.97-26.02,14.77-9.27,3.78-18.84,6.79-28.49,9.43h0Z"/>
        </g>
        <g>
          <path class="cls-1" d="m230.75,178.04c-.52,15.92-22.43,14.94-21.52-.97.52-15.92,22.43-14.93,21.52.97Z"/>
          <path class="cls-5" d="m227.69,179.55c-.44,12.97-16.26,12.26-15.54-.7.44-12.96,16.26-12.26,15.54.7Z"/>
        </g>
        <g>
          <path class="cls-11" d="m247.25,239.86c-13.67,5.42-6.48-15.88-8.23-21.95,0,0,8.23,0,8.23,0v21.95Z"/>
          <path class="cls-11" d="m255.48,239.86c-13.67,5.42-6.48-15.88-8.23-21.95,0,0,8.23,0,8.23,0v21.95Z"/>
        </g>
        <g>
          <path class="cls-14" d="m247.43,208.14c12.1,30.26-40.18,34.69-26.96,5.72"/>
          <path class="cls-14" d="m274.39,213.72c13.56,28.32-38.78,25.06-26.96-4.92"/>
        </g>
        <g>
          <g>
            <path class="cls-8" d="m260.61,178.04c.52,15.92,22.43,14.94,21.52-.97-.52-15.92-22.43-14.93-21.52.97Z"/>
            <path class="cls-5" d="m263.67,179.55c.44,12.97,16.26,12.26,15.54-.7-.44-12.96-16.26-12.26-15.54.7Z"/>
          </g>
          <circle class="cls-23" cx="275.74" cy="176.04" r="2.08"/>
        </g>
        <path class="cls-16" d="m246.85,202.61c23.75-11.65,13.59,6.81.28,11.92-12.14-4.82-23.28-24.18-.2-11.91"/>
        <circle class="cls-15" cx="224.68" cy="176.04" r="2.6"/>
      </g>
      <path class="cls-7" d="m281.47,475.59c-1.23-7.26,5.53-13.93,10.42-18.75,14.56-14.37,42.13-26.94,69.81-17.71,22.03,7.34,44.63,28.66,40.64,42.72-5.08,17.85-51.39,18.08-76.06,14.59-8.44-1.19-42.29-5.98-44.8-20.84Z"/>
      <path class="cls-7" d="m204.81,472.56c1.23-7.26-5.53-13.93-10.42-18.75-14.56-14.37-42.13-26.94-69.81-17.71-22.03,7.34-44.63,28.66-40.64,42.72,5.08,17.85,51.39,18.08,76.06,14.59,8.44-1.19,42.29-5.98,44.8-20.84Z"/>
      <g class="cls-20">
        <g>
          <path class="cls-27" d="m334.08,278.56c-7.72.85-16.04,2.63-24.65,5.82-24.36,9.02-38.65,24.72-42.08,28.65-18.71,21.41-21.55,43.86-25.07,42.98-3.07-.76-3.47-18.47,2.69-34.92,7.89-21.1,23.84-32.86,30.44-37.61,16.65-11.95,35-16.74,50.96-18.23,1.22,1.94,2.27,3.72,3.17,5.26,1.15,1.95,2.74,4.67,4.55,8.04Z"/>
          <path class="cls-27" d="m145.91,278.55c7.72.85,16.04,2.63,24.65,5.82,24.36,9.02,38.65,24.72,42.08,28.65,18.71,21.41,21.55,43.86,25.07,42.98,3.07-.76,3.47-18.47-2.69-34.92-7.89-21.1-23.84-32.86-30.44-37.61-16.65-11.95-35-16.74-50.96-18.23-1.22,1.94-2.27,3.72-3.17,5.26-1.15,1.95-2.74,4.67-4.55,8.04Z"/>
        </g>
        <path class="cls-27" d="m232.5,479.24v-207.86h15.63v206.55c-5.21.44-10.42.88-15.63,1.32Z"/>
      </g>
      <path class="cls-7" d="m236.66,387.03c-27.23-.41-51.61-.78-77.1-14.59-24.96-13.52-32.24-29.78-41.68-26.05-11.08,4.38-15.15,32.35-4.17,50.01,4.85,7.81,11.43,11.63,21.88,17.71,14.37,8.36,27.97,12.67,40.64,15.63,7.38,1.73,28.42,6.27,60.43,6.25,34.33-.02,57.56-5.27,89.61-12.5,29.66-6.7,37.03-10.73,42.72-17.71,13.15-16.14,13.94-43.88,3.13-51.05-10.18-6.75-23.25,9.59-60.43,21.88-32.76,10.83-60.45,10.64-75.02,10.42Z"/>
      <path class="cls-24" d="m305.68,387.17c-.05.15-.57,1.69.01,2.69,2.43,4.11,23.18-2.52,39.79-11.09,9.56-4.93,23.64-13.53,22.45-16.44-.28-.68-1.34-.93-2.85-1-8.33-.43-12.98,5.26-21.87,10.23-5.31,2.98-18.47,9.24-29.24,11.16-1.75.31-7.15,1.17-8.29,4.45Z"/>
      <path class="cls-24" d="m301.84,390.62c.33-1.35-.38-2.83-1.39-3.58-.82-.62-2.29-.52-5.2-.29-3.13.25-3.7.59-4.1.98-1.13,1.11-1.05,2.75-1.04,2.95.02.3.15,1.76,1.27,2.66.84.67,2.15.57,4.73.34,2.96-.26,3.73-.72,4.1-.98.44-.31,1.34-.94,1.62-2.08Z"/>
      <g>
        <ellipse class="cls-2" cx="146.38" cy="385.79" rx="5.06" ry="4.49"/>
        <path class="cls-23" d="m145.82,389.16c.06.26,2.53.59,3.65-.84,1.26-1.61-.13-4.24-.28-4.21-.12.02.55,1.67-.28,3.09-.95,1.61-3.15,1.72-3.09,1.97Z"/>
        <path class="cls-23" d="m145.26,382.42c-.87-.14-1.91.3-2.25,1.12-.43,1.04.43,2.28.56,2.25.06-.02.03-.3,0-.56.08-.29.23-.71.56-1.12.8-.98,1.98-1.1,2.25-1.12-.17-.16-.56-.47-1.12-.56Z"/>
      </g>
      <g>
        <ellipse class="cls-9" cx="156.21" cy="391.69" rx="5.06" ry="4.49"/>
        <path class="cls-23" d="m155.65,395.06c.06.26,2.53.59,3.65-.84,1.26-1.61-.13-4.24-.28-4.21-.12.02.55,1.67-.28,3.09-.95,1.61-3.15,1.72-3.09,1.97Z"/>
        <path class="cls-23" d="m155.09,388.32c-.87-.14-1.91.3-2.25,1.12-.43,1.04.43,2.28.56,2.25.06-.02.03-.3,0-.56.08-.29.23-.71.56-1.12.8-.98,1.98-1.1,2.25-1.12-.17-.16-.56-.47-1.12-.56Z"/>
      </g>
      <g>
        <ellipse class="cls-10" cx="168.57" cy="395.06" rx="5.06" ry="4.49"/>
        <path class="cls-23" d="m168.01,398.43c.06.26,2.53.59,3.65-.84,1.26-1.61-.13-4.24-.28-4.21-.12.02.55,1.67-.28,3.09-.95,1.61-3.15,1.72-3.09,1.97Z"/>
        <path class="cls-23" d="m167.45,391.69c-.87-.14-1.91.3-2.25,1.12-.43,1.04.43,2.28.56,2.25.06-.02.03-.3,0-.56.08-.29.23-.71.56-1.12.8-.98,1.98-1.1,2.25-1.12-.17-.16-.56-.47-1.12-.56Z"/>
      </g>
      <path class="cls-3" d="m137.68,391.19c6.22,4.13,14.21,8.67,23.96,12.5,13.75,5.4,26.16,7.51,35.43,8.34-1.74,5.9-3.47,11.81-5.21,17.71-9.98-1.07-23.09-3.55-37.51-9.38-9.58-3.87-17.57-8.33-23.96-12.5,2.43-5.56,4.86-11.11,7.29-16.67Z"/>
      <path class="cls-17" d="m138.72,395.36c2.58,1.79,5.36,3.54,8.34,5.21,16.19,9.09,32.22,12.44,44.8,13.55-.69,1.39-1.39,2.78-2.08,4.17-12.58-1.11-28.62-4.45-44.8-13.55-2.98-1.67-5.75-3.42-8.34-5.21.69-1.39,1.39-2.78,2.08-4.17Z"/>
      <path class="cls-17" d="m135.39,401.73c2.58,1.79,5.36,3.54,8.34,5.21,16.19,9.09,32.22,12.44,44.8,13.55-.69,1.39-1.39,2.78-2.08,4.17-12.58-1.11-28.62-4.45-44.8-13.55-2.98-1.67-5.75-3.42-8.34-5.21.69-1.39,1.39-2.78,2.08-4.17Z"/>
      <g>
        <g>
          <path class="cls-4" d="m244.79,93.95c-3.96.04-56.48,1.44-77.08,44.38-17.28,36.02-1.81,79.82,25.69,98.88,15.54,10.76,32.35,11.65,47.49,12.46,17.82.95,44.18,2.35,65.57-14.75,23.63-18.89,33.79-54.43,23.96-84.9-12.51-38.78-53.19-56.38-85.64-56.06Z"/>
          <path class="cls-19" d="m224.4,114.58c-.85-1.95-18.74-.69-29.58,11.68-12.95,14.78-8.6,37.17-7.01,37.37,1.17.15.39-11.88,8.56-24.91,10.99-17.52,28.91-22.11,28.03-24.14Z"/>
          <path class="cls-22" d="m250.1,230.58c6.57.69,19.57,1.06,31.92-6.23,25.47-15.03,28.06-50.78,26.47-51.38-1.21-.46-4.83,19.18-22.58,36.59-11.88,11.65-25.37,17.68-35.81,21.02Z"/>
          <path class="cls-21" d="m177.05,153.11l3.93-19.08,3.93,19.08h15.73l-15.96,4.67-2.92,18.51c-1.1-5.91-2.2-11.82-3.31-17.74-5.97,1.04-11.94,2.08-17.91,3.11,5.5-2.86,11-5.71,16.49-8.57Z"/>
        </g>
        <path class="cls-18" d="m303.78,153.81c-.28,1.52.39,2.48,1.44,6.87.85,3.55.77,4.42,1.47,5.25,1.01,1.19,2.62,1.06,3.36-.13,1.18-1.91-.17-6.07-.75-7.87-.38-1.18-1.94-5.98-3.69-6.24-.89-.13-1.61.94-1.83,2.13Z"/>
      </g>
      <path class="cls-12" d="m357.01,142.69c-14.9-52.69-71.88-75.45-114.61-75.02-5.29.05-75.58,1.93-103.15,59.39-23.13,48.2-2.43,106.83,34.38,132.32,22.77,15.77,48.04,16.33,63.56,16.67,15.46.34,50.95,1.13,81.27-22.92,29.3-23.23,50.76-67.29,38.55-110.44Zm-42.2,80.75c-19.21,22.6-49.28,22.8-67.73,22.92-17.9.13-46.49.31-66.68-20.84-21.44-22.45-23.76-58.85-10.42-86.48,14.08-29.17,44.14-45.57,73.98-45.84,34.15-.31,63.88,20.54,77.1,48.97,10.6,22.79,13.9,57.57-6.25,81.27Z"/>
      <path class="cls-6" d="m425.73,221.28c-.26,3.19-.74,5.78-1.42,8.13-3.95,13.54-9.26,23.4-13.74,30.36-2.14,3.32-5.19,7.73-9.28,12.65-3.79-.57-8.96-1.53-14.97-3.22-10.05-2.83-17.32-6.25-21.49-8.24-5.31-2.53-10.2-5.24-14.63-8,.68-.7,1.73-1.9,2.59-3.59,5.2-10.24-5.55-20.63-.52-29.24,1.48-2.54,4.38-4.99,7-4.67,6.03.75,8.49,15.37,9.33,15.16.78-.2-4.25-12.33-2.33-23.33,3.07-17.62,24.69-36.46,40.81-31.48,15.64,4.82,19.89,30.12,18.66,45.47Z"/>
      <path class="cls-25" d="m384.27,322.42c-3.02,3.89-6.39,7.6-9.94,10.63-6.64-4-13.85-9.16-20.97-15.83-14.34-13.39-23.33-28.14-28.99-40.62,1.88-4.76,5.2-8.47,9.05-11.67,5.54,12.15,15.35,28.89,32.44,43.96,6.27,5.53,12.54,9.97,18.41,13.53Z"/>
      <g>
        <g>
          <path class="cls-12" d="m154.35,266.16c-7.85-2.87-17.18,4.43-20.84,7.29-11.7,9.15-16.63,23.48-17.47,33.31-3.07,36.05,43.86,71.08,83.62,81.11,10.63,2.68,32.42,8.17,48.38-3.7,1.82-1.35,16.71-12.77,13.76-26.9-1.35-6.46-6.33-13.06-13.08-15.29-11.3-3.73-24.11,5.92-24.98,4.33-.72-1.32,9.34-5.8,9.68-13.33.14-3-1.26-6.63-3.74-7.52-2.33-.84-4.93.99-6.88,2.41-12.71,9.25-13.82,12.81-17.25,13.77-8.09,2.26-24.34-13.59-34.14-34.41-10.61-22.55-7.42-37.55-17.06-41.07Z"/>
          <path class="cls-25" d="m169.46,304.19c-5.28,3.95-11.3,9.15-17.29,15.86-9.09,10.18-14.92,20.28-18.63,28.12-2.14-1.99-4.49-4.48-6.79-7.51-3.45-4.54-5.75-8.93-7.29-12.5,1.75-1.81,4.6-4.76,8.08-8.46,4.03-4.28,6.87-7.39,7.38-7.95,3.76-4.09,11.54-11.16,29.35-24.22.63,2.37,1.32,4.8,2.08,7.29,1,3.27,2.05,6.4,3.13,9.38Z"/>
        </g>
        <path class="cls-13" d="m267.03,355.83c3.15,15.13-12.78,27.35-14.73,28.79-17.08,12.72-40.4,6.84-51.78,3.96-5.13-1.3-10.39-2.99-15.66-5.07-1.22-.48-2.44-.99-3.66-1.51-1.18-6.62-1.6-14.81.34-23.85.57-2.68,1.31-5.23,2.18-7.65,2.44-6.77,5.89-12.52,9.66-17.3,4.75,4.34,9.49,7,13.44,5.9,3.67-1.03,4.86-4.84,18.47-14.74,2.09-1.52,4.87-3.48,7.37-2.58,2.65.96,4.14,4.85,4,8.05-.37,8.06-11.14,12.86-10.36,14.26.93,1.7,14.63-8.62,26.73-4.64,7.23,2.39,12.57,9.46,14,16.36Z"/>
      </g>
      <path class="cls-24" d="m412.23,240.64c3.35-5.23,6.67-12.28,7.29-20.84,1.62-22.3-16.09-40.97-16.67-40.64-.42.24,8.26,10.2,11.46,27.09,2.62,13.82.39,25.99-2.08,34.38Z"/>
      <path class="cls-24" d="m376.8,260.43c4.67,1.85,11.89,3.81,18.75,1.04,9.29-3.75,12.64-14.04,13.55-13.55.97.53-.95,13.45-10.42,17.71-6.66,3-15.31.92-21.88-5.21Z"/>
      <path class="cls-24" d="m362.22,232.3c.7.27,3.03-2.28,3.13-5.21.09-2.63-1.66-4.6-3.13-6.25-1.67-1.88-3.84-3.44-4.17-3.13-.44.42,3.33,3.31,4.17,8.34.59,3.56-.64,6.01,0,6.25Z"/>
      <path class="cls-24" d="m263.29,349.5c-2.99-3.28-7.17-6.69-12.61-7.96-14.19-3.3-28.23,10.05-28.08,10.57.11.37,7.51-6.09,18.76-7.34,9.21-1.02,16.8,1.92,21.93,4.73Z"/>
      <path class="cls-24" d="m188.89,353.35c-1.98,4.61-4.15,11.77-1.57,18.72,3.49,9.39,13.67,13.03,13.16,13.92-.55.96-13.42-1.33-17.41-10.91-2.81-6.74-.49-15.33,5.82-21.72Z"/>
      <path class="cls-24" d="m234.14,328.64c.3-.68-2.13-3.14-5.05-3.38-2.62-.22-4.67,1.43-6.4,2.81-1.96,1.58-3.62,3.66-3.33,4.01.39.46,3.47-3.16,8.53-3.75,3.58-.42,5.97.94,6.24.31Z"/>
      <path class="cls-24" d="m276.78,257.31c11.1-1.97,32.07-7.48,48.97-25.01,26.12-27.08,25.5-65.23,23.96-65.64-1.43-.38-3.87,31.59-28.13,59.39-14.36,16.46-31.4,25.76-44.8,31.26Z"/>
      <path class="cls-24" d="m141.33,194.79c-2.39-12.58-4.35-33.49,5.21-54.18,22.64-48.99,92.23-58.53,92.73-57.31.42,1.03-48.36,9.03-77.1,50.01-14.43,20.57-19.36,43.09-20.84,61.47Z"/>
      <path class="cls-24" d="m395.56,476.11c1.15-1.31-11.09-19.56-32.3-28.13-19.08-7.71-38.39-4.77-38.55-3.13-.14,1.44,14.54,1.29,34.38,9.38,23.56,9.6,35.41,23.08,36.47,21.88Z"/>
      <path class="cls-24" d="m191.34,467.78c-.5.62-10.23-10.47-27.09-16.67-23.1-8.5-46.37-2.96-62.52,3.13,8.81-7.46,24.26-18.03,42.72-16.67,27.38,2.02,47.64,29.28,46.89,30.22Z"/>
      <path class="cls-12" d="m293.45,80.18c-.52-6.52,4.35-11.29,20.84-26.05,10.63-9.52,22.1-19.62,34.38-30.22-3.18,7.77-7.88,20.01-12.5,35.43-7.89,26.3-8.04,36.83-15.63,39.59-9.67,3.52-26.19-7.5-27.09-18.75Z"/>
      <ellipse class="cls-13" cx="348.86" cy="23.74" rx="21.08" ry="18.74"/>
      <path class="cls-21" d="m346.52,37.8c.24,1.07,10.55,2.45,15.23-3.51,5.26-6.71-.53-17.67-1.17-17.57-.5.08,2.29,6.98-1.17,12.88-3.95,6.73-13.12,7.17-12.88,8.2Z"/>
      <path class="cls-21" d="m344.18,9.69c-3.64-.58-7.96,1.25-9.37,4.69-1.79,4.35,1.79,9.52,2.34,9.37.25-.07.14-1.26,0-2.34.32-1.22.96-2.98,2.34-4.69,3.32-4.1,8.26-4.6,9.37-4.69-.73-.68-2.34-1.97-4.69-2.34Z"/>
      <path class="cls-24" d="m301.26,86.95c1.11.79,6.53,4.43,13.55,3.13,5.73-1.07,9.15-4.82,10.42-6.25,2.47-2.79,3.54-5.57,4.17-7.29,4.37-11.95,6.99-25.9,6.25-26.05-.9-.18-.74,21.3-14.59,31.26-6.78,4.88-14.7,5.39-19.8,5.21Z"/>
      <path class="cls-12" d="m189.39,85.08c.52-6.52-4.35-11.29-20.84-26.05-10.63-9.52-22.1-19.62-34.38-30.22,3.18,7.77,7.88,20.01,12.5,35.43,7.89,26.3,8.04,36.83,15.63,39.59,9.67,3.52,26.19-7.5,27.09-18.75Z"/>
      <ellipse class="cls-13" cx="133.97" cy="28.64" rx="21.08" ry="18.74"/>
      <path class="cls-21" d="m136.32,42.7c-.24,1.07-10.55,2.45-15.23-3.51-5.26-6.71.53-17.67,1.17-17.57.5.08-2.29,6.98,1.17,12.88,3.95,6.73,13.12,7.17,12.88,8.2Z"/>
      <path class="cls-21" d="m138.66,14.59c3.64-.58,7.96,1.25,9.37,4.69,1.79,4.35-1.79,9.52-2.34,9.37-.25-.07-.14-1.26,0-2.34-.32-1.22-.96-2.98-2.34-4.69-3.32-4.1-8.26-4.6-9.37-4.69.73-.68,2.34-1.97,4.69-2.34Z"/>
      <path class="cls-24" d="m181.57,91.85c-1.11.79-6.53,4.43-13.55,3.13-5.73-1.07-9.15-4.82-10.42-6.25-2.47-2.79-3.54-5.57-4.17-7.29-4.37-11.95-6.99-25.9-6.25-26.05.9-.18.74,21.3,14.59,31.26,6.78,4.88,14.7,5.39,19.8,5.21Z"/>
    </g>
    <path class="cls-21" d="m299.77,390.67l3.93-19.08,3.93,19.08h15.73l-15.96,4.67-2.92,18.51c-1.1-5.91-2.2-11.82-3.31-17.74-5.97,1.04-11.94,2.08-17.91,3.11,5.5-2.86,11-5.71,16.49-8.57Z"/>
  </g>
  <g>
    <path class="cls-26" d="m310.63,309.02l1.45,3.9c-3.97,3.27-8.15,5.73-12.67,7.41s-8.93,2.54-14.12,2.52c-.78-2.1-1.55-4.19-1.45-3.9l26.79-9.93Z"/>
    <path class="cls-29" d="m309.18,305.1l1.62,4.38c-4.52,3.12-8.27,5.27-12.76,6.94-4.44,1.64-8.81,2.65-14.03,2.99l-1.52-4.09,26.69-10.22Z"/>
    <path class="cls-23" d="m307.68,301.06l1.5,4.06c-4.08,2.55-8.36,4.86-12.82,6.56-4.45,1.69-9.21,3.11-13.89,3.59l-1.58-4.27c4.87-.43,9.52-1.85,14-3.51,4.45-1.65,8.72-3.84,12.79-6.42Z"/>
  </g>
</svg>