<?xml version="1.0" encoding="UTF-8"?>
<svg id="_Слой_1" data-name="Слой 1" xmlns="http://www.w3.org/2000/svg" viewBox="0 0 500 500">
  <defs>
    <style>
      .cls-1, .cls-2, .cls-3, .cls-4, .cls-5, .cls-6, .cls-7, .cls-8 {
        stroke-miterlimit: 10;
      }

      .cls-1, .cls-9 {
        fill: #c82913;
      }

      .cls-1, .cls-6 {
        stroke: #4d4d4d;
      }

      .cls-10, .cls-2, .cls-11, .cls-12, .cls-13 {
        fill: #fff;
      }

      .cls-14 {
        fill: #fff080;
      }

      .cls-14, .cls-15 {
        opacity: .5;
      }

      .cls-2, .cls-3, .cls-4, .cls-16, .cls-8 {
        stroke: #666;
      }

      .cls-11 {
        opacity: .56;
      }

      .cls-3 {
        fill: #abedeb;
        stroke-width: .5px;
      }

      .cls-4 {
        fill: #4d4d4d;
      }

      .cls-5 {
        fill: #ff9545;
        stroke: #42210b;
      }

      .cls-17 {
        fill: #333;
      }

      .cls-12 {
        opacity: .61;
      }

      .cls-15 {
        fill: #ff9906;
      }

      .cls-9 {
        opacity: .7;
      }

      .cls-6 {
        fill: #0129ac;
      }

      .cls-13 {
        opacity: .53;
      }

      .cls-7 {
        fill: #c6d3db;
        stroke: #999;
      }

      .cls-18 {
        fill: #b3b3b3;
      }

      .cls-19 {
        fill: #ffe36e;
      }

      .cls-16 {
        stroke-linecap: round;
        stroke-linejoin: round;
      }

      .cls-16, .cls-8 {
        fill: #f2f2f2;
      }
    </style>
  </defs>
  <g>
    <path class="cls-4" d="m306.61,438.23l7.59-4.8-7.59-4.81-12.41-7.87,18.86-11.95,1.74-1.1-5.3-3.36-15.3-9.7,20.48-12.98.11-.06-5.49-3.48-15.25-9.66,21.03-13.33-1.84-.99,1.27-.69-20.74-13.14,12.42-7.87,7.58-4.81-7.58-4.8-12.42-7.87,18.86-11.96,1.74-1.1-5.3-3.36-15.3-9.7,20.48-12.99.11-.06-5.49-3.48-15.24-9.67,21.02-13.32-8.18-4.42-20.42,12.94-20.66-13.09-8.18,4.42,21.26,13.47-13.94,8.84-6.65,4.21,4.91,3.11,15.83,10.03-13.02,8.25-7.58,4.8,4.72,3,15.88,10.06-12.42,7.87-7.58,4.8,7.58,4.81,12.42,7.87-20.98,13.29,1.29.69-1.28.69,21.26,13.47-13.94,8.84-6.65,4.21,4.91,3.11,15.83,10.03-13.02,8.25-7.59,4.81,4.73,2.99,15.88,10.06-12.42,7.87-7.59,4.81,7.59,4.8,12.42,7.87-20.98,13.3,8.18,4.42,20.38-12.91,20.14,12.76,8.18-4.42-20.74-13.15,12.41-7.87Zm-33.58-162.53l13.01-8.25,13.15,8.33-13.01,8.25-13.15-8.33Zm.13,26.19l13.02-8.25,13.03,8.25-13.03,8.25-13.02-8.25Zm.6,25.73l12.42-7.87,12.43,7.87-12.43,7.87-12.42-7.87Zm-2.06,26.66l14.48-9.18,14.78,9.36-14.49,9.18-14.77-9.36Zm1.76,27.22l13.01-8.25,13.16,8.34-13.01,8.24-13.16-8.33Zm.14,26.2l13.02-8.25,13.02,8.25-13.02,8.25-13.02-8.25Zm.6,25.73l12.42-7.87,12.42,7.87-12.42,7.87-12.42-7.87Z"/>
    <rect class="cls-4" x="237.67" y="242" width="30.7" height="222.75"/>
    <rect class="cls-4" x="303.3" y="242.62" width="30.7" height="222.75"/>
  </g>
  <g>
    <path class="cls-4" d="m407.95,438.66l7.59-4.8-7.59-4.81-12.41-7.87,18.86-11.95,1.74-1.1-5.3-3.36-15.3-9.7,20.48-12.98.11-.06-5.49-3.48-15.25-9.66,21.03-13.33-1.84-.99,1.27-.69-20.74-13.14,12.42-7.87,7.58-4.81-7.58-4.8-12.42-7.87,18.86-11.96,1.74-1.1-5.3-3.36-15.3-9.7,20.48-12.99.11-.06-5.49-3.48-15.24-9.67,21.02-13.32-8.18-4.42-20.42,12.94-20.66-13.09-8.18,4.42,21.26,13.47-13.94,8.84-6.65,4.21,4.91,3.11,15.83,10.03-13.02,8.25-7.58,4.8,4.72,3,15.88,10.06-12.42,7.87-7.58,4.8,7.58,4.81,12.42,7.87-20.98,13.29,1.29.69-1.28.69,21.26,13.47-13.94,8.84-6.65,4.21,4.91,3.11,15.83,10.03-13.02,8.25-7.59,4.81,4.73,2.99,15.88,10.06-12.42,7.87-7.59,4.81,7.59,4.8,12.42,7.87-20.98,13.3,8.18,4.42,20.38-12.91,20.14,12.76,8.18-4.42-20.74-13.15,12.41-7.87Zm-33.58-162.53l13.01-8.25,13.15,8.33-13.01,8.25-13.15-8.33Zm.13,26.19l13.02-8.25,13.03,8.25-13.03,8.25-13.02-8.25Zm.6,25.73l12.42-7.87,12.43,7.87-12.43,7.87-12.42-7.87Zm-2.06,26.66l14.48-9.18,14.78,9.36-14.49,9.18-14.77-9.36Zm1.76,27.22l13.01-8.25,13.16,8.34-13.01,8.24-13.16-8.33Zm.14,26.2l13.02-8.25,13.02,8.25-13.02,8.25-13.02-8.25Zm.6,25.73l12.42-7.87,12.42,7.87-12.42,7.87-12.42-7.87Z"/>
    <rect class="cls-4" x="339" y="242.43" width="30.7" height="222.75"/>
    <rect class="cls-4" x="404.64" y="243.05" width="30.7" height="222.75"/>
  </g>
  <g>
    <g>
      <path class="cls-15" d="m256.52,411.86c11.69.71,20.09-17.02,23.48-29.71.6-2.26,7.03-27.41-1.42-48.51-8.01-20.02-25.4-26.39-36.53-13.77-9.3,10.54-10.7,30.34-10.9,33.66-.9,14.87,2.52,25.97,3.92,30.37,1.55,4.87,8.65,27.19,21.46,27.97Z"/>
      <path class="cls-14" d="m256.76,347.52c5.4.07,14.16.18,18.93-6.06,4.22-5.52,3.31-13.35.25-18.42-5.88-9.78-21.57-12.43-31.3-6.54-4.61,2.79-10.06,8.8-9.34,16,.6,6.03,5.22,9.78,6.31,10.67,5.22,4.24,11.28,4.31,15.15,4.36Z"/>
      <path class="cls-14" d="m257.2,353.15c6.3.08,16.52.21,22.09-7.07,4.93-6.44,3.86-15.58.29-21.5-6.87-11.42-25.17-14.5-36.53-7.64-5.38,3.25-11.74,10.27-10.9,18.67.7,7.04,6.1,11.42,7.36,12.45,6.09,4.95,13.17,5.04,17.68,5.09Z"/>
      <path class="cls-14" d="m256.38,369.46c11.69.39,20.09-9.44,23.48-16.48.6-1.26,7.03-15.21-1.42-26.91-8.01-11.1-25.4-14.64-36.53-7.64-9.3,5.85-10.7,16.83-10.9,18.67-.9,8.25,2.52,14.41,3.92,16.85,1.55,2.7,8.65,15.08,21.46,15.51Z"/>
      <path class="cls-14" d="m256.27,389.56c11.69.55,20.09-13.19,23.48-23.04.6-1.76,7.03-21.25-1.42-37.61-8.01-15.52-25.4-20.46-36.53-10.67-9.3,8.17-10.7,23.52-10.9,26.09-.9,11.53,2.52,20.14,3.92,23.55,1.55,3.78,8.65,21.08,21.46,21.68Z"/>
      <path class="cls-11" d="m242.65,322.82c-3.55,4.74-1.29,10.7-1.1,11.18,2.41,6.15,9.44,9,15.08,9.04,6.07.04,12.64-3.15,15.23-8.83.43-.94,2.41-5.21.44-9.28-3-6.19-11.97-6.61-14.94-6.75-3.53-.17-10.87-.51-14.72,4.64Z"/>
    </g>
    <g>
      <path class="cls-15" d="m413.41,412.05c11.69.71,20.09-17.02,23.48-29.71.6-2.26,7.03-27.41-1.42-48.51-8.01-20.02-25.4-26.39-36.53-13.77-9.3,10.54-10.7,30.34-10.9,33.66-.9,14.87,2.52,25.97,3.92,30.37,1.55,4.87,8.65,27.19,21.46,27.97Z"/>
      <path class="cls-14" d="m413.64,347.71c5.4.07,14.16.18,18.93-6.06,4.22-5.52,3.31-13.35.25-18.42-5.88-9.78-21.57-12.43-31.3-6.54-4.61,2.79-10.06,8.8-9.34,16,.6,6.03,5.22,9.78,6.31,10.67,5.22,4.24,11.28,4.31,15.15,4.36Z"/>
      <path class="cls-14" d="m414.09,353.34c6.3.08,16.52.21,22.09-7.07,4.93-6.44,3.86-15.58.29-21.5-6.87-11.42-25.17-14.5-36.53-7.64-5.38,3.25-11.74,10.27-10.9,18.67.7,7.04,6.1,11.42,7.36,12.45,6.09,4.95,13.17,5.04,17.68,5.09Z"/>
      <path class="cls-14" d="m413.26,369.65c11.69.39,20.09-9.44,23.48-16.48.6-1.26,7.03-15.21-1.42-26.91-8.01-11.1-25.4-14.64-36.53-7.64-9.3,5.85-10.7,16.83-10.9,18.67-.9,8.25,2.52,14.41,3.92,16.85,1.55,2.7,8.65,15.08,21.46,15.51Z"/>
      <path class="cls-14" d="m413.16,389.76c11.69.55,20.09-13.19,23.48-23.04.6-1.76,7.03-21.25-1.42-37.61-8.01-15.52-25.4-20.46-36.53-10.67-9.3,8.17-10.7,23.52-10.9,26.09-.9,11.53,2.52,20.14,3.92,23.55,1.55,3.78,8.65,21.08,21.46,21.68Z"/>
      <path class="cls-11" d="m399.53,323.01c-3.55,4.74-1.29,10.7-1.1,11.18,2.41,6.15,9.44,9,15.08,9.04,6.07.04,12.64-3.15,15.23-8.83.43-.94,2.41-5.21.44-9.28-3-6.19-11.97-6.61-14.94-6.75-3.53-.17-10.87-.51-14.72,4.64Z"/>
    </g>
    <g>
      <path class="cls-15" d="m333.47,425.98c22.71.71,39.03-17.02,45.62-29.71,1.17-2.26,13.66-27.41-2.76-48.51-15.57-20.02-49.36-26.39-70.98-13.77-18.06,10.54-20.79,30.34-21.18,33.66-1.75,14.87,4.89,25.97,7.61,30.37,3.01,4.87,16.81,27.19,41.69,27.97Z"/>
      <path class="cls-14" d="m333.92,361.64c10.5.07,27.51.18,36.79-6.06,8.2-5.52,6.42-13.35.49-18.42-11.43-9.78-41.91-12.43-60.82-6.54-8.96,2.79-19.54,8.8-18.15,16,1.17,6.03,10.15,9.78,12.26,10.67,10.14,4.24,21.93,4.31,29.43,4.36Z"/>
      <path class="cls-14" d="m334.78,367.27c12.25.08,32.11.21,42.93-7.07,9.57-6.44,7.5-15.58.57-21.5-13.34-11.42-48.91-14.5-70.98-7.64-10.46,3.25-22.81,10.27-21.18,18.67,1.37,7.04,11.85,11.42,14.31,12.45,11.84,4.95,25.59,5.04,34.35,5.09Z"/>
      <path class="cls-14" d="m333.19,383.58c22.71.39,39.03-9.44,45.62-16.48,1.17-1.26,13.66-15.21-2.76-26.91-15.57-11.1-49.36-14.64-70.98-7.64-18.06,5.85-20.79,16.83-21.18,18.67-1.75,8.25,4.89,14.41,7.61,16.85,3.01,2.7,16.81,15.08,41.69,15.51Z"/>
      <path class="cls-14" d="m332.98,403.68c22.71.55,39.03-13.19,45.62-23.04,1.17-1.76,13.66-21.25-2.76-37.61-15.57-15.52-49.36-20.46-70.98-10.67-18.06,8.17-20.79,23.52-21.18,26.09-1.75,11.53,4.89,20.14,7.61,23.55,3.01,3.78,16.81,21.08,41.69,21.68Z"/>
      <path class="cls-11" d="m306.51,336.94c-6.89,4.74-2.5,10.7-2.13,11.18,4.69,6.15,18.34,9,29.3,9.04,11.8.04,24.56-3.15,29.6-8.83.84-.94,4.69-5.21.85-9.28-5.82-6.19-23.26-6.61-29.02-6.75-6.86-.17-21.11-.51-28.6,4.64Z"/>
    </g>
  </g>
  <g>
    <path class="cls-7" d="m283.41,332.81c-4.14,10.79,7.21,25.85,15.26,32.84,12.62,10.96,27.52,11.12,36.85,11.22,8.55.09,21.01.22,32.84-8.01,11.98-8.33,23.88-25.61,19.41-36.85-9.56-24.04-95.13-23.29-104.36.8Z"/>
    <g>
      <path class="cls-7" d="m320.77,376.13c-.87-3.74-1.61-8.38-1.68-13.72-.12-8.76,1.59-15.98,3.22-20.96"/>
      <path class="cls-7" d="m349.09,375.56c.93-3.16,1.77-7.15,1.98-11.81.4-8.84-1.66-15.97-3.35-20.37"/>
      <circle class="cls-7" cx="315.41" cy="346.36" r="1.08"/>
      <circle class="cls-7" cx="313.8" cy="353.31" r="1.08"/>
      <circle class="cls-7" cx="313.81" cy="360.38" r="1.08"/>
      <circle class="cls-7" cx="315.44" cy="367.57" r="1.08"/>
      <circle class="cls-7" cx="355.3" cy="351.02" r="1.08"/>
      <circle class="cls-7" cx="355.85" cy="358.13" r="1.08"/>
      <circle class="cls-7" cx="354.77" cy="365.11" r="1.08"/>
      <circle class="cls-7" cx="352.08" cy="371.98" r="1.08"/>
    </g>
    <path class="cls-2" d="m368.94,47.46c-11.45,1.96-23.83,3.23-36.71,3.63-14.91.47-29.11-.25-42.06-1.95,1.45-3.27,3.83-7.8,7.72-12.66,5.26-6.57,16.49-20.59,31.8-20.58,13.57,0,23.64,11.04,29.89,17.87,4.76,5.21,7.65,10.19,9.37,13.69Z"/>
    <path class="cls-6" d="m384.71,78.07c-15.58,4.33-33.47,7.1-52.51,7.72-20.75.68-40.19-1.25-56.83-5.21,4.07-10.83,7.74-18.84,9.78-23.33,1.33-2.94,2.69-5.78,4.1-8.58,13.1,2.02,27.47,2.91,42.55,2.42,13.03-.43,25.55-1.86,37.12-4.11.93,1.68,1.84,3.39,2.77,5.12,3.17,5.96,7.89,14.78,13.01,25.98Z"/>
    <path class="cls-1" d="m399.86,117.24c-18.56,7.07-41.82,11.67-67.16,12.51-26.38.87-50.65-2.5-69.73-8.84,3.76-15.79,8.28-29.48,12.39-40.33,16.64,3.97,36.08,5.9,56.83,5.21,19.05-.63,36.93-3.39,52.51-7.72,5.02,10.94,10.44,24.17,15.15,39.17Z"/>
    <path class="cls-8" d="m403.72,261.65c-3.34,26.2-8.61,49.76-14.53,70.36-9.72,4.42-25.82,10.26-46.46,11.22-24.7,1.14-44.02-5.27-54.47-9.61-7.09-18.42-13.76-39.45-18.89-62.91-12.99-59.34-11.25-111.51-6.38-149.78,19.08,6.34,43.34,9.71,69.73,8.84,25.33-.83,48.6-5.44,67.16-12.51,6.71,37.26,11.19,86.97,3.86,144.4Z"/>
    <ellipse class="cls-3" cx="331.41" cy="166.25" rx="18.03" ry="17.56" transform="translate(35.32 389.41) rotate(-63.64)"/>
    <path class="cls-18" d="m329.97,180.45c-.02-.23,3.22.03,6.4-2.1,5.12-3.43,7.04-10.99,7.83-17.25.46.76,2.71,4.67,1.71,9.38-.65,3.09-2.38,4.96-3.15,5.77-5,5.26-12.76,4.55-12.8,4.2Z"/>
    <path class="cls-10" d="m332.06,153.01c-.37-.08-7.02-1.34-11.19,4.14-3.71,4.88-3.84,12.98.22,18.87-.3-1.58-1.18-7.23,1.45-13.26,3-6.88,8.38-9.28,9.52-9.75Z"/>
    <ellipse class="cls-3" cx="333.69" cy="216.36" rx="18.03" ry="17.56" transform="translate(-8.32 419.32) rotate(-63.64)"/>
    <path class="cls-18" d="m332.25,230.57c-.02-.23,3.22.03,6.4-2.1,5.12-3.43,7.04-10.99,7.83-17.25.46.76,2.71,4.67,1.71,9.38-.65,3.09-2.38,4.96-3.15,5.77-5,5.26-12.76,4.55-12.8,4.2Z"/>
    <path class="cls-10" d="m334.34,203.12c-.37-.08-7.02-1.34-11.19,4.14-3.71,4.88-3.84,12.98.22,18.87-.3-1.58-1.18-7.23,1.45-13.26,3-6.88,8.38-9.28,9.52-9.75Z"/>
    <path class="cls-12" d="m318.2,20.61c-2.48-1.28-25.18,27.52-33.43,65.9-4.5,20.9-4.02,41.42-1.8,41.72,2.16.29,5.11-18.74,15.37-51.42,12.28-39.13,21.66-55.28,19.87-56.2Z"/>
    <path class="cls-5" d="m267.83,212.24c-7.27-3.42-15.67.61-17.62,1.6-17.81,9.02-18.46,39.04-19.23,69.69-.37,14.95.16,36.8,4.81,63.29,2.42,1.34,13.95,7.39,28.44,3.6,15.19-3.97,22.34-15.8,23.63-18.02-1.66-11.19-3.87-27.8-5.61-48.06-3.76-43.83-2-66.25-14.42-72.1Z"/>
    <path class="cls-19" d="m311.08,373.26c-3.56-1.24-6.22-2.79-8.01-4.01-2.76-1.88-4.54-3.68-7.21-6.41-2.74-2.79-4.58-5.08-5.61-6.41-3.48-4.5-5.22-6.76-4.81-8.01,1.15-3.49,13.99-5.75,21.53.41,6.14,5.01,7.97,14.95,4.1,24.43Z"/>
    <path class="cls-19" d="m359.15,358.04c-2.2,7.15,1.74,13.4,2.4,14.42,3.51-1.29,6.19-2.82,8.01-4.01,1.3-.84,7.02-4.67,12.02-12.02,1.92-2.83,3.2-5.39,4.01-7.21-1.18-.99-4.76-3.7-9.87-3.73-5.6-.03-9.37,3.17-10.95,4.53-1.45,1.24-4.3,3.76-5.61,8.01Z"/>
    <path class="cls-19" d="m316.69,374.86c.75,2.02,6.81,2.17,18.91,2.41,11.41.22,17.13.29,17.94-1.61,1.58-3.71-7.35-14.32-17.94-14.63-10.72-.31-20.32,10.02-18.91,13.82Z"/>
    <path class="cls-9" d="m286.25,323.6c-2.24,2.9-11.27,13.91-27.31,16.85-11.68,2.14-21.05-1.1-24.95-2.72-.58-4.52-1.06-8.86-1.43-13.03,4.64,2,10.41,3.55,16.95,3.34,3.39-.11,5.9-.65,7.25-.95,12.48-2.76,24.49-12.08,28.69-15.51-.07,1.49-.08,3.1,0,4.81.12,2.66.42,5.07.8,7.21Z"/>
    <path class="cls-13" d="m255.41,218.25c-.7-.66-7.16,3.37-12.02,9.61-3.8,4.89-8.62,13.72-8.01,44.06.19,9.24.9,21.87,3.2,36.85-.4-10.9-.82-32.31,1.6-52.87.96-8.19,2.09-13.81,4.81-20.03,4.6-10.54,11.2-16.89,10.41-17.62Z"/>
    <path class="cls-5" d="m405.05,212.34c7.27-3.42,15.67.61,17.62,1.6,17.81,9.02,18.46,39.04,19.23,69.69.37,14.95-.16,36.8-4.81,63.29-2.42,1.34-13.95,7.39-28.44,3.6-15.19-3.97-22.34-15.8-23.63-18.02,1.66-11.19,3.87-27.8,5.61-48.06,3.76-43.83,2-66.25,14.42-72.1Z"/>
    <path class="cls-9" d="m386.63,323.69c2.24,2.9,11.27,13.91,27.31,16.85,11.68,2.14,21.05-1.1,24.95-2.72.58-4.52,1.06-8.86,1.43-13.03-4.64,2-10.41,3.55-16.95,3.34-3.39-.11-5.9-.65-7.25-.95-12.48-2.76-24.49-12.08-28.69-15.51.07,1.49.08,3.1,0,4.81-.12,2.66-.42,5.07-.8,7.21Z"/>
    <path class="cls-13" d="m417.47,218.34c.7-.66,7.16,3.37,12.02,9.61,3.8,4.89,8.62,13.72,8.01,44.06-.19,9.24-.9,21.87-3.2,36.85.4-10.9.82-32.31-1.6-52.87-.96-8.19-2.09-13.81-4.81-20.03-4.6-10.54-11.2-16.89-10.41-17.62Z"/>
  </g>
  <g>
    <path class="cls-8" d="m104.63,425.7l7.17-7.75-7.17-7.76-11.72-12.7,17.82-19.29,1.64-1.78-5.01-5.42-14.45-15.66,19.35-20.95.1-.1-5.19-5.62-14.41-15.59,19.87-21.51-1.74-1.6,1.2-1.11-19.59-21.21,11.73-12.7,7.16-7.76-7.16-7.75-11.73-12.7,17.82-19.3,1.64-1.78-5.01-5.42-14.45-15.65,19.35-20.96.1-.1-5.19-5.61-14.4-15.6,19.86-21.5-7.73-7.14-19.29,20.89-19.52-21.13-7.73,7.14,20.08,21.74-13.17,14.27-6.28,6.8,4.64,5.02,14.95,16.18-12.3,13.32-7.16,7.75,4.46,4.84,15,16.24-11.73,12.7-7.16,7.75,7.16,7.76,11.73,12.7-19.82,21.45,1.22,1.12-1.21,1.12,20.08,21.74-13.17,14.26-6.28,6.8,4.64,5.02,14.95,16.18-12.3,13.32-7.17,7.76,4.47,4.83,15,16.24-11.73,12.7-7.17,7.76,7.17,7.75,11.73,12.7-19.82,21.46,7.73,7.14,19.25-20.84,19.03,20.6,7.73-7.14-19.59-21.22,11.72-12.7Zm-31.72-262.31l12.29-13.31,12.42,13.45-12.29,13.31-12.42-13.45Zm.12,42.27l12.3-13.32,12.31,13.32-12.31,13.32-12.3-13.32Zm.57,41.53l11.73-12.7,11.74,12.7-11.74,12.7-11.73-12.7Zm-1.95,43.02l13.68-14.81,13.96,15.11-13.69,14.81-13.95-15.11Zm1.66,43.93l12.29-13.31,12.43,13.46-12.29,13.3-12.43-13.45Zm.13,42.28l12.3-13.32,12.3,13.32-12.3,13.32-12.3-13.32Zm.57,41.53l11.73-12.7,11.73,12.7-11.73,12.7-11.73-12.7Z"/>
    <rect class="cls-8" x="39.5" y="109" width="29" height="359.5"/>
    <rect class="cls-8" x="101.5" y="110" width="29" height="359.5"/>
  </g>
  <g>
    <path class="cls-8" d="m245.05,161.43l-2.82-3.58-2.83,3.58-4.63,5.86-7.03-8.91-.65-.82-1.97,2.51-5.7,7.23-7.63-9.68-.04-.05-2.05,2.6-5.68,7.2-7.83-9.94-.58.87-.4-.6-7.73,9.8-4.63-5.86-2.83-3.58-2.82,3.58-4.63,5.86-7.03-8.91-.65-.82-1.97,2.51-5.7,7.23-7.63-9.67-.04-.05-2.04,2.6-5.68,7.2-7.83-9.93-2.6,3.86,7.61,9.64-7.7,9.76,2.6,3.86,7.92-10.04,5.2,6.59,2.48,3.14,1.83-2.32,5.89-7.48,4.85,6.15,2.82,3.58,1.76-2.23,5.91-7.5,4.63,5.86,2.82,3.58,2.83-3.58,4.63-5.86,7.81,9.91.41-.61.41.61,7.92-10.04,5.19,6.58,2.48,3.14,1.83-2.32,5.89-7.48,4.85,6.15,2.83,3.59,1.76-2.24,5.91-7.5,4.63,5.87,2.83,3.58,2.82-3.58,4.63-5.87,7.82,9.91,2.6-3.86-7.59-9.63,7.5-9.52-2.6-3.86-7.73,9.8-4.63-5.86Zm-95.54,15.86l-4.85-6.15,4.9-6.21,4.85,6.14-4.9,6.21Zm15.4-.06l-4.85-6.15,4.85-6.16,4.85,6.16-4.85,6.15Zm15.13-.28l-4.63-5.87,4.63-5.87,4.63,5.87-4.63,5.87Zm15.67.97l-5.39-6.84,5.5-6.98,5.39,6.85-5.5,6.97Zm16-.83l-4.85-6.14,4.9-6.22,4.84,6.15-4.9,6.21Zm15.4-.07l-4.85-6.15,4.85-6.15,4.85,6.15-4.85,6.15Zm15.13-.29l-4.63-5.86,4.63-5.86,4.63,5.86-4.63,5.86Z"/>
    <rect class="cls-8" x="187.92" y="121.28" width="14.5" height="130.94" transform="translate(8.42 381.92) rotate(-90)"/>
    <rect class="cls-8" x="188.28" y="90.28" width="14.5" height="130.94" transform="translate(39.78 351.28) rotate(-90)"/>
  </g>
  <path class="cls-8" d="m130.5,80.85v29.65H39.5v-29.65c7.12-18.08,24.02-30.39,43-31.35,20.7-1.05,40.14,11.56,48,31.35Z"/>
  <g>
    <path class="cls-8" d="m110.5,64.5c-6.89-7.45-7.12-20.58-2-24,8.62-5.76,36.3,13.38,34,22-1.72,6.44-21.79,13.05-32,2Z"/>
    <ellipse class="cls-4" cx="125.5" cy="51.5" rx="10" ry="20" transform="translate(13.76 128.42) rotate(-56.85)"/>
    <path class="cls-16" d="m119.5,53.54c-.83-3.21,5.16-7.47,10-10.91,2.97-2.11,5.6-3.62,7.5-4.63-2.43,3.9-4.6,7.21-6.37,9.82-4.29,6.36-5.93,8.29-7.96,8.18-1.34-.08-2.84-1.11-3.18-2.45Z"/>
    <circle class="cls-16" cx="135.5" cy="39.5" r="3"/>
  </g>
  <g>
    <path class="cls-17" d="m45.05,88.22v3.17h1.37c.77,0,1.46.07,2.07.22.61.14,1.12.38,1.55.69.42.32.75.73.97,1.22s.33,1.11.33,1.83c0,1.32-.42,2.31-1.27,2.98-.85.67-2.04,1-3.59,1-.22,0-.46,0-.72-.02-.26-.01-.52-.03-.78-.05-.26-.02-.52-.05-.77-.09-.25-.04-.49-.08-.7-.14v-12.3h6.79v1.49h-5.25Zm1.56,9.58c.41,0,.81-.04,1.18-.11.38-.07.71-.2.99-.39.29-.19.51-.43.68-.75.17-.31.25-.71.25-1.19,0-.5-.08-.92-.23-1.24-.15-.32-.37-.58-.66-.77-.29-.19-.64-.33-1.06-.4-.42-.08-.89-.12-1.42-.12h-1.3v4.92c.12.01.25.02.41.04.14.01.3.02.49.02h.65Z"/>
    <path class="cls-17" d="m60.69,99.2c-.18-.54-.35-1.07-.51-1.59s-.32-1.05-.49-1.59h-4.98l-1,3.19h-1.6c.42-1.32.82-2.54,1.19-3.66.37-1.12.73-2.19,1.09-3.2.35-1.01.71-1.97,1.06-2.89.35-.92.71-1.83,1.1-2.73h1.41c.38.9.75,1.81,1.1,2.73s.7,1.88,1.06,2.89c.35,1.01.72,2.07,1.09,3.2.37,1.12.77,2.34,1.19,3.66h-1.68Zm-1.44-4.63c-.34-1.04-.67-2.06-1.01-3.03s-.68-1.92-1.04-2.82c-.37.9-.72,1.84-1.06,2.82-.33.98-.66,1.99-.99,3.03h4.1Z"/>
    <path class="cls-17" d="m63.86,99.2v-12.48h1.51v9.24c.34-.64.75-1.36,1.25-2.18.49-.82,1.02-1.65,1.57-2.49s1.12-1.67,1.68-2.47c.57-.8,1.1-1.5,1.6-2.1h1.22v12.48h-1.51v-9.74c-.3.38-.62.83-.97,1.33-.35.5-.71,1.04-1.08,1.61-.37.57-.74,1.16-1.12,1.77-.38.61-.74,1.22-1.09,1.81-.35.59-.67,1.17-.98,1.72-.3.55-.57,1.05-.8,1.49h-1.29Zm4.43-13.68c-.67,0-1.21-.19-1.63-.58-.42-.38-.67-.92-.75-1.6l1.13-.34c.08.38.23.7.43.94.2.24.48.36.83.36s.62-.12.83-.36c.2-.24.34-.55.43-.94l1.11.34c-.08.68-.33,1.22-.75,1.6-.41.38-.95.58-1.62.58Z"/>
    <path class="cls-17" d="m83.57,86.73c-.33.41-.7.86-1.11,1.36-.41.5-.84,1.01-1.29,1.53s-.9,1.04-1.34,1.54-.86.97-1.25,1.4c.45.36.94.8,1.44,1.33.51.53,1.01,1.09,1.49,1.69.49.6.94,1.21,1.37,1.84s.79,1.22,1.07,1.78h-1.81c-.32-.56-.68-1.13-1.1-1.7-.41-.57-.85-1.12-1.31-1.64-.46-.52-.93-1.01-1.4-1.45-.47-.44-.93-.82-1.37-1.13v5.92h-1.54v-12.48h1.54v5.51c.37-.4.78-.84,1.22-1.34.44-.5.88-1,1.32-1.5.43-.5.84-.99,1.23-1.45.39-.46.71-.87.98-1.22h1.86Z"/>
    <path class="cls-17" d="m84.41,92.96c0-1.07.14-2.01.42-2.83.28-.82.66-1.5,1.14-2.04.48-.55,1.04-.96,1.68-1.23.64-.28,1.32-.41,2.04-.41s1.38.14,2.01.41c.63.28,1.18.69,1.66,1.23.48.55.85,1.23,1.14,2.04.28.82.42,1.76.42,2.83s-.14,2.01-.42,2.83c-.28.82-.66,1.5-1.14,2.04-.48.55-1.03.96-1.66,1.23s-1.3.41-2.01.41-1.4-.14-2.04-.41c-.64-.28-1.2-.69-1.68-1.23-.48-.55-.86-1.23-1.14-2.04s-.42-1.76-.42-2.83Zm1.62,0c0,.76.08,1.44.25,2.06s.41,1.14.72,1.58c.31.43.69.77,1.14,1s.96.35,1.52.35,1.06-.12,1.51-.35.82-.57,1.14-1c.31-.43.55-.96.72-1.58s.25-1.31.25-2.06-.08-1.44-.25-2.06-.41-1.14-.72-1.58c-.31-.43-.69-.77-1.14-1s-.95-.35-1.51-.35-1.07.12-1.52.35-.83.57-1.14,1c-.31.43-.55.96-.72,1.58s-.25,1.31-.25,2.06Z"/>
    <path class="cls-17" d="m104.12,86.73h1.54v12.48h-1.54v-5.76h-5.38v5.76h-1.54v-12.48h1.54v5.2h5.38v-5.2Z"/>
    <path class="cls-17" d="m113.28,95.39c-.21.55-.43,1.07-.66,1.56-.23.49-.5.91-.81,1.27-.31.36-.69.64-1.13.85-.44.2-.98.31-1.63.31-.13,0-.26,0-.4-.03-.14-.02-.27-.04-.4-.07-.13-.03-.24-.06-.33-.1-.1-.04-.16-.07-.21-.11l.27-1.48c.14.06.3.12.5.18.2.06.4.09.61.09.32,0,.6-.04.83-.14.24-.09.45-.22.64-.38s.36-.36.51-.59c.15-.23.29-.5.43-.78-.47-.85-.9-1.7-1.32-2.55-.41-.85-.79-1.67-1.14-2.46-.35-.79-.67-1.55-.95-2.26-.29-.71-.54-1.37-.76-1.97h1.75c.35,1.04.8,2.21,1.34,3.49.54,1.28,1.15,2.63,1.82,4.03.42-1.09.83-2.3,1.21-3.61.39-1.31.75-2.62,1.09-3.92h1.67c-.24.86-.49,1.68-.73,2.44s-.49,1.49-.73,2.2c-.24.7-.49,1.39-.73,2.05-.24.67-.49,1.32-.75,1.97Z"/>
    <path class="cls-17" d="m120.63,86.6c1.55,0,2.73.33,3.56,1,.83.67,1.25,1.66,1.25,2.98,0,.72-.11,1.34-.34,1.85-.23.51-.56.92-.98,1.24-.43.32-.95.55-1.56.69s-1.31.22-2.08.22h-1.22v4.63h-1.54v-12.3c.43-.12.92-.2,1.45-.24.53-.04,1.02-.06,1.47-.06Zm.13,1.53c-.66,0-1.16.02-1.51.05v4.9h1.16c.53,0,1.01-.04,1.43-.12s.78-.21,1.07-.4c.29-.19.52-.44.67-.77.16-.32.24-.74.24-1.24s-.08-.88-.25-1.19c-.16-.31-.39-.56-.67-.75-.28-.19-.61-.31-.98-.39-.37-.07-.76-.11-1.17-.11Z"/>
  </g>
</svg>