<?xml version="1.0" encoding="UTF-8"?>
<svg id="_Слой_1" data-name="Слой 1" xmlns="http://www.w3.org/2000/svg" viewBox="0 0 500 500">
  <defs>
    <style>
      .cls-1 {
        fill: #efe63a;
      }

      .cls-1, .cls-2, .cls-3 {
        stroke: #b3b3b3;
        stroke-width: .5px;
      }

      .cls-1, .cls-2, .cls-3, .cls-4, .cls-5, .cls-6 {
        stroke-miterlimit: 10;
      }

      .cls-7 {
        fill: #fff;
      }

      .cls-8 {
        fill: #fe0104;
      }

      .cls-2 {
        fill: #97ed3b;
      }

      .cls-9 {
        fill: #054e77;
      }

      .cls-10 {
        fill: #193c1b;
      }

      .cls-3 {
        fill: #3b95ed;
      }

      .cls-11 {
        fill: #0071bc;
      }

      .cls-12 {
        fill: #231617;
        opacity: .28;
      }

      .cls-4 {
        fill: gray;
      }

      .cls-4, .cls-5, .cls-6 {
        stroke: #999;
      }

      .cls-13 {
        opacity: .6;
      }

      .cls-5 {
        fill: #666;
      }

      .cls-14 {
        fill: #18f416;
      }

      .cls-6 {
        fill: #f2f2f2;
      }
    </style>
  </defs>
  <g>
    <rect class="cls-6" x="22.5" y="106.11" width="457" height="263.78" rx="12.49" ry="12.49"/>
    <rect class="cls-10" x="67.28" y="128.81" width="369.22" height="218.37" rx="12.49" ry="12.49"/>
    <g>
      <ellipse class="cls-1" cx="455.45" cy="150.68" rx="9.94" ry="8.83"/>
      <path class="cls-7" d="m454.35,157.31c.11.5,4.97,1.16,7.18-1.66,2.48-3.16-.25-8.33-.55-8.28-.24.04,1.08,3.29-.55,6.07-1.86,3.17-6.18,3.38-6.07,3.86Z"/>
      <path class="cls-7" d="m453.24,144.06c-1.72-.27-3.75.59-4.42,2.21-.84,2.05.85,4.49,1.1,4.42.12-.03.07-.59,0-1.1.15-.57.45-1.4,1.1-2.21,1.57-1.93,3.89-2.17,4.42-2.21-.34-.32-1.1-.93-2.21-1.1Z"/>
    </g>
    <g>
      <ellipse class="cls-2" cx="455.77" cy="179.28" rx="9.94" ry="8.83"/>
      <path class="cls-7" d="m454.67,185.9c.11.5,4.97,1.16,7.18-1.66,2.48-3.16-.25-8.33-.55-8.28-.24.04,1.08,3.29-.55,6.07-1.86,3.17-6.18,3.38-6.07,3.86Z"/>
      <path class="cls-7" d="m453.56,172.65c-1.72-.27-3.75.59-4.42,2.21-.84,2.05.85,4.49,1.1,4.42.12-.03.07-.59,0-1.1.15-.57.45-1.4,1.1-2.21,1.57-1.93,3.89-2.17,4.42-2.21-.34-.32-1.1-.93-2.21-1.1Z"/>
    </g>
    <g>
      <ellipse class="cls-3" cx="456.06" cy="204.9" rx="9.94" ry="8.83"/>
      <path class="cls-7" d="m454.96,211.53c.11.5,4.97,1.16,7.18-1.66,2.48-3.16-.25-8.33-.55-8.28-.24.04,1.08,3.29-.55,6.07-1.86,3.17-6.18,3.38-6.07,3.86Z"/>
      <path class="cls-7" d="m453.85,198.28c-1.72-.27-3.75.59-4.42,2.21-.84,2.05.85,4.49,1.1,4.42.12-.03.07-.59,0-1.1.15-.57.45-1.4,1.1-2.21,1.57-1.93,3.89-2.17,4.42-2.21-.34-.32-1.1-.93-2.21-1.1Z"/>
    </g>
    <rect class="cls-12" x="444" y="314" width="21" height="21" rx="2.48" ry="2.48"/>
    <rect class="cls-8" x="445" y="315" width="19" height="19" rx="2.48" ry="2.48"/>
    <path class="cls-7" d="m446,322c-.11-.01.06-1.18,0-3-.05-1.4-.17-1.64,0-2,.31-.65,1.38-1.29,5-1-.79.02-2.01.18-3,1-1.99,1.66-1.82,5.02-2,5Z"/>
    <rect class="cls-5" x="32.5" y="178" width="31" height="119.5" rx="12.49" ry="12.49" transform="translate(96 475.5) rotate(-180)"/>
    <path class="cls-7" d="m456.85,333.23c.01.11,1.18-.06,3,0,1.4.05,1.64.17,2,0,.65-.31,1.29-1.38,1-5-.02.79-.18,2.01-1,3-1.66,1.99-5.02,1.82-5,2Z"/>
    <rect class="cls-4" x="35.47" y="182.38" width="24.99" height="111.12" rx="12.49" ry="12.49" transform="translate(95.94 475.88) rotate(180)"/>
    <rect class="cls-9" x="35.25" y="203" width="25" height="27"/>
    <rect class="cls-11" x="35.25" y="210.5" width="25" height="12"/>
    <g class="cls-13">
      <rect class="cls-7" x="36" y="212" width="23" height="3"/>
    </g>
  </g>
  <g>
    <path class="cls-14" d="m109.03,162.23v16.89h-2.83v-6.75h-8.5v6.75h-2.83v-16.89h2.83v6.76h8.5v-6.76h2.83Z"/>
    <path class="cls-14" d="m126.06,165.6v13.51h-2.83v-6.75h-8.5v6.75h-2.83v-13.51h2.83v3.38h8.5v-3.38h2.83Zm-11.34-3.38h8.5v3.38h-8.5v-3.38Z"/>
    <path class="cls-14" d="m128.93,162.23h2.83v13.51h-2.83v-13.51Zm14.17,0v16.89h-11.34v-3.38h2.83v-13.51h2.83v13.51h2.83v-13.51h2.83Z"/>
    <path class="cls-14" d="m174.32,162.23v3.38h-11.34v13.51h-2.83v-13.51h2.83v-3.38h11.34Z"/>
    <path class="cls-14" d="m180.02,165.6v3.38h5.67v3.38h-5.67v3.38h11.34v3.38h-14.17v-13.51h2.83Zm0-3.38h11.34v3.38h-11.34v-3.38Z"/>
    <path class="cls-14" d="m205.56,162.23v3.38h-8.5v3.38h8.5v3.38h-8.5v6.75h-2.83v-16.89h11.34Zm0,3.38h2.83v3.38h-2.83v-3.38Z"/>
    <path class="cls-14" d="m211.26,165.6h2.83v10.13h-2.83v-10.13Zm2.83-3.38h8.5v3.38h-8.5v-3.38Zm0,13.51h8.5v3.38h-8.5v-3.38Zm8.5-10.13h2.83v10.13h-2.83v-10.13Z"/>
    <path class="cls-14" d="m231.13,162.23v10.13h2.83v3.38h-2.83v3.38h-2.83v-16.89h2.83Zm8.5-3.38v3.38h-5.67v-3.38h5.67Zm-5.67,10.13h2.83v3.38h-2.83v-3.38Zm8.5-6.76v16.89h-2.83v-10.13h-2.83v-3.38h2.83v-3.38h2.83Z"/>
    <path class="cls-14" d="m259.52,168.98h8.5v3.38h-8.5v-3.38Z"/>
    <path class="cls-14" d="m299.21,162.23v3.38h-11.34v13.51h-2.83v-13.51h2.83v-3.38h11.34Z"/>
    <path class="cls-14" d="m316.25,165.6v13.51h-2.83v-6.75h-8.5v6.75h-2.83v-13.51h2.83v3.38h8.5v-3.38h2.83Zm-11.34-3.38h8.5v3.38h-8.5v-3.38Z"/>
    <path class="cls-14" d="m333.29,162.23v3.38h-11.34v13.51h-2.83v-13.51h2.83v-3.38h11.34Z"/>
    <path class="cls-14" d="m350.32,165.6v13.51h-2.83v-6.75h-8.5v6.75h-2.83v-13.51h2.83v3.38h8.5v-3.38h2.83Zm-11.34-3.38h8.5v3.38h-8.5v-3.38Z"/>
    <path class="cls-14" d="m364.53,162.23v3.38h-8.5v3.38h8.5v3.38h-8.5v6.75h-2.83v-16.89h11.34Zm0,3.38h2.83v3.38h-2.83v-3.38Z"/>
    <path class="cls-14" d="m373.06,162.23v10.13h2.83v3.38h-2.83v3.38h-2.83v-16.89h2.83Zm2.83,6.76h2.83v3.38h-2.83v-3.38Zm8.5-6.76v16.89h-2.83v-10.13h-2.83v-3.38h2.83v-3.38h2.83Z"/>
    <path class="cls-14" d="m401.43,162.23v16.89h-2.83v-6.75h-8.5v6.75h-2.83v-16.89h2.83v6.76h8.5v-6.76h2.83Z"/>
    <path class="cls-14" d="m404.29,175.74h2.83v3.38h-2.83v-3.38Zm2.83-3.38h2.83v3.38h-2.83v-3.38Z"/>
    <path class="cls-14" d="m94.85,207.11h2.83v13.51h-2.83v-13.51Zm2.83-3.38h8.5v3.38h-8.5v-3.38Zm8.5,3.38h2.83v13.51h-2.83v-13.51Z"/>
    <path class="cls-14" d="m114.72,207.11v3.38h5.67v3.38h-5.67v3.38h11.34v3.38h-14.17v-13.51h2.83Zm0-3.38h11.34v3.38h-11.34v-3.38Z"/>
    <path class="cls-14" d="m140.26,203.73v3.38h-8.5v3.38h8.5v3.38h-8.5v6.75h-2.83v-16.89h11.34Zm0,3.38h2.83v3.38h-2.83v-3.38Z"/>
    <path class="cls-14" d="m157.3,203.73v3.38h-8.5v3.38h8.5v3.38h-8.5v3.38h8.5v3.38h-11.34v-16.89h11.34Zm0,3.38h2.83v3.38h-2.83v-3.38Zm0,6.76h2.83v3.38h-2.83v-3.38Z"/>
    <path class="cls-14" d="m165.83,203.73v6.76h5.67v3.38h-5.67v3.38h5.67v3.38h-8.5v-16.89h2.83Zm11.34,0v16.89h-2.83v-3.38h-2.83v-3.38h2.83v-10.13h2.83Z"/>
    <path class="cls-14" d="m182.87,203.73v10.13h2.83v3.38h-2.83v3.38h-2.83v-16.89h2.83Zm8.5-3.38v3.38h-5.67v-3.38h5.67Zm-5.67,10.13h2.83v3.38h-2.83v-3.38Zm8.5-6.76v16.89h-2.83v-10.13h-2.83v-3.38h2.83v-3.38h2.83Z"/>
    <path class="cls-14" d="m214.09,203.73v6.76h5.67v3.38h-5.67v6.75h-2.83v-16.89h2.83Zm5.67,3.38h2.83v3.38h-2.83v-3.38Zm0,6.76h2.83v3.38h-2.83v-3.38Zm2.83-10.13h2.83v3.38h-2.83v-3.38Zm0,13.51h2.83v3.38h-2.83v-3.38Z"/>
    <path class="cls-14" d="m228.29,207.11h2.83v10.13h-2.83v-10.13Zm2.83-3.38h8.5v3.38h-8.5v-3.38Zm0,13.51h8.5v3.38h-8.5v-3.38Zm8.5-10.13h2.83v10.13h-2.83v-10.13Z"/>
    <path class="cls-14" d="m245.33,207.11h2.83v10.13h-2.83v-10.13Zm2.83-3.38h8.5v3.38h-8.5v-3.38Zm0,13.51h8.5v3.38h-8.5v-3.38Zm8.5-10.13h2.83v3.38h-2.83v-3.38Zm0,6.76h2.83v3.38h-2.83v-3.38Z"/>
    <path class="cls-14" d="m265.2,203.73v3.38h2.83v3.38h-2.83v10.13h-2.83v-16.89h2.83Zm2.83,6.76h2.83v3.38h-2.83v-3.38Zm8.5-6.76v16.89h-2.83v-10.13h-2.83v-3.38h2.83v-3.38h2.83Z"/>
    <path class="cls-14" d="m279.4,207.11h2.83v10.13h-2.83v-10.13Zm2.83-3.38h8.5v3.38h-8.5v-3.38Zm0,13.51h8.5v3.38h-8.5v-3.38Zm8.5-10.13h2.83v10.13h-2.83v-10.13Z"/>
    <path class="cls-14" d="m310.61,203.73v16.89h-2.83v-6.75h-8.5v6.75h-2.83v-16.89h2.83v6.76h8.5v-6.76h2.83Z"/>
    <path class="cls-14" d="m327.65,207.11v13.51h-2.83v-6.75h-8.5v6.75h-2.83v-13.51h2.83v3.38h8.5v-3.38h2.83Zm-11.34-3.38h8.5v3.38h-8.5v-3.38Z"/>
    <path class="cls-14" d="m341.85,203.73v3.38h-8.5v3.38h8.5v3.38h-8.5v3.38h8.5v3.38h-11.34v-16.89h11.34Zm0,3.38h2.83v3.38h-2.83v-3.38Zm0,6.76h2.83v3.38h-2.83v-3.38Z"/>
    <path class="cls-14" d="m361.72,203.73v3.38h-5.67v13.51h-2.83v-13.51h-5.67v-3.38h14.17Z"/>
    <path class="cls-14" d="m364.58,217.24h2.83v3.38h-2.83v-3.38Zm2.83-3.38h2.83v3.38h-2.83v-3.38Z"/>
    <path class="cls-14" d="m97.69,245.23v10.13h2.83v3.38h-2.83v3.38h-2.83v-16.89h2.83Zm2.83,6.76h2.83v3.38h-2.83v-3.38Zm8.5-6.76v16.89h-2.83v-10.13h-2.83v-3.38h2.83v-3.38h2.83Z"/>
    <path class="cls-14" d="m126.08,248.61h2.83v13.51h-2.83v-13.51Zm2.83-3.38h8.5v3.38h-8.5v-3.38Zm8.5,3.38h2.83v13.51h-2.83v-13.51Z"/>
    <path class="cls-14" d="m154.45,245.23v3.38h-8.5v3.38h8.5v3.38h-8.5v6.75h-2.83v-16.89h11.34Zm0,3.38h2.83v3.38h-2.83v-3.38Z"/>
    <path class="cls-14" d="m162.98,245.23v10.13h2.83v3.38h-2.83v3.38h-2.83v-16.89h2.83Zm2.83,6.76h2.83v3.38h-2.83v-3.38Zm8.5-6.76v16.89h-2.83v-10.13h-2.83v-3.38h2.83v-3.38h2.83Z"/>
    <path class="cls-14" d="m180.02,245.23v3.38h2.83v3.38h-2.83v10.13h-2.83v-16.89h2.83Zm2.83,6.76h2.83v3.38h-2.83v-3.38Zm8.5-6.76v16.89h-2.83v-10.13h-2.83v-3.38h2.83v-3.38h2.83Z"/>
    <path class="cls-14" d="m197.06,248.61v3.38h5.67v3.38h-5.67v3.38h11.34v3.38h-14.17v-13.51h2.83Zm0-3.38h11.34v3.38h-11.34v-3.38Z"/>
    <path class="cls-14" d="m222.6,245.23v3.38h-8.5v3.38h8.5v3.38h-8.5v6.75h-2.83v-16.89h11.34Zm0,3.38h2.83v3.38h-2.83v-3.38Z"/>
    <path class="cls-14" d="m228.29,248.61h2.83v10.13h-2.83v-10.13Zm2.83-3.38h8.5v3.38h-8.5v-3.38Zm0,13.51h8.5v3.38h-8.5v-3.38Zm8.5-10.13h2.83v10.13h-2.83v-10.13Z"/>
    <path class="cls-14" d="m248.16,245.23v3.38h2.83v3.38h-2.83v10.13h-2.83v-16.89h2.83Zm2.83,6.76h2.84v3.38h-2.84v-3.38Zm8.5-6.76v16.89h-2.83v-10.13h-2.83v-3.38h2.83v-3.38h2.83Z"/>
    <path class="cls-14" d="m276.55,248.61h2.83v10.13h-2.83v-10.13Zm2.83-3.38h8.5v3.38h-8.5v-3.38Zm0,13.51h8.5v3.38h-8.5v-3.38Zm8.5-10.13h2.83v3.38h-2.83v-3.38Zm0,6.76h2.83v3.38h-2.83v-3.38Z"/>
    <path class="cls-14" d="m293.59,251.99h2.83v10.13h-2.83v-10.13Zm2.83-3.38h2.83v3.38h-2.83v-3.38Zm11.34-3.38v16.89h-2.83v-13.51h-5.67v-3.38h8.5Z"/>
    <path class="cls-14" d="m310.64,245.23h2.83v6.76h-2.83v-6.76Zm0,13.51h11.34v3.38h-11.34v-3.38Zm14.17-13.51v13.51h-2.83v-3.38h-8.5v-3.38h8.5v-6.76h2.83Z"/>
    <path class="cls-14" d="m327.67,245.23h2.83v6.76h-2.83v-6.76Zm0,10.13h2.83v6.75h-2.83v-6.75Zm8.5-10.13v6.76h2.83v3.38h-2.83v6.75h-2.83v-6.75h-2.83v-3.38h2.83v-6.76h2.83Zm2.83,0h2.83v6.76h-2.83v-6.76Zm0,10.13h2.83v6.75h-2.83v-6.75Z"/>
    <path class="cls-14" d="m347.55,245.23v10.13h2.83v3.38h-2.83v3.38h-2.83v-16.89h2.83Zm2.83,6.76h2.83v3.38h-2.83v-3.38Zm8.5-6.76v16.89h-2.83v-10.13h-2.83v-3.38h2.83v-3.38h2.83Z"/>
    <path class="cls-14" d="m375.92,245.23v3.38h-5.67v13.51h-2.83v-13.51h-5.67v-3.38h14.17Z"/>
    <path class="cls-14" d="m94.85,290.11h2.83v10.13h-2.83v-10.13Zm2.83-3.38h8.5v3.38h-8.5v-3.38Zm0,13.51h8.5v3.38h-8.5v-3.38Zm8.5-10.13h2.83v10.13h-2.83v-10.13Z"/>
    <path class="cls-14" d="m126.06,286.73v16.89h-2.83v-6.75h-8.5v6.75h-2.83v-16.89h2.83v6.75h8.5v-6.75h2.83Z"/>
    <path class="cls-14" d="m160.12,286.73v16.89h-17.01v-3.38h2.83v-10.13h2.83v-3.38h11.34Zm-2.83,3.38h-8.5v10.13h8.5v-10.13Z"/>
    <path class="cls-14" d="m162.96,293.49h2.83v10.13h-2.83v-10.13Zm2.83-3.38h2.83v3.38h-2.83v-3.38Zm11.34-3.38v16.89h-2.83v-13.51h-5.67v-3.38h8.5Z"/>
    <path class="cls-14" d="m194.18,286.73v16.89h-2.83v-6.75h-8.5v6.75h-2.83v-6.75h2.83v-3.38h8.5v-3.38h-8.5v-3.38h11.34Zm-14.17,3.38h2.83v3.38h-2.83v-3.38Z"/>
    <path class="cls-14" d="m222.57,286.73v3.38h-8.5v3.38h8.5v3.38h-8.5v3.38h8.5v3.38h-11.34v-16.89h11.34Zm0,3.38h2.83v3.38h-2.83v-3.38Zm0,6.75h2.83v3.38h-2.83v-3.38Z"/>
    <path class="cls-14" d="m228.27,290.11h2.83v10.13h-2.83v-10.13Zm2.83-3.38h8.5v3.38h-8.5v-3.38Zm0,13.51h8.5v3.38h-8.5v-3.38Zm8.5-10.13h2.83v3.38h-2.83v-3.38Zm0,6.75h2.83v3.38h-2.83v-3.38Z"/>
    <path class="cls-14" d="m248.14,290.11v3.38h5.67v3.38h-5.67v3.38h11.34v3.38h-14.17v-13.51h2.83Zm0-3.38h11.34v3.38h-11.34v-3.38Z"/>
    <path class="cls-14" d="m262.34,286.73h2.83v3.38h-2.83v-3.38Zm0,13.51h2.83v3.38h-2.83v-3.38Zm2.83-10.13h2.83v3.38h-2.83v-3.38Zm0,6.75h2.83v3.38h-2.83v-3.38Zm2.83-3.38h2.83v3.38h-2.83v-3.38Zm5.67,0h-2.83v-3.38h2.83v3.38Zm0,6.75h-2.83v-3.38h2.83v3.38Zm0-13.51h2.83v3.38h-2.83v-3.38Zm0,13.51h2.83v3.38h-2.83v-3.38Z"/>
    <path class="cls-14" d="m304.9,286.73v3.38h-8.5v3.38h8.5v3.38h-8.5v6.75h-2.83v-16.89h11.34Zm0,3.38h2.83v3.38h-2.83v-3.38Z"/>
    <path class="cls-14" d="m313.43,290.11v3.38h5.67v3.38h-5.67v3.38h11.34v3.38h-14.17v-13.51h2.83Zm0-3.38h11.34v3.38h-11.34v-3.38Z"/>
    <path class="cls-14" d="m338.97,286.73v3.38h-8.5v3.38h8.5v3.38h-8.5v3.38h8.5v3.38h-11.34v-16.89h11.34Zm0,10.13h2.83v3.38h-2.83v-3.38Z"/>
    <path class="cls-14" d="m358.86,286.73v16.89h-2.83v-6.75h-8.5v6.75h-2.83v-6.75h2.83v-3.38h8.5v-3.38h-8.5v-3.38h11.34Zm-14.17,3.38h2.83v3.38h-2.83v-3.38Z"/>
    <path class="cls-14" d="m375.89,286.73v3.38h-5.67v13.51h-2.83v-13.51h-5.67v-3.38h14.17Z"/>
  </g>
</svg>