<?xml version="1.0" encoding="UTF-8"?>
<svg id="_Слой_1" data-name="Слой 1" xmlns="http://www.w3.org/2000/svg" viewBox="0 0 472 272">
  <defs>
    <style>
      .cls-1 {
        fill: #efe63a;
      }

      .cls-1, .cls-2, .cls-3 {
        stroke: #b3b3b3;
        stroke-width: .5px;
      }

      .cls-1, .cls-2, .cls-3, .cls-4, .cls-5, .cls-6 {
        stroke-miterlimit: 10;
      }

      .cls-7 {
        fill: #fff;
      }

      .cls-8 {
        opacity: .6;
      }

      .cls-9 {
        fill: #fe0104;
      }

      .cls-2 {
        fill: #97ed3b;
      }

      .cls-10 {
        fill: #054e77;
      }

      .cls-11 {
        fill: #193c1b;
      }

      .cls-3 {
        fill: #3b95ed;
      }

      .cls-12 {
        fill: #0071bc;
      }

      .cls-13 {
        fill: #231617;
        opacity: .28;
      }

      .cls-4 {
        fill: gray;
      }

      .cls-4, .cls-5, .cls-6 {
        stroke: #999;
      }

      .cls-5 {
        fill: #666;
      }

      .cls-14 {
        fill: #18f416;
      }

      .cls-6 {
        fill: #f2f2f2;
      }
    </style>
  </defs>
  <g>
    <rect class="cls-6" x="5.5" y="3.11" width="457" height="263.78" rx="12.49" ry="12.49"/>
    <rect class="cls-11" x="50.28" y="25.81" width="369.22" height="218.37" rx="12.49" ry="12.49"/>
    <g>
      <ellipse class="cls-1" cx="438.45" cy="47.68" rx="9.94" ry="8.83"/>
      <path class="cls-7" d="m437.35,54.31c.11.5,4.97,1.16,7.18-1.66,2.48-3.16-.25-8.33-.55-8.28-.24.04,1.08,3.29-.55,6.07-1.86,3.17-6.18,3.38-6.07,3.86Z"/>
      <path class="cls-7" d="m436.24,41.06c-1.72-.27-3.75.59-4.42,2.21-.84,2.05.85,4.49,1.1,4.42.12-.03.07-.59,0-1.1.15-.57.45-1.4,1.1-2.21,1.57-1.93,3.89-2.17,4.42-2.21-.34-.32-1.1-.93-2.21-1.1Z"/>
    </g>
    <g>
      <ellipse class="cls-2" cx="438.77" cy="76.28" rx="9.94" ry="8.83"/>
      <path class="cls-7" d="m437.67,82.9c.11.5,4.97,1.16,7.18-1.66,2.48-3.16-.25-8.33-.55-8.28-.24.04,1.08,3.29-.55,6.07-1.86,3.17-6.18,3.38-6.07,3.86Z"/>
      <path class="cls-7" d="m436.56,69.65c-1.72-.27-3.75.59-4.42,2.21-.84,2.05.85,4.49,1.1,4.42.12-.03.07-.59,0-1.1.15-.57.45-1.4,1.1-2.21,1.57-1.93,3.89-2.17,4.42-2.21-.34-.32-1.1-.93-2.21-1.1Z"/>
    </g>
    <g>
      <ellipse class="cls-3" cx="439.06" cy="101.9" rx="9.94" ry="8.83"/>
      <path class="cls-7" d="m437.96,108.53c.11.5,4.97,1.16,7.18-1.66,2.48-3.16-.25-8.33-.55-8.28-.24.04,1.08,3.29-.55,6.07-1.86,3.17-6.18,3.38-6.07,3.86Z"/>
      <path class="cls-7" d="m436.85,95.28c-1.72-.27-3.75.59-4.42,2.21-.84,2.05.85,4.49,1.1,4.42.12-.03.07-.59,0-1.1.15-.57.45-1.4,1.1-2.21,1.57-1.93,3.89-2.17,4.42-2.21-.34-.32-1.1-.93-2.21-1.1Z"/>
    </g>
    <rect class="cls-13" x="427" y="211" width="21" height="21" rx="2.48" ry="2.48"/>
    <rect class="cls-9" x="428" y="212" width="19" height="19" rx="2.48" ry="2.48"/>
    <path class="cls-7" d="m429,219c-.11-.01.06-1.18,0-3-.05-1.4-.17-1.64,0-2,.31-.65,1.38-1.29,5-1-.79.02-2.01.18-3,1-1.99,1.66-1.82,5.02-2,5Z"/>
    <rect class="cls-5" x="15.5" y="75" width="31" height="119.5" rx="12.49" ry="12.49" transform="translate(62 269.5) rotate(-180)"/>
    <path class="cls-7" d="m439.85,230.23c.01.11,1.18-.06,3,0,1.4.05,1.64.17,2,0,.65-.31,1.29-1.38,1-5-.02.79-.18,2.01-1,3-1.66,1.99-5.02,1.82-5,2Z"/>
    <rect class="cls-4" x="18.47" y="79.38" width="24.99" height="111.12" rx="12.49" ry="12.49" transform="translate(61.94 269.88) rotate(180)"/>
    <rect class="cls-10" x="18.25" y="100" width="25" height="27"/>
    <rect class="cls-12" x="18.25" y="107.5" width="25" height="12"/>
    <g class="cls-8">
      <rect class="cls-7" x="19" y="109" width="23" height="3"/>
    </g>
  </g>
  <g>
    <path class="cls-14" d="m92.03,59.23v16.89h-2.83v-6.75h-8.5v6.75h-2.83v-16.89h2.83v6.76h8.5v-6.76h2.83Z"/>
    <path class="cls-14" d="m109.06,62.6v13.51h-2.83v-6.75h-8.5v6.75h-2.83v-13.51h2.83v3.38h8.5v-3.38h2.83Zm-11.34-3.38h8.5v3.38h-8.5v-3.38Z"/>
    <path class="cls-14" d="m111.93,59.23h2.83v13.51h-2.83v-13.51Zm14.17,0v16.89h-11.34v-3.38h2.83v-13.51h2.83v13.51h2.83v-13.51h2.83Z"/>
    <path class="cls-14" d="m157.32,59.23v3.38h-11.34v13.51h-2.83v-13.51h2.83v-3.38h11.34Z"/>
    <path class="cls-14" d="m163.02,62.6v3.38h5.67v3.38h-5.67v3.38h11.34v3.38h-14.17v-13.51h2.83Zm0-3.38h11.34v3.38h-11.34v-3.38Z"/>
    <path class="cls-14" d="m188.56,59.23v3.38h-8.5v3.38h8.5v3.38h-8.5v6.75h-2.83v-16.89h11.34Zm0,3.38h2.83v3.38h-2.83v-3.38Z"/>
    <path class="cls-14" d="m194.26,62.6h2.83v10.13h-2.83v-10.13Zm2.83-3.38h8.5v3.38h-8.5v-3.38Zm0,13.51h8.5v3.38h-8.5v-3.38Zm8.5-10.13h2.83v10.13h-2.83v-10.13Z"/>
    <path class="cls-14" d="m214.13,59.23v10.13h2.83v3.38h-2.83v3.38h-2.83v-16.89h2.83Zm8.5-3.38v3.38h-5.67v-3.38h5.67Zm-5.67,10.13h2.83v3.38h-2.83v-3.38Zm8.5-6.76v16.89h-2.83v-10.13h-2.83v-3.38h2.83v-3.38h2.83Z"/>
    <path class="cls-14" d="m242.52,65.98h8.5v3.38h-8.5v-3.38Z"/>
    <path class="cls-14" d="m282.22,59.23v3.38h-11.34v13.51h-2.83v-13.51h2.83v-3.38h11.34Z"/>
    <path class="cls-14" d="m299.25,62.6v13.51h-2.83v-6.75h-8.5v6.75h-2.83v-13.51h2.83v3.38h8.5v-3.38h2.83Zm-11.34-3.38h8.5v3.38h-8.5v-3.38Z"/>
    <path class="cls-14" d="m316.29,59.23v3.38h-11.34v13.51h-2.83v-13.51h2.83v-3.38h11.34Z"/>
    <path class="cls-14" d="m333.33,62.6v13.51h-2.83v-6.75h-8.5v6.75h-2.83v-13.51h2.83v3.38h8.5v-3.38h2.83Zm-11.34-3.38h8.5v3.38h-8.5v-3.38Z"/>
    <path class="cls-14" d="m347.53,59.23v3.38h-8.5v3.38h8.5v3.38h-8.5v6.75h-2.83v-16.89h11.34Zm0,3.38h2.83v3.38h-2.83v-3.38Z"/>
    <path class="cls-14" d="m356.06,59.23v10.13h2.83v3.38h-2.83v3.38h-2.83v-16.89h2.83Zm2.83,6.76h2.83v3.38h-2.83v-3.38Zm8.5-6.76v16.89h-2.83v-10.13h-2.83v-3.38h2.83v-3.38h2.83Z"/>
    <path class="cls-14" d="m384.43,59.23v16.89h-2.83v-6.75h-8.5v6.75h-2.83v-16.89h2.83v6.76h8.5v-6.76h2.83Z"/>
    <path class="cls-14" d="m387.3,72.74h2.83v3.38h-2.83v-3.38Zm2.83-3.38h2.83v3.38h-2.83v-3.38Z"/>
    <path class="cls-14" d="m77.85,104.11h2.83v13.51h-2.83v-13.51Zm2.83-3.38h8.5v3.38h-8.5v-3.38Zm8.5,3.38h2.83v13.51h-2.83v-13.51Z"/>
    <path class="cls-14" d="m97.72,104.11v3.38h5.67v3.38h-5.67v3.38h11.34v3.38h-14.17v-13.51h2.83Zm0-3.38h11.34v3.38h-11.34v-3.38Z"/>
    <path class="cls-14" d="m123.26,100.73v3.38h-8.5v3.38h8.5v3.38h-8.5v6.75h-2.83v-16.89h11.34Zm0,3.38h2.83v3.38h-2.83v-3.38Z"/>
    <path class="cls-14" d="m140.3,100.73v3.38h-8.5v3.38h8.5v3.38h-8.5v3.38h8.5v3.38h-11.34v-16.89h11.34Zm0,3.38h2.83v3.38h-2.83v-3.38Zm0,6.76h2.83v3.38h-2.83v-3.38Z"/>
    <path class="cls-14" d="m148.83,100.73v6.76h5.67v3.38h-5.67v3.38h5.67v3.38h-8.5v-16.89h2.83Zm11.34,0v16.89h-2.83v-3.38h-2.83v-3.38h2.83v-10.13h2.83Z"/>
    <path class="cls-14" d="m165.87,100.73v10.13h2.83v3.38h-2.83v3.38h-2.83v-16.89h2.83Zm8.5-3.38v3.38h-5.67v-3.38h5.67Zm-5.67,10.13h2.83v3.38h-2.83v-3.38Zm8.5-6.76v16.89h-2.83v-10.13h-2.83v-3.38h2.83v-3.38h2.83Z"/>
    <path class="cls-14" d="m197.09,100.73v6.76h5.67v3.38h-5.67v6.75h-2.83v-16.89h2.83Zm5.67,3.38h2.83v3.38h-2.83v-3.38Zm0,6.76h2.83v3.38h-2.83v-3.38Zm2.83-10.13h2.83v3.38h-2.83v-3.38Zm0,13.51h2.83v3.38h-2.83v-3.38Z"/>
    <path class="cls-14" d="m211.29,104.11h2.83v10.13h-2.83v-10.13Zm2.83-3.38h8.5v3.38h-8.5v-3.38Zm0,13.51h8.5v3.38h-8.5v-3.38Zm8.5-10.13h2.83v10.13h-2.83v-10.13Z"/>
    <path class="cls-14" d="m228.33,104.11h2.83v10.13h-2.83v-10.13Zm2.83-3.38h8.5v3.38h-8.5v-3.38Zm0,13.51h8.5v3.38h-8.5v-3.38Zm8.5-10.13h2.83v3.38h-2.83v-3.38Zm0,6.76h2.83v3.38h-2.83v-3.38Z"/>
    <path class="cls-14" d="m248.2,100.73v3.38h2.83v3.38h-2.83v10.13h-2.83v-16.89h2.83Zm2.83,6.76h2.83v3.38h-2.83v-3.38Zm8.5-6.76v16.89h-2.83v-10.13h-2.83v-3.38h2.83v-3.38h2.83Z"/>
    <path class="cls-14" d="m262.4,104.11h2.83v10.13h-2.83v-10.13Zm2.83-3.38h8.5v3.38h-8.5v-3.38Zm0,13.51h8.5v3.38h-8.5v-3.38Zm8.5-10.13h2.83v10.13h-2.83v-10.13Z"/>
    <path class="cls-14" d="m293.61,100.73v16.89h-2.83v-6.75h-8.5v6.75h-2.83v-16.89h2.83v6.76h8.5v-6.76h2.83Z"/>
    <path class="cls-14" d="m310.65,104.11v13.51h-2.83v-6.75h-8.5v6.75h-2.83v-13.51h2.83v3.38h8.5v-3.38h2.83Zm-11.34-3.38h8.5v3.38h-8.5v-3.38Z"/>
    <path class="cls-14" d="m324.85,100.73v3.38h-8.5v3.38h8.5v3.38h-8.5v3.38h8.5v3.38h-11.34v-16.89h11.34Zm0,3.38h2.83v3.38h-2.83v-3.38Zm0,6.76h2.83v3.38h-2.83v-3.38Z"/>
    <path class="cls-14" d="m344.72,100.73v3.38h-5.67v13.51h-2.83v-13.51h-5.67v-3.38h14.17Z"/>
    <path class="cls-14" d="m347.58,114.24h2.83v3.38h-2.83v-3.38Zm2.83-3.38h2.83v3.38h-2.83v-3.38Z"/>
    <path class="cls-14" d="m80.69,142.23v10.13h2.83v3.38h-2.83v3.38h-2.83v-16.89h2.83Zm2.83,6.76h2.83v3.38h-2.83v-3.38Zm8.5-6.76v16.89h-2.83v-10.13h-2.83v-3.38h2.83v-3.38h2.83Z"/>
    <path class="cls-14" d="m109.08,145.61h2.83v13.51h-2.83v-13.51Zm2.83-3.38h8.5v3.38h-8.5v-3.38Zm8.5,3.38h2.83v13.51h-2.83v-13.51Z"/>
    <path class="cls-14" d="m137.45,142.23v3.38h-8.5v3.38h8.5v3.38h-8.5v6.75h-2.83v-16.89h11.34Zm0,3.38h2.83v3.38h-2.83v-3.38Z"/>
    <path class="cls-14" d="m145.98,142.23v10.13h2.83v3.38h-2.83v3.38h-2.83v-16.89h2.83Zm2.83,6.76h2.83v3.38h-2.83v-3.38Zm8.5-6.76v16.89h-2.83v-10.13h-2.83v-3.38h2.83v-3.38h2.83Z"/>
    <path class="cls-14" d="m163.02,142.23v3.38h2.83v3.38h-2.83v10.13h-2.83v-16.89h2.83Zm2.83,6.76h2.83v3.38h-2.83v-3.38Zm8.5-6.76v16.89h-2.83v-10.13h-2.83v-3.38h2.83v-3.38h2.83Z"/>
    <path class="cls-14" d="m180.06,145.61v3.38h5.67v3.38h-5.67v3.38h11.34v3.38h-14.17v-13.51h2.83Zm0-3.38h11.34v3.38h-11.34v-3.38Z"/>
    <path class="cls-14" d="m205.6,142.23v3.38h-8.5v3.38h8.5v3.38h-8.5v6.75h-2.83v-16.89h11.34Zm0,3.38h2.83v3.38h-2.83v-3.38Z"/>
    <path class="cls-14" d="m211.29,145.61h2.83v10.13h-2.83v-10.13Zm2.83-3.38h8.5v3.38h-8.5v-3.38Zm0,13.51h8.5v3.38h-8.5v-3.38Zm8.5-10.13h2.83v10.13h-2.83v-10.13Z"/>
    <path class="cls-14" d="m231.17,142.23v3.38h2.83v3.38h-2.83v10.13h-2.83v-16.89h2.83Zm2.83,6.76h2.83v3.38h-2.83v-3.38Zm8.5-6.76v16.89h-2.83v-10.13h-2.83v-3.38h2.83v-3.38h2.83Z"/>
    <path class="cls-14" d="m259.55,145.61h2.83v10.13h-2.83v-10.13Zm2.83-3.38h8.5v3.38h-8.5v-3.38Zm0,13.51h8.5v3.38h-8.5v-3.38Zm8.5-10.13h2.83v3.38h-2.83v-3.38Zm0,6.76h2.83v3.38h-2.83v-3.38Z"/>
    <path class="cls-14" d="m276.59,148.99h2.83v10.13h-2.83v-10.13Zm2.83-3.38h2.83v3.38h-2.83v-3.38Zm11.34-3.38v16.89h-2.83v-13.51h-5.67v-3.38h8.5Z"/>
    <path class="cls-14" d="m293.64,142.23h2.83v6.76h-2.83v-6.76Zm0,13.51h11.34v3.38h-11.34v-3.38Zm14.17-13.51v13.51h-2.83v-3.38h-8.5v-3.38h8.5v-6.76h2.83Z"/>
    <path class="cls-14" d="m310.68,142.23h2.83v6.76h-2.83v-6.76Zm0,10.13h2.83v6.75h-2.83v-6.75Zm8.5-10.13v6.76h2.83v3.38h-2.83v6.75h-2.83v-6.75h-2.83v-3.38h2.83v-6.76h2.83Zm2.83,0h2.83v6.76h-2.83v-6.76Zm0,10.13h2.83v6.75h-2.83v-6.75Z"/>
    <path class="cls-14" d="m330.55,142.23v10.13h2.83v3.38h-2.83v3.38h-2.83v-16.89h2.83Zm2.83,6.76h2.83v3.38h-2.83v-3.38Zm8.5-6.76v16.89h-2.83v-10.13h-2.83v-3.38h2.83v-3.38h2.83Z"/>
    <path class="cls-14" d="m358.92,142.23v3.38h-5.67v13.51h-2.83v-13.51h-5.67v-3.38h14.17Z"/>
    <path class="cls-14" d="m77.85,187.11h2.83v10.13h-2.83v-10.13Zm2.83-3.38h8.5v3.38h-8.5v-3.38Zm0,13.51h8.5v3.38h-8.5v-3.38Zm8.5-10.13h2.83v10.13h-2.83v-10.13Z"/>
    <path class="cls-14" d="m109.06,183.73v16.89h-2.83v-6.75h-8.5v6.75h-2.83v-16.89h2.83v6.75h8.5v-6.75h2.83Z"/>
    <path class="cls-14" d="m143.12,183.73v16.89h-17.01v-3.38h2.83v-10.13h2.83v-3.38h11.34Zm-2.83,3.38h-8.5v10.13h8.5v-10.13Z"/>
    <path class="cls-14" d="m145.96,190.49h2.83v10.13h-2.83v-10.13Zm2.83-3.38h2.83v3.38h-2.83v-3.38Zm11.34-3.38v16.89h-2.83v-13.51h-5.67v-3.38h8.5Z"/>
    <path class="cls-14" d="m177.18,183.73v16.89h-2.83v-6.75h-8.5v6.75h-2.83v-6.75h2.83v-3.38h8.5v-3.38h-8.5v-3.38h11.34Zm-14.17,3.38h2.83v3.38h-2.83v-3.38Z"/>
    <path class="cls-14" d="m205.57,183.73v3.38h-8.5v3.38h8.5v3.38h-8.5v3.38h8.5v3.38h-11.34v-16.89h11.34Zm0,3.38h2.83v3.38h-2.83v-3.38Zm0,6.75h2.83v3.38h-2.83v-3.38Z"/>
    <path class="cls-14" d="m211.27,187.11h2.83v10.13h-2.83v-10.13Zm2.83-3.38h8.5v3.38h-8.5v-3.38Zm0,13.51h8.5v3.38h-8.5v-3.38Zm8.5-10.13h2.83v3.38h-2.83v-3.38Zm0,6.75h2.83v3.38h-2.83v-3.38Z"/>
    <path class="cls-14" d="m231.14,187.11v3.38h5.67v3.38h-5.67v3.38h11.34v3.38h-14.17v-13.51h2.83Zm0-3.38h11.34v3.38h-11.34v-3.38Z"/>
    <path class="cls-14" d="m245.34,183.73h2.83v3.38h-2.83v-3.38Zm0,13.51h2.83v3.38h-2.83v-3.38Zm2.83-10.13h2.83v3.38h-2.83v-3.38Zm0,6.75h2.83v3.38h-2.83v-3.38Zm2.83-3.38h2.83v3.38h-2.83v-3.38Zm5.67,0h-2.83v-3.38h2.83v3.38Zm0,6.75h-2.83v-3.38h2.83v3.38Zm0-13.51h2.83v3.38h-2.83v-3.38Zm0,13.51h2.83v3.38h-2.83v-3.38Z"/>
    <path class="cls-14" d="m287.9,183.73v3.38h-8.5v3.38h8.5v3.38h-8.5v6.75h-2.83v-16.89h11.34Zm0,3.38h2.83v3.38h-2.83v-3.38Z"/>
    <path class="cls-14" d="m296.43,187.11v3.38h5.67v3.38h-5.67v3.38h11.34v3.38h-14.17v-13.51h2.83Zm0-3.38h11.34v3.38h-11.34v-3.38Z"/>
    <path class="cls-14" d="m321.97,183.73v3.38h-8.5v3.38h8.5v3.38h-8.5v3.38h8.5v3.38h-11.34v-16.89h11.34Zm0,10.13h2.83v3.38h-2.83v-3.38Z"/>
    <path class="cls-14" d="m341.86,183.73v16.89h-2.83v-6.75h-8.5v6.75h-2.83v-6.75h2.83v-3.38h8.5v-3.38h-8.5v-3.38h11.34Zm-14.17,3.38h2.83v3.38h-2.83v-3.38Z"/>
    <path class="cls-14" d="m358.89,183.73v3.38h-5.67v13.51h-2.83v-13.51h-5.67v-3.38h14.17Z"/>
  </g>
</svg>