<?xml version="1.0" encoding="utf-8"?>
<!-- Generator: Adobe Illustrator 27.1.1, SVG Export Plug-In . SVG Version: 6.00 Build 0)  -->
<svg version="1.1" id="Слой_1" xmlns="http://www.w3.org/2000/svg" xmlns:xlink="http://www.w3.org/1999/xlink" x="0px" y="0px"
	 viewBox="0 0 40 40" style="enable-background:new 0 0 40 40;" xml:space="preserve">
<style type="text/css">
	.st0{fill:none;stroke:#39AE72;stroke-width:2;stroke-linecap:round;stroke-linejoin:round;}
	.st1{fill:none;stroke:#009EE2;stroke-width:2;stroke-linecap:round;stroke-linejoin:round;}
</style>
<g>
	<path class="st0" d="M6.2,12.3c0-0.8,0.2-4.2,2.7-6.7c3-3,6.9-2.7,8.2-2.7c1.2,0.1,4.3,0.2,6.7,2.7c3.2,3.2,2.7,7.6,2.7,8.2
		c-0.3,3.1-2.2,5.7-4,8.1c-1,1.2-1.8,2.2-2.7,4.1c-0.4,0.9-0.5,1.3-1.3,4.1c-1.7,5.4-1.9,6.1-2.7,6.7C14.1,38.1,12,38,11.7,38
		c-3.4-0.2-5.2-3.7-5.4-4.1c-1.6-3.2-0.2-6.3,0-6.7"/>
	<path class="st0" d="M14.3,20.4c-1.2,0-2.9-0.2-4.1-1.3C7.8,16.6,9,10.6,12.9,8.3c2.8-1.7,7.5-1.7,9.5,1.3c1.9,2.9,0.1,6.6,0,6.7"
		/>
	<path class="st0" d="M13,12.3c0.5-0.2,1.9-0.7,3.5-0.2c1.6,0.6,2.7,2.1,3,3.4c0.7,3.3-3.2,4.3-4.2,10c-0.2,1.3-0.3,3.1-1.7,4.2
		c-0.2,0.2-1.2,0.9-2.2,0.7c-1.4-0.2-2.6-2.2-2.5-4.6"/>
	<path class="st1" d="M31.4,13.8c0.3-0.7,0.8-2.3,0.6-4.2c-0.2-2.7-1.7-4.5-2.3-5.1"/>
	<path class="st1" d="M32.8,2.2C33.7,3,35.4,4.9,36.1,8c1,4.5-1.1,8.1-1.6,8.9"/>
</g>
</svg>
