<svg width="35" height="35" viewBox="0 0 35 35" fill="none" xmlns="http://www.w3.org/2000/svg">
<path d="M5.67 10.9199C5.67 10.2199 5.81 7.41993 7.91 5.24993C10.43 2.72993 13.72 2.93993 14.77 3.00993C15.75 3.07993 18.41 3.21993 20.44 5.24993C23.1 7.90993 22.75 11.6199 22.68 12.1099C22.4 14.6999 20.79 16.9399 19.32 18.8999C18.48 19.9499 17.78 20.7199 17.08 22.3299C16.73 23.0999 16.66 23.4499 15.96 25.7599C14.56 30.3099 14.35 30.8699 13.72 31.4299C12.32 32.6899 10.5 32.6199 10.29 32.5499C7.42 32.4099 5.88 29.4699 5.74 29.1199C4.41 26.4599 5.6 23.7999 5.74 23.4499" stroke="#39AE72" stroke-width="2" stroke-linecap="round" stroke-linejoin="round"/>
<path d="M12.46 17.78C11.48 17.78 10.01 17.64 9.03 16.66C7 14.56 8.05 9.52005 11.27 7.56005C13.65 6.16005 17.57 6.16005 19.25 8.68005C20.86 11.13 19.32 14.2101 19.25 14.3501" stroke="#39AE72" stroke-width="2" stroke-linecap="round" stroke-linejoin="round"/>
<path d="M11.34 10.9201C11.76 10.7801 12.95 10.2901 14.28 10.7801C15.61 11.2701 16.52 12.5301 16.8 13.6501C17.43 16.4501 14.14 17.2901 13.3 22.0501C13.09 23.1701 13.02 24.6401 11.9 25.5501C11.76 25.6901 10.92 26.3201 10.01 26.1801C8.82 25.9701 7.84 24.3601 7.91 22.3301" stroke="#39AE72" stroke-width="2" stroke-linecap="round" stroke-linejoin="round"/>
<path d="M26.88 12.2499C27.16 11.6199 27.58 10.2899 27.37 8.67991C27.16 6.36991 25.9 4.89991 25.41 4.40991" stroke="#009EE2" stroke-width="2" stroke-linecap="round" stroke-linejoin="round"/>
<path d="M28.07 2.44995C28.77 3.14995 30.24 4.75995 30.8 7.34995C31.64 11.13 29.89 14.14 29.47 14.84" stroke="#009EE2" stroke-width="2" stroke-linecap="round" stroke-linejoin="round"/>
</svg>
