<svg width="37" height="37" viewBox="0 0 37 37" fill="none" xmlns="http://www.w3.org/2000/svg">
<path d="M5.994 11.5439C5.994 10.8039 6.142 7.84391 8.362 5.54991C11.026 2.88591 14.504 3.10791 15.614 3.18191C16.65 3.25591 19.462 3.40391 21.608 5.54991C24.42 8.36191 24.05 12.2839 23.976 12.8019C23.68 15.5399 21.978 17.9079 20.424 19.9799C19.536 21.0899 18.796 21.9039 18.056 23.6059C17.686 24.4199 17.612 24.7899 16.872 27.2319C15.392 32.0419 15.17 32.6339 14.504 33.2259C13.024 34.5579 11.1 34.4839 10.878 34.4099C7.844 34.2619 6.216 31.1539 6.068 30.7839C4.662 27.9719 5.92 25.1599 6.068 24.7899" stroke="#39AE72" stroke-width="2" stroke-linecap="round" stroke-linejoin="round"/>
<path d="M13.172 18.796C12.136 18.796 10.582 18.648 9.546 17.612C7.4 15.392 8.51 10.064 11.914 7.99196C14.43 6.51196 18.574 6.51196 20.35 9.17596C22.052 11.766 20.424 15.022 20.35 15.17" stroke="#39AE72" stroke-width="2" stroke-linecap="round" stroke-linejoin="round"/>
<path d="M11.988 11.544C12.432 11.396 13.69 10.878 15.096 11.396C16.502 11.914 17.464 13.246 17.76 14.43C18.426 17.39 14.948 18.278 14.06 23.31C13.838 24.494 13.764 26.048 12.58 27.01C12.432 27.158 11.544 27.824 10.582 27.676C9.324 27.454 8.288 25.752 8.362 23.606" stroke="#39AE72" stroke-width="2" stroke-linecap="round" stroke-linejoin="round"/>
<path d="M28.416 12.9501C28.712 12.2841 29.156 10.8781 28.934 9.17611C28.712 6.73411 27.38 5.18011 26.862 4.66211" stroke="#009EE2" stroke-width="2" stroke-linecap="round" stroke-linejoin="round"/>
<path d="M29.674 2.59009C30.414 3.33009 31.968 5.03209 32.56 7.77009C33.448 11.7661 31.598 14.9481 31.154 15.6881" stroke="#009EE2" stroke-width="2" stroke-linecap="round" stroke-linejoin="round"/>
</svg>
