<svg width="97" height="97" viewBox="0 0 97 97" fill="none" xmlns="http://www.w3.org/2000/svg">
<path d="M15.714 30.2641C15.714 28.3241 16.102 20.5641 21.922 14.5501C28.906 7.5661 38.024 8.1481 40.934 8.3421C43.65 8.5361 51.022 8.9241 56.648 14.5501C64.02 21.9221 63.05 32.2041 62.856 33.5621C62.08 40.7401 57.618 46.9481 53.544 52.3801C51.216 55.2901 49.276 57.4241 47.336 61.8861C46.366 64.0201 46.172 64.9901 44.232 71.3921C40.352 84.0021 39.77 85.5541 38.024 87.1061C34.144 90.5981 29.1 90.4041 28.518 90.2101C20.564 89.8221 16.296 81.6741 15.908 80.7041C12.222 73.3321 15.52 65.9601 15.908 64.9901" stroke="#39AE72" stroke-width="6" stroke-linecap="round" stroke-linejoin="round"/>
<path d="M34.532 49.276C31.816 49.276 27.742 48.888 25.026 46.172C19.4 40.352 22.31 26.384 31.234 20.952C37.83 17.072 48.694 17.072 53.35 24.056C57.812 30.846 53.544 39.382 53.35 39.77" stroke="#39AE72" stroke-width="6" stroke-linecap="round" stroke-linejoin="round"/>
<path d="M31.428 30.264C32.592 29.876 35.89 28.518 39.576 29.876C43.262 31.234 45.784 34.726 46.56 37.83C48.306 45.59 39.188 47.918 36.86 61.11C36.278 64.214 36.084 68.288 32.98 70.81C32.592 71.198 30.264 72.944 27.742 72.556C24.444 71.974 21.728 67.512 21.922 61.886" stroke="#39AE72" stroke-width="6" stroke-linecap="round" stroke-linejoin="round"/>
<path d="M74.496 33.9499C75.272 32.2039 76.436 28.5179 75.854 24.0559C75.272 17.6539 71.78 13.5799 70.422 12.2219" stroke="#009EE2" stroke-width="6" stroke-linecap="round" stroke-linejoin="round"/>
<path d="M77.794 6.79004C79.734 8.73004 83.808 13.192 85.36 20.37C87.688 30.846 82.838 39.188 81.674 41.128" stroke="#009EE2" stroke-width="6" stroke-linecap="round" stroke-linejoin="round"/>
</svg>
