<?xml version="1.0" encoding="UTF-8"?>
<svg id="_Слой_1" data-name="Слой 1" xmlns="http://www.w3.org/2000/svg" xmlns:xlink="http://www.w3.org/1999/xlink" viewBox="0 0 500 500">
  <defs>
    <style>
      .cls-1, .cls-2 {
        fill: #c9243c;
      }

      .cls-3 {
        fill: #9e005d;
      }

      .cls-4 {
        fill: #ed5875;
      }

      .cls-5 {
        fill: #c9354a;
      }

      .cls-2 {
        opacity: .49;
      }

      .cls-6 {
        fill: url(#_Безымянный_градиент_11);
      }

      .cls-7 {
        fill: #9b1932;
      }
    </style>
    <radialGradient id="_Безымянный_градиент_11" data-name="Безымянный градиент 11" cx="1492.68" cy="1185.46" fx="1492.68" fy="1185.46" r="526.75" gradientTransform="translate(-546.97 -407.44) scale(.54 .55)" gradientUnits="userSpaceOnUse">
      <stop offset="0" stop-color="#fff"/>
      <stop offset=".13" stop-color="#fff" stop-opacity=".83"/>
      <stop offset=".42" stop-color="#fff" stop-opacity=".48"/>
      <stop offset=".66" stop-color="#fff" stop-opacity=".22"/>
      <stop offset=".83" stop-color="#fff" stop-opacity=".06"/>
      <stop offset=".92" stop-color="#fff" stop-opacity="0"/>
    </radialGradient>
  </defs>
  <ellipse class="cls-6" cx="251.81" cy="250.4" rx="248.6" ry="248.58"/>
  <g>
    <g>
      <g>
        <path class="cls-5" d="m251.68,470.26c-58.73,0-113.94-22.87-155.47-64.4-41.53-41.53-64.4-96.74-64.4-155.47s22.87-113.94,64.4-155.47S192.95,30.53,251.68,30.53s113.94,22.87,155.47,64.4c41.53,41.53,64.4,96.74,64.4,155.47s-22.87,113.94-64.4,155.47-96.74,64.4-155.47,64.4Z"/>
        <path class="cls-3" d="m251.68,31.03c29.62,0,58.34,5.8,85.39,17.24,26.12,11.05,49.58,26.87,69.73,47.01,20.15,20.15,35.96,43.61,47.01,69.73,11.44,27.04,17.24,55.77,17.24,85.39s-5.8,58.34-17.24,85.39c-11.05,26.12-26.87,49.58-47.01,69.73-20.15,20.15-43.61,35.96-69.73,47.01-27.04,11.44-55.77,17.24-85.39,17.24s-58.34-5.8-85.39-17.24c-26.12-11.05-49.58-26.87-69.73-47.01-20.15-20.15-35.96-43.61-47.01-69.73-11.44-27.04-17.24-55.77-17.24-85.39s5.8-58.34,17.24-85.39c11.05-26.12,26.87-49.58,47.01-69.73,20.15-20.15,43.61-35.96,69.73-47.01,27.04-11.44,55.77-17.24,85.39-17.24m0-1c-121.71,0-220.37,98.66-220.37,220.37s98.66,220.37,220.37,220.37,220.37-98.66,220.37-220.37S373.39,30.03,251.68,30.03h0Z"/>
      </g>
      <path class="cls-4" d="m411.18,120.22c16.14,5.76,33.41,22.3,35.54,43.54.29,2.89,1.84,18.33-8,31.1-16.09,20.9-42.02,7.88-56.87,25.77-3.54,4.26-5.78,9.47-5.33,66.64.28,36.03,1.24,42.43-4.44,48.87-15.61,17.71-59.94,11.44-65.76-4.44-5.45-14.88,25.09-32.33,19.55-42.65-5.73-10.67-47.01-8.11-56.87,11.55-5.76,11.49.35,26.52,8,45.32,9.17,22.54,16.8,26.91,14.22,32.88-6.68,15.43-69.96,14.37-81.75-10.66-7.16-15.19,10.77-26.24,9.77-59.54-.28-9.34-1.17-39.07-18.66-50.65-23.35-15.45-49.54,19.14-92.41,10.66-39.07-7.73-67.76-46.43-64.87-50.65,1.17-1.71,7.77,1.92,17.77,5.33,31.5,10.75,59.43,6.6,79.97,3.55,8.45-1.25,24.63-4.22,84.42-31.99,31.68-14.71,91.72-43.87,107.52-51.54,40.37-19.6,60.91-29.27,78.2-23.1Z"/>
      <path class="cls-4" d="m359.65,104.22c2.04,2.55-8.72,16.03-21.33,26.66-22.95,19.35-47.86,25.7-77.31,32.88-33.42,8.15-48.73,7.26-70.2,22.21-9.59,6.68-15.4,13.03-15.99,12.44-1.23-1.23,18.38-34.04,52.43-50.65,28-13.66,37.24-2.46,75.53-15.99,34.28-12.12,54.27-30.79,56.87-27.55Z"/>
      <path class="cls-4" d="m84.18,121.11c8.78,14.79,16.6,18.28,22.21,18.66,12.55.84,18.01-13.67,44.43-38.21,18.65-17.32,20.58-14.41,39.99-32.88,19.77-18.82,29.92-33.4,31.99-31.99,1.57,1.07-3.08,10.26-15.99,40.87-7.46,17.69-8.8,21.48-7.11,23.1,4.45,4.28,20.04-15.86,50.65-26.66,26.38-9.31,38.26-2.63,83.53-14.22,8.02-2.05,14.51-4.02,18.66-5.33,5.24,2,12.84,5.33,21.33,10.66,6.24,3.93,17.17,10.8,15.99,14.22-1.14,3.32-12.91.93-23.99.89-20.94-.07-31.34,8.29-55.09,18.66-39.3,17.16-62.87,27.44-89.75,22.21-18-3.5-29.98-12.5-46.21-6.22-3.61,1.39-14.64,5.66-19.55,15.99-4.83,10.17-.33,19.06-6.22,23.1-3.3,2.26-5.34-.08-15.99,1.78-4.37.76-8.16,1.42-12.44,3.55-7.54,3.75-7.71,7.66-14.22,10.66-4.44,2.05-10.51,3.07-14.22,1.78-9.18-3.19-13.55-23.8-8-50.65Z"/>
      <path class="cls-4" d="m106.4,336.14c12.86,20.55,42.9,61.15,95.08,78.2,52.85,17.26,103.86,2.34,127.07-4.44,44.46-13,75.33-34.89,79.97-28.43,3.37,4.69-10.06,20.18-18.66,28.43-11.51,11.05-32.09,26.1-71.98,33.77-31.74,6.1-80.97,15.56-132.4-12.44-54.4-29.61-74.17-80.95-79.08-95.08Z"/>
      <path class="cls-1" d="m353.43,243.73c1.23-9.94-12.56-22.21-26.66-26.66-23.61-7.45-34.34,11.38-71.98,12.44-24.27.69-36.46-6.67-39.99-.89-4.51,7.4,9.87,28.54,29.32,38.21,19.53,9.7,39,5.27,62.2,0,19.58-4.45,45.52-10.35,47.1-23.1Z"/>
      <path class="cls-7" d="m338.76,233.51c-1.8-4.69-19-1.96-25.77-.89-15.6,2.47-37,9.73-36.43,15.99.43,4.77,13.53,8.32,23.99,8,21.27-.65,40.34-17.55,38.21-23.1Z"/>
      <path class="cls-7" d="m334.32,192.64c7.64,9.96,18.93,11.79,28.43,13.33,5.3.86,37.37,6.05,56.87-15.11,8.2-8.9,15.34-23.72,10.66-29.32-4.95-5.92-17.86,4.73-42.65,6.22-32.53,1.95-49.59-14.04-57.76-5.33-6.09,6.49-2.29,21.43,4.44,30.21Z"/>
      <path class="cls-7" d="m392.97,138.43c-8.54-6.35-23.06-2.48-25.77,5.33-1.79,5.16,1.91,11.12,5.33,14.22,7.29,6.58,21.2,7.23,25.77,0,3.6-5.7.64-15.1-5.33-19.55Z"/>
      <path class="cls-7" d="m161.49,59.79c4.71,1.99,8.8,4.72,9.33,8.44.97,6.85-11.07,10.06-28.43,25.77-12.19,11.03-14.94,17.31-27.55,23.99-6.02,3.19-13.91,7.38-16.44,4.89-4.81-4.74,9.94-33.51,34.21-50.21,10.8-7.43,21.38-11.02,28.88-12.88Z"/>
      <path class="cls-7" d="m153.05,157.09c-5.9,7.23-20.52,25.14-42.65,31.99-12.51,3.87-20.66,2.12-21.33,5.33-.98,4.71,15.26,14.26,31.99,15.99,3.5.36,22.79,2.36,38.21-9.77,14.14-11.12,8.69-21.28,23.99-32.88,11.41-8.65,21.3-8.2,23.1-15.99,1.78-7.66-6.15-15.11-7.11-15.99-6.49-5.95-15.91-7.38-23.1-5.33-10.26,2.92-10.63,11.38-23.1,26.66Z"/>
      <path class="cls-7" d="m260.57,127.77c-9.34.61-17.69,11.29-15.11,18.66,2.53,7.22,15.41,10.8,23.1,5.33,4.76-3.38,8.24-10.73,5.33-16.88-2.51-5.32-8.68-7.41-13.33-7.11Z"/>
      <path class="cls-7" d="m178.82,301.93c-15.3-4.22-33.91,5.22-36.43,18.66-2.77,14.75,14.67,29.92,31.1,31.1,9.06.65,22.05-2.64,26.66-12.44,6.14-13.08-4.97-32.81-21.33-37.32Z"/>
      <path class="cls-7" d="m89.96,358.8c7.83-3.11,6.66-25.8,2.67-40.87-1.82-6.89-4.82-17.67-14.22-27.55-8.61-9.05-25.06-19.93-31.99-15.11-9.37,6.53,3.21,38.63,8.89,50.65,2.32,4.92,7.23,14.38,16.88,23.1,6.18,5.58,12.95,11.69,17.77,9.77Z"/>
      <path class="cls-7" d="m426.73,384.57c-6.78-9.67-13.32-22.12-8.89-31.1,4.87-9.86,18.24-6.49,26.66-16.88,7.27-8.98,2.02-18.48,0-48.87-.95-14.29-3.41-51.21,6.22-54.2,5-1.56,12.05,6.42,14.22,8.89,5.82,6.6,7.05,13.83,7.37,16.57-.82,15.6-3.47,36.07-10.92,58.96-9.72,29.85-23.79,52.15-34.65,66.64Z"/>
      <path class="cls-7" d="m392.97,331.26c1.98-10.01,7.91-39.92-3.55-46.21-10.47-5.74-34.57,8.7-42.65,28.43-7.88,19.24,4.6,30.98-4.44,46.21-10.85,18.28-37.52,15.97-37.32,22.21.21,6.68,31.05,18.72,55.09,7.11,23.7-11.45,29.44-40.39,32.88-57.76Z"/>
      <path class="cls-2" d="m266.79,405.01c-.16-18.57-7.39-32.92-10.66-38.21-13.76-22.2-36.84-11.96-67.53-32.88-30.16-20.55-24.65-41.87-47.1-48.87-25.53-7.96-62.89,10.17-72.86,37.32-13.79,37.53,29.62,79.03,57.76,95.97,54.97,33.08,131.73,20.59,139.51-1.78.96-2.77.94-5.89.89-11.55Z"/>
      <path class="cls-2" d="m410.74,254.84c11.02-1.23,19.48-20.58,21.33-35.54,7-56.86-72.12-127.66-108.41-113.74-23.19,8.89-35.29,54.82-20.44,77.31,13.25,20.06,39.15,8.13,70.2,34.65,21.72,18.56,25.69,38.62,37.32,37.32Z"/>
    </g>
    <path class="cls-7" d="m256.13,39.8c-8.74,4.28-17.85,13.31-15.99,18.66,2.8,8.06,29.57,5.18,36.43,4.44,7.44-.8,34.14-3.67,34.65-10.66.58-7.89-31.99-23.76-55.09-12.44Z"/>
  </g>
</svg>