<?xml version="1.0" encoding="UTF-8"?>
<svg id="_Слой_1" data-name="Слой 1" xmlns="http://www.w3.org/2000/svg" viewBox="0 0 200 200">
  <defs>
    <style>
      .cls-1 {
        fill: #2b0933;
        stroke: #000;
      }

      .cls-1, .cls-2, .cls-3, .cls-4 {
        stroke-linecap: round;
        stroke-linejoin: round;
        stroke-width: .25px;
      }

      .cls-2 {
        stroke: #a60d3f;
      }

      .cls-3 {
        fill: #063;
      }

      .cls-3, .cls-4 {
        stroke: #063;
      }

      .cls-4 {
        fill: #009540;
      }

      .cls-5 {
        fill: #f192a4;
      }
    </style>
  </defs>
  <ellipse class="cls-2" cx="97.3" cy="80.42" rx="29.99" ry="28.82"/>
  <g>
    <path class="cls-4" d="m118.98,22.23c-2.93,1.14-7.48,3.18-11.92,6.61-12.15,9.39-13.91,21.73-15.31,31.6-.72,5.1-1.19,12.7.64,21.85,5.47-1.64,12.05-4.4,17.54-9.2,10.87-9.5,11.34-21.49,11.5-31.84.12-8.01-1.2-14.55-2.44-19.03Z"/>
    <path class="cls-3" d="m92.36,79.03c1.25-6.89,3.37-14.89,6.95-23.62,5.61-13.67,13.04-24.82,19.67-33.18-3.52,1.38-9.84,4.29-15.44,9.68-6.58,6.34-8.62,12.68-9.32,15.68-.92,4.5-1.66,9.48-2.03,14.87-.41,6.08-.27,11.64.17,16.57Z"/>
  </g>
  <g>
    <path class="cls-4" d="m98.82,78.52c.29-3.86.21-10.12-2.78-16.16-5.68-11.51-18.05-14.46-27.96-16.83-5.52-1.32-14.21-2.64-25.09-1.11,1.24,5.46,3.64,12.1,8.48,17.83,9.6,11.35,23.28,12.76,35.11,13.73,8.86.73,17.09-1.42,17.29-.23.12.69-2.56,1.84-5.06,2.78Z"/>
    <path class="cls-3" d="m46.74,44.65c6.56.94,15.94,3.13,26.23,8.64,12.25,6.56,20.61,15.03,25.53,20.86-.07-3-.62-10.85-5.79-17.51-3.47-4.47-7.48-6.42-10.19-7.69-4.16-1.96-7.57-1.98-16.79-3.15-6.91-.88-13.29-1.18-18.99-1.15Z"/>
  </g>
  <g>
    <path class="cls-4" d="m99.62,65.66c.82-2.52,3.13-8.51,8.7-12.49,4.25-3.04,8.31-3.39,11.61-3.72,7.97-.81,14.71,2.03,20.45,4.46,4.31,1.82,10.43,5.13,16.61,11.44-3.98,4.52-9.38,9.56-15.81,12.53-3.79,1.75-7.29,2.5-10.56,2.55-7.12.11-12.34-2.84-19.8-7.11-2.79-1.6-6.73-4.07-11.21-7.65Z"/>
    <path class="cls-3" d="m154.49,63.69c-5.32-2.18-12.74-4.45-21.74-4.92-14.89-.79-26.62,3.72-33.12,6.89,1.09-2.6,4.75-10.47,12.82-14.4,6.94-3.38,13.46-2.43,16.76-1.32,3.94,1.33,8.17,3.07,12.52,5.39,4.91,2.61,9.15,5.5,12.76,8.37Z"/>
  </g>
  <ellipse class="cls-1" cx="66.26" cy="136.71" rx="14.42" ry="16.17"/>
  <path d="m53.25,142.08c.74,1.3,2.68,4.29,6.31,6.24,3.62,1.95,6.92,1.76,8.29,1.6,1.18-.24,4.42-1.08,7.23-4.27,3.1-3.53,3.66-7.66,3.79-8.94-1.03,1.42-4.86,6.38-11.63,7.92-7.14,1.62-12.64-1.68-13.99-2.55Z"/>
  <ellipse class="cls-1" cx="80.68" cy="145.42" rx="14.42" ry="16.17"/>
  <ellipse class="cls-1" cx="131.5" cy="136.71" rx="14.42" ry="16.17"/>
  <path d="m123.82,149.21c1.22.71,4.24,2.22,8.25,1.87,4.01-.34,6.78-2.34,7.89-3.25.91-.87,3.35-3.41,4.36-7.75,1.12-4.8-.24-8.69-.69-9.87-.26,1.81-1.37,8.25-6.55,13.37-5.46,5.4-11.7,5.62-13.26,5.62Z"/>
  <ellipse class="cls-1" cx="117.94" cy="146.55" rx="14.42" ry="16.17"/>
  <path d="m71.13,157.68c1.22.71,4.24,2.22,8.25,1.87,4.01-.34,6.78-2.34,7.89-3.25.91-.87,3.35-3.41,4.36-7.75,1.12-4.8-.24-8.69-.69-9.87-.26,1.81-1.37,8.25-6.55,13.37-5.46,5.4-11.7,5.62-13.26,5.62Z"/>
  <ellipse class="cls-1" cx="96.87" cy="148.44" rx="14.42" ry="16.17"/>
  <ellipse class="cls-1" cx="58.99" cy="114.15" rx="14.42" ry="16.17"/>
  <path d="m45.13,119.54c.6,1.39,2.21,4.62,5.61,7.03,3.39,2.41,6.68,2.66,8.06,2.68,1.2-.08,4.51-.48,7.63-3.29,3.45-3.1,4.44-7.13,4.71-8.38-1.17,1.28-5.5,5.7-12.38,6.33-7.26.67-12.37-3.34-13.63-4.38Z"/>
  <ellipse class="cls-1" cx="74.3" cy="120.22" rx="14.42" ry="16.17"/>
  <ellipse class="cls-1" cx="139.09" cy="111.4" rx="14.42" ry="16.17"/>
  <ellipse class="cls-1" cx="116.53" cy="123.99" rx="14.42" ry="16.17"/>
  <path d="m67.3,132.52c1.22.71,4.24,2.22,8.25,1.87,4.01-.34,6.78-2.34,7.89-3.25.91-.87,3.35-3.41,4.36-7.75,1.12-4.8-.24-8.69-.69-9.87-.26,1.81-1.37,8.25-6.55,13.37-5.46,5.4-11.7,5.62-13.26,5.62Z"/>
  <ellipse class="cls-1" cx="95.09" cy="127.57" rx="14.42" ry="16.17"/>
  <ellipse class="cls-1" cx="58.94" cy="86.08" rx="15.37" ry="17.07"/>
  <path d="m45.13,90.57c.44,1.46,1.66,4.9,4.74,7.79,3.08,2.89,6.32,3.62,7.68,3.84,1.19.09,4.52.18,7.95-2.14,3.78-2.57,5.24-6.42,5.64-7.62-1.31,1.1-6.12,4.84-13.01,4.46-7.27-.4-11.88-5.12-13-6.34Z"/>
  <ellipse class="cls-1" cx="74.3" cy="96.4" rx="15.37" ry="17.07"/>
  <ellipse class="cls-1" cx="140.04" cy="86.08" rx="15.37" ry="17.07"/>
  <path d="m133.02,98.33c1.22.71,4.24,2.22,8.25,1.87,4.01-.34,6.78-2.34,7.89-3.25.91-.87,3.35-3.41,4.36-7.75,1.12-4.8-.24-8.69-.69-9.87-.26,1.81-1.37,8.25-6.55,13.37-5.46,5.4-11.7,5.62-13.26,5.62Z"/>
  <ellipse class="cls-1" cx="121.2" cy="99.37" rx="15.37" ry="17.07"/>
  <path d="m62.22,104.74c.74,1.3,2.68,4.29,6.31,6.24,3.62,1.95,6.92,1.76,8.29,1.6,1.18-.24,4.42-1.08,7.23-4.27,3.1-3.53,3.66-7.66,3.79-8.94-1.03,1.42-4.86,6.38-11.63,7.92-7.14,1.62-12.64-1.68-13.99-2.55Z"/>
  <path d="m88.84,161.73c1.22.71,4.24,2.22,8.25,1.87,4.01-.34,6.78-2.34,7.89-3.25.91-.87,3.35-3.41,4.36-7.75,1.12-4.8-.24-8.69-.69-9.87-.26,1.81-1.37,8.25-6.55,13.37-5.46,5.4-11.7,5.62-13.26,5.62Z"/>
  <path d="m109.88,159.66c1.22.71,4.24,2.22,8.25,1.87,4.01-.34,6.78-2.34,7.89-3.25.91-.87,3.35-3.41,4.36-7.75,1.12-4.8-.24-8.69-.69-9.87-.26,1.81-1.37,8.25-6.55,13.37-5.46,5.4-11.7,5.62-13.26,5.62Z"/>
  <path d="m86.33,140.81c1.22.71,4.24,2.22,8.25,1.87,4.01-.34,6.78-2.34,7.89-3.25.91-.87,3.35-3.41,4.36-7.75,1.12-4.8-.24-8.69-.69-9.87-.26,1.81-1.37,8.25-6.55,13.37-5.46,5.4-11.7,5.62-13.26,5.62Z"/>
  <path d="m130.81,123.77c1.22.71,4.24,2.22,8.25,1.87,4.01-.34,6.78-2.34,7.89-3.25.91-.87,3.35-3.41,4.36-7.75,1.12-4.8-.24-8.69-.69-9.87-.26,1.81-1.37,8.25-6.55,13.37-5.46,5.4-11.7,5.62-13.26,5.62Z"/>
  <path d="m113.35,113.31c1.22.71,4.24,2.22,8.25,1.87,4.01-.34,6.78-2.34,7.89-3.25.91-.87,3.35-3.41,4.36-7.75,1.12-4.8-.24-8.69-.69-9.87-.26,1.81-1.37,8.25-6.55,13.37-5.46,5.4-11.7,5.62-13.26,5.62Z"/>
  <path d="m108.65,136.1c1.22.71,4.24,2.22,8.25,1.87,4.01-.34,6.78-2.34,7.89-3.25.91-.87,3.35-3.41,4.36-7.75,1.12-4.8-.24-8.69-.69-9.87-.26,1.81-1.37,8.25-6.55,13.37-5.46,5.4-11.7,5.62-13.26,5.62Z"/>
  <ellipse class="cls-1" cx="95.09" cy="103.15" rx="15.37" ry="17.07"/>
  <g>
    <path class="cls-4" d="m98.71,67.32c-.02.72,0,1.81.16,3.13,1.47,11.66,12.43,18.7,18.06,22.48,3.46,2.32,8.82,5.33,16.01,7.16.53-4.66.59-10.54-1.15-16.32-.35-1.17-5.94-17.81-19.43-19.71-5.99-.85-10.96,1.58-13.65,3.27Z"/>
    <path class="cls-3" d="m130.57,98.97c-4.75-3.88-9.77-8.34-14.91-13.45-6.84-6.81-12.67-13.56-17.59-19.87.19,2.06.66,5.09,1.92,8.5,2.49,6.74,6.37,10.88,8.42,12.44,2.96,2.26,6.34,4.55,10.12,6.71,4.27,2.43,8.33,4.27,12.04,5.66Z"/>
  </g>
  <g>
    <path class="cls-4" d="m100.55,67.33c-1.23-.73-7.16-4.11-12.9-1.3-3.44,1.68-5.05,4.79-7.16,8.53-3.65,6.45-4.36,13.26-4.98,19.07-.46,4.38-.62,10.89,1.24,18.62,4.64-1.62,10.2-4.25,14.76-8.57,2.71-2.57,4.61-5.29,5.94-8.08,2.26-4.76,2.49-9.77,2.92-19.56.16-3.61.19-6.62.18-8.71Z"/>
    <path class="cls-3" d="m76.61,109.47c.34-4.78,1.44-12.32,5.22-20.44,5.85-12.56,14.67-19.08,18.72-21.69-1.28-.49-9.25-3.43-15.83,1.47-4.83,3.59-6.78,9.42-7.51,13.76-.65,3.88-1.13,8.16-1.27,12.77-.16,5.21.14,9.94.67,14.13Z"/>
  </g>
  <path d="m86.33,116.36c1.22.71,4.24,2.22,8.25,1.87,4.01-.34,6.78-2.34,7.89-3.25.91-.87,3.35-3.41,4.36-7.75,1.12-4.8-.24-8.69-.69-9.87-.26,1.81-1.37,8.25-6.55,13.37-5.46,5.4-11.7,5.62-13.26,5.62Z"/>
  <path class="cls-5" d="m59.88,70.76c-1.93.73-4.98,2.19-8.02,5.12-2.65,2.55-4.28,5.25-5.24,7.12-.03-1.1-.02-4.95,2.45-8.25,2.54-3.38,6.68-4.88,10.81-4Z"/>
  <path class="cls-5" d="m75.49,83.8c-1.93.73-4.98,2.19-8.02,5.12-2.65,2.55-4.28,5.25-5.24,7.12-.03-1.1-.02-4.95,2.45-8.25,2.54-3.38,6.68-4.88,10.81-4Z"/>
  <path class="cls-5" d="m55.08,104.27c-1.45.63-3.74,1.87-6.02,4.38-1.99,2.18-3.21,4.48-3.93,6.08-.02-.94-.02-4.23,1.84-7.04,1.9-2.89,5.01-4.17,8.11-3.42Z"/>
  <path class="cls-5" d="m58.65,131.63c-.93.59-2.37,1.7-3.69,3.66-1.15,1.71-1.78,3.42-2.12,4.6-.1-.64-.39-2.89.62-5.02,1.03-2.19,3.03-3.41,5.19-3.24Z"/>
  <path class="cls-5" d="m68.36,113.47c-.93.59-2.37,1.7-3.69,3.66-1.15,1.71-1.78,3.42-2.12,4.6-.1-.64-.39-2.89.62-5.02,1.03-2.19,3.03-3.41,5.19-3.24Z"/>
  <path class="cls-5" d="m73.44,137.16c-.93.59-2.37,1.7-3.69,3.66-1.15,1.71-1.78,3.42-2.12,4.6-.1-.64-.39-2.89.62-5.02,1.03-2.19,3.03-3.41,5.19-3.24Z"/>
  <path class="cls-5" d="m86.98,119.66c-.84,1.29-2.05,3.54-2.68,6.8-.55,2.83-.46,5.35-.3,7.02-.44-.74-1.92-3.38-1.75-6.65.17-3.35,2-6.08,4.73-7.17Z"/>
  <path class="cls-5" d="m86.07,142.92c-.4,1.54-.86,4.11-.47,7.41.33,2.87,1.18,5.21,1.84,6.72-.64-.53-2.82-2.45-3.65-5.59-.85-3.22.05-6.48,2.29-8.54Z"/>
  <path class="cls-5" d="m117.28,94.85c-.93.59-2.37,1.7-3.69,3.66-1.15,1.71-1.78,3.42-2.12,4.6-.1-.64-.39-2.89.62-5.02,1.03-2.19,3.03-3.41,5.19-3.24Z"/>
  <path class="cls-5" d="m116.31,117.61c-.93.59-2.37,1.7-3.69,3.66-1.15,1.71-1.78,3.42-2.12,4.6-.1-.64-.39-2.89.62-5.02,1.03-2.19,3.03-3.41,5.19-3.24Z"/>
  <path class="cls-5" d="m118.92,141.53c-1.02.71-2.61,2.04-4.05,4.44-1.26,2.09-1.93,4.18-2.29,5.63-.12-.79-.48-3.57.61-6.18,1.11-2.67,3.32-4.14,5.73-3.89Z"/>
  <path class="cls-5" d="m97.67,102.25c-1.02.71-2.61,2.04-4.05,4.44-1.26,2.09-1.93,4.18-2.29,5.63-.12-.79-.48-3.57.61-6.18,1.11-2.67,3.32-4.14,5.73-3.89Z"/>
  <path class="cls-5" d="m139.68,107.28c-.93.59-2.37,1.7-3.69,3.66-1.15,1.71-1.78,3.42-2.12,4.6-.1-.64-.39-2.89.62-5.02,1.03-2.19,3.03-3.41,5.19-3.24Z"/>
  <path class="cls-5" d="m141.64,70.04c-1.36.95-3.46,2.73-5.38,5.95-1.66,2.79-2.55,5.61-3.03,7.54-.16-1.06-.64-4.79.8-8.28,1.48-3.58,4.4-5.55,7.61-5.2Z"/>
</svg>