<?xml version="1.0" encoding="UTF-8"?>
<svg id="_Слой_1" data-name="Слой 1" xmlns="http://www.w3.org/2000/svg" viewBox="0 0 200 200">
  <defs>
    <style>
      .cls-1 {
        fill: #798f20;
      }

      .cls-1, .cls-2, .cls-3, .cls-4, .cls-5 {
        stroke: #006837;
        stroke-miterlimit: 10;
      }

      .cls-2, .cls-6 {
        fill: #9aad49;
      }

      .cls-7 {
        fill: #f3ffc0;
      }

      .cls-3 {
        fill: #adc263;
      }

      .cls-4 {
        fill: #72813c;
      }

      .cls-5 {
        fill: #d0db7d;
      }
    </style>
  </defs>
  <path class="cls-5" d="m159.07,138.85c-.05.09-.12.19-.18.28-12.12,18.51-33.96,30.87-58.89,30.87-38.11,0-69-28.88-69-64.5,0-13.14,4.2-25.36,11.42-35.55.02-.04.05-.08.08-.11l.42.25c10.95,3.02,21.2-.82,31.58-.59,12.83.29,22.55,7.86,42,23,11.33,8.83,27.58,23.58,42.57,46.35Z"/>
  <g>
    <path class="cls-7" d="m91.13,64.86c-9.03,18.27-13.78,38.56-13.8,58.94,0,5.76.38,11.52,1.14,17.23.11.81.61,1.49,1.5,1.5.73,0,1.61-.7,1.5-1.5-2.63-19.82-.63-40.13,5.78-59.07,1.81-5.34,3.97-10.54,6.47-15.6.85-1.73-1.73-3.25-2.59-1.51h0Z"/>
    <path class="cls-7" d="m80.98,118.17c5.6-11,14.19-20.28,24.75-26.67,1.65-1,.14-3.59-1.51-2.59-10.98,6.64-20.01,16.31-25.83,27.75-.87,1.72,1.71,3.24,2.59,1.51h0Z"/>
    <path class="cls-7" d="m79.92,128.53c-6.18-6.17-14.32-9.48-21.63-14.01-6.84-4.24-13.72-10.56-13.88-19.21-.04-1.93-3.04-1.93-3,0,.17,8.93,6.47,15.89,13.51,20.6,7.54,5.05,16.37,8.23,22.88,14.74,1.37,1.37,3.49-.75,2.12-2.12h0Z"/>
    <path class="cls-7" d="m77.8,113.21c-7.28-3.52-14.56-7.33-21.27-11.85-5.76-3.88-11.89-10.06-10.62-17.68.31-1.89-2.58-2.7-2.89-.8-1.38,8.27,3.93,15.19,10.24,19.83,3.43,2.53,7.18,4.65,10.88,6.74,3.98,2.25,8.03,4.36,12.15,6.34,1.73.84,3.25-1.75,1.51-2.59h0Z"/>
    <path class="cls-7" d="m62.83,104.53c-1.07-1.6-.85-3.51-.57-5.32.34-2.22.66-4.43.81-6.66.31-4.53.07-9.06-.6-13.55-.28-1.9-3.17-1.09-2.89.8.7,4.69.81,9.47.37,14.19-.36,3.85-2.08,8.55.28,12.07,1.07,1.6,3.67.1,2.59-1.51h0Z"/>
    <path class="cls-7" d="m80.7,137.12c6.98,1.21,13.29-2.95,17.42-8.26,4.34-5.58,6.85-12.46,11.81-17.58,2.6-2.68,5.73-4.69,9.48-5.2.81-.11,1.23-1.14,1.05-1.85-.23-.87-1.05-1.16-1.85-1.05-8.66,1.17-13.83,9.1-17.85,16.02-2.21,3.79-4.4,7.72-7.65,10.73-3.08,2.85-7.3,5.03-11.6,4.28-1.89-.33-2.7,2.56-.8,2.89h0Z"/>
    <path class="cls-7" d="m89.26,164.14c13.13-6.08,27.33-12.96,34.22-26.47,1.75-3.44,2.86-7.1,3.27-10.94.2-1.92-2.8-1.9-3,0-.87,8.28-5.88,15.53-12.01,20.9-7,6.12-15.62,10.05-23.99,13.92-1.75.81-.23,3.4,1.51,2.59h0Z"/>
    <path class="cls-7" d="m79.26,149.11c8.35,1.39,17.13-.33,24.15-5.14,6.46-4.42,11.18-11.08,13.26-18.62.51-1.86-2.38-2.66-2.89-.8-1.86,6.76-6.07,12.85-11.88,16.83-6.32,4.33-14.27,6.1-21.83,4.84-1.89-.31-2.7,2.58-.8,2.89h0Z"/>
  </g>
  <path class="cls-3" d="m169,105.5c0,12.2-3.62,23.62-9.93,33.35-14.99-22.77-31.24-37.52-42.57-46.35-19.45-15.14-29.17-22.71-42-23-10.38-.23-20.63,3.61-31.58.59l-.42-.25c12.36-17.38,33.5-28.84,57.5-28.84,38.11,0,69,28.88,69,64.5Z"/>
  <path class="cls-4" d="m156.5,57.5c6.46,4.42,16,12.53,19,25,1.33,5.54.2,7.03-1,23-2.01,26.73.47,31.93-5,38-3.45,3.83-4.92,2.3-16,11-6.02,4.73-6.91,6.22-11,9-4.13,2.8-10.4,6.92-19,8-5.61.71-18.17.85-20-4-2.38-6.33,16.91-12.18,33-34,16.79-22.77,19.33-48.33,20-56,.72-8.17.43-15.07,0-20Z"/>
  <path class="cls-3" d="m35.5,136.5c3.28-2.27,7.41-5.95,8-11,.47-4.04-1.57-6.78-4-12-.22-.47-5.39-11.73-6-20-.76-10.3,5.36-18.46,11-26,9.63-12.86,21.51-18.8,24-20,14.35-6.93,24.27-4.95,25-9,.76-4.22-8.99-11.95-19-12-6.43-.03-8.95,3.12-31,19-12.73,9.17-13.6,9.35-15,12-4.07,7.7.05,12.22-2,33-.53,5.39-.88,8.98-2,14-2.26,10.16-4.62,12.59-4,17,.56,4,3.56,9.44,15,15Z"/>
  <path class="cls-2" d="m162.5,75.5c-1.94,1.17-5.39-2.09-13-8-9.59-7.44-18.19-14.13-26-18-2.76-1.37-19.08-9.17-37-5-14.38,3.34-22.17,12.61-25,10-2.29-2.11,1.14-9.68,4-14,.87-1.32,9.85-14.44,24-15,11.38-.45,19.76,7.47,27,3,1.07-.66,2.63-1.91,5-2,4.56-.17,8.21,4.08,9,5,2.34,2.72,1.91,3.94,4,7,2.03,2.96,4.26,4.5,8,7,14.94,10.01,15.05,9.89,16,11,5.74,6.71,6.81,17.3,4,19Z"/>
  <path class="cls-3" d="m97.5,169.5c-1.5-2.42,13.1-10.17,26-25,23.86-27.44,34.08-70.16,28-93-.65-2.43-3.13-10.86-1-12,1.87-1,6.41,4.1,9,7,6.74,7.56,11.09,12.44,12,19,.58,4.15-.56,6.56-11,26-11.18,20.81-11.28,20.66-12,23-3.5,11.44-1.86,17.87-8,24-3.49,3.49-4.54,1.93-10,6-9.67,7.22-8.58,13.77-17,20-1.42,1.05-4.14,3.14-8.21,4.35-.92.27-6.92,2.06-7.79.65Z"/>
  <g>
    <path class="cls-1" d="m99.5,169.5c-3.46,2.33-8.28,4.4-14.7,4.02-.04,0-.13,0-.3-.02-6.74-.45-11.4-2.75-18-6-3.62-1.78-1.96-1.3-19-12-1.78-1.12-2.64-1.65-3.36-2.32,0,0-.33-.32-.64-.68-.97-1.1-8.9-11.45-5-18,1.53-2.56,4.47-3.87,7-5,1.86-.83,3.51-1.25,4.65-1.48.44,2.59,1.18,5.47,2.35,8.48,2.1,5.39,5.43,13.95,14,18,7.14,3.38,14.15,1.84,18,1,3.5-.77,6.56-2,9.2-3.42-.35.94-2.41,6.83.8,12.42,1.56,2.72,3.73,4.25,5,5Z"/>
    <path class="cls-3" d="m93.7,152.08c-2.64,1.42-5.7,2.65-9.2,3.42-3.85.84-10.86,2.38-18-1-8.57-4.05-11.9-12.61-14-18-1.17-3.01-1.91-5.89-2.35-8.48,3.88-.35,7.51,1.14,8.35,1.48,5.71,2.34,5.45,5.67,11,10,9.79,7.65,17.43,2.63,23,10,.19.24.57,1.09,1.2,2.58Z"/>
  </g>
  <path class="cls-7" d="m97.01,127.93c-1.8-7.16-1.51-14.66.79-21.67.45-1.38-1.72-1.97-2.17-.6-2.42,7.38-2.68,15.33-.79,22.87.35,1.4,2.52.81,2.17-.6h0Z"/>
  <path class="cls-7" d="m73,123.27c-12.62,2.68-25.48-3.71-31.12-15.25-.64-1.3-2.58-.16-1.94,1.14,6.1,12.48,20.11,19.16,33.66,16.29,1.42-.3.82-2.47-.6-2.17h0Z"/>
  <path class="cls-6" d="m141.5,108.5c.56-4.6.81-11.93-2-20-5.61-16.13-19.44-23.8-27-28-15.78-8.76-31.06-9.32-39-9,9.84-4.48,18.22-5.06,23-5,15.79.19,26.96,7.64,35,13,8.44,5.63,13.18,8.79,16,15,6.73,14.8-4.37,31.6-6,34Z"/>
</svg>