<?xml version="1.0" encoding="UTF-8"?>
<svg id="_Слой_1" data-name="Слой 1" xmlns="http://www.w3.org/2000/svg" viewBox="0 0 200 200">
  <defs>
    <style>
      .cls-1 {
        fill: #5c2d57;
        stroke: #000;
      }

      .cls-1, .cls-2 {
        stroke-miterlimit: 10;
      }

      .cls-3 {
        fill: #fff;
        opacity: .64;
      }

      .cls-4 {
        opacity: .55;
      }

      .cls-2 {
        fill: #86a15a;
        stroke: #006837;
      }
    </style>
  </defs>
  <path class="cls-1" d="m56.47,42.37c-4.19-.25-17.44-1.03-24.18,7.24-11.01,13.52,3.27,41.59,11.86,58.7,10.89,21.69,19.82,39.48,40.96,52.52,2.05,1.26,50.75,30.46,79.77,7.21,12.61-10.11,21.24-29.91,15.09-45.31-7.98-19.98-29-13.89-66.83-42.22-26.3-19.7-34.1-36.8-56.66-38.14Z"/>
  <path class="cls-3" d="m61.95,60.25c1.43-2.12,6.56-1.25,9.87,0,8.99,3.41,11.18,12.15,16.44,20.11,14.24,21.54,46.72,30.86,58.1,32.4,1.47.2,7.11.88,13.16,4.47,3.99,2.37,10.77,7.57,9.87,10.06-1.79,4.95-35.41,3.09-62.49-14.52-10.21-6.64-17.41-14.84-31.79-31.28-13.55-15.5-14.27-19.57-13.16-21.23Z"/>
  <path class="cls-4" d="m35.09,71.98c-1.29.7,4.4,15.33,12.06,30.17,9.56,18.52,18.27,35.4,32.89,48.04,27.14,23.47,64.4,23.51,64.68,22.34.18-.73-14.11-2.31-30.7-10.06-55.21-25.77-76.24-91.95-78.93-90.5Z"/>
  <path class="cls-2" d="m37.29,27.29c-2.63-2.3-3.69-2.41-4.39-2.23-2.7.67-3.26,6.38-3.29,6.7-.44,4.98,2.12,6.25,2.19,10.06.12,6.37-6.97,8.17-8.77,14.52-1.04,3.67-.45,9.28,6.58,17.88,1.46-5.21,2.92-10.43,4.39-15.64.22.72,1.47,4.63,5.48,6.7,4.76,2.47,9.35.26,9.87,0-.29-.12-4.58-1.95-5.48-6.7-.82-4.35,1.89-7.48,2.19-7.82,4.46,1.49,12.29,3.41,21.93,2.23,6.53-.8,11.75-2.76,15.35-4.47-12.31-12.67-20.72-14.46-26.31-13.41-4.12.78-8.42,3.43-12.06,1.12-2.67-1.69-2.74-4.62-7.67-8.94Z"/>
  <path class="cls-3" d="m76.21,47.96c.37-.66-3.56-3.69-6.58-5.59-3.22-2.02-6.46-4.06-10.96-4.47-4.89-.44-9.9,1.17-9.87,2.23.03,1.09,5.35.8,14.25,3.35,8.12,2.33,12.77,5.17,13.16,4.47Z"/>
  <path class="cls-4" d="m29.61,49.63c-.49-.24-3.6,3.2-4.39,7.82-1.22,7.23,3.92,13.61,4.39,13.41.38-.16-2.43-4.49-2.19-11.17.21-5.94,2.69-9.81,2.19-10.06Z"/>
  <path class="cls-4" d="m31.81,30.64c-.49.11-.08,3.74,0,4.47.52,4.61.78,6.91,2.19,7.82,2.75,1.78,7.85-1.26,7.67-2.23-.11-.6-2.14.07-4.39-1.12-4.34-2.3-4.81-9.09-5.48-8.94Z"/>
</svg>