<?xml version="1.0" encoding="UTF-8"?>
<svg id="_Слой_1" data-name="Слой 1" xmlns="http://www.w3.org/2000/svg" viewBox="0 0 200 200">
  <defs>
    <style>
      .cls-1 {
        fill: #39b54a;
        stroke: #006837;
      }

      .cls-1, .cls-2, .cls-3, .cls-4, .cls-5, .cls-6 {
        stroke-miterlimit: 10;
        stroke-width: .25px;
      }

      .cls-2 {
        fill: #f7e494;
      }

      .cls-2, .cls-3, .cls-4, .cls-5, .cls-6 {
        stroke: #a67c52;
      }

      .cls-3 {
        fill: #fff9de;
      }

      .cls-4 {
        fill: #f9efc7;
      }

      .cls-5 {
        fill: #fceeb4;
      }

      .cls-6 {
        fill: #f4dd7d;
      }
    </style>
  </defs>
  <path class="cls-6" d="m98.32,95.19c.82-3.03,1.25-5.63,1.49-7.49-2.27,4.11-6.3,10.1-13.23,14.95-12.59,8.8-21.35,4.47-29.43,12.51-10.1,10.04-7.08,27.4-3.14,32.06,1.22,1.44,2.09,1.7,2.71,1.66,2.56-.18,3.85-5.83,4.68-8.36,3.67-11.18,16.51-8.97,27.29-25.63,5.72-8.83,8.87-16.95,9.62-19.7Z"/>
  <path class="cls-2" d="m102.06,78.34c-.65,5.37-2.5,12.68-7.65,19.63-2.75,3.71-5.58,6.16-7.98,8.22-8.13,6.95-11.46,6.57-18.25,11.55-2.08,1.53-16.97,12.75-15.97,26.15.31,4.21,2.09,7.33,2.71,8.31.51.81,5.82,8.98,11.34,8.38,3.94-.43,5.29-4.6,14.21-20.75,10.41-18.85,17.03-16.72,21.33-29.81,1.74-5.28,2.94-15.63,1.21-26.85-.31-2.02-.67-3.68-.94-4.83Z"/>
  <path class="cls-5" d="m102.73,79.19c-.24.05,4.01,14.03-1.01,24.67-.7,1.48-1.41,2.53-2.2,3.39-4.79,5.18-9.88,7.83-11.46,8.55-11.65,5.29-32.48,28.7-26.82,43.05.78,1.97,1.54,3.35,3.74,5.3,11.31,10.02,28.29,12.63,28.75,11.35.38-1.06-10.84-3.9-10.97-9.36-.03-1.26.68-2.42,2.14-4.72,2.81-4.42,6.56-5.69,10.77-15.1,4.55-10.19,7.82-17.51,9.51-28.5.55-3.55.55-6.1.7-10.68,0,0,.41-12.34-2.53-26.19,0,0-.38-1.81-.62-1.75Z"/>
  <path class="cls-4" d="m103.46,85.33c.71,9.23.51,22.23-5.53,31.87-.97,1.54-1.87,2.66-2.76,3.57-4.4,4.5-7.93,7.53-8.93,8.29-8.55,6.51-16.62,27.49-8.33,38.35,1.24,1.62,2.52,2.61,3.65,3.47,8.28,6.33,18.42,5.78,22.17,5.4-.48-.11-1.46-.39-2.45-1.05-7.33-4.94-2.49-23.19,2.13-40.62.84-3.15,2.61-10.27,3.45-20.06.12-1.46.19-2.95.19-4.71.04-10.46-1.92-18.96-3.59-24.5Z"/>
  <path class="cls-6" d="m152.1,138.99c.67.4,1.53.96,2.29.68,2.47-.88,2.02-10.23-.89-17.45-6.7-16.61-27.22-23.85-29.57-24.64-.83-.28-2.08-.67-3.91-1.42-6.96-2.84-12-6.63-15.34-9.61,3.41,6.71,22.85,44.58,32.24,47.71,2.39.8,8.94,1.01,15.18,4.73Z"/>
  <path class="cls-5" d="m140.43,151.73c1.12.3,8.76,2.25,12.47-1.33,1.48-1.43,1.79-3.97,2.4-9.06.54-4.5.81-6.75,0-9.14-.48-1.41-.94-1.95-4.69-7.23-3.19-4.49-3.71-5.3-4.23-6.01-4.94-6.63-15.88-10.8-19.66-12.48-6.66-2.96-15.36-9.04-23.29-22.91,7.87,15.82,16.38,31.98,25.57,48.34,3.81,6.77,7.61,13.38,11.42,19.82Z"/>
  <path class="cls-5" d="m125.47,164.59c2.36,3.19,7.49,2.41,9.23,2.3,8.28-.48,15.9-7.27,18.79-17.25-1.71-14.79-7.36-22.74-12.3-27.29-7.42-6.82-11.88-4.71-20.34-13.03-9.03-8.88-14.56-21.64-15.37-21.44,0,0,0,0-.01,0-.42.45,5.37,10.07,12.15,25.95,4.54,10.64,6.81,15.96,7.49,20.84,2.07,15.07-3.74,24.35.37,29.9Z"/>
  <path class="cls-4" d="m111.03,166.87c-.34,3.22-.7,5.89-.97,7.73,3.16.39,8.84.69,15.3-1.42,1.74-.57,7.64-2.53,11.83-6.91,8.29-8.66,7.3-24.17,1.55-34.68-4.99-9.13-9.91-7.78-19.85-20.44-8.61-10.96-12.11-21.16-12.74-20.65-.6.47,4.23,8.82,6.18,21.77,1.75,11.61.53,22.53-.29,29.92-.88,7.91.03,14.71-1.01,24.67Z"/>
  <path class="cls-3" d="m101.28,176.02c-1.77-.5-7.82-2.21-11.26-6.63-5.63-7.25-1.47-18.22,1.65-26.45,5.07-13.39,8.55-11.1,11.79-21.74,3.89-12.76,1.8-25.6.7-32.38-.65-4.02-1.46-7.32-2.09-9.6,4.41,11.22,8.19,20.75,11.13,28.12,6.71,16.85,7.46,18.54,8.52,20.79,6.73,14.27,8.87,14.53,9.73,20.79,1.28,9.27-1.69,21.21-9.73,25.41-3.04,1.59-6.85,2.09-8.52,2.31-2.28.3-6.72.84-11.91-.63Z"/>
  <path class="cls-1" d="m102.25,92.33c3.94-9.87,1.11-19.8,0-23.1-7.65-22.82-44.13-60.76-46.23-58.91-1.46,1.28,20.23,15.77,31.63,47.36,6.52,18.07,8.44,38.31,12.17,38.12.31-.02,1.13-.2,2.43-3.47Z"/>
  <path class="cls-1" d="m102.25,84.24c-6.64-19.29-7.91-30.53-13.38-54.29-3.64-15.79-5.59-21.72-4.87-21.95,1.24-.38,9.07,16.56,14.6,34.65,8.1,26.48,10.47,52.76,8.52,53.14-.83.16-2.4-4.38-4.87-11.55Z"/>
  <path class="cls-1" d="m107.12,98.1c1.59.83,12.56-10.18,17.03-25.41,5.35-18.21-.52-35.9-2.43-35.81-1.59.07.16,12.36-4.87,32.34-4.61,18.35-11.14,28.14-9.73,28.88Z"/>
  <path class="cls-1" d="m111.98,10.31c-1.93-.11-4.81,18.69-6.08,31.19-3.23,31.79-.02,62.36,2.43,62.38,2.49.02,4.46-31.55,4.87-38.12,1.57-25.15,1.21-55.31-1.22-55.45Z"/>
</svg>