<?xml version="1.0" encoding="UTF-8"?>
<svg id="_Слой_1" data-name="Слой 1" xmlns="http://www.w3.org/2000/svg" xmlns:xlink="http://www.w3.org/1999/xlink" viewBox="0 0 1920 57">
  <defs>
    <style>
      .cls-1 {
        fill: url(#_Безымянный_градиент_23-5);
      }

      .cls-2 {
        fill: url(#_Безымянный_градиент_25-5);
      }

      .cls-3 {
        fill: url(#_Безымянный_градиент_19-6);
      }

      .cls-4 {
        fill: url(#_Безымянный_градиент_25-10);
      }

      .cls-5 {
        fill: url(#_Безымянный_градиент_21-2);
      }

      .cls-6 {
        fill: url(#_Безымянный_градиент_21-8);
      }

      .cls-7 {
        fill: url(#_Безымянный_градиент_19-3);
      }

      .cls-8 {
        fill: url(#_Безымянный_градиент_19-7);
      }

      .cls-9 {
        fill: #00d417;
      }

      .cls-10 {
        fill: url(#_Безымянный_градиент_19-4);
      }

      .cls-11 {
        fill: url(#_Безымянный_градиент_21-6);
      }

      .cls-12 {
        fill: #ff330a;
      }

      .cls-13 {
        fill: url(#_Безымянный_градиент_19);
      }

      .cls-14 {
        fill: url(#_Безымянный_градиент_25-6);
      }

      .cls-15 {
        fill: url(#_Безымянный_градиент_19-2);
      }

      .cls-16 {
        fill: url(#_Безымянный_градиент_25-2);
      }

      .cls-17 {
        fill: url(#_Безымянный_градиент_25-3);
      }

      .cls-18 {
        fill: url(#_Безымянный_градиент_25-8);
      }

      .cls-19 {
        fill: url(#_Безымянный_градиент_23-3);
      }

      .cls-20 {
        fill: url(#_Безымянный_градиент_21-4);
      }

      .cls-21 {
        fill: url(#_Безымянный_градиент_23-2);
      }

      .cls-22 {
        fill: #0a0aff;
      }

      .cls-23 {
        fill: url(#_Безымянный_градиент_23-8);
      }

      .cls-24 {
        fill: url(#_Безымянный_градиент_23-6);
      }

      .cls-25 {
        fill: url(#_Безымянный_градиент_23-9);
      }

      .cls-26 {
        fill: url(#_Безымянный_градиент_23);
      }

      .cls-27 {
        fill: url(#_Безымянный_градиент_25);
      }

      .cls-28 {
        fill: url(#_Безымянный_градиент_25-9);
      }

      .cls-29 {
        fill: url(#_Безымянный_градиент_21-9);
      }

      .cls-30 {
        fill: url(#_Безымянный_градиент_19-9);
      }

      .cls-31 {
        fill: url(#_Безымянный_градиент_25-7);
      }

      .cls-32 {
        fill: url(#_Безымянный_градиент_21-10);
      }

      .cls-33 {
        fill: url(#_Безымянный_градиент_25-4);
      }

      .cls-34 {
        fill: url(#_Безымянный_градиент_21-5);
      }

      .cls-35 {
        fill: url(#_Безымянный_градиент_23-7);
      }

      .cls-36 {
        fill: none;
        stroke: #000e2a;
        stroke-miterlimit: 10;
      }

      .cls-37 {
        fill: url(#_Безымянный_градиент_21);
      }

      .cls-38 {
        fill: url(#_Безымянный_градиент_23-4);
      }

      .cls-39 {
        fill: url(#_Безымянный_градиент_23-10);
      }

      .cls-40 {
        fill: #fff400;
      }

      .cls-41 {
        fill: url(#_Безымянный_градиент_21-3);
      }

      .cls-42 {
        fill: url(#_Безымянный_градиент_21-7);
      }

      .cls-43 {
        fill: url(#_Безымянный_градиент_19-8);
      }

      .cls-44 {
        fill: url(#_Безымянный_градиент_19-10);
      }

      .cls-45 {
        fill: url(#_Безымянный_градиент_19-5);
      }
    </style>
    <radialGradient id="_Безымянный_градиент_19" data-name="Безымянный градиент 19" cx="27.19" cy="21.38" fx="27.19" fy="21.38" r="7.18" gradientTransform="translate(-25.58 -17.15) scale(1.87 1.57)" gradientUnits="userSpaceOnUse">
      <stop offset="0" stop-color="#ff330a"/>
      <stop offset=".12" stop-color="#ff2e09" stop-opacity=".91"/>
      <stop offset=".37" stop-color="#ff2206" stop-opacity=".67"/>
      <stop offset=".74" stop-color="#ff0e02" stop-opacity=".29"/>
      <stop offset="1" stop-color="red" stop-opacity="0"/>
    </radialGradient>
    <radialGradient id="_Безымянный_градиент_21" data-name="Безымянный градиент 21" cx="56.29" cy="29.08" fx="56.29" fy="29.08" r="10.05" gradientTransform="translate(-6.27 -5.57) scale(1.27 1.08)" gradientUnits="userSpaceOnUse">
      <stop offset="0" stop-color="#00d417"/>
      <stop offset=".1" stop-color="#00d417" stop-opacity=".97"/>
      <stop offset=".24" stop-color="#00d417" stop-opacity=".89"/>
      <stop offset=".41" stop-color="#00d417" stop-opacity=".75"/>
      <stop offset=".59" stop-color="#00d417" stop-opacity=".55"/>
      <stop offset=".79" stop-color="#00d417" stop-opacity=".31"/>
      <stop offset=".99" stop-color="#00d417" stop-opacity="0"/>
      <stop offset="1" stop-color="#00d417" stop-opacity="0"/>
    </radialGradient>
    <radialGradient id="_Безымянный_градиент_23" data-name="Безымянный градиент 23" cx="97.31" cy="30.92" fx="97.31" fy="30.92" r="10.33" gradientTransform="translate(-6.27 -5.57) scale(1.27 1.08)" gradientUnits="userSpaceOnUse">
      <stop offset="0" stop-color="#0a0aff"/>
      <stop offset=".08" stop-color="#0909ff" stop-opacity=".96"/>
      <stop offset=".23" stop-color="#0909ff" stop-opacity=".85"/>
      <stop offset=".42" stop-color="#0909ff" stop-opacity=".67"/>
      <stop offset=".65" stop-color="#0909ff" stop-opacity=".42"/>
      <stop offset=".9" stop-color="#0909ff" stop-opacity=".11"/>
      <stop offset=".99" stop-color="#0909ff" stop-opacity="0"/>
    </radialGradient>
    <radialGradient id="_Безымянный_градиент_25" data-name="Безымянный градиент 25" cx="138.68" cy="18.59" fx="138.68" fy="18.59" r="10.24" gradientTransform="translate(-6.27 -5.57) scale(1.27 1.08)" gradientUnits="userSpaceOnUse">
      <stop offset="0" stop-color="#fff400"/>
      <stop offset=".09" stop-color="#fff400" stop-opacity=".96"/>
      <stop offset=".23" stop-color="#fff400" stop-opacity=".85"/>
      <stop offset=".42" stop-color="#fff400" stop-opacity=".68"/>
      <stop offset=".64" stop-color="#fff400" stop-opacity=".44"/>
      <stop offset=".89" stop-color="#fff400" stop-opacity=".14"/>
      <stop offset="1" stop-color="#fff400" stop-opacity="0"/>
    </radialGradient>
    <radialGradient id="_Безымянный_градиент_19-2" data-name="Безымянный градиент 19" cx="129.93" cy="22.6" fx="129.93" fy="22.6" r="7.18" xlink:href="#_Безымянный_градиент_19"/>
    <radialGradient id="_Безымянный_градиент_21-2" data-name="Безымянный градиент 21" cx="207.83" cy="30.85" fx="207.83" fy="30.85" xlink:href="#_Безымянный_градиент_21"/>
    <radialGradient id="_Безымянный_градиент_23-2" data-name="Безымянный градиент 23" cx="248.86" cy="32.69" fx="248.86" fy="32.69" r="10.33" xlink:href="#_Безымянный_градиент_23"/>
    <radialGradient id="_Безымянный_градиент_25-2" data-name="Безымянный градиент 25" cx="290.22" cy="20.36" fx="290.22" fy="20.36" xlink:href="#_Безымянный_градиент_25"/>
    <radialGradient id="_Безымянный_градиент_19-3" data-name="Безымянный градиент 19" cx="232.64" cy="20.73" fx="232.64" fy="20.73" xlink:href="#_Безымянный_градиент_19"/>
    <radialGradient id="_Безымянный_градиент_21-3" data-name="Безымянный градиент 21" cx="359.33" cy="28.14" fx="359.33" fy="28.14" r="10.05" xlink:href="#_Безымянный_градиент_21"/>
    <radialGradient id="_Безымянный_градиент_23-3" data-name="Безымянный градиент 23" cx="400.35" cy="29.97" fx="400.35" fy="29.97" r="10.33" xlink:href="#_Безымянный_градиент_23"/>
    <radialGradient id="_Безымянный_градиент_25-3" data-name="Безымянный градиент 25" cx="441.72" cy="17.65" fx="441.72" fy="17.65" r="10.24" xlink:href="#_Безымянный_градиент_25"/>
    <radialGradient id="_Безымянный_градиент_19-4" data-name="Безымянный градиент 19" cx="335.35" cy="21.26" fx="335.35" fy="21.26" r="7.18" xlink:href="#_Безымянный_градиент_19"/>
    <radialGradient id="_Безымянный_градиент_21-4" data-name="Безымянный градиент 21" cx="510.82" cy="28.91" fx="510.82" fy="28.91" xlink:href="#_Безымянный_градиент_21"/>
    <radialGradient id="_Безымянный_градиент_23-4" data-name="Безымянный градиент 23" cx="551.85" cy="30.75" fx="551.85" fy="30.75" r="10.33" xlink:href="#_Безымянный_градиент_23"/>
    <radialGradient id="_Безымянный_градиент_25-4" data-name="Безымянный градиент 25" cx="593.22" cy="18.42" fx="593.22" fy="18.42" xlink:href="#_Безымянный_градиент_25"/>
    <radialGradient id="_Безымянный_градиент_19-5" data-name="Безымянный градиент 19" cx="438.06" cy="20.73" fx="438.06" fy="20.73" xlink:href="#_Безымянный_градиент_19"/>
    <radialGradient id="_Безымянный_градиент_21-5" data-name="Безымянный градиент 21" cx="662.32" cy="28.14" fx="662.32" fy="28.14" r="10.05" xlink:href="#_Безымянный_градиент_21"/>
    <radialGradient id="_Безымянный_градиент_23-5" data-name="Безымянный градиент 23" cx="703.35" cy="29.97" fx="703.35" fy="29.97" r="10.33" xlink:href="#_Безымянный_градиент_23"/>
    <radialGradient id="_Безымянный_градиент_25-5" data-name="Безымянный градиент 25" cx="744.71" cy="17.65" fx="744.71" fy="17.65" xlink:href="#_Безымянный_градиент_25"/>
    <radialGradient id="_Безымянный_градиент_19-6" data-name="Безымянный градиент 19" cx="541" cy="22.18" fx="541" fy="22.18" r="7.18" xlink:href="#_Безымянный_градиент_19"/>
    <radialGradient id="_Безымянный_градиент_21-6" data-name="Безымянный градиент 21" cx="814.14" cy="30.25" fx="814.14" fy="30.25" xlink:href="#_Безымянный_градиент_21"/>
    <radialGradient id="_Безымянный_градиент_23-6" data-name="Безымянный градиент 23" cx="855.17" cy="32.08" fx="855.17" fy="32.08" xlink:href="#_Безымянный_градиент_23"/>
    <radialGradient id="_Безымянный_градиент_25-6" data-name="Безымянный градиент 25" cx="896.54" cy="19.76" fx="896.54" fy="19.76" xlink:href="#_Безымянный_градиент_25"/>
    <radialGradient id="_Безымянный_градиент_19-7" data-name="Безымянный градиент 19" cx="643.74" cy="23.4" fx="643.74" fy="23.4" r="7.18" xlink:href="#_Безымянный_градиент_19"/>
    <radialGradient id="_Безымянный_градиент_21-7" data-name="Безымянный градиент 21" cx="965.69" cy="32.02" fx="965.69" fy="32.02" xlink:href="#_Безымянный_градиент_21"/>
    <radialGradient id="_Безымянный_градиент_23-7" data-name="Безымянный градиент 23" cx="1006.72" cy="33.85" fx="1006.72" fy="33.85" xlink:href="#_Безымянный_градиент_23"/>
    <radialGradient id="_Безымянный_градиент_25-7" data-name="Безымянный градиент 25" cx="1048.08" cy="21.53" fx="1048.08" fy="21.53" r="10.24" xlink:href="#_Безымянный_градиент_25"/>
    <radialGradient id="_Безымянный_градиент_19-8" data-name="Безымянный градиент 19" cx="746.45" cy="21.53" fx="746.45" fy="21.53" r="7.18" xlink:href="#_Безымянный_градиент_19"/>
    <radialGradient id="_Безымянный_градиент_21-8" data-name="Безымянный градиент 21" cx="1117.18" cy="29.3" fx="1117.18" fy="29.3" r="10.05" xlink:href="#_Безымянный_градиент_21"/>
    <radialGradient id="_Безымянный_градиент_23-8" data-name="Безымянный градиент 23" cx="1158.21" cy="31.14" fx="1158.21" fy="31.14" xlink:href="#_Безымянный_градиент_23"/>
    <radialGradient id="_Безымянный_градиент_25-8" data-name="Безымянный градиент 25" cx="1199.58" cy="18.81" fx="1199.58" fy="18.81" r="10.24" xlink:href="#_Безымянный_градиент_25"/>
    <radialGradient id="_Безымянный_градиент_19-9" data-name="Безымянный градиент 19" cx="849.16" cy="22.06" fx="849.16" fy="22.06" r="7.18" xlink:href="#_Безымянный_градиент_19"/>
    <radialGradient id="_Безымянный_градиент_21-9" data-name="Безымянный градиент 21" cx="1268.68" cy="30.08" fx="1268.68" fy="30.08" xlink:href="#_Безымянный_градиент_21"/>
    <radialGradient id="_Безымянный_градиент_23-9" data-name="Безымянный градиент 23" cx="1309.71" cy="31.91" fx="1309.71" fy="31.91" r="10.33" xlink:href="#_Безымянный_градиент_23"/>
    <radialGradient id="_Безымянный_градиент_25-9" data-name="Безымянный градиент 25" cx="1351.08" cy="19.59" fx="1351.08" fy="19.59" xlink:href="#_Безымянный_градиент_25"/>
    <radialGradient id="_Безымянный_градиент_19-10" data-name="Безымянный градиент 19" cx="951.86" cy="21.53" fx="951.86" fy="21.53" xlink:href="#_Безымянный_градиент_19"/>
    <radialGradient id="_Безымянный_градиент_21-10" data-name="Безымянный градиент 21" cx="1420.18" cy="29.3" fx="1420.18" fy="29.3" r="10.05" xlink:href="#_Безымянный_градиент_21"/>
    <radialGradient id="_Безымянный_градиент_23-10" data-name="Безымянный градиент 23" cx="1461.2" cy="31.14" fx="1461.2" fy="31.14" xlink:href="#_Безымянный_градиент_23"/>
    <radialGradient id="_Безымянный_градиент_25-10" data-name="Безымянный градиент 25" cx="1502.57" cy="18.81" fx="1502.57" fy="18.81" r="10.24" xlink:href="#_Безымянный_градиент_25"/>
  </defs>
  <g>
    <g>
      <path class="cls-36" d="m0-.42C5.05,3.68,12.91,9.22,24.11,14.25c44.11,19.83,94.97,11.58,105.07,9.78,31.03-5.55,51.91-17.23,62.77-24.44"/>
      <g>
        <ellipse class="cls-12" cx="25.13" cy="16.36" rx="5" ry="4.61"/>
        <ellipse class="cls-13" cx="25.24" cy="16.41" rx="13.42" ry="11.27"/>
      </g>
      <g>
        <ellipse class="cls-9" cx="65.04" cy="25.69" rx="5" ry="4.61"/>
        <ellipse class="cls-37" cx="65.04" cy="25.86" rx="12.74" ry="10.86"/>
      </g>
      <g>
        <ellipse class="cls-22" cx="116.9" cy="27.79" rx="5" ry="4.61"/>
        <ellipse class="cls-26" cx="117.03" cy="27.84" rx="13.09" ry="11.17"/>
      </g>
      <g>
        <ellipse class="cls-40" cx="169.66" cy="14.58" rx="5" ry="4.61"/>
        <ellipse class="cls-27" cx="169.44" cy="14.52" rx="12.97" ry="11.06"/>
      </g>
    </g>
    <g>
      <path class="cls-36" d="m192.01,1.5c5.05,4.09,12.91,9.63,24.11,14.67,44.11,19.83,94.97,11.58,105.07,9.78,31.03-5.55,51.91-17.23,62.77-24.44"/>
      <g>
        <ellipse class="cls-12" cx="217.14" cy="18.27" rx="5" ry="4.61"/>
        <ellipse class="cls-15" cx="217.25" cy="18.32" rx="13.42" ry="11.27"/>
      </g>
      <g>
        <ellipse class="cls-9" cx="257.05" cy="27.6" rx="5" ry="4.61"/>
        <ellipse class="cls-5" cx="257.05" cy="27.77" rx="12.74" ry="10.86"/>
      </g>
      <g>
        <ellipse class="cls-22" cx="308.9" cy="29.7" rx="5" ry="4.61"/>
        <ellipse class="cls-21" cx="309.03" cy="29.75" rx="13.09" ry="11.17"/>
      </g>
      <g>
        <ellipse class="cls-40" cx="361.67" cy="16.49" rx="5" ry="4.61"/>
        <ellipse class="cls-16" cx="361.44" cy="16.44" rx="12.97" ry="11.06"/>
      </g>
    </g>
    <g>
      <path class="cls-36" d="m383.95-1.44c5.05,4.09,12.91,9.63,24.11,14.67,44.11,19.83,94.97,11.58,105.07,9.78,31.03-5.55,51.91-17.23,62.77-24.44"/>
      <g>
        <ellipse class="cls-12" cx="409.08" cy="15.34" rx="5" ry="4.61"/>
        <ellipse class="cls-7" cx="409.2" cy="15.39" rx="13.42" ry="11.27"/>
      </g>
      <g>
        <ellipse class="cls-9" cx="449" cy="24.67" rx="5" ry="4.61"/>
        <ellipse class="cls-41" cx="449" cy="24.83" rx="12.74" ry="10.86"/>
      </g>
      <g>
        <ellipse class="cls-22" cx="500.85" cy="26.76" rx="5" ry="4.61"/>
        <ellipse class="cls-19" cx="500.98" cy="26.82" rx="13.09" ry="11.17"/>
      </g>
      <g>
        <ellipse class="cls-40" cx="553.61" cy="13.55" rx="5" ry="4.61"/>
        <ellipse class="cls-17" cx="553.39" cy="13.5" rx="12.97" ry="11.06"/>
      </g>
    </g>
    <g>
      <path class="cls-36" d="m575.9-.6c5.05,4.09,12.91,9.63,24.11,14.67,44.11,19.83,94.97,11.58,105.07,9.78,31.03-5.55,51.91-17.23,62.77-24.44"/>
      <g>
        <ellipse class="cls-12" cx="601.03" cy="16.17" rx="5" ry="4.61"/>
        <ellipse class="cls-10" cx="601.14" cy="16.23" rx="13.42" ry="11.27"/>
      </g>
      <g>
        <ellipse class="cls-9" cx="640.94" cy="25.51" rx="5" ry="4.61"/>
        <ellipse class="cls-20" cx="640.94" cy="25.67" rx="12.74" ry="10.86"/>
      </g>
      <g>
        <ellipse class="cls-22" cx="692.79" cy="27.6" rx="5" ry="4.61"/>
        <ellipse class="cls-38" cx="692.92" cy="27.65" rx="13.09" ry="11.17"/>
      </g>
      <g>
        <ellipse class="cls-40" cx="745.56" cy="14.39" rx="5" ry="4.61"/>
        <ellipse class="cls-33" cx="745.34" cy="14.34" rx="12.97" ry="11.06"/>
      </g>
    </g>
    <g>
      <path class="cls-36" d="m767.84-1.44c5.05,4.09,12.91,9.63,24.11,14.67,44.11,19.83,94.97,11.58,105.07,9.78,31.03-5.55,51.91-17.23,62.77-24.44"/>
      <g>
        <ellipse class="cls-12" cx="792.97" cy="15.34" rx="5" ry="4.61"/>
        <ellipse class="cls-45" cx="793.09" cy="15.39" rx="13.42" ry="11.27"/>
      </g>
      <g>
        <ellipse class="cls-9" cx="832.89" cy="24.67" rx="5" ry="4.61"/>
        <ellipse class="cls-34" cx="832.89" cy="24.83" rx="12.74" ry="10.86"/>
      </g>
      <g>
        <ellipse class="cls-22" cx="884.74" cy="26.76" rx="5" ry="4.61"/>
        <ellipse class="cls-1" cx="884.87" cy="26.82" rx="13.09" ry="11.17"/>
      </g>
      <g>
        <ellipse class="cls-40" cx="937.5" cy="13.55" rx="5" ry="4.61"/>
        <ellipse class="cls-2" cx="937.28" cy="13.5" rx="12.97" ry="11.06"/>
      </g>
    </g>
  </g>
  <g>
    <g>
      <path class="cls-36" d="m960.21.84c5.05,4.09,12.91,9.63,24.11,14.67,44.11,19.83,94.97,11.58,105.07,9.78,31.03-5.55,51.91-17.23,62.77-24.44"/>
      <g>
        <ellipse class="cls-12" cx="985.34" cy="17.62" rx="5" ry="4.61"/>
        <ellipse class="cls-3" cx="985.45" cy="17.67" rx="13.42" ry="11.27"/>
      </g>
      <g>
        <ellipse class="cls-9" cx="1025.25" cy="26.95" rx="5" ry="4.61"/>
        <ellipse class="cls-11" cx="1025.25" cy="27.12" rx="12.74" ry="10.86"/>
      </g>
      <g>
        <ellipse class="cls-22" cx="1077.11" cy="29.05" rx="5" ry="4.61"/>
        <ellipse class="cls-24" cx="1077.23" cy="29.1" rx="13.09" ry="11.17"/>
      </g>
      <g>
        <ellipse class="cls-40" cx="1129.87" cy="15.84" rx="5" ry="4.61"/>
        <ellipse class="cls-14" cx="1129.65" cy="15.78" rx="12.97" ry="11.06"/>
      </g>
    </g>
    <g>
      <path class="cls-36" d="m1152.22,2.76c5.05,4.09,12.91,9.63,24.11,14.67,44.11,19.83,94.97,11.58,105.07,9.78,31.03-5.55,51.91-17.23,62.77-24.44"/>
      <g>
        <ellipse class="cls-12" cx="1177.35" cy="19.53" rx="5" ry="4.61"/>
        <ellipse class="cls-8" cx="1177.46" cy="19.58" rx="13.42" ry="11.27"/>
      </g>
      <g>
        <ellipse class="cls-9" cx="1217.26" cy="28.86" rx="5" ry="4.61"/>
        <ellipse class="cls-42" cx="1217.26" cy="29.03" rx="12.74" ry="10.86"/>
      </g>
      <g>
        <ellipse class="cls-22" cx="1269.11" cy="30.96" rx="5" ry="4.61"/>
        <ellipse class="cls-35" cx="1269.24" cy="31.01" rx="13.09" ry="11.17"/>
      </g>
      <g>
        <ellipse class="cls-40" cx="1321.87" cy="17.75" rx="5" ry="4.61"/>
        <ellipse class="cls-31" cx="1321.65" cy="17.7" rx="12.97" ry="11.06"/>
      </g>
    </g>
    <g>
      <path class="cls-36" d="m1344.16-.18c5.05,4.09,12.91,9.63,24.11,14.67,44.11,19.83,94.97,11.58,105.07,9.78,31.03-5.55,51.91-17.23,62.77-24.44"/>
      <g>
        <ellipse class="cls-12" cx="1369.29" cy="16.6" rx="5" ry="4.61"/>
        <ellipse class="cls-43" cx="1369.41" cy="16.65" rx="13.42" ry="11.27"/>
      </g>
      <g>
        <ellipse class="cls-9" cx="1409.21" cy="25.93" rx="5" ry="4.61"/>
        <ellipse class="cls-6" cx="1409.21" cy="26.1" rx="12.74" ry="10.86"/>
      </g>
      <g>
        <ellipse class="cls-22" cx="1461.06" cy="28.02" rx="5" ry="4.61"/>
        <ellipse class="cls-23" cx="1461.19" cy="28.08" rx="13.09" ry="11.17"/>
      </g>
      <g>
        <ellipse class="cls-40" cx="1513.82" cy="14.81" rx="5" ry="4.61"/>
        <ellipse class="cls-18" cx="1513.6" cy="14.76" rx="12.97" ry="11.06"/>
      </g>
    </g>
    <g>
      <path class="cls-36" d="m1536.11.66c5.05,4.09,12.91,9.63,24.11,14.67,44.11,19.83,94.97,11.58,105.07,9.78,31.03-5.55,51.91-17.23,62.77-24.44"/>
      <g>
        <ellipse class="cls-12" cx="1561.24" cy="17.44" rx="5" ry="4.61"/>
        <ellipse class="cls-30" cx="1561.35" cy="17.49" rx="13.42" ry="11.27"/>
      </g>
      <g>
        <ellipse class="cls-9" cx="1601.15" cy="26.77" rx="5" ry="4.61"/>
        <ellipse class="cls-29" cx="1601.15" cy="26.93" rx="12.74" ry="10.86"/>
      </g>
      <g>
        <ellipse class="cls-22" cx="1653" cy="28.86" rx="5" ry="4.61"/>
        <ellipse class="cls-25" cx="1653.13" cy="28.92" rx="13.09" ry="11.17"/>
      </g>
      <g>
        <ellipse class="cls-40" cx="1705.77" cy="15.65" rx="5" ry="4.61"/>
        <ellipse class="cls-28" cx="1705.55" cy="15.6" rx="12.97" ry="11.06"/>
      </g>
    </g>
    <g>
      <path class="cls-36" d="m1728.05-.18c5.05,4.09,12.91,9.63,24.11,14.67,44.11,19.83,94.97,11.58,105.07,9.78,31.03-5.55,51.91-17.23,62.77-24.44"/>
      <g>
        <ellipse class="cls-12" cx="1753.18" cy="16.6" rx="5" ry="4.61"/>
        <ellipse class="cls-44" cx="1753.3" cy="16.65" rx="13.42" ry="11.27"/>
      </g>
      <g>
        <ellipse class="cls-9" cx="1793.1" cy="25.93" rx="5" ry="4.61"/>
        <ellipse class="cls-32" cx="1793.1" cy="26.1" rx="12.74" ry="10.86"/>
      </g>
      <g>
        <ellipse class="cls-22" cx="1844.95" cy="28.02" rx="5" ry="4.61"/>
        <ellipse class="cls-39" cx="1845.08" cy="28.08" rx="13.09" ry="11.17"/>
      </g>
      <g>
        <ellipse class="cls-40" cx="1897.71" cy="14.81" rx="5" ry="4.61"/>
        <ellipse class="cls-4" cx="1897.49" cy="14.76" rx="12.97" ry="11.06"/>
      </g>
    </g>
  </g>
</svg>