<?xml version="1.0" encoding="UTF-8"?>
<svg id="_Слой_1" data-name="Слой 1" xmlns="http://www.w3.org/2000/svg" width="200" height="200" xmlns:xlink="http://www.w3.org/1999/xlink" viewBox="0 0 200 200">
  <defs>
    <style>
      .cls-1 {
        fill: url(#_Безымянный_градиент_6);
      }

      .cls-1, .cls-2, .cls-3, .cls-4, .cls-5 {
        stroke: #000;
        stroke-miterlimit: 10;
      }

      .cls-2 {
        fill: #13aa00;
      }

      .cls-6 {
        fill: #a4e900;
      }

      .cls-7 {
        fill: #006837;
      }

      .cls-3 {
        fill: url(#_Безымянный_градиент_6-3);
      }

      .cls-4 {
        fill: url(#_Безымянный_градиент_6-2);
      }

      .cls-5 {
        fill: #ed2497;
      }

      .cls-8 {
        fill: #bf177f;
      }

      .cls-9 {
        fill: #fc9adb;
      }
    </style>
    <linearGradient id="_Безымянный_градиент_6" data-name="Безымянный градиент 6" x1="74.82" y1="122.12" x2="111.38" y2="122.12" gradientUnits="userSpaceOnUse">
      <stop offset="0" stop-color="#97ef84"/>
      <stop offset=".64" stop-color="#84ca4e"/>
      <stop offset="1" stop-color="#7cba35"/>
    </linearGradient>
    <linearGradient id="_Безымянный_градиент_6-2" data-name="Безымянный градиент 6" x1="95.98" y1="107.16" x2="104" y2="107.16" xlink:href="#_Безымянный_градиент_6"/>
    <linearGradient id="_Безымянный_градиент_6-3" data-name="Безымянный градиент 6" x1="99.53" y1="155.89" y2="155.89" xlink:href="#_Безымянный_градиент_6"/>
  </defs>
  <g>
    <path class="cls-1" d="m96.59,50.59l-6,8.48c27.24,48.52,2.51,104.83-15.77,128.52.75,8.36,15.47,7.78,18.14,0,23.45-68.53,24.23-96.16,3.94-135.95"/>
    <g>
      <path class="cls-2" d="m106.07,139.53c-.18-.03-.32-.2-.35-.45-.54-4.93-2-23.11,6.57-38.36,9.64-17.15,28.06-23.61,45.43-15.04.17.08.28.29.28.53-.11,6.93-1.12,18.47-6.52,29.42-9.07,18.37-26.73,27.41-45.4,23.91Z"/>
      <path class="cls-7" d="m156.92,87.31c-.07,6.89-1.02,15.68-6.53,26.83-9.12,18.48-24.53,27.72-43.31,24.06-.07-.57-.15-1.37-.22-2.41,9.18-5.96,20.13-14.34,31.56-26.11,8.25-8.5,12.8-14.34,18.5-22.36h0Z"/>
      <path class="cls-6" d="m115.56,108.17c-.41-.45,3.01-11.54,10.88-17.89,10.86-8.75,23.95-3.4,23.94-2.98,0,.36-9.47-3.19-19.59,2.98-10.15,6.18-14.8,18.37-15.24,17.89Z"/>
    </g>
    <g>
      <path class="cls-2" d="m62.21,110.6c-.11.06-.17.23-.15.43.37,4.05,2.06,18.91,9.55,29.4,8.42,11.8,20.73,13.28,30.26,2.94.09-.1.13-.29.09-.48-1.06-5.53-3.33-14.56-8.24-22.25-8.24-12.89-20.46-16.59-31.51-10.04Z"/>
      <path class="cls-7" d="m101.13,142.22c-1.02-5.5-2.87-12.35-7.88-20.17-8.28-12.97-19.14-17.28-30.24-10.58.04.47.1,1.13.21,1.98,6.54,2.93,14.51,7.44,23.26,14.58,6.32,5.15,9.97,8.91,14.64,14.19h0Z"/>
      <path class="cls-6" d="m72.56,133.8c-.19.44,3.51,8.64,9.29,12.14,7.97,4.83,15.31-2.08,15.24-2.41-.06-.28-5.4,4.45-12.55,1.54-7.16-2.92-11.78-11.74-11.98-11.27Z"/>
    </g>
  </g>
  <g>
    <path class="cls-5" d="m60.5,38.5c-5.12-7.34-4.59-11.89-4-14,3.35-11.87,28.83-17.76,47-10,6.37,2.72,10.68,6.62,13,9"/>
    <path class="cls-5" d="m64.5,33.5c-1.02-.34-4.46-1.43-8,0-9.42,3.81-12.84,22.75-6,35,.69,1.23,6.69,11.68,15,11,5.71-.47,9.3-5.94,10-7,7.98-12.17,1.4-34.86-11-39Z"/>
    <path class="cls-5" d="m65.5,53.5c-1.87-.58-5.67-1.81-7-5-2.03-4.87,2.98-11.19,6-15,2.22-2.8,5.02-6.33,10-9,7.44-3.98,19.96-6.14,25,0,3.07,3.74,2.16,9.07,2,10-2.27,13.28-22.51,23.16-36,19Z"/>
    <path class="cls-8" d="m124.5,55.5c0,14.36-12.54,26-28,26s-28-11.64-28-26c0-9.39,6.05-17.64,12.98-21.95,2.03-1.26,7.65-4.38,15.02-4.05,12.02.53,28,10.17,28,26Z"/>
    <path class="cls-5" d="m68.5,73.5c.47,5.19,4.4,8.61,6,10,8.6,7.48,28.7,11.17,39-1,5.09-6.01,8.27-16.46,4-23-8.18-12.51-40.35-5.6-47,6-2.36,4.11-2,8-2,8Z"/>
    <path class="cls-5" d="m70.5,51.5c-.37-.94-1.19-3.66-3-4-.65-.12-1.19.11-1.44.21-2.28.98-6.09,5.99-6.56,10.79-1.16,11.92,17.96,25.63,25,22,2.8-1.45,3.71-5.65,4-7,.14-.66,1.26-6.24-2-11-4.68-6.84-13.69-5.12-16-11Z"/>
    <path class="cls-5" d="m82.5,36.5c-.75-1.37-5.17-1.19-8,1-4.87,3.77-5.03,13.5-1,16,3.51,2.17,10.09-1.19,10-3-.08-1.56-5.07-1.28-6-4-1.23-3.58,6.1-7.99,5-10Z"/>
    <path class="cls-5" d="m71.5,53.5c6.94,28.48,45.5-2.61,9,5-3.76-3.08-4.19-13.23-9-5Z"/>
    <path class="cls-5" d="m110.5,27.5c2.07-2,4.91-4.68,9-5,10.03-.79,21.61,13.05,22,27,.27,9.73-4.83,22.67-16,26-6.46,1.92-14.03.36-19-4-11.49-10.07-7.09-33.28,4-44Z"/>
    <path class="cls-5" d="m98.81,33.92c0-5.98,5.56-12.88,11.15-12.95,4.87-.06,8,5.09,13.03,13.38,4.7,7.75,7.21,11.88,5.54,16.35-2.18,5.83-10.44,9.44-15.39,7.29-2.35-1.02-2.4-2.67-6.64-10.04-5.75-9.99-7.69-10.49-7.69-14.03Z"/>
    <path class="cls-5" d="m83.5,67.5c.31-1.01,1.12-3.18,3-5,3.54-3.43,6.86-1.72,12-4,6.37-2.83,6-7.57,10-8,5.58-.61,13.46,7.84,12,14-1.03,4.33-6.35,5.89-17,9-6.35,1.86-17.27,5.05-20,1-1.48-2.19-.28-6.09,0-7Z"/>
    <path class="cls-5" d="m88.68,56.17c-.28,1.54,3.28,4.17,6.85,4.25,6.16.13,12.4-7.35,10.83-11.82-1.37-3.89-8.6-5.41-9.67-3.95-.92,1.26,3.14,4.18,2.16,6.88-1.29,3.56-9.76,2.39-10.17,4.64Z"/>
    <path class="cls-5" d="m107.91,49.85c12.48-26.52-37.04-26.55-3.86-9.54.99,4.76-5.06,12.93,3.86,9.54Z"/>
    <path class="cls-5" d="m80.5,43.5c-5.34-3.39-3.61-10.35,0-14,8.09-7.81,28.24,2,17,10-.69-1.17-1.66-2.58-3-4-1.78-1.9-3.59-3.17-5-4-2.09-.88-6.29,1.74-7,5-.54,4.25,4.04,8.78-2,7Z"/>
    <path class="cls-5" d="m86.5,40.5c-.77-.61-.12-3.89,2-5,2.52-1.31,6.11.97,6,2-.06.6-1.34.49-5,2-2.06.85-2.63,1.29-3,1Z"/>
    <path class="cls-5" d="m85.5,42.5c1.33.88-.85,4.23,1,7,1.43,2.14,4.09,2.17,4,3-.09.81-2.72,1.64-5,1-3.23-.91-6.2-4.9-5-8,.88-2.27,3.87-3.75,5-3Z"/>
    <path class="cls-5" d="m92.5,40.5c-.35.68,1.09,1.36,1,3-.09,1.58-1.57,3.38-3.22,3.78-.47.11-.7.05-.78.22-.37.75,3.15,4.55,6,4,3.35-.65,5.36-7.22,3-10-1.67-1.97-5.49-1.99-6-1Z"/>
    <path class="cls-8" d="m118.5,51.5c-1.1-.63,2.87-5.69,2-12-1.13-8.22-9.72-13.1-9-14,.42-.52,3.47.85,6,3,4.78,4.06,8.68,11.79,6,18-1.35,3.14-4.19,5.46-5,5Z"/>
    <path class="cls-8" d="m119,71c-.32-1.17,6.92-1.96,12-8,5.25-6.25,4.83-14.12,6-14,.8.08,1.34,3.72,1,7-.08.77-1.21,10.09-9,14-4.49,2.25-9.73,1.98-10,1Z"/>
    <path class="cls-8" d="m81,83c.68-1.5,6.72,1.63,14,1,9.69-.84,16.33-7.88,17-7,.34.45-1.28,2.42-3,4-7.16,6.6-19.75,10.03-26,5-.96-.77-2.36-2.21-2-3Z"/>
    <path class="cls-8" d="m54,41c-.88-.25-4.9,5.71-5,13-.15,11.23,9.09,20.49,10,20,.18-.1-.03-.57-2-7-1.87-6.08-2.8-9.13-3-10-2.08-9.07.91-15.75,0-16Z"/>
    <path class="cls-8" d="m62,26c-.65-.41,1.23-7.52,7-11,1.47-.89,3.72-1.86,10-2,10.1-.22,20.1,1.94,20,3-.11,1.15-12.11,1.01-13,1-8.96-.11-10.36-1.31-14,0-6.84,2.47-9.34,9.42-10,9Z"/>
    <path class="cls-8" d="m62,45c-.41-.27,1.8-4.55,4-8,2.87-4.49,5.01-7.76,9-10,3.61-2.02,7.73-2.64,8-2,.26.61-3.12,2.15-7,5-9.43,6.92-13.43,15.37-14,15Z"/>
    <path class="cls-8" d="m65,54c-.73-.23-2.41,1.72-3,4-1.54,5.91,4.79,11.86,6,13,3.81,3.58,8.55,5.61,9,5,.08-.11.13-.46-5-6-4.77-5.15-5.34-5.42-6-7-1.88-4.48.01-8.68-1-9Z"/>
    <path class="cls-8" d="m87,72c0-.77,8.71.49,18-4,6.42-3.1,10.38-7.62,11-7,.44.44-1.19,3.04-3,5-5.83,6.3-14.39,6.84-17,7-4.59.29-8.99-.45-9-1Z"/>
    <path class="cls-8" d="m103,34c-.57.45,2.42,3.5,3,9,.33,3.11-.33,4.92,0,5,.54.13,3.52-4.54,2-9-1.15-3.38-4.47-5.41-5-5Z"/>
    <path class="cls-8" d="m74.5,48.5c-.32.07-2.24-3.29-1-6,.57-1.26,1.73-2.17,2-2,.3.19-.65,1.58-1,4-.37,2.5.21,3.95,0,4Z"/>
    <path class="cls-8" d="m74,55c-.46.28.26,2.97,2,5,.4.47,2.74,3.2,6,3,2.21-.13,4.14-1.56,4-2-.13-.4-1.87.33-4,0-4.9-.76-7.31-6.42-8-6Z"/>
    <path class="cls-8" d="m83,45c-.43-.05-1.61,2.07-1,4,.73,2.34,3.75,3.32,4,3,.18-.23-1.1-.99-2-3-1.01-2.24-.62-3.95-1-4Z"/>
    <path class="cls-8" d="m79,39c-.49-.12-1.03-5.02,2-8,3.04-2.99,7.94-2.32,8-2,.04.23-2.49.21-5,2-4.14,2.94-4.49,8.12-5,8Z"/>
    <path class="cls-8" d="m88,38c-.06-.19,1.06-.75,2-1,1.42-.39,2.98-.22,3,0,.04.4-4.88,1.38-5,1Z"/>
    <path class="cls-8" d="m95,43c-.34.15.9,2.13,0,4-.67,1.41-2.1,1.8-2,2,.14.28,3.28.14,4-2,.71-2.11-1.63-4.17-2-4Z"/>
    <path class="cls-9" d="m68,50c-.76.06-1.38,3.68-1,7,.63,5.53,4.06,10.35,5,10,1.16-.43-1.17-8.96-2-12-.76-2.79-1.39-5.05-2-5Z"/>
    <path class="cls-9" d="m104,63c-.15-.2,5.75-3.2,6-8,.07-1.45-.38-2.86,0-3,.43-.16,1.81,1.42,2,3,.52,4.32-7.82,8.24-8,8Z"/>
    <path class="cls-9" d="m124,30c-.29.4,3.37,2.17,6,7,3.36,6.18,2.05,11.91,3,12,.92.09,3.45-5.08,2-10-2-6.82-10.57-9.58-11-9Z"/>
    <path class="cls-9" d="m103,29c.24.55,2.12-.52,5,0,4.41.8,6.36,4.45,7,4,.79-.56-.69-7.15-5-8-3.69-.73-7.36,3.17-7,4Z"/>
    <path class="cls-9" d="m94,56c-.03.62,2.73,1.94,5,1,3.02-1.25,3.47-5.76,3-6-.31-.16-.88,1.55-3,3-2.59,1.76-4.98,1.43-5,2Z"/>
    <path class="cls-9" d="m62,29c-.38-.43,1.93-3.58,5-6,6.93-5.45,15.82-5.67,16-5,.11.4-2.99.94-9,4-7.57,3.85-11.55,7.51-12,7Z"/>
    <path class="cls-9" d="m91,28c.34-.39,4.02,1.53,6,5,.67,1.18,1.3,2.8,1,3-.4.26-2.3-1.99-4-4-2.13-2.52-3.2-3.78-3-4Z"/>
    <path class="cls-9" d="m85,24c-.05-.59,4.62-2.5,9-1,3.07,1.05,5.28,3.52,5,4-.26.44-2.51-1.01-7-2-4.52-1-6.96-.57-7-1Z"/>
    <path class="cls-9" d="m93,81c.11.76,9.51,1.72,13-3,.77-1.05,1.42-2.6,1-3-.55-.52-2.58,1.25-6,3-5.02,2.58-8.06,2.57-8,3Z"/>
    <path class="cls-9" d="m55,50c.03,4.75,1.33,8.25,2,10,.68,1.78,1.75,4.09,2,4,.31-.11-1.11-3.82-2-9-1.22-7.09-.6-11.98-1-12-.34-.02-1.02,3.46-1,7Z"/>
  </g>
  <polyline class="cls-4" points="102.93 113.14 95.98 101.17 104 101.85"/>
  <polyline class="cls-3" points="101.75 152.91 111.38 151.21 99.53 160.57"/>
</svg>