<?xml version="1.0" encoding="UTF-8"?>
<svg id="_Слой_1" data-name="Слой 1" xmlns="http://www.w3.org/2000/svg" xmlns:xlink="http://www.w3.org/1999/xlink" viewBox="0 0 500 500">
  <defs>
    <style>
      .cls-1 {
        fill: #c65000;
      }

      .cls-2 {
        fill: #931d06;
      }

      .cls-3 {
        fill: #bc6722;
      }

      .cls-4 {
        fill: #ffcb8d;
      }

      .cls-5 {
        opacity: .63;
      }

      .cls-6 {
        fill: #5f788e;
      }

      .cls-7 {
        fill: #42210b;
      }

      .cls-8 {
        fill: #964a3b;
      }

      .cls-9 {
        fill: #ffedd9;
      }

      .cls-10 {
        fill: url(#_Безымянный_градиент_11-2);
        opacity: .57;
      }

      .cls-11 {
        fill: #bf3f21;
      }

      .cls-12 {
        fill: #ea2f0a;
      }

      .cls-13 {
        fill: #eaa74e;
      }

      .cls-14 {
        fill: url(#_Безымянный_градиент_11);
      }

      .cls-15 {
        fill: #dd654e;
      }

      .cls-16 {
        fill: #842714;
      }
    </style>
    <radialGradient id="_Безымянный_градиент_11" data-name="Безымянный градиент 11" cx="1492.68" cy="1185.46" fx="1492.68" fy="1185.46" r="526.75" gradientTransform="translate(-546.97 -407.44) scale(.54 .55)" gradientUnits="userSpaceOnUse">
      <stop offset="0" stop-color="#fff"/>
      <stop offset=".13" stop-color="#fff" stop-opacity=".83"/>
      <stop offset=".42" stop-color="#fff" stop-opacity=".48"/>
      <stop offset=".66" stop-color="#fff" stop-opacity=".22"/>
      <stop offset=".83" stop-color="#fff" stop-opacity=".06"/>
      <stop offset=".92" stop-color="#fff" stop-opacity="0"/>
    </radialGradient>
    <radialGradient id="_Безымянный_градиент_11-2" data-name="Безымянный градиент 11" cx="1471.21" cy="1182.74" fx="1471.21" fy="1182.74" r="526.75" gradientTransform="translate(-546.97 -407.78) scale(.54 .55)" xlink:href="#_Безымянный_градиент_11"/>
  </defs>
  <ellipse class="cls-14" cx="251.81" cy="250.4" rx="248.6" ry="248.58"/>
  <g>
    <g>
      <path class="cls-11" d="m249.54,469.18c-58.73,0-113.94-22.87-155.47-64.4S29.67,308.04,29.67,249.31s22.87-113.94,64.4-155.47C135.6,52.31,190.81,29.44,249.54,29.44s113.94,22.87,155.47,64.4,64.4,96.74,64.4,155.47-22.87,113.94-64.4,155.47c-41.53,41.53-96.74,64.4-155.47,64.4Z"/>
      <path class="cls-7" d="m249.54,29.94c29.62,0,58.34,5.8,85.39,17.24,26.12,11.05,49.58,26.87,69.73,47.01,20.15,20.15,35.96,43.61,47.01,69.73,11.44,27.04,17.24,55.77,17.24,85.39s-5.8,58.34-17.24,85.39c-11.05,26.12-26.87,49.58-47.01,69.73-20.15,20.15-43.61,35.96-69.73,47.01-27.04,11.44-55.77,17.24-85.39,17.24s-58.34-5.8-85.39-17.24c-26.12-11.05-49.58-26.87-69.73-47.01-20.15-20.15-35.96-43.61-47.01-69.73-11.44-27.04-17.24-55.77-17.24-85.39s5.8-58.34,17.24-85.39c11.05-26.12,26.87-49.58,47.01-69.73,20.15-20.15,43.61-35.96,69.73-47.01,27.04-11.44,55.77-17.24,85.39-17.24m0-1C127.84,28.94,29.17,127.6,29.17,249.31s98.66,220.37,220.37,220.37,220.37-98.66,220.37-220.37S371.25,28.94,249.54,28.94h0Z"/>
    </g>
    <g class="cls-5">
      <path class="cls-11" d="m76.34,109.68c15.42-19.7,34.12-36.7,55.28-50.19,16.63,7.76,44.4,13.75,54.88,16.01,10.03,2.16,59.61,12.15,121-6,14.21-4.2,31.5-10.63,47.53-17.81,24.3,13.21,45.84,30.86,63.52,51.86-9.9,6.83-19.42,14.11-27.05,19.95-11.49,8.78-17.26,14.28-29,18-11.12,3.52-19.66,2.93-50,0-30.11-2.9-45.17-4.35-48-5-33.29-7.59-34.11-18.68-58-23-29.75-5.38-39.53,9.83-71,11-14.56.54-34.57-1.89-59.16-14.82Z"/>
      <path class="cls-6" d="m314.5,315.5c-2.93,3.33-10.51,1.32-34-8-52.67-20.9-54.93-26.81-67-26-27.85,1.87-27.56,34.12-58,42-22.66,5.86-46.75-8.68-94-38-11.32-7.03-21.7-13.9-31.07-20.4-.55-6.26-.84-12.6-.86-19.01l29.83,3.34c2.42,1.14,4.61,2.35,6.6,3.57,4.33,2.65,4.41,3.36,35,25,12.72,9,19.38,13.6,30,16,5.35,1.21,17.45,3.95,28-2,5.59-3.15,4.19-5.04,12-11,4.08-3.11,12.69-9.51,25-11,6.49-.78,10.83.2,16,1,6.95,1.08,16.25,1.89,27.88,1.19,3.37,1.19,6.32,1.93,8.62,2.31,18.16,2.94,36.03-3.05,52,10,11.63,9.5,18.43,25.97,14,31Z"/>
      <path class="cls-16" d="m239.88,272.19c-11.63.7-20.93-.11-27.88-1.19-5.17-.8-9.51-1.78-16-1-12.31,1.49-20.92,7.89-25,11-7.81,5.96-6.41,7.85-12,11-10.55,5.95-22.65,3.21-28,2-10.62-2.4-17.28-7-30-16-30.59-21.64-30.67-22.35-35-25-1.99-1.22-4.18-2.43-6.6-3.57l-29.83-3.34v-.66c0-1.16.01-2.32.03-3.47.05-3.03.16-6.04.33-9.04.29-5.39.79-10.72,1.47-16,8.83,7.81,16.64,11.02,23.06,12.13l25.13-3.96c2.49-.76,5.32-1.61,8.61-2.55,0,0,9.71-2.77,19.3-5.04,39.88-9.45,59.82-14.18,71-8,17.85,9.86,21.78,36.67,37.16,49.07,5.36,4.32,10.87,7.66,15.96,10.15,2.93,1.42,5.71,2.57,8.26,3.47Z"/>
      <path class="cls-2" d="m469.2,223.26c-25.02,3.6-52.69-1.94-54.7-9.76-1.74-6.75,16.49-12.01,15-20-1.23-6.59-15.4-12.39-33.04-14.47-12.76-1.52-27.33-1.09-40.14,2.38-10.42,2.82-19.67,7.65-25.82,15.09-1.37,1.66-8.86,10.73-6,17,3.53,7.73,18.79,2.45,31,13,6.97,6.02,12.42,16.75,9,23-4.37,7.98-21.48,5.51-25,5-10.7-1.54-17.99-6.04-33-16-28.77-19.1-26.2-18.66-31-21-28.53-13.9-66.12-3.35-67,5-.91,8.56,36.85,14.09,36,24-.49,5.67-13.45,11.09-28.84,12.07-4.14-4.98-10.21-11.81-18.19-19.29-9.91-9.29-14.86-13.93-21.97-17.78-18.74-10.13-38.24-8.55-45-8-8.49.69-17.12,2.59-23,4-12.86,3.09-21.53,5.64-27.91,7.59l-25.13,3.96c-6.42-1.11-14.23-4.32-23.06-12.13.71-5.54,1.63-11.01,2.76-16.41,4.03-19.5,10.65-38.06,19.48-55.31,5.34,3.59,10.24,8.2,12.86,15.3,6.01,16.34-5.36,31.8,1,36,3.74,2.47,8.22-2.51,23-8,14.89-5.53,18.29-3.41,38-9,14.96-4.24,13.81-5.68,28-10,11.37-3.46,27.46-8.35,46-8,18.57.35,21.26,5.63,47,10,15.13,2.57,26.08,2.77,43,3,31.54.43,61.22.84,97-7,22.2-4.86,43.09-9.44,59.08-17.59,3.95,8.2,7.41,16.68,10.33,25.41,5.13,15.3,8.63,31.35,10.29,47.94Z"/>
      <path class="cls-15" d="m470.3,245.43c0,18.6-2.3,36.66-6.65,53.91-29.34-7.83-43.43-4.21-50.15,3.16-3.64,4-5.42,9.43-6.09,15.53-2.43,21.72,9,51.97-.91,56.47-3.82,1.74-7.01-2.09-17-6-17.85-6.99-33.77-5.01-50-3-15.92,1.98-17.4,4.73-53,16-30.94,9.79-46.65,14.68-59,14-14.79-.81-21.95-5.28-52-19-23.35-10.66-51.81-23.66-68-29-3.48-1.15-7.26-2.23-11.34-3.17-12.08-2.78-26.84-4.35-44.65-2.93-11.35-23.42-18.67-49.15-21.08-76.3,9.37,6.5,19.75,13.37,31.07,20.4,47.25,29.32,71.34,43.86,94,38,30.44-7.88,30.15-40.13,58-42,12.07-.81,14.33,5.1,67,26,23.49,9.32,31.07,11.33,34,8,4.43-5.03-2.37-21.5-14-31-15.97-13.05-33.84-7.06-52-10-9.55-1.54-20.74-5.8-32.84-15.93,15.39-.98,28.35-6.4,28.84-12.07.85-9.91-36.91-15.44-36-24,.88-8.35,38.47-18.9,67-5,4.8,2.34,2.23,1.9,31,21,15.01,9.96,22.3,14.46,33,16,3.52.51,20.63,2.98,25-5,3.42-6.25-2.03-16.98-9-23-12.21-10.55-27.47-5.27-31-13-2.86-6.27,4.63-15.34,6-17,6.15-7.44,15.4-12.27,25.82-15.09l40.14-2.38c17.64,2.08,31.81,7.88,33.04,14.47,1.49,7.99-16.74,13.25-15,20,2.01,7.82,29.68,13.36,54.7,9.76.73,7.29,1.1,14.69,1.1,22.17Z"/>
      <path class="cls-11" d="m396.46,179.03l-40.14,2.38c12.81-3.47,27.38-3.9,40.14-2.38Z"/>
      <path class="cls-8" d="m463.65,299.34c-1.2,4.83-2.58,9.59-4.11,14.28-14.45,44.48-42.67,82.74-79.62,109.78-24.66-14.4-41.15-14.74-52.42-10.9-9.21,3.14-24.47,12.33-33,6-4.7-3.49-2.92-8.4-8-13-8.94-8.09-29.31-6.3-35,3-6.45,10.55,8.38,26.85,3,32-3.71,3.54-13.26-1.76-23-6-23.73-10.33-51.71-15.69-71-13-6.52.91-16.26,3.33-27.65,10.66-32.89-20.67-59.94-49.8-78.09-84.33-1.12-2.12-2.2-4.26-3.25-6.43,17.81-1.42,32.57.15,44.65,2.93,4.08.94,7.86,2.02,11.34,3.17,16.19,5.34,44.65,18.34,68,29,30.05,13.72,37.21,18.19,52,19,12.35.68,28.06-4.21,59-14,35.6-11.27,37.08-14.02,53-16,16.23-2.01,32.15-3.99,50,3,9.99,3.91,13.18,7.74,17,6,9.91-4.5-1.52-34.75.91-56.47.67-6.1,2.45-11.53,6.09-15.53,6.72-7.37,20.81-10.99,50.15-3.16Z"/>
      <path class="cls-15" d="m448.58,149.91c-15.99,8.15-36.88,12.73-59.08,17.59-35.78,7.84-65.46,7.43-97,7-16.92-.23-27.87-.43-43-3-25.74-4.37-28.43-9.65-47-10-18.54-.35-34.63,4.54-46,8-14.19,4.32-13.04,5.76-28,10-19.71,5.59-23.11,3.47-38,9-14.78,5.49-19.26,10.47-23,8-6.36-4.2,5.01-19.66-1-36-2.62-7.1-7.52-11.71-12.86-15.3,6.43-12.59,14.05-24.48,22.7-35.52,24.59,12.93,44.6,15.36,59.16,14.82,31.47-1.17,41.25-16.38,71-11,23.89,4.32,24.71,15.41,58,23,2.83.65,17.89,2.1,48,5,30.34,2.93,38.88,3.52,50,0,11.74-3.72,17.51-9.22,29-18,7.63-5.84,17.15-13.12,27.05-19.95,11.85,14.06,21.96,29.62,30.03,46.36Z"/>
      <path class="cls-12" d="m355.03,51.69c-16.03,7.18-33.32,13.61-47.53,17.81-61.39,18.15-110.97,8.16-121,6-10.48-2.26-38.25-8.25-54.88-16.01,34.18-21.8,74.77-34.43,118.31-34.43,38.06,0,73.86,9.65,105.1,26.63Z"/>
      <path class="cls-3" d="m379.92,423.4c-9.42,6.9-19.41,13.06-29.89,18.41h-.01c-30.04,15.34-64.05,23.99-100.09,23.99-32.26,0-62.9-6.93-90.52-19.38h-.05c-9.21-4.16-18.03-8.93-26.51-14.26,11.39-7.33,21.13-9.75,27.65-10.66,19.29-2.69,47.27,2.67,71,13,9.74,4.24,19.29,9.54,23,6,5.38-5.15-9.45-21.45-3-32,5.69-9.3,26.06-11.09,35-3,5.08,4.6,3.3,9.51,8,13,8.53,6.33,23.79-2.86,33-6,11.27-3.84,27.76-3.5,52.42,10.9Z"/>
    </g>
    <ellipse class="cls-10" cx="240.33" cy="248.54" rx="248.6" ry="248.58"/>
    <path class="cls-1" d="m359.52,274.25c.98-4.44,18.32-.63,30.9-9.07,15.26-10.23,5.77-26.58,19.82-35.33,12.21-7.61,35.06-5.02,39.31,2.43,5.23,9.17-18.02,25.31-31.28,34.88-12.15,8.77-25.99,18.49-41.75,16.46-9.03-1.16-17.72-6.12-17-9.38Z"/>
    <path class="cls-1" d="m225.16,124.14c3.7-4.52-3.63-20.34-16-27-15.74-8.48-34.01.92-40,4-9.88,5.08-21.83,14.75-20,19,2.22,5.16,21.46-5.14,51,0,14.94,2.6,22.25,7.36,25,4Z"/>
    <path class="cls-13" d="m119.08,316.03c24.94.9,38.49,19.19,57.61,33.87,57.21,43.93,119.62,21.26,120.46,32.33.78,10.3-52.82,35.6-111.3,26.17-56.55-9.12-112.43-49.88-108.68-72.36,2.19-13.14,24.87-20.63,41.9-20.02Z"/>
    <path class="cls-4" d="m133.88,334.34c18.4.66,28.39,14.15,42.49,24.98,42.2,32.4,88.23,15.68,88.85,23.85.58,7.6-38.96,26.26-82.09,19.31-41.71-6.73-82.93-36.79-80.16-53.37,1.62-9.69,18.34-15.21,30.9-14.76Z"/>
    <path class="cls-9" d="m118,353c-2.66,10.67,9.99,24.01,23,24,7.25,0,16.03-4.16,18-11,3.09-10.73-11.14-26.25-25-25-6.71.6-14.31,5.22-16,12Z"/>
  </g>
</svg>