<?xml version="1.0" encoding="UTF-8"?>
<svg id="_Слой_1" data-name="Слой 1" xmlns="http://www.w3.org/2000/svg" xmlns:xlink="http://www.w3.org/1999/xlink" viewBox="0 0 200 200">
  <defs>
    <style>
      .cls-1 {
        fill: #fff;
      }

      .cls-2 {
        fill: #88a1a8;
      }

      .cls-3, .cls-4 {
        fill: #b6e8fc;
      }

      .cls-5 {
        fill: url(#_Безымянный_градиент);
      }

      .cls-5, .cls-6, .cls-7, .cls-4, .cls-8, .cls-9 {
        stroke-miterlimit: 10;
      }

      .cls-5, .cls-6, .cls-7, .cls-8, .cls-9 {
        stroke: #909191;
      }

      .cls-6 {
        fill: url(#_Безымянный_градиент-3);
      }

      .cls-7 {
        fill: url(#_Безымянный_градиент-5);
      }

      .cls-4 {
        stroke: #000;
      }

      .cls-10 {
        fill: #0071bc;
      }

      .cls-11 {
        opacity: .41;
      }

      .cls-8 {
        fill: url(#_Безымянный_градиент-2);
      }

      .cls-12 {
        fill: #3b4244;
      }

      .cls-9 {
        fill: url(#_Безымянный_градиент-4);
      }

      .cls-13 {
        fill: #f91c2d;
      }
    </style>
    <linearGradient id="_Безымянный_градиент" data-name="Безымянный градиент" x1="124.47" y1="87.69" x2="149.79" y2="87.69" gradientTransform="translate(-4.69 7.81) rotate(-3.21)" gradientUnits="userSpaceOnUse">
      <stop offset="0" stop-color="#fff"/>
      <stop offset="1" stop-color="#000"/>
    </linearGradient>
    <linearGradient id="_Безымянный_градиент-2" data-name="Безымянный градиент" x1="62.5" y1="101" x2="71.5" y2="101" gradientTransform="matrix(1, 0, 0, 1, 0, 0)" xlink:href="#_Безымянный_градиент"/>
    <linearGradient id="_Безымянный_градиент-3" data-name="Безымянный градиент" x1="77.5" y1="98" x2="86.5" y2="98" gradientTransform="matrix(1, 0, 0, 1, 0, 0)" xlink:href="#_Безымянный_градиент"/>
    <linearGradient id="_Безымянный_градиент-4" data-name="Безымянный градиент" x1="93.5" y1="96" x2="102.5" y2="96" gradientTransform="matrix(1, 0, 0, 1, 0, 0)" xlink:href="#_Безымянный_градиент"/>
    <linearGradient id="_Безымянный_градиент-5" data-name="Безымянный градиент" x1="110.5" y1="95" x2="119.5" y2="95" gradientTransform="matrix(1, 0, 0, 1, 0, 0)" xlink:href="#_Безымянный_градиент"/>
  </defs>
  <g>
    <path class="cls-3" d="m130.08,100.28c-1.34,0-2.71-.06-4.07-.18-13.03-1.16-23.22-7.46-22.71-14.05.06-.77.27-1.53.62-2.26,1.55-1.52,3.26-3.1,5.08-4.69,6.06-5.35,12.85-10.45,20.18-15.18,17.84-11.51,35.71-18.67,46.64-18.67,3.22,0,7.37.67,8.9,3.86,3.86,8.09-11.42,27.18-34.77,43.46-1.71,1.19-3.55,2.42-5.46,3.66-1.72,1.1-3.15,2-4.51,2.82-2.97.8-6.39,1.23-9.89,1.23Z"/>
    <path d="m175.82,45.75h0c3.07,0,7.03.62,8.44,3.57,3.75,7.87-11.45,26.69-34.6,42.84-1.71,1.19-3.54,2.42-5.45,3.65-1.66,1.07-3.11,1.98-4.44,2.77-2.92.78-6.26,1.19-9.69,1.19-1.32,0-2.68-.06-4.02-.18-12.54-1.11-22.73-7.3-22.26-13.52.05-.68.23-1.35.53-2,1.53-1.5,3.21-3.05,5-4.61,6.04-5.33,12.81-10.42,20.12-15.13,17.76-11.46,35.53-18.59,46.37-18.59m0-1c-10.63,0-28.41,6.8-46.91,18.75-7.54,4.86-14.39,10.06-20.24,15.22-1.82,1.59-3.54,3.18-5.16,4.77-.4.8-.64,1.64-.71,2.51-.52,6.88,9.85,13.41,23.17,14.59,1.4.12,2.77.18,4.11.18,3.68,0,7.11-.45,10.09-1.26,1.53-.91,3.06-1.88,4.59-2.86,1.87-1.21,3.7-2.43,5.48-3.67,23.64-16.48,39-35.56,34.94-44.09-1.34-2.81-4.64-4.14-9.35-4.14h0Z"/>
  </g>
  <g class="cls-11">
    <path class="cls-2" d="m149.09,93.16c-1.78,1.24-3.61,2.47-5.48,3.67-1.53.98-3.06,1.95-4.58,2.87-4.07,1.1-8.97,1.54-14.19,1.07-1.83-.17-3.6-.43-5.29-.78,9.81-6.46,20.6-14.55,31.7-24.67,11.18-10.19,20.46-20.43,28.05-29.85,2.26.63,3.89,1.82,4.72,3.59,4.05,8.53-11.3,27.6-34.94,44.08Z"/>
  </g>
  <g>
    <path class="cls-3" d="m122.91,91.08c-5.26,4.19-13.37,6.86-22.48,6.86,9.41,0,17.33-3.19,22.48-6.86Z"/>
    <path d="m122.91,91.08c-5.15,3.67-13.07,6.86-22.48,6.86,9.11,0,17.22-2.67,22.48-6.86h0Z"/>
  </g>
  <path class="cls-4" d="m185.91,95.17c-1.67-14.08-37.41-22.67-58.78-21.94-6.64.23-13.62.72-20.78,1.71-12.45,1.72-24.05,4.56-34.15,8.15-23.96,8.49-39.54,21.18-38.11,33.12,2.02,16.99,37.63,26.05,79.56,20.23,41.92-5.8,74.28-24.29,72.26-41.27Z"/>
  <path class="cls-5" d="m130.18,101.63h0c4.54,1.98,12.66-5.04,14.64-9.58l3.99-9.17c.25-.55.82-1.99.45-3.74-.65-3.06-3.6-4.3-3.88-4.41-1.14-.38-2.28-.75-3.42-1.13-.99-.11-5.36-.49-9.07,2.52-1.92,1.56-2.9,3.39-3.37,4.49l-3.99,9.17c-1.98,4.54.12,9.87,4.66,11.84Z"/>
  <path class="cls-10" d="m165.66,118.91c-3.95,2.19-8.43,4.26-13.32,6.16-3.72-8.46-6.23-18.97-4.68-30.89.93-7.15,3.13-13.24,5.62-18.18,3.39.57,6.57,1.26,9.52,2.08,12.85,3.59,21.17,9.55,22.11,17.2.99,8.08-6.43,16.52-19.25,23.63Z"/>
  <path class="cls-13" d="m162.82,120.48c-3.11,1.58-6.5,3.1-10.11,4.52-3.63-8.33-6.1-18.67-4.58-30.41.91-7.03,3.06-13.03,5.5-17.89,3.3.55,6.42,1.23,9.3,2.05.02,0,.05,0,.07.02-1.77,3.56-3.39,7.9-4.26,12.99-2.06,12.05,1.08,22.25,4.08,28.72Z"/>
  <g class="cls-11">
    <path class="cls-2" d="m113.29,137.13c-6.88.94-13.58,1.5-19.99,1.68,18.08-4.48,39.63-12.58,61.55-27.3,10.8-7.25,20.02-14.99,27.8-22.51,1.61,2.11,2.62,4.41,2.91,6.86,2.02,16.98-30.34,35.47-72.27,41.27Z"/>
  </g>
  <g>
    <path class="cls-3" d="m50.39,168.07c-4.25,0-7.12-1.16-8.53-3.45-5.18-8.4,10.83-30.55,36.44-50.43,1.89-1.47,3.91-2.98,6-4.49,1.86-1.34,3.49-2.48,4.99-3.5,4.73-1.62,10.3-2.48,16.11-2.48,15.22,0,27.6,5.86,27.6,13.07,0,.85-.18,1.69-.52,2.51-1.67,1.8-3.51,3.67-5.47,5.58-6.54,6.37-13.95,12.55-22.03,18.38-20.87,15.07-42.29,24.8-54.58,24.8Z"/>
    <path d="m105.4,104.23c14.69,0,27.1,5.75,27.1,12.57,0,.75-.15,1.51-.45,2.24-1.65,1.78-3.46,3.62-5.39,5.49-6.53,6.36-13.92,12.52-21.97,18.33-20.79,15.01-42.1,24.71-54.29,24.71-4.06,0-6.79-1.08-8.11-3.21-5.05-8.18,10.91-30.04,36.32-49.77,1.88-1.46,3.89-2.96,5.99-4.48,1.84-1.32,3.45-2.45,4.92-3.45,4.67-1.59,10.16-2.44,15.89-2.44m0-1c-6.1,0-11.73.94-16.34,2.53-1.69,1.14-3.37,2.33-5.06,3.54-2.06,1.49-4.07,2.98-6.02,4.5-25.91,20.12-42.01,42.25-36.56,51.09,1.55,2.5,4.66,3.68,8.96,3.68,12.02,0,33.23-9.27,54.87-24.9,8.3-5.98,15.77-12.27,22.09-18.42,1.96-1.9,3.81-3.79,5.55-5.66.39-.9.6-1.83.6-2.79,0-7.49-12.58-13.57-28.1-13.57h0Z"/>
  </g>
  <g>
    <path class="cls-3" d="m34.08,114.92c-1.01-.34-2.03-.71-3.07-1.1-1.31-.49-2.61-1-3.84-1.52-12.63-5.3-18.74-13.19-20.13-18.33-.55-2.04-.39-3.77.45-4.89,2.2-2.91,5.34-5.89,11.98-5.89,4.44,0,10.04,1.29,17.12,3.95,5.1,1.91,10.06,4.21,14.75,6.84,1.4.78,2.74,1.57,3.99,2.35.41.46.76.97,1.05,1.52,2.26,4.42-9.51,11.46-15.17,14.84l-.22.13c-2.21,1.32-4.6,2.04-6.91,2.1Z"/>
    <path d="m19.47,83.69c4.38,0,9.93,1.28,16.95,3.92,5.08,1.9,10.02,4.19,14.68,6.81,1.37.76,2.68,1.53,3.91,2.3.36.41.67.87.93,1.37,2.05,4.01-9.89,11.14-14.98,14.19l-.22.13c-2.1,1.26-4.38,1.96-6.58,2.02-.88-.3-1.85-.64-2.97-1.06-1.32-.5-2.61-1.01-3.83-1.52-11.67-4.89-18.37-12.57-19.84-18-.51-1.89-.38-3.47.36-4.46,2.12-2.82,5.16-5.69,11.58-5.69m0-1c-6.29,0-9.72,2.56-12.38,6.09-3.38,4.48,3,16.9,19.89,23.98,1.27.53,2.56,1.04,3.86,1.53,1.07.4,2.13.78,3.17,1.13,2.34-.04,4.86-.74,7.25-2.17,6.08-3.64,18.08-10.73,15.58-15.63-.32-.62-.71-1.19-1.17-1.68-1.31-.82-2.66-1.62-4.07-2.4-4.53-2.54-9.57-4.9-14.82-6.87-7.5-2.82-13.05-3.98-17.3-3.98h0Z"/>
  </g>
  <g>
    <path class="cls-3" d="m32.69,137.21c-3.33,0-5.58-.96-6.34-2.71-1.83-4.2,5.1-12.06,15.13-17.17,5.5-2.8,11.14-4.4,15.47-4.4,3.33,0,5.58.96,6.34,2.71,1.83,4.2-5.1,12.06-15.13,17.17-5.5,2.8-11.14,4.4-15.47,4.4Z"/>
    <path d="m56.95,112.43v1c1.81,0,4.97.31,5.89,2.41,1.54,3.53-4.08,11.02-14.9,16.53-5.43,2.76-10.99,4.35-15.24,4.35-1.81,0-4.97-.31-5.89-2.41-1.54-3.53,4.08-11.02,14.9-16.53,5.43-2.76,10.99-4.35,15.24-4.35v-1m0,0c-4.24,0-9.91,1.51-15.7,4.46-10.46,5.32-17.34,13.3-15.37,17.82.88,2.02,3.38,3.01,6.8,3.01,4.24,0,9.91-1.51,15.7-4.46,10.46-5.32,17.34-13.3,15.37-17.82-.88-2.02-3.38-3.01-6.8-3.01h0Z"/>
  </g>
  <g class="cls-11">
    <path class="cls-2" d="m40.42,112.26c-.97.58-1.98,1.02-2.99,1.34-1.05-5.37-2.97-11.68-6.4-18.17-2.16-4.07-4.54-7.51-6.92-10.41,3.3.44,7.3,1.5,12.21,3.32,4.8,1.77,9.41,3.9,13.56,6.18,1.28.71,2.53,1.43,3.72,2.16.42.45.78.95,1.07,1.51,2.3,4.41-8.69,10.81-14.26,14.07Z"/>
  </g>
  <g class="cls-11">
    <path class="cls-2" d="m49.43,131.54c-7.03,3.22-13.87,4.47-18.01,3.6,4.73-2.04,11.38-5.71,17.52-12.17,3.03-3.18,5.34-6.42,7.11-9.42,4.13-.3,7.21.52,8.19,2.54,1.9,3.92-4.73,10.83-14.8,15.45Z"/>
  </g>
  <g class="cls-11">
    <path class="cls-2" d="m131.97,115.87c0,.96-.2,1.89-.6,2.79-1.73,1.87-3.59,3.76-5.55,5.66-6.31,6.15-13.79,12.44-22.09,18.42-21.2,15.31-41.99,24.51-54.12,24.88,11.64-6,25.94-15.09,40.24-28.86,12.41-11.95,21.51-24.2,28.04-34.64,8.42,2.33,14.08,6.72,14.08,11.74Z"/>
  </g>
  <path class="cls-1" d="m139,68c-.53-.54,3.8-7.18,11-12,8.42-5.63,17.74-6.74,18-6,.22.61-5.82,2.28-15,8-9.13,5.69-13.52,10.49-14,10Z"/>
  <path class="cls-1" d="m54,149c-.77-.61,5.56-11.35,15-21,8.19-8.37,17.45-14.63,18-14,.31.35-2.13,2.79-9,10-19.55,20.49-23.45,25.43-24,25Z"/>
  <path class="cls-1" d="m30,130c-.44-.58,3.08-4.73,7.63-7.76.1-.07.23-.15.37-.24,4.84-3.11,10.64-4.7,11-4,.7,1.37-18.09,13.19-19,12Z"/>
  <path class="cls-1" d="m15,87c-.86-.43-3.44,1.53-4,4-1.23,5.39,7.54,11.41,8,11,.3-.26-3.25-2.94-4-8-.58-3.88.88-6.56,0-7Z"/>
  <path class="cls-1" d="m162.62,83.22c8.04-.98,12.66,2.13,14.79,3.99,1.8,1.57,4.1,4.23,3.77,4.89-.44.86-5.16-1.87-9.28-4.44"/>
  <path class="cls-1" d="m127.26,92.56c.14-.15,2.22,3.14,4.22,3.77,3.12.98,6.82-.78,6.99-.39.16.38-4.16,2.77-6.88,2.39-2.88-.41-4.53-5.55-4.33-5.77Z"/>
  <path class="cls-12" d="m141.34,75.75c.02.21-2.55.2-4.94,1.28-5.89,2.67-7.29,10.49-7.43,10.43-.15-.06,1.3-9.27,7.37-11.43,2.33-.83,4.97-.49,4.99-.28Z"/>
  <circle class="cls-8" cx="67" cy="101" r="4.5"/>
  <circle class="cls-6" cx="82" cy="98" r="4.5"/>
  <circle class="cls-9" cx="98" cy="96" r="4.5"/>
  <circle class="cls-7" cx="115" cy="95" r="4.5"/>
</svg>