<?xml version="1.0" encoding="UTF-8"?>
<svg id="_Слой_1" data-name="Слой 1" xmlns="http://www.w3.org/2000/svg" xmlns:xlink="http://www.w3.org/1999/xlink" viewBox="0 0 200 200">
  <defs>
    <style>
      .cls-1 {
        fill: #171c11;
      }

      .cls-1, .cls-2, .cls-3, .cls-4, .cls-5, .cls-6, .cls-7, .cls-8 {
        stroke: #000;
      }

      .cls-1, .cls-3 {
        stroke-linecap: round;
        stroke-linejoin: round;
      }

      .cls-9, .cls-6, .cls-10 {
        fill: #fff;
      }

      .cls-2 {
        fill: #2c1a10;
      }

      .cls-2, .cls-4, .cls-11, .cls-5, .cls-12, .cls-6, .cls-13, .cls-7, .cls-8, .cls-10 {
        stroke-miterlimit: 10;
      }

      .cls-2, .cls-4, .cls-8 {
        stroke-width: .25px;
      }

      .cls-14 {
        fill: url(#_Безымянный_градиент_12-2);
      }

      .cls-15 {
        fill: #a8a7a7;
      }

      .cls-16 {
        fill: url(#_Безымянный_градиент_12-4);
      }

      .cls-17 {
        fill: url(#_Безымянный_градиент_12-3);
      }

      .cls-18 {
        fill: #1b0f03;
      }

      .cls-3, .cls-4 {
        fill: none;
      }

      .cls-19 {
        fill: #3b4051;
      }

      .cls-20 {
        fill: gray;
      }

      .cls-11 {
        fill: #f02275;
        stroke: #9e005d;
      }

      .cls-11, .cls-7 {
        stroke-width: .75px;
      }

      .cls-5 {
        fill: #d8d0d7;
      }

      .cls-12 {
        fill: #e7f5f7;
        opacity: .71;
        stroke: #3fa9f5;
      }

      .cls-12, .cls-13, .cls-10 {
        stroke-width: .5px;
      }

      .cls-21 {
        opacity: .48;
      }

      .cls-21, .cls-22 {
        fill: #c12b6f;
      }

      .cls-23 {
        fill: #aaa5aa;
      }

      .cls-13 {
        fill: #ffe964;
        stroke: #fbb03b;
      }

      .cls-24 {
        fill: #f9e5e5;
      }

      .cls-25 {
        fill: url(#_Безымянный_градиент_12);
      }

      .cls-26 {
        fill: #992861;
      }

      .cls-7 {
        fill: #bc96b5;
      }

      .cls-8 {
        fill: #9f6134;
      }

      .cls-27 {
        fill: #f2f2f2;
      }

      .cls-10 {
        stroke: #ccc;
      }
    </style>
    <radialGradient id="_Безымянный_градиент_12" data-name="Безымянный градиент 12" cx="132.05" cy="127.81" fx="132.05" fy="127.81" r="7.31" gradientTransform="translate(-75.66 -90.62) rotate(3.15) scale(1.63 1.61) skewX(-.05)" gradientUnits="userSpaceOnUse">
      <stop offset="0" stop-color="#ffe964"/>
      <stop offset=".31" stop-color="#ffe965" stop-opacity=".99"/>
      <stop offset=".45" stop-color="#ffe969" stop-opacity=".96"/>
      <stop offset=".55" stop-color="#ffea71" stop-opacity=".91"/>
      <stop offset=".64" stop-color="#ffec7c" stop-opacity=".84"/>
      <stop offset=".71" stop-color="#ffee8a" stop-opacity=".75"/>
      <stop offset=".78" stop-color="#fff09c" stop-opacity=".64"/>
      <stop offset=".84" stop-color="#fff3b1" stop-opacity=".5"/>
      <stop offset=".9" stop-color="#fff7c9" stop-opacity=".35"/>
      <stop offset=".95" stop-color="#fffbe3" stop-opacity=".18"/>
      <stop offset="1" stop-color="#fff" stop-opacity="0"/>
    </radialGradient>
    <radialGradient id="_Безымянный_градиент_12-2" data-name="Безымянный градиент 12" cx="187.35" cy="112.52" fx="187.35" fy="112.52" gradientTransform="translate(-29.72 -40.83) rotate(3.18) scale(1.2)" xlink:href="#_Безымянный_градиент_12"/>
    <radialGradient id="_Безымянный_градиент_12-3" data-name="Безымянный градиент 12" cx="139.31" cy="136.68" fx="139.31" fy="136.68" r="7.31" gradientTransform="translate(18.02 5.3) rotate(3.06) scale(.9 .86) skewX(-.25)" xlink:href="#_Безымянный_градиент_12"/>
    <radialGradient id="_Безымянный_градиент_12-4" data-name="Безымянный градиент 12" cx="193.76" cy="117.86" fx="193.76" fy="117.86" r="7.31" gradientTransform="translate(17.19 2.56) rotate(3.06) scale(.9 .86) skewX(-.25)" xlink:href="#_Безымянный_градиент_12"/>
  </defs>
  <polygon class="cls-18" points="131.97 138.68 25.88 95.9 68.1 73.03 151.83 89.67 131.97 138.68"/>
  <path class="cls-11" d="m154.89,89.65l-16.83.7-46.28-11.69-59.23,14.15-25.45-10.27c.63-.31,1.3-.54,2-.68l65.18-13.42c1.71-.66,3.61-.79,5.54-.24l75.07,21.46Z"/>
  <g>
    <path class="cls-8" d="m119.39,104.38c.04,1.47,2.69,2.6,5.92,2.54,1.06-.02,2.05-.17,2.9-.41.64.71,1.74,1.17,2.98,1.14,1.95-.04,3.5-1.25,3.46-2.72s-1.64-2.62-3.6-2.59c-.44,0-.86.08-1.24.2-1.09-.6-2.76-.97-4.63-.93-3.23.06-5.82,1.3-5.79,2.76Z"/>
    <ellipse class="cls-8" cx="129.43" cy="105.98" rx="3.53" ry="2.65" transform="translate(-1.21 1.5) rotate(-.66)"/>
    <ellipse class="cls-8" cx="126.5" cy="106.29" rx="3.53" ry="2.65" transform="translate(-1.22 1.46) rotate(-.66)"/>
    <path class="cls-8" d="m123.15,106.5c.08.55.36,1.07.86,1.48,1.27,1.05,3.44,1.03,4.84-.05,1.41-1.08,1.52-2.82.26-3.87-.51-.43-1.17-.68-1.86-.75"/>
  </g>
  <path class="cls-4" d="m104.74,70.55s-.02-.01-.03-.02"/>
  <path class="cls-2" d="m109.72,85c-7.65,0-13.85,6.36-13.85,14.2s6.2,14.2,13.85,14.2,13.85-6.35,13.85-14.2-6.2-14.2-13.85-14.2Zm0,7.1c2.01,0,3.82.88,5.09,2.29l-11.28,1.64c1.13-2.33,3.48-3.93,6.19-3.93Zm0,14.2c-3.82,0-6.93-3.18-6.93-7.1,0-.8.13-1.56.37-2.28l7.38,2.77,5.15-4.08c.61,1.05.96,2.28.96,3.59,0,3.92-3.11,7.1-6.93,7.1Z"/>
  <path class="cls-7" d="m103.2,140.16c-2.27-2-12.36-9.65-19.02-5.96-2.83,1.56-4.66,4.87-5.27,8.88l32.13,11.3c-.83-4.06-2.68-9.68-7.84-14.22Zm-79.24-28.18c-3.07,1.69-4.94,5.43-5.38,9.89l32.46,11.42c-.73-4.1-2.4-10.37-8.06-15.34-2.27-1.99-12.35-9.63-19.02-5.96Z"/>
  <g>
    <g>
      <path class="cls-1" d="m113.22,139.83c-2.3-7.14-9.89-11.27-16.97-9.21-.38.11-.75.24-1.11.38l-1.54.72-4.76,2.65c-.37.16-1.86,1.46-2.03,1.76-.88,1.49-2.22,4.44-2.29,4.91-.08.55-.23,7.63.18,9.22s5.71,8,5.71,8l8.18.13c-.06-.04,3.36-.83,5.86-1.97,1.82-.83,3.48-1.47,3.6-1.52,0,0,0,0,0,0,4.78-3.12,7.05-9.2,5.17-15.06Zm-7.75,11.22h0c-.68.44-1.43.79-2.24,1.03-.02,0-.04.01-.05.02-4.71,1.37-9.78-1.38-11.31-6.14-1.22-3.81.18-7.75,3.2-9.88.53-.38,1.12-.7,1.74-.95.27-.11.54-.2.82-.28,4.71-1.37,6.32,2.21,7.85,6.98,1.26,3.92,3.19,7.15-.01,9.22Z"/>
      <path class="cls-6" d="m96.51,135.25l.06.15-1.8.8c.53-.38,1.12-.7,1.74-.95Z"/>
      <path class="cls-6" d="m105.17,151.17c-.68.44-1.43.79-2.24,1.03l2.24-1.03Z"/>
      <g>
        <path class="cls-19" d="m95.16,159.17c-5.75,0-11-3.86-12.78-9.4-1.08-3.37-.79-6.91.84-9.97,1.58-2.97,4.23-5.12,7.47-6.06,1.16-.34,2.36-.51,3.57-.51,5.74,0,11,3.86,12.78,9.4,1.08,3.37.79,6.91-.83,9.96-1.58,2.97-4.23,5.12-7.47,6.06-1.16.34-2.36.51-3.57.51h0Zm-.77-22.52c-.88,0-1.76.12-2.61.37-2.38.69-4.33,2.27-5.49,4.45-1.19,2.23-1.41,4.82-.61,7.29,1.29,4.03,5.12,6.84,9.31,6.84.88,0,1.76-.12,2.61-.37,2.38-.69,4.33-2.27,5.49-4.45,1.19-2.24,1.41-4.82.61-7.29-1.29-4.03-5.12-6.84-9.31-6.84Z"/>
        <path d="m94.26,133.74c5.53,0,10.59,3.72,12.3,9.05,1.04,3.24.76,6.64-.8,9.58-1.51,2.85-4.06,4.91-7.17,5.82-1.11.32-2.27.49-3.43.49-5.53,0-10.59-3.72-12.3-9.05-1.04-3.24-.76-6.65.8-9.58,1.51-2.85,4.06-4.91,7.17-5.81,1.12-.32,2.27-.49,3.43-.49m.73,22.37c.93,0,1.86-.13,2.75-.39,2.51-.73,4.57-2.4,5.79-4.7,1.25-2.36,1.48-5.08.65-7.68-1.36-4.23-5.39-7.19-9.79-7.19-.93,0-1.86.13-2.75.39-2.51.73-4.57,2.4-5.79,4.7-1.25,2.36-1.48,5.08-.65,7.68,1.36,4.23,5.38,7.19,9.79,7.19m-.73-23.37c-1.23,0-2.48.17-3.71.53-7.07,2.06-10.94,9.51-8.64,16.66,1.9,5.9,7.41,9.74,13.26,9.74,1.23,0,2.48-.17,3.71-.53,7.07-2.06,10.94-9.51,8.64-16.66-1.9-5.9-7.41-9.74-13.25-9.74h0Zm.73,22.37c-3.9,0-7.57-2.56-8.83-6.5-1.53-4.76,1.05-9.74,5.76-11.1.82-.24,1.65-.35,2.47-.35,3.9,0,7.57,2.56,8.83,6.5,1.53,4.76-1.05,9.74-5.76,11.1-.82.24-1.65.35-2.47.35h0Z"/>
      </g>
      <path class="cls-20" d="m87.54,136.59c-.15-.13-1.95.75-3.09,2.39-1.72,2.48-1.05,5.39-.88,5.39.12,0-.07-1.43.77-3.4,1.18-2.75,3.37-4.22,3.2-4.38Z"/>
      <path class="cls-20" d="m96.5,157.26c-.08-.33,3.47-.64,5.62-2.87,2-2.07,1.61-4.57,2.15-4.61.38-.03.85,1.21.63,2.46-.48,2.82-4.16,4.38-4.31,4.44-1.96.81-4.04.82-4.09.57Z"/>
      <path d="m112.06,141.24c.33-.05,2.6,5.29-1.05,9.97-1.74,2.23-4.39,3.77-4.65,3.61-.27-.17,2.43-2.2,4.18-5.44,2.46-4.54,1.25-8.11,1.51-8.15Z"/>
      <path d="m91.17,139.06c-.34-.09-2.96,2.28-3.56,5.28-.95,4.7,3.56,8.36,3.76,8.26.15-.07-2.2-2.09-2.44-5.68-.29-4.3,2.64-7.75,2.25-7.85Z"/>
      <path class="cls-3" d="m94.92,132.87l-.2-.78,2.19-.69s-.21-.81-.19-.75,1.67-.43,1.67-.43"/>
      <path class="cls-3" d="m97.63,133.04l-.22-.86,2.35-.75s-.23-.9-.21-.83,1.79-.46,1.79-.46"/>
      <path class="cls-3" d="m99.87,133.72l-.22-.86,2.35-.75s-.23-.9-.21-.83,1.79-.46,1.79-.46"/>
      <path class="cls-3" d="m101.64,134.58l-.09-1.06,2.66-.6s-.1-1.11-.09-1.02,2.02-.33,2.02-.33"/>
      <path class="cls-3" d="m103.38,135.88l-.09-1.06,2.66-.6s-.1-1.11-.09-1.02,2.02-.33,2.02-.33"/>
      <path class="cls-3" d="m104.99,137.42l-.09-1.06,2.66-.6s-.1-1.11-.09-1.02,2.02-.33,2.02-.33"/>
      <path class="cls-3" d="m106.07,139.1l.17-1.15,2.92-.25s.18-1.21.16-1.11,2.18-.06,2.18-.06"/>
      <path class="cls-3" d="m107.32,141.24l.17-1.15,2.92-.25s.18-1.21.16-1.11,2.18-.06,2.18-.06"/>
      <path class="cls-3" d="m107.84,143.12l.45-1.11,2.7.18s.48-1.17.44-1.07,1.98.26,1.98.26"/>
      <path class="cls-3" d="m108.21,145.22l.69-1.01,2.49.6s.73-1.06.67-.97,1.8.57,1.8.57"/>
      <path class="cls-3" d="m108.21,147.3l.92-.93,2.09.89s.97-.97.89-.89,1.47.78,1.47.78"/>
      <path class="cls-3" d="m107.93,149.68l.78-.79,1.82.78s.82-.82.75-.76,1.28.68,1.28.68"/>
      <path class="cls-3" d="m107.21,151.43l.9-.54,1.18,1.01s.94-.57.87-.52.79.83.79.83"/>
      <path class="cls-3" d="m106.07,153.53l.8-.48.87.72s.84-.51.77-.46.57.59.57.59"/>
      <path class="cls-3" d="m105.13,155.02l.79-.48.64.47s.83-.5.76-.46.39.41.39.41"/>
    </g>
    <ellipse class="cls-5" cx="94.31" cy="145.99" rx="9.63" ry="10.21" transform="translate(-34.52 29.33) rotate(-14.98)"/>
    <ellipse class="cls-23" cx="93.94" cy="146.34" rx="5.87" ry="6.85" transform="translate(-33.85 28.4) rotate(-14.6)"/>
    <path class="cls-20" d="m95.47,143.21c-.2.11.72,1.29.9,3.49.18,2.26-.57,3.67-.27,3.79.31.13,1.59-1.24,1.74-2.92.21-2.46-2.08-4.51-2.36-4.36Z"/>
  </g>
  <g>
    <g>
      <path class="cls-1" d="m55.45,115.78c-2.3-7.14-9.89-11.27-16.97-9.21-.38.11-.75.24-1.11.38l-1.54.72-4.76,2.65c-.37.16-1.86,1.46-2.03,1.76-.88,1.49-2.22,4.44-2.29,4.91-.08.55-.23,7.63.18,9.22s5.71,8,5.71,8l8.18.13c-.06-.04,3.36-.83,5.86-1.97,1.82-.83,3.48-1.47,3.6-1.52,0,0,0,0,0,0,4.78-3.12,7.05-9.2,5.17-15.06Zm-7.75,11.22h0c-.68.44-1.43.79-2.24,1.03-.02,0-.04.01-.05.02-4.71,1.37-9.78-1.38-11.31-6.14-1.22-3.81.18-7.75,3.2-9.88.53-.38,1.12-.7,1.74-.95.27-.11.54-.2.82-.28,4.71-1.37,6.32,2.21,7.85,6.98,1.26,3.92,3.19,7.15-.01,9.22Z"/>
      <path class="cls-6" d="m38.74,111.2l.06.15-1.8.8c.53-.38,1.12-.7,1.74-.95Z"/>
      <path class="cls-6" d="m47.4,127.12c-.68.44-1.43.79-2.24,1.03l2.24-1.03Z"/>
      <g>
        <path class="cls-19" d="m37.39,135.13c-5.75,0-11-3.86-12.78-9.4-1.08-3.37-.79-6.91.84-9.97,1.58-2.97,4.23-5.12,7.47-6.06,1.16-.34,2.36-.51,3.57-.51,5.74,0,11,3.86,12.78,9.4,1.08,3.37.79,6.91-.83,9.96-1.58,2.97-4.23,5.12-7.47,6.06-1.16.34-2.36.51-3.57.51h0Zm-.77-22.52c-.88,0-1.76.12-2.61.37-2.38.69-4.33,2.27-5.49,4.45-1.19,2.24-1.41,4.82-.61,7.29,1.29,4.03,5.12,6.84,9.31,6.84.88,0,1.76-.12,2.61-.37,2.38-.69,4.33-2.27,5.49-4.45,1.19-2.24,1.41-4.82.61-7.29-1.29-4.03-5.12-6.84-9.31-6.84Z"/>
        <path d="m36.49,109.7c5.53,0,10.59,3.72,12.3,9.05,1.04,3.24.76,6.64-.8,9.58-1.51,2.85-4.06,4.91-7.17,5.82-1.11.32-2.27.49-3.43.49-5.53,0-10.59-3.72-12.3-9.05-1.04-3.24-.76-6.65.8-9.58,1.51-2.85,4.06-4.91,7.17-5.81,1.12-.32,2.27-.49,3.43-.49m.73,22.37c.93,0,1.86-.13,2.75-.39,2.51-.73,4.57-2.4,5.79-4.7,1.25-2.36,1.48-5.08.65-7.68-1.36-4.23-5.38-7.19-9.79-7.19-.93,0-1.86.13-2.75.39-2.51.73-4.57,2.4-5.79,4.7-1.25,2.36-1.48,5.08-.65,7.68,1.36,4.23,5.38,7.19,9.79,7.19m-.73-23.37c-1.23,0-2.48.17-3.71.53-7.07,2.06-10.94,9.51-8.64,16.66,1.9,5.9,7.41,9.74,13.26,9.74,1.23,0,2.48-.17,3.71-.53,7.07-2.06,10.94-9.51,8.64-16.66-1.9-5.9-7.41-9.74-13.25-9.74h0Zm.73,22.37c-3.9,0-7.57-2.56-8.83-6.5-1.53-4.76,1.05-9.74,5.76-11.1.82-.24,1.65-.35,2.47-.35,3.9,0,7.57,2.56,8.83,6.5,1.53,4.76-1.05,9.74-5.76,11.1-.82.24-1.65.35-2.47.35h0Z"/>
      </g>
      <path class="cls-20" d="m29.78,112.54c-.15-.13-1.95.75-3.09,2.39-1.72,2.48-1.05,5.39-.88,5.39.12,0-.07-1.43.77-3.4,1.18-2.75,3.37-4.22,3.2-4.38Z"/>
      <path class="cls-20" d="m38.73,133.21c-.08-.33,3.47-.64,5.62-2.87,2-2.07,1.61-4.57,2.15-4.61.38-.03.85,1.21.63,2.46-.48,2.82-4.16,4.38-4.31,4.44-1.96.81-4.04.82-4.09.57Z"/>
      <path d="m54.29,117.19c.33-.05,2.6,5.29-1.05,9.97-1.74,2.23-4.39,3.77-4.65,3.61-.27-.17,2.43-2.2,4.18-5.44,2.46-4.54,1.25-8.11,1.51-8.15Z"/>
      <path d="m33.4,115.01c-.34-.09-2.96,2.28-3.56,5.28-.95,4.7,3.56,8.36,3.76,8.26.15-.07-2.2-2.09-2.44-5.68-.29-4.3,2.64-7.75,2.25-7.85Z"/>
      <path class="cls-3" d="m37.15,108.82l-.2-.78,2.19-.69s-.21-.81-.19-.75,1.67-.43,1.67-.43"/>
      <path class="cls-3" d="m39.86,109l-.22-.86,2.35-.75s-.23-.9-.21-.83,1.79-.46,1.79-.46"/>
      <path class="cls-3" d="m42.1,109.67l-.22-.86,2.35-.75s-.23-.9-.21-.83,1.79-.46,1.79-.46"/>
      <path class="cls-3" d="m43.88,110.54l-.09-1.06,2.66-.6s-.1-1.11-.09-1.02,2.02-.33,2.02-.33"/>
      <path class="cls-3" d="m45.61,111.83l-.09-1.06,2.66-.6s-.1-1.11-.09-1.02,2.02-.33,2.02-.33"/>
      <path class="cls-3" d="m47.22,113.37l-.09-1.06,2.66-.6s-.1-1.11-.09-1.02,2.02-.33,2.02-.33"/>
      <path class="cls-3" d="m48.3,115.05l.17-1.15,2.92-.25s.18-1.21.16-1.11,2.18-.06,2.18-.06"/>
      <path class="cls-3" d="m49.55,117.19l.17-1.15,2.92-.25s.18-1.21.16-1.11,2.18-.06,2.18-.06"/>
      <path class="cls-3" d="m50.07,119.08l.45-1.11,2.7.18s.48-1.17.44-1.07,1.98.26,1.98.26"/>
      <path class="cls-3" d="m50.44,121.18l.69-1.01,2.49.6s.73-1.06.67-.97,1.8.57,1.8.57"/>
      <path class="cls-3" d="m50.45,123.26l.92-.93,2.09.89s.97-.97.89-.89,1.47.78,1.47.78"/>
      <path class="cls-3" d="m50.16,125.64l.78-.79,1.82.78s.82-.82.75-.76,1.28.68,1.28.68"/>
      <path class="cls-3" d="m49.44,127.38l.9-.54,1.18,1.01s.94-.57.87-.52.79.83.79.83"/>
      <path class="cls-3" d="m48.31,129.48l.8-.48.87.72s.84-.51.77-.46.57.59.57.59"/>
      <path class="cls-3" d="m47.36,130.97l.79-.48.64.47s.83-.5.76-.46.39.41.39.41"/>
    </g>
    <ellipse class="cls-5" cx="36.55" cy="121.94" rx="9.63" ry="10.21" transform="translate(-30.27 13.59) rotate(-14.98)"/>
    <ellipse class="cls-23" cx="36.17" cy="122.29" rx="5.87" ry="6.85" transform="translate(-29.66 13.07) rotate(-14.6)"/>
    <path class="cls-20" d="m37.7,119.16c-.2.11.72,1.29.9,3.49.18,2.26-.57,3.67-.27,3.79.31.13,1.59-1.24,1.74-2.92.21-2.46-2.08-4.51-2.36-4.36Z"/>
  </g>
  <path class="cls-11" d="m197.77,118.05l-.12-.4c-.77-2.2,6.19-17.5-14.37-19.85-.11-.05-.24-.07-.37-.12-.14-.06-.28-.1-.43-.14l-27.58-7.89-16.83.7,2.57.65-62.71,15.56-41.18-12.05-5.07-1.48.89-.22-25.45-10.27c-2.2,1.05-3.94,3-5,5.43-1.02,2.39-1.4,5.25-.87,8.16l.07.41c.31,1.69.9,3.26,1.7,4.6-.22.54-.39,1.11-.51,1.69-.04.07-.05.16-.06.24l-.08.38c-1.35,6.52,2.06,13.44,7.59,15.38l8.64,3.04c.45-4.46,2.31-8.21,5.38-9.89,6.66-3.68,16.74,3.96,19.02,5.96,5.65,4.97,7.32,11.25,8.06,15.34l27.86,9.79c.61-4.01,2.45-7.32,5.28-8.88,6.66-3.69,16.74,3.96,19.02,5.96,5.17,4.54,7.01,10.16,7.84,14.22l10.9,3.82c1.11.38,2.23.54,3.31.49,2.12.68,4.42.66,6.6-.23l59.84-24.62c5.54-2.28,8.27-9.38,6.07-15.8Z"/>
  <path class="cls-27" d="m197.88,114.52c-.14,1-.24,1.75-.11,2.13l.13.4c2.2,6.4-.53,13.5-6.07,15.8l-59.85,24.61c-2.17.9-4.47.91-6.59.23-1.08.05-2.22-.1-3.32-.49l-10.9-3.82c-.83-4.06-2.67-9.68-7.83-14.22-1.05-.93-3.76-3.04-7.02-4.7,11.5,1.59,20.21,3.28,26.27,4.6,3.6.78,4.72,1.15,10.24.6l65.06-25.12Z"/>
  <path class="cls-22" d="m139.68,135.61l-6.6.58c-4.84.43-17.94-2.25-18.35-6.9h0c-.41-4.65,3.21-8.8,8.05-9.23l6.6-.58c4.84-.43,17.94,2.25,18.35,6.9.41,4.65-3.21,8.8-8.05,9.23Z"/>
  <path class="cls-22" d="m185.9,119.11l3.11-1.34c2.28-.98,6.77-7.1,4.91-11.42h0c-1.87-4.32-5.26-7.04-7.54-6.06l-3.11,1.34c-2.28.98-6.77,7.1-4.91,11.42,1.87,4.32,5.26,7.04,7.54,6.06Z"/>
  <path class="cls-26" d="m139,135.12l-6.6.59c-3.37.29-10.76-.93-15.06-3.27,7.54-1.14,15.54-2.7,23.91-4.82,1.96-.49,3.91-1.01,5.82-1.54.3,4.57-3.3,8.61-8.07,9.03Z"/>
  <path class="cls-26" d="m193.68,108.2c-.04,3.9-3.46,8.27-5.35,9.08l-3.12,1.33c-1.82.78-4.34-.78-6.23-3.64,5.23-2.22,10.13-4.49,14.7-6.78Z"/>
  <ellipse class="cls-13" cx="126.2" cy="127.03" rx="5.42" ry="6.61"/>
  <ellipse class="cls-13" cx="135.38" cy="128.19" rx="3.47" ry="4.24"/>
  <ellipse class="cls-13" cx="188.65" cy="106.94" rx="4.19" ry="5.29" transform="translate(-9.77 19.45) rotate(-5.75)"/>
  <ellipse class="cls-13" cx="185.57" cy="112.27" rx="2.68" ry="3.4" transform="translate(-10.32 19.16) rotate(-5.75)"/>
  <ellipse class="cls-25" cx="127.95" cy="127.26" rx="12.73" ry="10.94" transform="translate(-6.86 7.29) rotate(-3.18)"/>
  <ellipse class="cls-14" cx="188.1" cy="106.65" rx="9.4" ry="8.14" transform="translate(-5.62 10.59) rotate(-3.18)"/>
  <ellipse class="cls-17" cx="135.81" cy="129.02" rx="6.99" ry="5.81" transform="translate(-6.97 7.76) rotate(-3.19)"/>
  <ellipse class="cls-16" cx="184.61" cy="112.76" rx="6.99" ry="5.81" transform="translate(-5.99 10.45) rotate(-3.19)"/>
  <path class="cls-21" d="m105.12,131.23c3.62-2.13,4.63-6.06,10.84-9.61.8-.45,2.51-1.38,2.41-2.4-.12-1.31-3.13-2.04-4.82-2.4-10.65-2.28-30.02-2.83-40.95-4.81-14.78-2.67-22.53-9.43-24.09-7.21-1.34,1.9,3.52,8.07,8.43,12.01,5.21,4.18,8.66,4.4,21.68,8.41,18.7,5.76,22.14,8.57,26.5,6.01Z"/>
  <path class="cls-22" d="m9.96,86.78c-1.64-.28-5.65,6.37-3.61,10.81,1.06,2.31,3.39,3.2,8.43,4.81,5.76,1.83,22.6,7.01,22.89,6.01.08-.27-1.55-.99-4.82-2.4-13.82-5.99-17.8-5.65-20.48-9.61-3.01-4.45-1.02-9.37-2.41-9.61Z"/>
  <path class="cls-22" d="m5.14,104.8c0,.07,0,.17,0,.29.06,3.87,1.65,6.93,2.41,8.12,3.05,4.78,9.65,5.98,9.64,6.01,0,0-1.06-.31-2.41-1.2-1.77-1.17-2.91-2.57-3.61-3.6"/>
  <path class="cls-22" d="m174.98,104.8c3.67-2.02,7.68-4.56,7.23-6.01-.25-.81-1.77-.93-3.61-1.2-8.13-1.21-13.12-3.96-13.25-3.6-.1.26,2.56,1.62,13.25,6.01-1.2,1.6-2.41,3.2-3.61,4.81Z"/>
  <path class="cls-22" d="m149.68,124.02c-3.43-3.18-7.8-6.6-13.25-9.61-15.96-8.83-31.66-8.97-39.75-8.41,2.93-.61,7.08-1.23,12.05-1.2,4.41.02,14.48.19,25.29,6.01,7.56,4.06,12.6,9.33,15.66,13.22Z"/>
  <path class="cls-22" d="m177.39,114.41c-2.28-2.76-5.29-5.85-9.22-8.83-11.5-8.74-24.03-11.43-30.58-12.37,2.43.07,5.84.32,9.81,1.16,3.53.74,11.55,2.52,19.37,8.33,5.46,4.06,8.74,8.53,10.63,11.72Z"/>
  <path class="cls-15" d="m107.53,138.44c1.67,1.81,3.74,4.59,4.82,8.41.72,2.53.38,3.31,1.2,4.81,2.82,5.08,11.89,5.36,12.05,4.81.12-.43-5.41-.53-8.43-4.81-2.41-3.41-1.01-6.36-3.61-9.61-1.77-2.21-4.27-3.15-6.02-3.6Z"/>
  <path class="cls-24" d="m195.46,118.02c.38,1.59.62,3.71,0,6.01-1.24,4.57-5.12,6.83-4.82,7.21.3.36,4.5-1.12,6.02-4.81,1.65-3.98-.89-7.94-1.2-8.41Z"/>
  <path class="cls-24" d="m20.8,93.99c-.2.37,3.13,2.99,7.23,4.81,7.16,3.18,14.37,2.93,14.45,2.4.06-.4-4.14-.82-12.05-3.6-6.1-2.15-9.44-3.96-9.64-3.6Z"/>
  <path class="cls-24" d="m88.25,109.61c-.01-.44,5.88-1.25,12.05-1.2,13.34.11,24.22,4.23,24.09,4.81-.09.43-6.25-1.27-19.27-2.4-10.35-.9-16.85-.74-16.86-1.2Z"/>
  <path class="cls-24" d="m148.48,92.79c-.03.19,7.71-.25,15.66,4.81,5.1,3.24,8.2,7.42,8.43,7.21.2-.18-1.79-3.39-4.82-6.01-8-6.92-19.24-6.23-19.27-6.01Z"/>
  <path class="cls-24" d="m14.78,114.41c-.41-.4,1.42-3.62,4.46-5.31.59-.33,1.13-.55,1.57-.7,2.88-.99,5.96-.54,6.02,0,.06.48-2.32.61-6.02,2.4-4.03,1.95-5.67,3.94-6.02,3.6Z"/>
  <path class="cls-24" d="m87.05,130.03c-.13-.38-10.19.61-12.05,6.01-.51,1.49-.45,3.47,0,3.6.48.14,1.19-1.86,2.41-3.6,3.52-5.03,9.73-5.71,9.64-6.01Z"/>
  <path class="cls-12" d="m140.67,91.32l-63.7,16.12-9.9-15.78c-1.91-3.05-.24-6.98,3.34-7.89l52.48-13.28c2.4-.61,4.95.38,6.23,2.42l11.55,18.41Z"/>
  <path class="cls-9" d="m117.76,74.34c.04.43,3.57-1.22,7.25.97,4.75,2.83,6.15,9.91,6.52,9.67.39-.26-.48-8.68-5.07-11.6-4.02-2.55-8.74.47-8.7.97Z"/>
  <path class="cls-9" d="m88.61,99.53c-.17-.4-3.05,2.22-7.21,1.2-5.37-1.31-8.8-7.67-9.09-7.33-.3.36,3.02,8.16,8.27,9.6,4.6,1.26,8.22-3.01,8.03-3.48Z"/>
  <g>
    <path class="cls-10" d="m177.28,134.28l-19.37,8.64c-1.76.79-3.8-.26-4.18-2.15l-.45-2.25c-.28-1.39-4.2-1.7-2.89-2.26l28.32-11.22c1.92-.82.12,2.2.24,4.28l.12,2.04c.07,1.25-.64,2.4-1.78,2.91Z"/>
    <g>
      <line class="cls-10" x1="153.34" y1="138.89" x2="178.77" y2="127.74"/>
      <line class="cls-10" x1="154.26" y1="140.86" x2="178.8" y2="130.4"/>
    </g>
  </g>
</svg>