<?xml version="1.0" encoding="UTF-8"?>
<svg id="_Слой_1" data-name="Слой 1" xmlns="http://www.w3.org/2000/svg" viewBox="0 0 200 200">
  <defs>
    <style>
      .cls-1 {
        fill: #b3a17b;
        stroke: #736357;
      }

      .cls-1, .cls-2, .cls-3, .cls-4, .cls-5, .cls-6, .cls-7 {
        stroke-miterlimit: 10;
      }

      .cls-8 {
        fill: #fff;
      }

      .cls-2 {
        fill: #999;
      }

      .cls-2, .cls-4, .cls-6 {
        stroke: #666;
      }

      .cls-3 {
        fill: #3eac4d;
        stroke: #006837;
      }

      .cls-9 {
        fill: #333;
      }

      .cls-4 {
        fill: #b3b3b3;
      }

      .cls-10 {
        fill: gray;
      }

      .cls-5 {
        fill: #1f2326;
        stroke: #000;
      }

      .cls-6, .cls-11 {
        fill: #ccc;
      }

      .cls-7 {
        fill: #ff0;
        stroke: #f15a24;
      }

      .cls-12 {
        fill: #fbb03b;
      }
    </style>
  </defs>
  <g>
    <g>
      <path class="cls-4" d="m158.32,141.18l-.93.63c-.87.59-2.07.39-2.68-.46l-21.34-29.69c-.61-.85-.4-2.03.47-2.62l.93-.63c.87-.59,2.07-.39,2.68.46l21.34,29.69c.61.85.4,2.03-.47,2.62Z"/>
      <path class="cls-8" d="m158.48,139.58c-.04-.09-.67.1-1.24.07-1.5-.09-2.9-1.72-4.98-4.49-2.9-3.85-4.01-5.75-4.06-5.74-.1.04,5.2,10.95,8.58,10.85.74-.02,1.76-.58,1.7-.69Z"/>
    </g>
    <g>
      <g>
        <polygon class="cls-10" points="45.58 150.75 44.19 150.78 43.3 113.59 44.69 113.56 45.58 150.75"/>
        <polygon class="cls-10" points="62.9 130.64 62.91 132.05 26.05 132.29 26.05 130.89 62.9 130.64"/>
        <polygon class="cls-10" points="57.89 118.74 58.82 119.79 31.37 144.64 30.44 143.6 57.89 118.74"/>
        <polygon class="cls-10" points="53.58 147.96 52.34 148.59 35.68 115.43 36.92 114.79 53.58 147.96"/>
        <polygon class="cls-10" points="29.01 121.82 29.79 120.66 60.25 141.57 59.47 142.73 29.01 121.82"/>
        <polygon class="cls-10" points="51.08 114.25 52.36 114.79 38.18 149.14 36.9 148.6 51.08 114.25"/>
        <polygon class="cls-10" points="61.55 124.28 62.06 125.58 27.71 139.11 27.2 137.8 61.55 124.28"/>
        <polygon class="cls-10" points="62.64 135.68 62.29 137.04 26.62 127.71 26.97 126.35 62.64 135.68"/>
      </g>
      <g>
        <path class="cls-5" d="m46.25,105.2c-15.91-.86-29.45,10.21-30.24,24.72s11.48,26.98,27.39,27.84,29.45-10.21,30.24-24.72c.79-14.52-11.48-26.98-27.39-27.84Zm-2.37,43.81c-9.97-.54-17.64-8.67-17.12-18.15.51-9.48,9.01-16.73,18.98-16.19,9.97.54,17.64,8.67,17.12,18.15s-9.01,16.73-18.98,16.19Z"/>
        <path class="cls-11" d="m39.46,108.35c-.31-.65-7.82.69-13.57,6.29-6.12,5.96-7.57,14.13-7.05,14.38.36.17,1.65-3.53,5.32-8.15,7.13-8.97,15.65-11.81,15.3-12.53Z"/>
        <path class="cls-11" d="m44.05,152.18c0-.16,2.55.07,6.33-1.06,1.81-.55,8.19-2.56,12.3-8.47,2.95-4.25,3.18-8.28,3.23-8.26.08.02-.3,10.94-7.12,15.78-5.96,4.23-14.72,2.31-14.73,2.01Z"/>
      </g>
    </g>
    <g>
      <g>
        <polygon class="cls-10" points="158.81 159.02 157.62 159.05 156.82 127.79 158.01 127.76 158.81 159.02"/>
        <polygon class="cls-10" points="173.65 142.14 173.66 143.32 142.04 143.49 142.04 142.31 173.65 142.14"/>
        <polygon class="cls-10" points="169.34 132.13 170.13 133.01 146.62 153.88 145.82 153 169.34 132.13"/>
        <polygon class="cls-10" points="165.67 156.68 164.61 157.22 150.28 129.32 151.35 128.79 165.67 156.68"/>
        <polygon class="cls-10" points="144.57 134.69 145.24 133.71 171.39 151.32 170.72 152.29 144.57 134.69"/>
        <polygon class="cls-10" points="163.49 128.35 164.59 128.8 152.46 157.66 151.36 157.2 163.49 128.35"/>
        <polygon class="cls-10" points="172.48 136.79 172.92 137.89 143.47 149.22 143.03 148.12 172.48 136.79"/>
        <polygon class="cls-10" points="173.43 146.37 173.13 147.51 142.52 139.64 142.82 138.5 173.43 146.37"/>
      </g>
      <g>
        <path class="cls-5" d="m159.34,120.74c-13.65-.74-25.25,8.55-25.91,20.75-.66,12.2,9.87,22.69,23.52,23.43s25.25-8.55,25.91-20.75c.66-12.2-9.87-22.69-23.52-23.43Zm-1.99,36.82c-8.55-.46-15.14-7.3-14.71-15.27s7.71-14.06,16.27-13.59,15.14,7.3,14.71,15.27-7.71,14.06-16.27,13.59Z"/>
        <path class="cls-11" d="m153.52,123.38c-.27-.55-6.71.57-11.64,5.28-5.24,5.01-6.48,11.87-6.03,12.08.31.14,1.41-2.97,4.55-6.84,6.1-7.53,13.41-9.91,13.11-10.51Z"/>
        <path class="cls-11" d="m157.5,160.22c0-.14,2.19.07,5.42-.89,1.55-.46,7.02-2.15,10.54-7.11,2.53-3.57,2.72-6.95,2.77-6.94.07.02-.25,9.2-6.09,13.26-5.11,3.55-12.62,1.93-12.64,1.68Z"/>
      </g>
    </g>
    <path class="cls-4" d="m135.29,117.42c-2.21-2.86-6.79-4.11-15.85-6.51-7.44-1.97-11.23-2.93-14.46-2.2-7.09,1.62-10.4,7.47-11,8.59-.45.84-3.27,6.34-.69,12.67,2.71,6.66,10.54,12.17,17.2,11.52,5.03-.49,4.69-4.03,13.38-7.75,6.96-2.98,10.2-2,12.42-4.98,2.4-3.21,1.46-8.17-1.01-11.35Z"/>
    <path class="cls-4" d="m149.27,140.82c3.78,1.7,7.01,3.45,8.51,2.91,1.49-.53.63-3.09-.99-4.99-2.13-2.51-4.98-3.2-9.01-5.41-7.16-3.92-5.68-5.84-11.32-8.87-6.57-3.53-16.92-5.39-19.57-3.34-2.37,1.83,1.29,6.91,5.98,10.19,6.9,4.83,12.27,3.15,26.39,9.5Z"/>
    <path class="cls-8" d="m119.5,122.35c.11-.03.64,1.41.86,1.93,2.77,6.54,16.96,8.8,16.83,9.38-.11.53-12.1,1.35-16.08-5.58-1.37-2.39-1.78-5.69-1.62-5.74Z"/>
    <path class="cls-8" d="m102.77,111.09c-.35-.3-4.01,2.15-6.12,6.26-2.28,4.46-1.9,9.26-1.47,9.34.32.05.57-2.5,2.28-6.47,2.53-5.89,5.66-8.83,5.31-9.13Z"/>
    <ellipse class="cls-4" cx="153.47" cy="139.96" rx="2.12" ry="2.65" transform="translate(5.42 285.64) rotate(-86.9)"/>
    <path class="cls-8" d="m153.32,138.3c.04.09-.81.27-1.01.89-.28.86.96,1.83.86,1.93-.12.11-2.17-.94-1.82-1.98.28-.85,1.92-.96,1.97-.83Z"/>
    <path class="cls-9" d="m154.01,141.44c0-.1.86-.02,1.24-.55.53-.74-.35-2.03-.23-2.09.15-.07,1.78,1.53,1.13,2.42-.53.73-2.13.35-2.14.22Z"/>
    <path class="cls-6" d="m83.3,114.74c-1.56,1.62-5.09,5.81-4.48,11.61.18,1.69.85,6.99,7.08,11.64,10.64,7.94,28.15,7.01,29.49,6.93,20.33-4.77,40.66-9.54,60.98-14.31-.92-1.88-1.83-3.76-2.75-5.64-19.78,4.53-39.56,9.05-59.34,13.58-2.16.19-5.57.28-9.61-.52-3.37-.67-15.11-3-16.78-10.32-.19-.82-.96-4.84,3.44-10.17-2.68-.93-5.36-1.86-8.04-2.79Z"/>
    <path class="cls-8" d="m82.14,118.44c.06,0-1.24,3.33-.41,7.51,1.75,8.75,11.27,13.14,10.82,13.77-.36.51-7.22-1.48-10.21-7.14-3.33-6.3-.28-14.14-.2-14.13Z"/>
    <path class="cls-8" d="m116.61,140.08c-.05-.2,12.28-3.37,24.42-6.21,16.39-3.83,32.1-6.96,32.16-6.73.07.28-23.16,5.62-32.21,7.67-5.13,1.16-24.31,5.52-24.37,5.27Z"/>
    <path class="cls-3" d="m158.08,103.79c.28-2.9,36.53-.99,36.77-2.94.24-1.96-21.23-10.67-62.21-7.59-14.3,1.08-17.58,2.81-29.01,1.95-22.65-1.7-29.32-9.96-47.69-8.92-16.28.93-27.89,8.38-27.47,9.07.44.71,12.99-6.45,25.24-3.56,18.26,4.31,18.96,26.99,32.21,27.79,8.31.5,12.36-8.16,24.47-7.12,3.68.32,9.88,1.68,11.45,2.03,5.79,1.28,7.63,2.07,10.45,2.68,0,0,.81.16,1.49.27,3.27.54,8.98-.46,13.57-2.63,7.34-3.47,9.93-9.06,10.71-11.03Z"/>
    <g>
      <path class="cls-4" d="m43.69,134.11l-.87-.71c-.81-.67-.92-1.86-.24-2.65l23.82-27.71c.68-.79,1.9-.89,2.71-.23l.87.71c.81.67.92,1.86.24,2.65l-23.82,27.71c-.68.79-1.9.89-2.71.23Z"/>
      <path class="cls-1" d="m58.4,117.85l-1.54-1.26c-1.4-1.15-1.59-3.21-.41-4.58l27.86-32.41c1.18-1.37,3.28-1.54,4.69-.39l1.54,1.26c1.4,1.15,1.59,3.21.41,4.58l-27.86,32.41c-1.18,1.37-3.28,1.54-4.69.39Z"/>
      <path class="cls-8" d="m45.31,133.85c.07-.06-.28-.6-.39-1.15-.3-1.44.95-3.18,3.15-5.85,3.05-3.72,4.65-5.26,4.62-5.29-.06-.09-9.48,7.69-8.51,10.87.21.69,1.03,1.52,1.13,1.43Z"/>
      <path class="cls-8" d="m85.02,81.4c-.37-.32-8.01,7.4-13.91,14.31-6.74,7.89-13.39,17.27-12.98,17.58.77.58,27.62-31.26,26.9-31.89Z"/>
    </g>
    <path class="cls-8" d="m69.66,90.94c.06-.4-4.76-1.65-9.5-2.28,0,0-1.03-.14-1.92-.22-7.31-.69-18.48,1.19-18.4,1.83.05.46,5.75-.5,17.34,0,7.69.33,12.43,1.07,12.49.68Z"/>
    <path class="cls-8" d="m80.73,108.95c-.32.63,1.57,2.2,2.73,2.97,2.22,1.48,4.5,1.87,5.92,2,6.75.62,13.69-2.88,13.44-3.78-.21-.76-5.27,1.44-13.5.21-4.73-.7-8.19-2.19-8.59-1.41Z"/>
    <path class="cls-8" d="m136.24,115.72c-.03-.16,3.73-.46,7.74-3.32.13-.1.62-.44,1.16-.9,3.91-3.3,4.48-6.9,6.27-9.08,2.17-2.64,5.79-2.79,12.69-3.08,10.48-.44,19.19,2.44,19.11,2.92-.06.33-4.41-.56-13.45-.73-7.44-.14-11.2-.18-13.55,1.15-5.06,2.87-3.71,7.3-9.25,10.8-5,3.15-10.68,2.44-10.72,2.24Z"/>
    <path class="cls-2" d="m89.42,84.53l-4.4-3.14c-1.8-1.28-2.2-3.77-.89-5.52l4.93-6.61c1.31-1.75,3.85-2.14,5.65-.86l4.4,3.14c1.8,1.28,2.2,3.77.89,5.52l-4.93,6.61c-1.31,1.75-3.85,2.14-5.65.86Z"/>
    <path class="cls-3" d="m63.19,85.88c-.03-.78-.27-11.19,8.65-17.42,8.27-5.77,17.45-3.08,18.45-2.77-3.84,1.77-8.22,4.59-9.15,8.92-1.6,7.43,7.78,15.54,6.82,16.37-.81.71-6.07-6.37-14.05-7.35-4.19-.51-7.93.8-10.72,2.24Z"/>
    <path class="cls-8" d="m77.2,67.34h0c-.47.39-3.39,2.84-3.24,6.42.19,4.38,4.86,7.28,5.41,6.88.56-.41-3.43-4.14-2.48-7.67.96-3.53,6.45-5.17,10.92-6"/>
    <path class="cls-7" d="m63.6,69.42c-3.46,1.23-5.05,6.95-5.36,10.07-.2,2.03-.4,3.97.71,4.75,2.25,1.57,6.36-4.18,12.74-4.02,5.64.14,8.9,4.79,9.4,4.27.95-.97-10.56-17.53-17.49-15.07Z"/>
    <ellipse class="cls-5" cx="94.44" cy="78.15" rx="4.7" ry="4.81" transform="translate(11.29 168.23) rotate(-86.9)"/>
    <path class="cls-5" d="m95.75,89.52c-3.67,2.07-5.99,7.34-4.4,10.12,1.94,3.39,9.07,2.02,25.03.41,27.79-2.8,35.17-1.58,35.9-4.65.9-3.8-9.02-11.67-18.65-11.37-8.6.27-9.99,6.84-19.67,7.41-8.97.53-13.1-4.8-18.2-1.93Z"/>
  </g>
  <path class="cls-7" d="m110.5,106.5c-1.75.79-3.1,1.48-3,2,.19.96,5.07.06,11,1,6.96,1.1,7.6,3.51,12,4,10.15,1.12,19.48-10.3,19-11-.43-.62-9.77,5.58-11,4-.67-.87,1.6-3.4,1-4-1-.99-7.75,5.57-10,4-1.1-.77.14-2.6-1-4-2.46-3.01-11.77,1.19-18,4Z"/>
  <path class="cls-12" d="m116.52,107.57c-1.15.32-2.04.61-2.01.91.06.56,3.18.4,6.83,1.36,4.29,1.13,4.54,2.54,7.26,3.13,6.29,1.37,12.89-4.41,12.63-4.84-.23-.38-6.49,2.44-7.16,1.46-.37-.54,1.23-1.81.89-2.19-.56-.63-5.22,2.59-6.53,1.54-.64-.52.26-1.46-.37-2.33-1.35-1.88-7.46-.18-11.55.96Z"/>
</svg>