<?xml version="1.0" encoding="UTF-8"?>
<svg id="_Слой_1" data-name="Слой 1" xmlns="http://www.w3.org/2000/svg" viewBox="0 0 200 200">
  <defs>
    <style>
      .cls-1 {
        fill: #ffaf73;
      }

      .cls-1, .cls-2, .cls-3, .cls-4, .cls-5 {
        stroke: #000;
        stroke-miterlimit: 10;
      }

      .cls-6 {
        fill: #d3e6f4;
      }

      .cls-7 {
        fill: #e5c528;
      }

      .cls-2 {
        fill: #89a6c6;
      }

      .cls-3 {
        fill: #ffe964;
      }

      .cls-8 {
        fill: #8e3730;
      }

      .cls-4 {
        fill: #62af76;
      }

      .cls-9 {
        fill: #54728c;
      }

      .cls-10 {
        fill: #38844a;
      }

      .cls-5 {
        fill: #d85b4e;
      }

      .cls-11 {
        fill: #e28242;
      }
    </style>
  </defs>
  <rect class="cls-2" x="131.5" y="40.5" width="20" height="37" rx="10" ry="10"/>
  <ellipse class="cls-4" cx="154" cy="101" rx="23.5" ry="30.5"/>
  <path class="cls-4" d="m101.04,46.5H22.96c-4.65,0-8.46,3.81-8.46,8.46v69.08c0,4.65,3.81,8.46,8.46,8.46h78.08c4.65,0,8.46-3.81,8.46-8.46V54.96c0-4.65-3.81-8.46-8.46-8.46Zm-2.54,46c0,6.6-5.4,12-12,12h-46c-6.6,0-12-5.4-12-12v-22c0-6.6,5.4-12,12-12h46c6.6,0,12,5.4,12,12v22Z"/>
  <rect class="cls-2" x="104.5" y="70.5" width="54" height="62" rx="7.18" ry="7.18"/>
  <rect class="cls-4" x="50.5" y="141.5" width="127" height="24" rx="12" ry="12"/>
  <rect class="cls-3" x="147.5" y="69.5" width="14" height="64" rx="7" ry="7"/>
  <rect class="cls-3" x="55.5" y="74.5" width="23" height="107" rx="7" ry="7" transform="translate(-61 195) rotate(-90)"/>
  <rect class="cls-2" x="7.5" y="129.5" width="170" height="12" rx="6" ry="6"/>
  <path class="cls-1" d="m186.5,183.5h-15c-6.6,0-12-5.97-12-13.27v-30.96c0-7.3,5.4-13.27,12-13.27h2c6.6,0,5,13.27,9,21.01l10,27.64c0,7.3-4,8.85-6,8.85Z"/>
  <circle class="cls-1" cx="47" cy="155" r="28.5"/>
  <ellipse class="cls-1" cx="97" cy="165.5" rx="19.5" ry="18"/>
  <ellipse class="cls-1" cx="138" cy="165.5" rx="19.5" ry="18"/>
  <circle class="cls-2" cx="47" cy="155" r="5.5"/>
  <circle class="cls-2" cx="97" cy="166" r="5.5"/>
  <path class="cls-11" d="m98.94,153.1c.56.14,7.12,1.94,9.5,8.5,1.73,4.78.56,10.2-3,14,4.69-2.53,7.28-7.62,6.5-12.5-.93-5.82-6.51-10.33-13-10Z"/>
  <path class="cls-6" d="m93,175c.06-.16-4.44-.57-7-4-3.8-5.08-.41-12.86-1-13-.57-.13-4.82,6.89-2,12,2.63,4.77,9.93,5.2,10,5Z"/>
  <path class="cls-11" d="m53.67,131.5c.62-.84,10.82,2.36,15,11,4.64,9.59-.49,21.07-1,21-.36-.05,1.79-5.77,0-13-3.03-12.27-14.69-18.05-14-19Z"/>
  <circle class="cls-2" cx="138" cy="166" r="5.5"/>
  <path class="cls-3" d="m102.59,151.76c.82,2.04-.18,4.38-2.22,5.2l-51.97,20.86c-2.04.82-4.38-.18-5.2-2.22-.82-2.04.18-4.38,2.22-5.2l51.97-20.86c2.04-.82,4.38.18,5.2,2.22Z"/>
  <path class="cls-5" d="m110.52,55.5H11.48c-3.84,0-6.98-2.28-6.98-5.07,0,0,27.14-17.43,30.98-17.43l47.03.73c3.84,0,34.98,16.71,34.98,16.71,0,2.79-3.14,5.07-6.98,5.07Z"/>
  <path class="cls-5" d="m121.53,26.79l38.51-.84c1.49-.03,2.77,2.22,2.83,5.01,0,0-10.18,17.66-11.67,17.69l-18.31-.33c-1.49.03-13.97-16.41-13.97-16.41-.06-2.79,1.11-5.09,2.61-5.13Z"/>
  <path class="cls-6" d="m142.5,43.5c-.12-.35,3.15-.81,7-4,5.61-4.64,6.79-10.34,8-10,.92.26,1.46,3.94,0,7-3.22,6.74-14.78,7.64-15,7Z"/>
  <path class="cls-8" d="m60,36c-5.09-.44-13.91-.54-24,3-12.4,4.35-21.4,12.33-21,13,.26.43,4.49-2.05,11-5,7.6-3.45,18.89-7.8,34-11Z"/>
  <path class="cls-11" d="m88,172l-3-6"/>
  <path class="cls-11" d="m141.19,152.5c.56.14,7.12,1.94,9.5,8.5,1.73,4.78.56,10.2-3,14,4.69-2.53,7.28-7.62,6.5-12.5-.93-5.82-6.51-10.33-13-10Z"/>
  <path class="cls-11" d="m174,130c-.62-1.07-7.06-.17-10,4-1.33,1.89-1.55,5.26-2,12-.12,1.82-.32,4.95,0,5,.41.06.55-4.93,3-10,3.58-7.4,9.64-9.89,9-11Z"/>
  <path class="cls-11" d="m163,161c-.85.13-2.3,9.57,3,15,2.33,2.39,5.44,3.46,7,4,3.35,1.16,6.88,1.45,7,1,.15-.58-5.51-1.09-10-5-6.68-5.82-6.15-15.13-7-15Z"/>
  <path class="cls-7" d="m156.5,73.5c-.4-.75-3.25-.55-5,1-.86.76-1.53,1.91-2,6-.52,4.54-.38,8.98,0,9,.43.02-.5-5.78,3-11,2-2.98,4.41-4.23,4-5Z"/>
  <path class="cls-7" d="m18,127c-.3-2.7.42-4.19,1-5,1.15-1.59,3.17-2.45,16-3,1.16-.05,6.98-.29,7,0,.03.35-8.18.09-17,4-3.08,1.36-5.44,2.89-7,4Z"/>
  <path class="cls-7" d="m117,127c.95-.47.83-4-1-6-1.7-1.86-4.29-1.96-6-2-7.56-.18-19.06.17-19,1,.07.98,15.96-1.84,23,5,.76.74,2.23,2.38,3,2Z"/>
  <path class="cls-7" d="m48,175c-.2-.34,1.34-1.62,3-3,1.45-1.2,2.62-1.98,3.1-2.29,0,0,1.47-.95,3.07-1.72,3.57-1.74,10.5-3.8,10.83-2.99.44,1.06-10.92,6.48-12,7-1.23.59-7.63,3.64-8,3Z"/>
  <path class="cls-7" d="m151,112c.27.03-2.36,9.49,2,13,1.76,1.42,4.02,1.34,4,2-.03.85-3.84,2.3-6,1-4.45-2.67-.32-16.04,0-16Z"/>
  <path class="cls-10" d="m30.5,58.5c1.08,1.05-3.16,5.83-6,12-7.2,15.64-1.11,30.85-2,31-1.17.2-11.95-25.86-1-38,3.04-3.37,8.01-5.96,9-5Z"/>
  <path class="cls-10" d="m164,126c-.4-.33,3.3-3.72,6-11,2.54-6.86,2.29-12.01,3-12,.66.01,1.77,4.44,1,9-1.5,8.83-9.45,14.45-10,14Z"/>
  <path class="cls-9" d="m124.5,74.5s-5.14-1.49-9,1c-7.74,5-3.73,21.86-5,22-1.21.14-7.02-14.99-1-21,4.74-4.73,15-2.04,15-2Z"/>
  <path class="cls-9" d="m126,124c-.06-.52,7.84.32,13-5,5.42-5.59,3.97-14.01,5-14,1.07.01,4.32,9.08,0,15-5.24,7.18-17.92,4.65-18,4Z"/>
  <path class="cls-6" d="m148.55,66c-.52,0,.52-5.38-3-10-2.67-3.51-6.25-4.33-6-5,.28-.75,5.13-.8,8,2,4.44,4.32,1.66,13,1,13Z"/>
  <path class="cls-8" d="m129,29c.41.14-.33,1.83,0,4,.88,5.76,8.34,8.31,8,9-.37.75-9.94-.53-11-6-.67-3.46,2.35-7.22,3-7Z"/>
  <path class="cls-6" d="m165,80c-.82.93,3.9,4.67,6,12,1.25,4.35.72,7,1,7,.58,0,3.42-11.77-2-17-1.86-1.8-4.47-2.6-5-2Z"/>
  <path class="cls-6" d="m186,179c-.97-3.02-2.38-7.51-4-13-2.93-9.9-4.39-14.85-4-15,.61-.23,5.06,7.44,7,17,.9,4.46,1.05,8.28,1,11Z"/>
  <path class="cls-6" d="m132.69,177c.46-.58-5.39-3.55-7-10-1.72-6.88,2.66-12.68,2-13-.76-.36-7.92,6.72-6,14,1.8,6.82,10.47,9.67,11,9Z"/>
  <path class="cls-6" d="m37.17,135c.38.5-5.48,3.29-8,10-2.89,7.69.77,14.77,0,15-.83.24-6.4-7.49-4-15,2.42-7.57,11.55-10.59,12-10Z"/>
  <path class="cls-6" d="m99,154c.26.71-7.13,4.05-12,6-4.42,1.77-8.74,3.51-9,3-.34-.68,6.52-5.59,15-8,1.98-.56,5.82-1.5,6-1Z"/>
  <path class="cls-6" d="m138.06,73.89c-.52.86,2.62,2.94,4.8,7.45,3.16,6.55,1.58,12.63,2.06,12.66.68.05,4.49-12.41-.69-17.87-2.19-2.31-5.67-3.04-6.17-2.23Z"/>
  <path class="cls-6" d="m78,113c1.47.18,8.58.91,15-4,7.64-5.84,7.98-14.83,8-16,.46,1.04,3.34,7.92,0,14-3.68,6.7-13.54,9.91-23,6Z"/>
  <path class="cls-6" d="m71,37c-.14.67,6.43,1.92,20,7,12.15,4.55,17.68,7.59,18,7,.38-.7-6.75-6.29-16-10-11.07-4.44-21.82-4.84-22-4Z"/>
</svg>