<?xml version="1.0" encoding="UTF-8"?>
<svg id="_Слой_1" data-name="Слой 1" xmlns="http://www.w3.org/2000/svg" viewBox="0 0 200 200">
  <defs>
    <style>
      .cls-1 {
        fill: #aa0056;
        stroke-linejoin: round;
      }

      .cls-1, .cls-2, .cls-3, .cls-4 {
        stroke: #000;
      }

      .cls-2 {
        fill: #ffd694;
      }

      .cls-2, .cls-3, .cls-4 {
        stroke-miterlimit: 10;
      }

      .cls-5 {
        opacity: .44;
      }

      .cls-6 {
        fill: #f7931e;
      }

      .cls-3 {
        fill: #ff0;
      }

      .cls-4 {
        fill: #6adfff;
      }
    </style>
  </defs>
  <path class="cls-1" d="m162.09,55.25v68.4l-13.58-52.38-6.36,52.63-2.16,17.93-5.1-17.83-12.94-45.24-5.58,45.48-2.8,22.73-5.14-22.62-9.95-43.9-10.01,44.15-5.08,22.37-3.19-22.26-6.62-46.16-10,46.38-3.83,17.76-2.8-17.68-8.5-53.74-13.44,54.01c-.1-.54-.14-1.08-.14-1.63V55.25h127.2Z"/>
  <path class="cls-4" d="m59.77,142.68c-14.05-4.07-23.46-10.31-24.73-17.39h0s13.44-54.02,13.44-54.02l8.5,53.74,2.8,17.68Z"/>
  <path class="cls-4" d="m83.41,146.97c-8.72-.79-16.74-2.28-23.64-4.28l3.83-17.76,10-46.38,6.62,46.16,3.19,22.26Z"/>
  <path class="cls-4" d="m113.58,146.97c-4.84.44-9.89.68-15.08.68s-10.25-.24-15.08-.68l5.08-22.37,10.01-44.15,9.95,43.9,5.14,22.62Z"/>
  <path class="cls-4" d="m134.89,124l5.1,17.83h0c-7.49,2.45-16.5,4.24-26.41,5.14l2.8-22.73,5.58-45.48,12.94,45.24Z"/>
  <path class="cls-4" d="m162.09,123.65c0,7.27-8.57,13.79-22.1,18.18l2.16-17.93,6.36-52.63,13.58,52.38Z"/>
  <ellipse class="cls-2" cx="98.49" cy="56.45" rx="63.6" ry="24"/>
  <g>
    <g>
      <path class="cls-2" d="m129.8,157.59l-105.04,1.5c-1.51.02-2.81-1.22-2.94-2.8h0c-.13-1.59.98-2.93,2.49-3.02l104.67-6.01c1.55-.09,2.92,1.17,3.05,2.79l.37,4.51c.13,1.63-1.04,3-2.6,3.02Z"/>
      <ellipse class="cls-2" cx="17.79" cy="156.91" rx="6.16" ry="6.82" transform="translate(-140.01 150.78) rotate(-81.31)"/>
    </g>
    <path class="cls-6" d="m22.5,156.53c-.68-3.3-7.14-4.61-9.51-1.08.65-3.46,9.49-4.65,9.51,1.08Z"/>
  </g>
  <ellipse class="cls-3" cx="98.28" cy="55.69" rx="57.81" ry="18.76"/>
  <g>
    <g>
      <path class="cls-2" d="m99.55,175.69l-50.32-92.21c-.72-1.32-.23-3.06,1.1-3.91h0c1.34-.86,3.05-.5,3.83.79l54.14,89.78c.8,1.33.33,3.13-1.05,4l-3.82,2.43c-1.38.88-3.14.48-3.89-.89Z"/>
      <ellipse class="cls-2" cx="47.9" cy="76.3" rx="6.16" ry="6.82" transform="translate(-22.34 19.89) rotate(-19.11)"/>
    </g>
    <path class="cls-6" d="m50.44,80.28c2.6-2.14.75-8.46-3.48-8.91,3.37-1.04,8.54,6.22,3.48,8.91Z"/>
  </g>
  <path class="cls-6" d="m115.29,43.25c31.57.61,31.27,18.73,0,24,49.42-2.15,43.2-26.4,0-24Z"/>
  <path class="cls-5" d="m39.31,92.76c-.72,3.3-5.49,27.61,16.29,41.52,7.94,5.07,16.8,7.1,23.09,7.97-6.28-4.37-16.31-10.86-22.8-18-10.69-11.75-13.34-22.52-16.58-31.49Z"/>
</svg>