<?xml version="1.0" encoding="UTF-8"?>
<svg id="_Слой_1" data-name="Слой 1" xmlns="http://www.w3.org/2000/svg" viewBox="0 0 200 200">
  <defs>
    <style>
      .cls-1 {
        fill: none;
      }

      .cls-1, .cls-2, .cls-3 {
        stroke: #000;
        stroke-miterlimit: 10;
      }

      .cls-2 {
        fill: #f2e64c;
      }

      .cls-4 {
        fill: #603813;
      }

      .cls-3 {
        fill: #ffc166;
      }
    </style>
  </defs>
  <path class="cls-3" d="m64.92,58.86c0-1.7,1.31-3.1,2.94-3.11,29.73-.09,18.26,20.89,39.84,38.35,7.3,7.71,27.76,4.14,35.42,8l8.85-12.93c-8.02-5.32-20.78,3.22-32.44-2.24-.19-.09-.37-.2-.54-.32-23.05-16.69-12.78-56.29-60.92-40.13-1.23.41,2.43,1.67,2.43,3.02l4.42,9.36Z"/>
  <polyline class="cls-1" points="74.46 45.4 73.6 160 82.02 160 82.02 47.05"/>
  <polyline class="cls-1" points="89.48 45.41 88.62 160.01 97.5 150.5 97.04 47.06"/>
  <polyline class="cls-1" points="121.46 84 120.48 123 128.48 120.38 129.02 84.69"/>
  <polyline class="cls-1" points="105.48 68 104.5 142.5 112.5 137.5 113.04 69.32"/>
  <path class="cls-2" d="m156.74,78.57c-8.38-5.32-21.71,3.22-33.88-2.24-.2-.09-.39-.2-.56-.32-24.07-16.69-13.35-56.29-63.63-40.13-1.29.41-2.17,1.61-2.17,2.96v131.49c0,1.72,1.39,3.11,3.11,3.11,11.77-.02,25.97-.46,25.81-1.25,3.86-16.57,88.85-86.56,71.33-93.62Zm-77.86,80.43l-9.96,1c-1.72,0-3.11-1.39-3.11-3.11V48.26c0-1.7,1.37-3.1,3.07-3.11,31.05-.09,19.07,20.89,41.61,38.35,7.62,7.71,29,4.14,37,8,6.46,2.97-60.13,56.05-65.95,65.97-.56.95-1.57,1.53-2.67,1.53Z"/>
  <path class="cls-4" d="m78.5,36.5c2.69.49,5.79,1.38,9,3,12.1,6.12,16.69,18.11,18,22-2.98-4.57-7.48-10.39-14-16-4.64-3.99-9.16-6.9-13-9Z"/>
  <path class="cls-4" d="m63,167c.03-.37,6.03,1.28,14-1,6.25-1.78,10.89-5.17,14-8-.86,2.18-2.58,5.57-6,8-8.7,6.18-22.05,1.56-22,1Z"/>
  <path class="cls-4" d="m134,82.52c15.53-6.38,26.07.28,14.3,13.48,4.24-10.99,2.91-15.5-14.3-13.48Z"/>
</svg>