<?xml version="1.0" encoding="UTF-8"?>
<svg id="_Слой_1" data-name="Слой 1" xmlns="http://www.w3.org/2000/svg" viewBox="0 0 200 200">
  <defs>
    <style>
      .cls-1 {
        fill: #fff;
      }

      .cls-2, .cls-3 {
        stroke-miterlimit: 10;
      }

      .cls-2, .cls-4 {
        fill: #c2c1af;
        stroke: #000;
      }

      .cls-3 {
        fill: #2e3192;
        stroke: #1b1464;
      }

      .cls-4 {
        stroke-linecap: round;
        stroke-linejoin: round;
      }

      .cls-5 {
        fill: #999;
      }

      .cls-6 {
        fill: #5a4e40;
      }
    </style>
  </defs>
  <path class="cls-4" d="m62.43,72.19c4.06,5.77,12.97,7.35,19.91,3.54,6.34-3.48,8.82-10.27,6.09-15.81,11.81-9.76,12.35-24.84,5.24-32.54-7.17-7.76-21.06-6.87-28.73-4.4-7.15,2.31-11.33,6.78-13.35,9.39,8.1-3,16.71-2.37,22.01,1.94,1.13.92,4.2,3.41,5.21,7.39.83,3.26-.17,5.74-.47,6.41-1.42,3.15-4.25,4.46-5.26,4.86-1.87.29-3.72.91-5.45,1.86-6.93,3.81-9.25,11.57-5.19,17.34Z"/>
  <path class="cls-6" d="m104.63,75.83c.2-.13,2.1-1.31,1.9-2.71-.38-2.67-7.84-2.82-16.33-7.73-7.76-4.49-9.92-9.21-11.96-8.47-2.41.87-2.34,8.58,1.87,13.46,4.18,4.85,11.05,5.37,19.47,6.01,1.1.08,3.3.55,5.05-.55Z"/>
  <path class="cls-3" d="m89.24,74.82c2.69-1.85,5.37-3.7,8.06-5.54,10.27,1.73,18.53,4.45,24.31,6.69,0,0,37.53,14.61,56.1,47.16,3.92,6.87,3.69,10.7,2.65,13.03-.75,1.69-2.57,4.03-4.92,3.82-.6-.05-2.23-.36-5.53-4.76-2.39-3.19-3.58-4.78-4.88-8.46-3.33-9.47-19.7-25.37-20.82-26.44-18.93-18.23-49.76-24.49-54.97-25.49Z"/>
  <path class="cls-6" d="m69.53,95.35c-.22.1-2.26,1.08-3.59.3-2.54-1.48.59-7.46-.65-16.36-1.13-8.13-4.97-11.93-3.33-13.21,1.95-1.52,9.75,1.93,12.85,7.42,3.09,5.46.58,11.13-2.49,18.08-.4.91-.9,2.86-2.79,3.76Z"/>
  <path class="cls-3" d="m75.3,82.71c-3.06,1.31-6.13,2.63-9.19,3.94-2.78,8.9-3.66,16.65-3.93,22.21,0,0-1.72,36.18,23.16,65.26,5.25,6.13,9.24,7.65,12.06,7.85,2.04.15,5.23-.26,6.06-2.21.21-.5.62-1.93-2.39-6.48-2.18-3.3-3.28-4.95-6.45-7.6-8.16-6.82-17.08-26.81-17.68-28.16-10.16-23.04-2.92-50.23-1.64-54.81Z"/>
  <path class="cls-4" d="m85.74,59.7c4.06,5.77,1.74,13.53-5.19,17.34-6.34,3.48-14.33,2.46-18.75-2.15-15.47,4.8-30.9-1.39-35.38-10.21-4.4-8.68,2.35-18.85,7.37-23.54,5.24-4.9,11.47-6.55,14.91-7.17-.49.43-9.52,8.62-6.38,17.87.47,1.38,1.65,4.86,5.21,7.39,2.95,2.1,5.9,2.4,6.73,2.46,3.83.27,6.41-1.4,7.26-2.02,1.12-1.35,2.57-2.55,4.3-3.5,6.93-3.81,15.84-2.22,19.91,3.54Z"/>
  <ellipse class="cls-2" cx="73.19" cy="66.6" rx="10.05" ry="8.61" transform="translate(-9.35 12.01) rotate(-8.82)"/>
  <path class="cls-5" d="m76.96,77.34c1.04-.37,2.49-1.01,3.92-2.16.97-.77,5.96-4.76,4.66-10.36-1.01-4.34-5.48-8.26-11.06-9.52,1.13.13,4.65.69,7.88,3.47.42.36,3.12,2.72,3.96,5.62,1.36,4.68-2.28,10.28-9.37,12.95Z"/>
  <path class="cls-1" d="m72.6,56.1c-1.13.15-2.73.47-4.42,1.28-1.14.54-7.06,3.35-6.99,8.93.05,4.32,3.68,8.93,9.01,11.23-1.1-.35-4.52-1.57-7.16-4.85-.34-.43-2.54-3.2-2.74-6.12-.32-4.71,4.57-9.32,12.3-10.46Z"/>
  <path class="cls-1" d="m66.46,88.68c-1.19,3.7-2.55,9.17-2.83,16.04-.31,7.53.79,13.87,1.09,13.89.34.03-1.46-8.41,1.14-18.45,1.79-6.92,5.49-13.98,5.32-14.06-.09-.04-.69,1.94-2.57,2.53-.8.25-1.59.17-2.13.06Z"/>
  <path class="cls-1" d="m92.34,74.46l4.05,1.12c5.33,1.47,5.3,1.46,5.4,1.49,6.14,1.71,11.34,3.87,11.37,3.78.03-.12-2.99-1.1-7.88-3.47-2.37-1.14-4.04-2.07-5.18-2.72-1.55-.89-2.85-1.7-3.83-2.35-.06.3-.25,1.09-1,1.67-1.17.9-2.7.54-2.92.49Z"/>
  <path class="cls-1" d="m158.5,112.74c2.98,4.05,4.84,7.55,6.01,10.07,1.79,3.86,2.44,6.45,5.22,10.5,1.95,2.83,3.85,5.53,6.1,5.56,2.88.04,4.28-4.35,4.36-4.62-.25.37-1.65,2.29-3.92,2.16-1.34-.08-2.42-.84-3.27-1.55-3.67-3.06-5.53-7.3-6.23-8.83-1.52-3.34-4.01-7.91-8.27-13.28Z"/>
  <path class="cls-1" d="m78.2,162.45s4.47,5.06,9.28,11.61c1.05,1.43,2.14,2.96,4.18,4.39.71.49,4.47,3.01,8.1,2.23,1.24-.27,2.47-.92,2.35-1.29-.14-.44-2.02-.02-4.84-.68-3.05-.72-5.36-2.29-6.53-3.09-1.18-.81-2.01-1.55-2.48-1.98-5-4.54-10.04-11.19-10.06-11.18Z"/>
  <path d="m148.39,93.78c-.21.23,8.13,5.85,17.51,17.12,8.04,9.67,12.12,17.81,12.45,17.67.31-.13-2.68-7.14-8.06-14.51-9.57-13.13-21.66-20.54-21.91-20.27Z"/>
  <path d="m72.16,124.55c-.33.04.96,7.6,4.13,16.67,4.51,12.89,8.93,17.73,10.1,18.96,3.22,3.4,7.12,6.23,7.45,5.93.37-.34-3.94-4.67-7.01-8.4-12.84-15.62-14.17-33.22-14.67-33.16Z"/>
  <path class="cls-1" d="m36.08,42.96c-.61-.41-4.9,3.2-6.75,8.84-.7,2.14-2.1,6.38-.02,11.3,2.52,5.99,8.8,9.7,9.46,9.16.72-.59-6.14-5.63-7.42-13.36-1.48-8.96,5.54-15.4,4.74-15.94Z"/>
  <path class="cls-5" d="m80.53,52.89c1.41.31,3.64.58,5.88-.16,4.81-1.58,6.16-6.62,6.75-8.84,2.19-8.22-1.47-15.74-1.14-15.78.42-.05,4.87,7.77,3.62,16.47-1.07,7.48-6.14,13.81-8.78,13.04-.49-.14-.58-.44-2.28-1.82-1.6-1.3-3.03-2.26-4.05-2.91Z"/>
</svg>