<?xml version="1.0" encoding="UTF-8"?>
<svg id="_Слой_1" data-name="Слой 1" xmlns="http://www.w3.org/2000/svg" viewBox="0 0 200 200">
  <defs>
    <style>
      .cls-1 {
        fill: #fff;
      }

      .cls-2 {
        fill: #f9c623;
      }

      .cls-2, .cls-3 {
        stroke-miterlimit: 10;
      }

      .cls-2, .cls-3, .cls-4 {
        stroke: #000;
      }

      .cls-3, .cls-4 {
        fill: #fcee21;
      }

      .cls-5 {
        fill: #fffaf5;
      }

      .cls-6 {
        fill: #f7931e;
      }

      .cls-4 {
        stroke-linejoin: round;
      }

      .cls-7 {
        fill: none;
      }

      .cls-8 {
        fill: #ffeddc;
      }
    </style>
  </defs>
  <circle class="cls-2" cx="98" cy="91" r="5.5"/>
  <circle class="cls-2" cx="98" cy="104" r="5.5"/>
  <circle class="cls-2" cx="99" cy="117" r="5.5"/>
  <path class="cls-3" d="m155.5,90.65v.4c0,2.1-1.7,3.8-3.8,3.8h-47.34v5h45.34c2.1,0,3.8,1.7,3.8,3.8v.4c0,2.1-1.7,3.8-3.8,3.8h-45.34v5h43.34c2.1,0,3.8,1.7,3.8,3.8v.4c0,2.1-1.7,3.8-3.8,3.8h-43.34v6.71c0,2.5-1.7,4.53-3.8,4.53h-.4c-2.1,0-3.8-2.03-3.8-4.53v-59.04c0-2.5,1.7-4.52,3.8-4.52h.4c1.05,0,2,.51,2.69,1.32.37.45.59.91.67,1.08.39.87.44,1.69.44,2.12v18.33h47.34c2.1,0,3.8,1.7,3.8,3.8Z"/>
  <path class="cls-3" d="m156.5,106.5c-3.68,21.13-8.06,44-73,44-5,0-19.33-1.39-34,1-16.15,2.63-34,13-34,13-11,2,11.39-80.76,24.66-73.46,22.83,45.3,101.34,60.46,106.34,7.46l10,8Z"/>
  <path class="cls-3" d="m113.75,60c-23.89,0-43.25,18.69-43.25,41.75s19.36,41.75,43.25,41.75,43.25-18.69,43.25-41.75-19.36-41.75-43.25-41.75Zm.08,70.81c-16.72,0-30.27-13.09-30.27-29.23s13.55-29.23,30.27-29.23,30.28,13.08,30.28,29.23-13.55,29.23-30.28,29.23Z"/>
  <polyline class="cls-4" points="150.5 123.5 182.95 57.09 170.96 51.31 138.51 118.73"/>
  <rect class="cls-3" x="168.5" y="47.5" width="19" height="8" rx="3.8" ry="3.8" transform="translate(29.83 -59.78) rotate(20.77)"/>
  <path class="cls-6" d="m22.11,155.58c3.8-1.54,8.39-3.13,13.74-4.51,14.46-3.72,27.29-3.99,35.16-3.72-.76-.36-14.24-6.46-30.71-2.25-11.6,2.96-17.02,9.09-18.19,10.48Z"/>
  <path class="cls-5" d="m37,97c.97,3.43,3.68,11.21,11,18,8.3,7.69,17.53,9.5,21,10-10.41,2.25-20.94-1.23-27-9-6.11-7.83-5.25-16.9-5-19Z"/>
  <path class="cls-8" d="m160.04,95.14c5.64-11.09,11.28-22.19,16.92-33.28-1.93,5.72-4.58,12.24-8.25,19.18-2.85,5.37-5.82,10.07-8.67,14.1Z"/>
  <path class="cls-1" d="m173.96,47.41c-.23-.52-1.68-.87-2.55,0s-.52,2.32,0,2.55c.8.35,2.91-1.75,2.55-2.55Z"/>
  <path class="cls-1" d="m79,87c-.64-.41,2.76-12.06,13-18,7.93-4.6,16.33-3.66,20-3-4.63.35-10.81,1.48-17,5-11.05,6.29-15.39,16.4-16,16Z"/>
  <rect class="cls-7" width="200" height="200"/>
</svg>