<?xml version="1.0" encoding="UTF-8"?>
<svg id="_Слой_1" data-name="Слой 1" xmlns="http://www.w3.org/2000/svg" xmlns:xlink="http://www.w3.org/1999/xlink" viewBox="0 0 200 200">
  <defs>
    <style>
      .cls-1 {
        fill: #009245;
      }

      .cls-2 {
        fill: #8c6239;
      }

      .cls-3 {
        fill: #b7a676;
      }

      .cls-4 {
        fill: url(#_Безымянный_градиент_39-7);
      }

      .cls-5 {
        fill: #f2d6b6;
      }

      .cls-6 {
        fill: url(#_Безымянный_градиент_39-3);
      }

      .cls-7 {
        stroke: #754c24;
        stroke-linecap: round;
        stroke-linejoin: round;
      }

      .cls-7, .cls-8 {
        fill: #f3da80;
      }

      .cls-9 {
        fill: url(#_Безымянный_градиент_39);
      }

      .cls-10 {
        fill: #d37367;
        stroke: #c1272d;
      }

      .cls-10, .cls-11 {
        stroke-miterlimit: 10;
      }

      .cls-12 {
        fill: url(#_Безымянный_градиент_39-2);
      }

      .cls-11 {
        fill: #39b54a;
        stroke: #006837;
      }

      .cls-13 {
        fill: #df9226;
      }

      .cls-14 {
        fill: url(#_Безымянный_градиент_39-6);
      }

      .cls-15 {
        fill: #f7d8ba;
      }

      .cls-16 {
        fill: #d8ca9a;
      }

      .cls-17 {
        fill: #754c24;
      }

      .cls-18 {
        fill: url(#_Безымянный_градиент_39-4);
      }

      .cls-19 {
        fill: url(#_Безымянный_градиент_39-5);
      }
    </style>
    <radialGradient id="_Безымянный_градиент_39" data-name="Безымянный градиент 39" cx="73.5" cy="98.75" fx="73.5" fy="98.75" r="10.92" gradientTransform="translate(0 37.33) scale(1 .53)" gradientUnits="userSpaceOnUse">
      <stop offset="0" stop-color="#e7d9be"/>
      <stop offset=".14" stop-color="#e7d9bf" stop-opacity=".98"/>
      <stop offset=".27" stop-color="#e8dbc2" stop-opacity=".93"/>
      <stop offset=".4" stop-color="#eadfc8" stop-opacity=".84"/>
      <stop offset=".53" stop-color="#ede3d0" stop-opacity=".72"/>
      <stop offset=".66" stop-color="#f1e9da" stop-opacity=".56"/>
      <stop offset=".8" stop-color="#f6f1e7" stop-opacity=".36"/>
      <stop offset=".93" stop-color="#fbfaf6" stop-opacity=".13"/>
      <stop offset="1" stop-color="#fff" stop-opacity="0"/>
    </radialGradient>
    <radialGradient id="_Безымянный_градиент_39-2" data-name="Безымянный градиент 39" cx="62.5" cy="151.25" fx="62.5" fy="151.25" xlink:href="#_Безымянный_градиент_39"/>
    <radialGradient id="_Безымянный_градиент_39-3" data-name="Безымянный градиент 39" cx="37.5" cy="128.75" fx="37.5" fy="128.75" xlink:href="#_Безымянный_градиент_39"/>
    <radialGradient id="_Безымянный_градиент_39-4" data-name="Безымянный градиент 39" cx="129.5" cy="171.87" fx="129.5" fy="171.87" r="10.92" xlink:href="#_Безымянный_градиент_39"/>
    <radialGradient id="_Безымянный_градиент_39-5" data-name="Безымянный градиент 39" cx="119.5" cy="106.25" fx="119.5" fy="106.25" r="10.92" xlink:href="#_Безымянный_градиент_39"/>
    <radialGradient id="_Безымянный_градиент_39-6" data-name="Безымянный градиент 39" cx="103.5" cy="50" fx="103.5" fy="50" r="10.92" xlink:href="#_Безымянный_градиент_39"/>
    <radialGradient id="_Безымянный_градиент_39-7" data-name="Безымянный градиент 39" cx="151.5" cy="80" fx="151.5" fy="80" r="10.92" xlink:href="#_Безымянный_градиент_39"/>
  </defs>
  <g>
    <g>
      <path class="cls-13" d="m103,152.5c-13.11,0-25.71-1.58-37.47-4.68l32.4-55.06c.11-.18.09-.42-.05-.58-.1-.11-.24-.17-.38-.17-.06,0-.13.01-.19.04l-75.84,30.51c-5.29-6.63-7.98-13.71-7.98-21.05,0-28.12,40.15-51,89.5-51s89.5,22.88,89.5,51-40.15,51-89.5,51Z"/>
      <path class="cls-17" d="m103,51c49.07,0,89,22.65,89,50.5s-39.93,50.5-89,50.5c-12.83,0-25.17-1.51-36.7-4.5l3.43-5.83,28.63-48.66c.22-.37.18-.84-.1-1.16-.19-.23-.47-.35-.76-.35-.13,0-.25.02-.37.07l-66.81,26.88-8.68,3.49c-5.07-6.45-7.64-13.33-7.64-20.44,0-27.85,39.93-50.5,89-50.5m0-1c-49.71,0-90,23.06-90,51.5,0,7.73,2.98,15.07,8.32,21.65l9.37-3.77,66.81-26.88-28.63,48.66-4.1,6.97c11.6,3.13,24.56,4.87,38.23,4.87,49.71,0,90-23.06,90-51.5s-40.29-51.5-90-51.5h0Z"/>
    </g>
    <g>
      <path class="cls-8" d="m101.74,144.82c-11.19,0-21.99-1.34-32.1-3.98l28.3-48.09c.11-.18.09-.42-.05-.58-.1-.11-.24-.17-.38-.17-.06,0-.13.01-.19.04l-66.47,26.74c-4.87-6.01-7.34-12.44-7.34-19.12,0-24.9,35.1-45.16,78.24-45.16s78.24,20.26,78.24,45.16-35.1,45.16-78.24,45.16Z"/>
      <path class="cls-17" d="m101.74,55c42.87,0,77.74,20.03,77.74,44.66s-34.87,44.66-77.74,44.66c-10.91,0-21.45-1.28-31.34-3.79l27.96-47.52c.22-.37.18-.84-.1-1.16-.19-.23-.47-.35-.76-.35-.13,0-.25.02-.37.07l-66.13,26.6c-4.65-5.83-7-12.06-7-18.52,0-24.63,34.87-44.66,77.74-44.66m0-1c-43.49,0-78.74,20.44-78.74,45.66,0,7.06,2.76,13.75,7.69,19.72l66.81-26.88-28.63,48.66c10,2.67,21.14,4.16,32.87,4.16,43.48,0,78.74-20.44,78.74-45.66s-35.26-45.66-78.74-45.66h0Z"/>
    </g>
  </g>
  <g>
    <path class="cls-7" d="m83.5,103.5l-28.63,48.66c-16.7-4.45-30.24-12.19-38.18-21.78l66.81-26.88Z"/>
    <g>
      <path class="cls-13" d="m51.54,158.42c-19.12-5.08-34.6-13.73-43.71-24.41l8.68-3.42c8.18,9.52,21.9,17.2,38.72,21.69l-3.69,6.14Z"/>
      <path class="cls-17" d="m16.36,131.19c8.17,9.35,21.63,16.91,38.1,21.4l-3.15,5.25c-18.54-4.98-33.59-13.33-42.64-23.62l7.69-3.03m.29-1.19l-9.66,3.8c9.16,11.07,25.07,20.02,44.78,25.2l4.22-7.03c-17.21-4.49-31.16-12.3-39.34-21.97h0Z"/>
    </g>
  </g>
  <g>
    <ellipse class="cls-10" cx="51" cy="88" rx="16" ry="8"/>
    <ellipse class="cls-10" cx="43" cy="84" rx="1.5" ry=".5"/>
    <ellipse class="cls-10" cx="56" cy="83" rx="1.5" ry=".5"/>
    <ellipse class="cls-10" cx="49" cy="87" rx="1.5" ry=".5"/>
    <ellipse class="cls-10" cx="50" cy="83" rx="1.5" ry=".5"/>
    <ellipse class="cls-10" cx="61" cy="86" rx="1.5" ry=".5"/>
    <ellipse class="cls-10" cx="56" cy="87" rx="1.5" ry=".5"/>
    <ellipse class="cls-10" cx="61" cy="91" rx="1.5" ry=".5"/>
    <ellipse class="cls-10" cx="54" cy="92" rx="1.5" ry=".5"/>
    <ellipse class="cls-10" cx="45" cy="91" rx="1.5" ry=".5"/>
    <ellipse class="cls-10" cx="41" cy="87" rx="1.5" ry=".5"/>
    <ellipse class="cls-15" cx="52.5" cy="85.5" rx="1.5" ry=".5"/>
    <ellipse class="cls-15" cx="59.5" cy="83.5" rx="1.5" ry=".5"/>
    <ellipse class="cls-15" cx="52.5" cy="81.5" rx="1.5" ry=".5"/>
    <ellipse class="cls-15" cx="51.5" cy="90.5" rx="1.5" ry=".5"/>
    <ellipse class="cls-15" cx="39.5" cy="89.5" rx="1.5" ry=".5"/>
    <ellipse class="cls-15" cx="45.5" cy="87.5" rx="1.5" ry=".5"/>
    <ellipse class="cls-15" cx="46.5" cy="84.5" rx="1.5" ry=".5"/>
    <ellipse class="cls-15" cx="39.5" cy="85.5" rx="1.5" ry=".5"/>
    <ellipse class="cls-15" cx="48.5" cy="93.5" rx="1.5" ry=".5"/>
    <ellipse class="cls-15" cx="57.5" cy="93.5" rx="1.5" ry=".5"/>
    <ellipse class="cls-15" cx="56.5" cy="89.5" rx="1.5" ry=".5"/>
  </g>
  <g>
    <ellipse class="cls-10" cx="104.47" cy="131.55" rx="16" ry="8"/>
    <ellipse class="cls-10" cx="96.47" cy="127.55" rx="1.5" ry=".5"/>
    <ellipse class="cls-10" cx="109.47" cy="126.55" rx="1.5" ry=".5"/>
    <ellipse class="cls-10" cx="102.47" cy="130.55" rx="1.5" ry=".5"/>
    <ellipse class="cls-10" cx="103.47" cy="126.55" rx="1.5" ry=".5"/>
    <ellipse class="cls-10" cx="114.47" cy="129.55" rx="1.5" ry=".5"/>
    <ellipse class="cls-10" cx="109.47" cy="130.55" rx="1.5" ry=".5"/>
    <ellipse class="cls-10" cx="114.47" cy="134.55" rx="1.5" ry=".5"/>
    <ellipse class="cls-10" cx="107.47" cy="135.55" rx="1.5" ry=".5"/>
    <ellipse class="cls-10" cx="98.47" cy="134.55" rx="1.5" ry=".5"/>
    <ellipse class="cls-10" cx="94.47" cy="130.55" rx="1.5" ry=".5"/>
    <ellipse class="cls-15" cx="105.97" cy="129.05" rx="1.5" ry=".5"/>
    <ellipse class="cls-15" cx="112.97" cy="127.05" rx="1.5" ry=".5"/>
    <ellipse class="cls-15" cx="105.97" cy="125.05" rx="1.5" ry=".5"/>
    <ellipse class="cls-15" cx="104.97" cy="134.05" rx="1.5" ry=".5"/>
    <ellipse class="cls-15" cx="92.97" cy="133.05" rx="1.5" ry=".5"/>
    <ellipse class="cls-15" cx="98.97" cy="131.05" rx="1.5" ry=".5"/>
    <ellipse class="cls-15" cx="99.97" cy="128.05" rx="1.5" ry=".5"/>
    <ellipse class="cls-15" cx="92.97" cy="129.05" rx="1.5" ry=".5"/>
    <ellipse class="cls-15" cx="101.97" cy="137.05" rx="1.5" ry=".5"/>
    <ellipse class="cls-15" cx="110.97" cy="137.05" rx="1.5" ry=".5"/>
    <ellipse class="cls-15" cx="109.97" cy="133.05" rx="1.5" ry=".5"/>
  </g>
  <g>
    <ellipse class="cls-10" cx="115.47" cy="108.55" rx="16" ry="8"/>
    <ellipse class="cls-10" cx="107.47" cy="104.55" rx="1.5" ry=".5"/>
    <ellipse class="cls-10" cx="120.47" cy="103.55" rx="1.5" ry=".5"/>
    <ellipse class="cls-10" cx="113.47" cy="107.55" rx="1.5" ry=".5"/>
    <ellipse class="cls-10" cx="114.47" cy="103.55" rx="1.5" ry=".5"/>
    <ellipse class="cls-10" cx="125.47" cy="106.55" rx="1.5" ry=".5"/>
    <ellipse class="cls-10" cx="120.47" cy="107.55" rx="1.5" ry=".5"/>
    <ellipse class="cls-10" cx="125.47" cy="111.55" rx="1.5" ry=".5"/>
    <ellipse class="cls-10" cx="118.47" cy="112.55" rx="1.5" ry=".5"/>
    <ellipse class="cls-10" cx="109.47" cy="111.55" rx="1.5" ry=".5"/>
    <ellipse class="cls-10" cx="105.47" cy="107.55" rx="1.5" ry=".5"/>
    <ellipse class="cls-15" cx="116.97" cy="106.05" rx="1.5" ry=".5"/>
    <ellipse class="cls-15" cx="123.97" cy="104.05" rx="1.5" ry=".5"/>
    <ellipse class="cls-15" cx="116.97" cy="102.05" rx="1.5" ry=".5"/>
    <ellipse class="cls-15" cx="115.97" cy="111.05" rx="1.5" ry=".5"/>
    <ellipse class="cls-15" cx="103.97" cy="110.05" rx="1.5" ry=".5"/>
    <ellipse class="cls-15" cx="109.97" cy="108.05" rx="1.5" ry=".5"/>
    <ellipse class="cls-15" cx="110.97" cy="105.05" rx="1.5" ry=".5"/>
    <ellipse class="cls-15" cx="103.97" cy="106.05" rx="1.5" ry=".5"/>
    <ellipse class="cls-15" cx="112.97" cy="114.05" rx="1.5" ry=".5"/>
    <ellipse class="cls-15" cx="121.97" cy="114.05" rx="1.5" ry=".5"/>
    <ellipse class="cls-15" cx="120.97" cy="110.05" rx="1.5" ry=".5"/>
  </g>
  <g>
    <ellipse class="cls-10" cx="151.47" cy="118.55" rx="16" ry="8"/>
    <ellipse class="cls-10" cx="143.47" cy="114.55" rx="1.5" ry=".5"/>
    <ellipse class="cls-10" cx="156.47" cy="113.55" rx="1.5" ry=".5"/>
    <ellipse class="cls-10" cx="149.47" cy="117.55" rx="1.5" ry=".5"/>
    <ellipse class="cls-10" cx="150.47" cy="113.55" rx="1.5" ry=".5"/>
    <ellipse class="cls-10" cx="161.47" cy="116.55" rx="1.5" ry=".5"/>
    <ellipse class="cls-10" cx="156.47" cy="117.55" rx="1.5" ry=".5"/>
    <ellipse class="cls-10" cx="161.47" cy="121.55" rx="1.5" ry=".5"/>
    <ellipse class="cls-10" cx="154.47" cy="122.55" rx="1.5" ry=".5"/>
    <ellipse class="cls-10" cx="145.47" cy="121.55" rx="1.5" ry=".5"/>
    <ellipse class="cls-10" cx="141.47" cy="117.55" rx="1.5" ry=".5"/>
    <ellipse class="cls-15" cx="152.97" cy="116.05" rx="1.5" ry=".5"/>
    <ellipse class="cls-15" cx="159.97" cy="114.05" rx="1.5" ry=".5"/>
    <ellipse class="cls-15" cx="152.97" cy="112.05" rx="1.5" ry=".5"/>
    <ellipse class="cls-15" cx="151.97" cy="121.05" rx="1.5" ry=".5"/>
    <ellipse class="cls-15" cx="139.97" cy="120.05" rx="1.5" ry=".5"/>
    <ellipse class="cls-15" cx="145.97" cy="118.05" rx="1.5" ry=".5"/>
    <ellipse class="cls-15" cx="146.97" cy="115.05" rx="1.5" ry=".5"/>
    <ellipse class="cls-15" cx="139.97" cy="116.05" rx="1.5" ry=".5"/>
    <ellipse class="cls-15" cx="148.97" cy="124.05" rx="1.5" ry=".5"/>
    <ellipse class="cls-15" cx="157.97" cy="124.05" rx="1.5" ry=".5"/>
    <ellipse class="cls-15" cx="156.97" cy="120.05" rx="1.5" ry=".5"/>
  </g>
  <g>
    <ellipse class="cls-10" cx="150.47" cy="93.55" rx="16" ry="8"/>
    <ellipse class="cls-10" cx="142.47" cy="89.55" rx="1.5" ry=".5"/>
    <ellipse class="cls-10" cx="155.47" cy="88.55" rx="1.5" ry=".5"/>
    <ellipse class="cls-10" cx="148.47" cy="92.55" rx="1.5" ry=".5"/>
    <ellipse class="cls-10" cx="149.47" cy="88.55" rx="1.5" ry=".5"/>
    <ellipse class="cls-10" cx="160.47" cy="91.55" rx="1.5" ry=".5"/>
    <ellipse class="cls-10" cx="155.47" cy="92.55" rx="1.5" ry=".5"/>
    <ellipse class="cls-10" cx="160.47" cy="96.55" rx="1.5" ry=".5"/>
    <ellipse class="cls-10" cx="153.47" cy="97.55" rx="1.5" ry=".5"/>
    <ellipse class="cls-10" cx="144.47" cy="96.55" rx="1.5" ry=".5"/>
    <ellipse class="cls-10" cx="140.47" cy="92.55" rx="1.5" ry=".5"/>
    <ellipse class="cls-15" cx="151.97" cy="91.05" rx="1.5" ry=".5"/>
    <ellipse class="cls-15" cx="158.97" cy="89.05" rx="1.5" ry=".5"/>
    <ellipse class="cls-15" cx="151.97" cy="87.05" rx="1.5" ry=".5"/>
    <ellipse class="cls-15" cx="150.97" cy="96.05" rx="1.5" ry=".5"/>
    <ellipse class="cls-15" cx="138.97" cy="95.05" rx="1.5" ry=".5"/>
    <ellipse class="cls-15" cx="144.97" cy="93.05" rx="1.5" ry=".5"/>
    <ellipse class="cls-15" cx="145.97" cy="90.05" rx="1.5" ry=".5"/>
    <ellipse class="cls-15" cx="138.97" cy="91.05" rx="1.5" ry=".5"/>
    <ellipse class="cls-15" cx="147.97" cy="99.05" rx="1.5" ry=".5"/>
    <ellipse class="cls-15" cx="156.97" cy="99.05" rx="1.5" ry=".5"/>
    <ellipse class="cls-15" cx="155.97" cy="95.05" rx="1.5" ry=".5"/>
  </g>
  <g>
    <ellipse class="cls-10" cx="107.47" cy="82.55" rx="16" ry="8"/>
    <ellipse class="cls-10" cx="99.47" cy="78.55" rx="1.5" ry=".5"/>
    <ellipse class="cls-10" cx="112.47" cy="77.55" rx="1.5" ry=".5"/>
    <ellipse class="cls-10" cx="105.47" cy="81.55" rx="1.5" ry=".5"/>
    <ellipse class="cls-10" cx="106.47" cy="77.55" rx="1.5" ry=".5"/>
    <ellipse class="cls-10" cx="117.47" cy="80.55" rx="1.5" ry=".5"/>
    <ellipse class="cls-10" cx="112.47" cy="81.55" rx="1.5" ry=".5"/>
    <ellipse class="cls-10" cx="117.47" cy="85.55" rx="1.5" ry=".5"/>
    <ellipse class="cls-10" cx="110.47" cy="86.55" rx="1.5" ry=".5"/>
    <ellipse class="cls-10" cx="101.47" cy="85.55" rx="1.5" ry=".5"/>
    <ellipse class="cls-10" cx="97.47" cy="81.55" rx="1.5" ry=".5"/>
    <ellipse class="cls-15" cx="108.97" cy="80.05" rx="1.5" ry=".5"/>
    <ellipse class="cls-15" cx="115.97" cy="78.05" rx="1.5" ry=".5"/>
    <ellipse class="cls-15" cx="108.97" cy="76.05" rx="1.5" ry=".5"/>
    <ellipse class="cls-15" cx="107.97" cy="85.05" rx="1.5" ry=".5"/>
    <ellipse class="cls-15" cx="95.97" cy="84.05" rx="1.5" ry=".5"/>
    <ellipse class="cls-15" cx="101.97" cy="82.05" rx="1.5" ry=".5"/>
    <ellipse class="cls-15" cx="102.97" cy="79.05" rx="1.5" ry=".5"/>
    <ellipse class="cls-15" cx="95.97" cy="80.05" rx="1.5" ry=".5"/>
    <ellipse class="cls-15" cx="104.97" cy="88.05" rx="1.5" ry=".5"/>
    <ellipse class="cls-15" cx="113.97" cy="88.05" rx="1.5" ry=".5"/>
    <ellipse class="cls-15" cx="112.97" cy="84.05" rx="1.5" ry=".5"/>
  </g>
  <g>
    <ellipse class="cls-10" cx="78.47" cy="70.55" rx="16" ry="8"/>
    <ellipse class="cls-10" cx="70.47" cy="66.55" rx="1.5" ry=".5"/>
    <ellipse class="cls-10" cx="83.47" cy="65.55" rx="1.5" ry=".5"/>
    <ellipse class="cls-10" cx="76.47" cy="69.55" rx="1.5" ry=".5"/>
    <ellipse class="cls-10" cx="77.47" cy="65.55" rx="1.5" ry=".5"/>
    <ellipse class="cls-10" cx="88.47" cy="68.55" rx="1.5" ry=".5"/>
    <ellipse class="cls-10" cx="83.47" cy="69.55" rx="1.5" ry=".5"/>
    <ellipse class="cls-10" cx="88.47" cy="73.55" rx="1.5" ry=".5"/>
    <ellipse class="cls-10" cx="81.47" cy="74.55" rx="1.5" ry=".5"/>
    <ellipse class="cls-10" cx="72.47" cy="73.55" rx="1.5" ry=".5"/>
    <ellipse class="cls-10" cx="68.47" cy="69.55" rx="1.5" ry=".5"/>
    <ellipse class="cls-15" cx="79.97" cy="68.05" rx="1.5" ry=".5"/>
    <ellipse class="cls-15" cx="86.97" cy="66.05" rx="1.5" ry=".5"/>
    <ellipse class="cls-15" cx="79.97" cy="64.05" rx="1.5" ry=".5"/>
    <ellipse class="cls-15" cx="78.97" cy="73.05" rx="1.5" ry=".5"/>
    <ellipse class="cls-15" cx="66.97" cy="72.05" rx="1.5" ry=".5"/>
    <ellipse class="cls-15" cx="72.97" cy="70.05" rx="1.5" ry=".5"/>
    <ellipse class="cls-15" cx="73.97" cy="67.05" rx="1.5" ry=".5"/>
    <ellipse class="cls-15" cx="66.97" cy="68.05" rx="1.5" ry=".5"/>
    <ellipse class="cls-15" cx="75.97" cy="76.05" rx="1.5" ry=".5"/>
    <ellipse class="cls-15" cx="84.97" cy="76.05" rx="1.5" ry=".5"/>
    <ellipse class="cls-15" cx="83.97" cy="72.05" rx="1.5" ry=".5"/>
  </g>
  <g>
    <ellipse class="cls-10" cx="135.47" cy="70.55" rx="16" ry="8"/>
    <ellipse class="cls-10" cx="127.47" cy="66.55" rx="1.5" ry=".5"/>
    <ellipse class="cls-10" cx="140.47" cy="65.55" rx="1.5" ry=".5"/>
    <ellipse class="cls-10" cx="133.47" cy="69.55" rx="1.5" ry=".5"/>
    <ellipse class="cls-10" cx="134.47" cy="65.55" rx="1.5" ry=".5"/>
    <ellipse class="cls-10" cx="145.47" cy="68.55" rx="1.5" ry=".5"/>
    <ellipse class="cls-10" cx="140.47" cy="69.55" rx="1.5" ry=".5"/>
    <ellipse class="cls-10" cx="145.47" cy="73.55" rx="1.5" ry=".5"/>
    <ellipse class="cls-10" cx="138.47" cy="74.55" rx="1.5" ry=".5"/>
    <ellipse class="cls-10" cx="129.47" cy="73.55" rx="1.5" ry=".5"/>
    <ellipse class="cls-10" cx="125.47" cy="69.55" rx="1.5" ry=".5"/>
    <ellipse class="cls-15" cx="136.97" cy="68.05" rx="1.5" ry=".5"/>
    <ellipse class="cls-15" cx="143.97" cy="66.05" rx="1.5" ry=".5"/>
    <ellipse class="cls-15" cx="136.97" cy="64.05" rx="1.5" ry=".5"/>
    <ellipse class="cls-15" cx="135.97" cy="73.05" rx="1.5" ry=".5"/>
    <ellipse class="cls-15" cx="123.97" cy="72.05" rx="1.5" ry=".5"/>
    <ellipse class="cls-15" cx="129.97" cy="70.05" rx="1.5" ry=".5"/>
    <ellipse class="cls-15" cx="130.97" cy="67.05" rx="1.5" ry=".5"/>
    <ellipse class="cls-15" cx="123.97" cy="68.05" rx="1.5" ry=".5"/>
    <ellipse class="cls-15" cx="132.97" cy="76.05" rx="1.5" ry=".5"/>
    <ellipse class="cls-15" cx="141.97" cy="76.05" rx="1.5" ry=".5"/>
    <ellipse class="cls-15" cx="140.97" cy="72.05" rx="1.5" ry=".5"/>
  </g>
  <ellipse class="cls-9" cx="73.5" cy="90" rx="13.5" ry="4"/>
  <ellipse class="cls-12" cx="62.5" cy="118" rx="13.5" ry="4"/>
  <ellipse class="cls-6" cx="37.5" cy="106" rx="13.5" ry="4"/>
  <ellipse class="cls-18" cx="129.5" cy="129" rx="13.5" ry="4"/>
  <ellipse class="cls-19" cx="119.5" cy="94" rx="13.5" ry="4"/>
  <ellipse class="cls-14" cx="103.5" cy="64" rx="13.5" ry="4"/>
  <ellipse class="cls-4" cx="151.5" cy="80" rx="13.5" ry="4"/>
  <g>
    <ellipse class="cls-10" cx="43.43" cy="135.83" rx="16" ry="8"/>
    <ellipse class="cls-10" cx="35.43" cy="131.83" rx="1.5" ry=".5"/>
    <ellipse class="cls-10" cx="48.43" cy="130.83" rx="1.5" ry=".5"/>
    <ellipse class="cls-10" cx="41.43" cy="134.83" rx="1.5" ry=".5"/>
    <ellipse class="cls-10" cx="42.43" cy="130.83" rx="1.5" ry=".5"/>
    <ellipse class="cls-10" cx="53.43" cy="133.83" rx="1.5" ry=".5"/>
    <ellipse class="cls-10" cx="48.43" cy="134.83" rx="1.5" ry=".5"/>
    <ellipse class="cls-10" cx="53.43" cy="138.83" rx="1.5" ry=".5"/>
    <ellipse class="cls-10" cx="46.43" cy="139.83" rx="1.5" ry=".5"/>
    <ellipse class="cls-10" cx="37.43" cy="138.83" rx="1.5" ry=".5"/>
    <ellipse class="cls-10" cx="33.43" cy="134.83" rx="1.5" ry=".5"/>
    <ellipse class="cls-15" cx="44.93" cy="133.33" rx="1.5" ry=".5"/>
    <ellipse class="cls-15" cx="51.93" cy="131.33" rx="1.5" ry=".5"/>
    <ellipse class="cls-15" cx="44.93" cy="129.33" rx="1.5" ry=".5"/>
    <ellipse class="cls-15" cx="43.93" cy="138.33" rx="1.5" ry=".5"/>
    <ellipse class="cls-15" cx="31.93" cy="137.33" rx="1.5" ry=".5"/>
    <ellipse class="cls-15" cx="37.93" cy="135.33" rx="1.5" ry=".5"/>
    <ellipse class="cls-15" cx="38.93" cy="132.33" rx="1.5" ry=".5"/>
    <ellipse class="cls-15" cx="31.93" cy="133.33" rx="1.5" ry=".5"/>
    <ellipse class="cls-15" cx="40.93" cy="141.33" rx="1.5" ry=".5"/>
    <ellipse class="cls-15" cx="49.93" cy="141.33" rx="1.5" ry=".5"/>
    <ellipse class="cls-15" cx="48.93" cy="137.33" rx="1.5" ry=".5"/>
  </g>
  <g>
    <g>
      <path class="cls-16" d="m70,82.5c-2.93,0-6.01-1.29-7.15-3.01l-3.01-4.51c-.15-.22-.26-.46-.35-.71-.05-.15-.18-.27-.34-.32-.04-.01-.09-.02-.13-.02-.12,0-.23.04-.32.11-.89.74-1.48,1.6-1.74,2.57-.22.83-1.26.92-1.69.92-1.14,0-2.8-.59-3.74-1.89-.07-.09-.11-.15-.15-.21-.94-1.4-1.11-2.83-.51-4.14,1.1-2.37,4.51-4.1,9.14-4.63.96-.11,1.96-.17,2.96-.17,6.93,0,13.7,2.61,16.1,6.21.04.06.08.13.12.19.25.41.48.96.24,1.4-.23.4-.81.64-1.57.64s-1.6-.24-2.41-.68c-1.32-.71-2.78-1.28-4.34-1.7-.04-.01-.08-.02-.13-.02-.18,0-.34.09-.43.25-.11.2-.08.44.08.6.26.26.46.49.61.72l3.01,4.51c.46.69.56,1.38.28,1.98-.44.94-1.73,1.62-3.45,1.82-.35.04-.71.06-1.07.06Z"/>
      <path class="cls-17" d="m62.95,66v1c6.77,0,13.37,2.52,15.68,5.99.03.05.07.1.09.14,0,.02.02.04.03.06.23.37.31.7.21.87-.11.19-.5.39-1.13.39-.67,0-1.44-.22-2.17-.62-1.35-.73-2.85-1.32-4.45-1.74-.08-.02-.17-.03-.26-.03-.35,0-.69.19-.87.5-.22.39-.16.89.17,1.21.23.23.41.44.55.64l3.01,4.51c.37.55.45,1.05.24,1.49-.36.77-1.53,1.36-3.05,1.53-.33.04-.67.06-1.01.06-2.78,0-5.67-1.2-6.73-2.79l-3.01-4.51c-.12-.19-.22-.38-.3-.6-.11-.31-.36-.55-.68-.64-.09-.02-.18-.04-.27-.04-.23,0-.46.08-.64.23-.97.8-1.61,1.76-1.91,2.83-.14.51-.96.55-1.21.55-1.02,0-2.5-.53-3.34-1.69-.01-.02-.02-.03-.03-.04-.04-.05-.08-.1-.11-.16-.85-1.27-1-2.49-.47-3.65,1.01-2.17,4.36-3.84,8.74-4.34.94-.11,1.92-.16,2.9-.16v-1m0,0c-1.01,0-2.02.06-3.02.17-7.87.9-11.9,5.18-8.99,9.54.05.08.1.15.17.23.98,1.36,2.73,2.1,4.15,2.1,1.06,0,1.94-.41,2.17-1.29.24-.87.78-1.66,1.58-2.32.09.27.22.55.41.83l3.01,4.51c1.26,1.89,4.5,3.23,7.57,3.23.38,0,.76-.02,1.13-.06,3.36-.39,4.95-2.44,3.53-4.57l-3.01-4.51c-.19-.28-.42-.54-.67-.8,1.5.4,2.94.95,4.23,1.65.94.51,1.86.74,2.64.74,1.74,0,2.79-1.12,1.77-2.78-.04-.08-.09-.16-.14-.23-2.54-3.81-9.54-6.43-16.52-6.43h0Z"/>
    </g>
    <path class="cls-3" d="m77.19,74.11c-3.56-2.84-6.88-3.93-8.84-4.4-2.28-.54-4.96-1.14-8.04,0-.67.25-4.71,1.74-5.63,5.28-.06.24-.39,1.49,0,1.76.71.49,3.03-2.91,4.82-4.4,2.61-2.15,7.54-3.08,17.69,1.76Z"/>
  </g>
  <g>
    <g>
      <path class="cls-16" d="m58.22,136.5c-2.23,0-4.56-1.21-5.44-2.82l-2.34-4.3c-.12-.21-.21-.44-.28-.69-.05-.17-.18-.3-.36-.35-.04-.01-.08-.02-.12-.02-.13,0-.26.05-.36.15-.7.71-1.15,1.53-1.36,2.45-.16.73-.82.84-1.2.84-.85,0-2.08-.55-2.79-1.75-.05-.08-.08-.14-.11-.19-.83-1.53-.9-3.06-.21-4.44,1.01-2,3.55-3.46,6.81-3.92.74-.1,1.5-.16,2.27-.16,5.33,0,10.54,2.47,12.39,5.87.03.06.07.12.09.18.31.61.35,1.13.13,1.48-.19.3-.57.47-1.05.47-.55,0-1.18-.22-1.78-.62-1.04-.69-2.18-1.24-3.41-1.63-.05-.02-.1-.02-.15-.02-.16,0-.32.08-.41.22-.12.18-.11.43.03.6.2.24.35.46.47.68l2.34,4.3c.41.75.45,1.49.13,2.12-.39.78-1.31,1.33-2.51,1.5-.27.04-.54.06-.81.06Z"/>
      <path class="cls-17" d="m52.75,120.81v1c5.16,0,10.18,2.36,11.95,5.6.03.05.05.09.07.14,0,.02.02.03.02.05.2.41.26.78.14.97-.09.15-.32.23-.63.23-.45,0-.98-.19-1.5-.54-1.07-.71-2.26-1.28-3.53-1.69-.1-.03-.21-.05-.31-.05-.32,0-.64.16-.83.44-.25.37-.23.86.06,1.2.18.22.31.41.42.6l2.34,4.3c.23.42.44,1.05.13,1.66-.32.63-1.09,1.08-2.13,1.23-.24.03-.48.05-.74.05-2.06,0-4.2-1.1-5-2.55l-2.34-4.3c-.1-.18-.17-.37-.23-.58-.1-.34-.37-.61-.71-.7-.08-.02-.17-.03-.25-.03-.26,0-.52.11-.71.3-.76.77-1.26,1.68-1.49,2.7-.03.13-.1.44-.71.44-.71,0-1.75-.47-2.36-1.51,0-.01-.02-.03-.03-.04-.03-.05-.06-.1-.08-.15-.74-1.37-.81-2.74-.19-3.96.93-1.85,3.34-3.22,6.44-3.65.71-.1,1.45-.15,2.2-.15v-1m0,0c-.78,0-1.57.05-2.34.16-6.11.86-9.24,4.93-6.98,9.08.04.07.08.15.13.22.76,1.3,2.12,2,3.22,2,.82,0,1.5-.39,1.69-1.23.19-.83.61-1.58,1.23-2.21.07.26.17.52.32.79l2.34,4.3c.98,1.8,3.49,3.08,5.88,3.08.29,0,.59-.02.88-.06,2.61-.37,3.84-2.33,2.74-4.35l-2.34-4.3c-.14-.26-.32-.52-.52-.76,1.17.38,2.28.91,3.28,1.57.73.49,1.44.7,2.05.7,1.35,0,2.17-1.07,1.38-2.65-.03-.07-.07-.15-.11-.22-1.97-3.63-7.41-6.13-12.83-6.13h0Z"/>
    </g>
    <path class="cls-3" d="m63.81,128.54c-2.77-2.71-5.34-3.74-6.87-4.19-1.77-.52-3.85-1.08-6.24,0-.52.24-3.66,1.66-4.37,5.03-.05.23-.3,1.42,0,1.68.55.47,2.35-2.77,3.75-4.19,2.03-2.05,5.86-2.94,13.74,1.68Z"/>
  </g>
  <g>
    <g>
      <path class="cls-16" d="m54.69,105.91c-2.94,0-6.02-1.17-7.16-2.72l-3.01-4.09c-.15-.2-.26-.41-.35-.63-.06-.15-.18-.26-.33-.3-.05-.01-.09-.02-.14-.02-.11,0-.21.03-.3.1-.9.67-1.49,1.47-1.76,2.36-.22.76-1.35.81-1.69.81-1.15,0-2.82-.54-3.75-1.71-.07-.08-.11-.14-.15-.19-.88-1.2-1.08-2.38-.59-3.49.97-2.2,4.51-3.87,9.22-4.36.96-.1,1.96-.15,2.96-.15,6.94,0,13.71,2.37,16.11,5.63.04.06.08.11.12.17.23.35.45.8.26,1.16-.2.38-.81.61-1.6.61s-1.62-.22-2.42-.62c-1.31-.65-2.77-1.16-4.33-1.54-.04,0-.08-.01-.12-.01-.18,0-.35.1-.44.27-.11.2-.06.45.11.6.26.23.46.44.61.65l3.01,4.09c.43.58.53,1.13.31,1.64-.39.87-1.72,1.53-3.49,1.71-.35.04-.71.05-1.08.05Z"/>
      <path class="cls-17" d="m47.65,91v1c6.79,0,13.4,2.28,15.71,5.42.03.04.06.08.09.12.01.02.02.04.04.06.21.31.25.53.21.61-.07.13-.45.35-1.16.35s-1.46-.2-2.2-.57c-1.35-.66-2.84-1.19-4.44-1.57-.08-.02-.16-.03-.23-.03-.37,0-.71.2-.89.54-.21.41-.12.9.22,1.21.23.21.41.39.54.57l3.01,4.09c.47.64.31,1.02.25,1.14-.23.53-1.18,1.22-3.08,1.42-.33.03-.67.05-1.02.05-2.75,0-5.72-1.11-6.76-2.52l-3.01-4.09c-.12-.16-.21-.33-.28-.52-.11-.29-.36-.52-.66-.6-.09-.03-.18-.04-.28-.04-.21,0-.43.07-.6.2-.98.74-1.63,1.62-1.94,2.62-.09.31-.68.46-1.21.46-1.03,0-2.53-.48-3.36-1.53-.01-.01-.02-.03-.04-.04-.04-.04-.07-.09-.1-.14-.77-1.04-.95-2.05-.53-2.99.9-2.04,4.28-3.59,8.82-4.07.94-.1,1.92-.15,2.91-.15v-1m0,0c-1.01,0-2.02.05-3.02.15-7.87.82-11.9,4.69-8.99,8.65.05.07.1.14.17.21.98,1.23,2.73,1.9,4.15,1.9,1.06,0,1.94-.38,2.17-1.17.24-.79.78-1.5,1.58-2.1.09.25.22.5.41.75l3.01,4.09c1.26,1.72,4.5,2.93,7.57,2.93.38,0,.76-.02,1.13-.06,3.36-.35,4.95-2.22,3.53-4.14l-3.01-4.09c-.19-.25-.42-.49-.67-.72,1.5.36,2.94.86,4.23,1.5.94.46,1.86.67,2.64.67,1.74,0,2.79-1.02,1.77-2.52-.04-.07-.09-.14-.14-.21-2.54-3.45-9.54-5.83-16.52-5.83h0Z"/>
    </g>
    <path class="cls-3" d="m61.88,98.36c-3.56-2.58-6.88-3.56-8.84-3.99-2.28-.49-4.96-1.03-8.04,0-.67.22-4.71,1.58-5.63,4.78-.06.22-.39,1.35,0,1.59.71.45,3.03-2.64,4.82-3.99,2.61-1.95,7.54-2.8,17.69,1.59Z"/>
  </g>
  <g>
    <g>
      <path class="cls-16" d="m128.69,81.5c-2.93,0-6-1.38-7.14-3.22l-3.01-4.83c-.15-.24-.27-.49-.36-.77-.05-.16-.18-.28-.34-.33-.04-.01-.09-.02-.13-.02-.12,0-.24.04-.33.13-.89.78-1.47,1.7-1.73,2.73-.23.91-1.26,1.01-1.69,1.01-1.14,0-2.79-.63-3.73-2.03-.07-.09-.11-.16-.16-.23-.98-1.58-1.13-3.18-.44-4.64,1.17-2.45,4.56-4.25,9.06-4.8.96-.12,1.95-.18,2.95-.18,6.92,0,13.69,2.8,16.09,6.65.04.07.08.14.12.2.37.65.44,1.21.22,1.6-.24.41-.81.66-1.54.66s-1.59-.26-2.39-.72c-1.32-.76-2.78-1.38-4.34-1.82-.04-.01-.09-.02-.14-.02-.17,0-.33.09-.43.24-.12.19-.09.44.06.6.26.27.46.53.61.77l3.01,4.83c.49.79.58,1.56.25,2.25-.46.97-1.74,1.68-3.42,1.88-.34.04-.7.06-1.07.06Z"/>
      <path class="cls-17" d="m121.65,63.81v1c6.76,0,13.35,2.7,15.67,6.41.03.05.07.11.1.16,0,.02.02.04.03.05.26.45.33.84.2,1.07-.14.25-.58.41-1.11.41-.66,0-1.42-.23-2.14-.65-1.35-.79-2.85-1.41-4.46-1.87-.09-.03-.18-.04-.27-.04-.34,0-.67.18-.86.48-.23.38-.18.88.13,1.2.24.25.42.48.55.7l3.01,4.83c.4.64.48,1.24.22,1.77-.39.82-1.52,1.42-3.03,1.6-.32.04-.66.06-1.01.06-2.77,0-5.66-1.28-6.72-2.99l-3.01-4.83c-.13-.21-.23-.42-.31-.66-.1-.32-.36-.57-.69-.66-.09-.02-.18-.04-.26-.04-.24,0-.48.09-.66.25-.96.85-1.6,1.86-1.88,2.99-.14.54-.81.63-1.2.63-1.01,0-2.48-.57-3.32-1.81-.01-.02-.02-.03-.03-.04-.04-.06-.08-.11-.11-.17-.9-1.45-1.04-2.85-.41-4.16,1.1-2.3,4.34-3.99,8.67-4.52.94-.12,1.91-.17,2.89-.17v-1m0,0c-1.01,0-2.02.06-3.02.18-7.87.97-11.9,5.54-8.99,10.21.05.08.1.17.17.25.98,1.46,2.73,2.25,4.15,2.25,1.06,0,1.94-.44,2.17-1.38.24-.94.78-1.77,1.58-2.48.09.29.22.59.41.89l3.01,4.83c1.26,2.03,4.5,3.46,7.57,3.46.38,0,.76-.02,1.13-.07,3.36-.41,4.95-2.61,3.53-4.89l-3.01-4.83c-.19-.3-.42-.58-.67-.85,1.5.42,2.94,1.02,4.23,1.77.94.55,1.86.79,2.64.79,1.74,0,2.79-1.2,1.77-2.97-.04-.08-.09-.17-.14-.25-2.54-4.08-9.54-6.88-16.52-6.88h0Z"/>
    </g>
    <path class="cls-3" d="m135.88,72.49c-3.56-3.04-6.88-4.21-8.84-4.71-2.28-.58-4.96-1.22-8.04,0-.67.26-4.71,1.86-5.63,5.65-.06.26-.39,1.6,0,1.88.71.53,3.03-3.12,4.82-4.71,2.61-2.3,7.54-3.3,17.69,1.88Z"/>
  </g>
  <g>
    <g>
      <path class="cls-16" d="m135.71,126.5c-.36,0-.72-.02-1.07-.06-1.67-.21-2.95-.91-3.42-1.88-.33-.68-.24-1.46.25-2.25l3.01-4.83c.15-.25.36-.5.62-.78.15-.16.18-.41.06-.6-.09-.15-.26-.24-.43-.24-.04,0-.09,0-.14.02-1.57.44-3.03,1.05-4.34,1.82-.8.47-1.65.72-2.39.72s-1.3-.25-1.54-.66c-.23-.39-.16-.95.2-1.57.05-.1.09-.16.13-.23,2.4-3.85,9.17-6.65,16.09-6.65,1,0,2,.06,2.96.18,4.5.55,7.89,2.35,9.06,4.8.7,1.46.54,3.06-.44,4.64-.04.07-.09.14-.14.21-.96,1.42-2.61,2.05-3.75,2.05h0c-.43,0-1.46-.1-1.69-1-.26-1.03-.84-1.95-1.73-2.73-.09-.08-.21-.13-.33-.13-.04,0-.09,0-.13.02-.16.04-.29.17-.34.33-.09.28-.21.53-.36.78l-3.01,4.83c-1.15,1.84-4.22,3.22-7.14,3.22Z"/>
      <path class="cls-17" d="m142.75,109.81c.98,0,1.96.06,2.89.17,4.33.53,7.58,2.22,8.67,4.52.63,1.32.49,2.72-.41,4.16-.04.06-.07.12-.11.17-.01.01-.02.03-.03.04-.84,1.24-2.31,1.81-3.32,1.81-.39,0-1.07-.08-1.2-.63-.29-1.13-.92-2.13-1.88-2.98-.19-.16-.42-.25-.66-.25-.09,0-.18.01-.26.04-.33.09-.58.34-.69.66-.08.24-.18.46-.31.66l-3.01,4.83c-1.06,1.7-3.95,2.99-6.72,2.99-.34,0-.68-.02-1.01-.06-1.5-.18-2.64-.78-3.03-1.6-.25-.53-.18-1.12.22-1.77l3.01-4.83c.14-.22.32-.45.55-.7.31-.33.36-.82.13-1.2-.18-.3-.51-.48-.86-.48-.09,0-.18.01-.27.04-1.61.45-3.11,1.08-4.46,1.87-.72.42-1.48.65-2.14.65-.53,0-.96-.16-1.11-.41-.13-.23-.06-.62.2-1.07.01-.02.02-.04.03-.05.03-.05.06-.11.1-.16,2.32-3.72,8.91-6.41,15.67-6.41m0-1c-6.98,0-13.97,2.81-16.52,6.88-.05.08-.1.17-.14.25-1.02,1.77.04,2.97,1.77,2.97.78,0,1.71-.24,2.64-.79,1.29-.75,2.72-1.34,4.23-1.77-.26.27-.49.56-.67.85l-3.01,4.83c-1.42,2.28.17,4.48,3.53,4.89.37.05.75.07,1.13.07,3.07,0,6.3-1.43,7.57-3.46l3.01-4.83c.19-.3.31-.59.41-.89.8.71,1.34,1.55,1.58,2.48.24.94,1.11,1.38,2.17,1.38,1.42,0,3.16-.79,4.15-2.25.06-.08.11-.16.17-.25,2.91-4.66-1.11-9.24-8.99-10.21-1-.12-2.01-.18-3.02-.18h0Z"/>
    </g>
    <path class="cls-3" d="m128.52,117.49c3.56-3.04,6.88-4.21,8.84-4.71,2.28-.58,4.96-1.22,8.04,0,.67.26,4.71,1.86,5.63,5.65.06.26.39,1.6,0,1.88-.71.53-3.03-3.12-4.82-4.71-2.61-2.3-7.54-3.3-17.69,1.88Z"/>
  </g>
  <g>
    <g>
      <path class="cls-16" d="m103.71,113.5c-.36,0-.72-.02-1.06-.07-1.62-.22-2.84-.94-3.36-1.98-.41-.82-.34-1.76.2-2.71l3.01-5.36c.16-.28.36-.56.62-.87.14-.17.16-.41.04-.6-.09-.14-.25-.22-.42-.22-.05,0-.1,0-.15.02-1.57.49-3.03,1.17-4.35,2.02-.8.51-1.64.8-2.37.8-.69,0-1.23-.25-1.49-.67-.29-.47-.23-1.14.16-1.9.05-.1.09-.18.14-.26,2.4-4.28,9.17-7.38,16.08-7.38,1,0,1.99.07,2.95.2,4.31.59,7.64,2.48,8.93,5.06.86,1.73.75,3.64-.31,5.53-.05.08-.09.16-.14.24-.96,1.57-2.6,2.28-3.73,2.28h0c-.53,0-1.46-.15-1.69-1.14-.26-1.13-.83-2.14-1.71-3-.09-.09-.22-.14-.35-.14-.04,0-.08,0-.13.02-.17.04-.3.17-.35.34-.09.32-.21.6-.37.88l-3.01,5.36c-1.15,2.04-4.21,3.58-7.13,3.58Z"/>
      <path class="cls-17" d="m110.75,94.81c.98,0,1.95.06,2.88.19,4.14.57,7.34,2.35,8.55,4.78.78,1.57.68,3.32-.3,5.06-.04.07-.07.13-.12.2,0,.01-.02.03-.03.04-.84,1.38-2.3,2.01-3.29,2.01-.68,0-1.08-.25-1.2-.76-.28-1.22-.9-2.31-1.85-3.24-.19-.19-.44-.29-.7-.29-.08,0-.17.01-.25.03-.34.09-.61.35-.71.69-.08.28-.19.53-.32.77l-3.01,5.36c-1.07,1.9-3.94,3.33-6.69,3.33-.34,0-.67-.02-.99-.07-1.45-.2-2.54-.82-2.98-1.71-.33-.66-.27-1.44.18-2.24l3.01-5.36c.14-.25.32-.51.56-.79.29-.34.32-.83.07-1.2-.19-.29-.5-.45-.83-.45-.1,0-.2.01-.3.05-1.61.5-3.11,1.2-4.47,2.08-.71.46-1.46.72-2.1.72-.5,0-.9-.16-1.07-.43-.19-.31-.12-.82.18-1.41,0-.02.02-.03.03-.05.03-.07.07-.13.1-.19,2.32-4.13,8.9-7.13,15.64-7.13m0-1c-6.98,0-13.97,3.12-16.52,7.64-.05.09-.1.18-.14.28-1.02,1.97.04,3.3,1.77,3.3.78,0,1.71-.27,2.64-.88,1.29-.83,2.72-1.49,4.23-1.96-.26.3-.49.62-.67.95l-3.01,5.36c-1.42,2.53.17,4.97,3.53,5.43.37.05.75.07,1.13.07,3.07,0,6.3-1.59,7.57-3.84l3.01-5.36c.19-.33.31-.66.41-.98.8.79,1.34,1.72,1.58,2.75.24,1.04,1.11,1.53,2.17,1.53,1.42,0,3.16-.88,4.15-2.49.06-.09.11-.18.17-.27,2.91-5.18-1.11-10.25-8.99-11.33-1-.14-2.01-.2-3.02-.2h0Z"/>
    </g>
    <path class="cls-3" d="m96.52,103.45c3.56-3.38,6.88-4.67,8.84-5.22,2.28-.64,4.96-1.35,8.04,0,.67.29,4.71,2.07,5.63,6.27.06.28.39,1.77,0,2.09-.71.58-3.03-3.46-4.82-5.22-2.61-2.56-7.54-3.66-17.69,2.09Z"/>
  </g>
  <path class="cls-11" d="m112,78.89c-1.61.13-4.05.24-7,0-7.42-.61-10.41-2.82-14.78-3.6-10-1.79-20.54,5.14-20.22,8.11.29,2.75,10.07,3.51,14,3.6,11.98.3,21.7-4.23,28-8.11Z"/>
  <path class="cls-11" d="m178.15,99.39c-1.31-.94-3.24-2.43-5.34-4.53-5.26-5.26-6.11-8.89-8.94-12.31-6.47-7.83-18.99-9.36-20.67-6.9-1.56,2.28,5.41,9.19,8.35,11.81,8.94,7.97,19.29,10.82,26.6,11.93Z"/>
  <path class="cls-11" d="m113.79,141.61c-1.31-.94-3.24-2.43-5.34-4.53-5.26-5.26-6.11-8.89-8.94-12.31-6.47-7.83-18.99-9.36-20.67-6.9-1.56,2.28,5.41,9.19,8.35,11.81,8.94,7.97,19.29,10.82,26.6,11.93Z"/>
  <path class="cls-1" d="m74,83c-.26-.45,2.28-2.62,5-4,.95-.48,4.19-2.02,9-2,6.09.03,11.12,2.54,11,3-.12.45-5.04-1.75-12-1-7.61.82-12.64,4.62-13,4Z"/>
  <path class="cls-1" d="m82,120c-.37.33,1.37,3.01,3,5,6.29,7.67,15.63,10.65,16,10,.19-.34-2.16-1.46-9-7-6.35-5.14-9.56-8.4-10-8Z"/>
  <path class="cls-1" d="m151,79c.29-.58,3.91-.22,7,2,4.09,2.94,3.33,6.31,8,11,2.83,2.85,5.17,3.68,5,4-.26.47-5.47-.9-9-5-.97-1.13-.89-1.39-2-3-4.18-6.07-9.38-8.25-9-9Z"/>
  <path class="cls-5" d="m24.5,112.5c.8-.24-3.59-9.05-2-19,3.14-19.65,27.34-29.51,27-30-.36-.53-29.18,10-31,30-.91,9.96,5.16,19.25,6,19Z"/>
  <path class="cls-5" d="m170,75c-.15.15,2.5,2.37,5,6,1.36,1.98,6.42,9.56,6,20-.39,9.8-5.39,16.5-8,20-4.49,6.01-9.12,8.85-9,9,.18.21,10.42-4.64,16-15,.48-.88,8.21-15.77,1-29-3.91-7.17-10.77-11.23-11-11Z"/>
  <path class="cls-2" d="m80,148c0,.06,6.1,1.91,18,2,38.49.3,68.4-18.24,69-17,.28.59-5.96,5.53-17,10-34.38,13.92-69.98,4.85-70,5Z"/>
  <path class="cls-2" d="m12,135c.05-.06,2.96,2.94,7,6,14.88,11.24,31.1,12.57,31,13-.08.34-10.65.24-22-6-9.6-5.27-16.08-12.91-16-13Z"/>
</svg>