<?xml version="1.0" encoding="UTF-8"?>
<svg id="_Слой_1" data-name="Слой 1" xmlns="http://www.w3.org/2000/svg" viewBox="0 0 200 200">
  <defs>
    <style>
      .cls-1, .cls-2 {
        fill: #fff;
      }

      .cls-3 {
        fill: #fff6cf;
        stroke: #c69c6d;
        stroke-miterlimit: 10;
        stroke-width: .25px;
      }

      .cls-4 {
        fill: #272493;
      }

      .cls-5 {
        fill: #2e3192;
      }

      .cls-6 {
        fill: #eef9ff;
      }

      .cls-2 {
        opacity: .64;
      }

      .cls-7 {
        fill: #0071bc;
      }

      .cls-8 {
        fill: #1b1464;
      }

      .cls-9 {
        fill: #c3e6fc;
      }

      .cls-10 {
        fill: #d6cda7;
        opacity: .44;
      }

      .cls-11 {
        fill: #f4d34a;
      }
    </style>
  </defs>
  <g>
    <g>
      <path class="cls-7" d="m100,145.5c-38.9,0-70.55-12.52-70.55-27.92s31.65-27.92,70.55-27.92,70.55,12.53,70.55,27.92-31.65,27.92-70.55,27.92Z"/>
      <path class="cls-5" d="m100,90.16c18.85,0,36.56,2.93,49.87,8.25,13.01,5.21,20.18,12.01,20.18,19.17s-7.17,13.96-20.18,19.17c-13.3,5.32-31.02,8.25-49.87,8.25s-36.56-2.93-49.87-8.25c-13.01-5.21-20.18-12.01-20.18-19.17s7.17-13.96,20.18-19.17c13.3-5.32,31.02-8.25,49.87-8.25m0-1c-39.24,0-71.05,12.72-71.05,28.42s31.81,28.42,71.05,28.42,71.05-12.72,71.05-28.42-31.81-28.42-71.05-28.42h0Z"/>
    </g>
    <g>
      <path class="cls-9" d="m100,134.38c-53.21,0-96.5-11.69-96.5-26.07s43.29-26.07,96.5-26.07,96.5,11.69,96.5,26.07-43.29,26.07-96.5,26.07Z"/>
      <path class="cls-5" d="m100,82.75c25.82,0,50.09,2.75,68.33,7.75,17.59,4.82,27.67,11.31,27.67,17.82s-10.09,13-27.67,17.82c-18.24,4.99-42.5,7.75-68.33,7.75s-50.09-2.75-68.33-7.75c-17.59-4.82-27.67-11.31-27.67-17.82s10.09-13,27.67-17.82c18.24-4.99,42.5-7.75,68.33-7.75m0-1c-53.57,0-97,11.89-97,26.57s43.43,26.57,97,26.57,97-11.89,97-26.57-43.43-26.57-97-26.57h0Z"/>
    </g>
    <ellipse class="cls-6" cx="100.6" cy="105.42" rx="64.27" ry="18.73"/>
    <path class="cls-3" d="m164.81,106.32c-1.98,9.82-29.94,17.61-64.14,17.61s-60.81-7.41-63.96-16.9c2.03-1.3,4.35-2.36,5.83-3.04,5.94-2.73,7.44-1.2,13.59-3.71,7.95-3.24,8.17-6.9,13.59-7.41,5.46-.52,5.93,3.13,12.36,3.71,8.92.82,11.05-5.93,19.77-4.94,5.94.67,6.45,3.97,12.36,3.71,5.52-.25,6.72-3.2,11.12-2.47,4.84.8,4.53,4.58,9.89,6.18,5.23,1.54,7.4-1.5,13.59,0,3.31.8,4.93,2.22,7.41,3.71,3.02,1.82,5.93,2.9,8.59,3.57Z"/>
    <path class="cls-11" d="m156.22,106.46c.1-.3-2.74-1.88-6.18-2.47-2.48-.43-4.92-.27-4.94,0-.02.15.76.32,4.94,1.24,5.68,1.24,6.14,1.35,6.18,1.24Z"/>
    <path class="cls-11" d="m43.78,108.93c-.25-.29,2.3-3.95,4.94-3.71,1.01.09,1.12.68,2.47,1.24,3.03,1.25,6.15-.13,6.18,0,.02.11-2.01,1.13-4.94,1.24-2.8.1-3.94-.72-6.18,0-1.64.52-2.35,1.38-2.47,1.24Z"/>
    <path class="cls-11" d="m63.55,101.52c.36-.8,1.45-2.88,3.71-3.71.27-.1,1-.34,2.4-.33,2.79.01,4.22,1,6.25,1.57,4.22,1.19,7.3-.46,7.41,0,.15.6-5.09,3.81-9.89,2.47-1.48-.41-2-1-3.71-1.24-2.51-.34-4.71.48-6.18,1.24Z"/>
    <path class="cls-11" d="m93.2,97.81c-.12-.31,2.15-1.86,4.94-2.47,5.84-1.28,11.23,2.14,11.12,2.47-.08.26-3.39-1.47-8.65-1.24-4.32.19-7.29,1.58-7.41,1.24Z"/>
    <path class="cls-11" d="m117.92,97.81c-.14-.29,1.6-1.91,3.71-2.47,5.46-1.45,11.24,4.76,11.12,4.94-.1.16-4.31-4.21-9.89-3.71-2.68.24-4.79,1.54-4.94,1.24Z"/>
    <path class="cls-11" d="m66.02,111.4c-.09-.53,5.06-2.6,11.12-2.47,3.89.08,4.33.99,8.65,1.24,6.47.37,11.1-1.34,11.12-1.24.02.11-5.76,2.11-13.59,2.47-2.52.11-2.4-.07-8.65,0-6.76.08-8.6.31-8.65,0Z"/>
    <path class="cls-11" d="m132.75,110.17c.26-.46-4.44-5.29-9.89-4.94-2.1.14-2.28.91-4.94,1.24-5.02.61-8.46-1.66-8.65-1.24-.19.43,3.04,3.39,7.41,3.71,3.19.23,3.89-1.17,7.41-1.24,5.18-.1,8.43,2.85,8.65,2.47Z"/>
    <path class="cls-11" d="m88.26,118.82c-.03.48,5.54,1.16,6.18,1.24,6.12.73,12.33.51,12.36,0,.03-.48-5.54-1.16-6.18-1.24-6.12-.73-12.33-.51-12.36,0Z"/>
    <path class="cls-11" d="m120.39,116.34c3.22-3.23,5.72-3.8,7.41-3.71,1.02.05,1.29.32,4.94,1.24,3.35.84,4.96,1.07,4.94,1.24-.03.28-4.38-.44-9.89,0-3.16.25-5.72.8-7.41,1.24Z"/>
    <path class="cls-10" d="m164.38,106.55c-1.98,9.82-29.94,17.61-64.14,17.61s-60.81-7.41-63.96-16.9c1.99-1.27,4.28-2.32,5.76-3,4.87,2.82,11.27,5.94,19.04,8.39,13.63,4.28,24.12,4.13,42.01,3.71,21.51-.51,32.44-.89,40.78-7.41,3.25-2.55,5.77-5.5,7.72-8.5,1.47.74,2.67,1.63,4.2,2.55,3.02,1.82,5.93,2.9,8.59,3.57Z"/>
    <path class="cls-1" d="m135.22,127.46c16.02-1.88,27.95-6.25,35.83-9.89,10.42-4.81,12.23-7.63,12.36-9.89.4-7.24-16.42-12.83-16.06-13.59.42-.88,23.5,5.06,23.48,13.59-.01,5.3-8.94,9.23-16.06,12.36-7.81,3.43-21.03,7.82-39.54,7.41Z"/>
    <path class="cls-8" d="m83.32,142.29c0-.38,8.79.72,23.48-1.24,7.99-1.06,11.15-2.15,35.83-7.41,11.59-2.47,13.5-2.79,13.59-2.47.26.85-12.85,6.68-27.18,9.89-24.46,5.48-45.73,1.83-45.72,1.24Z"/>
  </g>
  <g>
    <circle class="cls-4" cx="122.24" cy="96" r="4.33"/>
    <path class="cls-8" d="m120.51,99.37c-.51.01-.85-.08-.86,0-.04.17,1.26,1.09,2.59.96,2.37-.23,3.66-3.64,3.46-3.85-.12-.12-.77.81-2.59,1.92-1.3.79-2.01.95-2.59.96Z"/>
    <path class="cls-2" d="m123.97,92.64c-.05-.3-1.4-.48-2.59,0-1.76.7-2.78,2.65-2.59,2.88.09.11.45-.21,1.73-.96,2.35-1.37,3.51-1.63,3.46-1.92Z"/>
  </g>
  <g>
    <ellipse class="cls-4" cx="84.55" cy="110.78" rx="6.18" ry="5.56"/>
    <path class="cls-8" d="m82.08,115.11c-.72.02-1.21-.1-1.24,0-.06.21,1.8,1.4,3.71,1.24,3.38-.29,5.24-4.68,4.94-4.94-.17-.15-1.1,1.05-3.71,2.47-1.86,1.02-2.87,1.22-3.71,1.24Z"/>
    <path class="cls-2" d="m87.03,106.46c-.07-.39-2-.62-3.71,0-2.51.9-3.98,3.41-3.71,3.71.13.15.64-.28,2.47-1.24,3.36-1.76,5.01-2.1,4.94-2.47Z"/>
  </g>
  <g>
    <circle class="cls-4" cx="103.71" cy="98.47" r="4.33"/>
    <path class="cls-8" d="m101.98,101.84c-.51.01-.85-.08-.86,0-.04.17,1.26,1.09,2.59.96,2.37-.23,3.66-3.64,3.46-3.85-.12-.12-.77.81-2.59,1.92-1.3.79-2.01.95-2.59.96Z"/>
    <path class="cls-2" d="m105.44,95.11c-.05-.3-1.4-.48-2.59,0-1.76.7-2.78,2.65-2.59,2.88.09.11.45-.21,1.73-.96,2.35-1.37,3.51-1.63,3.46-1.92Z"/>
  </g>
  <g>
    <ellipse class="cls-4" cx="141.39" cy="112.02" rx="6.18" ry="5.56"/>
    <path class="cls-8" d="m138.92,116.34c-.72.02-1.21-.1-1.24,0-.06.21,1.8,1.4,3.71,1.24,3.38-.29,5.24-4.68,4.94-4.94-.17-.15-1.1,1.05-3.71,2.47-1.86,1.02-2.87,1.22-3.71,1.24Z"/>
    <path class="cls-2" d="m143.87,107.69c-.07-.39-2-.62-3.71,0-2.51.9-3.98,3.41-3.71,3.71.13.15.64-.28,2.47-1.24,3.36-1.76,5.01-2.1,4.94-2.47Z"/>
  </g>
  <g>
    <ellipse class="cls-4" cx="115.45" cy="108.36" rx="4.94" ry="4.33"/>
    <path class="cls-8" d="m113.47,111.73c-.58.01-.97-.08-.99,0-.05.17,1.44,1.09,2.97.96,2.7-.23,4.19-3.64,3.95-3.85-.14-.12-.88.81-2.97,1.92-1.49.79-2.3.95-2.97.96Z"/>
    <path class="cls-2" d="m117.42,105c-.06-.3-1.6-.48-2.97,0-2.01.7-3.18,2.65-2.97,2.88.11.11.51-.21,1.98-.96,2.69-1.37,4.01-1.63,3.95-1.92Z"/>
  </g>
</svg>