<?xml version="1.0" encoding="UTF-8"?>
<svg id="_Слой_1" data-name="Слой 1" xmlns="http://www.w3.org/2000/svg" viewBox="0 0 200 200">
  <defs>
    <style>
      .cls-1 {
        fill: #32ff93;
      }

      .cls-2 {
        fill: #ecd59f;
      }

      .cls-3 {
        fill: #fc9b00;
      }

      .cls-4 {
        fill: #cae8ef;
      }

      .cls-5 {
        fill: #d2d8af;
      }

      .cls-6 {
        fill: #919b3a;
      }

      .cls-7 {
        fill: #4b7582;
      }

      .cls-8 {
        stroke: #000;
        stroke-miterlimit: 10;
      }

      .cls-8, .cls-9 {
        fill: #3bc7ff;
      }

      .cls-10 {
        fill: #eef7c9;
      }

      .cls-11 {
        fill: #f5ecdd;
      }
    </style>
  </defs>
  <g>
    <path class="cls-9" d="m106.92,189.5c-33.8,0-61.31-10.92-61.31-24.34v-70.71h122.61v70.71c0,13.42-27.5,24.34-61.31,24.34Z"/>
    <path d="m167.72,94.95v70.21c0,6.2-6.21,12.1-17.48,16.63-11.56,4.65-26.95,7.21-43.33,7.21s-31.77-2.56-43.33-7.21c-11.27-4.53-17.48-10.44-17.48-16.63v-70.21h121.61m1-1H45.11v71.21c0,13.71,27.67,24.84,61.81,24.84s61.81-11.13,61.81-24.84v-71.21h0Z"/>
  </g>
  <g>
    <path class="cls-9" d="m106.92,119.95c-33.8,0-61.31-10.92-61.31-24.34s27.5-24.34,61.31-24.34,61.31,10.92,61.31,24.34-27.5,24.34-61.31,24.34Z"/>
    <path d="m106.92,71.77c16.38,0,31.77,2.56,43.33,7.2,11.27,4.53,17.48,10.44,17.48,16.64s-6.21,12.11-17.48,16.64c-11.56,4.65-26.95,7.2-43.33,7.2s-31.77-2.56-43.33-7.2c-11.27-4.53-17.48-10.44-17.48-16.64s6.21-12.11,17.48-16.64c11.56-4.65,26.95-7.2,43.33-7.2m0-1c-34.13,0-61.81,11.12-61.81,24.84s27.67,24.84,61.81,24.84,61.81-11.12,61.81-24.84-27.67-24.84-61.81-24.84h0Z"/>
  </g>
  <path class="cls-7" d="m78.82,74.57c-5.1,6.83-10.41,17.04-13.48,31.87-.52,2.49-.2,3.48-.54,5.89-11.63-4.32-19.69-9.14-19.69-16.15,0-9.64,13.84-17.94,33.71-21.61Z"/>
  <ellipse class="cls-10" cx="55.19" cy="128.14" rx="6.33" ry="9.35"/>
  <path class="cls-7" d="m167.78,98.92v66.67c0,11.19-20.63,20.54-48.11,22.76,9.72-5.64,20.62-15.55,30.2-32.84,10.12-18.26,15.31-38.53,17.86-56.59h.06Z"/>
  <ellipse class="cls-5" cx="160.21" cy="159.92" rx="5.71" ry="8.2"/>
  <ellipse class="cls-10" cx="67.38" cy="165.77" rx="6.33" ry="9.35"/>
  <ellipse class="cls-10" cx="83.79" cy="137.32" rx="6.33" ry="9.35"/>
  <ellipse class="cls-10" cx="100.2" cy="173.42" rx="6.33" ry="9.35"/>
  <ellipse class="cls-10" cx="116.61" cy="139.51" rx="6.33" ry="9.35"/>
  <ellipse class="cls-10" cx="131.92" cy="169.05" rx="6.33" ry="9.35"/>
  <ellipse class="cls-10" cx="148.33" cy="132.95" rx="6.33" ry="9.35"/>
  <path class="cls-2" d="m165.88,101.4c-7.88,9.11-30.75,18.59-58.42,18.59s-51.64-9.48-59.51-18.59c7.88-9.11,31.3-15.73,58.97-15.73s51.09,6.62,58.97,15.73Z"/>
  <path class="cls-11" d="m57.99,98.93c-.09-.74,4.38-3.54,9.36-4.97.48-.14.88-.24,1.21-.31,5.49-1.27,10.95-.53,10.97.31.01.51-4.05,1.45-12.17,3.31-8.81,2.02-9.33,1.9-9.36,1.66Z"/>
  <path class="cls-11" d="m116.28,92.62c.01-.95,7.05-1.47,14.29,0,3.62.73,6.58,1.82,8.69,2.72,7.97,3.39,15.49,9.06,15.42,10.07-.07.98-7.33-3.43-20.54-7.67-11.41-3.67-17.87-4.2-17.86-5.11Z"/>
  <path class="cls-11" d="m91.63,104.01c-.06-.8,4.89-3.33,10.46-3.79,9.11-.75,16.8,4.29,16.7,5.22-.07.68-4.27-1.06-13.08-1.49-8.86-.43-14.02.86-14.08.06Z"/>
  <g>
    <path class="cls-1" d="m31.98,49.98c0,.36.04.73.12,1.09h-.12v-1.09Z"/>
    <path d="m31.98,49.98v1.09h.12c-.08-.36-.12-.73-.12-1.09h0Z"/>
  </g>
  <g>
    <path class="cls-1" d="m170.91,49.98v1.09h-.12c.08-.36.12-.73.12-1.09Z"/>
    <path d="m170.91,49.98c0,.36-.04.73-.12,1.09h.12v-1.09h0Z"/>
  </g>
  <ellipse class="cls-3" cx="136.45" cy="106.86" rx="9.3" ry="5.47"/>
  <ellipse class="cls-3" cx="97.62" cy="95.38" rx="7.66" ry="3.83"/>
  <ellipse class="cls-3" cx="89.96" cy="112.33" rx="7.66" ry="3.28"/>
  <path class="cls-6" d="m112.16,116.69c-2.99-.53-.35-14.22,0-14.2.31,0-.55,10.92.66,11,1.01.06,2.89-7.39,3.32-7.33.33.04-1.04,4.32,0,4.58,1.46.36,6.49-7.38,6.63-7.33.19.06-7.43,13.85-10.61,13.29Z"/>
  <path class="cls-6" d="m78.65,107.93c2.04-1.15-3.83-16.73-4.08-16.66-.22.07,3.54,12.7,2.67,13.01-.72.26-4.23-8.14-4.53-8-.23.11,2,4.89,1.32,5.37-.96.68-6.86-7.49-6.96-7.41-.12.11,9.41,14.91,11.58,13.68Z"/>
  <path class="cls-6" d="m123.49,94.43c2.13-.78-1.34-6.55-1.59-6.48-.22.06,1.62,4.88.74,5.14-.73.21-2.93-2.85-3.24-2.75-.24.08,1.24,1.79.51,2.09-1.02.43-5.57-2.2-5.67-2.16-.13.06,6.98,4.99,9.24,4.16Z"/>
  <g>
    <g>
      <g>
        <path class="cls-9" d="m33.77,113.65c-11.16,0-18.4-2.03-20.39-5.72-.16-.31-.29-.62-.38-.92l-3.51-12.13,132.49-38.33,3.51,12.13c.09.3.15.63.17.98.68,9.79-26.28,25.41-61.39,35.57-18.49,5.35-36.9,8.42-50.51,8.42Z"/>
        <path d="m141.65,57.17l3.37,11.65c.08.27.13.56.15.88.57,8.2-22.6,23.94-61.03,35.05-18.45,5.34-36.81,8.4-50.37,8.4-10.81,0-18.08-1.99-19.94-5.45-.15-.28-.26-.56-.34-.82l-3.37-11.65,131.53-38.05m.68-1.24L8.88,94.54l3.65,12.61c.1.35.25.69.42,1.02,2.15,4,9.79,5.98,20.83,5.98,13.21,0,31.29-2.84,50.65-8.44,35.54-10.28,62.44-26.13,61.75-36.08-.03-.37-.09-.74-.19-1.08l-3.65-12.61h0Z"/>
      </g>
      <g>
        <path class="cls-9" d="m30.73,103.14c-12.16,0-19.53-2.36-20.77-6.64-2.77-9.58,24.69-25.98,61.22-36.55,18.49-5.35,36.9-8.42,50.5-8.42,12.16,0,19.53,2.36,20.77,6.64,1.29,4.47-4.42,10.93-15.67,17.72-11.59,7-27.77,13.69-45.55,18.83-18.49,5.35-36.9,8.42-50.5,8.42Z"/>
        <path d="m121.69,52.04c11.74,0,19.13,2.29,20.29,6.28,1.22,4.23-4.4,10.49-15.45,17.15-11.55,6.98-27.69,13.64-45.43,18.78-18.45,5.34-36.81,8.4-50.37,8.4-11.74,0-19.14-2.29-20.29-6.28-2.36-8.16,21.54-24.55,60.88-35.93,18.45-5.34,36.8-8.4,50.37-8.4h0m0-1c-13.21,0-31.28,2.84-50.64,8.44-36.85,10.66-64.41,27.3-61.56,37.17,1.35,4.68,9.32,7,21.25,7,13.21,0,31.28-2.84,50.64-8.44,36.85-10.66,64.41-27.3,61.56-37.17-1.35-4.68-9.32-7-21.25-7h0Z"/>
      </g>
    </g>
    <ellipse class="cls-8" cx="69.85" cy="63.24" rx="8.75" ry="13.67" transform="translate(-14.82 21.9) rotate(-16.14)"/>
    <path class="cls-7" d="m78.26,60.8c2.1,7.25.04,14.22-4.61,15.57-1.71.5-3.54.16-5.26-.83,1.39-2.17,2.77-4.79,3.88-7.88,1.82-5.04,2.36-9.82,2.32-13.9,1.56,1.85,2.86,4.27,3.67,7.05Z"/>
    <path class="cls-4" d="m66.29,52.88c-.34-.27-2.44,1.13-3.6,3.32-2.36,4.45.24,10.13.63,10.07.27-.04-.72-2.85.28-6.91.96-3.93,3.07-6.17,2.68-6.47Z"/>
    <path class="cls-4" d="m51.1,94.85c.04.93-33.22,6.38-35.31-.03-2.28-6.99,33.67-24.38,34.18-23.55.43.68-23.73,13.43-21.57,19.91,1.88,5.66,22.67,2.94,22.7,3.68Z"/>
  </g>
  <path class="cls-4" d="m146.84,51.08c5.81,4.99,7.38,14.43,4.38,24.07,1.92-6.11,5.57-14.13,13.13-19.69,10.75-7.91,22.33-5.66,25.16-13.13,1.54-4.06-.03-9.63-3.28-12.03-5.2-3.84-12.16,2.3-16.41-1.09-4.88-3.9,1.77-14.01-3.28-19.69-4.69-5.27-17.38-4.36-20.78,1.09-3.57,5.71,4.26,14.47,1.09,17.5-3.34,3.2-12.66-5.99-20.78-2.19-4.21,1.97-7.03,6.91-6.56,10.94.71,6.09,9.16,11.99,20.78,10.94,3.18.78,5.27,2.17,6.56,3.28Z"/>
  <path class="cls-4" d="m169.78,73.85c-.22,3.43-3.22,7.49-7.55,10.43,2.75-1.86,6.68-4.01,10.78-4.2,5.84-.27,16.65-13.67,17.33-17.18.62-3.25-3.2-6.2-6.12-4.97-3.06,1.28-7.38,1.44-11,.8-1.87-.33-4.45.84-5.79,2.52-2.02,2.54-1.84,7.01,1.74,9.62.59,1.13.66,2.21.61,2.97Z"/>
</svg>