<?xml version="1.0" encoding="UTF-8"?>
<svg id="_Слой_1" data-name="Слой 1" xmlns="http://www.w3.org/2000/svg" xmlns:xlink="http://www.w3.org/1999/xlink" viewBox="0 0 200 200">
  <defs>
    <style>
      .cls-1 {
        fill: #754c24;
      }

      .cls-1, .cls-2, .cls-3, .cls-4, .cls-5, .cls-6 {
        stroke-linecap: round;
        stroke-linejoin: round;
      }

      .cls-1, .cls-6 {
        stroke: #a67c52;
      }

      .cls-7 {
        fill: #e9b770;
        stroke: #8c6239;
        stroke-miterlimit: 10;
      }

      .cls-8 {
        fill: #8c6239;
        opacity: .6;
      }

      .cls-2 {
        fill: url(#_Безымянный_градиент_22-2);
      }

      .cls-2, .cls-3, .cls-4, .cls-5 {
        stroke: #603813;
        stroke-width: .25px;
      }

      .cls-3 {
        fill: url(#_Безымянный_градиент_22-3);
      }

      .cls-4 {
        fill: url(#_Безымянный_градиент_22);
      }

      .cls-5 {
        fill: url(#_Безымянный_градиент_22-4);
      }
    </style>
    <radialGradient id="_Безымянный_градиент_22" data-name="Безымянный градиент 22" cx="95.23" cy="84.71" fx="95.23" fy="84.71" r="5.52" gradientTransform="translate(-1.09 -2.29) scale(1.08 1.1)" gradientUnits="userSpaceOnUse">
      <stop offset=".09" stop-color="#fff"/>
      <stop offset=".26" stop-color="#fcf9e1"/>
      <stop offset=".61" stop-color="#f5ea96"/>
      <stop offset="1" stop-color="#edd83b"/>
    </radialGradient>
    <radialGradient id="_Безымянный_градиент_22-2" data-name="Безымянный градиент 22" cy="104.71" fy="104.71" xlink:href="#_Безымянный_градиент_22"/>
    <radialGradient id="_Безымянный_градиент_22-3" data-name="Безымянный градиент 22" cy="124.71" fy="124.71" r="5.52" xlink:href="#_Безымянный_градиент_22"/>
    <radialGradient id="_Безымянный_градиент_22-4" data-name="Безымянный градиент 22" cx="107.73" cy="47.21" fx="107.73" fy="47.21" xlink:href="#_Безымянный_градиент_22"/>
  </defs>
  <path class="cls-7" d="m151.18,90.77v3.6c0,.38-.3.68-.67.68h-2.4c-.58,0-.89.7-.5,1.14l2.31,2.63c.42.48.01,1.23-.62,1.13l-1.08-.18c-.59-.1-1.01.57-.66,1.07l1.34,1.92,1.53,2.18c.32.45,0,1.08-.55,1.08h-1.73c-.59,0-.89.71-.5,1.15l2.49,2.74c.4.44.09,1.15-.5,1.15h-1.63c-.57,0-.88.66-.53,1.11l3.9,4.91c.35.45.04,1.11-.52,1.11-1.29,0-2.99,0-2.97,0,.04,0,1.54,6.08,1.54,6.08l-2.83-3.91,2.83,36.81-2.59-25.82,2.36,30.95c.11.43-.21.86-.65.86h-.72c-.53,0-.86.6-.57,1.05l2.16,3.4c.29.45-.03,1.05-.57,1.05h-1.28c-.47,0-.8.48-.63.93l2.17,5.77c.16.42-.12.88-.56.92-2.06.21-7.09.65-7.11-.09s-3.66,2.77-4.98,4.07c-.26.26-.68.26-.95,0l-1.34-1.35c-.21-.21-.54-.26-.8-.12l-2.53,1.4c-.45.25-1-.08-1-.6v-3.41c0-.63-.77-.92-1.18-.45l-1.66,1.92c-.34.4-.98.27-1.15-.23l-.34-1.04c-.16-.5-.8-.63-1.14-.24l-2.87,3.27c-.41.47-1.18.17-1.18-.45v-1.09c0-.45-.42-.77-.84-.66l-4.33,1.13c-.43.11-.84-.22-.84-.66v-1.47s-5.09,4.15-5.09,4.15c-.27.22-.67.2-.91-.06l-2.28-2.42c-.23-.24-.59-.28-.86-.1l-1.73,1.17c-.45.3-1.05-.02-1.05-.57v-.3c0-.5-.52-.83-.97-.61l-3.2,1.57c-.5.24-1.05-.18-.96-.73.22-1.27.38-3.11-.29-3.92-.79-.95-2.72-1.21-3.72-1.29-.35-.03-.62-.32-.62-.68v-5.18c0-.13-.04-.27-.11-.38l-.7-1.06c-.16-.25-.15-.57.03-.81l3.88-4.91c.1-.12.15-.27.15-.43v-3.36c0-.42-.36-.73-.77-.68l-2.09.3c-.57.08-.98-.56-.66-1.05l1.48-24.23c.34-.52-.13-1.19-.73-1.04l-.22.06c-.55.14-1.01-.42-.78-.94l2.11-4.82c.23-.53-.25-1.09-.8-.94l-.9.25c-.46.13-.91-.26-.85-.74l.59-4.68.36-2.89-4.34,4.39s5.2-8.78,4.22-8.23c-.38.21-.94.68-1.48,1.17-.5.44-1.26-.03-1.1-.68l1.27-5.14c.14-.56-.42-1.03-.94-.79l-1.01.48c-.45.21-.96-.12-.96-.62v-1.49c0-.5-.52-.83-.97-.61l-1.33.65c-.6.3-1.22-.38-.87-.97l4.73-7.98c.27-.46-.05-1.03-.58-1.03h-.8c-.54,0-.86-.61-.56-1.06l2.94-4.46c.3-.45-.02-1.06-.56-1.06h-1.02c-.51,0-.84-.55-.59-1.01l1.26-2.38c.24-.46-.09-1.01-.59-1.01h-.77c-.53,0-.85-.58-.58-1.04l4.02-6.71c.27-.46-.05-1.04-.58-1.04h-1.11c-.45,0-.77-.43-.65-.87l1.64-5.95c.12-.44-.2-.87-.65-.87h-1.72c-.59,0-.9-.72-.49-1.15l1.82-1.93c.12-.13.19-.31.19-.49-.03-.82-.19-3.21-1.08-4.11-.81-.82.79-2.25,1.66-2.92.28-.22.35-.62.15-.92l-1.25-1.9c-.27-.4-.04-.95.43-1.05l3.68-.75c.4-.08.64-.5.51-.89l-.75-2.29c-.06-.17-.04-.36.04-.52l1.79-3.63c.15-.3.06-.65-.2-.85l-2.27-1.72c-.52-.39-.24-1.23.4-1.23h4.61s8.84,0,8.84,0c.11,0,.22-.03.32-.08l10.54-5.73c.14-.08.3-.1.46-.07l12.11,2.56c.08.02.16.02.24,0l9.79-1.49c.32-.05.63.14.74.45,1.09,3.22,6.7,19.93,6.7,21.92,0,2.15,3.13,31.76,3.25,32.9,0,.02,0,.05,0,.07Z"/>
  <path class="cls-7" d="m132.49,36.09c1.78-.53,7.81-2.08,14.35.85,4.13,1.85,6.65,4.68,7.88,6.28-.1.04-.19.07-.29.11h5.76s-5.42.08-4.24,2.61c1.05,2.24,5.4,1.64,6.4,1.47.14-.02.28,0,.4.06l3.14,1.59c.46.23.51.87.09,1.17-1.27.9-3.43,2.31-3.43,1.53s4.35.23,6.46.79c.5.13.67.77.3,1.14l-.76.77c-.3.3-.25.81.1,1.05l5.82,3.93h-2.23c-.58,0-.89.7-.5,1.14l2.32,2.62c.23.26.23.66,0,.92l-1.23,1.34c-.28.3-.23.78.1,1.02l5.25,3.8c.53.39.26,1.24-.39,1.24h-1.22c-.57,0-.89.68-.51,1.12l3.84,4.58,1.08-.22,8.67,16.46-3.25-1.1,7.59,4.39h-2.25c-.54,0-.86.61-.56,1.07l2.8,4.19-1.08.23v2.35c0,.47-.45.8-.89.65l-1.48-.5c-.44-.15-.89.18-.89.65v3.44c0,.71-1.36-.87-2.32-2.08-.36-.46-1.09-.26-1.19.32l-.62,3.74c-.09.55-.75.76-1.14.37l-1.17-1.19c-.42-.43-1.15-.13-1.15.48v4.25c0,.38-.3.68-.67.68h-2.64c-.24,0-.46.13-.58.33l-1.67,2.85c-.29.49-1.01.43-1.21-.1l-.82-2.15-.98,5.1c-.06.32-.34.55-.66.55h-.9s-2.33,0-2.33,0c-.16,0-.31-.06-.43-.16l-1.95-1.66c-.25-.21-.62-.21-.87,0l-1.64,1.4c-.28.24-.69.21-.93-.06l-7.38-15.59c-.2-.23-.53-.29-.8-.15l-.98.5c-.38.19-.84-.01-.95-.43l-1.91-6.86c-.02-.08-.06-.16-.11-.23l-3.03-4.01c-.09-.12-.14-.27-.14-.42v-3c0-.19-.08-.37-.22-.5l-3.04-2.86h-1.08v-4.69c0-.57-.64-.89-1.08-.54h0c-.44.34-1.08.02-1.08-.54v-2.01c0-.57-.65-.89-1.09-.54l-.6.48c-.5.41-1.23-.07-1.07-.7l1.28-5.2c.15-.59-.49-1.07-1.01-.75l-1.94,1.21c-.45.28-1.03-.05-1.03-.58v-11.77"/>
  <g>
    <path d="m123.51,161.33c-.33-.44.18-1.78,1.08-2.2,2.01-.93,5.66,2.89,5.42,3.29-.03.06-.16.07-.34.09-.36.04-.65-.06-.74-.09-1.51-.55-2.41-.97-3.25-1.1-1.29-.2-1.9.36-2.17,0Z"/>
    <path d="m128.88,163.73c.23.29-.34.96-.78,1.31-.16.13-.71.55-1.57.65-1.23.15-2.57-.39-3.14-1.31-.51-.82-.34-1.88,0-1.96.28-.07.8.49,1.57,1.31.42.45.52.61.78.65.49.07.7-.39,1.57-.65.51-.15,1.35-.27,1.57,0Z"/>
    <path d="m135.43,156.94c.25-.24,1.58-1.53,3.25-1.1.93.24,2.03,1.03,2.17,2.2.13,1.1-.63,2.26-1.08,2.2-.51-.07-.21-1.64-1.08-2.2-1.32-.83-3.86,1.62-4.34,1.1-.29-.31.34-1.47,1.08-2.2Z"/>
    <path d="m134.35,161.33c2.09.65,3.29.91,4.01.99.13.01.3.03.33.11.09.31-1.84,1.89-3.25,1.1-.7-.39-1.09-1.26-1.08-2.2Z"/>
    <path d="m126.62,169.45c.14-.16,1.19.31,1.92,0,.85-.36.15-1.28.96-1.83.8-.54,2.66-.44,3.84,0,2.57.96,2.15,3.62,1.92,3.66-.18.03-.37-1.41-1.92-1.83-.55-.15-1.29-.17-1.92,0-1.16.32-1.06,1.05-1.92,1.22-1.26.25-3.08-.99-2.88-1.22Z"/>
    <path d="m125.66,170.06c-.11.44-.2,1.08,0,1.83.13.51.84,3.25,3.84,3.66,3.03.41,6.14-1.87,5.76-2.44-.22-.33-1.83-.4-2.88,0-1.06.4-1.08,1.1-1.92,1.22-.21.03-.8.07-1.92-.61-1.8-1.09-2.55-2.58-2.88-3.66Z"/>
    <path d="m144.11,165.72c.89.29,1.86,1.11,2.17,2.2.54,1.92-1.08,4.39-1.08,4.39.8.65-2.16-1.16-2.17-2.2-.01-1.11,2.31-1.77,2.17-2.2-.03-.08-.2-.32-3.25,0-2.2.23-2.82.43-3.25,0-.53-.52-.52-1.7,0-2.2.5-.47,1.13,0,3.25,0,1.4,0,1.54-.2,2.17,0Z"/>
    <path d="m114.06,171.89c-.33-.44.18-1.78,1.08-2.2,2.01-.93,5.66,2.89,5.42,3.29-.03.06-.16.07-.34.09-.36.04-.65-.06-.74-.09-1.51-.55-2.41-.97-3.25-1.1-1.29-.2-1.9.36-2.17,0Z"/>
    <path d="m119.43,174.29c.23.29-.34.96-.78,1.31-.16.13-.71.55-1.57.65-1.23.15-2.57-.39-3.14-1.31-.51-.82-.34-1.88,0-1.96.28-.07.8.49,1.57,1.31.42.45.52.61.78.65.49.07.7-.39,1.57-.65.51-.15,1.35-.27,1.57,0Z"/>
  </g>
  <g>
    <path d="m99.28,155.06c-.33-.44.18-1.78,1.08-2.2,2.01-.93,5.66,2.89,5.42,3.29-.03.06-.16.07-.34.09-.36.04-.65-.06-.74-.09-1.51-.55-2.41-.97-3.25-1.1-1.29-.2-1.9.36-2.17,0Z"/>
    <path d="m104.65,157.46c.23.29-.34.96-.78,1.31-.16.13-.71.55-1.57.65-1.23.15-2.57-.39-3.14-1.31-.51-.82-.34-1.88,0-1.96.28-.07.8.49,1.57,1.31.42.45.52.61.78.65.49.07.7-.39,1.57-.65.51-.15,1.35-.27,1.57,0Z"/>
    <path d="m111.2,150.67c.25-.24,1.58-1.53,3.25-1.1.93.24,2.03,1.03,2.17,2.2.13,1.1-.63,2.26-1.08,2.2-.51-.07-.21-1.64-1.08-2.2-1.32-.83-3.86,1.62-4.34,1.1-.29-.31.34-1.47,1.08-2.2Z"/>
    <path d="m110.12,155.06c2.09.65,3.29.91,4.01.99.13.01.3.03.33.11.09.31-1.84,1.89-3.25,1.1-.7-.39-1.09-1.26-1.08-2.2Z"/>
    <path d="m102.39,163.18c.14-.16,1.19.31,1.92,0,.85-.36.15-1.28.96-1.83.8-.54,2.66-.44,3.84,0,2.57.96,2.15,3.62,1.92,3.66-.18.03-.37-1.41-1.92-1.83-.55-.15-1.29-.17-1.92,0-1.16.32-1.06,1.05-1.92,1.22-1.26.25-3.08-.99-2.88-1.22Z"/>
    <path d="m101.43,163.79c-.11.44-.2,1.08,0,1.83.13.51.84,3.25,3.84,3.66,3.03.41,6.14-1.87,5.76-2.44-.22-.33-1.83-.4-2.88,0-1.06.4-1.08,1.1-1.92,1.22-.21.03-.8.07-1.92-.61-1.8-1.09-2.55-2.58-2.88-3.66Z"/>
    <path d="m119.88,159.45c.89.29,1.86,1.11,2.17,2.2.54,1.92-1.08,4.39-1.08,4.39.8.65-2.16-1.16-2.17-2.2-.01-1.11,2.31-1.77,2.17-2.2-.03-.08-.2-.32-3.25,0-2.2.23-2.82.43-3.25,0-.53-.52-.52-1.7,0-2.2.5-.47,1.13,0,3.25,0,1.4,0,1.54-.2,2.17,0Z"/>
    <path d="m118.79,167.13c.46-.67-.57-2.63-2.17-3.29-.67-.28-1.83-.49-2.17,0-.46.67.57,2.63,2.17,3.29.67.28,1.83.49,2.17,0Z"/>
    <path d="m103.11,171.86c.25-.24,1.58-1.53,3.25-1.1.93.24,2.03,1.03,2.17,2.2.13,1.1-.63,2.26-1.08,2.2-.51-.07-.21-1.64-1.08-2.2-1.32-.83-3.86,1.62-4.34,1.1-.29-.31.34-1.47,1.08-2.2Z"/>
    <path d="m102.02,176.25c2.09.65,3.29.91,4.01.99.13.01.3.03.33.11.09.31-1.84,1.89-3.25,1.1-.7-.39-1.09-1.26-1.08-2.2Z"/>
  </g>
  <g>
    <path d="m117.15,143.37c.32.45-.2,1.78-1.11,2.18-2.02.9-5.62-2.95-5.38-3.36.03-.06.16-.07.34-.09.36-.04.65.07.74.1,1.5.57,2.4,1,3.24,1.14,1.29.21,1.9-.34,2.17.03Z"/>
    <path d="m111.82,140.91c-.23-.3.35-.96.8-1.3.17-.13.72-.54,1.58-.64,1.23-.14,2.57.42,3.12,1.34.5.83.32,1.88-.02,1.96-.28.07-.8-.5-1.55-1.33-.42-.46-.51-.62-.78-.66-.48-.08-.71.38-1.58.64-.51.15-1.36.25-1.57-.02Z"/>
    <path d="m105.18,147.62c-.25.24-1.6,1.51-3.26,1.06-.93-.25-2.02-1.05-2.14-2.22-.12-1.1.66-2.25,1.11-2.18.51.07.19,1.65,1.06,2.21,1.31.85,3.87-1.57,4.35-1.05.28.31-.36,1.47-1.11,2.18Z"/>
    <path d="m106.31,143.25c-2.08-.68-3.28-.95-4-1.03-.13-.02-.3-.03-.32-.11-.08-.31,1.86-1.87,3.26-1.06.7.4,1.08,1.28,1.06,2.21Z"/>
    <path d="m114.13,135.22c-.14.16-1.18-.32-1.92-.02-.85.35-.17,1.28-.98,1.82-.8.53-2.66.41-3.84-.04-2.56-.99-2.11-3.65-1.88-3.68.18-.02.35,1.42,1.9,1.85.55.16,1.29.19,1.92.02,1.17-.3,1.07-1.04,1.93-1.2,1.26-.24,3.07,1.03,2.86,1.25Z"/>
    <path d="m115.1,134.62c.12-.44.21-1.08.02-1.83-.13-.51-.81-3.26-3.8-3.7-3.02-.45-6.16,1.8-5.78,2.37.22.33,1.82.42,2.88.03,1.06-.39,1.09-1.09,1.93-1.2.21-.03.8-.06,1.91.63,1.78,1.11,2.52,2.61,2.84,3.69Z"/>
    <path d="m96.61,138.74c-.89-.3-1.85-1.13-2.14-2.22-.52-1.92,1.13-4.37,1.13-4.38-.79-.66,2.14,1.19,2.14,2.22,0,1.11-2.33,1.74-2.19,2.17.03.08.2.32,3.25.04,2.2-.21,2.82-.4,3.25.04.52.53.5,1.71-.02,2.2-.5.47-1.13-.01-3.25-.04-1.4-.02-1.54.19-2.17-.03Z"/>
    <path d="m97.78,131.07c-.47.66.54,2.63,2.13,3.32.66.28,1.82.52,2.17.03.47-.66-.54-2.63-2.13-3.32-.66-.28-1.82-.52-2.17-.03Z"/>
    <path d="m126.72,132.92c.32.45-.2,1.78-1.11,2.18-2.02.9-5.62-2.95-5.38-3.36.03-.06.16-.07.34-.09.36-.04.65.07.74.1,1.5.57,2.4,1,3.24,1.14,1.29.21,1.9-.34,2.17.03Z"/>
    <path d="m121.38,130.46c-.23-.3.35-.96.8-1.3.17-.13.72-.54,1.58-.64,1.23-.14,2.57.42,3.12,1.34.5.83.32,1.88-.02,1.96-.28.07-.8-.5-1.55-1.33-.42-.46-.51-.62-.78-.66-.48-.08-.71.38-1.58.64-.51.15-1.36.25-1.57-.02Z"/>
  </g>
  <g>
    <path d="m141.31,149.93c.32.45-.2,1.78-1.11,2.18-2.02.9-5.62-2.95-5.38-3.36.03-.06.16-.07.34-.09.36-.04.65.07.74.1,1.5.57,2.4,1,3.24,1.14,1.29.21,1.9-.34,2.17.03Z"/>
    <path d="m135.97,147.46c-.23-.3.35-.96.8-1.3.17-.13.72-.54,1.58-.64,1.23-.14,2.57.42,3.12,1.34.5.83.32,1.88-.02,1.96-.28.07-.8-.5-1.55-1.33-.42-.46-.51-.62-.78-.66-.48-.08-.71.38-1.58.64-.51.15-1.36.25-1.57-.02Z"/>
    <path d="m129.34,154.18c-.25.24-1.6,1.51-3.26,1.06-.93-.25-2.02-1.05-2.14-2.22-.12-1.1.66-2.25,1.11-2.18.51.07.19,1.65,1.06,2.21,1.31.85,3.87-1.57,4.35-1.05.28.31-.36,1.47-1.11,2.18Z"/>
    <path d="m130.47,149.8c-2.08-.68-3.28-.95-4-1.03-.13-.02-.3-.03-.32-.11-.08-.31,1.86-1.87,3.26-1.06.7.4,1.08,1.28,1.06,2.21Z"/>
    <path d="m138.29,141.77c-.14.16-1.18-.32-1.92-.02-.85.35-.17,1.28-.98,1.82-.8.53-2.66.41-3.84-.04-2.56-.99-2.11-3.65-1.88-3.68.18-.02.35,1.42,1.9,1.85.55.16,1.29.19,1.92.02,1.17-.3,1.07-1.04,1.93-1.2,1.26-.24,3.07,1.03,2.86,1.25Z"/>
    <path d="m139.26,141.17c.12-.44.21-1.08.02-1.83-.13-.51-.81-3.26-3.8-3.7-3.02-.45-6.16,1.8-5.78,2.37.22.33,1.82.42,2.88.03,1.06-.39,1.09-1.09,1.93-1.2.21-.03.8-.06,1.91.63,1.78,1.11,2.52,2.61,2.84,3.69Z"/>
    <path d="m120.76,145.3c-.89-.3-1.85-1.13-2.14-2.22-.52-1.92,1.13-4.37,1.13-4.38-.79-.66,2.14,1.19,2.14,2.22,0,1.11-2.33,1.74-2.19,2.17.03.08.2.32,3.25.04,2.2-.21,2.82-.4,3.25.04.52.53.5,1.71-.02,2.2-.5.47-1.13-.01-3.25-.04-1.4-.02-1.54.19-2.17-.03Z"/>
    <path d="m121.94,137.63c-.47.66.54,2.63,2.13,3.32.66.28,1.82.52,2.17.03.47-.66-.54-2.63-2.13-3.32-.66-.28-1.82-.52-2.17-.03Z"/>
    <path d="m137.68,133.08c-.25.24-1.6,1.51-3.26,1.06-.93-.25-2.02-1.05-2.14-2.22-.12-1.1.66-2.25,1.11-2.18.51.07.19,1.65,1.06,2.21,1.31.85,3.87-1.57,4.35-1.05.28.31-.36,1.47-1.11,2.18Z"/>
    <path d="m138.81,128.7c-2.08-.68-3.28-.95-4-1.03-.13-.02-.3-.03-.32-.11-.08-.31,1.86-1.87,3.26-1.06.7.4,1.08,1.28,1.06,2.21Z"/>
  </g>
  <g>
    <path d="m123.04,112.09c-.33-.44.18-1.78,1.08-2.2,2.01-.93,5.66,2.89,5.42,3.29-.03.06-.16.07-.34.09-.36.04-.65-.06-.74-.09-1.51-.55-2.41-.97-3.25-1.1-1.29-.2-1.9.36-2.17,0Z"/>
    <path d="m128.41,114.49c.23.29-.34.96-.78,1.31-.16.13-.71.55-1.57.65-1.23.15-2.57-.39-3.14-1.31-.51-.82-.34-1.88,0-1.96.28-.07.8.49,1.57,1.31.42.45.52.61.78.65.49.07.7-.39,1.57-.65.51-.15,1.35-.27,1.57,0Z"/>
    <path d="m134.96,107.7c.25-.24,1.58-1.53,3.25-1.1.93.24,2.03,1.03,2.17,2.2.13,1.1-.63,2.26-1.08,2.2-.51-.07-.21-1.64-1.08-2.2-1.32-.83-3.86,1.62-4.34,1.1-.29-.31.34-1.47,1.08-2.2Z"/>
    <path d="m133.88,112.09c2.09.65,3.29.91,4.01.99.13.01.3.03.33.11.09.31-1.84,1.89-3.25,1.1-.7-.39-1.09-1.26-1.08-2.2Z"/>
    <path d="m126.15,120.21c.14-.16,1.19.31,1.92,0,.85-.36.15-1.28.96-1.83.8-.54,2.66-.44,3.84,0,2.57.96,2.15,3.62,1.92,3.66-.18.03-.37-1.41-1.92-1.83-.55-.15-1.29-.17-1.92,0-1.16.32-1.06,1.05-1.92,1.22-1.26.25-3.08-.99-2.88-1.22Z"/>
    <path d="m125.19,120.82c-.11.44-.2,1.08,0,1.83.13.51.84,3.25,3.84,3.66,3.03.41,6.14-1.87,5.76-2.44-.22-.33-1.83-.4-2.88,0-1.06.4-1.08,1.1-1.92,1.22-.21.03-.8.07-1.92-.61-1.8-1.09-2.55-2.58-2.88-3.66Z"/>
    <path d="m143.64,116.48c.89.29,1.86,1.11,2.17,2.2.54,1.92-1.08,4.39-1.08,4.39.8.65-2.16-1.16-2.17-2.2-.01-1.11,2.31-1.77,2.17-2.2-.03-.08-.2-.32-3.25,0-2.2.23-2.82.43-3.25,0-.53-.52-.52-1.7,0-2.2.5-.47,1.13,0,3.25,0,1.4,0,1.54-.2,2.17,0Z"/>
    <path d="m142.55,124.17c.46-.67-.57-2.63-2.17-3.29-.67-.28-1.83-.49-2.17,0-.46.67.57,2.63,2.17,3.29.67.28,1.83.49,2.17,0Z"/>
    <path d="m113.6,122.65c-.33-.44.18-1.78,1.08-2.2,2.01-.93,5.66,2.89,5.42,3.29-.03.06-.16.07-.34.09-.36.04-.65-.06-.74-.09-1.51-.55-2.41-.97-3.25-1.1-1.29-.2-1.9.36-2.17,0Z"/>
    <path d="m118.96,125.05c.23.29-.34.96-.78,1.31-.16.13-.71.55-1.57.65-1.23.15-2.57-.39-3.14-1.31-.51-.82-.34-1.88,0-1.96.28-.07.8.49,1.57,1.31.42.45.52.61.78.65.49.07.7-.39,1.57-.65.51-.15,1.35-.27,1.57,0Z"/>
    <path d="m141.03,133.88c.25-.24,1.58-1.53,3.25-1.1.93.24,2.03,1.03,2.17,2.2.13,1.1-.63,2.26-1.08,2.2-.51-.07-.21-1.64-1.08-2.2-1.32-.83-3.86,1.62-4.34,1.1-.29-.31.34-1.47,1.08-2.2Z"/>
    <path d="m139.94,138.27c2.09.65,3.29.91,4.01.99.13.01.3.03.33.11.09.31-1.84,1.89-3.25,1.1-.7-.39-1.09-1.26-1.08-2.2Z"/>
    <path d="m142.23,156.96c-.33-.44.18-1.78,1.08-2.2,2.01-.93,5.66,2.89,5.42,3.29-.03.06-.16.07-.34.09-.36.04-.65-.06-.74-.09-1.51-.55-2.41-.97-3.25-1.1-1.29-.2-1.9.36-2.17,0Z"/>
    <path d="m147.59,159.37c.23.29-.34.96-.78,1.31-.16.13-.71.55-1.57.65-1.23.15-2.57-.39-3.14-1.31-.51-.82-.34-1.88,0-1.96.28-.07.8.49,1.57,1.31.42.45.52.61.78.65.49.07.7-.39,1.57-.65.51-.15,1.35-.27,1.57,0Z"/>
  </g>
  <g>
    <path d="m98.81,105.82c-.33-.44.18-1.78,1.08-2.2,2.01-.93,5.66,2.89,5.42,3.29-.03.06-.16.07-.34.09-.36.04-.65-.06-.74-.09-1.51-.55-2.41-.97-3.25-1.1-1.29-.2-1.9.36-2.17,0Z"/>
    <path d="m104.18,108.22c.23.29-.34.96-.78,1.31-.16.13-.71.55-1.57.65-1.23.15-2.57-.39-3.14-1.31-.51-.82-.34-1.88,0-1.96.28-.07.8.49,1.57,1.31.42.45.52.61.78.65.49.07.7-.39,1.57-.65.51-.15,1.35-.27,1.57,0Z"/>
    <path d="m110.73,101.43c.25-.24,1.58-1.53,3.25-1.1.93.24,2.03,1.03,2.17,2.2.13,1.1-.63,2.26-1.08,2.2-.51-.07-.21-1.64-1.08-2.2-1.32-.83-3.86,1.62-4.34,1.1-.29-.31.34-1.47,1.08-2.2Z"/>
    <path d="m109.65,105.82c2.09.65,3.29.91,4.01.99.13.01.3.03.33.11.09.31-1.84,1.89-3.25,1.1-.7-.39-1.09-1.26-1.08-2.2Z"/>
    <path d="m101.92,113.94c.14-.16,1.19.31,1.92,0,.85-.36.15-1.28.96-1.83.8-.54,2.66-.44,3.84,0,2.57.96,2.15,3.62,1.92,3.66-.18.03-.37-1.41-1.92-1.83-.55-.15-1.29-.17-1.92,0-1.16.32-1.06,1.05-1.92,1.22-1.26.25-3.08-.99-2.88-1.22Z"/>
    <path d="m100.96,114.55c-.11.44-.2,1.08,0,1.83.13.51.84,3.25,3.84,3.66,3.03.41,6.14-1.87,5.76-2.44-.22-.33-1.83-.4-2.88,0-1.06.4-1.08,1.1-1.92,1.22-.21.03-.8.07-1.92-.61-1.8-1.09-2.55-2.58-2.88-3.66Z"/>
    <path d="m119.41,110.21c.89.29,1.86,1.11,2.17,2.2.54,1.92-1.08,4.39-1.08,4.39.8.65-2.16-1.16-2.17-2.2-.01-1.11,2.31-1.77,2.17-2.2-.03-.08-.2-.32-3.25,0-2.2.23-2.82.43-3.25,0-.53-.52-.52-1.7,0-2.2.5-.47,1.13,0,3.25,0,1.4,0,1.54-.2,2.17,0Z"/>
    <path d="m118.32,117.89c.46-.67-.57-2.63-2.17-3.29-.67-.28-1.83-.49-2.17,0-.46.67.57,2.63,2.17,3.29.67.28,1.83.49,2.17,0Z"/>
    <path d="m102.64,122.62c.25-.24,1.58-1.53,3.25-1.1.93.24,2.03,1.03,2.17,2.2.13,1.1-.63,2.26-1.08,2.2-.51-.07-.21-1.64-1.08-2.2-1.32-.83-3.86,1.62-4.34,1.1-.29-.31.34-1.47,1.08-2.2Z"/>
    <path d="m101.55,127.01c2.09.65,3.29.91,4.01.99.13.01.3.03.33.11.09.31-1.84,1.89-3.25,1.1-.7-.39-1.09-1.26-1.08-2.2Z"/>
  </g>
  <g>
    <path d="m116.68,94.14c.32.45-.2,1.78-1.11,2.18-2.02.9-5.62-2.95-5.38-3.36.03-.06.16-.07.34-.09.36-.04.65.07.74.1,1.5.57,2.4,1,3.24,1.14,1.29.21,1.9-.34,2.17.03Z"/>
    <path d="m111.35,91.67c-.23-.3.35-.96.8-1.3.17-.13.72-.54,1.58-.64,1.23-.14,2.57.42,3.12,1.34.5.83.32,1.88-.02,1.96-.28.07-.8-.5-1.55-1.33-.42-.46-.51-.62-.78-.66-.48-.08-.71.38-1.58.64-.51.15-1.36.25-1.57-.02Z"/>
    <path d="m104.71,98.39c-.25.24-1.6,1.51-3.26,1.06-.93-.25-2.02-1.05-2.14-2.22-.12-1.1.66-2.25,1.11-2.18.51.07.19,1.65,1.06,2.21,1.31.85,3.87-1.57,4.35-1.05.28.31-.36,1.47-1.11,2.18Z"/>
    <path d="m105.84,94.01c-2.08-.68-3.28-.95-4-1.03-.13-.02-.3-.03-.32-.11-.08-.31,1.86-1.87,3.26-1.06.7.4,1.08,1.28,1.06,2.21Z"/>
    <path d="m113.66,85.98c-.14.16-1.18-.32-1.92-.02-.85.35-.17,1.28-.98,1.82-.8.53-2.66.41-3.84-.04-2.56-.99-2.11-3.65-1.88-3.68.18-.02.35,1.42,1.9,1.85.55.16,1.29.19,1.92.02,1.17-.3,1.07-1.04,1.93-1.2,1.26-.24,3.07,1.03,2.86,1.25Z"/>
    <path d="m114.63,85.38c.12-.44.21-1.08.02-1.83-.13-.51-.81-3.26-3.8-3.7-3.02-.45-6.16,1.8-5.78,2.37.22.33,1.82.42,2.88.03,1.06-.39,1.09-1.09,1.93-1.2.21-.03.8-.06,1.91.63,1.78,1.11,2.52,2.61,2.84,3.69Z"/>
    <path d="m96.14,89.51c-.89-.3-1.85-1.13-2.14-2.22-.52-1.92,1.13-4.37,1.13-4.38-.79-.66,2.14,1.19,2.14,2.22,0,1.11-2.33,1.74-2.19,2.17.03.08.2.32,3.25.04,2.2-.21,2.82-.4,3.25.04.52.53.5,1.71-.02,2.2-.5.47-1.13-.01-3.25-.04-1.4-.02-1.54.19-2.17-.03Z"/>
    <path d="m97.31,81.84c-.47.66.54,2.63,2.13,3.32.66.28,1.82.52,2.17.03.47-.66-.54-2.63-2.13-3.32-.66-.28-1.82-.52-2.17-.03Z"/>
    <path d="m126.25,83.69c.32.45-.2,1.78-1.11,2.18-2.02.9-5.62-2.95-5.38-3.36.03-.06.16-.07.34-.09.36-.04.65.07.74.1,1.5.57,2.4,1,3.24,1.14,1.29.21,1.9-.34,2.17.03Z"/>
    <path d="m120.91,81.22c-.23-.3.35-.96.8-1.3.17-.13.72-.54,1.58-.64,1.23-.14,2.57.42,3.12,1.34.5.83.32,1.88-.02,1.96-.28.07-.8-.5-1.55-1.33-.42-.46-.51-.62-.78-.66-.48-.08-.71.38-1.58.64-.51.15-1.36.25-1.57-.02Z"/>
  </g>
  <g>
    <path d="m140.84,100.69c.32.45-.2,1.78-1.11,2.18-2.02.9-5.62-2.95-5.38-3.36.03-.06.16-.07.34-.09.36-.04.65.07.74.1,1.5.57,2.4,1,3.24,1.14,1.29.21,1.9-.34,2.17.03Z"/>
    <path d="m135.5,98.22c-.23-.3.35-.96.8-1.3.17-.13.72-.54,1.58-.64,1.23-.14,2.57.42,3.12,1.34.5.83.32,1.88-.02,1.96-.28.07-.8-.5-1.55-1.33-.42-.46-.51-.62-.78-.66-.48-.08-.71.38-1.58.64-.51.15-1.36.25-1.57-.02Z"/>
    <path d="m128.87,104.94c-.25.24-1.6,1.51-3.26,1.06-.93-.25-2.02-1.05-2.14-2.22-.12-1.1.66-2.25,1.11-2.18.51.07.19,1.65,1.06,2.21,1.31.85,3.87-1.57,4.35-1.05.28.31-.36,1.47-1.11,2.18Z"/>
    <path d="m130,100.56c-2.08-.68-3.28-.95-4-1.03-.13-.02-.3-.03-.32-.11-.08-.31,1.86-1.87,3.26-1.06.7.4,1.08,1.28,1.06,2.21Z"/>
    <path d="m137.82,92.53c-.14.16-1.18-.32-1.92-.02-.85.35-.17,1.28-.98,1.82-.8.53-2.66.41-3.84-.04-2.56-.99-2.11-3.65-1.88-3.68.18-.02.35,1.42,1.9,1.85.55.16,1.29.19,1.92.02,1.17-.3,1.07-1.04,1.93-1.2,1.26-.24,3.07,1.03,2.86,1.25Z"/>
    <path d="m138.79,91.93c.12-.44.21-1.08.02-1.83-.13-.51-.81-3.26-3.8-3.7-3.02-.45-6.16,1.8-5.78,2.37.22.33,1.82.42,2.88.03,1.06-.39,1.09-1.09,1.93-1.2.21-.03.8-.06,1.91.63,1.78,1.11,2.52,2.61,2.84,3.69Z"/>
    <path d="m120.3,96.06c-.89-.3-1.85-1.13-2.14-2.22-.52-1.92,1.13-4.37,1.13-4.38-.79-.66,2.14,1.19,2.14,2.22,0,1.11-2.33,1.74-2.19,2.17.03.08.2.32,3.25.04,2.2-.21,2.82-.4,3.25.04.52.53.5,1.71-.02,2.2-.5.47-1.13-.01-3.25-.04-1.4-.02-1.54.19-2.17-.03Z"/>
    <path d="m121.47,88.39c-.47.66.54,2.63,2.13,3.32.66.28,1.82.52,2.17.03.47-.66-.54-2.63-2.13-3.32-.66-.28-1.82-.52-2.17-.03Z"/>
    <path d="m137.21,83.84c-.25.24-1.6,1.51-3.26,1.06-.93-.25-2.02-1.05-2.14-2.22-.12-1.1.66-2.25,1.11-2.18.51.07.19,1.65,1.06,2.21,1.31.85,3.87-1.57,4.35-1.05.28.31-.36,1.47-1.11,2.18Z"/>
    <path d="m138.34,79.47c-2.08-.68-3.28-.95-4-1.03-.13-.02-.3-.03-.32-.11-.08-.31,1.86-1.87,3.26-1.06.7.4,1.08,1.28,1.06,2.21Z"/>
  </g>
  <g>
    <path d="m115.56,73.58c.32.45-.2,1.78-1.11,2.18-2.02.9-5.62-2.95-5.38-3.36.03-.06.16-.07.34-.09.36-.04.65.07.74.1,1.5.57,2.4,1,3.24,1.14,1.29.21,1.9-.34,2.17.03Z"/>
    <path d="m110.22,71.11c-.23-.3.35-.96.8-1.3.17-.13.72-.54,1.58-.64,1.23-.14,2.57.42,3.12,1.34.5.83.32,1.88-.02,1.96-.28.07-.8-.5-1.55-1.33-.42-.46-.51-.62-.78-.66-.48-.08-.71.38-1.58.64-.51.15-1.36.25-1.57-.02Z"/>
    <path d="m103.59,77.83c-.25.24-1.6,1.51-3.26,1.06-.93-.25-2.02-1.05-2.14-2.22-.12-1.1.66-2.25,1.11-2.18.51.07.19,1.65,1.06,2.21,1.31.85,3.87-1.57,4.35-1.05.28.31-.36,1.47-1.11,2.18Z"/>
    <path d="m104.72,73.45c-2.08-.68-3.28-.95-4-1.03-.13-.02-.3-.03-.32-.11-.08-.31,1.86-1.87,3.26-1.06.7.4,1.08,1.28,1.06,2.21Z"/>
    <path d="m112.54,65.42c-.14.16-1.18-.32-1.92-.02-.85.35-.17,1.28-.98,1.82-.8.53-2.66.41-3.84-.04-2.56-.99-2.11-3.65-1.88-3.68.18-.02.35,1.42,1.9,1.85.55.16,1.29.19,1.92.02,1.17-.3,1.07-1.04,1.93-1.2,1.26-.24,3.07,1.03,2.86,1.25Z"/>
    <path d="m113.51,64.82c.12-.44.21-1.08.02-1.83-.13-.51-.81-3.26-3.8-3.7-3.02-.45-6.16,1.8-5.78,2.37.22.33,1.82.42,2.88.03,1.06-.39,1.09-1.09,1.93-1.2.21-.03.8-.06,1.91.63,1.78,1.11,2.52,2.61,2.84,3.69Z"/>
    <path d="m95.02,68.95c-.89-.3-1.85-1.13-2.14-2.22-.52-1.92,1.13-4.37,1.13-4.38-.79-.66,2.14,1.19,2.14,2.22,0,1.11-2.33,1.74-2.19,2.17.03.08.2.32,3.25.04,2.2-.21,2.82-.4,3.25.04.52.53.5,1.71-.02,2.2-.5.47-1.13-.01-3.25-.04-1.4-.02-1.54.19-2.17-.03Z"/>
    <path d="m96.19,61.28c-.47.66.54,2.63,2.13,3.32.66.28,1.82.52,2.17.03.47-.66-.54-2.63-2.13-3.32-.66-.28-1.82-.52-2.17-.03Z"/>
    <path d="m125.13,63.13c.32.45-.2,1.78-1.11,2.18-2.02.9-5.62-2.95-5.38-3.36.03-.06.16-.07.34-.09.36-.04.65.07.74.1,1.5.57,2.4,1,3.24,1.14,1.29.21,1.9-.34,2.17.03Z"/>
    <path d="m119.79,60.66c-.23-.3.35-.96.8-1.3.17-.13.72-.54,1.58-.64,1.23-.14,2.57.42,3.12,1.34.5.83.32,1.88-.02,1.96-.28.07-.8-.5-1.55-1.33-.42-.46-.51-.62-.78-.66-.48-.08-.71.38-1.58.64-.51.15-1.36.25-1.57-.02Z"/>
  </g>
  <g>
    <path d="m146.36,73.81c.32.45-.2,1.78-1.11,2.18-2.02.9-5.62-2.95-5.38-3.36.03-.06.16-.07.34-.09.36-.04.65.07.74.1,1.5.57,2.4,1,3.24,1.14,1.29.21,1.9-.34,2.17.03Z"/>
    <path d="m141.02,70.25c-.23-.3.35-.96.8-1.3.17-.13.72-.54,1.58-.64,1.23-.14,2.57.42,3.12,1.34.5.83.32,1.88-.02,1.96-.28.07-.8-.5-1.55-1.33-.42-.46-.51-.62-.78-.66-.48-.08-.71.38-1.58.64-.51.15-1.36.25-1.57-.02Z"/>
    <path d="m125.82,72.47c-.89-.3-1.85-1.13-2.14-2.22-.52-1.92,1.13-4.37,1.13-4.38-.79-.66,2.14,1.19,2.14,2.22,0,1.11-2.33,1.74-2.19,2.17.03.08.2.32,3.25.04,2.2-.21,2.82-.4,3.25.04.52.53.5,1.71-.02,2.2-.5.47-1.13-.01-3.25-.04-1.4-.02-1.54.19-2.17-.03Z"/>
    <path d="m126.99,64.8c-.47.66.54,2.63,2.13,3.32.66.28,1.82.52,2.17.03.47-.66-.54-2.63-2.13-3.32-.66-.28-1.82-.52-2.17-.03Z"/>
    <path d="m143.81,64.65c-.25.24-1.6,1.51-3.26,1.06-.93-.25-2.02-1.05-2.14-2.22-.12-1.1.66-2.25,1.11-2.18.51.07.19,1.65,1.06,2.21,1.31.85,3.87-1.57,4.35-1.05.28.31-.36,1.47-1.11,2.18Z"/>
    <path d="m144.95,60.27c-2.08-.68-3.28-.95-4-1.03-.13-.02-.3-.03-.32-.11-.08-.31,1.86-1.87,3.26-1.06.7.4,1.08,1.28,1.06,2.21Z"/>
  </g>
  <path class="cls-7" d="m54.99,91.27v3.6c0,.38.3.68.67.68h2.4c.58,0,.89.7.5,1.14l-2.31,2.63c-.42.48-.01,1.23.62,1.13l1.08-.18c.59-.1,1.01.57.66,1.07l-1.34,1.92-1.53,2.18c-.32.45,0,1.08.55,1.08h1.73c.59,0,.89.71.5,1.15l-2.49,2.74c-.4.44-.09,1.15.5,1.15h1.63c.57,0,.88.66.53,1.11l-3.9,4.91c-.35.45-.04,1.11.52,1.11,1.29,0,2.99,0,2.97,0-.04,0-1.54,6.08-1.54,6.08l2.83-3.91-2.83,36.81,2.59-25.82-2.36,30.95c-.11.43.21.86.65.86h.72c.53,0,.86.6.57,1.05l-2.16,3.4c-.29.45.03,1.05.57,1.05h1.28c.47,0,.8.48.63.93l-2.17,5.77c-.16.42.12.88.56.92,2.06.21,7.09.65,7.11-.09s3.66,2.77,4.98,4.07c.26.26.68.26.95,0l1.34-1.35c.21-.21.54-.26.8-.12l2.53,1.4c.45.25,1-.08,1-.6v-3.41c0-.63.77-.92,1.18-.45l1.66,1.92c.34.4.98.27,1.15-.23l.34-1.04c.16-.5.8-.63,1.14-.24l2.87,3.27c.41.47,1.18.17,1.18-.45v-1.09c0-.45.42-.77.84-.66l4.33,1.13c.43.11.84-.22.84-.66v-1.47l5.09,4.15c.27.22.67.2.91-.06l2.28-2.42c.23-.24.59-.28.86-.1l1.73,1.17c.45.3,1.05-.02,1.05-.57v-.3c0-.5.52-.83.97-.61l3.2,1.57c.5.24,1.05-.18.96-.73-.22-1.27-.38-3.11.29-3.92.79-.95,2.72-1.21,3.72-1.29.35-.03.62-.32.62-.68v-5.18c0-.13.04-.27.11-.38l.7-1.06c.16-.25.15-.57-.03-.81l-3.88-4.91c-.1-.12-.15-.27-.15-.43v-3.36c0-.42.36-.73.77-.68l2.09.3c.57.08.98-.56.66-1.05l-1.48-24.23c-.34-.52.13-1.19.73-1.04l.22.06c.55.14,1.01-.42.78-.94l-2.11-4.82c-.23-.53.25-1.09.8-.94l.9.25c.46.13.91-.26.85-.74l-.59-4.68-.36-2.89,4.34,4.39s-5.2-8.78-4.22-8.23c.38.21.94.68,1.48,1.17.5.44,1.26-.03,1.1-.68l-1.27-5.14c-.14-.56.42-1.03.94-.79l1.01.48c.45.21.96-.12.96-.62v-1.49c0-.5.52-.83.97-.61l1.33.65c.6.3,1.22-.38.87-.97l-4.73-7.98c-.27-.46.05-1.03.58-1.03h.8c.54,0,.86-.61.56-1.06l-2.94-4.46c-.3-.45.02-1.06.56-1.06h1.02c.51,0,.84-.55.59-1.01l-1.26-2.38c-.24-.46.09-1.01.59-1.01h.77c.53,0,.85-.58.58-1.04l-4.02-6.71c-.27-.46.05-1.04.58-1.04h1.11c.45,0,.77-.43.65-.87l-1.64-5.95c-.12-.44.2-.87.65-.87h1.72c.59,0,.9-.72.49-1.15l-1.82-1.93c-.12-.13-.19-.31-.19-.49.03-.82.19-3.21,1.08-4.11.81-.82-.79-2.25-1.66-2.92-.28-.22-.35-.62-.15-.92l1.25-1.9c.27-.4.04-.95-.43-1.05l-3.68-.75c-.4-.08-.64-.5-.51-.89l.75-2.29c.06-.17.04-.36-.04-.52l-1.79-3.63c-.15-.3-.06-.65.2-.85l2.27-1.72c.52-.39.24-1.23-.4-1.23h-13.46c-.11,0-.22-.03-.32-.08l-10.54-5.73c-.14-.08-.3-.1-.46-.07l-12.11,2.56c-.08.02-.16.02-.24,0l-9.79-1.49c-.32-.05-.63.14-.74.45-1.09,3.22-6.7,19.93-6.7,21.92,0,2.15-3.13,31.76-3.25,32.9,0,.02,0,.05,0,.07Z"/>
  <path class="cls-7" d="m73.67,36.6c-1.78-.53-7.81-2.08-14.35.85-4.13,1.85-6.65,4.68-7.88,6.28.1.04.19.07.29.11h-5.76s5.42.08,4.24,2.61c-1.05,2.24-5.4,1.64-6.4,1.47-.14-.02-.28,0-.4.06l-3.14,1.59c-.46.23-.51.87-.09,1.17,1.27.9,3.43,2.31,3.43,1.53,0-.83-4.35.23-6.46.79-.5.13-.67.77-.3,1.14l.76.77c.3.3.25.81-.1,1.05l-5.82,3.93h2.23c.58,0,.89.7.5,1.14l-2.32,2.62c-.23.26-.23.66,0,.92l1.23,1.34c.28.3.23.78-.1,1.02l-5.25,3.8c-.53.39-.26,1.24.39,1.24h1.22c.57,0,.89.68.51,1.12l-3.84,4.58-1.08-.22-5.42,5.49,3.25-1.1-13.01,13.17h2.25c.54,0,.86.61.56,1.07l-2.8,4.19,1.08.23v2.35c0,.47.45.8.89.65l1.48-.5c.44-.15.89.18.89.65v3.44c0,.71,1.36-.87,2.32-2.08.36-.46,1.09-.26,1.19.32l.62,3.74c.09.55.75.76,1.14.37l1.17-1.19c.42-.43,1.15-.13,1.15.48v4.25c0,.38.3.68.67.68h2.64c.24,0,.46.13.58.33l1.67,2.85c.29.49,1.01.43,1.21-.1l.82-2.15.98,5.1c.06.32.34.55.66.55h3.23c.16,0,.31-.06.43-.16l1.95-1.66c.25-.21.62-.21.87,0l1.64,1.4c.28.24.69.21.93-.06l9.55-13.4c.2-.23.53-.29.8-.15l.98.5c.38.19.84-.01.95-.43l1.91-6.86c.02-.08.06-.16.11-.23l3.03-4.01c.09-.12.14-.27.14-.42v-3c0-.19.08-.37.22-.5l3.04-2.86h1.08v-4.69c0-.57.64-.89,1.08-.54h0c.44.34,1.08.02,1.08-.54v-2.01c0-.57.65-.89,1.09-.54l.6.48c.5.41,1.23-.07,1.07-.7l-1.28-5.2c-.15-.59.49-1.07,1.01-.75l1.94,1.21c.45.28,1.03-.05,1.03-.58v-11.77"/>
  <ellipse class="cls-1" cx="105.94" cy="40.2" rx="19.51" ry="10.43"/>
  <g>
    <path d="m83.72,158.74c.33-.44-.18-1.78-1.08-2.2-2.01-.93-5.66,2.89-5.42,3.29.03.06.16.07.34.09.36.04.65-.06.74-.09,1.51-.55,2.41-.97,3.25-1.1,1.29-.2,1.9.36,2.17,0Z"/>
    <path d="m78.35,161.14c-.23.29.34.96.78,1.31.16.13.71.55,1.57.65,1.23.15,2.57-.39,3.14-1.31.51-.82.34-1.88,0-1.96-.28-.07-.8.49-1.57,1.31-.42.45-.52.61-.78.65-.49.07-.7-.39-1.57-.65-.51-.15-1.35-.27-1.57,0Z"/>
    <path d="m71.79,154.35c-.25-.24-1.58-1.53-3.25-1.1-.93.24-2.03,1.03-2.17,2.2-.13,1.1.63,2.26,1.08,2.2.51-.07.21-1.64,1.08-2.2,1.32-.83,3.86,1.62,4.34,1.1.29-.31-.34-1.47-1.08-2.2Z"/>
    <path d="m72.88,158.74c-2.09.65-3.29.91-4.01.99-.13.01-.3.03-.33.11-.09.31,1.84,1.89,3.25,1.1.7-.39,1.09-1.26,1.08-2.2Z"/>
    <path d="m80.61,166.86c-.14-.16-1.19.31-1.92,0-.85-.36-.15-1.28-.96-1.83-.8-.54-2.66-.44-3.84,0-2.57.96-2.15,3.62-1.92,3.66.18.03.37-1.41,1.92-1.83.55-.15,1.29-.17,1.92,0,1.16.32,1.06,1.05,1.92,1.22,1.26.25,3.08-.99,2.88-1.22Z"/>
    <path d="m81.56,167.47c.11.44.2,1.08,0,1.83-.13.51-.84,3.25-3.84,3.66-3.03.41-6.14-1.87-5.76-2.44.22-.33,1.83-.4,2.88,0,1.06.4,1.08,1.1,1.92,1.22.21.03.8.07,1.92-.61,1.8-1.09,2.55-2.58,2.88-3.66Z"/>
    <path d="m63.12,163.13c-.89.29-1.86,1.11-2.17,2.2-.54,1.92,1.08,4.39,1.08,4.39-.8.65,2.16-1.16,2.17-2.2.01-1.11-2.31-1.77-2.17-2.2.03-.08.2-.32,3.25,0,2.2.23,2.82.43,3.25,0,.53-.52.52-1.7,0-2.2-.5-.47-1.13,0-3.25,0-1.4,0-1.54-.2-2.17,0Z"/>
    <path d="m64.2,170.82c-.46-.67.57-2.63,2.17-3.29.67-.28,1.83-.49,2.17,0,.46.67-.57,2.63-2.17,3.29-.67.28-1.83.49-2.17,0Z"/>
    <path d="m93.16,169.3c.33-.44-.18-1.78-1.08-2.2-2.01-.93-5.66,2.89-5.42,3.29.03.06.16.07.34.09.36.04.65-.06.74-.09,1.51-.55,2.41-.97,3.25-1.1,1.29-.2,1.9.36,2.17,0Z"/>
    <path d="m87.8,171.7c-.23.29.34.96.78,1.31.16.13.71.55,1.57.65,1.23.15,2.57-.39,3.14-1.31.51-.82.34-1.88,0-1.96-.28-.07-.8.49-1.57,1.31-.42.45-.52.61-.78.65-.49.07-.7-.39-1.57-.65-.51-.15-1.35-.27-1.57,0Z"/>
  </g>
  <g>
    <path d="m107.95,152.47c.33-.44-.18-1.78-1.08-2.2-2.01-.93-5.66,2.89-5.42,3.29.03.06.16.07.34.09.36.04.65-.06.74-.09,1.51-.55,2.41-.97,3.25-1.1,1.29-.2,1.9.36,2.17,0Z"/>
    <path d="m102.58,154.87c-.23.29.34.96.78,1.31.16.13.71.55,1.57.65,1.23.15,2.57-.39,3.14-1.31.51-.82.34-1.88,0-1.96-.28-.07-.8.49-1.57,1.31-.42.45-.52.61-.78.65-.49.07-.7-.39-1.57-.65-.51-.15-1.35-.27-1.57,0Z"/>
    <path d="m96.02,148.08c-.25-.24-1.58-1.53-3.25-1.1-.93.24-2.03,1.03-2.17,2.2-.13,1.1.63,2.26,1.08,2.2.51-.07.21-1.64,1.08-2.2,1.32-.83,3.86,1.62,4.34,1.1.29-.31-.34-1.47-1.08-2.2Z"/>
    <path d="m97.11,152.47c-2.09.65-3.29.91-4.01.99-.13.01-.3.03-.33.11-.09.31,1.84,1.89,3.25,1.1.7-.39,1.09-1.26,1.08-2.2Z"/>
    <path d="m104.84,160.59c-.14-.16-1.19.31-1.92,0-.85-.36-.15-1.28-.96-1.83-.8-.54-2.66-.44-3.84,0-2.57.96-2.15,3.62-1.92,3.66.18.03.37-1.41,1.92-1.83.55-.15,1.29-.17,1.92,0,1.16.32,1.06,1.05,1.92,1.22,1.26.25,3.08-.99,2.88-1.22Z"/>
    <path d="m105.79,161.2c.11.44.2,1.08,0,1.83-.13.51-.84,3.25-3.84,3.66-3.03.41-6.14-1.87-5.76-2.44.22-.33,1.83-.4,2.88,0,1.06.4,1.08,1.1,1.92,1.22.21.03.8.07,1.92-.61,1.8-1.09,2.55-2.58,2.88-3.66Z"/>
    <path d="m87.35,156.86c-.89.29-1.86,1.11-2.17,2.2-.54,1.92,1.08,4.39,1.08,4.39-.8.65,2.16-1.16,2.17-2.2.01-1.11-2.31-1.77-2.17-2.2.03-.08.2-.32,3.25,0,2.2.23,2.82.43,3.25,0,.53-.52.52-1.7,0-2.2-.5-.47-1.13,0-3.25,0-1.4,0-1.54-.2-2.17,0Z"/>
    <path d="m88.43,164.54c-.46-.67.57-2.63,2.17-3.29.67-.28,1.83-.49,2.17,0,.46.67-.57,2.63-2.17,3.29-.67.28-1.83.49-2.17,0Z"/>
    <path d="m104.12,169.27c-.25-.24-1.58-1.53-3.25-1.1-.93.24-2.03,1.03-2.17,2.2-.13,1.1.63,2.26,1.08,2.2.51-.07.21-1.64,1.08-2.2,1.32-.83,3.86,1.62,4.34,1.1.29-.31-.34-1.47-1.08-2.2Z"/>
    <path d="m105.21,173.66c-2.09.65-3.29.91-4.01.99-.13.01-.3.03-.33.11-.09.31,1.84,1.89,3.25,1.1.7-.39,1.09-1.26,1.08-2.2Z"/>
  </g>
  <g>
    <path d="m90.07,140.79c-.32.45.2,1.78,1.11,2.18,2.02.9,5.62-2.95,5.38-3.36-.03-.06-.16-.07-.34-.09-.36-.04-.65.07-.74.1-1.5.57-2.4,1-3.24,1.14-1.29.21-1.9-.34-2.17.03Z"/>
    <path d="m95.41,138.32c.23-.3-.35-.96-.8-1.3-.17-.13-.72-.54-1.58-.64-1.23-.14-2.57.42-3.12,1.34-.5.83-.32,1.88.02,1.96.28.07.8-.5,1.55-1.33.42-.46.51-.62.78-.66.48-.08.71.38,1.58.64.51.15,1.36.25,1.57-.02Z"/>
    <path d="m102.05,145.04c.25.24,1.6,1.51,3.26,1.06.93-.25,2.02-1.05,2.14-2.22.12-1.1-.66-2.25-1.11-2.18-.51.07-.19,1.65-1.06,2.21-1.31.85-3.87-1.57-4.35-1.05-.28.31.36,1.47,1.11,2.18Z"/>
    <path d="m100.91,140.66c2.08-.68,3.28-.95,4-1.03.13-.02.3-.03.32-.11.08-.31-1.86-1.87-3.26-1.06-.7.4-1.08,1.28-1.06,2.21Z"/>
    <path d="m93.09,132.63c.14.16,1.18-.32,1.92-.02.85.35.17,1.28.98,1.82.8.53,2.66.41,3.84-.04,2.56-.99,2.11-3.65,1.88-3.68-.18-.02-.35,1.42-1.9,1.85-.55.16-1.29.19-1.92.02-1.17-.3-1.07-1.04-1.93-1.2-1.26-.24-3.07,1.03-2.86,1.25Z"/>
    <path d="m92.13,132.03c-.12-.44-.21-1.08-.02-1.83.13-.51.81-3.26,3.8-3.7,3.02-.45,6.16,1.8,5.78,2.37-.22.33-1.82.42-2.88.03-1.06-.39-1.09-1.09-1.93-1.2-.21-.03-.8-.06-1.91.63-1.78,1.11-2.52,2.61-2.84,3.69Z"/>
    <path d="m110.62,136.16c.89-.3,1.85-1.13,2.14-2.22.52-1.92-1.13-4.37-1.13-4.38.79-.66-2.14,1.19-2.14,2.22,0,1.11,2.33,1.74,2.19,2.17-.03.08-.2.32-3.25.04-2.2-.21-2.82-.4-3.25.04-.52.53-.5,1.71.02,2.2.5.47,1.13-.01,3.25-.04,1.4-.02,1.54.19,2.17-.03Z"/>
    <path d="m109.45,128.49c.47.66-.54,2.63-2.13,3.32-.66.28-1.82.52-2.17.03-.47-.66.54-2.63,2.13-3.32.66-.28,1.82-.52,2.17-.03Z"/>
    <path d="m80.51,130.34c-.32.45.2,1.78,1.11,2.18,2.02.9,5.62-2.95,5.38-3.36-.03-.06-.16-.07-.34-.09-.36-.04-.65.07-.74.1-1.5.57-2.4,1-3.24,1.14-1.29.21-1.9-.34-2.17.03Z"/>
    <path d="m85.85,127.87c.23-.3-.35-.96-.8-1.3-.17-.13-.72-.54-1.58-.64-1.23-.14-2.57.42-3.12,1.34-.5.83-.32,1.88.02,1.96.28.07.8-.5,1.55-1.33.42-.46.51-.62.78-.66.48-.08.71.38,1.58.64.51.15,1.36.25,1.57-.02Z"/>
  </g>
  <g>
    <path d="m65.92,147.34c-.32.45.2,1.78,1.11,2.18,2.02.9,5.62-2.95,5.38-3.36-.03-.06-.16-.07-.34-.09-.36-.04-.65.07-.74.1-1.5.57-2.4,1-3.24,1.14-1.29.21-1.9-.34-2.17.03Z"/>
    <path d="m71.25,144.87c.23-.3-.35-.96-.8-1.3-.17-.13-.72-.54-1.58-.64-1.23-.14-2.57.42-3.12,1.34-.5.83-.32,1.88.02,1.96.28.07.8-.5,1.55-1.33.42-.46.51-.62.78-.66.48-.08.71.38,1.58.64.51.15,1.36.25,1.57-.02Z"/>
    <path d="m77.89,151.59c.25.24,1.6,1.51,3.26,1.06.93-.25,2.02-1.05,2.14-2.22.12-1.1-.66-2.25-1.11-2.18-.51.07-.19,1.65-1.06,2.21-1.31.85-3.87-1.57-4.35-1.05-.28.31.36,1.47,1.11,2.18Z"/>
    <path d="m76.76,147.21c2.08-.68,3.28-.95,4-1.03.13-.02.3-.03.32-.11.08-.31-1.86-1.87-3.26-1.06-.7.4-1.08,1.28-1.06,2.21Z"/>
    <path d="m68.94,139.18c.14.16,1.18-.32,1.92-.02.85.35.17,1.28.98,1.82.8.53,2.66.41,3.84-.04,2.56-.99,2.11-3.65,1.88-3.68-.18-.02-.35,1.42-1.9,1.85-.55.16-1.29.19-1.92.02-1.17-.3-1.07-1.04-1.93-1.2-1.26-.24-3.07,1.03-2.86,1.25Z"/>
    <path d="m67.97,138.58c-.12-.44-.21-1.08-.02-1.83.13-.51.81-3.26,3.8-3.7,3.02-.45,6.16,1.8,5.78,2.37-.22.33-1.82.42-2.88.03-1.06-.39-1.09-1.09-1.93-1.2-.21-.03-.8-.06-1.91.63-1.78,1.11-2.52,2.61-2.84,3.69Z"/>
    <path d="m86.46,142.71c.89-.3,1.85-1.13,2.14-2.22.52-1.92-1.13-4.37-1.13-4.38.79-.66-2.14,1.19-2.14,2.22,0,1.11,2.33,1.74,2.19,2.17-.03.08-.2.32-3.25.04-2.2-.21-2.82-.4-3.25.04-.52.53-.5,1.71.02,2.2.5.47,1.13-.01,3.25-.04,1.4-.02,1.54.19,2.17-.03Z"/>
    <path d="m85.29,135.04c.47.66-.54,2.63-2.13,3.32-.66.28-1.82.52-2.17.03-.47-.66.54-2.63,2.13-3.32.66-.28,1.82-.52,2.17-.03Z"/>
    <path d="m69.55,130.49c.25.24,1.6,1.51,3.26,1.06.93-.25,2.02-1.05,2.14-2.22.12-1.1-.66-2.25-1.11-2.18-.51.07-.19,1.65-1.06,2.21-1.31.85-3.87-1.57-4.35-1.05-.28.31.36,1.47,1.11,2.18Z"/>
    <path d="m68.42,126.12c2.08-.68,3.28-.95,4-1.03.13-.02.3-.03.32-.11.08-.31-1.86-1.87-3.26-1.06-.7.4-1.08,1.28-1.06,2.21Z"/>
  </g>
  <g>
    <path d="m84.19,109.5c.33-.44-.18-1.78-1.08-2.2-2.01-.93-5.66,2.89-5.42,3.29.03.06.16.07.34.09.36.04.65-.06.74-.09,1.51-.55,2.41-.97,3.25-1.1,1.29-.2,1.9.36,2.17,0Z"/>
    <path d="m78.82,111.91c-.23.29.34.96.78,1.31.16.13.71.55,1.57.65,1.23.15,2.57-.39,3.14-1.31.51-.82.34-1.88,0-1.96-.28-.07-.8.49-1.57,1.31-.42.45-.52.61-.78.65-.49.07-.7-.39-1.57-.65-.51-.15-1.35-.27-1.57,0Z"/>
    <path d="m72.26,105.11c-.25-.24-1.58-1.53-3.25-1.1-.93.24-2.03,1.03-2.17,2.2-.13,1.1.63,2.26,1.08,2.2.51-.07.21-1.64,1.08-2.2,1.32-.83,3.86,1.62,4.34,1.1.29-.31-.34-1.47-1.08-2.2Z"/>
    <path d="m73.35,109.5c-2.09.65-3.29.91-4.01.99-.13.01-.3.03-.33.11-.09.31,1.84,1.89,3.25,1.1.7-.39,1.09-1.26,1.08-2.2Z"/>
    <path d="m81.07,117.62c-.14-.16-1.19.31-1.92,0-.85-.36-.15-1.28-.96-1.83-.8-.54-2.66-.44-3.84,0-2.57.96-2.15,3.62-1.92,3.66.18.03.37-1.41,1.92-1.83.55-.15,1.29-.17,1.92,0,1.16.32,1.06,1.05,1.92,1.22,1.26.25,3.08-.99,2.88-1.22Z"/>
    <path d="m82.03,118.23c.11.44.2,1.08,0,1.83-.13.51-.84,3.25-3.84,3.66-3.03.41-6.14-1.87-5.76-2.44.22-.33,1.83-.4,2.88,0,1.06.4,1.08,1.1,1.92,1.22.21.03.8.07,1.92-.61,1.8-1.09,2.55-2.58,2.88-3.66Z"/>
    <path d="m63.59,113.89c-.89.29-1.86,1.11-2.17,2.2-.54,1.92,1.08,4.39,1.08,4.39-.8.65,2.16-1.16,2.17-2.2.01-1.11-2.31-1.77-2.17-2.2.03-.08.2-.32,3.25,0,2.2.23,2.82.43,3.25,0,.53-.52.52-1.7,0-2.2-.5-.47-1.13,0-3.25,0-1.4,0-1.54-.2-2.17,0Z"/>
    <path d="m64.67,121.58c-.46-.67.57-2.63,2.17-3.29.67-.28,1.83-.49,2.17,0,.46.67-.57,2.63-2.17,3.29-.67.28-1.83.49-2.17,0Z"/>
    <path d="m93.63,120.06c.33-.44-.18-1.78-1.08-2.2-2.01-.93-5.66,2.89-5.42,3.29.03.06.16.07.34.09.36.04.65-.06.74-.09,1.51-.55,2.41-.97,3.25-1.1,1.29-.2,1.9.36,2.17,0Z"/>
    <path d="m88.27,122.46c-.23.29.34.96.78,1.31.16.13.71.55,1.57.65,1.23.15,2.57-.39,3.14-1.31.51-.82.34-1.88,0-1.96-.28-.07-.8.49-1.57,1.31-.42.45-.52.61-.78.65-.49.07-.7-.39-1.57-.65-.51-.15-1.35-.27-1.57,0Z"/>
    <path d="m66.2,131.3c-.25-.24-1.58-1.53-3.25-1.1-.93.24-2.03,1.03-2.17,2.2-.13,1.1.63,2.26,1.08,2.2.51-.07.21-1.64,1.08-2.2,1.32-.83,3.86,1.62,4.34,1.1.29-.31-.34-1.47-1.08-2.2Z"/>
    <path d="m67.29,135.69c-2.09.65-3.29.91-4.01.99-.13.01-.3.03-.33.11-.09.31,1.84,1.89,3.25,1.1.7-.39,1.09-1.26,1.08-2.2Z"/>
    <path d="m65,154.38c.33-.44-.18-1.78-1.08-2.2-2.01-.93-5.66,2.89-5.42,3.29.03.06.16.07.34.09.36.04.65-.06.74-.09,1.51-.55,2.41-.97,3.25-1.1,1.29-.2,1.9.36,2.17,0Z"/>
    <path d="m59.63,156.78c-.23.29.34.96.78,1.31.16.13.71.55,1.57.65,1.23.15,2.57-.39,3.14-1.31.51-.82.34-1.88,0-1.96-.28-.07-.8.49-1.57,1.31-.42.45-.52.61-.78.65-.49.07-.7-.39-1.57-.65-.51-.15-1.35-.27-1.57,0Z"/>
  </g>
  <g>
    <path d="m108.42,103.23c.33-.44-.18-1.78-1.08-2.2-2.01-.93-5.66,2.89-5.42,3.29.03.06.16.07.34.09.36.04.65-.06.74-.09,1.51-.55,2.41-.97,3.25-1.1,1.29-.2,1.9.36,2.17,0Z"/>
    <path d="m103.05,105.63c-.23.29.34.96.78,1.31.16.13.71.55,1.57.65,1.23.15,2.57-.39,3.14-1.31.51-.82.34-1.88,0-1.96-.28-.07-.8.49-1.57,1.31-.42.45-.52.61-.78.65-.49.07-.7-.39-1.57-.65-.51-.15-1.35-.27-1.57,0Z"/>
    <path d="m96.49,98.84c-.25-.24-1.58-1.53-3.25-1.1-.93.24-2.03,1.03-2.17,2.2-.13,1.1.63,2.26,1.08,2.2.51-.07.21-1.64,1.08-2.2,1.32-.83,3.86,1.62,4.34,1.1.29-.31-.34-1.47-1.08-2.2Z"/>
    <path d="m97.58,103.23c-2.09.65-3.29.91-4.01.99-.13.01-.3.03-.33.11-.09.31,1.84,1.89,3.25,1.1.7-.39,1.09-1.26,1.08-2.2Z"/>
    <path d="m105.3,111.35c-.14-.16-1.19.31-1.92,0-.85-.36-.15-1.28-.96-1.83-.8-.54-2.66-.44-3.84,0-2.57.96-2.15,3.62-1.92,3.66.18.03.37-1.41,1.92-1.83.55-.15,1.29-.17,1.92,0,1.16.32,1.06,1.05,1.92,1.22,1.26.25,3.08-.99,2.88-1.22Z"/>
    <path d="m106.26,111.96c.11.44.2,1.08,0,1.83-.13.51-.84,3.25-3.84,3.66-3.03.41-6.14-1.87-5.76-2.44.22-.33,1.83-.4,2.88,0,1.06.4,1.08,1.1,1.92,1.22.21.03.8.07,1.92-.61,1.8-1.09,2.55-2.58,2.88-3.66Z"/>
    <path d="m87.82,107.62c-.89.29-1.86,1.11-2.17,2.2-.54,1.92,1.08,4.39,1.08,4.39-.8.65,2.16-1.16,2.17-2.2.01-1.11-2.31-1.77-2.17-2.2.03-.08.2-.32,3.25,0,2.2.23,2.82.43,3.25,0,.53-.52.52-1.7,0-2.2-.5-.47-1.13,0-3.25,0-1.4,0-1.54-.2-2.17,0Z"/>
    <path d="m88.9,115.31c-.46-.67.57-2.63,2.17-3.29.67-.28,1.83-.49,2.17,0,.46.67-.57,2.63-2.17,3.29-.67.28-1.83.49-2.17,0Z"/>
    <path d="m104.59,120.03c-.25-.24-1.58-1.53-3.25-1.1-.93.24-2.03,1.03-2.17,2.2-.13,1.1.63,2.26,1.08,2.2.51-.07.21-1.64,1.08-2.2,1.32-.83,3.86,1.62,4.34,1.1.29-.31-.34-1.47-1.08-2.2Z"/>
    <path d="m105.68,124.42c-2.09.65-3.29.91-4.01.99-.13.01-.3.03-.33.11-.09.31,1.84,1.89,3.25,1.1.7-.39,1.09-1.26,1.08-2.2Z"/>
  </g>
  <g>
    <path d="m90.54,91.55c-.32.45.2,1.78,1.11,2.18,2.02.9,5.62-2.95,5.38-3.36-.03-.06-.16-.07-.34-.09-.36-.04-.65.07-.74.1-1.5.57-2.4,1-3.24,1.14-1.29.21-1.9-.34-2.17.03Z"/>
    <path d="m95.88,89.08c.23-.3-.35-.96-.8-1.3-.17-.13-.72-.54-1.58-.64-1.23-.14-2.57.42-3.12,1.34-.5.83-.32,1.88.02,1.96.28.07.8-.5,1.55-1.33.42-.46.51-.62.78-.66.48-.08.71.38,1.58.64.51.15,1.36.25,1.57-.02Z"/>
    <path d="m102.52,95.8c.25.24,1.6,1.51,3.26,1.06.93-.25,2.02-1.05,2.14-2.22.12-1.1-.66-2.25-1.11-2.18-.51.07-.19,1.65-1.06,2.21-1.31.85-3.87-1.57-4.35-1.05-.28.31.36,1.47,1.11,2.18Z"/>
    <path d="m101.38,91.42c2.08-.68,3.28-.95,4-1.03.13-.02.3-.03.32-.11.08-.31-1.86-1.87-3.26-1.06-.7.4-1.08,1.28-1.06,2.21Z"/>
    <path d="m93.56,83.39c.14.16,1.18-.32,1.92-.02.85.35.17,1.28.98,1.82.8.53,2.66.41,3.84-.04,2.56-.99,2.11-3.65,1.88-3.68-.18-.02-.35,1.42-1.9,1.85-.55.16-1.29.19-1.92.02-1.17-.3-1.07-1.04-1.93-1.2-1.26-.24-3.07,1.03-2.86,1.25Z"/>
    <path d="m92.6,82.79c-.12-.44-.21-1.08-.02-1.83.13-.51.81-3.26,3.8-3.7,3.02-.45,6.16,1.8,5.78,2.37-.22.33-1.82.42-2.88.03-1.06-.39-1.09-1.09-1.93-1.2-.21-.03-.8-.06-1.91.63-1.78,1.11-2.52,2.61-2.84,3.69Z"/>
    <path d="m111.09,86.92c.89-.3,1.85-1.13,2.14-2.22.52-1.92-1.13-4.37-1.13-4.38.79-.66-2.14,1.19-2.14,2.22,0,1.11,2.33,1.74,2.19,2.17-.03.08-.2.32-3.25.04-2.2-.21-2.82-.4-3.25.04-.52.53-.5,1.71.02,2.2.5.47,1.13-.01,3.25-.04,1.4-.02,1.54.19,2.17-.03Z"/>
    <path d="m109.92,79.25c.47.66-.54,2.63-2.13,3.32-.66.28-1.82.52-2.17.03-.47-.66.54-2.63,2.13-3.32.66-.28,1.82-.52,2.17-.03Z"/>
    <path d="m80.98,81.1c-.32.45.2,1.78,1.11,2.18,2.02.9,5.62-2.95,5.38-3.36-.03-.06-.16-.07-.34-.09-.36-.04-.65.07-.74.1-1.5.57-2.4,1-3.24,1.14-1.29.21-1.9-.34-2.17.03Z"/>
    <path d="m86.32,78.64c.23-.3-.35-.96-.8-1.3-.17-.13-.72-.54-1.58-.64-1.23-.14-2.57.42-3.12,1.34-.5.83-.32,1.88.02,1.96.28.07.8-.5,1.55-1.33.42-.46.51-.62.78-.66.48-.08.71.38,1.58.64.51.15,1.36.25,1.57-.02Z"/>
  </g>
  <g>
    <path d="m66.39,98.1c-.32.45.2,1.78,1.11,2.18,2.02.9,5.62-2.95,5.38-3.36-.03-.06-.16-.07-.34-.09-.36-.04-.65.07-.74.1-1.5.57-2.4,1-3.24,1.14-1.29.21-1.9-.34-2.17.03Z"/>
    <path d="m71.72,95.64c.23-.3-.35-.96-.8-1.3-.17-.13-.72-.54-1.58-.64-1.23-.14-2.57.42-3.12,1.34-.5.83-.32,1.88.02,1.96.28.07.8-.5,1.55-1.33.42-.46.51-.62.78-.66.48-.08.71.38,1.58.64.51.15,1.36.25,1.57-.02Z"/>
    <path d="m78.36,102.35c.25.24,1.6,1.51,3.26,1.06.93-.25,2.02-1.05,2.14-2.22.12-1.1-.66-2.25-1.11-2.18-.51.07-.19,1.65-1.06,2.21-1.31.85-3.87-1.57-4.35-1.05-.28.31.36,1.47,1.11,2.18Z"/>
    <path d="m77.23,97.97c2.08-.68,3.28-.95,4-1.03.13-.02.3-.03.32-.11.08-.31-1.86-1.87-3.26-1.06-.7.4-1.08,1.28-1.06,2.21Z"/>
    <path d="m69.41,89.94c.14.16,1.18-.32,1.92-.02.85.35.17,1.28.98,1.82.8.53,2.66.41,3.84-.04,2.56-.99,2.11-3.65,1.88-3.68-.18-.02-.35,1.42-1.9,1.85-.55.16-1.29.19-1.92.02-1.17-.3-1.07-1.04-1.93-1.2-1.26-.24-3.07,1.03-2.86,1.25Z"/>
    <path d="m68.44,89.35c-.12-.44-.21-1.08-.02-1.83.13-.51.81-3.26,3.8-3.7,3.02-.45,6.16,1.8,5.78,2.37-.22.33-1.82.42-2.88.03-1.06-.39-1.09-1.09-1.93-1.2-.21-.03-.8-.06-1.91.63-1.78,1.11-2.52,2.61-2.84,3.69Z"/>
    <path d="m86.93,93.47c.89-.3,1.85-1.13,2.14-2.22.52-1.92-1.13-4.37-1.13-4.38.79-.66-2.14,1.19-2.14,2.22,0,1.11,2.33,1.74,2.19,2.17-.03.08-.2.32-3.25.04-2.2-.21-2.82-.4-3.25.04-.52.53-.5,1.71.02,2.2.5.47,1.13-.01,3.25-.04,1.4-.02,1.54.19,2.17-.03Z"/>
    <path d="m85.76,85.8c.47.66-.54,2.63-2.13,3.32-.66.28-1.82.52-2.17.03-.47-.66.54-2.63,2.13-3.32.66-.28,1.82-.52,2.17-.03Z"/>
    <path d="m70.02,81.26c.25.24,1.6,1.51,3.26,1.06.93-.25,2.02-1.05,2.14-2.22.12-1.1-.66-2.25-1.11-2.18-.51.07-.19,1.65-1.06,2.21-1.31.85-3.87-1.57-4.35-1.05-.28.31.36,1.47,1.11,2.18Z"/>
    <path d="m68.89,76.88c2.08-.68,3.28-.95,4-1.03.13-.02.3-.03.32-.11.08-.31-1.86-1.87-3.26-1.06-.7.4-1.08,1.28-1.06,2.21Z"/>
  </g>
  <g>
    <path d="m91.66,70.99c-.32.45.2,1.78,1.11,2.18,2.02.9,5.62-2.95,5.38-3.36-.03-.06-.16-.07-.34-.09-.36-.04-.65.07-.74.1-1.5.57-2.4,1-3.24,1.14-1.29.21-1.9-.34-2.17.03Z"/>
    <path d="m97,68.52c.23-.3-.35-.96-.8-1.3-.17-.13-.72-.54-1.58-.64-1.23-.14-2.57.42-3.12,1.34-.5.83-.32,1.88.02,1.96.28.07.8-.5,1.55-1.33.42-.46.51-.62.78-.66.48-.08.71.38,1.58.64.51.15,1.36.25,1.57-.02Z"/>
    <path d="m103.64,75.24c.25.24,1.6,1.51,3.26,1.06.93-.25,2.02-1.05,2.14-2.22.12-1.1-.66-2.25-1.11-2.18-.51.07-.19,1.65-1.06,2.21-1.31.85-3.87-1.57-4.35-1.05-.28.31.36,1.47,1.11,2.18Z"/>
    <path d="m102.5,70.86c2.08-.68,3.28-.95,4-1.03.13-.02.3-.03.32-.11.08-.31-1.86-1.87-3.26-1.06-.7.4-1.08,1.28-1.06,2.21Z"/>
    <path d="m94.68,62.83c.14.16,1.18-.32,1.92-.02.85.35.17,1.28.98,1.82.8.53,2.66.41,3.84-.04,2.56-.99,2.11-3.65,1.88-3.68-.18-.02-.35,1.42-1.9,1.85-.55.16-1.29.19-1.92.02-1.17-.3-1.07-1.04-1.93-1.2-1.26-.24-3.07,1.03-2.86,1.25Z"/>
    <path d="m93.72,62.23c-.12-.44-.21-1.08-.02-1.83.13-.51.81-3.26,3.8-3.7,3.02-.45,6.16,1.8,5.78,2.37-.22.33-1.82.42-2.88.03-1.06-.39-1.09-1.09-1.93-1.2-.21-.03-.8-.06-1.91.63-1.78,1.11-2.52,2.61-2.84,3.69Z"/>
    <path d="m112.21,66.36c.89-.3,1.85-1.13,2.14-2.22.52-1.92-1.13-4.37-1.13-4.38.79-.66-2.14,1.19-2.14,2.22,0,1.11,2.33,1.74,2.19,2.17-.03.08-.2.32-3.25.04-2.2-.21-2.82-.4-3.25.04-.52.53-.5,1.71.02,2.2.5.47,1.13-.01,3.25-.04,1.4-.02,1.54.19,2.17-.03Z"/>
    <path d="m111.04,58.69c.47.66-.54,2.63-2.13,3.32-.66.28-1.82.52-2.17.03-.47-.66.54-2.63,2.13-3.32.66-.28,1.82-.52,2.17-.03Z"/>
    <path d="m82.1,60.54c-.32.45.2,1.78,1.11,2.18,2.02.9,5.62-2.95,5.38-3.36-.03-.06-.16-.07-.34-.09-.36-.04-.65.07-.74.1-1.5.57-2.4,1-3.24,1.14-1.29.21-1.9-.34-2.17.03Z"/>
    <path d="m87.44,58.08c.23-.3-.35-.96-.8-1.3-.17-.13-.72-.54-1.58-.64-1.23-.14-2.57.42-3.12,1.34-.5.83-.32,1.88.02,1.96.28.07.8-.5,1.55-1.33.42-.46.51-.62.78-.66.48-.08.71.38,1.58.64.51.15,1.36.25,1.57-.02Z"/>
  </g>
  <g>
    <path d="m60.86,71.22c-.32.45.2,1.78,1.11,2.18,2.02.9,5.62-2.95,5.38-3.36-.03-.06-.16-.07-.34-.09-.36-.04-.65.07-.74.1-1.5.57-2.4,1-3.24,1.14-1.29.21-1.9-.34-2.17.03Z"/>
    <path d="m66.2,67.66c.23-.3-.35-.96-.8-1.3-.17-.13-.72-.54-1.58-.64-1.23-.14-2.57.42-3.12,1.34-.5.83-.32,1.88.02,1.96.28.07.8-.5,1.55-1.33.42-.46.51-.62.78-.66.48-.08.71.38,1.58.64.51.15,1.36.25,1.57-.02Z"/>
    <path d="m81.41,69.89c.89-.3,1.85-1.13,2.14-2.22.52-1.92-1.13-4.37-1.13-4.38.79-.66-2.14,1.19-2.14,2.22,0,1.11,2.33,1.74,2.19,2.17-.03.08-.2.32-3.25.04-2.2-.21-2.82-.4-3.25.04-.52.53-.5,1.71.02,2.2.5.47,1.13-.01,3.25-.04,1.4-.02,1.54.19,2.17-.03Z"/>
    <path d="m80.24,62.22c.47.66-.54,2.63-2.13,3.32-.66.28-1.82.52-2.17.03-.47-.66.54-2.63,2.13-3.32.66-.28,1.82-.52,2.17-.03Z"/>
    <path d="m63.42,62.06c.25.24,1.6,1.51,3.26,1.06.93-.25,2.02-1.05,2.14-2.22.12-1.1-.66-2.25-1.11-2.18-.51.07-.19,1.65-1.06,2.21-1.31.85-3.87-1.57-4.35-1.05-.28.31.36,1.47,1.11,2.18Z"/>
    <path d="m62.28,57.69c2.08-.68,3.28-.95,4-1.03.13-.02.3-.03.32-.11.08-.31-1.86-1.87-3.26-1.06-.7.4-1.08,1.28-1.06,2.21Z"/>
  </g>
  <g>
    <path d="m20.97,102.26c-.52.17-.84,1.57-.33,2.43,1.14,1.92,6.28.87,6.31.39,0-.07-.09-.15-.23-.27-.28-.24-.57-.32-.66-.35-1.55-.41-2.53-.58-3.29-.96-1.17-.58-1.36-1.39-1.79-1.24Z"/>
    <path d="m26.74,103.35c.36-.11.26-.99.09-1.53-.06-.2-.28-.86-.93-1.44-.92-.83-2.34-1.15-3.32-.72-.88.39-1.33,1.35-1.1,1.62.19.22.94.06,2.02-.18.6-.13.77-.21,1.01-.09.44.22.36.73.93,1.44.33.42.96,1,1.29.9Z"/>
    <path d="m28.34,112.71c.07.34.45,2.17,2.07,2.77.9.34,2.25.32,3.01-.57.72-.83.74-2.22.33-2.43-.46-.24-1.09,1.23-2.12,1.19-1.56-.07-2.27-3.55-2.96-3.39-.41.09-.55,1.41-.33,2.43Z"/>
    <path d="m29.91,108.47c2.09.66,3.22,1.14,3.86,1.49.12.07.27.15.33.1.24-.2-.46-2.61-2.07-2.77-.8-.08-1.61.41-2.12,1.19Z"/>
    <path d="m28.08,97.35c.03.21,1.15.43,1.58,1.1.5.78-.59,1.14-.23,2.06.35.9,1.94,1.89,3.16,2.2,2.66.68,3.8-1.75,3.63-1.92-.13-.12-1.09.95-2.6.41-.54-.19-1.16-.6-1.58-1.1-.78-.93-.28-1.47-.9-2.11-.9-.93-3.09-.95-3.05-.65Z"/>
    <path d="m27.63,96.3c.15-.42.44-1,1.02-1.51.4-.35,2.52-2.2,5.21-.82,2.73,1.4,4.02,5.06,3.38,5.31-.37.14-1.73-.72-2.37-1.65-.64-.94-.27-1.53-.9-2.11-.16-.14-.63-.52-1.92-.6-2.09-.13-3.55.67-4.42,1.37Z"/>
    <path d="m40.4,110.45c.9.27,2.15.16,3.01-.57,1.52-1.27,1.56-4.24,1.56-4.24,1.02-.08-2.43-.28-3.01.57-.63.91.91,2.78.56,3.05-.07.05-.34.15-2.68-1.87-1.68-1.45-2.08-1.97-2.68-1.87-.73.13-1.38,1.1-1.23,1.81.15.68.93.65,2.68,1.87,1.16.8,1.15,1.05,1.79,1.24Z"/>
    <path d="m43.81,103.5c0,.82-1.94,1.84-3.63,1.47-.7-.15-1.78-.64-1.79-1.24,0-.82,1.94-1.84,3.63-1.47.7.15,1.78.64,1.79,1.24Z"/>
    <path d="m19.1,88.14c-.52.17-.84,1.57-.33,2.43,1.14,1.92,6.28.87,6.31.39,0-.07-.09-.15-.23-.27-.28-.24-.57-.32-.66-.35-1.55-.41-2.53-.58-3.29-.96-1.17-.58-1.36-1.39-1.79-1.24Z"/>
    <path d="m24.86,89.24c.36-.11.26-.99.09-1.53-.06-.2-.28-.86-.93-1.44-.92-.83-2.34-1.15-3.32-.72-.88.39-1.33,1.35-1.1,1.62.19.22.94.06,2.02-.18.6-.13.77-.21,1.01-.09.44.22.36.73.93,1.44.33.42.96,1,1.29.9Z"/>
  </g>
  <g>
    <path d="m33.58,86.1c-.52.17-.84,1.57-.33,2.43,1.14,1.92,6.28.87,6.31.39,0-.07-.09-.15-.23-.27-.28-.24-.57-.32-.66-.35-1.55-.41-2.53-.58-3.29-.96-1.17-.58-1.36-1.39-1.79-1.24Z"/>
    <path d="m39.35,87.2c.36-.11.26-.99.09-1.53-.06-.2-.28-.86-.93-1.44-.92-.83-2.34-1.15-3.32-.72-.88.39-1.33,1.35-1.1,1.62.19.22.94.06,2.02-.18.6-.13.77-.21,1.01-.09.44.22.36.73.93,1.44.33.42.96,1,1.29.9Z"/>
    <path d="m40.95,96.56c.07.34.45,2.17,2.07,2.77.9.34,2.25.32,3.01-.57.72-.83.74-2.22.33-2.43-.46-.24-1.09,1.23-2.12,1.19-1.56-.07-2.27-3.55-2.96-3.39-.41.09-.55,1.41-.33,2.43Z"/>
    <path d="m42.52,92.32c2.09.66,3.22,1.14,3.86,1.49.12.07.27.15.33.1.24-.2-.46-2.61-2.07-2.77-.8-.08-1.61.41-2.12,1.19Z"/>
    <path d="m40.69,81.2c.03.21,1.15.43,1.58,1.1.5.78-.59,1.14-.23,2.06.35.9,1.94,1.89,3.16,2.2,2.66.68,3.8-1.75,3.63-1.92-.13-.12-1.09.95-2.6.41-.54-.19-1.16-.6-1.58-1.1-.78-.93-.28-1.47-.9-2.11-.9-.93-3.09-.95-3.05-.65Z"/>
    <path d="m40.24,80.14c.15-.42.44-1,1.02-1.51.4-.35,2.52-2.2,5.21-.82,2.73,1.4,4.02,5.06,3.38,5.31-.37.14-1.73-.72-2.37-1.65-.64-.94-.27-1.53-.9-2.11-.16-.14-.63-.52-1.92-.6-2.09-.13-3.55.67-4.42,1.37Z"/>
    <path d="m53.01,94.3c.9.27,2.15.16,3.01-.57,1.52-1.27,1.56-4.24,1.56-4.24,1.02-.08-2.43-.28-3.01.57-.63.91.91,2.78.56,3.05-.07.05-.34.15-2.68-1.87-1.68-1.45-2.08-1.97-2.68-1.87-.73.13-1.38,1.1-1.23,1.81.15.68.93.65,2.68,1.87,1.16.8,1.15,1.05,1.79,1.24Z"/>
    <path d="m56.42,87.34c0,.82-1.94,1.84-3.63,1.47-.7-.15-1.78-.64-1.79-1.24,0-.82,1.94-1.84,3.63-1.47.7.15,1.78.64,1.79,1.24Z"/>
    <path d="m31.7,71.98c-.52.17-.84,1.57-.33,2.43,1.14,1.92,6.28.87,6.31.39,0-.07-.09-.15-.23-.27-.28-.24-.57-.32-.66-.35-1.55-.41-2.53-.58-3.29-.96-1.17-.58-1.36-1.39-1.79-1.24Z"/>
    <path d="m37.47,73.08c.36-.11.26-.99.09-1.53-.06-.2-.28-.86-.93-1.44-.92-.83-2.34-1.15-3.32-.72-.88.39-1.33,1.35-1.1,1.62.19.22.94.06,2.02-.18.6-.13.77-.21,1.01-.09.44.22.36.73.93,1.44.33.42.96,1,1.29.9Z"/>
  </g>
  <g>
    <path d="m59.05,66.99c.55.04,1.38-1.12,1.23-2.11-.32-2.21-5.46-3.24-5.67-2.82-.03.06.03.18.11.34.16.33.41.52.48.58,1.28.98,2.11,1.52,2.68,2.17.86.99.73,1.81,1.18,1.84Z"/>
    <path d="m54.14,63.73c-.37-.04-.61.81-.66,1.38-.02.21-.07.9.31,1.69.54,1.13,1.72,1.97,2.79,1.96.96-.02,1.74-.73,1.63-1.07-.09-.27-.84-.42-1.94-.62-.6-.11-.79-.11-.97-.31-.32-.37-.06-.81-.31-1.69-.15-.52-.51-1.3-.85-1.33Z"/>
    <path d="m56.22,54.46c.07-.34.41-2.17-.86-3.36-.71-.66-1.96-1.17-3-.65-.98.49-1.53,1.76-1.23,2.11.33.4,1.48-.71,2.41-.27,1.41.67.75,4.16,1.44,4.28.41.07,1.04-1.09,1.23-2.11Z"/>
    <path d="m53.16,57.77c-1.68-1.42-2.54-2.3-3-2.87-.09-.11-.19-.24-.27-.22-.3.09-.57,2.59.86,3.36.71.38,1.64.24,2.41-.27Z"/>
    <path d="m50.62,68.75c.06-.21-.9-.84-1.04-1.63-.16-.91.98-.83,1-1.81.02-.97-1.08-2.5-2.08-3.26-2.19-1.67-4.17.14-4.08.36.07.16,1.37-.45,2.56.64.42.39.84,1,1.04,1.63.37,1.16-.3,1.47.03,2.29.48,1.21,2.49,2.08,2.57,1.78Z"/>
    <path d="m50.64,69.9c-.3.33-.79.75-1.52.99-.5.16-3.16,1.05-5.12-1.28-1.99-2.35-1.79-6.24-1.1-6.22.4.01,1.33,1.33,1.56,2.45.24,1.12-.33,1.51.03,2.29.09.19.38.72,1.55,1.3,1.88.93,3.53.76,4.6.46Z"/>
    <path d="m44.22,51.86c-.72-.6-1.93-.98-3-.65-1.88.59-3.05,3.3-3.05,3.31-.97-.33,2.13,1.2,3,.65.93-.59.21-2.92.64-3.04.08-.02.38,0,1.77,2.77,1,1.99,1.17,2.63,1.77,2.77.72.17,1.69-.48,1.82-1.19.12-.68-.61-.97-1.77-2.77-.76-1.19-.67-1.42-1.18-1.84Z"/>
    <path d="m38.44,56.95c.3-.76,2.49-.94,3.91.06.59.42,1.4,1.28,1.18,1.84-.3.76-2.49.94-3.91-.06-.59-.42-1.4-1.28-1.18-1.84Z"/>
    <path d="m55.42,80.75c.55.04,1.38-1.12,1.23-2.11-.32-2.21-5.46-3.24-5.67-2.82-.03.06.03.18.11.34.16.33.41.52.48.58,1.28.98,2.11,1.52,2.68,2.17.86.99.73,1.81,1.18,1.84Z"/>
    <path d="m50.52,77.49c-.37-.04-.61.81-.66,1.38-.02.21-.07.9.31,1.69.54,1.13,1.72,1.97,2.79,1.96.96-.02,1.74-.73,1.63-1.07-.09-.27-.84-.42-1.94-.62-.6-.11-.79-.11-.97-.31-.32-.37-.06-.81-.31-1.69-.15-.52-.51-1.3-.85-1.33Z"/>
  </g>
  <ellipse class="cls-4" cx="102.15" cy="90.69" rx="6.5" ry="5.49"/>
  <ellipse class="cls-2" cx="102.15" cy="112.64" rx="6.5" ry="5.49"/>
  <ellipse class="cls-3" cx="102.15" cy="134.59" rx="6.5" ry="5.49"/>
  <g>
    <path d="m183.4,101.03c.52.17.84,1.57.33,2.43-1.14,1.92-6.28.87-6.31.39,0-.07.09-.15.23-.27.28-.24.57-.32.66-.35,1.55-.41,2.53-.58,3.29-.96,1.17-.58,1.36-1.39,1.79-1.24Z"/>
    <path d="m177.64,102.13c-.36-.11-.26-.99-.09-1.53.06-.2.28-.86.93-1.44.92-.83,2.34-1.15,3.32-.72.88.39,1.33,1.35,1.1,1.62-.19.22-.94.06-2.02-.18-.6-.13-.77-.21-1.01-.09-.44.22-.36.73-.93,1.44-.33.42-.96,1-1.29.9Z"/>
    <path d="m176.03,111.49c-.07.34-.45,2.17-2.07,2.77-.9.34-2.25.32-3.01-.57-.72-.83-.74-2.22-.33-2.43.46-.24,1.09,1.23,2.12,1.19,1.56-.07,2.27-3.55,2.96-3.39.41.09.55,1.41.33,2.43Z"/>
    <path d="m174.47,107.25c-2.09.66-3.22,1.14-3.86,1.49-.12.07-.27.15-.33.1-.24-.2.46-2.61,2.07-2.77.8-.08,1.61.41,2.12,1.19Z"/>
    <path d="m176.29,96.12c-.03.21-1.15.43-1.58,1.1-.5.78.59,1.14.23,2.06-.35.9-1.94,1.89-3.16,2.2-2.66.68-3.8-1.75-3.63-1.92.13-.12,1.09.95,2.6.41.54-.19,1.16-.6,1.58-1.1.78-.93.28-1.47.9-2.11.9-.93,3.09-.95,3.05-.65Z"/>
    <path d="m176.74,95.07c-.15-.42-.44-1-1.02-1.51-.4-.35-2.52-2.2-5.21-.82-2.73,1.4-4.02,5.06-3.38,5.31.37.14,1.73-.72,2.37-1.65.64-.94.27-1.53.9-2.11.16-.14.63-.52,1.92-.6,2.09-.13,3.55.67,4.42,1.37Z"/>
    <path d="m163.97,109.22c-.9.27-2.15.16-3.01-.57-1.52-1.27-1.56-4.24-1.56-4.24-1.02-.08,2.43-.28,3.01.57.63.91-.91,2.78-.56,3.05.07.05.34.15,2.68-1.87,1.68-1.45,2.08-1.97,2.68-1.87.73.13,1.38,1.1,1.23,1.81-.15.68-.93.65-2.68,1.87-1.16.8-1.15,1.05-1.79,1.24Z"/>
    <path d="m160.57,102.27c0,.82,1.94,1.84,3.63,1.47.7-.15,1.78-.64,1.79-1.24,0-.82-1.94-1.84-3.63-1.47-.7.15-1.78.64-1.79,1.24Z"/>
    <path d="m185.28,86.91c.52.17.84,1.57.33,2.43-1.14,1.92-6.28.87-6.31.39,0-.07.09-.15.23-.27.28-.24.57-.32.66-.35,1.55-.41,2.53-.58,3.29-.96,1.17-.58,1.36-1.39,1.79-1.24Z"/>
    <path d="m179.51,88.01c-.36-.11-.26-.99-.09-1.53.06-.2.28-.86.93-1.44.92-.83,2.34-1.15,3.32-.72.88.39,1.33,1.35,1.1,1.62-.19.22-.94.06-2.02-.18-.6-.13-.77-.21-1.01-.09-.44.22-.36.73-.93,1.44-.33.42-.96,1-1.29.9Z"/>
  </g>
  <g>
    <path d="m170.79,84.88c.52.17.84,1.57.33,2.43-1.14,1.92-6.28.87-6.31.39,0-.07.09-.15.23-.27.28-.24.57-.32.66-.35,1.55-.41,2.53-.58,3.29-.96,1.17-.58,1.36-1.39,1.79-1.24Z"/>
    <path d="m165.03,85.97c-.36-.11-.26-.99-.09-1.53.06-.2.28-.86.93-1.44.92-.83,2.34-1.15,3.32-.72.88.39,1.33,1.35,1.1,1.62-.19.22-.94.06-2.02-.18-.6-.13-.77-.21-1.01-.09-.44.22-.36.73-.93,1.44-.33.42-.96,1-1.29.9Z"/>
    <path d="m163.42,95.33c-.07.34-.45,2.17-2.07,2.77-.9.34-2.25.32-3.01-.57-.72-.83-.74-2.22-.33-2.43.46-.24,1.09,1.23,2.12,1.19,1.56-.07,2.27-3.55,2.96-3.39.41.09.55,1.41.33,2.43Z"/>
    <path d="m161.86,91.09c-2.09.66-3.22,1.14-3.86,1.49-.12.07-.27.15-.33.1-.24-.2.46-2.61,2.07-2.77.8-.08,1.61.41,2.12,1.19Z"/>
    <path d="m163.68,79.97c-.03.21-1.15.43-1.58,1.1-.5.78.59,1.14.23,2.06-.35.9-1.94,1.89-3.16,2.2-2.66.68-3.8-1.75-3.63-1.92.13-.12,1.09.95,2.6.41.54-.19,1.16-.6,1.58-1.1.78-.93.28-1.47.9-2.11.9-.93,3.09-.95,3.05-.65Z"/>
    <path d="m164.13,78.92c-.15-.42-.44-1-1.02-1.51-.4-.35-2.52-2.2-5.21-.82-2.73,1.4-4.02,5.06-3.38,5.31.37.14,1.73-.72,2.37-1.65.64-.94.27-1.53.9-2.11.16-.14.63-.52,1.92-.6,2.09-.13,3.55.67,4.42,1.37Z"/>
    <path d="m151.36,93.07c-.9.27-2.15.16-3.01-.57-1.52-1.27-1.56-4.24-1.56-4.24-1.02-.08,2.43-.28,3.01.57.63.91-.91,2.78-.56,3.05.07.05.34.15,2.68-1.87,1.68-1.45,2.08-1.97,2.68-1.87.73.13,1.38,1.1,1.23,1.81-.15.68-.93.65-2.68,1.87-1.16.8-1.15,1.05-1.79,1.24Z"/>
    <path d="m147.96,86.12c0,.82,1.94,1.84,3.63,1.47.7-.15,1.78-.64,1.79-1.24,0-.82-1.94-1.84-3.63-1.47-.7.15-1.78.64-1.79,1.24Z"/>
    <path d="m172.67,70.76c.52.17.84,1.57.33,2.43-1.14,1.92-6.28.87-6.31.39,0-.07.09-.15.23-.27.28-.24.57-.32.66-.35,1.55-.41,2.53-.58,3.29-.96,1.17-.58,1.36-1.39,1.79-1.24Z"/>
    <path d="m166.9,71.86c-.36-.11-.26-.99-.09-1.53.06-.2.28-.86.93-1.44.92-.83,2.34-1.15,3.32-.72.88.39,1.33,1.35,1.1,1.62-.19.22-.94.06-2.02-.18-.6-.13-.77-.21-1.01-.09-.44.22-.36.73-.93,1.44-.33.42-.96,1-1.29.9Z"/>
  </g>
  <g>
    <path d="m145.33,65.76c-.55.04-1.38-1.12-1.23-2.11.32-2.21,5.46-3.24,5.67-2.82.03.06-.03.18-.11.34-.16.33-.41.52-.48.58-1.28.98-2.11,1.52-2.68,2.17-.86.99-.73,1.81-1.18,1.84Z"/>
    <path d="m150.23,62.5c.37-.04.61.81.66,1.38.02.21.07.9-.31,1.69-.54,1.13-1.72,1.97-2.79,1.96-.96-.02-1.74-.73-1.63-1.07.09-.27.84-.42,1.94-.62.6-.11.79-.11.97-.31.32-.37.06-.81.31-1.69.15-.52.51-1.3.85-1.33Z"/>
    <path d="m148.16,53.24c-.07-.34-.41-2.17.86-3.36.71-.66,1.96-1.17,3-.65.98.49,1.53,1.76,1.23,2.11-.33.4-1.48-.71-2.41-.27-1.41.67-.75,4.16-1.44,4.28-.41.07-1.04-1.09-1.23-2.11Z"/>
    <path d="m151.21,56.54c1.68-1.42,2.54-2.3,3-2.87.09-.11.19-.24.27-.22.3.09.57,2.59-.86,3.36-.71.38-1.64.24-2.41-.27Z"/>
    <path d="m153.75,67.52c-.06-.21.9-.84,1.04-1.63.16-.91-.98-.83-1-1.81-.02-.97,1.08-2.5,2.08-3.26,2.19-1.67,4.17.14,4.08.36-.07.16-1.37-.45-2.56.64-.42.39-.84,1-1.04,1.63-.37,1.16.3,1.47-.03,2.29-.48,1.21-2.49,2.08-2.57,1.78Z"/>
    <path d="m153.73,68.67c.3.33.79.75,1.52.99.5.16,3.16,1.05,5.12-1.28,1.99-2.35,1.79-6.24,1.1-6.22-.4.01-1.33,1.33-1.56,2.45-.24,1.12.33,1.51-.03,2.29-.09.19-.38.72-1.55,1.3-1.88.93-3.53.76-4.6.46Z"/>
    <path d="m160.15,50.63c.72-.6,1.93-.98,3-.65,1.88.59,3.05,3.3,3.05,3.31.97-.33-2.13,1.2-3,.65-.93-.59-.21-2.92-.64-3.04-.08-.02-.38,0-1.77,2.77-1,1.99-1.17,2.63-1.77,2.77-.72.17-1.69-.48-1.82-1.19-.12-.68.61-.97,1.77-2.77.76-1.19.67-1.42,1.18-1.84Z"/>
    <path d="m165.93,55.72c-.3-.76-2.49-.94-3.91.06-.59.42-1.4,1.28-1.18,1.84.3.76,2.49.94,3.91-.06.59-.42,1.4-1.28,1.18-1.84Z"/>
    <path d="m148.95,79.52c-.55.04-1.38-1.12-1.23-2.11.32-2.21,5.46-3.24,5.67-2.82.03.06-.03.18-.11.34-.16.33-.41.52-.48.58-1.28.98-2.11,1.52-2.68,2.17-.86.99-.73,1.81-1.18,1.84Z"/>
    <path d="m153.86,76.26c.37-.04.61.81.66,1.38.02.21.07.9-.31,1.69-.54,1.13-1.72,1.97-2.79,1.96-.96-.02-1.74-.73-1.63-1.07.09-.27.84-.42,1.94-.62.6-.11.79-.11.97-.31.32-.37.06-.81.31-1.69.15-.52.51-1.3.85-1.33Z"/>
  </g>
  <path class="cls-8" d="m144.43,112.64c-1.43.02-4.74,11.29-3.25,23.05.79,6.25,2.79,11.52,0,14.27-2.45,2.41-6.81,1.07-7.59,3.29-.78,2.23,3,4.46,2.17,6.59-.8,2.03-4.51.6-7.59,3.29-2.87,2.51-2.06,5.86-4.34,6.59-2.42.77-5.24-2.43-5.42-2.2-.18.23,2.2,3.91,6.5,5.49,4.23,1.55,5.63-.64,13.01,0,4.31.37,6.74,1.37,7.27.39.44-.82-.65-2.67-2.17-3.29-.68-.28-1.86-.49-2.17,0-.48.75,1,3.32,2.17,3.29,2.6-.05,4.18-15.24,4.66-23.44,1.09-18.59-1.4-37.34-3.25-37.32Z"/>
  <path class="cls-8" d="m139.01,55.56c-.99.17-1.18,6.29,0,12.07,1.65,8.13,5.58,13.55,7.59,16.46,12.35,17.9,16.03,33.46,17.35,32.93,1-.4-1.13-9.43-4.34-17.56-4.89-12.43-8.68-13.63-14.09-26.34-4.41-10.34-5.4-17.76-6.5-17.56Z"/>
  <path class="cls-8" d="m34.93,114.84c.12-.17.3-.42.52-.72,6.03-8.44,10.41-14.09,12.49-16.84,8.84-11.66,13.26-17.49,14.09-21.95,1.8-9.64-2.82-16.77-1.08-17.56,1.59-.73,7.01,4.52,7.59,10.98.76,8.46-7.22,14.02-7.59,14.27"/>
  <path class="cls-8" d="m150.93,42.39c.16-5.38-27.29-12.83-53.12-10.98-23.03,1.65-46.18,10.8-45.53,15.37.46,3.21,12.67,3.83,23.85,4.39,31.5,1.59,74.6-2.07,74.8-8.78Z"/>
  <g>
    <path class="cls-6" d="m143.2,41.09c-.44,1.86-1.81,3.34-3.61,4.14.65,1.16.88,2.51.56,3.88-.76,3.26-4.4,5.35-8.1,4.68-3.64-.67-6.01-3.77-5.34-6.97-2.12.7-4.58.44-6.52-.84-1.43-.95-2.31-2.3-2.59-3.74-.35,0-.69-.05-1.04-.11-3.64-.66-6-3.74-5.34-6.95-2.12.7-4.58.44-6.52-.84-.62-.43-1.16-.92-1.57-1.47-.23.57-.56,1.14-1,1.64-2.3,2.65-6.59,3.17-9.61,1.16-.29-.19-.55-.4-.78-.61-.64.24-1.29.4-1.98.45-.11.99-.5,1.98-1.2,2.85,1.98,1.91,2.33,4.77.84,7.03.82-.31,1.74-.48,2.7-.48.61,0,1.2.07,1.77.2,1.2-1.72,3.37-2.87,5.85-2.87,3.67,0,6.65,2.51,6.84,5.7.72-.23,1.49-.35,2.3-.35,3.79,0,6.85,2.69,6.85,6.02,0,2.57-1.83,4.76-4.42,5.63.02.2.03.41.03.63,0,3.32-3.08,6.02-6.85,6.02-.88,0-1.74-.15-2.51-.43-1.25,1.34-3.15,2.19-5.28,2.19-3.43,0-6.26-2.19-6.76-5.08-1.11.68-2.45,1.07-3.9,1.07-2.77,0-5.15-1.43-6.23-3.5-1.6.12-3.26-.27-4.64-1.19-.72-.47-1.29-1.04-1.72-1.67-1.92.4-4.02.07-5.71-1.06-2.73-1.82-3.47-5.08-1.9-7.65-1.34-.04-2.68-.43-3.82-1.2-3.02-2.02-3.61-5.79-1.32-8.44,1.25-1.47,3.14-2.27,5.07-2.35-.58-1.76-.24-3.74,1.13-5.32,1.6-1.86,4.2-2.67,6.64-2.29-.79-1.87-.5-4.04.97-5.74,2.22-2.58,6.35-3.14,9.35-1.31.17-.95.59-1.88,1.31-2.7,2.28-2.65,6.58-3.17,9.59-1.15.21.13.41.29.59.44.14-.21.29-.43.47-.63,2.28-2.65,6.58-3.17,9.59-1.15,2.47,1.64,3.32,4.47,2.28,6.88.15-.03.32-.04.47-.05-.2-1.5.23-3.05,1.36-4.34,2.28-2.65,6.58-3.17,9.59-1.15,1.58,1.04,2.48,2.58,2.66,4.17.21.03.44.05.65.09,3.52.64,5.85,3.56,5.41,6.63,2.18-.8,4.75-.59,6.76.75,1.58,1.04,2.5,2.58,2.66,4.18.21.01.44.04.65.08,3.7.68,6.09,3.86,5.31,7.11Z"/>
    <path class="cls-6" d="m123.4,50.45c-.44,1.86-1.81,3.34-3.61,4.14.65,1.16.88,2.51.56,3.88-.76,3.26-4.4,5.35-8.1,4.68-3.64-.67-6.01-3.77-5.34-6.97-2.12.7-4.58.44-6.52-.84-3.02-2.01-3.61-5.78-1.32-8.42,1.2-1.38,2.94-2.18,4.75-2.34-.2-1.5.23-3.05,1.34-4.34,2.3-2.65,6.59-3.17,9.61-1.16,1.58,1.04,2.5,2.58,2.66,4.18.21.01.44.04.65.08,3.7.68,6.09,3.86,5.31,7.11Z"/>
    <path d="m133.97,32.88c-2-.15-2.25,2.95-6.09,5.35-6.96,4.34-14.46-.63-18.27,2.67-4.09,3.55-1.6,12.09,6.64,15.76,5.4,2.4,9.77.38,10.84,0,8.33-2.95,11.16-7.85,11.46-9.08,1.61-6.75-1.47-14.47-4.57-14.71Z"/>
    <path class="cls-6" d="m117.32,53.37c.29.91.89,2.27,2.17,3.29,3.53,2.83,8.88.4,9.76,0,4-1.82,5.87-5.27,6.5-6.59"/>
  </g>
  <ellipse class="cls-5" cx="115.7" cy="49.53" rx="6.5" ry="5.49"/>
  <path class="cls-6" d="m73.95,40.2c-.06-.73-.08-2.32.76-3.62,1.3-1.99,4.16-2.54,6.84-.91"/>
  <path class="cls-6" d="m78.84,50.62c-1.6-1.66-4.19-1.49-5.42,0-1.27,1.53-.92,4.23,1.08,5.49"/>
  <path class="cls-6" d="m92.93,57.21c0-.17.06-1.43,1.08-2.2.91-.68,2.22-.69,3.25,0"/>
  <path class="cls-6" d="m88.6,26.48c-.16.41-.72,1.98,0,3.29.94,1.7,3.75,2.47,6.5,1.1"/>
  <path class="cls-6" d="m131.96,44.04c-.08-.36-.92-4.03-4.34-5.49-2.89-1.24-6.4-.37-8.67,2.2"/>
  <path class="cls-6" d="m113.53,30.87c.03-.81.2-2.14,1.08-3.29,2.22-2.91,7.56-2.97,8.67-1.1.22.37.4,1.03,0,2.2"/>
</svg>