<?xml version="1.0" encoding="UTF-8"?>
<svg id="_Слой_1" data-name="Слой 1" xmlns="http://www.w3.org/2000/svg" xmlns:xlink="http://www.w3.org/1999/xlink" viewBox="0 0 200 200">
  <defs>
    <style>
      .cls-1 {
        fill: #fff;
        stroke: #fff;
      }

      .cls-1, .cls-2 {
        stroke-width: 2px;
      }

      .cls-1, .cls-2, .cls-3 {
        stroke-linecap: round;
        stroke-linejoin: round;
      }

      .cls-4 {
        fill: url(#_Безымянный_градиент_17);
      }

      .cls-2 {
        fill: none;
        stroke: #f15a24;
      }

      .cls-5 {
        fill: url(#_Небо);
        stroke-miterlimit: 10;
      }

      .cls-5, .cls-3 {
        stroke: #1d1d1b;
      }

      .cls-3 {
        fill: #5532ff;
      }

      .cls-6 {
        fill: red;
      }

      .cls-7 {
        fill: #fff533;
      }
    </style>
    <linearGradient id="_Небо" data-name="Небо" x1="30.5" y1="133" x2="155.5" y2="133" gradientUnits="userSpaceOnUse">
      <stop offset="0" stop-color="#cce0f4"/>
      <stop offset=".06" stop-color="#c2dcf2"/>
      <stop offset=".17" stop-color="#a9d2ee"/>
      <stop offset=".31" stop-color="#7fc2e7"/>
      <stop offset=".46" stop-color="#46abdd"/>
      <stop offset=".57" stop-color="#1e9cd7"/>
      <stop offset=".87" stop-color="#0075be"/>
      <stop offset=".99" stop-color="#005b97"/>
    </linearGradient>
    <radialGradient id="_Безымянный_градиент_17" data-name="Безымянный градиент 17" cx="92" cy="52.4" fx="92" fy="52.4" r="26.66" gradientUnits="userSpaceOnUse">
      <stop offset="0" stop-color="#00396a"/>
      <stop offset=".96" stop-color="#f0efec"/>
    </radialGradient>
  </defs>
  <ellipse class="cls-5" cx="93" cy="133" rx="62.5" ry="23.5"/>
  <g>
    <path class="cls-3" d="m30,135.15c8.17-6.37,31.35-22.68,64.58-23.2,33.78-.52,52.38,11.24,60.62,17.4-19.77-50.74-46.42-61.48-60.62-66.69-11.86-4.35-50.08,18.85-64.58,72.49Z"/>
    <path class="cls-7" d="m153.22,123.47c-2.81-1.93-6.86-4.47-12.36-6.95-10.11-4.54-25.12-8.81-46.3-8.52-18.31.26-33.47,5.08-44.59,10.22-8.39,3.89-14.49,7.96-17.89,10.4,1.03-3.53,2.21-6.91,3.47-10.13,1.3-3.31,2.72-6.47,4.22-9.47,3.42-2.31,7.4-4.72,11.91-6.97,9.59-4.83,21.59-9.05,35.77-10.46,17.89-1.79,33.52,1.46,46.06,6.15,2.84,1.08,5.53,2.22,8.05,3.4,2.89,4.48,5.73,9.52,8.45,15.22,1.1,2.27,2.17,4.64,3.21,7.11Z"/>
    <path class="cls-6" d="m138.73,97.44c-2.37-1.2-4.91-2.35-7.59-3.44-11.83-4.75-26.59-8.03-43.47-6.22-13.38,1.43-24.71,5.7-33.76,10.59-4.26,2.28-8.02,4.72-11.24,7.06,1.06-2.3,2.18-4.5,3.35-6.61,2.01-3.69,4.14-7.11,6.34-10.25,6.4-2.92,13.78-5.56,22.07-7.3,22-4.63,41.36-1.2,55.37,3.43,2.2,2.69,4.42,5.69,6.58,9.02.79,1.2,1.58,2.44,2.35,3.73Z"/>
  </g>
  <polyline class="cls-2" points="144.32 106.79 140.87 116.52 133.51 97.74 122.62 109.86 114.36 92.54 102.19 108.1 92.6 91.09 84.05 108.67 67.44 95.67 60.57 113.17 45.48 105.43 41 123 35.04 120.32"/>
  <circle class="cls-1" cx="56" cy="92" r="3"/>
  <circle class="cls-1" cx="68" cy="88" r="3"/>
  <circle class="cls-1" cx="80" cy="85" r="3"/>
  <circle class="cls-1" cx="91" cy="83" r="3"/>
  <circle class="cls-1" cx="103" cy="83" r="3"/>
  <circle class="cls-1" cx="114" cy="85" r="3"/>
  <circle class="cls-1" cx="127" cy="88" r="3"/>
  <path class="cls-4" d="m94,34.53l6-3.83,1.43,3.83,9.57-1.91-6.5,6.88h12.22l-5.72,1.93,7.5,1.07s-6,2-6,3,9,4,9,4l-10.5,1.63,8.5,5.37h-8.5l3,9.18-3-1.79v7.66l-5-4.06v5.1l-8.5-5.09v7l-4.9-4.73-4.6,6.13v-8.68l-7,5.38,2-5.38-7.87,5.38v-6.66l-4.13,2.3,2.34-6.09-10.84-2.64,8.5-3.27-3-2.55-3-2.55,6-4.6-6-6.13,8.5,3.1-.02-6.04,2.02,3.04.39-8.5,4.11,5.6,3-8.68,2.5,5.59,6.5-5.59,2,5.62Z"/>
</svg>