<?xml version="1.0" encoding="UTF-8"?>
<svg id="_Слой_1" data-name="Слой 1" xmlns="http://www.w3.org/2000/svg" viewBox="0 0 200 200">
  <defs>
    <style>
      .cls-1, .cls-2 {
        fill: #0d7a9b;
      }

      .cls-3 {
        fill: #70d1e8;
      }

      .cls-2 {
        stroke: #000;
      }

      .cls-2, .cls-4 {
        stroke-miterlimit: 10;
      }

      .cls-4 {
        fill: #e4ff24;
        stroke: #f7931e;
        stroke-width: .25px;
      }

      .cls-5 {
        fill: #1a5c63;
      }

      .cls-6 {
        fill: #e6f4f4;
      }

      .cls-7 {
        fill: #92ccca;
      }

      .cls-8 {
        fill: #88bdbf;
      }
    </style>
  </defs>
  <g>
    <path class="cls-1" d="m68.13,184.4c-.6,0-1.2-.1-1.78-.3l-37.71-13.02c-3.18-1.09-4.94-4.84-3.94-8.36L62.61,35.64c.17-.61.41-1.17.71-1.66l.07-.12v-.14c.05-3.61,2.74-6.55,5.99-6.55l52.54.71c3.16.05,5.75,2.83,5.9,6.32v.13s.07.11.07.11c.23.37.42.77.56,1.18l43.63,122.87c1.22,3.43-.3,7.31-3.39,8.65l-36.78,15.89c-.7.3-1.43.46-2.17.46-2.47,0-4.66-1.65-5.57-4.21l-26.86-75.73-23.45,76.17c-.8,2.8-3.09,4.67-5.71,4.67Z"/>
    <path d="m69.38,27.68h0,.07s52.46.71,52.46.71c2.9.04,5.27,2.61,5.41,5.84v.26s.14.22.14.22c.21.34.38.71.51,1.09l43.63,122.87c1.14,3.18-.26,6.78-3.12,8.02l-36.78,15.89c-.64.27-1.3.41-1.98.41-2.26,0-4.26-1.52-5.1-3.88l-26.35-74.31-1.01-2.85-.89,2.89-23.02,74.75c-.73,2.57-2.83,4.3-5.23,4.3-.55,0-1.09-.09-1.62-.28l-37.71-13.02c-2.93-1.01-4.55-4.48-3.62-7.74L63.09,35.77c.16-.56.38-1.08.66-1.53l.14-.23v-.27c.05-3.34,2.51-6.06,5.49-6.06m0-1c-3.53,0-6.44,3.14-6.49,7.04-.33.54-.58,1.14-.76,1.77l-37.9,127.09c-1.08,3.78.84,7.79,4.26,8.97l37.7,13.02c.65.22,1.3.33,1.95.33,2.76,0,5.32-1.96,6.19-5.02l23.01-74.73,26.35,74.31c1,2.82,3.45,4.55,6.04,4.55.79,0,1.59-.16,2.37-.5l36.78-15.89c3.33-1.44,4.98-5.6,3.67-9.27l-43.63-122.87c-.16-.46-.36-.88-.6-1.28-.16-3.76-2.95-6.75-6.39-6.8l-52.46-.71s-.05,0-.08,0h0Z"/>
  </g>
  <g>
    <path class="cls-3" d="m67.44,38.15c-2.94,0-5.35-2.66-5.37-5.93-.02-3.31,2.39-6.02,5.36-6.06l55.71-.63c3,0,5.41,2.66,5.42,5.93.02,3.31-2.39,6.02-5.36,6.06l-55.76.63Z"/>
    <path d="m123.2,26.04c2.67,0,4.85,2.44,4.87,5.43.02,3.03-2.17,5.52-4.87,5.55l-55.76.63c-2.67,0-4.85-2.44-4.87-5.43-.02-3.03,2.17-5.52,4.87-5.55l55.71-.63h.05m0-1s-.04,0-.06,0l-55.71.63c-3.24.04-5.88,2.99-5.85,6.56h0c.02,3.55,2.66,6.43,5.87,6.43.02,0,.04,0,.06,0l55.71-.63c3.24-.04,5.88-2.99,5.85-6.56h0c-.02-3.55-2.66-6.43-5.87-6.43h0Z"/>
  </g>
  <path class="cls-2" d="m108.99,37.39c-.05,1.79.04,4.29.72,7.14.46,1.92,3.14,13.18,12.08,16.09,6.82,2.22,12.87-1.85,14.08-2.7"/>
  <path class="cls-2" d="m85.43,38.42c-.12,1.78-.46,4.26-1.42,7.01-.65,1.86-4.42,12.73-13.59,14.55-6.99,1.39-12.61-3.37-13.73-4.37"/>
  <path class="cls-5" d="m42.02,168.18c.17-1.18,5.54.54,11.67-1.08,6.65-1.76,15.11-7.69,23.34-25.82.05,3.68-.23,13.87-6.28,22.59-1.62,2.34-4.65,6.6-9.87,8.61-9.41,3.62-19.09-2.68-18.85-4.3Z"/>
  <path class="cls-5" d="m153.12,168.48c-.17-1.18-5.54.54-11.67-1.08-6.65-1.76-15.11-7.69-23.34-25.82-.05,3.68.23,13.87,6.28,22.59,1.62,2.34,4.65,6.6,9.87,8.61,9.41,3.62,19.09-2.68,18.85-4.3Z"/>
  <path class="cls-8" d="m63.75,62.56c.4.26-.05,2.72-8.08,24.74-6.85,18.78-10.27,28.17-10.77,27.97-1.26-.49,1.45-20.73,10.77-39.81,3.04-6.23,7.31-13.41,8.08-12.91Z"/>
  <path class="cls-8" d="m131.29,65.21c-.4.26.05,2.72,8.08,24.74,6.85,18.78,10.27,28.17,10.77,27.97,1.26-.49-1.45-20.73-10.77-39.81-3.04-6.23-7.31-13.41-8.08-12.91Z"/>
  <path class="cls-6" d="m67.34,33.52c-1.26-1.94-.99-2.97-.9-3.23.42-1.24,2.14-1.51,4.81-1.9,1.67-.24,2.93-.25,3.27-.25,6.06-.06,8.07-.19,8.08,0,.02.31-5.37.05-11.67,3.23-1.53.77-2.75,1.56-3.59,2.15Z"/>
  <path class="cls-7" d="m122.09,27.06c.18-.47,5.13.66,5.39,3.23.14,1.42-1.22,2.7-1.8,3.23-2.99,2.74-6.56,2.35-10.77,2.15-7.42-.35-13.47.08-13.46,0,0-.11,11.36-1.23,19.75-3.23.97-.23,3.45-.85,3.59-2.15.16-1.49-2.84-2.85-2.69-3.23Z"/>
  <path class="cls-4" d="m104.14,27.06c0-1.18-.81-2.15-1.8-2.15h-10.77c-.49,0-.94.24-1.27.63-.33.39-.53.93-.53,1.52,0,.18.02.37.06.54-.04.17-.06.35-.06.54v7.53c0,.18.02.37.06.54-.04.17-.06.35-.06.54,0,1.18.81,2.15,1.8,2.15h10.77c.99,0,1.8-.97,1.8-2.15,0-.18-.02-.37-.06-.54.04-.17.06-.36.06-.54v-7.53c0-.18-.02-.37-.06-.54.04-.17.06-.36.06-.54Zm-10.77,2.15h7.18v5.38h-7.18v-5.38Z"/>
  <path class="cls-2" d="m90.62,38.44c-1.19,9.58-1.83,17.63-2.19,23.62-.69,11.29-.4,14.98,1.7,16.89,3.03,2.75,8.19.3,10.21-.8"/>
</svg>