<svg width="172" height="172" viewBox="0 0 172 172" fill="none" xmlns="http://www.w3.org/2000/svg">
<g clip-path="url(#clip0_131_434)">
<path d="M171.309 80.0808C168.98 34.703 136.004 -0.912933 97.6234 0.541803C95.5506 0.612032 93.5224 0.802652 91.5164 1.0936L82.8128 2.99981L56.713 8.33718C54.6513 8.75856 52.8236 9.80195 51.5421 11.3069C45.1898 18.711 25.7989 41.455 24.8739 44.0836C23.7484 47.2138 13.8188 88.5283 13.8188 98.5007C13.8188 108.473 32.296 154.042 32.296 154.042L73.407 167.104C73.173 166.773 70.9664 173.535 85.0862 170.555C95.3277 168.408 125.027 160.904 125.673 160.773C125.685 160.763 125.707 160.763 125.707 160.763C153.891 149.597 173.248 117.332 171.32 80.0808H171.309ZM117.627 134.337H117.616C113.627 135.903 109.392 136.826 104.967 137.026C104.867 137.026 104.767 137.036 104.667 137.036C79.0906 138.019 57.1142 114.272 55.554 84.0236C54.317 59.8349 66.4976 38.8164 84.5067 30.8505C87.6828 29.4359 91.0483 28.4426 94.5365 27.9009C96.0298 27.6701 97.5343 27.5297 99.0499 27.4695C124.604 26.4863 128.103 49.9326 129.652 80.2012C130.911 105.082 136.472 126.933 117.616 134.327L117.627 134.337Z" fill="#171C11" stroke="black" stroke-linecap="round" stroke-linejoin="round"/>
<path d="M92.8872 28.1316L92.9987 29.0847L82.8574 31.0812C86.0335 29.6666 89.3991 28.6734 92.8872 28.1316Z" fill="white" stroke="black" stroke-miterlimit="10"/>
<path d="M115.967 134.568C111.977 136.133 107.743 137.056 103.318 137.257L115.967 134.568Z" fill="white" stroke="black" stroke-miterlimit="10"/>
<path d="M71.5352 171.499C53.6041 171.499 36.4085 163.352 23.1023 148.574C9.75156 133.716 1.78343 113.771 0.691299 92.391C-0.634864 66.6171 8.10221 42.5086 24.6402 26.2456C36.1299 14.9488 50.2162 8.66839 65.3835 8.09653C66.1413 8.06643 66.888 8.0564 67.6347 8.0564C85.5769 8.0564 102.772 16.1929 116.067 30.981C129.418 45.8294 137.386 65.7843 138.479 87.164C139.805 112.928 131.079 137.036 114.541 153.299C103.04 164.606 88.9536 170.887 73.7863 171.468C73.0396 171.499 72.293 171.509 71.5463 171.509L71.5352 171.499ZM68.3145 34.0009C67.8018 34.0009 67.2781 34.0009 66.7654 34.031C56.4013 34.4222 46.7838 38.7062 38.9494 46.4113C27.7606 57.4171 21.8542 73.7001 22.7457 91.1068C24.2836 121.125 45.4354 144.641 70.8888 144.641C71.4014 144.641 71.9252 144.641 72.4378 144.611C82.802 144.22 92.4194 139.936 100.254 132.231C111.443 121.225 117.349 104.942 116.458 87.5452C114.92 57.5275 93.779 34.0109 68.3145 34.0109V34.0009Z" fill="#3B4051"/>
<path d="M67.6345 8.54794C85.3984 8.54794 102.449 16.6242 115.633 31.282C128.917 46.05 136.829 65.8947 137.921 87.1739C139.236 112.807 130.566 136.775 114.128 152.948C102.739 164.155 88.7751 170.385 73.7527 170.957C73.0172 170.987 72.2705 170.997 71.5238 170.997C53.7599 170.997 36.7204 162.921 23.5257 148.263C10.2529 133.485 2.34049 113.64 1.23721 92.3709C-0.0666668 66.7274 8.61468 42.7493 25.0524 26.5867C36.4418 15.3902 50.3944 9.16997 65.4057 8.59811C66.1412 8.56801 66.899 8.55798 67.6345 8.55798M70.8775 145.133C71.4013 145.133 71.925 145.123 72.4488 145.103C82.969 144.701 92.7202 140.367 100.655 132.562C111.944 121.466 117.906 105.042 117.003 87.505C116.257 72.9677 110.841 59.3935 101.736 49.2705C92.5864 39.0974 80.7178 33.4891 68.3032 33.4891C67.7794 33.4891 67.2556 33.4992 66.7318 33.5192C56.2117 33.9206 46.4605 38.2547 38.5258 46.0601C27.2367 57.1562 21.2745 73.5797 22.1772 91.1168C22.9239 105.654 28.34 119.228 37.4448 129.351C46.5942 139.524 58.4628 145.133 70.8775 145.133ZM67.6345 7.54468C66.8767 7.54468 66.1189 7.55471 65.3611 7.58481C27.0027 9.04958 -2.18407 47.0332 0.133929 92.421C2.4185 136.906 34.1684 172 71.535 172C72.2928 172 73.0506 171.99 73.8084 171.96C112.167 170.505 141.376 132.522 139.036 87.1338C136.751 42.649 105.023 7.54468 67.6345 7.54468ZM70.8775 144.119C45.9701 144.119 24.8184 120.723 23.2916 91.0666C21.7426 60.8081 41.2115 35.4957 66.7875 34.5225C67.3002 34.5024 67.8128 34.4924 68.3143 34.4924C93.2217 34.4924 114.373 57.8886 115.9 87.5452C117.449 117.804 97.9802 143.116 72.4042 144.089C71.8916 144.109 71.379 144.119 70.8775 144.119Z" fill="black"/>
<path d="M57.6715 15.4002C56.7577 14.0558 40.4537 17.4268 27.883 28.2219C8.8932 44.515 8.3137 69.1953 9.6733 69.5264C10.6206 69.7572 12.0247 57.9487 22.9126 43.8829C38.0688 24.2992 58.7413 16.9753 57.6715 15.3902V15.4002Z" fill="#808080"/>
<path d="M64.291 157.844C64.3467 155.727 84.15 159.319 99.0499 149.296C112.891 139.986 114.262 124.475 117.26 125.077C119.388 125.509 120.19 133.595 117.26 140.748C110.684 156.811 88.3848 160.553 87.471 160.693C75.6024 162.519 64.2576 159.449 64.3022 157.844H64.291Z" fill="#808080"/>
<path d="M163.597 86.6219C165.302 86.8426 169.86 121.576 145.388 143.597C133.731 154.092 118.318 159.128 117.249 157.844C116.09 156.449 132.349 148.554 145.388 132.2C163.698 109.236 162.216 86.4413 163.597 86.6219Z" fill="black"/>
<path d="M60.9813 42.4683C59.3877 41.4349 43.1059 51.3974 36.1519 68.1118C25.2529 94.287 43.2731 122.499 44.4321 122.238C45.2791 122.047 36.0516 106.647 39.4618 85.2075C43.5629 59.5238 62.8535 43.6923 60.9813 42.4783V42.4683Z" fill="black"/>
<path d="M87.939 11.7682V6.92246L99.8856 6.14995C99.8856 6.14995 99.8856 1.06339 99.8856 1.46469C99.8856 1.866 108.879 1.44463 108.879 1.44463" stroke="black" stroke-linecap="round" stroke-linejoin="round"/>
<path d="M101.401 16.865V11.4975L114.217 10.6447C114.217 10.6447 114.217 5.00636 114.217 5.45783C114.217 5.9093 123.879 5.42773 123.879 5.42773" stroke="black" stroke-linecap="round" stroke-linejoin="round"/>
<path d="M111.833 24.1787V18.8112L124.648 17.9584C124.648 17.9584 124.648 12.3201 124.648 12.7716C124.648 13.223 134.31 12.7415 134.31 12.7415" stroke="black" stroke-linecap="round" stroke-linejoin="round"/>
<path d="M119.667 31.9239L120.558 25.5832L134.778 26.0447C134.778 26.0447 135.725 19.3931 135.647 19.9248C135.569 20.4565 146.257 21.0083 146.257 21.0083" stroke="black" stroke-linecap="round" stroke-linejoin="round"/>
<path d="M126.743 42.1072L127.635 35.7666L141.855 36.2281C141.855 36.2281 142.802 29.5764 142.724 30.1081C142.646 30.6399 153.333 31.1917 153.333 31.1917" stroke="black" stroke-linecap="round" stroke-linejoin="round"/>
<path d="M132.873 53.5645L133.764 47.2238L147.984 47.6853C147.984 47.6853 148.931 41.0337 148.853 41.5654C148.775 42.0971 159.463 42.6489 159.463 42.6489" stroke="black" stroke-linecap="round" stroke-linejoin="round"/>
<path d="M136.138 65.0617L138.478 58.5706L153.556 61.47C153.556 61.47 156.019 54.6579 155.818 55.1996C155.618 55.7414 166.907 58.1292 166.907 58.1292" stroke="black" stroke-linecap="round" stroke-linejoin="round"/>
<path d="M139.693 79.5088L142.033 73.0176L157.111 75.9171C157.111 75.9171 159.574 69.1049 159.374 69.6466C159.173 70.1884 170.462 72.5762 170.462 72.5762" stroke="black" stroke-linecap="round" stroke-linejoin="round"/>
<path d="M139.871 91.3473L143.604 85.4983L156.977 90.6049C156.977 90.6049 160.9 84.4649 160.577 84.9565C160.254 85.4481 170.217 89.4812 170.217 89.4812" stroke="black" stroke-linecap="round" stroke-linejoin="round"/>
<path d="M139.002 104.219L143.805 99.3535L155.596 106.637C155.596 106.637 160.644 101.531 160.232 101.942C159.819 102.353 168.556 107.992 168.556 107.992" stroke="black" stroke-linecap="round" stroke-linejoin="round"/>
<path d="M136.338 116.449L142.189 112.396L151.573 120.783C151.573 120.783 157.713 116.529 157.223 116.871C156.732 117.212 163.619 123.653 163.619 123.653" stroke="black" stroke-linecap="round" stroke-linejoin="round"/>
<path d="M131.836 129.993L136.796 126.552L144.953 133.876C144.953 133.876 150.169 130.264 149.745 130.555C149.322 130.846 155.317 136.474 155.317 136.474" stroke="black" stroke-linecap="round" stroke-linejoin="round"/>
<path d="M125.918 139.153L131.156 137.317L135.792 145.042C135.792 145.042 141.286 143.116 140.841 143.267C140.395 143.417 143.727 149.296 143.727 149.296" stroke="black" stroke-linecap="round" stroke-linejoin="round"/>
<path d="M117.471 149.778L122.118 148.142L125.595 153.65C125.595 153.65 130.465 151.935 130.075 152.075C129.685 152.216 132.159 156.409 132.159 156.409" stroke="black" stroke-linecap="round" stroke-linejoin="round"/>
<path d="M110.763 157.122L115.365 155.506L117.995 159.249C117.995 159.249 122.821 157.553 122.431 157.693C122.041 157.834 123.879 160.693 123.879 160.693" stroke="black" stroke-linecap="round" stroke-linejoin="round"/>
</g>
<defs>
<clipPath id="clip0_131_434">
<rect width="172" height="172" fill="white"/>
</clipPath>
</defs>
</svg>
