<?xml version="1.0" encoding="UTF-8"?>
<svg id="_Слой_1" data-name="Слой 1" xmlns="http://www.w3.org/2000/svg" xmlns:xlink="http://www.w3.org/1999/xlink" viewBox="0 0 500 500">
  <defs>
    <style>
      .cls-1 {
        fill: #0fd7e6;
      }

      .cls-1, .cls-2, .cls-3, .cls-4, .cls-5, .cls-6, .cls-7, .cls-8, .cls-9, .cls-10, .cls-11, .cls-12, .cls-13 {
        stroke: #000;
      }

      .cls-1, .cls-2, .cls-3, .cls-4, .cls-6, .cls-7, .cls-14, .cls-8, .cls-9, .cls-10, .cls-11, .cls-12, .cls-13 {
        stroke-linecap: round;
        stroke-linejoin: round;
      }

      .cls-15 {
        fill: #024241;
      }

      .cls-15, .cls-16, .cls-17, .cls-18 {
        opacity: .51;
      }

      .cls-2 {
        fill: #ce1d2a;
      }

      .cls-19, .cls-5 {
        fill: #fff;
      }

      .cls-20 {
        fill: url(#_Безымянный_градиент_5-13);
      }

      .cls-20, .cls-21, .cls-22, .cls-23, .cls-24, .cls-25, .cls-26, .cls-5, .cls-27, .cls-28, .cls-29, .cls-30, .cls-31, .cls-32, .cls-33, .cls-34, .cls-35, .cls-36, .cls-37, .cls-38, .cls-39, .cls-40, .cls-41, .cls-42, .cls-43, .cls-44 {
        stroke-miterlimit: 10;
      }

      .cls-20, .cls-21, .cls-23, .cls-26, .cls-29, .cls-30, .cls-31, .cls-34, .cls-35, .cls-36, .cls-37, .cls-38, .cls-39, .cls-40, .cls-42, .cls-43, .cls-44 {
        stroke: #b3b3b3;
      }

      .cls-45 {
        fill: #569e86;
      }

      .cls-21 {
        fill: url(#_Безымянный_градиент_5-5);
      }

      .cls-22 {
        fill: url(#_Безымянный_градиент_11-4);
      }

      .cls-22, .cls-24, .cls-25, .cls-28, .cls-32, .cls-33, .cls-41 {
        stroke: #603813;
      }

      .cls-46 {
        fill: #c0ffea;
      }

      .cls-47 {
        opacity: .55;
      }

      .cls-47, .cls-48 {
        fill: #e9fffb;
      }

      .cls-23 {
        fill: url(#_Безымянный_градиент_5-14);
      }

      .cls-49 {
        clip-path: url(#clippath-2);
      }

      .cls-50 {
        fill: #7cffd5;
      }

      .cls-50, .cls-51 {
        opacity: .42;
      }

      .cls-3 {
        fill: #99d57b;
      }

      .cls-24 {
        fill: url(#_Безымянный_градиент_11);
      }

      .cls-25 {
        fill: url(#_Безымянный_градиент_11-7);
      }

      .cls-4 {
        fill: #2558cb;
      }

      .cls-26 {
        fill: url(#_Безымянный_градиент_5-6);
      }

      .cls-5 {
        stroke-width: .25px;
      }

      .cls-52 {
        clip-path: url(#clippath-6);
      }

      .cls-53 {
        fill: #01966c;
      }

      .cls-27 {
        stroke: #42210b;
      }

      .cls-27, .cls-54 {
        fill: none;
      }

      .cls-28 {
        fill: url(#_Безымянный_градиент_11-5);
      }

      .cls-29 {
        fill: url(#_Безымянный_градиент_5-4);
      }

      .cls-55 {
        clip-path: url(#clippath-7);
      }

      .cls-30 {
        fill: url(#_Безымянный_градиент_5-11);
      }

      .cls-56 {
        clip-path: url(#clippath-1);
      }

      .cls-57 {
        clip-path: url(#clippath-4);
      }

      .cls-31 {
        fill: url(#_Безымянный_градиент_5-3);
      }

      .cls-6 {
        fill: #ef4d59;
      }

      .cls-58 {
        opacity: .56;
      }

      .cls-58, .cls-59 {
        fill: #f7931e;
      }

      .cls-16 {
        fill: #063f37;
      }

      .cls-32 {
        fill: url(#_Безымянный_градиент_11-6);
      }

      .cls-33 {
        fill: url(#_Безымянный_градиент_11-2);
      }

      .cls-17 {
        fill: #2affb7;
      }

      .cls-7 {
        fill: #018cc3;
      }

      .cls-48 {
        opacity: .37;
      }

      .cls-34 {
        fill: url(#_Безымянный_градиент_5-12);
      }

      .cls-14 {
        stroke: #f7931e;
      }

      .cls-14, .cls-60 {
        fill: #fcee21;
      }

      .cls-61 {
        fill: #01bc87;
      }

      .cls-18 {
        fill: #00583e;
      }

      .cls-8 {
        fill: #1bb056;
      }

      .cls-35 {
        fill: url(#_Безымянный_градиент_5-16);
      }

      .cls-62 {
        clip-path: url(#clippath-9);
      }

      .cls-63 {
        clip-path: url(#clippath);
      }

      .cls-36 {
        fill: url(#_Безымянный_градиент_5-8);
      }

      .cls-37 {
        fill: url(#_Безымянный_градиент_5-10);
      }

      .cls-38 {
        fill: url(#_Безымянный_градиент_5);
      }

      .cls-64 {
        clip-path: url(#clippath-3);
      }

      .cls-39 {
        fill: url(#_Безымянный_градиент_5-9);
      }

      .cls-65 {
        clip-path: url(#clippath-8);
      }

      .cls-9 {
        fill: #dd1423;
      }

      .cls-40 {
        fill: url(#_Безымянный_градиент_5-17);
      }

      .cls-41 {
        fill: url(#_Безымянный_градиент_11-3);
      }

      .cls-66 {
        clip-path: url(#clippath-5);
      }

      .cls-10 {
        fill: #967fd7;
      }

      .cls-11 {
        fill: #734dba;
      }

      .cls-67 {
        fill: #fffefa;
      }

      .cls-42 {
        fill: url(#_Безымянный_градиент_5-15);
      }

      .cls-12 {
        fill: #4bbfac;
      }

      .cls-51 {
        fill: #45f9c4;
      }

      .cls-43 {
        fill: url(#_Безымянный_градиент_5-7);
      }

      .cls-44 {
        fill: url(#_Безымянный_градиент_5-2);
      }

      .cls-68 {
        fill: #bf60bf;
        opacity: .12;
      }

      .cls-13 {
        fill: #ed1c24;
      }
    </style>
    <radialGradient id="_Безымянный_градиент_11" data-name="Безымянный градиент 11" cx="257.96" cy="215.51" fx="257.96" fy="215.51" r="197.19" gradientUnits="userSpaceOnUse">
      <stop offset="0" stop-color="#fcee21"/>
      <stop offset=".11" stop-color="#f8e83e"/>
      <stop offset=".23" stop-color="#f5e458"/>
      <stop offset=".36" stop-color="#f3e06c"/>
      <stop offset=".51" stop-color="#f2dd7b"/>
      <stop offset=".69" stop-color="#f1dc83"/>
      <stop offset="1" stop-color="#f1dc86"/>
    </radialGradient>
    <radialGradient id="_Безымянный_градиент_11-2" data-name="Безымянный градиент 11" cx="269.5" cy="299.86" fx="269.5" fy="299.86" r="137.28" xlink:href="#_Безымянный_градиент_11"/>
    <radialGradient id="_Безымянный_градиент_11-3" data-name="Безымянный градиент 11" cx="269.82" cy="382.45" fx="269.82" fy="382.45" r="137.28" xlink:href="#_Безымянный_градиент_11"/>
    <clipPath id="clippath">
      <ellipse class="cls-54" cx="125.81" cy="337.68" rx="23.47" ry="23.54" transform="translate(-224.08 423.91) rotate(-83.41)"/>
    </clipPath>
    <clipPath id="clippath-1">
      <rect class="cls-54" x="97.27" y="309.21" width="57.09" height="56.95"/>
    </clipPath>
    <clipPath id="clippath-2">
      <circle class="cls-54" cx="226.09" cy="351.36" r="25.5"/>
    </clipPath>
    <clipPath id="clippath-3">
      <rect class="cls-54" x="195.59" y="320.85" width="61.01" height="61.01"/>
    </clipPath>
    <radialGradient id="_Безымянный_градиент_5" data-name="Безымянный градиент 5" cx="29.68" cy="357.08" fx="29.68" fy="357.08" r="28.76" gradientTransform="translate(106.24 90.18) scale(.64 .69)" gradientUnits="userSpaceOnUse">
      <stop offset="0" stop-color="#fff"/>
      <stop offset=".27" stop-color="#fbfbfa"/>
      <stop offset=".57" stop-color="#f0efed"/>
      <stop offset=".87" stop-color="#dedcd8"/>
      <stop offset="1" stop-color="#d5d2cd"/>
    </radialGradient>
    <clipPath id="clippath-4">
      <circle class="cls-54" cx="324.18" cy="350.38" r="25.5"/>
    </clipPath>
    <clipPath id="clippath-5">
      <rect class="cls-54" x="293.68" y="319.87" width="61.01" height="61"/>
    </clipPath>
    <clipPath id="clippath-6">
      <circle class="cls-54" cx="415.4" cy="337.62" r="23.54"/>
    </clipPath>
    <clipPath id="clippath-7">
      <rect class="cls-54" x="386.86" y="309.08" width="57.08" height="57.08"/>
    </clipPath>
    <radialGradient id="_Безымянный_градиент_5-2" data-name="Безымянный градиент 5" cx="188.66" cy="388.7" fx="188.66" fy="388.7" r="28.76" gradientTransform="translate(106.24 54.64) scale(.64 .77)" xlink:href="#_Безымянный_градиент_5"/>
    <radialGradient id="_Безымянный_градиент_5-3" data-name="Безымянный градиент 5" cx="341.34" cy="382.98" fx="341.34" fy="382.98" r="28.76" gradientTransform="translate(118.27 72.5) scale(.6 .73)" xlink:href="#_Безымянный_градиент_5"/>
    <radialGradient id="_Безымянный_градиент_5-4" data-name="Безымянный градиент 5" cx="485.25" cy="360.17" fx="485.25" fy="360.17" r="28.76" gradientTransform="translate(106.24 88.96) scale(.64 .69)" xlink:href="#_Безымянный_градиент_5"/>
    <radialGradient id="_Безымянный_градиент_11-4" data-name="Безымянный градиент 11" cx="-130.23" cy="3.83" fx="-130.23" fy="3.83" r="28.76" gradientTransform="translate(118.27 72.5) scale(.6 .73)" xlink:href="#_Безымянный_градиент_11"/>
    <radialGradient id="_Безымянный_градиент_11-5" data-name="Безымянный градиент 11" cx="115.35" cy="-33.82" fx="115.35" fy="-33.82" r="28.76" gradientTransform="translate(118.27 72.5) scale(.6 .73)" xlink:href="#_Безымянный_градиент_11"/>
    <radialGradient id="_Безымянный_градиент_11-6" data-name="Безымянный градиент 11" cx="372.59" cy="-33.82" fx="372.59" fy="-33.82" r="28.76" gradientTransform="translate(118.27 72.5) scale(.6 .73)" xlink:href="#_Безымянный_градиент_11"/>
    <radialGradient id="_Безымянный_градиент_11-7" data-name="Безымянный градиент 11" cx="591.22" cy="3.28" fx="591.22" fy="3.28" r="28.76" gradientTransform="translate(118.27 72.5) scale(.6 .73)" xlink:href="#_Безымянный_градиент_11"/>
    <clipPath id="clippath-8">
      <ellipse class="cls-54" cx="271.21" cy="243.95" rx="37.27" ry="53.46"/>
    </clipPath>
    <clipPath id="clippath-9">
      <rect class="cls-54" x="228.94" y="185.49" width="84.55" height="116.92"/>
    </clipPath>
    <radialGradient id="_Безымянный_градиент_5-5" data-name="Безымянный градиент 5" cx="322.38" cy="436.85" fx="322.38" fy="436.85" r="30.51" gradientTransform="translate(106.24 88.96) scale(.64 .69)" xlink:href="#_Безымянный_градиент_5"/>
    <radialGradient id="_Безымянный_градиент_5-6" data-name="Безымянный градиент 5" cx="268.61" cy="437.04" fx="268.61" fy="437.04" r="28.44" gradientTransform="translate(106.24 88.96) scale(.64 .69)" xlink:href="#_Безымянный_градиент_5"/>
    <radialGradient id="_Безымянный_градиент_5-7" data-name="Безымянный градиент 5" cx="221.99" cy="448.53" fx="221.99" fy="448.53" r="30.51" gradientTransform="translate(106.24 88.96) scale(.64 .69)" xlink:href="#_Безымянный_градиент_5"/>
    <radialGradient id="_Безымянный_градиент_5-8" data-name="Безымянный градиент 5" cx="177.2" cy="448.53" fx="177.2" fy="448.53" r="30.51" gradientTransform="translate(106.24 88.96) scale(.64 .69)" xlink:href="#_Безымянный_градиент_5"/>
    <radialGradient id="_Безымянный_градиент_5-9" data-name="Безымянный градиент 5" cx="112.25" cy="446.46" fx="112.25" fy="446.46" r="30.51" gradientTransform="translate(106.24 88.96) scale(.64 .69)" xlink:href="#_Безымянный_градиент_5"/>
    <radialGradient id="_Безымянный_градиент_5-10" data-name="Безымянный градиент 5" cx="67.46" cy="452.66" fx="67.46" fy="452.66" r="30.51" gradientTransform="translate(106.24 88.96) scale(.64 .69)" xlink:href="#_Безымянный_градиент_5"/>
    <radialGradient id="_Безымянный_градиент_5-11" data-name="Безымянный градиент 5" cx="421.31" cy="452.66" fx="421.31" fy="452.66" r="30.51" gradientTransform="translate(106.24 88.96) scale(.64 .69)" xlink:href="#_Безымянный_градиент_5"/>
    <radialGradient id="_Безымянный_градиент_5-12" data-name="Безымянный градиент 5" cx="34.79" cy="462.31" fx="34.79" fy="462.31" r="30.51" gradientTransform="translate(106.24 88.96) scale(.64 .69)" xlink:href="#_Безымянный_градиент_5"/>
    <radialGradient id="_Безымянный_градиент_5-13" data-name="Безымянный градиент 5" cx="-10.02" cy="470.76" fx="-10.02" fy="470.76" r="28.44" gradientTransform="translate(106.24 88.96) scale(.64 .69)" xlink:href="#_Безымянный_градиент_5"/>
    <radialGradient id="_Безымянный_градиент_5-14" data-name="Безымянный градиент 5" cx="-45.44" cy="492.57" fx="-45.44" fy="492.57" r="30.51" gradientTransform="translate(106.24 88.96) scale(.64 .69)" xlink:href="#_Безымянный_градиент_5"/>
    <radialGradient id="_Безымянный_градиент_5-15" data-name="Безымянный градиент 5" cx="6.07" cy="513.21" fx="6.07" fy="513.21" r="30.51" gradientTransform="translate(106.24 88.96) scale(.64 .69)" xlink:href="#_Безымянный_градиент_5"/>
    <radialGradient id="_Безымянный_градиент_5-16" data-name="Безымянный градиент 5" cx="57.57" cy="507.02" fx="57.57" fy="507.02" r="30.51" gradientTransform="translate(106.24 88.96) scale(.64 .69)" xlink:href="#_Безымянный_градиент_5"/>
    <radialGradient id="_Безымянный_градиент_5-17" data-name="Безымянный градиент 5" cx="85.59" cy="483.59" fx="85.59" fy="483.59" r="30.51" gradientTransform="translate(119.59 64.04) scale(.71 .77)" xlink:href="#_Безымянный_градиент_5"/>
  </defs>
  <g>
    <g>
      <g>
        <path class="cls-24" d="m475.4,71.3c-5.97,31.66-11.07,65.73-14.71,102.01-7,69.77-7.18,133.48-3.92,189.31-19.59,6.47-46.26,14.05-78.47,19.62-13.17,2.28-51.02,8.32-107.9,7.85-43.61-.36-108.23-4.64-187.35-23.54,5.18-45.69,7.01-113.02-14.71-189.31-12.72-44.69-30.61-104.91-27.46-98.09,26.18,56.9,64.63,90.98,91.22,84.36,22.05-5.49,36.95-38.33,45.12-57.87,10.15-24.28,12.37-46.11,12.75-59.83,1.66,14.35,6.33,38.19,21.58,62.78,10.54,17,30.29,48.85,56.89,48.06,23.05-.68,39.03-25.52,51.01-44.14,18.16-28.23,22.99-55.96,24.52-71.6,1.28,16.08,4.86,39.93,15.69,66.7,10.12,25,18.32,45.18,32.37,49.04,32.19,8.85,79.84-78.74,83.37-85.34Z"/>
        <path class="cls-33" d="m452.91,298.39c-47.36,11.82-110.38,22.7-184.85,22.56-73.14-.14-135.13-10.87-181.97-22.56-5.25,0-9.58-4.43-9.58-9.81s4.29-9.81,9.58-9.81c48.68,11.61,112.6,21.99,187.72,21.58,71.21-.39,132.06-10.36,179.1-21.58,5.25,0,9.58,4.43,9.58,9.81s-4.29,9.81-9.58,9.81Z"/>
        <path class="cls-41" d="m453.23,380.98c-47.36,11.82-110.38,22.7-184.85,22.56-73.14-.14-135.13-10.87-181.97-22.56-5.25,0-9.58-4.43-9.58-9.81s4.29-9.81,9.58-9.81c48.68,11.61,112.6,21.99,187.72,21.58,71.21-.39,132.06-10.36,179.1-21.58,5.25,0,9.58,4.43,9.58,9.81s-4.29,9.81-9.58,9.81Z"/>
      </g>
      <path class="cls-19" d="m67.19,138.51c-.77.74,10.52,18.71,32.37,29.43,7.26,3.56,20.32,9.97,33.35,7.85,34.31-5.59,48.94-67.14,50.02-66.7,1.15.47-11.46,72.28-46.1,78.47-32.85,5.87-68.27-50.36-69.64-49.04Z"/>
      <path class="cls-19" d="m196.18,110.36c4.27,9.95,12.73,24.92,29.43,37.22,9.49,6.99,21.78,16.05,39.24,15.95,17.55-.1,29.89-9.37,36.29-14.18,18.88-14.19,24.64-33,26.48-40.76-8.55,44.79-37.03,74.24-61.8,73.55-22.63-.62-42.63-26.42-51.01-37.22-10.11-13.03-15.57-25.56-18.64-34.56Z"/>
      <path class="cls-19" d="m348.21,106.63c.82,8.02,3.37,22.42,12.75,37.27,4.33,6.87,14.8,23.44,29.43,27.46,20.96,5.77,50.68-14.17,68.66-51.01-19.9,45.13-47.4,72.93-67.68,68.66-9.5-2-15.97-10.73-22.56-19.62-18.02-24.31-20.35-50.38-20.6-62.78Z"/>
      <g>
        <g class="cls-63">
          <g class="cls-56">
            <image width="120" height="119" transform="translate(96.96 309.12) scale(.48)" xlink:href="crown1.png"/>
          </g>
        </g>
        <ellipse class="cls-27" cx="125.81" cy="337.68" rx="23.47" ry="23.54" transform="translate(-224.08 423.91) rotate(-83.41)"/>
      </g>
      <g>
        <g class="cls-49">
          <g class="cls-64">
            <image width="128" height="128" transform="translate(195.36 320.64) scale(.48)" xlink:href="crown2.png"/>
          </g>
        </g>
        <circle class="cls-27" cx="226.09" cy="351.36" r="25.5"/>
      </g>
      <g>
        <ellipse class="cls-38" cx="125.19" cy="336.41" rx="19.98" ry="17.91"/>
        <ellipse class="cls-67" cx="116.86" cy="331.77" rx="5" ry="3.98"/>
        <ellipse class="cls-67" cx="134.51" cy="328.45" rx="2.33" ry="2.32"/>
        <path class="cls-67" d="m131.52,350.01c-5.54.74-11.81.49-15.99-3.32-4.22-3.86-5-10.18-5.99-9.95-.67.16-.97,3.21,0,5.97,1.91,5.42,8.16,8.04,12.66,8.62,3.89.5,7.18-.44,9.33-1.33Z"/>
        <path class="cls-68" d="m141.51,332.1c-.08.03.49,1.5.67,2.65.42,2.72-.85,6.92-8.66,13.27,4.02-1.52,9.32-4.29,9.99-8.62.53-3.4-1.86-7.34-2-7.3Z"/>
      </g>
      <g>
        <g class="cls-57">
          <g class="cls-66">
            <image width="128" height="128" transform="translate(293.28 319.68) scale(.48)" xlink:href="crown3.png"/>
          </g>
        </g>
        <circle class="cls-27" cx="324.18" cy="350.38" r="25.5"/>
      </g>
      <g>
        <g class="cls-52">
          <g class="cls-55">
            <image width="120" height="120" transform="translate(386.4 308.64) scale(.48)" xlink:href="crown4.png"/>
          </g>
        </g>
        <circle class="cls-27" cx="415.4" cy="337.62" r="23.54"/>
      </g>
      <g>
        <ellipse class="cls-44" cx="226.67" cy="352.11" rx="19.98" ry="19.88"/>
        <ellipse class="cls-67" cx="218.34" cy="346.96" rx="5" ry="4.42"/>
        <ellipse class="cls-67" cx="235.99" cy="343.27" rx="2.33" ry="2.58"/>
        <path class="cls-67" d="m232.99,367.2c-5.54.82-11.81.55-15.99-3.68-4.22-4.28-5-11.3-5.99-11.04-.67.17-.97,3.57,0,6.63,1.91,6.01,8.16,8.93,12.66,9.57,3.89.56,7.18-.48,9.33-1.47Z"/>
        <path class="cls-68" d="m242.98,347.32c-.08.03.49,1.67.67,2.95.42,3.02-.85,7.68-8.66,14.73,4.02-1.69,9.32-4.76,9.99-9.57.53-3.78-1.86-8.15-2-8.1Z"/>
      </g>
      <g>
        <ellipse class="cls-31" cx="323.91" cy="351.13" rx="18.86" ry="18.9"/>
        <ellipse class="cls-67" cx="316.06" cy="346.23" rx="4.72" ry="4.2"/>
        <ellipse class="cls-67" cx="332.72" cy="342.73" rx="2.2" ry="2.45"/>
        <path class="cls-67" d="m329.89,365.48c-5.23.78-11.15.52-15.09-3.5-3.98-4.07-4.72-10.74-5.66-10.5-.63.17-.92,3.39,0,6.3,1.8,5.72,7.7,8.49,11.94,9.1,3.67.53,6.78-.46,8.8-1.4Z"/>
        <path class="cls-68" d="m339.32,346.58c-.08.03.46,1.58.63,2.8.39,2.87-.8,7.3-8.17,14,3.8-1.6,8.8-4.53,9.43-9.1.5-3.59-1.76-7.75-1.89-7.7Z"/>
      </g>
      <g>
        <ellipse class="cls-29" cx="415.98" cy="338.31" rx="19.98" ry="17.98"/>
        <ellipse class="cls-67" cx="407.65" cy="333.65" rx="5" ry="4"/>
        <circle class="cls-67" cx="425.3" cy="330.32" r="2.33"/>
        <path class="cls-67" d="m422.3,351.97c-5.54.74-11.81.5-15.99-3.33-4.22-3.87-5-10.22-5.99-9.99-.67.16-.97,3.23,0,5.99,1.91,5.44,8.16,8.08,12.66,8.66,3.89.5,7.18-.44,9.33-1.33Z"/>
        <path class="cls-68" d="m432.29,333.98c-.08.03.49,1.51.67,2.66.42,2.73-.85,6.95-8.66,13.32,4.02-1.53,9.32-4.31,9.99-8.66.53-3.42-1.86-7.37-2-7.33Z"/>
      </g>
    </g>
    <g>
      <ellipse class="cls-22" cx="39.81" cy="75.29" rx="18.86" ry="18.9"/>
      <ellipse class="cls-67" cx="31.96" cy="70.39" rx="4.72" ry="4.2"/>
      <ellipse class="cls-67" cx="48.62" cy="66.89" rx="2.2" ry="2.45"/>
      <path class="cls-67" d="m45.79,89.64c-5.23.78-11.15.52-15.09-3.5-3.98-4.07-4.72-10.74-5.66-10.5-.63.17-.92,3.39,0,6.3,1.8,5.72,7.7,8.49,11.94,9.1,3.67.53,6.78-.46,8.8-1.4Z"/>
      <path class="cls-68" d="m55.22,70.74c-.08.03.46,1.58.63,2.8.39,2.87-.8,7.3-8.17,14,3.8-1.6,8.8-4.53,9.43-9.1.5-3.59-1.76-7.75-1.89-7.7Z"/>
    </g>
    <g>
      <ellipse class="cls-28" cx="187.76" cy="47.9" rx="18.86" ry="18.9"/>
      <ellipse class="cls-67" cx="179.9" cy="43" rx="4.72" ry="4.2"/>
      <ellipse class="cls-67" cx="196.56" cy="39.5" rx="2.2" ry="2.45"/>
      <path class="cls-67" d="m193.73,62.25c-5.23.78-11.15.52-15.09-3.5-3.98-4.07-4.72-10.74-5.66-10.5-.63.17-.92,3.39,0,6.3,1.8,5.72,7.7,8.49,11.94,9.1,3.67.53,6.78-.46,8.8-1.4Z"/>
      <path class="cls-68" d="m203.16,43.35c-.08.03.46,1.58.63,2.8.39,2.87-.8,7.3-8.17,14,3.8-1.6,8.8-4.53,9.43-9.1.5-3.59-1.76-7.75-1.89-7.7Z"/>
    </g>
    <g>
      <ellipse class="cls-32" cx="342.74" cy="47.9" rx="18.86" ry="18.9"/>
      <ellipse class="cls-67" cx="334.88" cy="43" rx="4.72" ry="4.2"/>
      <ellipse class="cls-67" cx="351.54" cy="39.5" rx="2.2" ry="2.45"/>
      <path class="cls-67" d="m348.71,62.25c-5.23.78-11.15.52-15.09-3.5-3.98-4.07-4.72-10.74-5.66-10.5-.63.17-.92,3.39,0,6.3,1.8,5.72,7.7,8.49,11.94,9.1,3.67.53,6.78-.46,8.8-1.4Z"/>
      <path class="cls-68" d="m358.14,43.35c-.08.03.46,1.58.63,2.8.39,2.87-.8,7.3-8.17,14,3.8-1.6,8.8-4.53,9.43-9.1.5-3.59-1.76-7.75-1.89-7.7Z"/>
    </g>
    <g>
      <ellipse class="cls-25" cx="474.46" cy="74.89" rx="18.86" ry="18.9"/>
      <ellipse class="cls-67" cx="466.6" cy="69.99" rx="4.72" ry="4.2"/>
      <ellipse class="cls-67" cx="483.26" cy="66.49" rx="2.2" ry="2.45"/>
      <path class="cls-67" d="m480.43,89.24c-5.23.78-11.15.52-15.09-3.5-3.98-4.07-4.72-10.74-5.66-10.5-.63.17-.92,3.39,0,6.3,1.8,5.72,7.7,8.49,11.94,9.1,3.67.53,6.78-.46,8.8-1.4Z"/>
      <path class="cls-68" d="m489.86,70.34c-.08.03.46,1.58.63,2.8.39,2.87-.8,7.3-8.17,14,3.8-1.6,8.8-4.53,9.43-9.1.5-3.59-1.76-7.75-1.89-7.7Z"/>
    </g>
    <g>
      <g class="cls-65">
        <g class="cls-62">
          <image width="178" height="245" transform="translate(228.48 185.28) scale(.48)" xlink:href="crown5.png"/>
        </g>
      </g>
      <ellipse class="cls-27" cx="271.21" cy="243.95" rx="37.27" ry="53.46"/>
    </g>
    <g>
      <ellipse class="cls-45" cx="271.21" cy="244.93" rx="29.92" ry="46.1"/>
      <g>
        <polygon class="cls-18" points="273.51 202.12 255.68 242.96 270.68 242.96 273.51 202.12"/>
        <polygon class="cls-61" points="273.51 200.41 260.7 244.4 246.82 241.38 273.51 200.41"/>
        <polygon class="cls-53" points="273.51 199.62 246.62 244.93 253.26 213.8 273.51 199.62"/>
        <polygon class="cls-16" points="273.51 199.62 268.91 203.56 251.42 220.9 254.18 212.23 262.47 200.95 273.51 199.62"/>
        <path class="cls-17" d="m253.09,206.83l-9.04,37.71,21.36-40.19s-12.21,2.62-12.32,2.48Z"/>
        <path class="cls-15" d="m245.9,239.81c0-.79,7.25-30.73,7.25-30.73l-9.07,17.93,1.82,12.81Z"/>
        <polygon class="cls-15" points="245 242.57 254.77 245.33 264.18 223.26 259.3 214.99 245 242.57"/>
        <polygon class="cls-15" points="273.48 227.2 259.52 215.38 247.31 221.29 254.99 227.2 273.48 227.2"/>
      </g>
      <g>
        <polygon class="cls-18" points="271.59 285.85 285.59 243.93 270.63 244.95 271.59 285.85"/>
        <polygon class="cls-61" points="271.75 287.56 280.45 242.83 294.56 244.89 271.75 287.56"/>
        <polygon class="cls-53" points="271.82 288.34 294.43 241.35 290.7 272.83 271.82 288.34"/>
        <polygon class="cls-16" points="271.82 288.34 276.05 284.1 291.87 265.63 289.92 274.46 282.71 286.27 271.82 288.34"/>
        <path class="cls-17" d="m291.51,279.77l5.51-38.21-17.56,41.52s11.93-3.44,12.05-3.31Z"/>
        <path class="cls-15" d="m295.62,246.4c.07.79-4.37,31.13-4.37,31.13l7.38-18.49-3-12.64Z"/>
        <polygon class="cls-15" points="296.27 243.59 286.28 241.51 278.93 264.14 284.57 272.06 296.27 243.59"/>
        <polygon class="cls-15" points="269.3 260.85 284.31 271.68 295.93 264.96 287.73 259.59 269.3 260.85"/>
      </g>
      <g>
        <polygon class="cls-18" points="266.9 202.12 284.74 242.96 269.74 242.96 266.9 202.12"/>
        <polygon class="cls-61" points="266.9 200.41 279.72 244.4 293.59 241.38 266.9 200.41"/>
        <polygon class="cls-53" points="266.9 199.62 293.8 244.93 287.15 213.8 266.9 199.62"/>
        <polygon class="cls-16" points="266.9 199.62 271.5 203.56 288.99 220.9 286.23 212.23 277.94 200.95 266.9 199.62"/>
        <path class="cls-17" d="m287.32,206.83l9.04,37.71-21.36-40.19s12.21,2.62,12.32,2.48Z"/>
        <path class="cls-15" d="m294.51,239.81c0-.79-7.25-30.73-7.25-30.73l9.07,17.93-1.82,12.81Z"/>
        <polygon class="cls-15" points="295.41 242.57 285.65 245.33 276.23 223.26 281.11 214.99 295.41 242.57"/>
        <polygon class="cls-15" points="266.94 227.2 280.89 215.38 293.1 221.29 285.42 227.2 266.94 227.2"/>
      </g>
      <g>
        <polygon class="cls-18" points="273.34 285.38 255.5 244.54 270.5 244.54 273.34 285.38"/>
        <polygon class="cls-61" points="273.34 287.09 260.52 243.1 246.65 246.11 273.34 287.09"/>
        <polygon class="cls-53" points="273.34 287.88 246.44 242.57 253.09 273.7 273.34 287.88"/>
        <polygon class="cls-16" points="273.34 287.88 268.74 283.94 251.25 266.6 254.01 275.27 262.29 286.55 273.34 287.88"/>
        <path class="cls-17" d="m252.92,280.67l-9.04-37.71,21.36,40.19s-12.21-2.62-12.32-2.48Z"/>
        <path class="cls-15" d="m245.72,247.69c0,.79,7.25,30.73,7.25,30.73l-9.07-17.93,1.82-12.81Z"/>
        <polygon class="cls-15" points="244.82 244.93 254.59 242.17 264.01 264.24 259.13 272.51 244.82 244.93"/>
        <polygon class="cls-15" points="273.3 260.3 259.35 272.12 247.14 266.21 254.81 260.3 273.3 260.3"/>
      </g>
      <g>
        <polygon class="cls-50" points="263.85 218.14 278.03 218.14 287.78 228.38 289.62 244.14 286.86 259.12 276.74 269.08 263.85 269.08 254.64 259.9 250.96 244.93 254.64 228.38 263.85 218.14"/>
        <polygon class="cls-51" points="266.15 227.99 274.44 227.99 280.88 237.44 280.88 251.06 270.75 263.45 261.55 253.21 258.79 239.02 260.63 233.5 266.15 227.99"/>
      </g>
      <path class="cls-46" d="m280.88,214.59c-1.23,3.94-2.45,7.88-3.68,11.82-5.42.26-10.83.53-16.25.79,5.42.79,10.83,1.58,16.25,2.36l.92,15.76,2.76-15.37c9.65.65,14.53.68,14.63.1,0-.03,0-.07-.03-.1-4.25-.92-8.51-1.84-12.76-2.76-.61-4.2-1.23-8.41-1.84-12.61Z"/>
    </g>
  </g>
  <g>
    <g>
      <path class="cls-60" d="m67.9,420.19c-24.53,0-44.53-12.75-48.64-31-1.94-8.6-.14-17.41,5.22-25.48,7.71-11.6,21.54-19.92,37.94-22.83,4.04-.72,8.15-1.08,12.2-1.08,24.53,0,44.53,12.75,48.65,31,1.94,8.6.14,17.41-5.22,25.48-7.71,11.6-21.54,19.92-37.94,22.83-4.04.72-8.15,1.08-12.2,1.08h0Zm7.7-64.33c-3.27,0-6.58.29-9.86.87-12.67,2.25-23.61,8.65-29.25,17.12-3.54,5.33-4.75,11.07-3.51,16.6,2.76,12.25,17.13,20.8,34.95,20.8,3.27,0,6.58-.29,9.86-.88,12.67-2.25,23.61-8.65,29.25-17.12,3.54-5.33,4.75-11.07,3.51-16.6-2.76-12.25-17.13-20.8-34.95-20.8Z"/>
      <path class="cls-59" d="m74.61,340.3c11.59,0,22.77,3.02,31.49,8.51,8.91,5.61,14.67,13.25,16.67,22.1,1.91,8.47.13,17.14-5.15,25.09-7.64,11.49-21.34,19.73-37.61,22.61-4.01.71-8.09,1.07-12.11,1.07-11.59,0-22.77-3.02-31.49-8.51-8.91-5.61-14.67-13.25-16.67-22.1-1.91-8.47-.13-17.14,5.15-25.09,7.64-11.49,21.34-19.73,37.61-22.61,4.01-.71,8.09-1.07,12.11-1.07m-6.68,71.45c3.3,0,6.64-.3,9.95-.88,12.81-2.27,23.86-8.75,29.58-17.34,3.62-5.44,4.86-11.32,3.58-16.99-2.81-12.48-17.39-21.19-35.44-21.19-3.3,0-6.64.3-9.95.88-12.81,2.27-23.86,8.75-29.58,17.34-3.62,5.44-4.86,11.32-3.58,16.99,2.81,12.48,17.39,21.19,35.44,21.19m6.68-72.45c-4.02,0-8.14.35-12.29,1.09-28.99,5.14-48.5,27.04-43.56,48.91,4.23,18.75,25.02,31.39,49.13,31.39,4.02,0,8.14-.35,12.29-1.09,28.99-5.14,48.5-27.04,43.56-48.91-4.23-18.75-25.02-31.39-49.13-31.39h0Zm-6.68,71.45c-17.17,0-31.7-8.15-34.46-20.41-3.28-14.55,11.2-29.38,32.35-33.13,3.31-.59,6.59-.87,9.77-.87,17.17,0,31.7,8.15,34.46,20.41,3.28,14.55-11.2,29.38-32.35,33.13-3.31.59-6.59.87-9.77.87h0Z"/>
    </g>
    <polygon class="cls-7" points="63.73 350.66 63.65 350.82 36.08 327.17 58.02 324.42 63.73 350.66"/>
    <polygon class="cls-12" points="95.68 315.78 63.8 350.95 63.73 350.66 79.08 320.82 95.68 315.78"/>
    <polygon class="cls-3" points="63.65 350.82 63.63 350.85 53 344.62 22.55 326.77 35.6 327.23 36.08 327.17 63.65 350.82"/>
    <polygon class="cls-10" points="79.34 320.87 63.64 350.67 58.02 324.42 58.32 324.38 79.12 320.94 79.34 320.87"/>
    <path class="cls-8" d="m42.27,318.22c-2.12,3.03-4.42,6.32-6.27,8.96l-13.44-.4,8.19-6.88,11.53-1.69Z"/>
    <path class="cls-1" d="m57.15,316.04l1.31,8.3-1.46.24-15.81,1.96-4.88.6h-.08c1.73-2.62,3.87-5.89,5.84-8.9l15.07-2.2Z"/>
    <path class="cls-11" d="m95.66,315.67l-15.61,5.15-.48.08c-2.41-2.12-5.47-4.79-7.98-6.97l9.27-1.35,14.8,3.1Z"/>
    <path class="cls-4" d="m79.52,320.86l-22.05,3.62-1.31-8.3,15.25-2.23c2.54,2.17,5.66,4.81,8.1,6.91Z"/>
    <path class="cls-47" d="m75.62,314.88l5.18-.76s11.6,1.68,11.11,1.75-16.29-1-16.29-1Z"/>
    <polygon class="cls-48" points="91.48 317.93 85.95 321.2 69.23 342.99 91.48 317.93"/>
    <polygon class="cls-47" points="67.02 324.58 74.97 323.42 66.43 341.25 67.02 324.58"/>
    <polygon class="cls-47" points="65.95 322.28 76.54 320.73 70.21 314.94 65.36 315.65 65.95 322.28"/>
    <path class="cls-47" d="m38.74,319.19l-6.76.94s-8.07,6.51-7.62,6.35,14.37-7.29,14.37-7.29Z"/>
    <polygon class="cls-48" points="26.16 328.03 30.62 328.37 55.15 345.6 26.16 328.03"/>
    <polygon class="cls-47" points="47.36 327.05 38.59 327.81 55.22 342.27 47.36 327.05"/>
    <polygon class="cls-47" points="49.32 324.64 38.72 326.19 42.98 318.85 47.83 318.14 49.32 324.64"/>
    <path class="cls-14" d="m76.42,350.02c-.74-.51-8.27-5.82-7.51-12.49.82-7.22,11.14-14.19,24.42-12.49-8.15,5.01-11.35,11.15-9.39,14.16.26.4,1.58,2.23,6.57,2.5"/>
    <path class="cls-14" d="m54.13,354.04c.51-.7,5.62-7.93,2.4-14-3.48-6.57-15.83-10.1-27.71-4.58,9.56,2.32,14.88,7.17,14.17,10.58-.1.46-.65,2.56-5.26,4.29"/>
    <path class="cls-58" d="m41.2,352.93c.75,1.78,7.27,2.58,11.27,0,4.32-2.79,3.88-8.39,3.76-9.99-.12-1.57-.59-3.34-.94-3.33-.31,0-.35,1.39-.94,3.33-.28.93-.88,2.9-1.88,4.16-2.98,3.77-10.41,2.22-11.27,5-.05.16-.15.49,0,.83Z"/>
    <path class="cls-58" d="m88.8,344.84c.02,1.9-5.72,4.75-10.5,3.62-5.17-1.21-7.05-6.57-7.59-8.1-.53-1.5-.82-3.3-.49-3.41.29-.09.9,1.19,2.24,2.8.64.77,2.01,2.42,3.45,3.28,4.32,2.55,10.6-1.28,12.55,1.03.11.14.34.41.34.78Z"/>
    <path class="cls-58" d="m64.68,416.22c.03.18,4.15.22,10.33-.83,5.46-.93,19.64-3.34,30.99-12.49,10.47-8.44,13.5-18.57,14.09-18.32.54.23-1.37,9.32-8.45,16.65-15.55,16.1-47.04,14.48-46.96,14.99Z"/>
    <path class="cls-19" d="m34.63,356.26c-.86-.38-4.75,4.23-7.51,9.16-2.47,4.41-8.54,15.24-3.76,26.65.94,2.24,2.78,5.65,6.57,9.16-1.27-3.52-2.7-8.7-2.82-14.99-.31-16.72,8.9-29.36,7.51-29.98Z"/>
    <path class="cls-19" d="m103.19,349.6c-.04.05,2.13,1.19,4.7,3.33,11.07,9.22,12.28,22.65,13.15,22.48.6-.11,1.2-6.69-2.82-13.32-5.07-8.35-14.94-12.6-15.03-12.49Z"/>
    <path class="cls-19" d="m81.58,337.94c-.26-.04-.48-2.98.94-5.83,2-4.03,6.36-6.03,6.57-5.83.2.19-3.33,2.24-5.63,6.66-1.45,2.79-1.65,5.03-1.88,5Z"/>
    <path class="cls-19" d="m31.81,335.44c.04-.22,1.71-.3,3.76,0,4.34.64,11.21,3.09,11.27,6.66.01.62-.17,1.82-1.88,3.33-.08-1.23-.41-3.21-1.88-5-3.56-4.33-11.36-4.51-11.27-5Z"/>
    <path class="cls-59" d="m79.71,353.76c-.03-.38-5.47-.6-11.27,0-5.15.53-12.7,1.39-20.66,5.83-8.69,4.85-13.38,11.46-13.15,11.66.21.17,4.22-4.9,11.27-9.16,15.47-9.33,33.87-7.64,33.81-8.33Z"/>
    <path class="cls-5" d="m77.84,318.59c.06.08,3.94-13.64,3.94-13.64l-.7,13.68,20.91,2.05-20.83-.35-7.01,13.96,3.55-13.81-16.88-3.19,17.01,1.3Z"/>
  </g>
  <g>
    <polygon class="cls-7" points="370.98 394.76 370.59 394.86 401.01 323.89 421.38 350.73 370.98 394.76"/>
    <polygon class="cls-12" points="464.42 391.41 370.43 395.25 370.99 394.76 442.91 375.17 464.42 391.41"/>
    <polygon class="cls-3" points="370.59 394.86 370.51 394.87 376.28 371.47 392.78 304.47 400.57 323.31 401.01 323.89 370.59 394.86"/>
    <polygon class="cls-10" points="442.99 375.59 370.89 394.65 421.38 350.73 421.66 351.09 442.69 375.38 442.99 375.59"/>
    <path class="cls-8" d="m423.64,320.23c-7.68,1.21-16.02,2.52-22.71,3.56l-8.18-19.3,19.69,1.97,11.2,13.77Z"/>
    <path class="cls-1" d="m438.1,338.01l-16.26,13.23-1.47-1.7-14.63-19.36-4.51-5.98-.05-.11c6.57-1.19,14.75-2.69,22.29-4.08l14.64,18Z"/>
    <path class="cls-11" d="m464.64,391.23l-21.09-14.7-.49-.56c2.76-6.26,6.23-14.21,9.07-20.71l9,11.07,3.51,24.91Z"/>
    <path class="cls-4" d="m443.12,375.84l-22.24-25.78,16.26-13.23,14.82,18.22c-2.77,6.53-6.15,14.51-8.84,20.8Z"/>
    <path class="cls-47" d="m452.87,362.18l5.03,6.19s4.29,18.5,3.81,17.91-8.84-24.1-8.84-24.1Z"/>
    <polygon class="cls-48" points="457.17 388.5 446.72 385.27 390.5 391.89 457.17 388.5"/>
    <polygon class="cls-47" points="427.07 363.51 434.79 373 392.22 385.59 427.07 363.51"/>
    <polygon class="cls-47" points="431.11 358.85 441.4 371.5 449.12 354.72 444.4 348.92 431.11 358.85"/>
    <path class="cls-47" d="m419.27,316.66l-6.47-8.13s-18.85-2.32-18.21-1.91,24.68,10.03,24.68,10.03Z"/>
    <polygon class="cls-48" points="392.59 311.24 394.87 317.92 375.69 375.82 392.59 311.24"/>
    <polygon class="cls-47" points="408.8 339.48 401.36 328.29 382.61 371.35 408.8 339.48"/>
    <polygon class="cls-47" points="415.09 338.89 404.8 326.24 422.81 322.1 427.52 327.9 415.09 338.89"/>
    <path class="cls-5" d="m440.44,374.69c.11.17,2.5-35.07,2.5-35.07l2.38,34.08,31.95-2.03-31.4,6.21-7.04,36.91,1.87-35.37-26.17-2.16,25.9-2.57Z"/>
  </g>
  <g>
    <polygon class="cls-9" points="336.31 407.84 335.96 408.11 335.66 322.11 368.35 340.54 336.31 407.84"/>
    <polygon class="cls-6" points="430.34 363.08 335.96 408.58 336.32 407.83 401.17 356 430.34 363.08"/>
    <polygon class="cls-13" points="335.96 408.11 335.89 408.16 331.43 381.69 318.66 305.9 334.96 321.72 335.66 322.11 335.96 408.11"/>
    <polygon class="cls-2" points="401.44 356.39 336.17 407.76 368.35 340.54 368.8 340.78 401.04 356.3 401.44 356.39"/>
    <path class="cls-13" d="m357.18,308.36c-7.32,4.64-15.26,9.67-21.64,13.69l-16.9-16.11,21-6.69,17.54,9.12Z"/>
    <path class="cls-9" d="m379.82,320.14l-10.77,20.72-2.26-1.09-23.52-13.32-7.26-4.11-.1-.1c6.19-4.12,13.89-9.28,20.98-14.03l22.93,11.92Z"/>
    <path class="cls-6" d="m430.49,362.8l-28.06-5.7-.75-.36c.05-7.62.08-17.28.11-25.18l14.1,7.33,14.6,23.91Z"/>
    <path class="cls-2" d="m401.69,356.59l-34.14-16.52,10.77-20.72,23.2,12.07c.05,7.9.13,17.55.16,25.17Z"/>
    <path class="cls-47" d="m405.61,338.31l7.88,4.1s12.57,17.01,11.82,16.62-19.7-20.72-19.7-20.72Z"/>
    <polygon class="cls-48" points="421.65 363.31 409.54 364.63 354.99 396.27 421.65 363.31"/>
    <polygon class="cls-47" points="379.83 351.09 391.91 357.37 353.97 389.07 379.83 351.09"/>
    <polygon class="cls-47" points="381.9 344.53 398.01 352.91 398.47 332.34 391.09 328.5 381.9 344.53"/>
    <path class="cls-47" d="m351.13,306.64l-10.21-5.44s-20.29,5.96-19.46,6.11,29.67-.66,29.67-.66Z"/>
    <polygon class="cls-48" points="321.46 312.9 326.75 318.73 332.76 386.4 321.46 312.9"/>
    <polygon class="cls-47" points="350.51 334.6 337.96 326.46 337.85 378.76 350.51 334.6"/>
    <polygon class="cls-47" points="356.69 331.21 340.58 322.83 357.15 310.64 364.54 314.48 356.69 331.21"/>
    <path class="cls-5" d="m399.09,353.84c.12.2,3.46-39.01,3.46-39.01l1.99,37.99,35.62-1.65-35.08,6.31-8.55,40.97,2.77-39.35-29.1-2.91,28.89-2.36Z"/>
  </g>
  <g>
    <ellipse class="cls-21" cx="312.02" cy="391.4" rx="21.2" ry="19.08"/>
    <ellipse class="cls-67" cx="303.19" cy="386.45" rx="5.3" ry="4.24"/>
    <circle class="cls-67" cx="321.91" cy="382.92" r="2.47"/>
    <path class="cls-67" d="m318.73,405.88c-5.88.78-12.53.53-16.96-3.53-4.48-4.11-5.31-10.84-6.36-10.6-.71.17-1.03,3.42,0,6.36,2.03,5.77,8.66,8.57,13.42,9.18,4.12.53,7.61-.46,9.89-1.41Z"/>
    <path class="cls-68" d="m329.33,386.81c-.08.03.52,1.6.71,2.83.44,2.9-.9,7.37-9.18,14.13,4.27-1.62,9.88-4.57,10.6-9.18.56-3.62-1.98-7.82-2.12-7.77Z"/>
  </g>
  <g>
    <ellipse class="cls-26" cx="277.7" cy="391.53" rx="19.76" ry="17.78"/>
    <ellipse class="cls-67" cx="269.47" cy="386.92" rx="4.94" ry="3.95"/>
    <circle class="cls-67" cx="286.92" cy="383.63" r="2.3"/>
    <path class="cls-67" d="m283.95,405.03c-5.48.73-11.68.49-15.8-3.29-4.17-3.83-4.95-10.11-5.93-9.88-.66.16-.96,3.19,0,5.93,1.89,5.38,8.07,7.98,12.51,8.56,3.84.5,7.1-.43,9.22-1.32Z"/>
    <path class="cls-68" d="m293.83,387.25c-.08.03.48,1.49.66,2.63.41,2.7-.84,6.87-8.56,13.17,3.98-1.51,9.21-4.26,9.88-8.56.52-3.38-1.84-7.29-1.98-7.24Z"/>
  </g>
  <g>
    <ellipse class="cls-43" cx="247.94" cy="399.48" rx="21.2" ry="19.08"/>
    <ellipse class="cls-67" cx="239.11" cy="394.54" rx="5.3" ry="4.24"/>
    <circle class="cls-67" cx="257.83" cy="391" r="2.47"/>
    <path class="cls-67" d="m254.65,413.97c-5.88.78-12.53.53-16.96-3.53-4.48-4.11-5.31-10.84-6.36-10.6-.71.17-1.03,3.42,0,6.36,2.03,5.77,8.66,8.57,13.42,9.18,4.12.53,7.61-.46,9.89-1.41Z"/>
    <path class="cls-68" d="m265.25,394.89c-.08.03.52,1.6.71,2.83.44,2.9-.9,7.37-9.18,14.13,4.27-1.62,9.88-4.57,10.6-9.18.56-3.62-1.98-7.82-2.12-7.77Z"/>
  </g>
  <g>
    <ellipse class="cls-36" cx="219.35" cy="399.48" rx="21.2" ry="19.08"/>
    <ellipse class="cls-67" cx="210.52" cy="394.54" rx="5.3" ry="4.24"/>
    <circle class="cls-67" cx="229.24" cy="391" r="2.47"/>
    <path class="cls-67" d="m226.06,413.97c-5.88.78-12.53.53-16.96-3.53-4.48-4.11-5.31-10.84-6.36-10.6-.71.17-1.03,3.42,0,6.36,2.03,5.77,8.66,8.57,13.42,9.18,4.12.53,7.61-.46,9.89-1.41Z"/>
    <path class="cls-68" d="m236.66,394.89c-.08.03.52,1.6.71,2.83.44,2.9-.9,7.37-9.18,14.13,4.27-1.62,9.88-4.57,10.6-9.18.56-3.62-1.98-7.82-2.12-7.77Z"/>
  </g>
  <g>
    <ellipse class="cls-39" cx="177.89" cy="398.05" rx="21.2" ry="19.08"/>
    <ellipse class="cls-67" cx="169.06" cy="393.11" rx="5.3" ry="4.24"/>
    <circle class="cls-67" cx="187.78" cy="389.57" r="2.47"/>
    <path class="cls-67" d="m184.6,412.54c-5.88.78-12.53.53-16.96-3.53-4.48-4.11-5.31-10.84-6.36-10.6-.71.17-1.03,3.42,0,6.36,2.03,5.77,8.66,8.57,13.42,9.18,4.12.53,7.61-.46,9.89-1.41Z"/>
    <path class="cls-68" d="m195.2,393.46c-.08.03.52,1.6.71,2.83.44,2.9-.9,7.37-9.18,14.13,4.27-1.62,9.88-4.57,10.6-9.18.56-3.62-1.98-7.82-2.12-7.77Z"/>
  </g>
  <g>
    <ellipse class="cls-37" cx="149.3" cy="402.34" rx="21.2" ry="19.08"/>
    <ellipse class="cls-67" cx="140.47" cy="397.4" rx="5.3" ry="4.24"/>
    <circle class="cls-67" cx="159.19" cy="393.86" r="2.47"/>
    <path class="cls-67" d="m156.01,416.82c-5.88.78-12.53.53-16.96-3.53-4.48-4.11-5.31-10.84-6.36-10.6-.71.17-1.03,3.42,0,6.36,2.03,5.77,8.66,8.57,13.42,9.18,4.12.53,7.61-.46,9.89-1.41Z"/>
    <path class="cls-68" d="m166.61,397.75c-.08.03.52,1.6.71,2.83.44,2.9-.9,7.37-9.18,14.13,4.27-1.62,9.88-4.57,10.6-9.18.56-3.62-1.98-7.82-2.12-7.77Z"/>
  </g>
  <g>
    <ellipse class="cls-30" cx="375.16" cy="402.34" rx="21.2" ry="19.08"/>
    <ellipse class="cls-67" cx="366.33" cy="397.4" rx="5.3" ry="4.24"/>
    <circle class="cls-67" cx="385.05" cy="393.86" r="2.47"/>
    <path class="cls-67" d="m381.87,416.82c-5.88.78-12.53.53-16.96-3.53-4.48-4.11-5.31-10.84-6.36-10.6-.71.17-1.03,3.42,0,6.36,2.03,5.77,8.66,8.57,13.42,9.18,4.12.53,7.61-.46,9.89-1.41Z"/>
    <path class="cls-68" d="m392.47,397.75c-.08.03.52,1.6.71,2.83.44,2.9-.9,7.37-9.18,14.13,4.27-1.62,9.88-4.57,10.6-9.18.56-3.62-1.98-7.82-2.12-7.77Z"/>
  </g>
  <g>
    <ellipse class="cls-34" cx="128.45" cy="409.02" rx="21.2" ry="19.08"/>
    <ellipse class="cls-67" cx="119.62" cy="404.07" rx="5.3" ry="4.24"/>
    <circle class="cls-67" cx="138.34" cy="400.54" r="2.47"/>
    <path class="cls-67" d="m135.16,423.5c-5.88.78-12.53.53-16.96-3.53-4.48-4.11-5.31-10.84-6.36-10.6-.71.17-1.03,3.42,0,6.36,2.03,5.77,8.66,8.57,13.42,9.18,4.12.53,7.61-.46,9.89-1.41Z"/>
    <path class="cls-68" d="m145.76,404.43c-.08.03.52,1.6.71,2.83.44,2.9-.9,7.37-9.18,14.13,4.27-1.62,9.88-4.57,10.6-9.18.56-3.62-1.98-7.82-2.12-7.77Z"/>
  </g>
  <g>
    <ellipse class="cls-20" cx="99.85" cy="414.87" rx="19.76" ry="17.78"/>
    <ellipse class="cls-67" cx="91.62" cy="410.26" rx="4.94" ry="3.95"/>
    <circle class="cls-67" cx="109.07" cy="406.97" r="2.3"/>
    <path class="cls-67" d="m106.11,428.37c-5.48.73-11.68.49-15.8-3.29-4.17-3.83-4.95-10.11-5.93-9.88-.66.16-.96,3.19,0,5.93,1.89,5.38,8.07,7.98,12.51,8.56,3.84.5,7.1-.43,9.22-1.32Z"/>
    <path class="cls-68" d="m115.98,410.59c-.08.03.48,1.49.66,2.63.41,2.7-.84,6.87-8.56,13.17,3.98-1.51,9.21-4.26,9.88-8.56.52-3.38-1.84-7.29-1.98-7.24Z"/>
  </g>
  <g>
    <ellipse class="cls-23" cx="77.24" cy="429.97" rx="21.2" ry="19.08"/>
    <ellipse class="cls-67" cx="68.4" cy="425.02" rx="5.3" ry="4.24"/>
    <circle class="cls-67" cx="87.13" cy="421.49" r="2.47"/>
    <path class="cls-67" d="m83.95,444.45c-5.88.78-12.53.53-16.96-3.53-4.48-4.11-5.31-10.84-6.36-10.6-.71.17-1.03,3.42,0,6.36,2.03,5.77,8.66,8.57,13.42,9.18,4.12.53,7.61-.46,9.89-1.41Z"/>
    <path class="cls-68" d="m94.55,425.38c-.08.03.52,1.6.71,2.83.44,2.9-.9,7.37-9.18,14.13,4.27-1.62,9.88-4.57,10.6-9.18.56-3.62-1.98-7.82-2.12-7.77Z"/>
  </g>
  <g>
    <ellipse class="cls-42" cx="110.11" cy="444.26" rx="21.2" ry="19.08"/>
    <ellipse class="cls-67" cx="101.28" cy="439.32" rx="5.3" ry="4.24"/>
    <circle class="cls-67" cx="120.01" cy="435.79" r="2.47"/>
    <path class="cls-67" d="m116.83,458.75c-5.88.78-12.53.53-16.96-3.53-4.48-4.11-5.31-10.84-6.36-10.6-.71.17-1.03,3.42,0,6.36,2.03,5.77,8.66,8.57,13.42,9.18,4.12.53,7.61-.46,9.89-1.41Z"/>
    <path class="cls-68" d="m127.42,439.67c-.08.03.52,1.6.71,2.83.44,2.9-.9,7.37-9.18,14.13,4.27-1.62,9.88-4.57,10.6-9.18.56-3.62-1.98-7.82-2.12-7.77Z"/>
  </g>
  <g>
    <ellipse class="cls-35" cx="142.99" cy="439.98" rx="21.2" ry="19.08"/>
    <ellipse class="cls-67" cx="134.16" cy="435.03" rx="5.3" ry="4.24"/>
    <circle class="cls-67" cx="152.88" cy="431.5" r="2.47"/>
    <path class="cls-67" d="m149.7,454.46c-5.88.78-12.53.53-16.96-3.53-4.48-4.11-5.31-10.84-6.36-10.6-.71.17-1.03,3.42,0,6.36,2.03,5.77,8.66,8.57,13.42,9.18,4.12.53,7.61-.46,9.89-1.41Z"/>
    <path class="cls-68" d="m160.3,435.38c-.08.03.52,1.6.71,2.83.44,2.9-.9,7.37-9.18,14.13,4.27-1.62,9.88-4.57,10.6-9.18.56-3.62-1.98-7.82-2.12-7.77Z"/>
  </g>
  <g>
    <ellipse class="cls-40" cx="180.4" cy="437.55" rx="23.59" ry="21.28" transform="translate(-131.66 81.72) rotate(-18.84)"/>
    <ellipse class="cls-67" cx="169.31" cy="435.5" rx="5.9" ry="4.73" transform="translate(-131.59 78.03) rotate(-18.84)"/>
    <ellipse class="cls-67" cx="187.76" cy="425.04" rx="2.75" ry="2.76" transform="translate(-127.22 83.43) rotate(-18.84)"/>
    <path class="cls-67" d="m192.69,450.43c-5.91,2.94-13.01,5.06-19.13,2.37-6.2-2.73-9.5-9.54-10.52-8.9-.69.43.15,3.98,2.29,6.71,4.21,5.36,12.21,5.93,17.45,4.87,4.54-.92,7.85-3.23,9.91-5.05Z"/>
    <path class="cls-68" d="m196.98,426.47c-.08.06,1.12,1.5,1.76,2.73,1.51,2.9,1.71,8.11-4.58,18.22,3.91-3.24,8.76-8.38,7.85-13.51-.72-4.03-4.9-7.55-5.03-7.44Z"/>
  </g>
</svg>