<svg width="106" height="104" viewBox="0 0 106 104" fill="none" xmlns="http://www.w3.org/2000/svg">
<path d="M-0.000469942 68.3172L-0.000467056 35.3053C-0.000466822 32.627 2.27853 30.454 5.08753 30.454L49.2012 30.454C50.2718 30.454 51.1375 29.6272 51.1375 28.6061L51.1375 1.80931C51.1375 0.20164 53.1727 -0.603955 54.3669 0.530246L54.3952 0.558505L103.244 47.1349C105.95 49.7178 105.95 53.9012 103.244 56.4841L54.7344 102.743C54.6001 102.87 54.4623 102.993 54.321 103.11C53.0808 104.138 51.1375 103.258 51.1375 101.693C51.1375 95.2342 51.1375 80.2458 51.1375 75.0129C51.1375 73.9918 50.2718 73.1685 49.2012 73.1685L5.08753 73.1685C2.27853 73.1685 -0.000470176 70.9955 -0.000469942 68.3172Z" fill="#240A6C"/>
</svg>
