<?xml version="1.0" encoding="UTF-8"?>
<svg id="_Слой_1" data-name="Слой 1" xmlns="http://www.w3.org/2000/svg" xmlns:xlink="http://www.w3.org/1999/xlink" viewBox="0 0 500 500">
  <defs>
    <style>
      .cls-1 {
        fill: #5f5fce;
      }

      .cls-2 {
        fill: #4646b2;
      }

      .cls-3 {
        fill: #2b2b82;
      }

      .cls-4 {
        fill: #7a7add;
      }

      .cls-5 {
        fill: #1b1464;
      }

      .cls-6 {
        fill: url(#_Безымянный_градиент_11);
      }
    </style>
    <radialGradient id="_Безымянный_градиент_11" data-name="Безымянный градиент 11" cx="1492.68" cy="1185.46" fx="1492.68" fy="1185.46" r="526.75" gradientTransform="translate(-546.97 -407.44) scale(.54 .55)" gradientUnits="userSpaceOnUse">
      <stop offset="0" stop-color="#fff"/>
      <stop offset=".13" stop-color="#fff" stop-opacity=".83"/>
      <stop offset=".42" stop-color="#fff" stop-opacity=".48"/>
      <stop offset=".66" stop-color="#fff" stop-opacity=".22"/>
      <stop offset=".83" stop-color="#fff" stop-opacity=".06"/>
      <stop offset=".92" stop-color="#fff" stop-opacity="0"/>
    </radialGradient>
  </defs>
  <ellipse class="cls-6" cx="251.81" cy="250.4" rx="248.6" ry="248.58"/>
  <g>
    <path class="cls-1" d="m250,469.87c-58.73,0-113.94-22.87-155.47-64.4S30.13,308.73,30.13,250s22.87-113.94,64.4-155.47C136.06,53,191.27,30.13,250,30.13s113.94,22.87,155.47,64.4,64.4,96.74,64.4,155.47-22.87,113.94-64.4,155.47c-41.53,41.53-96.74,64.4-155.47,64.4Z"/>
    <path class="cls-5" d="m250,30.63c29.62,0,58.34,5.8,85.39,17.24,26.12,11.05,49.58,26.87,69.73,47.01,20.15,20.15,35.96,43.61,47.01,69.73,11.44,27.04,17.24,55.77,17.24,85.39s-5.8,58.34-17.24,85.39c-11.05,26.12-26.87,49.58-47.01,69.73-20.15,20.15-43.61,35.96-69.73,47.01-27.04,11.44-55.77,17.24-85.39,17.24s-58.34-5.8-85.39-17.24c-26.12-11.05-49.58-26.87-69.73-47.01-20.15-20.15-35.96-43.61-47.01-69.73-11.44-27.04-17.24-55.77-17.24-85.39s5.8-58.34,17.24-85.39c11.05-26.12,26.87-49.58,47.01-69.73,20.15-20.15,43.61-35.96,69.73-47.01,27.04-11.44,55.77-17.24,85.39-17.24m0-1c-121.71,0-220.37,98.66-220.37,220.37s98.66,220.37,220.37,220.37,220.37-98.66,220.37-220.37S371.71,29.63,250,29.63h0Z"/>
  </g>
  <path class="cls-2" d="m276.5,268.5c-.83-6.13,2.36-16.25,35-36,36.66-22.19,101.17-50.91,110-37,7.88,12.42-33.98,50.52-52,65-19.81,15.92-42.37,33.52-67,28-10.47-2.35-24.59-9.6-26-20Z"/>
  <path class="cls-2" d="m253,188c-11.19-29.93,4.56-43.73-6-63-9.83-17.93-34.14-25.47-52-25-41.63,1.1-74.34,46.48-67,62,4.82,10.2,23.37.01,56,16,25.44,12.46,40,25,40,25,3.77,3.25,12.4,11.02,26,16,5.52,2.02,14.17,5.19,17,2,3.84-4.34-7.47-15.52-14-33Z"/>
  <path class="cls-2" d="m93,369c-1.63-18.3,16.97-37.85,36-44,6.07-1.96,20.64-5.29,67,16,43.88,20.15,39.66,27.19,58,32,57.45,15.08,103.77-52.67,138-32,10.52,6.35,16.31,18.9,16,29-.86,27.86-48.38,45.65-68,53-47.91,17.94-90.21,14.04-110,12-11.82-1.22-40.43-4.96-74-19-32.07-13.41-61.09-25.55-63-47Z"/>
  <path class="cls-2" d="m44,182c113.66,50.37,121.1,74.2,119,84-4.03,18.8-52.21,28.29-78,30-21.27,1.41-39.21-1.68-52-5-2.53-12.82-4.6-30.35-3-51,1.93-24.8,8.43-44.66,14-58Z"/>
  <path class="cls-2" d="m247,265c-8.17-8.26-26.4-7.41-31,1-4.91,8.97,7.81,22.72,9,24,3.35,3.62,9.59,10.36,16,9,8.32-1.76,13.35-16.38,10-27-.48-1.54-1.43-4.4-4-7Z"/>
  <path class="cls-2" d="m240,56c3.64-12.06,55.12-13.69,97,3,42.88,17.08,86.17,57.54,78,81-7.01,20.11-49.76,21.83-54,22-9.87.4-36.86,1.49-45-13-7.85-13.96,8.92-29.74,0-43-3.37-5-6.21-3.44-28-12-26.55-10.43-35.86-18.07-42-26-4.56-5.89-6.92-8.94-6-12Z"/>
  <path class="cls-2" d="m68,151c4.44,6.68,17.4,8.23,25,4,7.6-4.23,6.87-12.58,16-37,5.88-15.73,8.92-23.66,14-27,10.22-6.73,19.67.69,45,3,16.64,1.51,44.35,4.04,54-10,6.5-9.45,4.75-26.32-4-35-18.07-17.92-64.37.65-90,17-38.81,24.76-70.06,69.87-60,85Z"/>
  <path class="cls-3" d="m337,128c1.92,7.81,19.76,11.6,33,7,7.47-2.59,17.78-9.35,17-16-.9-7.68-16.4-13.76-29-11-11.55,2.53-22.73,12.96-21,20Z"/>
  <path class="cls-3" d="m229,154c3.7-4.52-3.63-20.34-16-27-15.74-8.48-34.01.92-40,4-9.88,5.08-21.83,14.75-20,19,2.22,5.16,21.46-5.14,51,0,14.94,2.6,22.25,7.36,25,4Z"/>
  <path class="cls-3" d="m289,314c14.51-6.26,35.89-1.85,39,9,2.82,9.83-9.31,25.09-24,27-14.48,1.88-30.37-9.35-30-20,.33-9.48,13.42-15.32,15-16Z"/>
  <path class="cls-3" d="m125,267c-.01-6.72-18.09-7.89-28-24-3.39-5.51-3.38-8.8-5-13-3.91-10.18-16.11-22.49-54-30-3.41,9.24-7.3,22.98-8,40-.65,15.74,1.65,28.84,4,38,37.52,9.46,62.26,4.21,75,0,4.77-1.58,16.01-5.7,16-11Z"/>
  <path class="cls-3" d="m439,215c-9.83,1.75-9.85,15.24-22,32-16.82,23.21-32.56,19.14-39,37-4.88,13.52-1.93,32.66,10,41,16.63,11.62,41.82-3.97,45-6,31.54-20.09,43.4-70.24,26-93-.42-.56-10-12.78-20-11Z"/>
  <path class="cls-4" d="m153,362c19.05.58,29.39,12.46,44,22,43.7,28.53,91.36,13.81,92,21,.6,6.69-40.34,23.12-85,17-43.19-5.92-85.87-32.4-83-47,1.68-8.53,18.99-13.4,32-13Z"/>
  <path class="cls-4" d="m208,232c-5.84-16.27-22.21-24.34-32-29-19.04-9.06-25.37-4.98-58-13-28.32-6.96-39.93-14.06-41-12-1.68,3.24,23.47,27.6,56,31,14.47,1.51,18.48-2.37,28,2,15.78,7.23,28.64,28.83,24,50-2.93,13.39-12.51,25-24,30-5.95,2.59-9,1.92-19,3-10.77,1.16-30.37,3.28-47,13-4.38,2.56-27.87,16.29-28,37-.02,3.04-.08,12.44,5,15,11.42,5.76,27.25-34,63-45,39.51-12.16,84.08,16.72,86,18,22.67,15.09,34.75,35.5,47,31,5.21-1.92,9.18-7.88,9-13-.21-6-6.08-10.61-23-20-31.38-17.42-33.86-14.16-39-21-6.31-8.4-6.2-22.93-6-52,.11-16.04,1.31-18.57-1-25Z"/>
  <path class="cls-4" d="m263,247c-4.09-1.02-7.18-6.1-7-10,.38-8.43,15.93-9.15,19-19,2.69-8.64-7.53-13.66-12-28-5.38-17.27,5.4-22.96,5-44-.58-30.39-23.69-51.11-19-55,1.16-.96,3.45-.41,13,5,19.36,10.98,29.04,16.47,34,23,13.38,17.61.12,31.28,13,47,8.1,9.88,22.45,15.61,35,15,18.64-.91,25.66-15.43,44-13,7.07.94,16,4.42,16,8,0,5.86-23.94,8.27-73,23-11.83,3.55-17.8,5.36-21,7-29.03,14.91-36.12,43.7-47,41Z"/>
</svg>