<?xml version="1.0" encoding="UTF-8"?>
<svg id="_Слой_1" data-name="Слой 1" xmlns="http://www.w3.org/2000/svg" viewBox="0 0 472 272">
  <defs>
    <style>
      .cls-1 {
        fill: #efe63a;
      }

      .cls-1, .cls-2, .cls-3 {
        stroke: #b3b3b3;
        stroke-width: .5px;
      }

      .cls-1, .cls-2, .cls-3, .cls-4, .cls-5, .cls-6 {
        stroke-miterlimit: 10;
      }

      .cls-7 {
        fill: #fff;
      }

      .cls-8 {
        opacity: .6;
      }

      .cls-9 {
        fill: #fe0104;
      }

      .cls-2 {
        fill: #97ed3b;
      }

      .cls-10 {
        fill: #054e77;
      }

      .cls-11 {
        fill: #193c1b;
      }

      .cls-3 {
        fill: #3b95ed;
      }

      .cls-12 {
        fill: #0071bc;
      }

      .cls-13 {
        fill: #231617;
        opacity: .28;
      }

      .cls-4 {
        fill: gray;
      }

      .cls-4, .cls-5, .cls-6 {
        stroke: #999;
      }

      .cls-5 {
        fill: #666;
      }

      .cls-14 {
        fill: #18f416;
      }

      .cls-6 {
        fill: #f2f2f2;
      }
    </style>
  </defs>
  <g>
    <rect class="cls-6" x="5.5" y="3.11" width="457" height="263.78" rx="12.49" ry="12.49"/>
    <rect class="cls-11" x="50.28" y="25.81" width="369.22" height="218.37" rx="12.49" ry="12.49"/>
    <g>
      <ellipse class="cls-1" cx="438.45" cy="47.68" rx="9.94" ry="8.83"/>
      <path class="cls-7" d="m437.35,54.31c.11.5,4.97,1.16,7.18-1.66,2.48-3.16-.25-8.33-.55-8.28-.24.04,1.08,3.29-.55,6.07-1.86,3.17-6.18,3.38-6.07,3.86Z"/>
      <path class="cls-7" d="m436.24,41.06c-1.72-.27-3.75.59-4.42,2.21-.84,2.05.85,4.49,1.1,4.42.12-.03.07-.59,0-1.1.15-.57.45-1.4,1.1-2.21,1.57-1.93,3.89-2.17,4.42-2.21-.34-.32-1.1-.93-2.21-1.1Z"/>
    </g>
    <g>
      <ellipse class="cls-2" cx="438.77" cy="76.28" rx="9.94" ry="8.83"/>
      <path class="cls-7" d="m437.67,82.9c.11.5,4.97,1.16,7.18-1.66,2.48-3.16-.25-8.33-.55-8.28-.24.04,1.08,3.29-.55,6.07-1.86,3.17-6.18,3.38-6.07,3.86Z"/>
      <path class="cls-7" d="m436.56,69.65c-1.72-.27-3.75.59-4.42,2.21-.84,2.05.85,4.49,1.1,4.42.12-.03.07-.59,0-1.1.15-.57.45-1.4,1.1-2.21,1.57-1.93,3.89-2.17,4.42-2.21-.34-.32-1.1-.93-2.21-1.1Z"/>
    </g>
    <g>
      <ellipse class="cls-3" cx="439.06" cy="101.9" rx="9.94" ry="8.83"/>
      <path class="cls-7" d="m437.96,108.53c.11.5,4.97,1.16,7.18-1.66,2.48-3.16-.25-8.33-.55-8.28-.24.04,1.08,3.29-.55,6.07-1.86,3.17-6.18,3.38-6.07,3.86Z"/>
      <path class="cls-7" d="m436.85,95.28c-1.72-.27-3.75.59-4.42,2.21-.84,2.05.85,4.49,1.1,4.42.12-.03.07-.59,0-1.1.15-.57.45-1.4,1.1-2.21,1.57-1.93,3.89-2.17,4.42-2.21-.34-.32-1.1-.93-2.21-1.1Z"/>
    </g>
    <rect class="cls-13" x="427" y="211" width="21" height="21" rx="2.48" ry="2.48"/>
    <rect class="cls-9" x="428" y="212" width="19" height="19" rx="2.48" ry="2.48"/>
    <path class="cls-7" d="m429,219c-.11-.01.06-1.18,0-3-.05-1.4-.17-1.64,0-2,.31-.65,1.38-1.29,5-1-.79.02-2.01.18-3,1-1.99,1.66-1.82,5.02-2,5Z"/>
    <rect class="cls-5" x="15.5" y="75" width="31" height="119.5" rx="12.49" ry="12.49" transform="translate(62 269.5) rotate(-180)"/>
    <path class="cls-7" d="m439.85,230.23c.01.11,1.18-.06,3,0,1.4.05,1.64.17,2,0,.65-.31,1.29-1.38,1-5-.02.79-.18,2.01-1,3-1.66,1.99-5.02,1.82-5,2Z"/>
    <rect class="cls-4" x="18.47" y="79.38" width="24.99" height="111.12" rx="12.49" ry="12.49" transform="translate(61.94 269.88) rotate(180)"/>
    <rect class="cls-10" x="18.25" y="100" width="25" height="27"/>
    <rect class="cls-12" x="18.25" y="107.5" width="25" height="12"/>
    <g class="cls-8">
      <rect class="cls-7" x="19" y="109" width="23" height="3"/>
    </g>
  </g>
  <g>
    <path class="cls-14" d="m72.97,59.68v3.23h2.12v3.23h-2.12v9.68h-2.12v-16.13h2.12Zm2.12,6.45h2.12v3.23h-2.12v-3.23Zm6.35-6.45v16.13h-2.12v-9.68h-2.12v-3.23h2.12v-3.23h2.12Z"/>
    <path class="cls-14" d="m85.68,62.91v3.23h4.23v3.23h-4.23v3.23h8.46v3.23h-10.58v-12.91h2.12Zm0-3.23h8.46v3.23h-8.46v-3.23Z"/>
    <path class="cls-14" d="m104.75,59.68v3.23h-6.35v3.23h6.35v3.23h-6.35v6.45h-2.12v-16.13h8.46Zm0,3.23h2.12v3.23h-2.12v-3.23Z"/>
    <path class="cls-14" d="m111.12,59.68v6.45h4.23v3.23h-4.23v6.45h-2.12v-16.13h2.12Zm4.23,3.23h2.12v3.23h-2.12v-3.23Zm0,6.45h2.12v3.23h-2.12v-3.23Zm2.12-9.68h2.12v3.23h-2.12v-3.23Zm0,12.91h2.12v3.23h-2.12v-3.23Z"/>
    <path class="cls-14" d="m121.73,59.68h2.12v6.45h-2.12v-6.45Zm0,12.91h8.46v3.23h-8.46v-3.23Zm10.58-12.91v12.91h-2.12v-3.23h-6.35v-3.23h6.35v-6.45h2.12Z"/>
    <path class="cls-14" d="m142.9,59.68v3.23h-6.35v3.23h6.35v3.23h-6.35v6.45h-2.12v-16.13h8.46Zm0,3.23h2.12v3.23h-2.12v-3.23Z"/>
    <path class="cls-14" d="m149.27,59.68v9.68h2.12v3.23h-2.12v3.23h-2.12v-16.13h2.12Zm2.12,6.45h2.12v3.23h-2.12v-3.23Zm6.35-6.45v16.13h-2.12v-9.68h-2.12v-3.23h2.12v-3.23h2.12Z"/>
    <path class="cls-14" d="m161.99,59.68v9.68h2.12v3.23h-2.12v3.23h-2.12v-16.13h2.12Zm6.35-3.23v3.23h-4.23v-3.23h4.23Zm-4.23,9.68h2.12v3.23h-2.12v-3.23Zm6.35-6.45v16.13h-2.12v-9.68h-2.12v-3.23h2.12v-3.23h2.12Z"/>
    <path class="cls-14" d="m183.18,66.14h6.35v3.23h-6.35v-3.23Z"/>
    <path class="cls-14" d="m202.23,59.68h2.12v6.45h-2.12v-6.45Zm0,9.68h2.12v6.45h-2.12v-6.45Zm6.35-9.68v6.45h2.12v3.23h-2.12v6.45h-2.12v-6.45h-2.12v-3.23h2.12v-6.45h2.12Zm2.12,0h2.12v6.45h-2.12v-6.45Zm0,9.68h2.12v6.45h-2.12v-6.45Z"/>
    <path class="cls-14" d="m225.52,62.91v12.91h-2.12v-6.45h-6.35v6.45h-2.12v-12.91h2.12v3.23h6.35v-3.23h2.12Zm-8.46-3.23h6.35v3.23h-6.35v-3.23Z"/>
    <path class="cls-14" d="m236.12,59.68v3.23h-6.35v3.23h6.35v3.23h-6.35v6.45h-2.12v-16.13h8.46Zm0,3.23h2.12v3.23h-2.12v-3.23Z"/>
    <path class="cls-14" d="m242.49,59.68v6.45h4.23v3.23h-4.23v6.45h-2.12v-16.13h2.12Zm4.23,3.23h2.12v3.23h-2.12v-3.23Zm0,6.45h2.12v3.23h-2.12v-3.23Zm2.12-9.68h2.12v3.23h-2.12v-3.23Zm0,12.91h2.12v3.23h-2.12v-3.23Z"/>
    <path class="cls-14" d="m263.67,62.91v12.91h-2.12v-6.45h-6.35v6.45h-2.12v-12.91h2.12v3.23h6.35v-3.23h2.12Zm-8.46-3.23h6.35v3.23h-6.35v-3.23Z"/>
    <path class="cls-14" d="m276.39,59.68v16.13h-2.12v-6.45h-6.35v6.45h-2.12v-6.45h2.12v-3.23h6.35v-3.23h-6.35v-3.23h8.46Zm-10.58,3.23h2.12v3.23h-2.12v-3.23Z"/>
    <path class="cls-14" d="m289.12,62.91h2.12v12.91h-2.12v-12.91Zm2.12-3.23h6.35v3.23h-6.35v-3.23Zm6.35,3.23h2.12v12.91h-2.12v-12.91Z"/>
    <path class="cls-14" d="m301.84,66.14h2.12v9.68h-2.12v-9.68Zm2.12-3.23h2.12v3.23h-2.12v-3.23Zm8.46-3.23v16.13h-2.12v-12.91h-4.23v-3.23h6.35Z"/>
    <path class="cls-14" d="m325.13,62.91v12.91h-2.12v-6.45h-6.35v6.45h-2.12v-12.91h2.12v3.23h6.35v-3.23h2.12Zm-8.46-3.23h6.35v3.23h-6.35v-3.23Z"/>
    <path class="cls-14" d="m337.84,59.68v16.13h-2.12v-6.45h-6.35v6.45h-2.12v-16.13h2.12v6.45h6.35v-6.45h2.12Z"/>
    <path class="cls-14" d="m342.1,62.91v3.23h4.23v3.23h-4.23v3.23h8.46v3.23h-10.58v-12.91h2.12Zm0-3.23h8.46v3.23h-8.46v-3.23Z"/>
    <path class="cls-14" d="m363.28,59.68v3.23h-4.23v12.91h-2.12v-12.91h-4.23v-3.23h10.58Z"/>
    <path class="cls-14" d="m375.99,62.91v12.91h-2.12v-6.45h-6.35v6.45h-2.12v-12.91h2.12v3.23h6.35v-3.23h2.12Zm-8.46-3.23h6.35v3.23h-6.35v-3.23Z"/>
    <path class="cls-14" d="m378.13,72.59h2.12v3.23h-2.12v-3.23Zm2.12-3.23h2.12v3.23h-2.12v-3.23Z"/>
    <path class="cls-14" d="m70.85,102.56h2.12v9.68h-2.12v-9.68Zm2.12-3.23h6.35v3.23h-6.35v-3.23Zm0,12.91h6.35v3.23h-6.35v-3.23Zm6.35-9.68h2.12v9.68h-2.12v-9.68Z"/>
    <path class="cls-14" d="m83.58,99.33h2.12v6.45h-2.12v-6.45Zm10.58,0v16.13h-2.12v-6.45h-6.35v-3.23h6.35v-6.45h2.12Z"/>
    <path class="cls-14" d="m98.41,102.56v3.23h4.23v3.23h-4.23v3.23h8.46v3.23h-10.58v-12.91h2.12Zm0-3.23h8.46v3.23h-8.46v-3.23Z"/>
    <path class="cls-14" d="m119.59,99.33v16.13h-2.12v-6.45h-6.35v6.45h-2.12v-16.13h2.12v6.45h6.35v-6.45h2.12Z"/>
    <path class="cls-14" d="m123.84,99.33v6.45h6.35v3.23h-6.35v3.23h6.35v3.23h-8.46v-16.13h2.12Zm6.35,9.68h2.12v3.23h-2.12v-3.23Z"/>
    <path class="cls-14" d="m147.15,99.33v3.23h2.12v3.23h-2.12v9.68h-2.12v-16.13h2.12Zm2.12,6.45h2.12v3.23h-2.12v-3.23Zm6.35-6.45v16.13h-2.12v-9.68h-2.12v-3.23h2.12v-3.23h2.12Z"/>
    <path class="cls-14" d="m168.32,102.56v12.91h-2.12v-6.45h-6.35v6.45h-2.12v-12.91h2.12v3.23h6.35v-3.23h2.12Zm-8.46-3.23h6.35v3.23h-6.35v-3.23Z"/>
    <path class="cls-14" d="m170.46,105.79h2.12v9.68h-2.12v-9.68Zm2.12-3.23h2.12v3.23h-2.12v-3.23Zm8.46-3.23v16.13h-2.12v-12.91h-4.23v-3.23h6.35Z"/>
    <path class="cls-14" d="m193.75,102.56v12.91h-2.12v-6.45h-6.35v6.45h-2.12v-12.91h2.12v3.23h6.35v-3.23h2.12Zm-8.46-3.23h6.35v3.23h-6.35v-3.23Z"/>
    <path class="cls-14" d="m206.48,99.33v16.13h-2.12v-6.45h-6.35v6.45h-2.12v-6.45h2.12v-3.23h6.35v-3.23h-6.35v-3.23h8.46Zm-10.58,3.23h2.12v3.23h-2.12v-3.23Z"/>
    <path class="cls-14" d="m219.21,102.56h2.12v12.91h-2.12v-12.91Zm2.12-3.23h6.35v3.23h-6.35v-3.23Zm6.35,3.23h2.12v12.91h-2.12v-12.91Z"/>
    <path class="cls-14" d="m240.38,99.33v3.23h-6.35v3.23h6.35v3.23h-6.35v6.45h-2.12v-16.13h8.46Zm0,3.23h2.12v3.23h-2.12v-3.23Z"/>
    <path class="cls-14" d="m246.75,99.33v9.68h2.12v3.23h-2.12v3.23h-2.12v-16.13h2.12Zm2.12,6.45h2.12v3.23h-2.12v-3.23Zm6.35-6.45v16.13h-2.12v-9.68h-2.12v-3.23h2.12v-3.23h2.12Z"/>
    <path class="cls-14" d="m267.94,102.56h2.12v3.23h-2.12v-3.23Zm0,6.45h2.12v3.23h-2.12v-3.23Zm2.12-9.68h6.35v3.23h-6.35v-3.23Zm0,12.91h6.35v3.23h-6.35v-3.23Zm8.46-9.68v9.68h-2.12v-3.23h-4.23v-3.23h4.23v-3.23h2.12Z"/>
    <path class="cls-14" d="m291.24,99.33v3.23h-4.23v12.91h-2.12v-12.91h-4.23v-3.23h10.58Z"/>
    <path class="cls-14" d="m293.37,102.56h2.12v9.68h-2.12v-9.68Zm2.12-3.23h6.35v3.23h-6.35v-3.23Zm0,12.91h6.35v3.23h-6.35v-3.23Zm6.35-9.68h2.12v9.68h-2.12v-9.68Z"/>
    <path class="cls-14" d="m308.2,99.33v3.23h2.12v3.23h-2.12v9.68h-2.12v-16.13h2.12Zm2.12,6.45h2.12v3.23h-2.12v-3.23Zm6.35-6.45v16.13h-2.12v-9.68h-2.12v-3.23h2.12v-3.23h2.12Z"/>
    <path class="cls-14" d="m318.8,112.24h2.12v3.23h-2.12v-3.23Zm2.12-3.23h2.12v3.23h-2.12v-3.23Z"/>
    <path class="cls-14" d="m81.43,138.99v16.13h-2.12v-6.45h-6.35v6.45h-2.12v-16.13h2.12v6.45h6.35v-6.45h2.12Z"/>
    <path class="cls-14" d="m85.68,142.21v3.23h4.23v3.23h-4.23v3.23h8.46v3.23h-10.58v-12.91h2.12Zm0-3.23h8.46v3.23h-8.46v-3.23Z"/>
    <path class="cls-14" d="m106.87,138.99h2.12v3.23h-2.12v-3.23Zm0,12.91h2.12v3.23h-2.12v-3.23Zm2.12-9.68h2.12v3.23h-2.12v-3.23Zm0,6.45h2.12v3.23h-2.12v-3.23Zm2.12-3.23h2.12v3.23h-2.12v-3.23Zm4.23,0h-2.12v-3.23h2.12v3.23Zm0,6.45h-2.12v-3.23h2.12v3.23Zm0-12.91h2.12v3.23h-2.12v-3.23Zm0,12.91h2.12v3.23h-2.12v-3.23Z"/>
    <path class="cls-14" d="m119.59,142.21h2.12v9.68h-2.12v-9.68Zm2.12-3.23h6.35v3.23h-6.35v-3.23Zm0,12.91h6.35v3.23h-6.35v-3.23Zm6.35-9.68h2.12v9.68h-2.12v-9.68Z"/>
    <path class="cls-14" d="m142.88,138.99v3.23h-4.23v12.91h-2.12v-12.91h-4.23v-3.23h10.58Z"/>
    <path class="cls-14" d="m147.14,138.99v9.68h2.12v3.23h-2.12v3.23h-2.12v-16.13h2.12Zm2.12,6.45h2.12v3.23h-2.12v-3.23Zm6.35-6.45v16.13h-2.12v-9.68h-2.12v-3.23h2.12v-3.23h2.12Z"/>
    <path class="cls-14" d="m159.85,138.99v3.23h2.12v3.23h-2.12v9.68h-2.12v-16.13h2.12Zm2.12,6.45h2.12v3.23h-2.12v-3.23Zm6.35-6.45v16.13h-2.12v-9.68h-2.12v-3.23h2.12v-3.23h2.12Z"/>
    <path class="cls-14" d="m191.62,138.99v3.23h-4.23v12.91h-2.12v-12.91h-4.23v-3.23h10.58Z"/>
    <path class="cls-14" d="m193.77,138.99h2.12v6.45h-2.12v-6.45Zm0,12.91h8.46v3.23h-8.46v-3.23Zm10.58-12.91v12.91h-2.12v-3.23h-6.35v-3.23h6.35v-6.45h2.12Z"/>
    <path class="cls-14" d="m219.17,138.99v16.13h-12.69v-3.23h2.12v-9.68h2.12v-3.23h8.46Zm-2.12,3.23h-6.35v9.68h6.35v-9.68Z"/>
    <path class="cls-14" d="m231.87,142.21v12.91h-2.12v-6.45h-6.35v6.45h-2.12v-12.91h2.12v3.23h6.35v-3.23h2.12Zm-8.46-3.23h6.35v3.23h-6.35v-3.23Z"/>
    <path class="cls-14" d="m244.59,145.44h2.12v9.68h-2.12v-9.68Zm2.12-3.23h2.12v3.23h-2.12v-3.23Zm8.46-3.23v16.13h-2.12v-12.91h-4.23v-3.23h6.35Z"/>
    <path class="cls-14" d="m259.43,142.21v3.23h4.23v3.23h-4.23v3.23h8.46v3.23h-10.58v-12.91h2.12Zm0-3.23h8.46v3.23h-8.46v-3.23Z"/>
    <path class="cls-14" d="m280.6,138.99v3.23h-4.23v12.91h-2.12v-12.91h-4.23v-3.23h10.58Z"/>
    <path class="cls-14" d="m284.86,142.21v3.23h4.23v3.23h-4.23v3.23h8.46v3.23h-10.58v-12.91h2.12Zm0-3.23h8.46v3.23h-8.46v-3.23Z"/>
    <path class="cls-14" d="m306.04,138.99v3.23h-4.23v12.91h-2.12v-12.91h-4.23v-3.23h10.58Z"/>
    <path class="cls-14" d="m310.29,138.99v6.45h6.35v3.23h-6.35v3.23h6.35v3.23h-8.46v-16.13h2.12Zm6.35,9.68h2.12v3.23h-2.12v-3.23Z"/>
    <path class="cls-14" d="m320.89,151.89h2.12v3.23h-2.12v-3.23Zm2.12-3.23h2.12v3.23h-2.12v-3.23Z"/>
    <path class="cls-14" d="m72.97,178.64v3.23h2.12v3.23h-2.12v9.68h-2.12v-16.13h2.12Zm2.12,6.45h2.12v3.23h-2.12v-3.23Zm6.35-6.45v16.13h-2.12v-9.68h-2.12v-3.23h2.12v-3.23h2.12Z"/>
    <path class="cls-14" d="m83.57,181.87h2.12v9.68h-2.12v-9.68Zm2.12-3.23h6.35v3.23h-6.35v-3.23Zm0,12.91h6.35v3.23h-6.35v-3.23Zm6.35-9.68h2.12v9.68h-2.12v-9.68Z"/>
    <path class="cls-14" d="m96.28,178.64h2.12v6.45h-2.12v-6.45Zm0,9.68h2.12v6.45h-2.12v-6.45Zm6.35-9.68v6.45h2.12v3.23h-2.12v6.45h-2.12v-6.45h-2.12v-3.23h2.12v-6.45h2.12Zm2.12,0h2.12v6.45h-2.12v-6.45Zm0,9.68h2.12v6.45h-2.12v-6.45Z"/>
    <path class="cls-14" d="m119.58,178.64v16.13h-2.12v-6.45h-6.35v6.45h-2.12v-16.13h2.12v6.45h6.35v-6.45h2.12Z"/>
    <path class="cls-14" d="m121.71,181.87h2.12v9.68h-2.12v-9.68Zm2.12-3.23h6.35v3.23h-6.35v-3.23Zm0,12.91h6.35v3.23h-6.35v-3.23Zm6.35-9.68h2.12v9.68h-2.12v-9.68Z"/>
    <path class="cls-14" d="m155.6,178.64v3.23h-4.23v12.91h-2.12v-12.91h-4.23v-3.23h10.58Z"/>
    <path class="cls-14" d="m168.31,181.87v12.91h-2.12v-6.45h-6.35v6.45h-2.12v-12.91h2.12v3.23h6.35v-3.23h2.12Zm-8.46-3.23h6.35v3.23h-6.35v-3.23Z"/>
    <path class="cls-14" d="m172.57,178.64v3.23h2.12v3.23h-2.12v9.68h-2.12v-16.13h2.12Zm2.12,6.45h2.12v3.23h-2.12v-3.23Zm6.35-6.45v16.13h-2.12v-9.68h-2.12v-3.23h2.12v-3.23h2.12Z"/>
    <path class="cls-14" d="m183.17,191.55h2.12v3.23h-2.12v-3.23Zm2.12-3.23h2.12v3.23h-2.12v-3.23Z"/>
    <path class="cls-14" d="m212.81,178.64v16.13h-12.69v-3.23h2.12v-9.68h2.12v-3.23h8.46Zm-2.12,3.23h-6.35v9.68h6.35v-9.68Z"/>
    <path class="cls-14" d="m223.39,178.64v3.23h-6.35v3.23h6.35v3.23h-6.35v6.45h-2.12v-16.13h8.46Zm0,3.23h2.12v3.23h-2.12v-3.23Z"/>
    <path class="cls-14" d="m227.65,178.64h2.12v6.45h-2.12v-6.45Zm0,12.91h8.46v3.23h-8.46v-3.23Zm10.58-12.91v12.91h-2.12v-3.23h-6.35v-3.23h6.35v-6.45h2.12Z"/>
    <path class="cls-14" d="m248.83,178.64v3.23h2.12v3.23h-2.12v-3.23h-8.46v-3.23h8.46Zm-8.46,12.91h8.46v3.23h-8.46v-3.23Zm4.23-6.45h4.23v3.23h-4.23v-3.23Zm4.23,3.23h2.12v3.23h-2.12v-3.23Z"/>
    <path class="cls-14" d="m255.19,178.64v6.45h6.35v3.23h-6.35v3.23h6.35v3.23h-8.46v-16.13h2.12Zm6.35,9.68h2.12v3.23h-2.12v-3.23Z"/>
    <path class="cls-14" d="m276.38,178.64v16.13h-2.12v-6.45h-6.35v6.45h-2.12v-6.45h2.12v-3.23h6.35v-3.23h-6.35v-3.23h8.46Zm-10.58,3.23h2.12v3.23h-2.12v-3.23Z"/>
    <path class="cls-14" d="m278.52,191.55h2.12v3.23h-2.12v-3.23Zm2.12-3.23h2.12v3.23h-2.12v-3.23Z"/>
    <path class="cls-14" d="m295.47,181.87h2.12v9.68h-2.12v-9.68Zm2.12-3.23h6.35v3.23h-6.35v-3.23Zm0,12.91h6.35v3.23h-6.35v-3.23Zm6.35-9.68h2.12v3.23h-2.12v-3.23Zm0,6.45h2.12v3.23h-2.12v-3.23Z"/>
    <path class="cls-14" d="m318.76,178.64v3.23h-8.46v12.91h-2.12v-12.91h2.12v-3.23h8.46Z"/>
    <path class="cls-14" d="m320.9,181.87h2.12v9.68h-2.12v-9.68Zm2.12-3.23h6.35v3.23h-6.35v-3.23Zm0,12.91h6.35v3.23h-6.35v-3.23Zm6.35-9.68h2.12v9.68h-2.12v-9.68Z"/>
    <path class="cls-14" d="m342.08,178.64v3.23h-6.35v3.23h6.35v3.23h-6.35v6.45h-2.12v-16.13h8.46Zm0,3.23h2.12v3.23h-2.12v-3.23Z"/>
    <path class="cls-14" d="m348.44,181.87v3.23h4.23v3.23h-4.23v3.23h8.46v3.23h-10.58v-12.91h2.12Zm0-3.23h8.46v3.23h-8.46v-3.23Z"/>
    <path class="cls-14" d="m369.62,178.64v3.23h-4.23v12.91h-2.12v-12.91h-4.23v-3.23h10.58Z"/>
    <path class="cls-14" d="m373.88,178.64v6.45h6.35v3.23h-6.35v3.23h6.35v3.23h-8.46v-16.13h2.12Zm6.35,9.68h2.12v3.23h-2.12v-3.23Z"/>
  </g>
</svg>