<?xml version="1.0" encoding="UTF-8"?>
<svg id="_Слой_1" data-name="Слой 1" xmlns="http://www.w3.org/2000/svg" viewBox="0 0 200 200">
  <defs>
    <style>
      .cls-1 {
        fill: #fff;
      }

      .cls-2 {
        fill: #27200e;
      }

      .cls-3 {
        fill: #b3684b;
      }

      .cls-4 {
        fill: #db8245;
        stroke: #351f00;
        stroke-width: .25px;
      }

      .cls-4, .cls-5, .cls-6, .cls-7 {
        stroke-miterlimit: 10;
      }

      .cls-5 {
        fill: #f5f2df;
        stroke: #947100;
      }

      .cls-8 {
        fill: #d9a387;
      }

      .cls-9, .cls-7 {
        fill: #964a28;
      }

      .cls-10 {
        fill: #85372d;
      }

      .cls-6 {
        fill: #cca68f;
        stroke: #aa4700;
      }

      .cls-11 {
        opacity: .5;
      }

      .cls-11, .cls-12 {
        fill: #6b574c;
      }

      .cls-12 {
        opacity: .2;
      }

      .cls-13 {
        fill: #fdfbee;
      }

      .cls-14 {
        fill: #38180d;
      }

      .cls-15 {
        fill: #77381f;
        stroke-linecap: round;
        stroke-linejoin: round;
      }

      .cls-15, .cls-7 {
        stroke: #553900;
      }
    </style>
  </defs>
  <path class="cls-5" d="m178.65,63.02c1.02,2.01,2.47,5.28,3.37,9.51.87,4.1,1.53,10.57-5.62,36.86-3.16,11.63-5.23,17.49-4.49,23.78.12.99.5,3.66,0,7.13-.65,4.6-2.39,7.51-3.37,9.51-5.12,10.5.83,16.35-4.49,24.97-2.36,3.83-6.74,8.14-10.11,7.13-1.27-.38-2.53-1.55-2.81-2.97-.54-2.72,2.8-4.83,5.06-7.73,3.58-4.59,3.7-11.05,3.37-23.78-.3-11.5-1.12-17.84-1.12-17.84-2.11-13.37-3.53-27.58-5.62-44"/>
  <path class="cls-5" d="m66.79,78.31c-2.96,6.5-2.84,11.23-2.25,14.27,1.32,6.82,5.69,8.67,10.11,17.84.92,1.9.77,1.9,4.49,14.27,5.21,17.3,6.34,20.06,6.74,26.16.38,5.72.76,12.83-3.37,16.65-2.87,2.65-6.85,2.72-6.74,3.57.05.38.9.76,8.99,1.19,4.83.26,7.25.38,7.87,0,3.98-2.44,2-11.94,1.12-24.97-.49-7.33.37-.81,0-26.16-.14-9.8-.45-22.71-1.12-38.05"/>
  <path class="cls-2" d="m83.2,166.04c2.05.25,2.88,2.34,6.22,2.82,2.93.42,4.82-.82,5.33,0,.54.87-1.05,3.19-2.66,4.7-3.59,3.36-9.29,4.57-14.21,2.82-1.63-.58-2.85-1.37-3.55-1.88,4.09-7.3,6.96-8.69,8.88-8.46Z"/>
  <path class="cls-5" d="m32.57,52.32c6.88-1.21,9.01.81,19.1,0,3.32-.27,2.36-.43,8.99-1.19,6.93-.8,10.88-1.25,15.73-1.19,7.82.1,7.36,1.41,13.48,1.19,6.75-.25,7.91-1.86,14.61-2.38,5.36-.41,7.97.36,14.61,1.19,8.97,1.12,15.79,1.11,22.47,1.19,15.73.19,18.24-1.44,24.72,1.19,2.77,1.12,8.49,3.53,12.36,9.51,4.13,6.38,3.83,13.25,3.37,21.4-.65,11.52-1.15,20.4-6.74,28.54-9.17,13.34-25.53,15.28-37.08,16.65-9.56,1.13-18.13,2.15-27.64-1.97-6.42-2.78-10.03-6.49-17.3-6.36-4.09.07-4.54,1.27-13.48,3.57-9.49,2.44-14.24,3.66-17.98,2.38-6.76-2.31-10.26-9.77-13.48-16.65-4.61-9.83-2.82-13.34-7.87-20.22-3.51-4.78-4.89-3.77-10.11-9.51-2.65-2.92-13.14-14.44-10.11-21.4,1.77-4.08,7.54-5.1,12.36-5.95Z"/>
  <path class="cls-6" d="m168.12,134.06c-.58,2.01-2.31,4.84-5.15,5.59-1.56.42-2.56-.03-3.82-.58-.02,1.44-.56,2.97-1.57,3.79-1.55,1.25-3.28.06-3.37,0l-.94-5.06c-.85.01-1.66.09-2.45.18.49,1.74.01,4.21-1.38,5.33-1.55,1.25-3.28.06-3.37,0l-1.06-5.67c-1.13-.4-2.11-.91-2.11-.91-1.19-.63-2.03-1.27-2.6-1.74-3.66-2.99-5.51-4.48-6.19-6.53-1.39-4.15,1.85-8.14,2.07-8.39,3.4-4.06,9.39-4.46,12.37-4.67,1-.06,1.89-.12,3.09,0,5.94.63,9.71,4.76,11.34,6.53,2.51,2.75,6.58,7.21,5.15,12.13Z"/>
  <path class="cls-5" d="m55.61,82.64c-2.96,6.5-2.84,11.23-2.25,14.27,1.32,6.82,5.69,8.67,10.11,17.84.92,1.9.77,1.9,4.49,14.27,5.21,17.3,6.34,20.06,6.74,26.16.45,6.74-.2,12.01-3.37,16.65-.97,1.42-2.88,3.75-2.25,4.76.46.73,1.93.26,4.49,0,5.32-.54,6.46.86,7.87,0,3.98-2.44,2-11.94,1.12-24.97-.49-7.33.37-.81,0-26.16-.14-9.8-.45-22.71-1.12-38.05"/>
  <path class="cls-12" d="m167.96,134.37c-.58,2.01-2.31,4.84-5.15,5.59-1.56.42-2.56-.02-3.82-.57-.02,1.44-.56,2.96-1.57,3.78-1.55,1.26-3.28.06-3.37,0l-.94-5.05c-.85.01-1.66.08-2.45.18.49,1.74.01,4.21-1.38,5.33-1.55,1.25-3.28.06-3.37,0l-1.06-5.67c-1.13-.39-2.11-.92-2.11-.92-.64-.34-1.17-.68-1.62-.99,0,0-.49-.34-.98-.75-1.7-1.41-3.21-2.65-4.19-4.49-.44-.83-1.11-2.41-1.12-4.76,1.78,1.88,4.75,4.44,8.99,5.95,1.46.52,3.74,1.3,6.74,1.19,4-.15,6.95-1.8,10.11-3.57,2.34-1.31,4.14-2.63,5.3-3.57,1.65,2.4,2.88,5.27,1.99,8.32Z"/>
  <path class="cls-5" d="m127.52,87.4c1.92,5.02,5.52,12.49,12.36,19.03,6.51,6.22,10.23,6.13,14.61,11.89,5.64,7.42,2.51,11.58,6.74,24.97,5.41,17.13,15.32,22.71,12.36,30.92-1.73,4.81-6.66,7.36-5.62,9.51,1,2.07,6.29,1.26,6.74,1.19,1.06-.16,3.86-.55,5.62-2.38,2.65-2.76,2.17-7.43,1.12-14.27-1.76-11.48-3.84-20.78-4.49-23.78-1.36-6.27-2.04-10.55-3.37-19.03-2.84-18.08-4.27-27.12-3.37-32.11,1.83-10.19,6.66-16.36,3.37-23.78-.99-2.23-2.36-3.78-3.37-4.76"/>
  <path class="cls-2" d="m72.36,171.26c1.92.29,2.7,2.7,5.82,3.26,2.75.49,4.52-.95,4.99,0,.5,1.01-.99,3.69-2.5,5.43-3.36,3.89-8.7,5.28-13.31,3.26-1.53-.67-2.67-1.58-3.33-2.17,3.84-8.44,6.52-10.05,8.32-9.78Z"/>
  <path class="cls-2" d="m170.7,179.13c1.8.29,2.52,2.7,5.44,3.26,2.57.49,4.23-.95,4.67,0,.47,1.01-.92,3.69-2.33,5.43-3.14,3.89-8.13,5.28-12.44,3.26-1.43-.67-2.49-1.58-3.11-2.17,3.58-8.44,6.09-10.05,7.78-9.78Z"/>
  <path class="cls-2" d="m154.48,171.99c1.68.23,2.36,2.15,5.1,2.6,2.41.39,3.96-.76,4.37,0,.44.8-.86,2.94-2.19,4.33-2.95,3.1-7.62,4.21-11.66,2.6-1.34-.54-2.34-1.26-2.92-1.73,3.36-6.73,5.71-8.01,7.29-7.8Z"/>
  <path class="cls-5" d="m166.25,52.91c2.32-2.93,12.24-.9,18.01,5.35,2.89,3.13,4.59,12.04,7.87,29.73,1.91,10.32,2.15,12.99,2.25,14.27.68,8.78-.49,10.22,1.12,15.46,1.84,5.96,2.77,7.05,3.37,10.7.13.8-.02.2,0,7.13.02,6.15.13,7.09-.38,8.94-1,3.66-3.33,6.8-4.12,6.52-.77-.27.66-3.45,0-8.32-.55-4.1-2.07-5.19-3.37-9.51-1.24-4.13-1.13-7.33-1.12-10.7,0-3.23.06-20.9-3.37-36.86-2.65-12.34-5.58-15.28-7.87-16.65-2.86-1.71-4.96-1.11-7.87-3.57-4.05-3.44-6.42-10.1-4.53-12.49Z"/>
  <path class="cls-9" d="m87.63,98.69c-1.27,1.01-3.29-.91-4.49,0-1.17.89-.34,3.52,0,7.13.5,5.33-.29,10.59-1.12,10.7-1.36.18-1.83-13.44-7.3-15-3.07-.87-4.57,3.03-8.99,2.38-5.17-.76-8.64-6.54-8.99-7.13-2.25-3.84-1.61-6.37-3.37-7.13-2.17-.94-4.44,2.34-6.62,3.96-.6-1.37-1.4-2.81-2.6-4.42-1.72-2.34-2.92-3.29-4.33-4.33-1.87-10.11-1.6-25.55,1.97-32.9,3.52.15,6.7.93,13.6.37,1.18-.1,1.82-.18,2.44-.27.92.9,1.46,1.76,3.4,3.12,5.49,3.83,12.02,4.49,14.61,4.76,4.21.43,6.05-.11,6.74,1.19,1.22,2.27-4.42,5.91-3.37,9.51.72,2.48,3.67,1.89,6.18,5.48,1.19,1.7,1.54,3.51,2.25,7.13.69,3.57.02,2.82.56,11.17.14,2.19.28,3.63-.56,4.29Z"/>
  <g>
    <path class="cls-14" d="m26.29,49.72c-.8-.48-1.54-.91-2.19-1.27-6.73-3.75-10.08-4.09-11.74-4.14-.26-.01-.42-.01-.55-.01-.23.01-.38.03-.76.01-3.29-.08-6.93-1.39-10.83-4.72.03-.12.07-.23.12-.35.08-.17.17-.32.27-.46,1.96-2.5,8.75.26,9.78.69,2.05.86,2.53,1.42,3.7,2.06.18.11.67.36,1.51.7,3.46,1.39,6.51,1.63,8.48,3.45,1.08,1.01,1.94,2.6,2.19,4.03Z"/>
    <path class="cls-15" d="m26.37,50.71c-.03.43-.12.84-.31,1.19-.93,1.63-2.9.9-9.13,1.38-4.97.39-5.95.66-7.83,0-2.71-.95-4.29-2.97-5.22-4.14-1.92-2.43-4.41-7.03-3.65-9.55,3.9,3.33,7.54,4.64,10.83,4.72.38.01.52,0,.76-.01.13,0,.29,0,.55.01,1.66.06,5.01.39,11.74,4.14.65.36,1.4.79,2.19,1.27.07.35.09.68.08.99Z"/>
    <path class="cls-7" d="m26.71,40.15c-2.47.73-4.29,2.82-5.22,3.88-2.06,2.36-1.88,3.66-3.91,6.47-1.23,1.71-1.42,1.31-2.16,2.38-.5.73-2.03,3.2-1.76,9.37.25,5.75,1.66,5.28,1.3,8.95-.34,3.47-1.89,7.43-2.61,9.06-.52,1.19-1.07,2.22-1.3,3.88-.16,1.12-.65,4.53,1.3,6.47,1.4,1.39,3.38,1.36,6.52,1.29,4.12-.08,7.19-1.08,7.83-1.29,6.69-2.24,10.68-6.55,11.74-7.76.9-1.03,3.52-4.18,5.22-9.06,1.94-5.59,1.55-10.28,1.3-12.94-.38-4.05-.8-8.55-3.91-12.94-2.99-4.21-9.15-9.3-14.35-7.76Z"/>
    <path class="cls-13" d="m30.62,40.17c-2.52-.21-4.51.96-5.22,1.38-1.63.98-2.48,2.14-3.91,4.14-2.52,3.52-4.04,5.64-3.91,8.28.12,2.41,1.48,2.42,2.61,5.52,1.59,4.37.94,9.91-1.3,13.8-1.82,3.16-4.37,4.67-3.91,5.52.33.61,1.72-.1,3.91,0,4.54.2,6.69,3.57,7.83,2.76,1.2-.85-1.35-4.47-1.3-9.66.05-6.06,3.61-11.07,6.52-15.18,4.13-5.83,6.77-6.72,6.52-9.66-.29-3.36-4.09-6.6-7.83-6.9Z"/>
    <path class="cls-8" d="m10.41,89.17c.06,1.13,1.4,2,2.58,2.76.73.47,2.56,1.5,6.55,1.38,4.03-.12,7.58-.23,8.93-2.76,1.08-2.03.55-5.23-1.11-6.9-4.36-4.38-17.15,2.05-16.96,5.52Z"/>
    <path class="cls-3" d="m8.45,88.48c.39,1.67,3.03,2.82,5.22,2.76,2.41-.06,2.87-1.53,5.22-1.38,1.86.12,2.11,1.09,3.91,1.38,2.34.38,5.42-.66,6.52-2.76,1.98-3.79-2.64-10.8-6.52-11.04-1.98-.12-2.59,1.6-5.22,1.38-2.54-.21-3.38-1.94-5.22-1.38-1.29.39-2.23,1.66-2.61,2.76-.52,1.53.28,2.07,0,4.14-.33,2.45-1.6,2.87-1.3,4.14Z"/>
    <path class="cls-10" d="m20.84,83.65c2.52-2.66,2.61-2.76,2.61-2.76h0s2.49.52,2.61,1.38c.09.64-1.15,1.3-1.3,1.38-1.56.82-3.24.27-3.91,0Z"/>
    <path class="cls-10" d="m15.72,82.89c-2.52-2.66-2.61-2.76-2.61-2.76h0s-2.49.52-2.61,1.38c-.09.64,1.15,1.3,1.3,1.38,1.56.82,3.24.27,3.91,0Z"/>
    <ellipse class="cls-4" cx="33.88" cy="64.32" rx="2.61" ry="2.76"/>
    <ellipse cx="33.49" cy="64.97" rx="1.99" ry="2.14" transform="translate(-4.53 2.54) rotate(-4.07)"/>
    <ellipse class="cls-4" cx="17.5" cy="62.94" rx="2.61" ry="2.76"/>
    <ellipse cx="17.11" cy="63.59" rx="1.99" ry="2.14" transform="translate(-4.47 1.38) rotate(-4.07)"/>
    <ellipse class="cls-1" cx="34.54" cy="63.63" rx=".65" ry=".69"/>
    <ellipse class="cls-1" cx="17.58" cy="62.25" rx=".65" ry=".69"/>
    <path class="cls-14" d="m39.1,51.9c2.05.04,3.67-3.59,3.91-4.14.81-1.81.68-2.21,1.3-2.76,2.27-2,7.62,1.78,7.83,1.38.22-.43-5.55-5.9-9.13-4.14-1.34.66-1.17,1.62-3.91,4.14-1.65,1.52-2.55,1.81-2.61,2.76-.08,1.24,1.31,2.73,2.61,2.76Z"/>
    <path class="cls-15" d="m38.45,51.21c.11,1.1,1.93,1.96,3.26,2.07.81.07,1.63-.19,3.26-.69,1.05-.32,1.82-.63,1.96-.69,3.78-1.54,5.77-2.35,5.87-3.45.17-1.95-5.48-5.16-8.48-3.45-.59.34-.5.49-1.96,2.07-2.61,2.82-4.01,3.14-3.91,4.14Z"/>
  </g>
  <path class="cls-9" d="m135.39,87.27c-.69,1.31-1.66.84-5.62,3.57-.81.56-3.65,2.52-5.62,4.76-4.74,5.4-2.72,10.52-5.62,11.89-3.58,1.69-10.34-4.45-13.48-10.7-1.3-2.59-2.56-5.1-2.25-8.32.71-7.22,8.49-9.33,7.87-14.27-.47-3.67-4.98-3.89-5.62-8.32-.6-4.13,2.76-7.68,3.37-8.32,4.22-4.47,11.92-5.7,15.73-2.38,3.15,2.74.83,6.14,3.37,14.27,3.17,10.13,9.71,14.32,7.87,17.84Z"/>
  <path class="cls-9" d="m179.21,100.35c-2.03.33-3.7-5.26-6.74-4.76-1.56.26-2.9,2.02-3.37,3.57-.39,1.3-.03,1.95,0,3.57.04,2.02-.43,5.61-2.25,7.13-2.89,2.41-8.53-.9-8.99-1.19-5.34-3.23-7.17-9.39-7.87-11.89-1.88-6.66.3-8.31-1.12-14.27-1.49-6.24-4.57-7.27-8.99-14.27-3.55-5.64-6.29-12.47-7.26-17.42,4.56.25,8.63.26,12.65.31h.2c1.35.86,2.84,1.81,4.52,2.84,8.38,5.2,9.27,5.2,15.73,9.51,8.44,5.64,12.65,8.45,14.61,11.89,5.75,10.13,1.98,24.46-1.12,24.97Z"/>
  <path class="cls-11" d="m196,148c-.21-.03.37-2.09,0-5-.63-4.91-3.35-7.51-4-12-.06-.41-.21-1.55,0-3,.18-1.24.65-3.03,1-3,.52.05-.42,4.07,1,9,1.16,4.02,2.71,4.52,3,8,.27,3.19-.76,6.03-1,6Z"/>
  <path class="cls-11" d="m198.55,142.98c-.21-.02.37-1.27,0-3.04-.63-2.98-3.35-4.57-4-7.3-.06-.25-.21-.94,0-1.82.18-.75.65-1.84,1-1.82.52.03-.42,2.48,1,5.47,1.16,2.44,2.71,2.75,3,4.86.27,1.94-.76,3.67-1,3.65Z"/>
</svg>