<?xml version="1.0" encoding="UTF-8"?>
<svg id="_Слой_1" data-name="Слой 1" xmlns="http://www.w3.org/2000/svg" viewBox="0 0 200 200">
  <defs>
    <style>
      .cls-1, .cls-2 {
        stroke-linecap: round;
        stroke-linejoin: round;
      }

      .cls-1, .cls-2, .cls-3, .cls-4, .cls-5 {
        stroke: #8c6239;
      }

      .cls-1, .cls-4 {
        fill: #f2d8a0;
      }

      .cls-2 {
        fill: none;
      }

      .cls-6, .cls-7 {
        fill: #fff;
      }

      .cls-3 {
        fill: #efcd89;
      }

      .cls-3, .cls-4, .cls-8, .cls-5, .cls-7 {
        stroke-miterlimit: 10;
      }

      .cls-9 {
        fill: #d1bd93;
        opacity: .44;
      }

      .cls-8 {
        fill: #4d4d4d;
      }

      .cls-8, .cls-7 {
        stroke: #000;
      }

      .cls-5 {
        fill: #7a5d2a;
      }
    </style>
  </defs>
  <path class="cls-5" d="m140.06,131.05c4.61,2.9,3.89,8.03,12.88,18.05,3.87,4.31,7.45,7.42,9.76,9.31-.45-4.46-.89-8.93-1.34-13.39,5.36,3.13,10.72,6.25,16.07,9.38-4.43-5.56-8.14-11.06-6.79-12.65,1.97-2.32,13.32,5.25,14.82,3.28,1.87-2.46-13.95-16.55-12.24-18.74,1.36-1.73,12.52,5.47,13.57,4.01,1.32-1.83-15.32-14.3-13.38-17.66,1.6-2.77,14.95,2.09,15.22,1.27.28-.86-17.2-6.56-16.68-9.17.47-2.35,15.21-.31,15.8-2.93.7-3.09-19.09-9.25-18.49-11.56.61-2.34,21.59,1.21,21.8.05.21-1.16-20.88-5.12-20.63-8.44.18-2.39,11.27-2.65,11.37-4.83.12-2.89-19.25-5.44-19.07-7.37.16-1.72,15.65-1.22,15.8-2.93.17-1.91-19.13-4.16-19.07-7.37.04-2.32,10.18-3.95,10.05-4.58-.15-.75-14.04,2.42-14.97.05-1.08-2.76,16.23-10.93,15.17-13.71-1.1-2.86-20.51,3.14-21.8-.05-1.17-2.89,13.64-10.77,12.54-13.22-1.24-2.75-20.57,5.84-24.44.44-2.83-3.96,4.37-13.01,2.83-14.15-2.19-1.62-16.7,16.91-20.44,14.68-3-1.79,2.42-16.03,1.03-16.54-1.37-.5-6.33,13.35-9.9,12.73-3.41-.59-3.35-13.96-5.32-14-1.95-.04-2.87,13.14-5.71,13.32-2.79.17-4.74-12.33-7.71-12.2-3.03.14-3.68,13.34-7.02,13.56-2.96.2-5.62-9.95-7.22-9.56-1.54.38.81,9.88-2,11.27-3.34,1.65-11.82-9.15-12.49-8.59-.65.56,8.05,10.43,6.39,12.44-1.87,2.27-15.78-6.98-17.27-4.98-1.07,1.44,5.47,7.09,4.34,8.73-1.64,2.38-17.45-6.52-18.58-4.73-1.06,1.66,11.92,10.49,10.58,13.02-1.52,2.88-20.39-4.41-20.97-2.93-.51,1.29,13.51,7.39,12.73,9.9-.71,2.31-13.32-.53-14.49,2.68-.83,2.27,4.87,5.28,4.1,7.41-1.26,3.47-17.66-.72-18.68,2.1-1.12,3.1,17.47,11.45,16.34,14.68-.96,2.76-15.56-.37-16.05,1.61-.45,1.8,11.37,5.56,10.93,7.51-.51,2.25-16.75-.52-17.37,1.85-.69,2.68,19.11,9.45,18.49,11.56-.54,1.82-15.82-1.45-16.29.29-.46,1.72,14.37,5.6,14.05,9.66-.32,4.01-15.22,5.4-15.07,6.88.08.8,14.8-2.66,16.54,1.03,1.1,2.34-3.62,6.21-2.73,7.32,1.36,1.7,13.14-6.42,14-5.32,1.18,1.5-19.09,18.46-18.15,19.71.42.55,16.91-14.16,19.61-11.8,2.18,1.9-6.46,13.29-3.9,15.71,2.86,2.7,16.9-8.41,17.71-7.36.91,1.18-16.49,15.98-16,16.58.51.62,19.8-14.41,20.68-13.36.74.87-12.65,11.4-10.98,14.29,1.56,2.69,15.22-2.96,38.78-11.27,42.6-15.01,51.95-15.56,59.27-10.97Z"/>
  <g>
    <path class="cls-6" d="m40.59,123.05c-.18.38-13.46-2.76-13.02-4.58.18-.73,2.51-1.05,6.88-1.64,3.04-.41,5.95-.58,5.98-.29.04.42-6.05.97-6.38,2.59-.37,1.8,6.68,3.64,6.55,3.92Z"/>
    <path class="cls-6" d="m38.07,111.18c-.21.37-13-3.94-12.37-5.73.25-.72,2.58-.83,6.96-1.04,3.05-.15,5.93-.07,5.93.23,0,.43-6.08.45-6.57,2.04-.55,1.78,6.22,4.23,6.06,4.5Z"/>
    <path class="cls-6" d="m53.23,111.48c-.18.38-13.46-2.76-13.02-4.58.18-.73,2.51-1.05,6.88-1.64,3.04-.41,5.95-.58,5.98-.29.04.42-6.05.97-6.38,2.59-.37,1.8,6.68,3.64,6.55,3.92Z"/>
    <path class="cls-6" d="m50.72,99.61c-.21.37-13-3.94-12.37-5.73.25-.72,2.58-.83,6.96-1.04,3.05-.15,5.93-.07,5.93.23,0,.43-6.08.45-6.57,2.04-.55,1.78,6.22,4.23,6.06,4.5Z"/>
    <path class="cls-6" d="m37.85,96.84c-.21.37-13-3.94-12.37-5.73.25-.72,2.58-.83,6.96-1.04,3.05-.15,5.93-.07,5.93.23,0,.43-6.08.45-6.57,2.04-.55,1.78,6.22,4.23,6.06,4.5Z"/>
    <path class="cls-6" d="m35.46,84.77c-.32.27-11.01-8.22-9.83-9.68.47-.59,2.71.12,6.92,1.44,2.93.92,5.63,2,5.53,2.28-.14.4-5.89-1.69-6.88-.37-1.1,1.47,4.5,6.13,4.26,6.33Z"/>
    <path class="cls-6" d="m38.57,73.29c-.36.22-9.62-9.59-8.22-10.88.56-.52,2.67.48,6.63,2.35,2.76,1.3,5.27,2.73,5.13,2.99-.2.37-5.57-2.46-6.76-1.29-1.32,1.31,3.49,6.66,3.23,6.82Z"/>
    <path class="cls-6" d="m51.81,80.69c-.34.25-10.58-8.76-9.33-10.16.5-.56,2.7.26,6.84,1.79,2.88,1.07,5.52,2.28,5.41,2.55-.16.39-5.8-1.99-6.85-.71-1.17,1.42,4.18,6.35,3.94,6.54Z"/>
    <path class="cls-6" d="m58.34,73.53c-.4.13-7.11-11.58-5.44-12.5.67-.37,2.48,1.09,5.89,3.84,2.38,1.91,4.48,3.89,4.28,4.11-.29.32-4.84-3.7-6.27-2.84-1.59.96,1.83,7.29,1.54,7.39Z"/>
    <path class="cls-6" d="m48.67,64.92c-.4.16-7.86-11.08-6.27-12.11.64-.41,2.55.93,6.14,3.44,2.5,1.75,4.73,3.58,4.55,3.81-.26.33-5.08-3.37-6.45-2.41-1.53,1.07,2.32,7.16,2.03,7.27Z"/>
    <path class="cls-6" d="m53.12,89.43c-.19.37-13.32-3.37-12.79-5.18.21-.72,2.55-.93,6.94-1.32,3.06-.27,5.97-.31,5.98-.02.02.42-6.09.7-6.5,2.3-.45,1.78,6.5,3.94,6.36,4.22Z"/>
    <path class="cls-6" d="m54.91,58.48c-.42-.02-2.61-13.49-.76-13.78.74-.12,1.93,1.91,4.15,5.72,1.55,2.65,2.82,5.27,2.56,5.41-.37.2-3.22-5.22-4.84-4.9-1.81.35-.8,7.56-1.11,7.55Z"/>
    <path class="cls-6" d="m64.91,51.61c-.42-.06-1.35-13.52.55-13.63.76-.04,1.76,2.07,3.63,6.03,1.3,2.76,2.33,5.45,2.06,5.56-.4.16-2.75-5.44-4.41-5.29-1.85.17-1.53,7.36-1.84,7.32Z"/>
    <path class="cls-6" d="m70.44,65.73c-.42-.02-2.61-13.49-.76-13.78.74-.12,1.93,1.91,4.15,5.72,1.55,2.65,2.82,5.27,2.56,5.41-.37.2-3.22-5.22-4.84-4.9-1.81.35-.8,7.56-1.11,7.55Z"/>
    <path class="cls-6" d="m80.44,58.86c-.42-.06-1.35-13.52.55-13.63.76-.04,1.76,2.07,3.63,6.03,1.3,2.76,2.33,5.45,2.06,5.56-.4.16-2.75-5.44-4.41-5.29-1.85.17-1.53,7.36-1.84,7.32Z"/>
    <path class="cls-6" d="m78.07,45.91c-.42-.06-1.35-13.52.55-13.63.76-.04,1.76,2.07,3.63,6.03,1.3,2.76,2.33,5.45,2.06,5.56-.4.16-2.75-5.44-4.41-5.29-1.85.17-1.53,7.36-1.84,7.32Z"/>
    <path class="cls-6" d="m88.3,39.08c-.37-.19,3.37-13.32,5.17-12.79.72.21.93,2.55,1.32,6.94.27,3.06.31,5.97.02,5.98-.42.02-.7-6.09-2.3-6.5-1.78-.45-3.94,6.5-4.22,6.36Z"/>
    <path class="cls-6" d="m100.1,37.55c-.35-.25,5.17-12.57,6.9-11.77.69.32.58,2.65.37,7.03-.15,3.05-.5,5.91-.8,5.88-.42-.04.13-6.09-1.4-6.74-1.72-.72-4.81,5.78-5.06,5.6Z"/>
    <path class="cls-6" d="m98.34,52.61c-.36-.21,4.03-13.13,5.81-12.52.71.25.8,2.6.97,7,.12,3.07,0,5.98-.28,5.98-.42,0-.39-6.12-1.97-6.6-1.76-.54-4.26,6.3-4.53,6.14Z"/>
    <path class="cls-6" d="m110.4,51.25c-.35-.25,5.17-12.57,6.9-11.77.69.32.58,2.65.37,7.03-.15,3.05-.5,5.91-.8,5.88-.42-.04.13-6.09-1.4-6.74-1.72-.72-4.81,5.78-5.06,5.6Z"/>
    <path class="cls-6" d="m114.39,38.71c-.35-.25,5.17-12.57,6.9-11.77.69.32.58,2.65.37,7.03-.15,3.05-.5,5.91-.8,5.88-.42-.04.13-6.09-1.4-6.74-1.72-.72-4.81,5.78-5.06,5.6Z"/>
    <path class="cls-6" d="m90.77,57.18c-.42-.04-1.99-13.59-.12-13.8.75-.08,1.84,2,3.88,5.91,1.42,2.72,2.57,5.39,2.31,5.52-.38.18-2.98-5.36-4.61-5.12-1.82.27-1.15,7.52-1.46,7.49Z"/>
    <path class="cls-6" d="m129.45,44.01c-.22-.36,9.69-9.52,10.97-8.11.51.57-.51,2.67-2.42,6.61-1.33,2.74-2.79,5.24-3.04,5.09-.37-.21,2.52-5.55,1.36-6.75-1.29-1.34-6.7,3.42-6.86,3.16Z"/>
    <path class="cls-6" d="m121.91,57.16c-.25-.34,8.87-10.49,10.26-9.22.56.51-.28,2.7-1.86,6.82-1.1,2.87-2.34,5.5-2.61,5.38-.39-.17,2.05-5.78.79-6.85-1.4-1.19-6.4,4.11-6.58,3.87Z"/>
    <path class="cls-6" d="m133.53,60.65c-.22-.36,9.69-9.52,10.97-8.11.51.57-.51,2.67-2.42,6.61-1.33,2.74-2.79,5.24-3.04,5.09-.37-.21,2.52-5.55,1.36-6.75-1.29-1.34-6.7,3.42-6.86,3.16Z"/>
    <path class="cls-6" d="m142.13,50.69c-.22-.36,9.69-9.52,10.97-8.11.51.57-.51,2.67-2.42,6.61-1.33,2.74-2.79,5.24-3.04,5.09-.37-.21,2.52-5.55,1.36-6.75-1.29-1.34-6.7,3.42-6.86,3.16Z"/>
    <path class="cls-6" d="m69.16,114.93c-.13.3-10.27-2.51-9.97-3.97.12-.58,1.88-.79,5.18-1.16,2.3-.26,4.5-.34,4.53-.1.04.34-4.57.65-4.79,1.94-.24,1.44,5.14,3.07,5.05,3.29Z"/>
    <path class="cls-6" d="m66.99,105.33c-.15.29-9.95-3.45-9.51-4.88.18-.57,1.94-.61,5.25-.69,2.31-.05,4.5.08,4.5.31,0,.34-4.6.23-4.94,1.5-.38,1.42,4.81,3.54,4.69,3.75Z"/>
    <path class="cls-6" d="m67.4,90.16c-.25.2-8.22-7.27-7.3-8.37.37-.44,2.06.26,5.22,1.59,2.21.92,4.24,1.95,4.16,2.17-.11.31-4.44-1.72-5.21-.72-.86,1.11,3.31,5.19,3.13,5.34Z"/>
    <path class="cls-6" d="m72.2,84.55c-.3.1-5.64-9.46-4.4-10.17.5-.28,1.91.93,4.55,3.21,1.84,1.59,3.48,3.22,3.34,3.39-.21.25-3.75-3.08-4.82-2.42-1.19.74,1.55,5.9,1.33,5.97Z"/>
    <path class="cls-6" d="m68.59,97.2c-.14.3-10.18-3-9.81-4.44.14-.58,1.92-.69,5.24-.91,2.31-.15,4.52-.12,4.54.12.03.34-4.6.43-4.88,1.7-.3,1.42,5.02,3.31,4.92,3.53Z"/>
    <path class="cls-6" d="m81.21,78.54c-.32-.02-2.28-10.89-.87-11.09.56-.08,1.5,1.58,3.27,4.69,1.23,2.16,2.25,4.3,2.06,4.4-.28.15-2.56-4.26-3.78-4.04-1.36.24-.44,6.06-.68,6.04Z"/>
    <path class="cls-6" d="m88.65,73.24c-.32-.06-1.32-10.89.12-10.94.58-.02,1.38,1.7,2.89,4.92,1.05,2.24,1.89,4.43,1.69,4.52-.3.12-2.2-4.43-3.46-4.34-1.4.1-1,5.88-1.23,5.84Z"/>
    <path class="cls-6" d="m102.08,68.62c-.28-.18,2.77-10.46,4.13-9.93.54.21.66,2.1.89,5.65.16,2.47.14,4.8-.08,4.79-.32,0-.43-4.92-1.64-5.35-1.35-.47-3.1,4.97-3.3,4.84Z"/>
    <path class="cls-6" d="m111.2,67.78c-.27-.21,3.65-9.98,4.97-9.3.53.27.5,2.14.43,5.65-.04,2.44-.25,4.74-.48,4.71-.32-.05-.03-4.89-1.21-5.44-1.32-.62-3.52,4.54-3.72,4.39Z"/>
    <path class="cls-6" d="m96.44,72.11c-.32-.04-1.81-10.96-.39-11.09.57-.05,1.44,1.65,3.07,4.83,1.14,2.22,2.07,4.39,1.87,4.48-.29.14-2.37-4.37-3.61-4.21-1.38.17-.71,6.02-.94,5.99Z"/>
    <path class="cls-6" d="m80.33,110.4c-.29.15-6.1-8.63-4.92-9.54.47-.36,1.93.64,4.67,2.52,1.91,1.31,3.62,2.7,3.48,2.89-.19.28-3.87-2.51-4.89-1.67-1.13.93,1.87,5.69,1.65,5.8Z"/>
    <path class="cls-6" d="m84.99,101.74c-.31.12-5.24-9.13-3.98-9.92.51-.32,1.87.81,4.42,2.93,1.77,1.48,3.34,3.01,3.19,3.19-.22.26-3.62-2.85-4.71-2.11-1.22.82,1.31,5.82,1.08,5.91Z"/>
    <path class="cls-6" d="m95.26,90.56c-.32-.02-1.43-10.88-.02-11.11.57-.09,1.38,1.55,2.9,4.63,1.06,2.14,1.92,4.26,1.72,4.37-.29.16-2.22-4.21-3.46-3.97-1.38.28-.91,6.09-1.14,6.08Z"/>
    <path class="cls-6" d="m102.56,89.47c-.29-.13,1.95-10.84,3.35-10.56.56.11.83,1.96,1.33,5.41.35,2.41.51,4.72.29,4.75-.32.05-.81-4.78-2.05-4.99-1.38-.22-2.7,5.47-2.92,5.38Z"/>
    <path class="cls-6" d="m91.53,96.66c-.3.13-5.71-8.94-4.49-9.79.49-.34,1.9.74,4.55,2.75,1.84,1.4,3.49,2.88,3.35,3.07-.2.27-3.75-2.7-4.8-1.92-1.16.87,1.62,5.79,1.4,5.89Z"/>
    <g>
      <path d="m51.99,123.52c-.12.36-12.08-1.36-11.87-3.03.08-.67,2.1-1.14,5.87-2.02,2.63-.61,5.16-1,5.21-.75.08.37-5.21,1.36-5.34,2.83-.15,1.64,6.22,2.7,6.14,2.96Z"/>
      <path d="m48.61,113.13c-.15.35-11.8-2.45-11.43-4.11.15-.66,2.18-.95,6-1.5,2.66-.38,5.2-.54,5.23-.28.04.38-5.29.9-5.56,2.36-.31,1.63,5.87,3.27,5.76,3.53Z"/>
      <path d="m61.94,112.17c-.12.36-12.08-1.36-11.87-3.03.08-.67,2.1-1.14,5.87-2.02,2.63-.61,5.16-1,5.21-.75.08.37-5.21,1.36-5.34,2.83-.15,1.64,6.22,2.7,6.14,2.96Z"/>
      <path d="m58.55,101.78c-.15.35-11.8-2.45-11.43-4.11.15-.66,2.18-.95,6-1.5,2.66-.38,5.2-.54,5.23-.28.04.38-5.29.9-5.56,2.36-.31,1.63,5.87,3.27,5.76,3.53Z"/>
      <path d="m46.99,100.36c-.15.35-11.8-2.45-11.43-4.11.15-.66,2.18-.95,6-1.5,2.66-.38,5.2-.54,5.23-.28.04.38-5.29.9-5.56,2.36-.31,1.63,5.87,3.27,5.76,3.53Z"/>
      <path d="m43.69,89.78c-.26.27-10.48-6.43-9.59-7.84.36-.56,2.39-.11,6.21.72,2.66.58,5.14,1.33,5.08,1.58-.09.37-5.34-1.03-6.07.23-.82,1.41,4.56,5.11,4.37,5.3Z"/>
      <path d="m45.28,79.29c-.3.23-9.4-7.77-8.3-9.04.44-.51,2.39.21,6.05,1.56,2.55.94,4.89,2.01,4.8,2.25-.14.35-5.14-1.74-6.06-.6-1.03,1.28,3.73,5.66,3.51,5.83Z"/>
      <path d="m57.63,84.81c-.27.25-10.16-6.95-9.2-8.31.38-.54,2.4,0,6.18,1.04,2.63.72,5.07,1.59,5,1.84-.1.36-5.29-1.3-6.08-.08-.89,1.36,4.3,5.33,4.1,5.51Z"/>
      <path d="m62.64,77.89c-.34.15-7.39-9.75-6.02-10.71.55-.38,2.29.77,5.55,2.95,2.27,1.51,4.32,3.11,4.17,3.32-.22.31-4.62-2.91-5.78-2.02-1.3.99,2.34,6.36,2.08,6.47Z"/>
      <path d="m53.31,70.99c-.33.17-8-9.25-6.7-10.3.52-.42,2.33.62,5.73,2.57,2.37,1.36,4.51,2.81,4.37,3.03-.2.32-4.79-2.59-5.9-1.63-1.23,1.07,2.74,6.2,2.5,6.32Z"/>
      <path d="m59.65,92.5c-.13.35-12.02-1.92-11.74-3.58.11-.66,2.15-1.04,5.96-1.74,2.66-.49,5.21-.76,5.25-.5.06.38-5.27,1.12-5.47,2.58-.22,1.63,6.1,2.99,6,3.24Z"/>
      <path d="m58.14,64.74c-.37.02-3.64-11.82-2.03-12.23.64-.16,1.88,1.55,4.21,4.77,1.62,2.24,3,4.47,2.78,4.62-.31.21-3.34-4.39-4.73-3.98-1.55.46.05,6.81-.22,6.83Z"/>
      <path d="m66.24,57.79c-.38-.02-2.53-11.95-.87-12.2.66-.1,1.75,1.7,3.78,5.08,1.42,2.35,2.59,4.68,2.36,4.8-.33.17-2.95-4.63-4.39-4.36-1.61.3-.61,6.7-.88,6.68Z"/>
      <path d="m72.49,69.94c-.37.02-3.64-11.82-2.03-12.23.64-.16,1.88,1.55,4.21,4.77,1.62,2.24,3,4.47,2.78,4.62-.31.21-3.34-4.39-4.73-3.98-1.55.46.05,6.81-.22,6.83Z"/>
      <path d="m80.58,62.99c-.38-.02-2.53-11.95-.87-12.2.66-.1,1.75,1.7,3.78,5.08,1.42,2.35,2.59,4.68,2.36,4.8-.33.17-2.95-4.63-4.39-4.36-1.61.3-.61,6.7-.88,6.68Z"/>
      <path d="m77.21,51.63c-.38-.02-2.53-11.95-.87-12.2.66-.1,1.75,1.7,3.78,5.08,1.42,2.35,2.59,4.68,2.36,4.8-.33.17-2.95-4.63-4.39-4.36-1.61.3-.61,6.7-.88,6.68Z"/>
      <path d="m85.51,44.7c-.35-.14,1.63-12.16,3.27-11.84.66.13,1.07,2.2,1.85,6.09.54,2.71.86,5.3.61,5.34-.37.05-1.22-5.38-2.66-5.61-1.61-.26-2.81,6.13-3.07,6.02Z"/>
      <path d="m95.7,42.38c-.33-.19,3.29-11.63,4.88-11.06.64.23.77,2.32,1.02,6.24.17,2.73.15,5.32-.11,5.31-.38,0-.49-5.45-1.9-5.9-1.58-.5-3.65,5.55-3.89,5.41Z"/>
      <path d="m95.66,55.96c-.34-.16,2.23-12.05,3.85-11.64.65.16.96,2.25,1.55,6.17.41,2.73.6,5.33.35,5.36-.37.03-.95-5.43-2.38-5.73-1.6-.34-3.11,5.97-3.36,5.85Z"/>
      <path d="m106.1,53.76c-.33-.19,3.29-11.63,4.88-11.06.64.23.77,2.32,1.02,6.24.17,2.73.15,5.32-.11,5.31-.38,0-.49-5.45-1.9-5.9-1.58-.5-3.65,5.55-3.89,5.41Z"/>
      <path d="m108.36,42.24c-.33-.19,3.29-11.63,4.88-11.06.64.23.77,2.32,1.02,6.24.17,2.73.15,5.32-.11,5.31-.38,0-.49-5.45-1.9-5.9-1.58-.5-3.65,5.55-3.89,5.41Z"/>
      <path d="m89.48,60.65c-.37,0-3.1-11.97-1.48-12.3.65-.13,1.81,1.64,3.99,4.95,1.52,2.31,2.79,4.6,2.57,4.74-.32.19-3.14-4.54-4.55-4.19-1.57.39-.26,6.8-.53,6.8Z"/>
      <path d="m122.1,45.74c-.23-.31,7.56-9.29,8.82-8.13.5.46-.18,2.42-1.47,6.09-.9,2.56-1.93,4.9-2.16,4.79-.35-.16,1.66-5.16.52-6.13-1.27-1.09-5.54,3.6-5.7,3.38Z"/>
      <path d="m116.79,58.09c-.25-.28,6.74-10.08,8.09-9.07.54.41.02,2.43-.96,6.24-.68,2.65-1.51,5.1-1.75,5.02-.36-.12,1.22-5.32.01-6.17-1.35-.95-5.2,4.19-5.39,3.99Z"/>
      <path d="m127.34,60.26c-.23-.31,7.56-9.29,8.82-8.13.5.46-.18,2.42-1.47,6.09-.9,2.56-1.93,4.9-2.16,4.79-.35-.16,1.66-5.16.52-6.13-1.27-1.09-5.54,3.6-5.7,3.38Z"/>
      <path d="m133.89,50.67c-.23-.31,7.56-9.29,8.82-8.13.5.46-.18,2.42-1.47,6.09-.9,2.56-1.93,4.9-2.16,4.79-.35-.16,1.66-5.16.52-6.13-1.27-1.09-5.54,3.6-5.7,3.38Z"/>
      <path d="m76.25,113.94c-.08.28-9.26-1.4-9.14-2.73.05-.53,1.57-.85,4.43-1.46,1.99-.42,3.91-.67,3.96-.46.07.3-3.94.95-4.01,2.12-.07,1.3,4.82,2.32,4.76,2.52Z"/>
      <path d="m73.4,105.56c-.11.27-9.07-2.27-8.83-3.58.1-.52,1.64-.7,4.54-1.04,2.02-.23,3.95-.3,3.98-.09.04.3-4.01.58-4.19,1.74-.19,1.29,4.57,2.77,4.49,2.96Z"/>
      <path d="m72.25,91.98c-.2.2-7.93-5.82-7.24-6.87.28-.42,1.83.07,4.74.99,2.03.64,3.91,1.4,3.87,1.6-.07.29-4.07-1.17-4.65-.22-.64,1.06,3.42,4.37,3.28,4.51Z"/>
      <path d="m75.9,86.59c-.26.11-5.89-7.98-4.87-8.71.41-.29,1.77.68,4.32,2.5,1.78,1.27,3.38,2.59,3.27,2.76-.16.24-3.6-2.44-4.47-1.76-.97.75,1.95,5.14,1.76,5.22Z"/>
      <path d="m74,98.17c-.09.28-9.23-1.85-9.05-3.16.07-.53,1.61-.77,4.5-1.24,2.01-.32,3.95-.47,3.99-.27.06.3-4,.76-4.11,1.92-.13,1.29,4.73,2.54,4.66,2.75Z"/>
      <path d="m83.21,80.49c-.28,0-3.08-9.53-1.87-9.82.49-.11,1.48,1.29,3.34,3.92,1.29,1.83,2.4,3.65,2.24,3.76-.23.16-2.67-3.59-3.72-3.3-1.17.33.21,5.44,0,5.45Z"/>
      <path d="m89.21,75.15c-.29-.02-2.24-9.61-.98-9.77.5-.06,1.38,1.4,3.02,4.16,1.14,1.92,2.1,3.8,1.93,3.89-.25.13-2.37-3.77-3.47-3.59-1.22.2-.29,5.33-.5,5.31Z"/>
      <path d="m100.53,69.93c-.26-.14,1.39-9.56,2.64-9.2.5.15.79,1.82,1.34,4.97.38,2.19.6,4.27.4,4.29-.28.02-.87-4.36-1.97-4.64-1.23-.31-2.22,4.68-2.42,4.58Z"/>
      <path d="m108.45,68.45c-.26-.16,2.21-9.2,3.44-8.71.49.2.65,1.87.94,5.01.2,2.18.25,4.25.05,4.24-.29-.01-.51-4.36-1.6-4.76-1.22-.44-2.64,4.34-2.83,4.22Z"/>
      <path d="m95.94,73.51c-.28,0-2.68-9.64-1.45-9.86.49-.09,1.42,1.35,3.17,4.06,1.22,1.89,2.25,3.75,2.09,3.85-.24.15-2.52-3.71-3.59-3.47-1.19.27-.02,5.43-.23,5.42Z"/>
      <path d="m85.6,108.99c-.24.15-6.21-7.2-5.27-8.11.38-.36,1.76.41,4.35,1.87,1.8,1.01,3.44,2.11,3.34,2.3-.14.27-3.65-1.92-4.45-1.1-.9.92,2.2,4.93,2.03,5.04Z"/>
      <path d="m88.83,100.88c-.26.13-5.51-7.72-4.47-8.53.41-.32,1.72.57,4.16,2.26,1.7,1.17,3.23,2.41,3.12,2.59-.17.25-3.46-2.24-4.34-1.5-.99.83,1.72,5.09,1.54,5.19Z"/>
      <path d="m96.73,90.07c-.28.01-2.34-9.59-1.12-9.91.49-.13,1.36,1.27,3.01,3.89,1.14,1.83,2.1,3.64,1.94,3.76-.24.17-2.37-3.58-3.43-3.26-1.18.36-.19,5.51-.4,5.52Z"/>
      <path d="m103.03,88.51c-.27-.09.63-9.83,1.89-9.7.5.05.92,1.68,1.7,4.72.55,2.12.92,4.17.73,4.22-.28.07-1.19-4.2-2.3-4.28-1.23-.09-1.83,5.1-2.02,5.04Z"/>
      <path d="m94.07,95.81c-.25.14-5.9-7.51-4.92-8.37.39-.34,1.74.5,4.26,2.08,1.76,1.1,3.35,2.28,3.24,2.46-.15.26-3.56-2.1-4.4-1.32-.93.87,1.99,5.04,1.81,5.14Z"/>
    </g>
  </g>
  <path class="cls-6" d="m120.62,67.74c-.24-.31,10.12-8.55,11.48-7.36.54.48-.51,2.33-2.48,5.81-1.37,2.42-2.88,4.63-3.15,4.51-.4-.17,2.59-4.89,1.36-5.9-1.38-1.12-7.03,3.17-7.2,2.94Z"/>
  <path class="cls-6" d="m127.54,73.94c-.1-.36,12.77-5.32,13.59-3.81.33.61-1.37,2.08-4.55,4.84-2.22,1.92-4.47,3.61-4.69,3.42-.31-.27,4.3-3.93,3.53-5.24-.87-1.45-7.81,1.06-7.88.79Z"/>
  <path class="cls-6" d="m137.43,66.18c-.13-.35,12.31-6.02,13.25-4.55.38.59-1.2,2.15-4.15,5.08-2.06,2.04-4.17,3.84-4.4,3.67-.33-.25,3.98-4.16,3.1-5.42-.98-1.4-7.7,1.49-7.8,1.23Z"/>
  <path class="cls-6" d="m143.61,72.07c.06-.36,14.37-1.28,14.51.35.06.65-2.18,1.53-6.36,3.18-2.92,1.15-5.77,2.06-5.89,1.83-.18-.34,5.75-2.41,5.57-3.84-.21-1.6-7.86-1.25-7.82-1.52Z"/>
  <path class="cls-6" d="m149.93,81.26c.1-.36,14.29-.18,14.23,1.48-.02.66-2.32,1.38-6.64,2.71-3,.93-5.92,1.63-6.01,1.38-.13-.35,5.94-1.98,5.93-3.44-.01-1.62-7.58-1.87-7.51-2.13Z"/>
  <path class="cls-6" d="m134.64,85.03c.06-.36,14.37-1.28,14.51.35.06.65-2.18,1.53-6.36,3.18-2.92,1.15-5.77,2.06-5.89,1.83-.18-.34,5.75-2.41,5.57-3.84-.21-1.6-7.86-1.25-7.82-1.52Z"/>
  <path class="cls-6" d="m140.96,94.22c.1-.36,14.29-.18,14.23,1.48-.02.66-2.32,1.38-6.64,2.71-3,.93-5.92,1.63-6.01,1.38-.13-.35,5.94-1.98,5.93-3.44-.01-1.62-7.58-1.87-7.51-2.13Z"/>
  <path class="cls-6" d="m154.74,93.11c.1-.36,14.29-.18,14.23,1.48-.02.66-2.32,1.38-6.64,2.71-3,.93-5.92,1.63-6.01,1.38-.13-.35,5.94-1.98,5.93-3.44-.01-1.62-7.58-1.87-7.51-2.13Z"/>
  <path class="cls-6" d="m161,102.5c.24-.31,13.66,3.9,12.95,5.43-.29.61-2.76.62-7.39.64-3.23.01-6.28-.17-6.27-.42.02-.37,6.44-.16,7.01-1.52.63-1.52-6.47-3.9-6.29-4.13Z"/>
  <path class="cls-6" d="m161.55,112.85c.29-.28,12.71,5.41,11.72,6.85-.4.58-2.83.31-7.4-.19-3.18-.35-6.15-.87-6.09-1.12.08-.36,6.37.56,7.19-.73.91-1.44-5.63-4.6-5.42-4.81Z"/>
  <path class="cls-6" d="m145.92,110.22c.26-.3,13.41,4.47,12.6,5.97-.32.6-2.79.51-7.42.33-3.22-.12-6.26-.43-6.24-.68.04-.37,6.45.11,7.09-1.22.72-1.49-6.22-4.17-6.04-4.38Z"/>
  <path class="cls-6" d="m146.28,120.79c.29-.28,12.71,5.41,11.72,6.85-.4.58-2.83.31-7.4-.19-3.18-.35-6.15-.87-6.09-1.12.08-.36,6.37.56,7.19-.73.91-1.44-5.63-4.6-5.42-4.81Z"/>
  <path class="cls-6" d="m159.07,125.18c.29-.28,12.71,5.41,11.72,6.85-.4.58-2.83.31-7.4-.19-3.18-.35-6.15-.87-6.09-1.12.08-.36,6.37.56,7.19-.73.91-1.44-5.63-4.6-5.42-4.81Z"/>
  <path class="cls-6" d="m141.81,103.31c.08-.36,14.42-.73,14.47.91.02.66-2.26,1.45-6.53,2.94-2.98,1.04-5.88,1.84-5.99,1.6-.16-.35,5.88-2.19,5.77-3.63-.12-1.6-7.78-1.55-7.72-1.81Z"/>
  <path class="cls-6" d="m139.07,130.36c.38-.19,10.21,8.48,8.76,9.59-.58.45-2.81-.45-6.98-2.12-2.91-1.16-5.55-2.44-5.41-2.66.21-.33,5.87,2.2,7.1,1.19,1.37-1.13-3.75-5.86-3.47-6Z"/>
  <path class="cls-6" d="m114.77,85.17c-.08-.27,10.41-4.21,11.04-3.08.25.45-1.15,1.59-3.77,3.72-1.83,1.48-3.69,2.79-3.85,2.65-.24-.2,3.56-3.03,2.96-4.01-.67-1.09-6.32.91-6.38.72Z"/>
  <path class="cls-6" d="m120.26,93.44c.05-.28,11.62-1.18,11.7.05.03.49-1.79,1.19-5.2,2.5-2.38.91-4.7,1.64-4.79,1.47-.13-.25,4.69-1.91,4.57-2.99-.13-1.2-6.31-.83-6.27-1.03Z"/>
  <path class="cls-6" d="m125.16,100.29c.09-.28,11.53-.34,11.45.91-.03.5-1.9,1.07-5.41,2.14-2.44.75-4.81,1.32-4.88,1.13-.1-.27,4.84-1.59,4.86-2.69.02-1.22-6.08-1.3-6.01-1.5Z"/>
  <path class="cls-6" d="m128.82,112.29c.21-.23,10.72,3.18,10.04,4.32-.27.46-2.26.42-6,.36-2.6-.05-5.04-.23-5.02-.42.04-.28,5.2-.01,5.75-1.03.62-1.13-4.93-3.05-4.78-3.22Z"/>
  <path class="cls-6" d="m128.88,120.27c.24-.22,10.14,3.9,9.31,5-.33.44-2.29.27-5.96-.04-2.56-.22-4.94-.57-4.89-.76.08-.28,5.13.33,5.81-.65.76-1.1-4.44-3.39-4.27-3.55Z"/>
  <path class="cls-6" d="m125.65,107.14c.07-.27,11.65-.77,11.66.47,0,.5-1.85,1.13-5.33,2.31-2.42.83-4.78,1.47-4.87,1.3-.12-.26,4.79-1.74,4.74-2.83-.06-1.21-6.24-1.06-6.19-1.26Z"/>
  <path d="m113.92,65.07c-.24-.31,10.12-8.55,11.48-7.36.54.48-.51,2.33-2.48,5.81-1.37,2.42-2.88,4.63-3.15,4.51-.4-.17,2.59-4.89,1.36-5.9-1.38-1.12-7.03,3.17-7.2,2.94Z"/>
  <path d="m120.84,71.26c-.1-.36,12.77-5.32,13.59-3.81.33.61-1.37,2.08-4.55,4.84-2.22,1.92-4.47,3.61-4.69,3.42-.31-.27,4.3-3.93,3.53-5.24-.87-1.45-7.81,1.06-7.88.79Z"/>
  <path d="m130.73,63.5c-.13-.35,12.31-6.02,13.25-4.55.38.59-1.2,2.15-4.15,5.08-2.06,2.04-4.17,3.84-4.4,3.67-.33-.25,3.98-4.16,3.1-5.42-.98-1.4-7.7,1.49-7.8,1.23Z"/>
  <path d="m136.92,69.39c.06-.36,14.37-1.28,14.51.35.06.65-2.18,1.53-6.36,3.18-2.92,1.15-5.77,2.06-5.89,1.83-.18-.34,5.75-2.41,5.57-3.84-.21-1.6-7.86-1.25-7.82-1.52Z"/>
  <path d="m143.23,78.58c.1-.36,14.29-.18,14.23,1.48-.02.66-2.32,1.38-6.64,2.71-3,.93-5.92,1.63-6.01,1.38-.13-.35,5.94-1.98,5.93-3.44-.01-1.62-7.58-1.87-7.51-2.13Z"/>
  <path d="m127.95,82.35c.06-.36,14.37-1.28,14.51.35.06.65-2.18,1.53-6.36,3.18-2.92,1.15-5.77,2.06-5.89,1.83-.18-.34,5.75-2.41,5.57-3.84-.21-1.6-7.86-1.25-7.82-1.52Z"/>
  <path d="m134.26,91.54c.1-.36,14.29-.18,14.23,1.48-.02.66-2.32,1.38-6.64,2.71-3,.93-5.92,1.63-6.01,1.38-.13-.35,5.94-1.98,5.93-3.44-.01-1.62-7.58-1.87-7.51-2.13Z"/>
  <path d="m148.04,90.43c.1-.36,14.29-.18,14.23,1.48-.02.66-2.32,1.38-6.64,2.71-3,.93-5.92,1.63-6.01,1.38-.13-.35,5.94-1.98,5.93-3.44-.01-1.62-7.58-1.87-7.51-2.13Z"/>
  <path d="m154.3,99.82c.24-.31,13.66,3.9,12.95,5.43-.29.61-2.76.62-7.39.64-3.23.01-6.28-.17-6.27-.42.02-.37,6.44-.16,7.01-1.52.63-1.52-6.47-3.9-6.29-4.13Z"/>
  <path d="m154.85,110.17c.29-.28,12.71,5.41,11.72,6.85-.4.58-2.83.31-7.4-.19-3.18-.35-6.15-.87-6.09-1.12.08-.36,6.37.56,7.19-.73.91-1.44-5.63-4.6-5.42-4.81Z"/>
  <path d="m139.22,107.54c.26-.3,13.41,4.47,12.6,5.97-.32.6-2.79.51-7.42.33-3.22-.12-6.26-.43-6.24-.68.04-.37,6.45.11,7.09-1.22.72-1.49-6.22-4.17-6.04-4.38Z"/>
  <path d="m139.58,118.11c.29-.28,12.71,5.41,11.72,6.85-.4.58-2.83.31-7.4-.19-3.18-.35-6.15-.87-6.09-1.12.08-.36,6.37.56,7.19-.73.91-1.44-5.63-4.6-5.42-4.81Z"/>
  <path d="m152.37,122.5c.29-.28,12.71,5.41,11.72,6.85-.4.58-2.83.31-7.4-.19-3.18-.35-6.15-.87-6.09-1.12.08-.36,6.37.56,7.19-.73.91-1.44-5.63-4.6-5.42-4.81Z"/>
  <path d="m135.11,100.63c.08-.36,14.42-.73,14.47.91.02.66-2.26,1.45-6.53,2.94-2.98,1.04-5.88,1.84-5.99,1.6-.16-.35,5.88-2.19,5.77-3.63-.12-1.6-7.78-1.55-7.72-1.81Z"/>
  <path d="m132.37,127.68c.38-.19,10.21,8.48,8.76,9.59-.58.45-2.81-.45-6.98-2.12-2.91-1.16-5.55-2.44-5.41-2.66.21-.33,5.87,2.2,7.1,1.19,1.37-1.13-3.75-5.86-3.47-6Z"/>
  <path d="m108.07,82.49c-.08-.27,10.41-4.21,11.04-3.08.25.45-1.15,1.59-3.77,3.72-1.83,1.48-3.69,2.79-3.85,2.65-.24-.2,3.56-3.03,2.96-4.01-.67-1.09-6.32.91-6.38.72Z"/>
  <path d="m113.57,90.76c.05-.28,11.62-1.18,11.7.05.03.49-1.79,1.19-5.2,2.5-2.38.91-4.7,1.64-4.79,1.47-.13-.25,4.69-1.91,4.57-2.99-.13-1.2-6.31-.83-6.27-1.03Z"/>
  <path d="m118.47,97.61c.09-.28,11.53-.34,11.45.91-.03.5-1.9,1.07-5.41,2.14-2.44.75-4.81,1.32-4.88,1.13-.1-.27,4.84-1.59,4.86-2.69.02-1.22-6.08-1.3-6.01-1.5Z"/>
  <path d="m122.12,109.62c.21-.23,10.72,3.18,10.04,4.32-.27.46-2.26.42-6,.36-2.6-.05-5.04-.23-5.02-.42.04-.28,5.2-.01,5.75-1.03.62-1.13-4.93-3.05-4.78-3.22Z"/>
  <path d="m122.19,117.59c.24-.22,10.14,3.9,9.31,5-.33.44-2.29.27-5.96-.04-2.56-.22-4.94-.57-4.89-.76.08-.28,5.13.33,5.81-.65.76-1.1-4.44-3.39-4.27-3.55Z"/>
  <path d="m118.95,104.46c.07-.27,11.65-.77,11.66.47,0,.5-1.85,1.13-5.33,2.31-2.42.83-4.78,1.47-4.87,1.3-.12-.26,4.79-1.74,4.74-2.83-.06-1.21-6.24-1.06-6.19-1.26Z"/>
  <path class="cls-4" d="m151.98,125.59c2.15,19.38-24.21,44.87-52.24,44.87s-54.3-25.59-52.24-44.87c.59-5.5,3.31-9.12,8.04-15.4,6.9-9.17,22.14-29.91,44.2-29.47,17.87.36,30.35,14.39,40.18,25.45,7.32,8.22,11.31,12.71,12.05,19.42Z"/>
  <path class="cls-4" d="m96.73,70.59c-7.69-2.55-8.48-8.86-13.69-11.16-6.89-3.04-18.31,2.39-21.99,10.51-5.48,12.09,6.93,28.44,16.98,35.69,12.74,9.19,30.58,10.18,44.51,1.6,13.57-8.36,25.74-27.22,20.51-38.08-3.11-6.46-12.65-10.64-19.92-8.61-7.43,2.08-9.87,9.9-19.05,10.83-3.61.37-6.49-.51-7.36-.8Z"/>
  <path class="cls-1" d="m60.91,143.67c-.53-.12-6.49-1.36-10.72,2.68-4.09,3.91-4.12,10.44-1.34,14.73,3,4.64,8.37,5.26,9.38,5.36,1.29.12,4,.37,6.7-1.34,2.79-1.77,3.76-4.51,4.02-5.36"/>
  <path class="cls-1" d="m139.98,141.92c.53-.12,6.49-1.36,10.72,2.68,4.09,3.91,4.12,10.44,1.34,14.73-3,4.64-8.37,5.26-9.38,5.36-1.29.12-4,.37-6.7-1.34-2.79-1.77-3.76-4.51-4.02-5.36"/>
  <path class="cls-3" d="m64.96,157.95c-1.84.11-4.17,1.33-4.6,3.14-.81,3.43,6.25,4.66,9.71,12.49,1.55,3.5,1.71,6.82,3.97,7.41.97.26,2.27,0,2.83-.81,1.82-2.63-5.02-10.05-4.78-10.23.18-.14,5.07,3.31,7.61,9.43.56,1.36,1.02,2.85,2.11,3.06,1.23.23,3.06-1.52,3.31-3.39.41-3.03-3.38-6.06-7.61-9.43-1.59-1.27-2.38-1.72-2.35-1.77.07-.11,4.74,1.38,7.04,5.32.9,1.54,1.05,2.8,2.11,3.06,1.16.28,2.78-.82,3.07-2.1.14-.62.09-1.89-3.16-4.59-4.43-3.69-6.38-3.03-10.92-6.04-4.69-3.11-5.47-5.72-8.33-5.56Z"/>
  <path class="cls-9" d="m135.7,156.11c-9.68,8.1-22.61,13.84-35.9,13.84s-27.08-6.09-36.79-14.57c1.67-7.88,5.13-14.24,5.93-15.72,2.14-3.95,8.32-14.92,21.43-20.09,3.76-1.49,13.13-5.17,22.77-1.34,10.31,4.1,14.48,14.26,17.41,21.43,1.22,2.97,3.78,9.23,5.14,16.46Z"/>
  <path class="cls-3" d="m132.86,156.39c1.84.11,4.17,1.33,4.6,3.14.81,3.43-6.25,4.66-9.71,12.49-1.55,3.5-1.71,6.82-3.97,7.41-.97.26-2.27,0-2.83-.81-1.82-2.63,5.02-10.05,4.78-10.23-.18-.14-5.07,3.31-7.61,9.43-.56,1.36-1.02,2.85-2.11,3.06-1.23.23-3.06-1.52-3.31-3.39-.41-3.03,3.38-6.06,7.61-9.43,1.59-1.27,2.38-1.72,2.35-1.77-.07-.11-4.74,1.38-7.04,5.32-.9,1.54-1.05,2.8-2.11,3.06-1.16.28-2.78-.82-3.07-2.1-.14-.62-.09-1.89,3.16-4.59,4.43-3.69,6.38-3.03,10.92-6.04,4.69-3.11,5.47-5.72,8.33-5.56Z"/>
  <path class="cls-3" d="m77.52,136.87c-1.79-.31-4.05.1-5.36,1.52-2.94,3.18-.75,11.06,3.24,13.45.85.51,1.58.65,2.01,1.48,1.04,2-1.29,4.6-.15,6.6.14.25.36.48.67.69.84.55,2.15.72,2.94.13,2.56-1.92-.68-10.13-.39-10.22.07-.02,1.52,4.85,3.33,10.35.15.46.49,1.45,1.41,1.96,1.13.63,3.02.46,3.83-.55,1.93-2.4-2.58-9.19-3.33-10.35-1.1-1.71-1.71-2.39-1.66-2.43,0,0,2.57,2.5,4.09,6.28,1.06,2.62.95,4.23,1.96,4.49.92.24,2.17-.8,2.64-1.93.57-1.38-.04-2.81-.43-3.64-1.93-4.14-4.84-7.4-6.13-8.89-5.59-6.44-5.84-8.46-8.66-8.94Z"/>
  <path class="cls-3" d="m121.11,132.84c1.79-.31,4.05.1,5.36,1.52,2.94,3.18.75,11.06-3.24,13.45-.85.51-1.58.65-2.01,1.48-1.04,2,1.29,4.6.15,6.6-.14.25-.36.48-.67.69-.84.55-2.15.72-2.94.13-2.56-1.92.68-10.13.39-10.22-.07-.02-1.52,4.85-3.33,10.35-.15.46-.49,1.45-1.41,1.96-1.13.63-3.02.46-3.83-.55-1.93-2.4,2.58-9.19,3.33-10.35,1.1-1.71,1.71-2.39,1.66-2.43,0,0-2.57,2.5-4.09,6.28-1.06,2.62-.95,4.23-1.96,4.49-.92.24-2.17-.8-2.64-1.93-.57-1.38.04-2.81.43-3.64,1.93-4.14,4.84-7.4,6.13-8.89,5.59-6.44,5.84-8.46,8.66-8.94Z"/>
  <g>
    <path class="cls-7" d="m90.37,88.75c-1.18-.01-1.42-.8-4.02-2.68-3.47-2.5-5.12-2.59-5.36-4.02-.26-1.55,1.42-3,1.88-3.4,2.2-1.89,6.01-2.46,8.83-.62.16.1,3.74,2.55,3.13,6.18-.4,2.37-2.49,4.56-4.47,4.54Z"/>
    <path d="m85.01,79.38c-1.02,1.12-.75,2.83-.67,3.35.07.44.27,1.71,1.34,2.68,1.22,1.11,3.32,1.57,4.69.67,1.9-1.25,2.02-5.02,0-6.7-1.51-1.25-4.12-1.36-5.36,0Z"/>
    <circle class="cls-6" cx="86.35" cy="80.72" r=".67"/>
  </g>
  <g>
    <path class="cls-7" d="m114.48,90.09c1.18-.01,1.42-.8,4.02-2.68,3.47-2.5,5.12-2.59,5.36-4.02.26-1.55-1.42-3-1.88-3.4-2.2-1.89-6.01-2.46-8.83-.62-.16.1-3.74,2.55-3.13,6.18.4,2.37,2.49,4.56,4.47,4.54Z"/>
    <path d="m119.84,80.72c1.02,1.12.75,2.83.67,3.35-.07.44-.27,1.71-1.34,2.68-1.22,1.11-3.32,1.57-4.69.67-1.9-1.25-2.02-5.02,0-6.7,1.51-1.25,4.12-1.36,5.36,0Z"/>
    <circle class="cls-6" cx="118.5" cy="82.06" r=".67"/>
  </g>
  <g>
    <ellipse cx="101.9" cy="99.41" rx="4.35" ry="2.68"/>
    <path class="cls-8" d="m100.73,100.75c-.4-1.32.36-2.29,0-2.68-.46-.51-2.28.48-2.27,1.34.02.68,1.2.97,1.13,1.34-.07.37-1.33.66-2.27,0-1.16-.81-1.14-2.49-1.13-2.68.07-1.45,1.07-2.43,1.34-2.68,2.57-2.32,8.53-1.21,9.38,1.34.59,1.78-1.36,4.13-1.66,4.02-.26-.1.6-2.12,0-2.68-.51-.48-2.03.29-2.27,1.34-.11.5.14.72,0,1.34-.14.61-.59,1.34-1.13,1.34-.57,0-.98-.83-1.13-1.34Z"/>
  </g>
  <path class="cls-2" d="m82.34,91.43c-1.87,3.32-1.55,5.73-1.34,6.7,1.3,5.86,9.73,9.11,16.07,8.04,1.71-.29,3.08-.86,4.02-1.34.6.37,1.51.88,2.68,1.34.86.34,9.04,3.37,14.73-1.34,2.44-2.02,3.53-4.72,4.02-6.7"/>
</svg>