<?xml version="1.0" encoding="UTF-8"?>
<svg id="_Слой_1" data-name="Слой 1" xmlns="http://www.w3.org/2000/svg" viewBox="0 0 500 500">
  <defs>
    <style>
      .cls-1 {
        fill: #cb7248;
      }

      .cls-2 {
        fill: #a95a39;
      }

      .cls-3 {
        fill: #fff;
      }

      .cls-4 {
        fill: #ffd2c7;
        opacity: .28;
      }

      .cls-5 {
        fill: #aa6317;
      }

      .cls-6 {
        fill: #e66929;
      }

      .cls-6, .cls-7 {
        stroke: #943e00;
        stroke-miterlimit: 10;
        stroke-width: .5px;
      }

      .cls-8 {
        fill: #aa471d;
      }

      .cls-9 {
        fill: #bf6b3c;
      }

      .cls-10 {
        fill: #b2511e;
      }

      .cls-11 {
        fill: #b55d1c;
        opacity: .72;
      }

      .cls-12 {
        fill: #97452d;
      }

      .cls-13 {
        fill: #df7949;
      }

      .cls-14 {
        opacity: .26;
      }

      .cls-14, .cls-15 {
        fill: #9c4126;
      }

      .cls-16 {
        fill: #944932;
      }

      .cls-17 {
        fill: #493d2e;
      }

      .cls-18 {
        fill: #7b604f;
      }

      .cls-19 {
        fill: #872e26;
      }

      .cls-20 {
        fill: #a25537;
      }

      .cls-21 {
        fill: #e5ab7b;
      }

      .cls-22 {
        fill: #7d502f;
      }

      .cls-23, .cls-24 {
        fill: #2b251c;
      }

      .cls-25 {
        fill: #ad573c;
      }

      .cls-7 {
        fill: #d35b26;
      }

      .cls-26 {
        fill: #752c0c;
      }

      .cls-27 {
        fill: #a9573f;
      }

      .cls-28 {
        fill: #c6753d;
      }

      .cls-24 {
        opacity: .29;
      }

      .cls-15 {
        opacity: .46;
      }

      .cls-29 {
        fill: #912c18;
      }

      .cls-30 {
        fill: #a43112;
      }

      .cls-31 {
        fill: #c47044;
      }

      .cls-32 {
        fill: #8c472f;
      }

      .cls-33 {
        fill: #eba780;
      }

      .cls-34 {
        fill: #e99b5b;
      }
    </style>
  </defs>
  <g>
    <path class="cls-7" d="m212.67,262.78c2.19,10.54,2.56,19.37,2.44,25.67-.2,10.98-1.9,15.69-2.44,17.11-2.67,6.97-6.86,11.51-9.78,14.67-5.24,5.67-9.21,7.74-15.89,15.89-2.73,3.33-3.84,5.14-3.67,7.33.34,4.34,5.45,6.62,9.78,9.78,5.71,4.17,4.98,6.14,14.67,19.56,15.37,21.27,26.08,28.57,26.89,37.89.13,1.44.17,4.71,2.44,7.33,2.85,3.29,5.88,2.41,7.33,4.89,2.66,4.55-5.49,11.72-3.06,15.28,1.72,2.51,6.39-.18,10.39,3.06,3.65,2.96,3.2,7.99,4.28,7.94,1.26-.05,2.54-6.98,2.44-14.67-.12-9.49-2.21-10.74-1.83-18.94.35-7.65,2.27-8.27,1.22-12.22-1.63-6.16-6.72-6.72-13.44-13.44-3.45-3.45-2.67-3.85-13.44-23.22-7.9-14.2-9.08-15.35-8.56-18.33,1.15-6.53,8.06-8.04,22-18.33,0,0,10.05-7.43,18.33-15.89,6.41-6.55,14.82-17.47,20.78-35.44"/>
    <path class="cls-7" d="m410.06,245.06c-4.39,14-13.61,44.16-22,78.22-6.56,26.63-9.85,39.95-10.93,48.5-.28,2.17-.76,6.69-2.51,12.61-2.07,7-3.47,7.73-4.89,13.44-1.13,4.57-1.16,8.35-1.22,15.89-.05,6.53-.06,10.57,1.22,15.89,1.04,4.32,1.67,6.94,3.67,9.78,3.61,5.12,7.16,4.54,13.44,9.78,3.54,2.95,10.02,9.46,8.56,12.22-1.49,2.82-11.61,2.4-18.33-2.44-4.18-3.01-4.26-5.72-8.56-7.33-5.19-1.95-7.81.97-11-1.22-3.53-2.43-3.6-8.28-3.67-13.44-.06-4.86.7-8.18,1.22-11,1.93-10.4,1.59-18.93,1.22-28.11-.38-9.36-1.31-9.87-1.22-18.33.04-3.78.27-7.84,1.22-15.89,1.45-12.22,3.05-20.79,3.67-24.44,1.56-9.26,1.34-14.09,1.22-39.11-.05-10.69-.09-26.95,0-47.67"/>
    <path class="cls-6" d="m417.95,290.89c9.24-9.71,14.46-24.15,15-25.67,1.61-4.56,5.33-15.4,4.62-29.33-.83-16.22-6.66-16.98-8.08-33-1.41-15.89,4.18-16.68,3.46-35.44-.6-15.54-4.91-27.53-6.92-33-4.14-11.24-5.62-9.78-11.54-23.22-8.46-19.19-7.19-26.12-16.16-41.56-5.57-9.59-8.42-14.49-12.69-14.67-2.56-.11-9.86,1.3-26.54,47.67-14.62,40.62-12.91,50.35-24.23,59.89-11.27,9.5-24.53,9.61-45.01,9.78-31.07.26-36.71-9.46-66.93-8.56-14.14.42-27.95,1-42.7,9.78-5.63,3.35-26.07,15.51-31.16,39.11-6.96,32.26,18.49,68.61,39.24,69.67,12.18.62,16.4-11.25,34.62-11,10.34.14,18.48,4.09,27.7,8.56,14.58,7.07,19.95,13.37,27.7,18.33,7.71,4.94,15.33,6.98,58.85,6.11,64.65-1.29,74.01-6.33,80.78-13.44Z"/>
    <path class="cls-17" d="m485.65,96.43c-.07-.04-.15-.09-.22-.13h.01s.21.13.21.13Z"/>
    <path class="cls-14" d="m369.12,85.56c-1.72,8.27-3.76,21-3.67,36.67.08,12.65,1.48,16.44,1.22,23.22-.73,19.08-13.87,41.4-30.56,50.11-27.55,14.39-47.3-17.45-106.33-17.11-30.68.18-55.47,8.95-56.22,6.11-.57-2.13,12.94-8.57,26.89-12.22,26.88-7.03,51.79-2.72,73.33,1.22,27.92,5.11,31.96,9.67,44,6.11,14.75-4.36,28.4-17.01,34.22-31.78,4.67-11.84,1.2-17.15,6.11-35.44,3.2-11.93,7.75-21.11,11-26.89Z"/>
    <path class="cls-4" d="m422.9,223.67c-2.35-15.41-7.22-37.62-18.33-62.33-15.16-33.7-34.09-54.63-35.44-53.78-1.63,1.02,25.48,31.99,24.44,74.56-.24,9.99-1.98,18.36-3.67,24.44,3.05-.12,6.84.1,11,1.22,12.37,3.33,19.47,12.31,22,15.89Z"/>
    <path class="cls-4" d="m359.34,268.89c-24.31-.13-36.93-7.56-44-14.67-10.77-10.82-9.61-21.82-24.44-31.78-10.96-7.36-21.91-8.28-25.67-8.56-7.44-.54-15.08-1.09-20.78,3.67-6.97,5.82-8.55,17.53-4.89,29.33,3.42-4.95,10.69-13.78,19.56-13.44,10.63.4,19.04,13.84,25.67,24.44,5.98,9.56,5.1,11.79,9.78,15.89,8.88,7.79,20.89,7.5,28.11,7.33,17.01-.4,29.92-7.63,36.67-12.22Z"/>
    <path class="cls-14" d="m425.34,196.78c.45-.03.68-1.36,1.06-3.95,1.84-12.53,2.77-18.8,2.6-24.16-.29-9.4-.84-27.45-13.44-41.56-6.17-6.9-15.11-12.74-17.11-11-2.55,2.22,9.16,14.2,17.11,36.67,8.05,22.76,7.95,44.14,9.78,44Z"/>
    <path class="cls-6" d="m312.9,231c6.46,15.58,16.16,38.14,26.89,59.89,1.68,3.4,3.94,7.87,8.56,12.22,8.63,8.12,16.17,7.06,39.11,12.22,8,1.8,33.75,7.93,44,17.11.71.64,3.37,3.1,7.33,6.11,5.61,4.27,10.05,6.76,11,7.33,4.83,2.94,10.18,11.71,12.49,37.35-.49,2.37-.81,5.91.96,9.09,1.78,3.2,4.24,3.46,4.89,6.11.94,3.82-3.52,5.89-3.67,9.78-.25,6.79,12.83,15.1,17.11,12.22,4.01-2.7-3.4-12.71-1.22-31.78.32-2.78.84-5.73,0-9.78-1.3-6.3-4.38-7.93-8.56-14.67-2.73-4.39-1.37-3.63-9.78-24.44-2.67-6.62-3.58-8.6-4.89-11-2.71-4.96-5.21-9.54-9.78-13.44-2.4-2.05-7.9-6.08-17.11-7.33-5.95-2.98-14.46-7.45-24.44-13.44-7.71-4.63-11.62-7-14.67-9.78-4.6-4.2-12.78-13.81-14.67-34.22"/>
    <g>
      <g>
        <path class="cls-3" d="m391.12,60.16c-.33-2.58-2.03-4.61-4.19-5.09-.27-.06-2.66-.55-4.37,1.16-.09.09-1.7,1.76-1.22,3.93.46,2.09,2.55,3.22,4.19,3.39,3.16.33,5.35-3.02,5.59-3.39Z"/>
        <path class="cls-5" d="m387.8,62.68c1.32-1.37,1.01-3.7,0-4.99-1.6-2.05-5.32-1.88-6.38,0-.83,1.46.02,3.84,1.6,4.99,1.25.91,3.44,1.39,4.79,0Z"/>
        <path d="m383.79,57.45c1.5.3,2.25,4.18,1.22,4.89-.86.59-3.68-.53-3.67-2.44,0-1.38,1.48-2.64,2.44-2.44Z"/>
        <circle class="cls-3" cx="385.01" cy="58.67" r="1.22"/>
      </g>
      <path class="cls-17" d="m411.9,116.11s.02.04,0,.06c-.06.15-.9-.23-1.23-.06-.66.34-.15,3.28,1.22,6.11,1.01,2.09,1.78,3.69,3.67,4.89,2.61,1.67,5.39,1.33,6.11,1.22,1.86-.27,1.73-.81,3.67-1.22,3.68-.78,5.24,1.12,7.33,0,1.4-.75,1.93-2.23,2.44-3.67,1.13-3.16.42-6.04,0-7.33h-23.22Z"/>
      <path class="cls-24" d="m434.35,123.45c-.51,1.44-1.05,2.92-2.44,3.67-.09.05-.17.09-.24.11-.07-.44-.14-.89-.21-1.33-.83-.02-2.11-.03-3.67,0-4.8.1-5.62.47-7.33,0-1.98-.55-3.18-1.84-4.89-3.67-2.06-2.22-3.22-4.5-3.87-6.11h22.66c.42,1.3,1.12,4.18,0,7.33Z"/>
      <g>
        <path class="cls-6" d="m427.79,122.22c-2.62,1.23-5.37,1.23-6.11,1.22-7.2-.08-12.75-5.47-14.67-7.33-2.22-2.16-2.46-3.09-4.89-4.89-3.03-2.25-5.84-3.29-7.33-3.67-9.89-2.49-14.83-3.74-17.11-4.89-11.6-5.83-8.67-34.66-4.89-50.11,2.74-11.21,5.11-20.31,13.44-24.44,5.99-2.97,15.01-3.35,20.78,1.22.33.27.64.54.92.82,3.63.75,7.46,2.55,10.08,5.29,4.36,4.54,3.54,19.06,4.89,28.11,2.49,16.75,13.09,15.54,14.67,31.78.98,10.08-1.89,23.18-9.78,26.89Z"/>
        <path class="cls-15" d="m399.68,25.67c-.81-.15-7.07-1.24-11,2.44-4.51,4.22-2.99,11.92-2.44,14.67,2.22,11.21,9.09,10.84,15.89,24.44,3.85,7.7,3.62,11.75,9.78,22,2.21,3.67,4.4,7.35,8.56,8.56,3.13.91,7.25.22,9.78-2.44,2.4-2.53,2.44-5.87,2.44-6.11,0-7.45-9.94-8.88-13.44-19.56-.46-1.4-.71-3.78-1.22-8.56-1.19-11.14.22-11.99-1.22-17.11-2.14-7.57-7.02-12.07-8.56-13.44-2.19-1.96-4.64-4.15-8.56-4.89Z"/>
      </g>
      <path class="cls-18" d="m418.01,86.78c-5.45,1.92-11.44,7.26-11,12.22.18,2.09,1.44,3.27,2.12,7.98.31,2.19.13,2.55.33,4.24.09.8.52,9.1,6.11,12.22.44.24,3.06,1.7,6.11,1.22,1.75-.28,2.46-1,4.89-1.22,1.91-.17,2.21.21,3.67,0,1.64-.23,3.69-1.07,4.89-2.44,2.16-2.47.2-5.11,1.22-11,.61-3.5,1.38-2.98,2.44-7.33,1.13-4.64,2.22-9.11,0-12.22-1.62-2.28-4.29-2.81-8.56-3.67-3.95-.79-7.8-1.56-12.22,0Z"/>
      <path class="cls-23" d="m431.45,105.11c-1.25-11-.21-14.18,1.22-14.67,1.9-.65,6.17,2.82,6.11,7.33-.05,3.86-3.26,7.17-7.33,7.33Z"/>
      <path class="cls-23" d="m419.04,106.33c-3.11.05-5.96-1.7-7.29-4.52-1.29-2.73-1.34-6.84,1.04-9.04,1.36-1.26,3.63-2,5.21-1.13,2.63,1.45,3.42,7.39,1.04,14.7Z"/>
      <path class="cls-24" d="m415.56,89.22c.09-1.38,4.34-2.28,7.33-2.44,4.7-.26,9.75,1.08,9.78,2.44.02,1.27-4.34.79-6.11,3.67-2.66,4.32,3.54,11.25,1.22,13.44-.86.81-2.65.77-3.67,0-2.64-2,1.54-7.82-1.22-12.22-2.28-3.64-7.43-3.36-7.33-4.89Z"/>
      <path class="cls-24" d="m419.23,122.22c.34.66,2.35.45,3.67,0,1.29-.44,1.27-.89,2.44-1.22,1.39-.39,1.88.1,3.67,0,1.63-.09,3.65-.65,3.67-1.22.02-.69-2.89-.39-4.89-2.44-2-2.05-1.64-4.86-2.44-4.89-.7-.03-.8,2.14-2.44,4.89-1.85,3.1-4.05,4.14-3.67,4.89Z"/>
      <path class="cls-2" d="m391.12,63.56c.24.05,4.5-9.09,1.22-12.22-1.72-1.64-5.13-1.29-7.33,0-3.11,1.81-4.21,5.7-3.67,6.11.31.23.94-.8,2.44-1.22,2.71-.75,6.32,1.1,7.33,3.67.75,1.9-.11,3.64,0,3.67Z"/>
      <g>
        <path class="cls-3" d="m391.12,60.16c-.33-2.58-2.03-4.61-4.19-5.09-.27-.06-2.66-.55-4.37,1.16-.09.09-1.7,1.76-1.22,3.93.46,2.09,2.55,3.22,4.19,3.39,3.16.33,5.35-3.02,5.59-3.39Z"/>
        <path class="cls-5" d="m387.8,62.68c1.32-1.37,1.01-3.7,0-4.99-1.6-2.05-5.32-1.88-6.38,0-.83,1.46.02,3.84,1.6,4.99,1.25.91,3.44,1.39,4.79,0Z"/>
        <path d="m383.79,57.45c1.5.3,2.25,4.18,1.22,4.89-.86.59-3.68-.53-3.67-2.44,0-1.38,1.48-2.64,2.44-2.44Z"/>
        <circle class="cls-3" cx="385.01" cy="58.67" r="1.22"/>
      </g>
      <path class="cls-32" d="m421.68,61.11c-.16-.35-1.75-3.93,0-6.11.57-.71,1.7-1.54,2.44-1.22,1,.42,1.03,2.47,1.22,2.44.14-.02.23-1.09,0-2.44-.21-1.25-.72-4.24-2.44-4.89-2.01-.76-5.53,1.74-6.11,4.89-.54,2.94,1.44,6.19,4.89,7.33Z"/>
      <g>
        <path class="cls-3" d="m420.45,57.45c-.29-1.98.22-4.58,1.59-5.03.56-.19,1.18.02,1.25.04.46.16.96.52,1.37,1.27.05.09.94,1.82.52,3.97-.28,1.43-1.58,3.39-2.78,3.23-1.42-.18-1.9-3.22-1.94-3.49Z"/>
        <path class="cls-5" d="m424.87,54.55c.78,1.38.54,3.71-.11,4.99-.18.35-1.09,1.43-2.37,1.4-1.09-.03-1.81-.89-1.93-1.05-1.39-1.74-.64-5.22,1.22-6.11.12-.06,1.21-.56,2.24-.07.52.24.83.62.95.84Z"/>
        <path d="m421.68,61.11c1.02.16,2.16-1.18,2.44-2.44.32-1.41-.3-3.28-1.42-3.5-1.02-.2-2.17,1.02-2.51,2.19-.45,1.55.34,3.57,1.49,3.75Z"/>
        <ellipse class="cls-3" cx="424.23" cy="57.3" rx="1.22" ry=".75" transform="translate(341.55 477.32) rotate(-86.56)"/>
      </g>
      <path class="cls-14" d="m412.75,119.55c-2.77-1.66-4.83-3.65-5.85-4.64-1.1-1.08-1.71-1.85-2.35-2.55-.65-.73-1.32-1.43-2.54-2.33-3.03-2.25-5.84-3.29-7.33-3.67-9.89-2.49-14.83-3.74-17.11-4.89-11.12-5.59-8.89-32.3-5.35-48.12-.87,6.68-.88,15.84,4.24,23.66,4.06,6.21,9.16,8.23,14.67,12.22,6.86,4.98,15.34,13.74,21.63,30.32Z"/>
    </g>
    <path class="cls-6" d="m212.06,203.5c-2.57,27.3,7.7,35.09,4.89,58.67-2.36,19.74-12.05,35.15-14.67,39.11-4.91,7.44-7.22,8.46-19.56,25.67-3.21,4.48-6.62,9.5-13.44,19.56-6.22,9.16-8.42,12.57-11,17.11-3.79,6.69-5.69,10.03-7.33,14.67-2.93,8.27-3.25,15.12-3.67,25.67-.41,10.39.64,10.04,0,20.78-.39,6.54-.89,8.41,0,12.22,1.03,4.44,2.9,6.19,4.89,13.44,1.82,6.64,1.73,7.64,1.22,8.56-2.51,4.48-14.04,4.59-17.11,0-1.45-2.17.17-3.63,0-12.22-.09-4.65-.14-6.98-1.22-9.78-1.77-4.58-4.11-5.02-4.89-8.56-.77-3.5.97-5.56,2.44-9.78,2.73-7.8.14-10.35,1.22-23.22.69-8.19,1.65-6.16,2.44-14.67,1.53-16.33,0-28.11,0-28.11-.4-3.1-.85-5.42,0-8.56,1.35-4.98,4.63-7.01,8.56-11,7.75-7.87,11.81-17.06,13.44-23.22,1.35-5.08,1.34-9.18,1.22-13.44-.48-16.75-2.67-33.94-4.89-47.67"/>
    <path class="cls-4" d="m160.12,235.89c-1.52-.42-2.8-15.12,4.89-26.89,16.04-24.55,61.07-21.04,61.11-20.78.03.17-18.82.11-37.89,12.22-2.64,1.68-6.6,4.23-11,8.56-13.1,12.9-15.55,27.32-17.11,26.89Z"/>
    <path class="cls-4" d="m441.84,319.62c.34-.89-6.83-4.24-31.78-17.11-17.71-9.14-21.4-11.22-25.67-15.89-10.48-11.47-11.71-24.61-12.22-24.44-.62.2-.21,19.76,13.44,34.22,7.32,7.75,15.88,10.87,33,17.11,10.41,3.8,22.79,7.25,23.22,6.11Z"/>
    <path class="cls-4" d="m154.01,356.89c-.86,1.29-7.03.23-9.78-3.67-4.53-6.42,2.4-17.41,3.67-17.11.86.2-1.37,5.53,1.22,12.22,2.07,5.34,5.62,7.46,4.89,8.56Z"/>
    <path class="cls-4" d="m176.01,315.34c6.96-6.98,14.74-17.05,18.33-30.56,6.9-25.93-6.01-48-3.67-48.89,2.43-.92,21.13,20.95,15.89,45.22-4.88,22.62-27.43,32.86-30.56,34.22Z"/>
    <path class="cls-14" d="m217.56,338.56c3.57-5.34,8.1-13.67,9.78-24.44,3.36-21.66-7.8-34.13-2.44-39.11,7.49-6.96,40.11,7.35,40.33,23.22.04,3-1.07,6.44-7.33,13.44-6.53,7.3-18.95,18.77-40.33,26.89Z"/>
    <path class="cls-14" d="m380.12,317.78c.95.15.35,8.5,0,13.44-1.76,24.68-6.66,43.87-7.33,46.45-4.15,15.91-6.08,17.35-7.33,28.11-1.71,14.61.39,24.41,0,24.44-.6.06-7.24-22.96-2.44-50.11,1.09-6.19,1.17-3.47,7.33-26.89,6.09-23.12,8.61-35.63,9.78-35.44Z"/>
    <path class="cls-22" d="m482.79,414.34c-.4-.1-.71,4.89-3.67,6.11-4.08,1.69-10.68-4.83-15.89-11-.83.71-4.91,4.34-4.89,9.78.02,3.76,1.99,6.36,3.67,8.56.62.82,7.68,10.08,13.44,8.56,7.66-2.03,8.13-21.81,7.33-22Z"/>
    <path class="cls-22" d="m388.67,449.78c-.15.12,3.48,3.28,2.64,5.7-1.08,3.1-8.95,3.25-16.45,2.72.02.95.24,5.73,3.99,9.15,2.6,2.37,5.49,2.8,7.93,3.18.04,0,.09.01.16.02,3.66.53,11.5.16,13.24-2.8,2.94-5.01-11.22-18.21-11.52-17.97Z"/>
    <path class="cls-22" d="m258.52,434.93c-.33-.1-.72,4.55-3.2,5.61-3.42,1.47-8.69-4.78-12.81-10.66-.7.64-4.18,3.93-4.31,9.01-.09,3.51,1.47,5.98,2.79,8.08.49.78,6.06,9.6,10.86,8.32,6.38-1.71,7.32-20.16,6.67-20.35Z"/>
    <path class="cls-22" d="m151.9,450.91c-.32.12,2.16,4.07.82,6.41-1.84,3.23-9.81,1.41-16.65-.81-.18.93-.98,5.65,1.97,9.79,2.04,2.86,4.77,3.9,7.09,4.78.86.33,10.61,4.03,13.68.11,4.07-5.2-6.27-20.51-6.91-20.27Z"/>
  </g>
  <g>
    <path class="cls-28" d="m183.34,172.34c-.07-4.92-13.35-10.59-25.67-9.78-18.47,1.22-31.75,16.81-40.33,26.89-15.36,18.03-17.35,31.4-31.78,35.44-7.82,2.2-14.56.33-14.67,1.22-.16,1.41,16.3,8.54,30.56,3.67,14.43-4.93,13.61-17.71,28.11-31.78,23-22.32,53.88-18.15,53.78-25.67Z"/>
    <path class="cls-20" d="m173.56,167.45c0-4.1-12.91-6.95-14.67-7.33-2.87-.63-17.63-3.57-31.78,4.89-3.75,2.24-8.21,7.2-17.11,17.11-12.31,13.7-12.47,16.04-18.33,19.56-8.89,5.33-19.44,8.52-19.44,8.52-.05.01-.09.03-.11.03-12.21,3.67-19.55,3.26-19.56,3.67,0,.8,27.85,9.96,51.33-2.44,15.53-8.2,12.54-17.06,30.56-28.11,19.94-12.22,39.11-10.89,39.11-15.89Z"/>
    <path class="cls-31" d="m160.12,154c-7.53-6.09-17.29-4.46-22-3.67-11.42,1.92-18.92,8.05-33,19.56-9.18,7.5-13.77,11.25-18.33,15.89-4.15,4.21-5.8,6.39-9.78,8.56-6.19,3.36-12.25,3.55-18.33,3.67-12.44.24-18.97-2.63-19.56-1.22-.73,1.77,8.14,9.56,19.56,12.22,20.54,4.8,39.95-9.16,44-12.22,16.04-12.13,14.8-22.42,28.11-29.33,12.67-6.59,26.97-4.11,36.67-1.22-.69-2.87-2.47-8.29-7.33-12.22Z"/>
    <path class="cls-12" d="m156.45,146.67c-15.51-7.4-31.18-3.79-36.67-2.44-7.95,1.95-9.19,3.66-40.33,22-7.72,4.55-6.38,3.62-23.22,13.44-28.61,16.69-30.93,18.49-30.56,19.56,1,2.83,21.03.73,40.33-7.33,20.48-8.55,20.32-15.53,42.78-24.44,9.87-3.92,21.02-8.25,35.44-7.33,19.54,1.25,31.04,11.31,33,8.56,1.94-2.73-7.24-15.55-20.78-22Z"/>
    <path class="cls-27" d="m145.45,141.78c-3.73-2.9-10.79-7.59-20.78-9.78-15.19-3.32-27.66,1.24-33,3.67-5.77,2.62-4.09,3.15-19.56,14.67-20.52,15.28-28.57,18.15-34.22,19.56-7.05,1.75-12.8,1.83-14.43,1.83-14.2.03-23.03-5.19-23.46-4.28-.64,1.34,16.09,17.87,37.89,18.33,13.13.28,26.27-7.55,52.56-23.22,12.36-7.37,22.31-14.35,39.11-18.33,6.54-1.55,12.1-2.17,15.89-2.44Z"/>
    <path class="cls-19" d="m151.56,143c-1.14-.71-9.31-5.63-19.56-4.89-7.78.56-13.82,4.17-34.22,23.22-22.31,20.83-20.77,21.83-26.89,24.44-12.4,5.3-26.48,4.51-41.56,3.67-13.52-.76-19.04-2.67-19.56-1.22-1.04,2.93,18.84,18,42.78,18.33,20.39.28,35.77-10.23,40.33-13.44,7.43-5.22,8.34-8.02,33-29.33,4.69-4.06,9.56-8.16,17.11-9.78,8.66-1.85,16.32.55,20.78,2.44-1.43-2.85-5-8.97-12.22-13.44Z"/>
  </g>
  <path class="cls-8" d="m388.67,26.89c-.38-.79-.9-2.06-1.22-3.67-.59-3,.14-4.06,0-7.33-.17-3.99-1.34-4.06-1.22-7.33.13-3.87,1.83-5.59,1.22-6.11-1.14-.98-9.25,3.4-12.22,11-3.21,8.22,1.51,16.62,2.44,18.33.87,1.6,1.77,2.83,2.44,3.67"/>
  <path class="cls-26" d="m387.45,27.48c-.8-2.57-1.1-4.74-1.22-6.31-.4-5.3.96-7.94-1.22-10.52-.38-.45-1.87-2.21-3.67-2.1-3.68.22-6.5,8.16-6.11,14.72.09,1.45.45,7.63,3.67,8.41,2.15.52,5.15-1.46,6.11-2.1,1.13-.75,1.92-1.52,2.44-2.1Z"/>
  <path class="cls-8" d="m399.68,25.67c3.41-2.81,4.52-5.44,4.89-7.33.57-2.93-.71-3.56,0-7.33.3-1.59.62-1.99,2.44-7.33C407.53,2.12,407.95.85,408.23,0c2.02.89,5.13,2.68,7.33,6.11,3.05,4.76,3.47,11.3,1.22,15.89-.89,1.82-2.19,3.33-4.89,8.56-.53,1.02-.95,1.87-1.22,2.44"/>
  <path class="cls-26" d="m407.01,26.89c-1.69-1.27-.43-3.49-1.22-12.22-.21-2.26-.4-3.28,0-4.89.56-2.28,2.3-5.76,4.89-6.11,3.21-.43,6.22,4.16,7.33,7.33,1.68,4.79.85,11.53-3.67,14.67-1.94,1.35-5.45,2.64-7.33,1.22Z"/>
  <g>
    <g>
      <path class="cls-25" d="m359.88,143.39c-.97-3.3-11.39-4.63-19.53-1.4-3.01,1.19-3.88,2.28-15.35,12.56-9.93,8.89-11.92,10.44-15.35,11.16-7.69,1.62-12.9-2.98-13.95-1.4-1.55,2.35,7.82,15.66,18.14,15.35,6.35-.19,8.33-5.4,19.53-15.35,16.17-14.35,27.58-17.28,26.51-20.93Z"/>
      <path class="cls-30" d="m365.46,115.49c-.64-.6-2.83-2.04-22.32,6.98-12.63,5.84-13.44,7.25-19.53,9.77-18.95,7.83-34.78,4.02-34.88,5.58-.09,1.5,14.49,6.05,30.69,2.79,10.81-2.18,16.1-6.58,16.74-5.58,1.13,1.76-13.5,18.45-30.69,18.14-8.74-.16-15.13-4.66-15.35-4.19-.28.63,10.35,9.74,25.11,11.16,25.25,2.43,41.4-19.7,43.25-22.32,5.35-7.59,10.32-19.21,6.98-22.32Z"/>
      <path class="cls-1" d="m366.86,107.12c-5.75-1.5-13.81-2.51-20.93,1.4-4.79,2.63-5.27,5.35-9.77,6.98-10.35,3.74-21.23-5.84-22.32-4.19-.83,1.25,4.43,8.15,12.56,11.16,6.68,2.48,12.81,1.41,20.93,0,6.5-1.13,11.74-2.83,15.35-4.19,1.4-3.72,2.79-7.44,4.19-11.16Z"/>
      <path class="cls-9" d="m365.46,115.49c-10.87,2.21-17.9,6.36-22.32,9.77-6.51,5.01-7.67,8.62-13.95,11.16-10.04,4.05-18.95-.38-19.53,1.4-.58,1.79,7.59,9.02,16.74,8.37,7.77-.55,10.34-6.35,23.72-12.56,4.56-2.11,8.5-3.41,11.16-4.19,1.4-4.65,2.79-9.3,4.19-13.95Z"/>
      <path class="cls-16" d="m365.46,97.35c-2.16-4.14-8.28-5.44-12.56-4.19-5.7,1.67-8.51,8-11.16,13.95-3.81,8.57-2.7,12.52-6.98,15.35-3.55,2.35-8.48,2.38-9.17,2.38-3.82-.01-6.06-1.26-6.17-.99-.25.61,9.55,9.34,19.53,6.98,7.41-1.76,14.47-9.51,15.35-16.74.25-2.07-.03-3.89,1.4-5.58,2.7-3.21,7.52-1.16,9.77-4.19,1.51-2.03.96-5.14,0-6.98Z"/>
      <path class="cls-21" d="m366.86,76.42c-8.82,1.26-14.52,4.33-18.14,6.98-7.73,5.65-15.35,13.95-15.35,13.95-3.12,3.4-4.4,5.2-6.98,5.58-6.27.93-11.25-7.89-12.56-6.98-1.28.89,1.11,10.99,8.37,13.95,6.54,2.67,13.73-1.79,15.35-2.79,6.6-4.09,6.73-8.88,12.56-11.16,4.14-1.62,8.32-.86,11.16,0,1.86-6.51,3.72-13.02,5.58-19.53Z"/>
      <path class="cls-34" d="m368.25,56.89c-3.63,1.83-8.53,4.54-13.95,8.37-10.34,7.29-12.44,11.47-20.93,15.35-8.8,4.02-15.42,3.59-15.35,4.19.1.88,14.21,2.19,27.9-4.19,6.83-3.18,11.06-7.11,11.16-6.98.15.21-9.59,9.04-23.72,16.74-4.19,2.29-7.18,3.6-6.98,4.19.34,1,9.83-.85,18.14-4.19,7.38-2.97,12.96-6.76,16.74-9.77,1.86-5.12,3.72-10.23,5.58-15.35.47-2.79.93-5.58,1.4-8.37Z"/>
      <path class="cls-10" d="m372.31,52.39c-1.23-3.06-14.85-3.32-25.08,3.08-8.13,5.09-8.07,10.6-17.96,15.56-6.24,3.13-11.22,3.42-11.11,4.32.15,1.19,9.27,2.98,18.14-.21,8.51-3.07,10.2-8.36,20.78-12.8,4.05-1.7,7.56-2.5,9.73-2.9,5.22-4.1,5.9-6.04,5.5-7.04Z"/>
      <path class="cls-33" d="m375.23,41.54c-.48-1.48-14.77-1.65-25.11,6.98-7.26,6.05-6.59,11.46-13.95,15.35-8.96,4.73-17.57.76-18.14,2.79-.71,2.54,11.84,11.86,20.93,8.37,6.85-2.63,5.4-10.1,13.95-19.53,10.08-11.11,22.78-12.53,22.32-13.95Z"/>
      <path class="cls-13" d="m375.23,34.57c-.44-2.09-8.32-3.46-15.35-1.4-7.81,2.29-8.58,7.08-19.53,12.56-2.12,1.06-5.92,2.93-11.16,4.19-10.75,2.57-17.84.2-18.14,1.4-.36,1.47,9.62,8.18,20.93,6.98,7.34-.78,8.77-4.21,23.72-12.56,13.13-7.34,19.96-9.12,19.53-11.16Z"/>
    </g>
    <path class="cls-11" d="m375.23,31.78c-9.17.43-12.57,3.13-13.95,5.58-2.75,4.87,2.62,8.72,1.4,18.14-1.14,8.73-5.99,10.15-5.58,18.14.3,5.95,3.04,6.04,2.79,11.16-.4,8.19-7.52,10.05-6.98,16.74.45,5.53,5.43,5.87,5.58,11.16.16,5.61-5.37,7.46-8.37,15.35-.68,1.79-.88,5.42-1.4,12.56-.78,10.82-1.15,16.25,0,16.74,2.58,1.11,10.51-8.6,15.35-19.53,3.46-7.83,4.3-13.95,5.58-37.67,1.33-24.65,1.2-32.25,2.79-47.43.94-8.94,2.03-16.21,2.79-20.93Z"/>
  </g>
  <path class="cls-29" d="m407.01,20.78c5.55,1.9,9.91,8.08,8.56,11-.83,1.79-3.45,1.57-17.11,2.44-13,.83-15.79,1.35-18.33,3.67-2.28,2.08-5.82,6.93-6.11,7.33-2.64,3.64-3.13,5.03-3.67,4.89-1.49-.39-2.74-12.34,3.67-19.56,1.91-2.15,7.41-3.91,18.33-7.33,9.82-3.08,12.08-3.33,14.67-2.44Z"/>
  <path class="cls-13" d="m403.34,25.67c.41-1.31-6.03-6.19-13.44-6.11-9.13.1-15.53,7.68-18.33,11-3.1,3.67-5.51,8.03-4.89,8.56,1.01.84,7.54-10.36,19.56-13.44,9.25-2.37,16.68,1.37,17.11,0Z"/>
</svg>